<svg preserveAspectRatio="none" width="100%" height="100%" overflow="visible" style="display: block;" viewBox="0 0 20 20" fill="none" xmlns="http://www.w3.org/2000/svg">
<g id="On">
<rect width="20" height="20" rx="10" fill="white"/>
<path id="sun" d="M9.99978 5.38464C9.99978 5.38464 9.99978 4.46156 9.99978 4.00002M9.99978 16C9.99978 15.5385 9.99978 14.6154 9.99978 14.6154M5.38439 10C5.38439 10 4.46132 10 3.99978 10M15.9998 10C15.5382 10 14.6152 10 14.6152 10M6.73578 6.73602L5.86439 5.86464M14.1352 14.1354L13.2638 13.264M6.73578 13.264L5.86439 14.1354M14.1352 5.86464L13.2638 6.73602M12.3075 10C12.3075 11.2745 11.2743 12.3077 9.99978 12.3077C8.72527 12.3077 7.69209 11.2745 7.69209 10C7.69209 8.72552 8.72527 7.69233 9.99978 7.69233C11.2743 7.69233 12.3075 8.72552 12.3075 10Z" stroke="#1E2021" stroke-width="1.10769" stroke-linecap="round" stroke-linejoin="round"/>
</g>
</svg>
