<svg width="278" height="50" viewBox="0 0 278 50" fill="none" xmlns="http://www.w3.org/2000/svg">
<g clip-path="url(#clip0_912_84658)">
<g clip-path="url(#clip1_912_84658)">
<path d="M42.7776 45.9945C46.1803 43.7823 46.4334 38.1355 43.343 33.3822C40.2526 28.6288 34.9889 26.5688 31.5862 28.7811C28.1836 30.9933 27.9304 36.6401 31.0209 41.3934C34.1113 46.1468 39.3749 48.2068 42.7776 45.9945Z" fill="#0E003F"/>
<path d="M42.8081 45.6606C46.1908 43.4613 46.4422 37.8473 43.3696 33.1214C40.297 28.3955 35.064 26.3473 31.6813 28.5465C28.2986 30.7458 28.0472 36.3598 31.1198 41.0857C34.1923 45.8116 39.4254 47.8598 42.8081 45.6606Z" fill="url(#paint0_radial_912_84658)"/>
<path d="M40.2497 36.3099C41.3195 35.779 42.3381 35.143 43.3056 34.4437C43.4551 34.3359 43.6087 34.22 43.6909 34.0557C43.9375 33.5692 43.1708 32.7581 42.9323 32.3781C42.8717 32.2811 42.8165 32.1733 42.7437 32.0844C39.1933 27.7943 34.1823 26.5304 31.5508 29.2616C29.6833 31.2005 29.519 34.6323 30.8502 37.9941C33.607 38.459 36.4716 37.9186 39.033 36.8609C39.4439 36.6912 39.8495 36.5066 40.2483 36.3085L40.2497 36.3099Z" fill="url(#paint1_linear_912_84658)"/>
<path d="M41.709 39.2723C43.1458 38.3382 43.2528 35.9539 41.9479 33.9469C40.643 31.9398 38.4204 31.0701 36.9836 32.0042C35.5468 32.9384 35.4399 35.3227 36.7448 37.3297C38.0496 39.3367 40.2722 40.2065 41.709 39.2723Z" fill="url(#paint2_radial_912_84658)"/>
<path d="M41.7276 34.216C40.6942 32.626 38.9331 31.9375 37.7946 32.6772C36.656 33.417 36.5725 35.306 37.6059 36.896C37.6464 36.9593 37.6908 37.0186 37.734 37.0792C40.2334 36.0471 41.8098 34.3534 41.8098 34.3534C41.8098 34.3534 41.7573 34.2618 41.7276 34.216Z" fill="url(#paint3_linear_912_84658)"/>
<path d="M38.7633 39.301C39.1984 38.8968 39.1085 38.0927 38.5625 37.505C38.0166 36.9173 37.2213 36.7685 36.7862 37.1726C36.3511 37.5768 36.441 38.3809 36.987 38.9686C37.5329 39.5563 38.3282 39.7051 38.7633 39.301Z" fill="white"/>
<path d="M11.0231 32.6288C10.6876 32.6288 10.4168 32.8996 10.4154 33.2337L10.4073 39.5045C10.4073 39.84 10.6782 40.1109 11.0123 40.1122L19.7785 40.1243C20.114 40.1243 20.3848 39.8535 20.3862 39.5194L20.3943 33.2486C20.3943 32.9131 20.1234 32.6422 19.7893 32.6409L11.0231 32.6288ZM11.3492 34.5003L12.2667 35.17L13.6195 36.3206L11.3438 38.5533L11.3492 34.499V34.5003ZM11.9663 39.1785L14.2946 36.8946L14.6126 37.1655C14.8241 37.3447 15.103 37.4444 15.3994 37.4444C15.6959 37.4444 15.9761 37.346 16.1877 37.1668L16.5057 36.8973L18.8272 39.1866L11.9676 39.1771L11.9663 39.1785ZM19.4511 38.5654L17.1821 36.326L19.4565 34.5111L19.4511 38.5654ZM15.5584 36.5874C15.5194 36.6198 15.4614 36.6386 15.4008 36.6386C15.3388 36.6386 15.2822 36.6198 15.2431 36.5874L11.3505 33.5652L19.4578 33.576L15.5584 36.5874ZM28.5164 37.9402C26.2649 39.8697 23.7762 41.5661 21.0046 42.6184C18.233 43.672 15.1583 44.056 12.2748 43.3648C9.43046 42.683 6.89465 40.9894 4.87624 38.8726C2.85784 36.7545 1.3218 34.2241 0 31.6142C1.58993 32.1168 3.32134 31.9847 4.93822 31.5818C6.55645 31.179 8.09518 30.516 9.66491 29.9515C13.0213 28.7442 16.7347 27.9883 20.1329 29.0716C23.372 30.1037 25.8997 32.6813 27.8036 35.4974C26.0547 36.9795 23.6307 37.629 21.3752 37.2194C22.2038 37.0065 23.0163 36.7006 23.787 36.3287C26.4953 35.0204 22.1742 32.49 20.9332 31.8904C19.3527 31.1278 17.5782 30.7599 15.8252 30.8489C11.5984 31.0658 7.75564 33.6717 3.5248 33.805C4.26183 35.2252 5.51895 36.8461 6.73027 37.8917C9.73632 40.4881 13.059 41.9716 17.4515 41.6819C21.4156 41.4205 25.4093 40.414 28.5177 37.9402H28.5164Z" fill="url(#paint4_linear_912_84658)"/>
<path d="M18.3879 19.0146C18.5375 19.175 18.6022 19.3636 18.5847 19.5819C18.5672 19.8002 18.4769 19.9807 18.3125 20.1262C18.1481 20.2718 17.9595 20.3364 17.7452 20.323C17.531 20.3095 17.3518 20.2205 17.2076 20.0562C17.0635 19.8756 16.9961 19.6856 17.0042 19.4822C17.0123 19.2801 17.1012 19.1009 17.271 18.9446C17.4394 18.7883 17.6307 18.7209 17.8449 18.7411C18.0578 18.7627 18.2397 18.8529 18.3893 19.0133L18.3879 19.0146ZM23.5997 19.3461C23.5188 19.3138 23.2884 19.2019 22.9112 19.0106C22.5339 18.8206 22.22 18.6778 21.972 18.5821C21.7228 18.4864 21.5166 18.4231 21.3522 18.3881C21.2134 18.376 21.1043 18.4002 21.0248 18.4635C20.9453 18.5255 20.8914 18.6185 20.8645 18.7398C20.8375 18.861 20.8267 19.0025 20.8321 19.1615C20.8375 19.3205 20.851 19.493 20.8712 19.6775C20.8914 19.8621 20.9143 20.04 20.9386 20.2125C20.9642 20.3849 20.9803 20.5574 20.9898 20.7285C20.9992 20.8996 20.9965 21.0411 20.9817 21.1516C20.9669 21.2621 20.9211 21.3551 20.8456 21.4292C20.7702 21.4965 20.5775 21.4979 20.2662 21.4346C20.2231 21.4278 20.1557 21.4157 20.0655 21.3982C19.7434 21.3308 19.5319 21.3039 19.4322 21.3173C19.2718 21.3389 19.2139 21.4305 19.2597 21.5935C19.2894 21.6865 19.3581 21.8886 19.4672 22.1972C19.575 22.5057 19.6545 22.7361 19.7044 22.8857L19.8162 23.0124C19.9132 23.1215 20.0345 23.1835 20.18 23.1956C20.3269 23.2091 20.4522 23.1646 20.5586 23.0636L23.7156 20.2771C23.8247 20.1801 23.884 20.0616 23.8934 19.9187C23.9029 19.7759 23.8584 19.6466 23.7627 19.5293L23.601 19.3461H23.5997ZM25.1546 21.1071L21.2094 24.5902C20.8779 24.8758 20.4953 25.0065 20.0628 24.9836C19.6303 24.9607 19.2691 24.7855 18.9795 24.4568L15.4964 20.5116C15.2067 20.1828 15.076 19.8015 15.103 19.365C15.1299 18.9297 15.3078 18.5659 15.6366 18.2763L19.5817 14.7932C19.9065 14.5076 20.2851 14.3782 20.7216 14.4052C21.1569 14.4321 21.5207 14.61 21.8103 14.9387L25.2934 18.8839C25.579 19.2087 25.7084 19.5873 25.6814 20.0238C25.6545 20.459 25.478 20.8201 25.1546 21.1071ZM24.6358 19.9592C24.6453 19.8163 24.6008 19.691 24.5038 19.5805L21.0208 15.6354C20.9318 15.5262 20.8119 15.4669 20.6624 15.4575C20.5115 15.4481 20.3834 15.4898 20.2784 15.5828L16.3332 19.0658C16.2227 19.1709 16.1634 19.2935 16.1553 19.4364C16.1459 19.5792 16.1903 19.7045 16.2873 19.815L19.7704 23.7602C19.8634 23.8733 19.9819 23.9326 20.1288 23.938C20.2757 23.9434 20.4037 23.8976 20.5128 23.8006L24.458 20.3176C24.5671 20.2205 24.6264 20.102 24.6358 19.9592ZM29.5121 27.2176C30.0807 23.8666 30.0349 20.2569 28.4072 17.2724C26.6987 14.1411 23.4919 12.1213 20.2325 10.6756C18.7086 9.99919 17.1376 9.41576 15.6891 8.58846C14.2406 7.7625 12.8986 6.66168 12.0969 5.19975C11.2481 7.99965 10.6108 10.8912 10.6067 13.8164C10.6027 16.7416 11.2642 19.718 12.8501 22.1756C14.4576 24.667 16.9462 26.5142 19.6774 27.6676C22.4086 28.821 25.3796 29.3155 28.3412 29.4758C24.3852 29.1161 20.8025 27.0842 17.756 24.5336C14.3808 21.7081 13.0037 18.3396 12.6251 14.385C12.4729 12.7923 12.6844 10.7524 13.1317 9.21635C16.282 12.0432 20.8604 12.8139 24.0659 15.5788C25.3958 16.7254 26.4238 18.217 27.0383 19.8608C27.5206 21.1516 28.8963 25.9672 26.0344 25.0415C25.2206 24.7788 24.4216 24.4379 23.6765 24.0189C25.0239 25.8729 27.2255 27.0802 29.5134 27.2162L29.5121 27.2176Z" fill="url(#paint5_linear_912_84658)"/>
<path d="M35.7008 14.2017C35.7507 14.0333 35.9286 13.9376 36.097 13.9888L39.549 15.025C39.7174 15.0748 39.8131 15.2527 39.7619 15.4211C39.7121 15.5895 39.5342 15.6852 39.3658 15.634L35.9137 14.5979C35.7453 14.548 35.6496 14.3702 35.7008 14.2017ZM35.6699 15.4103L39.1219 16.4465C39.2903 16.4963 39.4668 16.402 39.518 16.2336C39.5679 16.0652 39.4736 15.8887 39.3051 15.8375L35.8531 14.8013C35.6847 14.7515 35.5082 14.8458 35.457 15.0142C35.4071 15.1826 35.5014 15.3605 35.6699 15.4103ZM39.2741 17.0447C39.324 16.8763 39.2297 16.6998 39.0613 16.6486L35.6092 15.6125C35.4408 15.5626 35.2643 15.6569 35.2131 15.8253C35.1632 15.9938 35.2575 16.1703 35.426 16.2215L38.878 17.2576C39.0464 17.3075 39.2229 17.2132 39.2741 17.0447ZM38.6894 19.6641L34.5286 18.4164C33.7094 18.1698 33.2418 17.3034 33.4884 16.4842L35.3613 10.2431C35.6079 9.42385 36.4742 8.95765 37.2935 9.20288L39.3995 9.83481L39.4197 9.84693C39.448 9.86041 39.4749 9.87523 39.5005 9.89275L39.5342 9.91835C39.5814 9.95877 39.615 10.0019 39.6406 10.049L41.8531 14.1573V14.1694C41.8665 14.2017 41.876 14.2368 41.8814 14.2745L41.8841 14.2907V14.3216C41.8868 14.3526 41.8841 14.3823 41.88 14.4133V14.4308L41.8679 14.4739L40.6229 18.6225C40.3763 19.4418 39.5113 19.9093 38.6907 19.6627L38.6894 19.6641ZM34.7967 17.5231L38.9575 18.7708C39.2849 18.8691 39.6312 18.6818 39.7296 18.3544L40.8412 14.6518L39.196 14.1586C38.3768 13.9134 37.9106 13.0457 38.1558 12.2264L38.649 10.5813L37.0267 10.0949C36.6993 9.9965 36.353 10.1838 36.2546 10.5112L34.3817 16.751C34.2834 17.0784 34.4707 17.4247 34.7981 17.5231H34.7967ZM44.9858 9.80786C44.7109 8.16269 44.335 6.52964 44.2272 4.8656C44.1207 3.20156 44.3 1.47555 45.0787 0.000144958C42.2748 0.832837 39.5086 1.89189 37.0644 3.49799C34.6202 5.10544 32.4994 7.29496 31.3204 9.97224C30.1253 12.6859 29.9515 15.7795 30.4931 18.6953C31.0334 21.6111 32.2569 24.3638 33.7512 26.9239C31.8742 23.4233 31.598 19.3138 32.0507 15.3672C32.552 10.9936 34.6054 7.99022 37.699 5.49753C38.944 4.49372 40.7644 3.5465 42.2937 3.07626C41.6671 7.26262 43.5441 11.5096 42.9997 15.7068C42.7747 17.4476 42.0943 19.1278 41.0608 20.5453C40.2497 21.6582 36.9863 25.4579 36.1832 22.5583C35.9555 21.7337 35.8005 20.8794 35.7386 20.0265C34.9315 22.1716 35.1363 24.6737 36.2816 26.6598C39.3927 25.2908 42.3813 23.2657 43.9766 20.2637C45.65 17.1148 45.5719 13.3246 44.9844 9.80651L44.9858 9.80786Z" fill="url(#paint6_linear_912_84658)"/>
<path d="M57.1187 35.78H61.7187V38H54.3187V24.04H57.1187V35.78ZM73.9584 26.92V38H71.1384V36.6C70.7784 37.08 70.3051 37.46 69.7184 37.74C69.1451 38.0067 68.5184 38.14 67.8384 38.14C66.9717 38.14 66.2051 37.96 65.5384 37.6C64.8717 37.2267 64.3451 36.6867 63.9584 35.98C63.5851 35.26 63.3984 34.4067 63.3984 33.42V26.92H66.1984V33.02C66.1984 33.9 66.4184 34.58 66.8584 35.06C67.2984 35.5267 67.8984 35.76 68.6584 35.76C69.4317 35.76 70.0384 35.5267 70.4784 35.06C70.9184 34.58 71.1384 33.9 71.1384 33.02V26.92H73.9584ZM90.4811 26.76C91.8411 26.76 92.9344 27.18 93.7611 28.02C94.6011 28.8467 95.0211 30.0067 95.0211 31.5V38H92.2211V31.88C92.2211 31.0133 92.0011 30.3533 91.5611 29.9C91.1211 29.4333 90.5211 29.2 89.7611 29.2C89.0011 29.2 88.3944 29.4333 87.9411 29.9C87.5011 30.3533 87.2811 31.0133 87.2811 31.88V38H84.4811V31.88C84.4811 31.0133 84.2611 30.3533 83.8211 29.9C83.3811 29.4333 82.7811 29.2 82.0211 29.2C81.2477 29.2 80.6344 29.4333 80.1811 29.9C79.7411 30.3533 79.5211 31.0133 79.5211 31.88V38H76.7211V26.92H79.5211V28.26C79.8811 27.7933 80.3411 27.4267 80.9011 27.16C81.4744 26.8933 82.1011 26.76 82.7811 26.76C83.6477 26.76 84.4211 26.9467 85.1011 27.32C85.7811 27.68 86.3077 28.2 86.6811 28.88C87.0411 28.24 87.5611 27.7267 88.2411 27.34C88.9344 26.9533 89.6811 26.76 90.4811 26.76ZM107.978 32.22C107.978 32.62 107.951 32.98 107.898 33.3H99.7981C99.8648 34.1 100.145 34.7267 100.638 35.18C101.131 35.6333 101.738 35.86 102.458 35.86C103.498 35.86 104.238 35.4133 104.678 34.52H107.698C107.378 35.5867 106.765 36.4667 105.858 37.16C104.951 37.84 103.838 38.18 102.518 38.18C101.451 38.18 100.491 37.9467 99.6381 37.48C98.7981 37 98.1381 36.3267 97.6581 35.46C97.1914 34.5933 96.9581 33.5933 96.9581 32.46C96.9581 31.3133 97.1914 30.3067 97.6581 29.44C98.1248 28.5733 98.7781 27.9067 99.6181 27.44C100.458 26.9733 101.425 26.74 102.518 26.74C103.571 26.74 104.511 26.9667 105.338 27.42C106.178 27.8733 106.825 28.52 107.278 29.36C107.745 30.1867 107.978 31.14 107.978 32.22ZM105.078 31.42C105.065 30.7 104.805 30.1267 104.298 29.7C103.791 29.26 103.171 29.04 102.438 29.04C101.745 29.04 101.158 29.2533 100.678 29.68C100.211 30.0933 99.9248 30.6733 99.8181 31.42H105.078ZM116.162 26.76C117.482 26.76 118.549 27.18 119.362 28.02C120.175 28.8467 120.582 30.0067 120.582 31.5V38H117.782V31.88C117.782 31 117.562 30.3267 117.122 29.86C116.682 29.38 116.082 29.14 115.322 29.14C114.549 29.14 113.935 29.38 113.482 29.86C113.042 30.3267 112.822 31 112.822 31.88V38H110.022V26.92H112.822V28.3C113.195 27.82 113.669 27.4467 114.242 27.18C114.829 26.9 115.469 26.76 116.162 26.76ZM132.89 24.04C134.357 24.04 135.643 24.3267 136.75 24.9C137.87 25.4733 138.73 26.2933 139.33 27.36C139.943 28.4133 140.25 29.64 140.25 31.04C140.25 32.44 139.943 33.6667 139.33 34.72C138.73 35.76 137.87 36.5667 136.75 37.14C135.643 37.7133 134.357 38 132.89 38H128.01V24.04H132.89ZM132.79 35.62C134.257 35.62 135.39 35.22 136.19 34.42C136.99 33.62 137.39 32.4933 137.39 31.04C137.39 29.5867 136.99 28.4533 136.19 27.64C135.39 26.8133 134.257 26.4 132.79 26.4H130.81V35.62H132.79ZM152.646 32.22C152.646 32.62 152.619 32.98 152.566 33.3H144.466C144.533 34.1 144.813 34.7267 145.306 35.18C145.799 35.6333 146.406 35.86 147.126 35.86C148.166 35.86 148.906 35.4133 149.346 34.52H152.366C152.046 35.5867 151.433 36.4667 150.526 37.16C149.619 37.84 148.506 38.18 147.186 38.18C146.119 38.18 145.159 37.9467 144.306 37.48C143.466 37 142.806 36.3267 142.326 35.46C141.859 34.5933 141.626 33.5933 141.626 32.46C141.626 31.3133 141.859 30.3067 142.326 29.44C142.793 28.5733 143.446 27.9067 144.286 27.44C145.126 26.9733 146.093 26.74 147.186 26.74C148.239 26.74 149.179 26.9667 150.006 27.42C150.846 27.8733 151.493 28.52 151.946 29.36C152.413 30.1867 152.646 31.14 152.646 32.22ZM149.746 31.42C149.733 30.7 149.473 30.1267 148.966 29.7C148.459 29.26 147.839 29.04 147.106 29.04C146.413 29.04 145.826 29.2533 145.346 29.68C144.879 30.0933 144.593 30.6733 144.486 31.42H149.746ZM158.93 38.18C158.023 38.18 157.21 38.02 156.49 37.7C155.77 37.3667 155.196 36.92 154.77 36.36C154.356 35.8 154.13 35.18 154.09 34.5H156.91C156.963 34.9267 157.17 35.28 157.53 35.56C157.903 35.84 158.363 35.98 158.91 35.98C159.443 35.98 159.856 35.8733 160.15 35.66C160.456 35.4467 160.61 35.1733 160.61 34.84C160.61 34.48 160.423 34.2133 160.05 34.04C159.69 33.8533 159.11 33.6533 158.31 33.44C157.483 33.24 156.803 33.0333 156.27 32.82C155.75 32.6067 155.296 32.28 154.91 31.84C154.536 31.4 154.35 30.8067 154.35 30.06C154.35 29.4467 154.523 28.8867 154.87 28.38C155.23 27.8733 155.736 27.4733 156.39 27.18C157.056 26.8867 157.836 26.74 158.73 26.74C160.05 26.74 161.103 27.0733 161.89 27.74C162.676 28.3933 163.11 29.28 163.19 30.4H160.51C160.47 29.96 160.283 29.6133 159.95 29.36C159.63 29.0933 159.196 28.96 158.65 28.96C158.143 28.96 157.75 29.0533 157.47 29.24C157.203 29.4267 157.07 29.6867 157.07 30.02C157.07 30.3933 157.256 30.68 157.63 30.88C158.003 31.0667 158.583 31.26 159.37 31.46C160.17 31.66 160.83 31.8667 161.35 32.08C161.87 32.2933 162.316 32.6267 162.69 33.08C163.076 33.52 163.276 34.1067 163.29 34.84C163.29 35.48 163.11 36.0533 162.75 36.56C162.403 37.0667 161.896 37.4667 161.23 37.76C160.576 38.04 159.81 38.18 158.93 38.18ZM167.008 25.6C166.515 25.6 166.102 25.4467 165.768 25.14C165.448 24.82 165.288 24.4267 165.288 23.96C165.288 23.4933 165.448 23.1067 165.768 22.8C166.102 22.48 166.515 22.32 167.008 22.32C167.502 22.32 167.908 22.48 168.228 22.8C168.562 23.1067 168.728 23.4933 168.728 23.96C168.728 24.4267 168.562 24.82 168.228 25.14C167.908 25.4467 167.502 25.6 167.008 25.6ZM168.388 26.92V38H165.588V26.92H168.388ZM175.495 26.74C176.321 26.74 177.048 26.9067 177.675 27.24C178.301 27.56 178.795 27.98 179.155 28.5V26.92H181.975V38.08C181.975 39.1067 181.768 40.02 181.355 40.82C180.941 41.6333 180.321 42.2733 179.495 42.74C178.668 43.22 177.668 43.46 176.495 43.46C174.921 43.46 173.628 43.0933 172.615 42.36C171.615 41.6267 171.048 40.6267 170.915 39.36H173.695C173.841 39.8667 174.155 40.2667 174.635 40.56C175.128 40.8667 175.721 41.02 176.415 41.02C177.228 41.02 177.888 40.7733 178.395 40.28C178.901 39.8 179.155 39.0667 179.155 38.08V36.36C178.795 36.88 178.295 37.3133 177.655 37.66C177.028 38.0067 176.308 38.18 175.495 38.18C174.561 38.18 173.708 37.94 172.935 37.46C172.161 36.98 171.548 36.3067 171.095 35.44C170.655 34.56 170.435 33.5533 170.435 32.42C170.435 31.3 170.655 30.3067 171.095 29.44C171.548 28.5733 172.155 27.9067 172.915 27.44C173.688 26.9733 174.548 26.74 175.495 26.74ZM179.155 32.46C179.155 31.78 179.021 31.2 178.755 30.72C178.488 30.2267 178.128 29.8533 177.675 29.6C177.221 29.3333 176.735 29.2 176.215 29.2C175.695 29.2 175.215 29.3267 174.775 29.58C174.335 29.8333 173.975 30.2067 173.695 30.7C173.428 31.18 173.295 31.7533 173.295 32.42C173.295 33.0867 173.428 33.6733 173.695 34.18C173.975 34.6733 174.335 35.0533 174.775 35.32C175.228 35.5867 175.708 35.72 176.215 35.72C176.735 35.72 177.221 35.5933 177.675 35.34C178.128 35.0733 178.488 34.7 178.755 34.22C179.021 33.7267 179.155 33.14 179.155 32.46ZM190.849 26.76C192.169 26.76 193.236 27.18 194.049 28.02C194.863 28.8467 195.269 30.0067 195.269 31.5V38H192.469V31.88C192.469 31 192.249 30.3267 191.809 29.86C191.369 29.38 190.769 29.14 190.009 29.14C189.236 29.14 188.623 29.38 188.169 29.86C187.729 30.3267 187.509 31 187.509 31.88V38H184.709V26.92H187.509V28.3C187.883 27.82 188.356 27.4467 188.929 27.18C189.516 26.9 190.156 26.76 190.849 26.76ZM207.518 38.14C206.544 38.14 205.664 37.9733 204.878 37.64C204.104 37.3067 203.491 36.8267 203.038 36.2C202.584 35.5733 202.351 34.8333 202.338 33.98H205.338C205.378 34.5533 205.578 35.0067 205.938 35.34C206.311 35.6733 206.818 35.84 207.458 35.84C208.111 35.84 208.624 35.6867 208.998 35.38C209.371 35.06 209.558 34.6467 209.558 34.14C209.558 33.7267 209.431 33.3867 209.178 33.12C208.924 32.8533 208.604 32.6467 208.218 32.5C207.844 32.34 207.324 32.1667 206.658 31.98C205.751 31.7133 205.011 31.4533 204.438 31.2C203.878 30.9333 203.391 30.54 202.978 30.02C202.578 29.4867 202.378 28.78 202.378 27.9C202.378 27.0733 202.584 26.3533 202.998 25.74C203.411 25.1267 203.991 24.66 204.738 24.34C205.484 24.0067 206.338 23.84 207.298 23.84C208.738 23.84 209.904 24.1933 210.798 24.9C211.704 25.5933 212.204 26.5667 212.298 27.82H209.218C209.191 27.34 208.984 26.9467 208.598 26.64C208.224 26.32 207.724 26.16 207.098 26.16C206.551 26.16 206.111 26.3 205.778 26.58C205.458 26.86 205.298 27.2667 205.298 27.8C205.298 28.1733 205.418 28.4867 205.658 28.74C205.911 28.98 206.218 29.18 206.578 29.34C206.951 29.4867 207.471 29.66 208.138 29.86C209.044 30.1267 209.784 30.3933 210.358 30.66C210.931 30.9267 211.424 31.3267 211.838 31.86C212.251 32.3933 212.458 33.0933 212.458 33.96C212.458 34.7067 212.264 35.4 211.878 36.04C211.491 36.68 210.924 37.1933 210.178 37.58C209.431 37.9533 208.544 38.14 207.518 38.14ZM225.485 26.92L218.625 43.24H215.645L218.045 37.72L213.605 26.92H216.745L219.605 34.66L222.505 26.92H225.485ZM231.235 38.18C230.328 38.18 229.515 38.02 228.795 37.7C228.075 37.3667 227.501 36.92 227.075 36.36C226.661 35.8 226.435 35.18 226.395 34.5H229.215C229.268 34.9267 229.475 35.28 229.835 35.56C230.208 35.84 230.668 35.98 231.215 35.98C231.748 35.98 232.161 35.8733 232.455 35.66C232.761 35.4467 232.915 35.1733 232.915 34.84C232.915 34.48 232.728 34.2133 232.355 34.04C231.995 33.8533 231.415 33.6533 230.615 33.44C229.788 33.24 229.108 33.0333 228.575 32.82C228.055 32.6067 227.601 32.28 227.215 31.84C226.841 31.4 226.655 30.8067 226.655 30.06C226.655 29.4467 226.828 28.8867 227.175 28.38C227.535 27.8733 228.041 27.4733 228.695 27.18C229.361 26.8867 230.141 26.74 231.035 26.74C232.355 26.74 233.408 27.0733 234.195 27.74C234.981 28.3933 235.415 29.28 235.495 30.4H232.815C232.775 29.96 232.588 29.6133 232.255 29.36C231.935 29.0933 231.501 28.96 230.955 28.96C230.448 28.96 230.055 29.0533 229.775 29.24C229.508 29.4267 229.375 29.6867 229.375 30.02C229.375 30.3933 229.561 30.68 229.935 30.88C230.308 31.0667 230.888 31.26 231.675 31.46C232.475 31.66 233.135 31.8667 233.655 32.08C234.175 32.2933 234.621 32.6267 234.995 33.08C235.381 33.52 235.581 34.1067 235.595 34.84C235.595 35.48 235.415 36.0533 235.055 36.56C234.708 37.0667 234.201 37.4667 233.535 37.76C232.881 38.04 232.115 38.18 231.235 38.18ZM241.153 29.22V34.58C241.153 34.9533 241.24 35.2267 241.413 35.4C241.6 35.56 241.906 35.64 242.333 35.64H243.633V38H241.873C239.513 38 238.333 36.8533 238.333 34.56V29.22H237.013V26.92H238.333V24.18H241.153V26.92H243.633V29.22H241.153ZM255.947 32.22C255.947 32.62 255.92 32.98 255.867 33.3H247.767C247.834 34.1 248.114 34.7267 248.607 35.18C249.1 35.6333 249.707 35.86 250.427 35.86C251.467 35.86 252.207 35.4133 252.647 34.52H255.667C255.347 35.5867 254.734 36.4667 253.827 37.16C252.92 37.84 251.807 38.18 250.487 38.18C249.42 38.18 248.46 37.9467 247.607 37.48C246.767 37 246.107 36.3267 245.627 35.46C245.16 34.5933 244.927 33.5933 244.927 32.46C244.927 31.3133 245.16 30.3067 245.627 29.44C246.094 28.5733 246.747 27.9067 247.587 27.44C248.427 26.9733 249.394 26.74 250.487 26.74C251.54 26.74 252.48 26.9667 253.307 27.42C254.147 27.8733 254.794 28.52 255.247 29.36C255.714 30.1867 255.947 31.14 255.947 32.22ZM253.047 31.42C253.034 30.7 252.774 30.1267 252.267 29.7C251.76 29.26 251.14 29.04 250.407 29.04C249.714 29.04 249.127 29.2533 248.647 29.68C248.18 30.0933 247.894 30.6733 247.787 31.42H253.047ZM271.751 26.76C273.111 26.76 274.204 27.18 275.031 28.02C275.871 28.8467 276.291 30.0067 276.291 31.5V38H273.491V31.88C273.491 31.0133 273.271 30.3533 272.831 29.9C272.391 29.4333 271.791 29.2 271.031 29.2C270.271 29.2 269.664 29.4333 269.211 29.9C268.771 30.3533 268.551 31.0133 268.551 31.88V38H265.751V31.88C265.751 31.0133 265.531 30.3533 265.091 29.9C264.651 29.4333 264.051 29.2 263.291 29.2C262.517 29.2 261.904 29.4333 261.451 29.9C261.011 30.3533 260.791 31.0133 260.791 31.88V38H257.991V26.92H260.791V28.26C261.151 27.7933 261.611 27.4267 262.171 27.16C262.744 26.8933 263.371 26.76 264.051 26.76C264.917 26.76 265.691 26.9467 266.371 27.32C267.051 27.68 267.577 28.2 267.951 28.88C268.311 28.24 268.831 27.7267 269.511 27.34C270.204 26.9533 270.951 26.76 271.751 26.76Z" fill="#1E2021"/>
</g>
</g>
<defs>
<radialGradient id="paint0_radial_912_84658" cx="0" cy="0" r="1" gradientTransform="matrix(5.71749 -4.31626 5.42208 7.18228 33.5163 40.5355)" gradientUnits="userSpaceOnUse">
<stop offset="0.33" stop-color="white"/>
<stop offset="0.78" stop-color="#F4F4FF"/>
<stop offset="0.99" stop-color="#BFD6FF"/>
</radialGradient>
<linearGradient id="paint1_linear_912_84658" x1="39.127" y1="30.3626" x2="32.5278" y2="37.1853" gradientUnits="userSpaceOnUse">
<stop stop-color="white" stop-opacity="0.06"/>
<stop offset="1" stop-color="white" stop-opacity="0.71"/>
</linearGradient>
<radialGradient id="paint2_radial_912_84658" cx="0" cy="0" r="1" gradientTransform="matrix(3.34149 -2.52256 3.33563 4.41849 33.7341 42.0648)" gradientUnits="userSpaceOnUse">
<stop offset="0.19" stop-color="#911771"/>
<stop offset="1" stop-color="#0E003F"/>
</radialGradient>
<linearGradient id="paint3_linear_912_84658" x1="40.453" y1="32.7958" x2="37.0212" y2="36.4055" gradientUnits="userSpaceOnUse">
<stop stop-color="white" stop-opacity="0"/>
<stop offset="1" stop-color="white" stop-opacity="0.75"/>
</linearGradient>
<linearGradient id="paint4_linear_912_84658" x1="2.51021" y1="33.9977" x2="25.2961" y2="37.6222" gradientUnits="userSpaceOnUse">
<stop stop-color="#FFCD5E"/>
<stop offset="0.51" stop-color="#EB2F3E"/>
<stop offset="1" stop-color="#8845B8"/>
</linearGradient>
<linearGradient id="paint5_linear_912_84658" x1="12.7558" y1="9.80112" x2="26.4252" y2="26.8929" gradientUnits="userSpaceOnUse">
<stop stop-color="#FFCD5E"/>
<stop offset="0.51" stop-color="#EB2F3E"/>
<stop offset="1" stop-color="#8845B8"/>
</linearGradient>
<linearGradient id="paint6_linear_912_84658" x1="42.1374" y1="2.08727" x2="34.2376" y2="25.272" gradientUnits="userSpaceOnUse">
<stop stop-color="#FFCD5E"/>
<stop offset="0.51" stop-color="#EB2F3E"/>
<stop offset="1" stop-color="#8845B8"/>
</linearGradient>
<clipPath id="clip0_912_84658">
<rect width="277.939" height="50" fill="white"/>
</clipPath>
<clipPath id="clip1_912_84658">
<rect width="277.939" height="50" fill="white"/>
</clipPath>
</defs>
</svg>
