<svg preserveAspectRatio="none" width="100%" height="100%" overflow="visible" style="display: block;" viewBox="0 0 20 20" fill="none" xmlns="http://www.w3.org/2000/svg">
<g id="Off">
<rect width="20" height="20" rx="10" fill="white"/>
<path id="moon" d="M14.9996 10.2663C14.9475 11.2314 14.617 12.1609 14.0479 12.9422C13.4788 13.7235 12.6956 14.3233 11.793 14.669C10.8903 15.0147 9.90685 15.0916 8.96145 14.8903C8.01605 14.689 7.14919 14.2182 6.46567 13.5347C5.78214 12.8513 5.31122 11.9845 5.10982 11.0391C4.90842 10.0937 4.98517 9.11021 5.33078 8.20751C5.6764 7.30482 6.27609 6.52156 7.05736 5.95241C7.83863 5.38327 8.76803 5.05261 9.73322 5.0004C9.95837 4.98817 10.0762 5.25614 9.95671 5.44682C9.55693 6.08646 9.38574 6.84271 9.47109 7.59216C9.55644 8.34161 9.89329 9.04001 10.4267 9.57338C10.96 10.1067 11.6584 10.4436 12.4079 10.5289C13.1573 10.6143 13.9136 10.4431 14.5532 10.0433C14.7445 9.9238 15.0119 10.0411 14.9996 10.2663Z" stroke="#17101A" stroke-width="0.833908" stroke-linecap="round" stroke-linejoin="round"/>
</g>
</svg>
