<svg viewBox="0 0 24 24" fill="none" xmlns="http://www.w3.org/2000/svg"><g transform="translate(-20 -56)">
<path id="Vector" d="M35 72L37.536 64.672C37.6053 64.4715 37.7354 64.2977 37.9082 64.1746C38.081 64.0515 38.2879 63.9854 38.5 63.9854C38.7121 63.9854 38.919 64.0515 39.0918 64.1746C39.2646 64.2977 39.3947 64.4715 39.464 64.672L42 72" stroke="black" stroke-width="2" stroke-linecap="round" stroke-linejoin="round"/>
<path id="Vector_2" d="M35.6973 70H41.3033" stroke="black" stroke-width="2" stroke-linecap="round" stroke-linejoin="round"/>
<path id="Vector_3" d="M22 72L26.039 62.31C26.077 62.2189 26.1411 62.1411 26.2232 62.0864C26.3053 62.0317 26.4018 62.0024 26.5005 62.0024C26.5992 62.0024 26.6957 62.0317 26.7778 62.0864C26.8599 62.1411 26.924 62.2189 26.962 62.31L31 72" stroke="black" stroke-width="2" stroke-linecap="round" stroke-linejoin="round"/>
<path id="Vector_4" d="M23.3037 69H29.6957" stroke="black" stroke-width="2" stroke-linecap="round" stroke-linejoin="round"/>
</g></svg>
