<svg viewBox="0 0 24 24" fill="none" xmlns="http://www.w3.org/2000/svg"><g transform="translate(-52 -184)">
<path id="Vector_208" d="M68 189C68.5523 189 69 188.552 69 188C69 187.448 68.5523 187 68 187C67.4477 187 67 187.448 67 188C67 188.552 67.4477 189 68 189Z" stroke="black" stroke-width="2" stroke-linecap="round" stroke-linejoin="round"/>
<path id="Vector_209" d="M70 203L71 196L65 197" stroke="black" stroke-width="2" stroke-linecap="round" stroke-linejoin="round"/>
<path id="Vector_210" d="M57 192L60 189L65.5 192L63.14 195.5" stroke="black" stroke-width="2" stroke-linecap="round" stroke-linejoin="round"/>
<path id="Vector_211" d="M56.2399 198.5C55.9577 199.423 55.9488 200.408 56.2141 201.336C56.4794 202.264 57.0077 203.096 57.7352 203.73C58.4626 204.364 59.3582 204.775 60.3137 204.911C61.2692 205.048 62.2438 204.905 63.1199 204.5" stroke="black" stroke-width="2" stroke-linecap="round" stroke-linejoin="round"/>
<path id="Vector_212" d="M65.7599 201.5C66.042 200.577 66.051 199.592 65.7857 198.664C65.5203 197.736 64.9921 196.904 64.2646 196.27C63.5372 195.636 62.6416 195.225 61.6861 195.089C60.7306 194.952 59.756 195.095 58.8799 195.5" stroke="black" stroke-width="2" stroke-linecap="round" stroke-linejoin="round"/>
</g></svg>
