<svg viewBox="0 0 24 24" fill="none" xmlns="http://www.w3.org/2000/svg"><g transform="translate(-148 -56)">
<path id="Vector_5" d="M160 58C154.48 58 150 62.48 150 68C150 73.52 154.48 78 160 78C165.52 78 170 73.52 170 68C170 62.48 165.52 58 160 58ZM155.07 74.28C155.5 73.38 158.12 72.5 160 72.5C161.88 72.5 164.51 73.38 164.93 74.28C163.57 75.36 161.86 76 160 76C158.14 76 156.43 75.36 155.07 74.28ZM166.36 72.83C164.93 71.09 161.46 70.5 160 70.5C158.54 70.5 155.07 71.09 153.64 72.83C152.62 71.49 152 69.82 152 68C152 63.59 155.59 60 160 60C164.41 60 168 63.59 168 68C168 69.82 167.38 71.49 166.36 72.83ZM160 62C158.06 62 156.5 63.56 156.5 65.5C156.5 67.44 158.06 69 160 69C161.94 69 163.5 67.44 163.5 65.5C163.5 63.56 161.94 62 160 62ZM160 67C159.17 67 158.5 66.33 158.5 65.5C158.5 64.67 159.17 64 160 64C160.83 64 161.5 64.67 161.5 65.5C161.5 66.33 160.83 67 160 67Z" fill="black" fill-opacity="0.54"/>
</g></svg>
