<svg viewBox="0 0 24 24" fill="none" xmlns="http://www.w3.org/2000/svg"><g transform="translate(-116 -56)">
<path id="Vector_4" d="M128 58C122.48 58 118 62.48 118 68C118 73.52 122.48 78 128 78C133.52 78 138 73.52 138 68C138 62.48 133.52 58 128 58ZM128 61C129.66 61 131 62.34 131 64C131 65.66 129.66 67 128 67C126.34 67 125 65.66 125 64C125 62.34 126.34 61 128 61ZM128 75.2C125.5 75.2 123.29 73.92 122 71.98C122.03 69.99 126 68.9 128 68.9C129.99 68.9 133.97 69.99 134 71.98C132.71 73.92 130.5 75.2 128 75.2Z" fill="black" fill-opacity="0.56"/>
</g></svg>
