<svg viewBox="0 0 24 24" fill="none" xmlns="http://www.w3.org/2000/svg"><g transform="translate(-276 -152)">
<path id="Vector_197" d="M298 164H295.52C295.083 163.999 294.658 164.141 294.309 164.405C293.961 164.669 293.708 165.039 293.59 165.46L291.24 173.82C291.225 173.872 291.193 173.918 291.15 173.95C291.107 173.982 291.054 174 291 174C290.946 174 290.893 173.982 290.85 173.95C290.807 173.918 290.775 173.872 290.76 173.82L285.24 154.18C285.225 154.128 285.193 154.082 285.15 154.05C285.107 154.018 285.054 154 285 154C284.946 154 284.893 154.018 284.85 154.05C284.807 154.082 284.775 154.128 284.76 154.18L282.41 162.54C282.292 162.959 282.041 163.329 281.695 163.592C281.348 163.856 280.925 163.999 280.49 164H278" stroke="black" stroke-width="2" stroke-linecap="round" stroke-linejoin="round"/>
</g></svg>
