<svg viewBox="0 0 24 24" fill="none" xmlns="http://www.w3.org/2000/svg"><g transform="translate(-340 -120)">
<path id="Vector_143" d="M350 133H346" stroke="black" stroke-width="2" stroke-linecap="round" stroke-linejoin="round"/>
<path id="Vector_144" d="M350 135V131C350 130.47 349.789 129.961 349.414 129.586C349.039 129.211 348.53 129 348 129C347.47 129 346.961 129.211 346.586 129.586C346.211 129.961 346 130.47 346 131V135" stroke="black" stroke-width="2" stroke-linecap="round" stroke-linejoin="round"/>
<path id="Vector_145" d="M354 134.5C354 134.633 354.053 134.76 354.146 134.854C354.24 134.947 354.367 135 354.5 135H355.5C356.163 135 356.799 134.737 357.268 134.268C357.737 133.799 358 133.163 358 132.5V131.5C358 130.837 357.737 130.201 357.268 129.732C356.799 129.263 356.163 129 355.5 129H354.5C354.367 129 354.24 129.053 354.146 129.146C354.053 129.24 354 129.367 354 129.5V134.5Z" stroke="black" stroke-width="2" stroke-linecap="round" stroke-linejoin="round"/>
<path id="Vector_146" d="M360 125H344C342.895 125 342 125.895 342 127V137C342 138.105 342.895 139 344 139H360C361.105 139 362 138.105 362 137V127C362 125.895 361.105 125 360 125Z" stroke="black" stroke-width="2" stroke-linecap="round" stroke-linejoin="round"/>
</g></svg>
