<svg viewBox="0 0 24 24" fill="none" xmlns="http://www.w3.org/2000/svg"><g transform="translate(-20 -56)">
<path id="Vector" d="M38 73.5C38.3399 73.7549 38.6091 74.0923 38.7824 74.4802C38.9557 74.8681 39.0273 75.2938 38.9904 75.717C38.9535 76.1403 38.8093 76.5472 38.5715 76.8992C38.3337 77.2513 38.0101 77.5369 37.6312 77.7292C37.2523 77.9215 36.8307 78.014 36.4062 77.9981C35.9816 77.9822 35.5681 77.8583 35.2047 77.6383C34.8413 77.4182 34.54 77.1091 34.3292 76.7402C34.1184 76.3713 34.0051 75.9548 34 75.53V68" stroke="black" stroke-width="2" stroke-linecap="round" stroke-linejoin="round"/>
<path id="Vector_2" d="M26 68H24C23.4696 68 22.9609 67.7893 22.5858 67.4142C22.2107 67.0391 22 66.5304 22 66V61C22 60.4696 22.2107 59.9609 22.5858 59.5858C22.9609 59.2107 23.4696 59 24 59H40C40.5304 59 41.0391 59.2107 41.4142 59.5858C41.7893 59.9609 42 60.4696 42 61V66C42 66.5304 41.7893 67.0391 41.4142 67.4142C41.0391 67.7893 40.5304 68 40 68H38" stroke="black" stroke-width="2" stroke-linecap="round" stroke-linejoin="round"/>
<path id="Vector_3" d="M26 64H38" stroke="black" stroke-width="2" stroke-linecap="round" stroke-linejoin="round"/>
<path id="Vector_4" d="M26.6 71.572C26.3645 71.8028 26.1897 72.0883 26.0913 72.403C25.9928 72.7177 25.9737 73.0519 26.0356 73.3758C26.0975 73.6997 26.2385 74.0033 26.4461 74.2595C26.6538 74.5157 26.9215 74.7166 27.2255 74.8442C27.5296 74.9719 27.8605 75.0225 28.1887 74.9914C28.517 74.9602 28.8325 74.8484 29.1072 74.6659C29.3818 74.4833 29.607 74.2357 29.7628 73.9451C29.9186 73.6544 30 73.3298 30 73V68" stroke="black" stroke-width="2" stroke-linecap="round" stroke-linejoin="round"/>
</g></svg>
