<svg viewBox="0 0 24 24" fill="none" xmlns="http://www.w3.org/2000/svg"><g transform="translate(-148 -248)">
<path id="Vector_280" d="M153 265H152C151.47 265 150.961 264.789 150.586 264.414C150.211 264.039 150 263.53 150 263V253C150 252.47 150.211 251.961 150.586 251.586C150.961 251.211 151.47 251 152 251H168C168.53 251 169.039 251.211 169.414 251.586C169.789 251.961 170 252.47 170 253V263C170 263.53 169.789 264.039 169.414 264.414C169.039 264.789 168.53 265 168 265H167" stroke="black" stroke-width="2" stroke-linecap="round" stroke-linejoin="round"/>
<path id="Vector_281" d="M160 263L165 269H155L160 263Z" stroke="black" stroke-width="2" stroke-linecap="round" stroke-linejoin="round"/>
</g></svg>
