<svg viewBox="0 0 24 24" fill="none" xmlns="http://www.w3.org/2000/svg"><g transform="translate(-116 -56)">
<path id="Vector_19" d="M122.87 62.8701C122.007 63.5788 121.303 64.4602 120.802 65.4575C120.3 66.4548 120.013 67.546 119.959 68.6609C119.904 69.7758 120.084 70.8898 120.486 71.9311C120.888 72.9725 121.503 73.9182 122.292 74.7075C123.082 75.4968 124.027 76.1122 125.069 76.5141C126.11 76.916 127.224 77.0955 128.339 77.0412C129.454 76.9868 130.545 76.6997 131.542 76.1983C132.54 75.697 133.421 74.9925 134.13 74.1301" stroke="black" stroke-width="2" stroke-linecap="round" stroke-linejoin="round"/>
<path id="Vector_20" d="M135.9 70.2499C136.097 69.0035 135.996 67.7281 135.606 66.5281C135.216 65.3281 134.547 64.2374 133.655 63.3451C132.763 62.4528 131.672 61.7843 130.472 61.3941C129.272 61.0038 127.996 60.903 126.75 61.0999" stroke="black" stroke-width="2" stroke-linecap="round" stroke-linejoin="round"/>
<path id="Vector_21" d="M138 62L135 59" stroke="black" stroke-width="2" stroke-linecap="round" stroke-linejoin="round"/>
<path id="Vector_22" d="M122.26 74.6699L120 76.9999" stroke="black" stroke-width="2" stroke-linecap="round" stroke-linejoin="round"/>
<path id="Vector_23" d="M118 58L138 78" stroke="black" stroke-width="2" stroke-linecap="round" stroke-linejoin="round"/>
<path id="Vector_24" d="M120 60L118 62" stroke="black" stroke-width="2" stroke-linecap="round" stroke-linejoin="round"/>
</g></svg>
