<svg viewBox="0 0 24 24" fill="none" xmlns="http://www.w3.org/2000/svg"><g transform="translate(-180 -56)">
<path id="Vector_32" d="M191 77C191 74.5 193 74.5 193 72" stroke="black" stroke-width="2" stroke-linecap="round" stroke-linejoin="round"/>
<path id="Vector_33" d="M196 77C196 74.5 198 74.5 198 72" stroke="black" stroke-width="2" stroke-linecap="round" stroke-linejoin="round"/>
<path id="Vector_34" d="M199 64L198.2 67C198.143 67.2782 197.994 67.5288 197.775 67.7105C197.557 67.8923 197.284 67.9944 197 68H187C186.716 67.9944 186.443 67.8923 186.225 67.7105C186.006 67.5288 185.857 67.2782 185.8 67L185 64" stroke="black" stroke-width="2" stroke-linecap="round" stroke-linejoin="round"/>
<path id="Vector_35" d="M201 59C201.265 59 201.52 59.1054 201.707 59.2929C201.895 59.4804 202 59.7348 202 60V62C202 62.5304 201.789 63.0391 201.414 63.4142C201.039 63.7893 200.53 64 200 64H184C183.47 64 182.961 63.7893 182.586 63.4142C182.211 63.0391 182 62.5304 182 62V60C182 59.7348 182.105 59.4804 182.293 59.2929C182.48 59.1054 182.735 59 183 59H201Z" stroke="black" stroke-width="2" stroke-linecap="round" stroke-linejoin="round"/>
<path id="Vector_36" d="M186 77C186 74.5 188 74.5 188 72" stroke="black" stroke-width="2" stroke-linecap="round" stroke-linejoin="round"/>
</g></svg>
