<svg viewBox="0 0 24 24" fill="none" xmlns="http://www.w3.org/2000/svg"><g transform="translate(-116 -88)">
<path id="Vector_59" d="M133 102H123C121.895 102 121 102.895 121 104V106C121 107.105 121.895 108 123 108H133C134.105 108 135 107.105 135 106V104C135 102.895 134.105 102 133 102Z" stroke="black" stroke-width="2" stroke-linecap="round" stroke-linejoin="round"/>
<path id="Vector_60" d="M131 92H125C123.895 92 123 92.8954 123 94V96C123 97.1046 123.895 98 125 98H131C132.105 98 133 97.1046 133 96V94C133 92.8954 132.105 92 131 92Z" stroke="black" stroke-width="2" stroke-linecap="round" stroke-linejoin="round"/>
<path id="Vector_61" d="M118 108H138" stroke="black" stroke-width="2" stroke-linecap="round" stroke-linejoin="round"/>
<path id="Vector_62" d="M118 98H138" stroke="black" stroke-width="2" stroke-linecap="round" stroke-linejoin="round"/>
</g></svg>
