<svg viewBox="0 0 24 24" fill="none" xmlns="http://www.w3.org/2000/svg"><g transform="translate(-244 -88)">
<path id="Vector_73" d="M261 104H251C249.895 104 249 104.895 249 106V108C249 109.105 249.895 110 251 110H261C262.105 110 263 109.105 263 108V106C263 104.895 262.105 104 261 104Z" stroke="black" stroke-width="2" stroke-linecap="round" stroke-linejoin="round"/>
<path id="Vector_74" d="M259 94H253C251.895 94 251 94.8954 251 96V98C251 99.1046 251.895 100 253 100H259C260.105 100 261 99.1046 261 98V96C261 94.8954 260.105 94 259 94Z" stroke="black" stroke-width="2" stroke-linecap="round" stroke-linejoin="round"/>
<path id="Vector_75" d="M246 90H266" stroke="black" stroke-width="2" stroke-linecap="round" stroke-linejoin="round"/>
</g></svg>
