<svg viewBox="0 0 24 24" fill="none" xmlns="http://www.w3.org/2000/svg"><g transform="translate(-84 -56)">
<path id="Vector_11" d="M92 58H90C88.8954 58 88 58.8954 88 60V72C88 73.1046 88.8954 74 90 74H92C93.1046 74 94 73.1046 94 72V60C94 58.8954 93.1046 58 92 58Z" stroke="black" stroke-width="2" stroke-linecap="round" stroke-linejoin="round"/>
<path id="Vector_12" d="M102 65H100C98.8954 65 98 65.8954 98 67V72C98 73.1046 98.8954 74 100 74H102C103.105 74 104 73.1046 104 72V67C104 65.8954 103.105 65 102 65Z" stroke="black" stroke-width="2" stroke-linecap="round" stroke-linejoin="round"/>
<path id="Vector_13" d="M106 78H86" stroke="black" stroke-width="2" stroke-linecap="round" stroke-linejoin="round"/>
</g></svg>
