<svg viewBox="0 0 24 24" fill="none" xmlns="http://www.w3.org/2000/svg"><g transform="translate(-52 -56)">
<path id="Vector_6" d="M64 58V78" stroke="black" stroke-width="2" stroke-linecap="round" stroke-linejoin="round"/>
<path id="Vector_7" d="M60 66H56C55.4696 66 54.9609 65.7893 54.5858 65.4142C54.2107 65.0391 54 64.5304 54 64V62C54 60.9 54.9 60 56 60H60" stroke="black" stroke-width="2" stroke-linecap="round" stroke-linejoin="round"/>
<path id="Vector_8" d="M68 66H72C72.5304 66 73.0391 65.7893 73.4142 65.4142C73.7893 65.0391 74 64.5304 74 64V62C74 61.4696 73.7893 60.9609 73.4142 60.5858C73.0391 60.2107 72.5304 60 72 60H68" stroke="black" stroke-width="2" stroke-linecap="round" stroke-linejoin="round"/>
<path id="Vector_9" d="M60 76H59C58.4696 76 57.9609 75.7893 57.5858 75.4142C57.2107 75.0391 57 74.5304 57 74V72C57 70.9 57.9 70 59 70H60" stroke="black" stroke-width="2" stroke-linecap="round" stroke-linejoin="round"/>
<path id="Vector_10" d="M68 70H69C69.5304 70 70.0391 70.2107 70.4142 70.5858C70.7893 70.9609 71 71.4696 71 72V74C71 74.5304 70.7893 75.0391 70.4142 75.4142C70.0391 75.7893 69.5304 76 69 76H68" stroke="black" stroke-width="2" stroke-linecap="round" stroke-linejoin="round"/>
</g></svg>
