<svg viewBox="0 0 24 24" fill="none" xmlns="http://www.w3.org/2000/svg"><g transform="translate(-20 -88)">
<path id="Vector_47" d="M28 94H26C24.8954 94 24 94.8954 24 96V108C24 109.105 24.8954 110 26 110H28C29.1046 110 30 109.105 30 108V96C30 94.8954 29.1046 94 28 94Z" stroke="black" stroke-width="2" stroke-linecap="round" stroke-linejoin="round"/>
<path id="Vector_48" d="M38 94H36C34.8954 94 34 94.8954 34 96V101C34 102.105 34.8954 103 36 103H38C39.1046 103 40 102.105 40 101V96C40 94.8954 39.1046 94 38 94Z" stroke="black" stroke-width="2" stroke-linecap="round" stroke-linejoin="round"/>
<path id="Vector_49" d="M42 90H22" stroke="black" stroke-width="2" stroke-linecap="round" stroke-linejoin="round"/>
</g></svg>
