<svg viewBox="0 0 24 24" fill="none" xmlns="http://www.w3.org/2000/svg"><g transform="translate(-180 -88)">
<path id="Vector_67" d="M197 104H187C185.895 104 185 104.895 185 106V108C185 109.105 185.895 110 187 110H197C198.105 110 199 109.105 199 108V106C199 104.895 198.105 104 197 104Z" stroke="black" stroke-width="2" stroke-linecap="round" stroke-linejoin="round"/>
<path id="Vector_68" d="M195 90H189C187.895 90 187 90.8954 187 92V94C187 95.1046 187.895 96 189 96H195C196.105 96 197 95.1046 197 94V92C197 90.8954 196.105 90 195 90Z" stroke="black" stroke-width="2" stroke-linecap="round" stroke-linejoin="round"/>
<path id="Vector_69" d="M182 100H202" stroke="black" stroke-width="2" stroke-linecap="round" stroke-linejoin="round"/>
</g></svg>
