<svg viewBox="0 0 24 24" fill="none" xmlns="http://www.w3.org/2000/svg"><g transform="translate(-276 -56)">
<path id="Vector_34" d="M282 61H280C278.895 61 278 61.8954 278 63V73C278 74.1046 278.895 75 280 75H282C283.105 75 284 74.1046 284 73V63C284 61.8954 283.105 61 282 61Z" stroke="black" stroke-width="2" stroke-linecap="round" stroke-linejoin="round"/>
<path id="Vector_35" d="M292 63H290C288.895 63 288 63.8954 288 65V71C288 72.1046 288.895 73 290 73H292C293.105 73 294 72.1046 294 71V65C294 63.8954 293.105 63 292 63Z" stroke="black" stroke-width="2" stroke-linecap="round" stroke-linejoin="round"/>
<path id="Vector_36" d="M298 58V78" stroke="black" stroke-width="2" stroke-linecap="round" stroke-linejoin="round"/>
</g></svg>
