<svg viewBox="0 0 24 24" fill="none" xmlns="http://www.w3.org/2000/svg"><g transform="translate(-180 -56)">
<path id="Vector_23" d="M188 61H186C184.895 61 184 61.8954 184 63V73C184 74.1046 184.895 75 186 75H188C189.105 75 190 74.1046 190 73V63C190 61.8954 189.105 61 188 61Z" stroke="black" stroke-width="2" stroke-linecap="round" stroke-linejoin="round"/>
<path id="Vector_24" d="M198 63H196C194.895 63 194 63.8954 194 65V71C194 72.1046 194.895 73 196 73H198C199.105 73 200 72.1046 200 71V65C200 63.8954 199.105 63 198 63Z" stroke="black" stroke-width="2" stroke-linecap="round" stroke-linejoin="round"/>
<path id="Vector_25" d="M190 58V78" stroke="black" stroke-width="2" stroke-linecap="round" stroke-linejoin="round"/>
<path id="Vector_26" d="M200 58V78" stroke="black" stroke-width="2" stroke-linecap="round" stroke-linejoin="round"/>
</g></svg>
