<svg viewBox="0 0 24 24" fill="none" xmlns="http://www.w3.org/2000/svg"><g transform="translate(-212 -88)">
<path id="Vector_70" d="M229 100H219C217.895 100 217 100.895 217 102V104C217 105.105 217.895 106 219 106H229C230.105 106 231 105.105 231 104V102C231 100.895 230.105 100 229 100Z" stroke="black" stroke-width="2" stroke-linecap="round" stroke-linejoin="round"/>
<path id="Vector_71" d="M227 90H221C219.895 90 219 90.8954 219 92V94C219 95.1046 219.895 96 221 96H227C228.105 96 229 95.1046 229 94V92C229 90.8954 228.105 90 227 90Z" stroke="black" stroke-width="2" stroke-linecap="round" stroke-linejoin="round"/>
<path id="Vector_72" d="M214 110H234" stroke="black" stroke-width="2" stroke-linecap="round" stroke-linejoin="round"/>
</g></svg>
