<svg viewBox="0 0 24 24" fill="none" xmlns="http://www.w3.org/2000/svg"><g transform="translate(-244 -56)">
<path id="Vector_31" d="M250 61H248C246.895 61 246 61.8954 246 63V73C246 74.1046 246.895 75 248 75H250C251.105 75 252 74.1046 252 73V63C252 61.8954 251.105 61 250 61Z" stroke="black" stroke-width="2" stroke-linecap="round" stroke-linejoin="round"/>
<path id="Vector_32" d="M264 63H262C260.895 63 260 63.8954 260 65V71C260 72.1046 260.895 73 262 73H264C265.105 73 266 72.1046 266 71V65C266 63.8954 265.105 63 264 63Z" stroke="black" stroke-width="2" stroke-linecap="round" stroke-linejoin="round"/>
<path id="Vector_33" d="M256 58V78" stroke="black" stroke-width="2" stroke-linecap="round" stroke-linejoin="round"/>
</g></svg>
