<svg viewBox="0 0 24 24" fill="none" xmlns="http://www.w3.org/2000/svg"><g transform="translate(-84 -88)">
<path id="Vector_53" d="M106 105H103" stroke="black" stroke-width="2" stroke-linecap="round" stroke-linejoin="round"/>
<path id="Vector_54" d="M106 95H101" stroke="black" stroke-width="2" stroke-linecap="round" stroke-linejoin="round"/>
<path id="Vector_55" d="M89 105H86" stroke="black" stroke-width="2" stroke-linecap="round" stroke-linejoin="round"/>
<path id="Vector_56" d="M91 95H86" stroke="black" stroke-width="2" stroke-linecap="round" stroke-linejoin="round"/>
<path id="Vector_57" d="M101 102H91C89.8954 102 89 102.895 89 104V106C89 107.105 89.8954 108 91 108H101C102.105 108 103 107.105 103 106V104C103 102.895 102.105 102 101 102Z" stroke="black" stroke-width="2" stroke-linecap="round" stroke-linejoin="round"/>
<path id="Vector_58" d="M99 92H93C91.8954 92 91 92.8954 91 94V96C91 97.1046 91.8954 98 93 98H99C100.105 98 101 97.1046 101 96V94C101 92.8954 100.105 92 99 92Z" stroke="black" stroke-width="2" stroke-linecap="round" stroke-linejoin="round"/>
</g></svg>
