<svg viewBox="0 0 24 24" fill="none" xmlns="http://www.w3.org/2000/svg"><g transform="translate(-148 -88)">
<path id="Vector_63" d="M165 102H155C153.895 102 153 102.895 153 104V106C153 107.105 153.895 108 155 108H165C166.105 108 167 107.105 167 106V104C167 102.895 166.105 102 165 102Z" stroke="black" stroke-width="2" stroke-linecap="round" stroke-linejoin="round"/>
<path id="Vector_64" d="M163 92H157C155.895 92 155 92.8954 155 94V96C155 97.1046 155.895 98 157 98H163C164.105 98 165 97.1046 165 96V94C165 92.8954 164.105 92 163 92Z" stroke="black" stroke-width="2" stroke-linecap="round" stroke-linejoin="round"/>
<path id="Vector_65" d="M150 102H170" stroke="black" stroke-width="2" stroke-linecap="round" stroke-linejoin="round"/>
<path id="Vector_66" d="M150 92H170" stroke="black" stroke-width="2" stroke-linecap="round" stroke-linejoin="round"/>
</g></svg>
