<svg viewBox="0 0 24 24" fill="none" xmlns="http://www.w3.org/2000/svg"><g transform="translate(-20 -56)">
<path id="Vector" d="M22 68H42" stroke="black" stroke-width="2" stroke-linecap="round" stroke-linejoin="round"/>
<path id="Vector_2" d="M30 72V76C30 76.5304 29.7893 77.0391 29.4142 77.4142C29.0391 77.7893 28.5304 78 28 78H26C25.4696 78 24.9609 77.7893 24.5858 77.4142C24.2107 77.0391 24 76.5304 24 76V72" stroke="black" stroke-width="2" stroke-linecap="round" stroke-linejoin="round"/>
<path id="Vector_3" d="M30 64V60C30 59.4696 29.7893 58.9609 29.4142 58.5858C29.0391 58.2107 28.5304 58 28 58H26C25.4696 58 24.9609 58.2107 24.5858 58.5858C24.2107 58.9609 24 59.4696 24 60V64" stroke="black" stroke-width="2" stroke-linecap="round" stroke-linejoin="round"/>
<path id="Vector_4" d="M40 72V73C40 73.5304 39.7893 74.0391 39.4142 74.4142C39.0391 74.7893 38.5304 75 38 75H36C35.4696 75 34.9609 74.7893 34.5858 74.4142C34.2107 74.0391 34 73.5304 34 73V72" stroke="black" stroke-width="2" stroke-linecap="round" stroke-linejoin="round"/>
<path id="Vector_5" d="M34 64V63C34 61.9 34.9 61 36 61H38C38.5304 61 39.0391 61.2107 39.4142 61.5858C39.7893 61.9609 40 62.4696 40 63V64" stroke="black" stroke-width="2" stroke-linecap="round" stroke-linejoin="round"/>
</g></svg>
