<svg viewBox="0 0 24 24" fill="none" xmlns="http://www.w3.org/2000/svg"><g transform="translate(-116 -56)">
<path id="Vector_14" d="M132 60H120C118.895 60 118 60.8954 118 62V64C118 65.1046 118.895 66 120 66H132C133.105 66 134 65.1046 134 64V62C134 60.8954 133.105 60 132 60Z" stroke="black" stroke-width="2" stroke-linecap="round" stroke-linejoin="round"/>
<path id="Vector_15" d="M132 70H127C125.895 70 125 70.8954 125 72V74C125 75.1046 125.895 76 127 76H132C133.105 76 134 75.1046 134 74V72C134 70.8954 133.105 70 132 70Z" stroke="black" stroke-width="2" stroke-linecap="round" stroke-linejoin="round"/>
<path id="Vector_16" d="M138 78V58" stroke="black" stroke-width="2" stroke-linecap="round" stroke-linejoin="round"/>
</g></svg>
