<svg viewBox="0 0 24 24" fill="none" xmlns="http://www.w3.org/2000/svg"><g transform="translate(-308 -88)">
<path id="Vector_79" d="M325 103H315C313.895 103 313 103.895 313 105V107C313 108.105 313.895 109 315 109H325C326.105 109 327 108.105 327 107V105C327 103.895 326.105 103 325 103Z" stroke="black" stroke-width="2" stroke-linecap="round" stroke-linejoin="round"/>
<path id="Vector_80" d="M323 91H317C315.895 91 315 91.8954 315 93V95C315 96.1046 315.895 97 317 97H323C324.105 97 325 96.1046 325 95V93C325 91.8954 324.105 91 323 91Z" stroke="black" stroke-width="2" stroke-linecap="round" stroke-linejoin="round"/>
<path id="Vector_81" d="M310 109H330" stroke="black" stroke-width="2" stroke-linecap="round" stroke-linejoin="round"/>
<path id="Vector_82" d="M310 91H330" stroke="black" stroke-width="2" stroke-linecap="round" stroke-linejoin="round"/>
</g></svg>
