<svg viewBox="0 0 24 24" fill="none" xmlns="http://www.w3.org/2000/svg"><g transform="translate(-372 -56)">
<path id="Vector_43" d="M379 61H377C375.895 61 375 61.8954 375 63V73C375 74.1046 375.895 75 377 75H379C380.105 75 381 74.1046 381 73V63C381 61.8954 380.105 61 379 61Z" stroke="black" stroke-width="2" stroke-linecap="round" stroke-linejoin="round"/>
<path id="Vector_44" d="M391 63H389C387.895 63 387 63.8954 387 65V71C387 72.1046 387.895 73 389 73H391C392.105 73 393 72.1046 393 71V65C393 63.8954 392.105 63 391 63Z" stroke="black" stroke-width="2" stroke-linecap="round" stroke-linejoin="round"/>
<path id="Vector_45" d="M375 58V78" stroke="black" stroke-width="2" stroke-linecap="round" stroke-linejoin="round"/>
<path id="Vector_46" d="M393 58V78" stroke="black" stroke-width="2" stroke-linecap="round" stroke-linejoin="round"/>
</g></svg>
