<svg viewBox="0 0 24 24" fill="none" xmlns="http://www.w3.org/2000/svg"><g transform="translate(-52 -88)">
<path id="Vector_50" d="M65 102H60C58.8954 102 58 102.895 58 104V106C58 107.105 58.8954 108 60 108H65C66.1046 108 67 107.105 67 106V104C67 102.895 66.1046 102 65 102Z" stroke="black" stroke-width="2" stroke-linecap="round" stroke-linejoin="round"/>
<path id="Vector_51" d="M72 92H60C58.8954 92 58 92.8954 58 94V96C58 97.1046 58.8954 98 60 98H72C73.1046 98 74 97.1046 74 96V94C74 92.8954 73.1046 92 72 92Z" stroke="black" stroke-width="2" stroke-linecap="round" stroke-linejoin="round"/>
<path id="Vector_52" d="M54 90V110" stroke="black" stroke-width="2" stroke-linecap="round" stroke-linejoin="round"/>
</g></svg>
