<svg viewBox="0 0 24 24" fill="none" xmlns="http://www.w3.org/2000/svg"><g transform="translate(-148 -56)">
<path id="Vector_17" d="M156 61H154C152.895 61 152 61.8954 152 63V73C152 74.1046 152.895 75 154 75H156C157.105 75 158 74.1046 158 73V63C158 61.8954 157.105 61 156 61Z" stroke="black" stroke-width="2" stroke-linecap="round" stroke-linejoin="round"/>
<path id="Vector_18" d="M166 63H164C162.895 63 162 63.8954 162 65V71C162 72.1046 162.895 73 164 73H166C167.105 73 168 72.1046 168 71V65C168 63.8954 167.105 63 166 63Z" stroke="black" stroke-width="2" stroke-linecap="round" stroke-linejoin="round"/>
<path id="Vector_19" d="M165 78V73" stroke="black" stroke-width="2" stroke-linecap="round" stroke-linejoin="round"/>
<path id="Vector_20" d="M165 63V58" stroke="black" stroke-width="2" stroke-linecap="round" stroke-linejoin="round"/>
<path id="Vector_21" d="M155 78V75" stroke="black" stroke-width="2" stroke-linecap="round" stroke-linejoin="round"/>
<path id="Vector_22" d="M155 61V58" stroke="black" stroke-width="2" stroke-linecap="round" stroke-linejoin="round"/>
</g></svg>
