<svg viewBox="0 0 24 24" fill="none" xmlns="http://www.w3.org/2000/svg"><g transform="translate(-308 -56)">
<path id="Vector_37" d="M318 61H316C314.895 61 314 61.8954 314 63V73C314 74.1046 314.895 75 316 75H318C319.105 75 320 74.1046 320 73V63C320 61.8954 319.105 61 318 61Z" stroke="black" stroke-width="2" stroke-linecap="round" stroke-linejoin="round"/>
<path id="Vector_38" d="M328 63H326C324.895 63 324 63.8954 324 65V71C324 72.1046 324.895 73 326 73H328C329.105 73 330 72.1046 330 71V65C330 63.8954 329.105 63 328 63Z" stroke="black" stroke-width="2" stroke-linecap="round" stroke-linejoin="round"/>
<path id="Vector_39" d="M310 58V78" stroke="black" stroke-width="2" stroke-linecap="round" stroke-linejoin="round"/>
</g></svg>
