<svg viewBox="0 0 24 24" fill="none" xmlns="http://www.w3.org/2000/svg"><g transform="translate(-212 -56)">
<path id="Vector_27" d="M220 61H218C216.895 61 216 61.8954 216 63V73C216 74.1046 216.895 75 218 75H220C221.105 75 222 74.1046 222 73V63C222 61.8954 221.105 61 220 61Z" stroke="black" stroke-width="2" stroke-linecap="round" stroke-linejoin="round"/>
<path id="Vector_28" d="M230 63H228C226.895 63 226 63.8954 226 65V71C226 72.1046 226.895 73 228 73H230C231.105 73 232 72.1046 232 71V65C232 63.8954 231.105 63 230 63Z" stroke="black" stroke-width="2" stroke-linecap="round" stroke-linejoin="round"/>
<path id="Vector_29" d="M216 58V78" stroke="black" stroke-width="2" stroke-linecap="round" stroke-linejoin="round"/>
<path id="Vector_30" d="M226 58V78" stroke="black" stroke-width="2" stroke-linecap="round" stroke-linejoin="round"/>
</g></svg>
