<svg viewBox="0 0 32 32" fill="none" xmlns="http://www.w3.org/2000/svg"><g transform="translate(-20 -56)">
<g id="Shapes">
<path id="Vector" fill-rule="evenodd" clip-rule="evenodd" d="M44.2495 64.1499L40.0996 72.0497L44.2495 79.9495L45.9495 78.9995V65.0999L44.2495 64.1499Z" fill="#E25444"/>
<path id="Vector_2" fill-rule="evenodd" clip-rule="evenodd" d="M44.2503 64.1499L35.9505 65.0999L31.7256 72.0497L35.9505 78.9995L44.2503 79.9495V64.1499Z" fill="#7B1D13"/>
<path id="Vector_3" fill-rule="evenodd" clip-rule="evenodd" d="M27.5004 64.1499L26.1504 64.7499V79.3495L27.5004 79.9495L35.9501 72.0497L27.5004 64.1499Z" fill="#58150D"/>
<path id="Vector_4" fill-rule="evenodd" clip-rule="evenodd" d="M27.4814 64.1343L35.9606 66.4898V77.8228L27.4814 79.9561V64.1343Z" fill="#E25444"/>
<path id="Vector_5" fill-rule="evenodd" clip-rule="evenodd" d="M35.9665 67.7321L32.3662 67.1543L35.9665 63.0656L39.5579 67.1543L35.9665 67.7321Z" fill="#58150D"/>
<path id="Vector_6" fill-rule="evenodd" clip-rule="evenodd" d="M39.5579 67.1543L35.9621 67.741L32.3662 67.1543V63.0656" fill="#58150D"/>
<path id="Vector_7" fill-rule="evenodd" clip-rule="evenodd" d="M35.9665 76.3121L32.3662 76.9788L35.9665 80.4898L39.5579 76.9788L35.9665 76.3121Z" fill="#58150D"/>
<path id="Vector_8" fill-rule="evenodd" clip-rule="evenodd" d="M35.9505 60L32.3506 61.9V67.1498L35.9617 66.1332L35.9505 60Z" fill="#7B1D13"/>
<path id="Vector_9" fill-rule="evenodd" clip-rule="evenodd" d="M35.9621 69.0216L32.3662 69.4127V74.6545L35.9621 75.0659V69.0216Z" fill="#7B1D13"/>
<path id="Vector_10" fill-rule="evenodd" clip-rule="evenodd" d="M35.9621 77.8668L32.3662 76.9652V82.1182L35.9621 84V77.8668Z" fill="#7B1D13"/>
<path id="Vector_11" fill-rule="evenodd" clip-rule="evenodd" d="M39.5588 76.9652L35.9629 77.8671V84L39.5588 82.1182V76.9652Z" fill="#E25444"/>
<path id="Vector_12" fill-rule="evenodd" clip-rule="evenodd" d="M35.9629 69.0216L39.5588 69.4127V74.6545L35.9629 75.0659V69.0216Z" fill="#E25444"/>
<path id="Vector_13" fill-rule="evenodd" clip-rule="evenodd" d="M35.9502 60L39.5501 61.9V67.1498L35.9502 66.1498V60Z" fill="#E25444"/>
</g>
</g></svg>
