<svg viewBox="0 0 24 24" fill="none" xmlns="http://www.w3.org/2000/svg"><g transform="translate(-20 -56)">
<path id="Vector" d="M30 66H26" stroke="black" stroke-width="2" stroke-linecap="round" stroke-linejoin="round"/>
<path id="Vector_2" d="M34 74V62C34 61.4696 33.7893 60.9609 33.4142 60.5858C33.0391 60.2107 32.5304 60 32 60H24C23.4696 60 22.9609 60.2107 22.5858 60.5858C22.2107 60.9609 22 61.4696 22 62V73C22 73.2652 22.1054 73.5196 22.2929 73.7071C22.4804 73.8946 22.7348 74 23 74H25" stroke="black" stroke-width="2" stroke-linecap="round" stroke-linejoin="round"/>
<path id="Vector_3" d="M39 74H41C41.2652 74 41.5196 73.8946 41.7071 73.7071C41.8946 73.5196 42 73.2652 42 73V69.72C41.9998 69.5102 41.9337 69.3058 41.8109 69.1356C41.6882 68.9655 41.515 68.8383 41.316 68.772L39.393 68.131C39.2684 68.0894 39.1532 68.0236 39.0541 67.9375C38.9549 67.8514 38.8737 67.7465 38.815 67.629L37.276 64.553C37.193 64.3869 37.0654 64.2472 36.9075 64.1496C36.7496 64.0519 36.5677 64.0001 36.382 64H34" stroke="black" stroke-width="2" stroke-linecap="round" stroke-linejoin="round"/>
<path id="Vector_4" d="M28 64V68" stroke="black" stroke-width="2" stroke-linecap="round" stroke-linejoin="round"/>
<path id="Vector_5" d="M29 74H35" stroke="black" stroke-width="2" stroke-linecap="round" stroke-linejoin="round"/>
<path id="Vector_6" d="M37 76C38.1046 76 39 75.1046 39 74C39 72.8954 38.1046 72 37 72C35.8954 72 35 72.8954 35 74C35 75.1046 35.8954 76 37 76Z" stroke="black" stroke-width="2" stroke-linecap="round" stroke-linejoin="round"/>
<path id="Vector_7" d="M27 76C28.1046 76 29 75.1046 29 74C29 72.8954 28.1046 72 27 72C25.8954 72 25 72.8954 25 74C25 75.1046 25.8954 76 27 76Z" stroke="black" stroke-width="2" stroke-linecap="round" stroke-linejoin="round"/>
</g></svg>
