<svg viewBox="0 0 24 24" fill="none" xmlns="http://www.w3.org/2000/svg"><g transform="translate(-20 -56)">
<path id="Vector" d="M36 68H39" stroke="black" stroke-width="2" stroke-linecap="round" stroke-linejoin="round"/>
<path id="Vector_2" d="M37.5 68C37.5 70.1217 36.6571 72.1566 35.1569 73.6569C33.6566 75.1571 31.6217 76 29.5 76C28.3065 76 27.1619 75.5259 26.318 74.682C25.4741 73.8381 25 72.6935 25 71.5C25 65.5 33 67.5 33 63C33 62.2044 32.6839 61.4413 32.1213 60.8787C31.5587 60.3161 30.7956 60 30 60C29.2044 60 28.4413 60.3161 27.8787 60.8787C27.3161 61.4413 27 62.2044 27 63C27 66 29.5 71.5 39 76" stroke="black" stroke-width="2" stroke-linecap="round" stroke-linejoin="round"/>
</g></svg>
