<svg viewBox="0 0 24 24" fill="none" xmlns="http://www.w3.org/2000/svg"><g transform="translate(-52 -56)">
<path id="Vector_3" d="M62 73C57 70 55 66 55 64C55 63.4696 55.2107 62.9609 55.5858 62.5858C55.9609 62.2107 56.4696 62 57 62C57.5304 62 58.0391 62.2107 58.4142 62.5858C58.7893 62.9609 59 63.4696 59 64C59 66.5 54 66.5 54 70C54 71.7 55.3 73 57 73C59.8 73 62 70.8 62 68" stroke="black" stroke-width="2" stroke-linecap="round" stroke-linejoin="round"/>
<path id="Vector_4" d="M74 73C69 70 67 66 67 64C67 63.4696 67.2107 62.9609 67.5858 62.5858C67.9609 62.2107 68.4696 62 69 62C69.5304 62 70.0391 62.2107 70.4142 62.5858C70.7893 62.9609 71 63.4696 71 64C71 66.5 66 66.5 66 70C66 71.7 67.3 73 69 73C71.8 73 74 70.8 74 68" stroke="black" stroke-width="2" stroke-linecap="round" stroke-linejoin="round"/>
</g></svg>
