<svg viewBox="0 0 24 24" fill="none" xmlns="http://www.w3.org/2000/svg"><g transform="translate(-20 -56)">
<path id="Vector" d="M30 58V63.632C30 64.056 29.728 64.427 29.347 64.614C28.3418 65.1096 27.4954 65.8768 26.9038 66.8287C26.3123 67.7806 25.9992 68.8792 26 70C26.006 74 29 77 31 78" stroke="black" stroke-width="2" stroke-linecap="round" stroke-linejoin="round"/>
<path id="Vector_2" d="M30 61H28C27.4696 61 26.9609 61.2107 26.5858 61.5858C26.2107 61.9609 26 62.4696 26 63C26 63.5304 26.2107 64.0391 26.5858 64.4142C26.9609 64.7893 27.4696 65 28 65H28.68" stroke="black" stroke-width="2" stroke-linecap="round" stroke-linejoin="round"/>
<path id="Vector_3" d="M34 58V63.632C34 64.056 34.272 64.427 34.652 64.614C35.6574 65.1094 36.504 65.8766 37.0957 66.8285C37.6875 67.7805 38.0007 68.8791 38 70C38 74 35 77 33 78" stroke="black" stroke-width="2" stroke-linecap="round" stroke-linejoin="round"/>
<path id="Vector_4" d="M34 61H36C36.5304 61 37.0391 61.2107 37.4142 61.5858C37.7893 61.9609 38 62.4696 38 63C38 63.5304 37.7893 64.0391 37.4142 64.4142C37.0391 64.7893 36.5304 65 36 65H35.32" stroke="black" stroke-width="2" stroke-linecap="round" stroke-linejoin="round"/>
<path id="Vector_5" d="M38 78H26" stroke="black" stroke-width="2" stroke-linecap="round" stroke-linejoin="round"/>
<path id="Vector_6" d="M29 58H35" stroke="black" stroke-width="2" stroke-linecap="round" stroke-linejoin="round"/>
</g></svg>
