<svg viewBox="0 0 24 24" fill="none" xmlns="http://www.w3.org/2000/svg"><g transform="translate(-20 -56)">
<path id="Vector" d="M32 62V78" stroke="black" stroke-width="2" stroke-linecap="round" stroke-linejoin="round"/>
<path id="Vector_2" d="M39 69L41 68C41 70.3869 40.0518 72.6761 38.364 74.364C36.6761 76.0518 34.3869 77 32 77C29.6131 77 27.3239 76.0518 25.636 74.364C23.9482 72.6761 23 70.3869 23 68L25 69" stroke="black" stroke-width="2" stroke-linecap="round" stroke-linejoin="round"/>
<path id="Vector_3" d="M29 67H35" stroke="black" stroke-width="2" stroke-linecap="round" stroke-linejoin="round"/>
<path id="Vector_4" d="M32 62C33.1046 62 34 61.1046 34 60C34 58.8954 33.1046 58 32 58C30.8954 58 30 58.8954 30 60C30 61.1046 30.8954 62 32 62Z" stroke="black" stroke-width="2" stroke-linecap="round" stroke-linejoin="round"/>
</g></svg>
