<svg viewBox="0 0 24 24" fill="none" xmlns="http://www.w3.org/2000/svg"><g transform="translate(-20 -56)">
<path id="Vector" d="M27 66H26C24.9391 66 23.9217 65.5786 23.1716 64.8284C22.4214 64.0783 22 63.0609 22 62C22 61.7348 22.1054 61.4804 22.2929 61.2929C22.4804 61.1054 22.7348 61 23 61H27" stroke="black" stroke-width="2" stroke-linecap="round" stroke-linejoin="round"/>
<path id="Vector_2" d="M27 61C27 60.7348 27.1054 60.4804 27.2929 60.2929C27.4804 60.1054 27.7348 60 28 60H41C41.2652 60 41.5196 60.1054 41.7071 60.2929C41.8946 60.4804 42 60.7348 42 61C42 62.8565 41.2625 64.637 39.9497 65.9497C38.637 67.2625 36.8565 68 35 68H28C27.7348 68 27.4804 67.8946 27.2929 67.7071C27.1054 67.5196 27 67.2652 27 67V61Z" stroke="black" stroke-width="2" stroke-linecap="round" stroke-linejoin="round"/>
<path id="Vector_3" d="M29 68V73" stroke="black" stroke-width="2" stroke-linecap="round" stroke-linejoin="round"/>
<path id="Vector_4" d="M35 68V73" stroke="black" stroke-width="2" stroke-linecap="round" stroke-linejoin="round"/>
<path id="Vector_5" d="M25 76C25 75.2044 25.3161 74.4413 25.8787 73.8787C26.4413 73.3161 27.2044 73 28 73H36C36.7956 73 37.5587 73.3161 38.1213 73.8787C38.6839 74.4413 39 75.2044 39 76C39 76.2652 38.8946 76.5196 38.7071 76.7071C38.5196 76.8946 38.2652 77 38 77H26C25.7348 77 25.4804 76.8946 25.2929 76.7071C25.1054 76.5196 25 76.2652 25 76Z" stroke="black" stroke-width="2" stroke-linecap="round" stroke-linejoin="round"/>
</g></svg>
