<svg viewBox="0 0 24 24" fill="none" xmlns="http://www.w3.org/2000/svg"><g transform="translate(-20 -56)">
<path id="Vector" d="M32 62.528V59C32 58.7348 32.1054 58.4804 32.2929 58.2929C32.4804 58.1054 32.7348 58 33 58" stroke="black" stroke-width="2" stroke-linecap="round" stroke-linejoin="round"/>
<path id="Vector_2" d="M38.237 77C40.6763 74.2415 42.0156 70.6822 42 67C42 65.8417 41.6647 64.7083 41.0347 63.7364C40.4047 62.7645 39.5068 61.9957 38.4495 61.5229C37.3921 61.05 36.2205 60.8933 35.0761 61.0717C33.9317 61.25 32.8633 61.7558 32 62.528C31.1367 61.7558 30.0684 61.25 28.9239 61.0717C27.7795 60.8933 26.6079 61.05 25.5506 61.5229C24.4933 61.9957 23.5954 62.7645 22.9654 63.7364C22.3353 64.7083 22 65.8417 22 67C21.9937 70.6805 23.3319 74.2367 25.763 77C26.2107 77.5009 26.8136 77.837 27.475 77.9545C28.1365 78.0719 28.8182 77.964 29.411 77.648C30.2078 77.2229 31.097 77.0005 32 77.0005C32.9031 77.0005 33.7923 77.2229 34.589 77.648C35.1818 77.964 35.8636 78.0719 36.525 77.9545C37.1865 77.837 37.7893 77.5009 38.237 77Z" stroke="black" stroke-width="2" stroke-linecap="round" stroke-linejoin="round"/>
</g></svg>
