<svg viewBox="0 0 24 24" fill="none" xmlns="http://www.w3.org/2000/svg"><g transform="translate(-20 -56)">
<path id="Vector" d="M41 59H23C22.4477 59 22 59.4477 22 60V63C22 63.5523 22.4477 64 23 64H41C41.5523 64 42 63.5523 42 63V60C42 59.4477 41.5523 59 41 59Z" stroke="black" stroke-width="2" stroke-linecap="round" stroke-linejoin="round"/>
<path id="Vector_2" d="M24 64V75C24 75.5304 24.2107 76.0391 24.5858 76.4142C24.9609 76.7893 25.4696 77 26 77H38C38.5304 77 39.0391 76.7893 39.4142 76.4142C39.7893 76.0391 40 75.5304 40 75V64" stroke="black" stroke-width="2" stroke-linecap="round" stroke-linejoin="round"/>
<path id="Vector_3" d="M30 68H34" stroke="black" stroke-width="2" stroke-linecap="round" stroke-linejoin="round"/>
</g></svg>
