<svg viewBox="0 0 24 24" fill="none" xmlns="http://www.w3.org/2000/svg"><g transform="translate(-52 -56)">
<path id="Vector_4" d="M73 59H55C54.4477 59 54 59.4477 54 60V63C54 63.5523 54.4477 64 55 64H73C73.5523 64 74 63.5523 74 63V60C74 59.4477 73.5523 59 73 59Z" stroke="black" stroke-width="2" stroke-linecap="round" stroke-linejoin="round"/>
<path id="Vector_5" d="M56 64V75C56 75.5304 56.2107 76.0391 56.5858 76.4142C56.9609 76.7893 57.4696 77 58 77H60" stroke="black" stroke-width="2" stroke-linecap="round" stroke-linejoin="round"/>
<path id="Vector_6" d="M72 64V75C72 75.5304 71.7893 76.0391 71.4142 76.4142C71.0391 76.7893 70.5304 77 70 77H68" stroke="black" stroke-width="2" stroke-linecap="round" stroke-linejoin="round"/>
<path id="Vector_7" d="M61 71L64 68L67 71" stroke="black" stroke-width="2" stroke-linecap="round" stroke-linejoin="round"/>
<path id="Vector_8" d="M64 68V77" stroke="black" stroke-width="2" stroke-linecap="round" stroke-linejoin="round"/>
</g></svg>
