<svg viewBox="0 0 24 24" fill="none" xmlns="http://www.w3.org/2000/svg"><g transform="translate(-84 -56)">
<path id="Vector_9" d="M105 59H87C86.4477 59 86 59.4477 86 60V63C86 63.5523 86.4477 64 87 64H105C105.552 64 106 63.5523 106 63V60C106 59.4477 105.552 59 105 59Z" stroke="black" stroke-width="2" stroke-linecap="round" stroke-linejoin="round"/>
<path id="Vector_10" d="M88 64V75C88 75.5304 88.2107 76.0391 88.5858 76.4142C88.9609 76.7893 89.4696 77 90 77H102C102.53 77 103.039 76.7893 103.414 76.4142C103.789 76.0391 104 75.5304 104 75V64" stroke="black" stroke-width="2" stroke-linecap="round" stroke-linejoin="round"/>
<path id="Vector_11" d="M93.5 73L98.5 68" stroke="black" stroke-width="2" stroke-linecap="round" stroke-linejoin="round"/>
<path id="Vector_12" d="M93.5 68L98.5 73" stroke="black" stroke-width="2" stroke-linecap="round" stroke-linejoin="round"/>
</g></svg>
