<svg viewBox="0 0 24 24" fill="none" xmlns="http://www.w3.org/2000/svg"><g transform="translate(-52 -56)">
<path id="Vector_5" d="M71 65V62C71 61.4696 70.7893 60.9609 70.4142 60.5858C70.0391 60.2107 69.5304 60 69 60H59C58.4696 60 57.9609 60.2107 57.5858 60.5858C57.2107 60.9609 57 61.4696 57 62V65" stroke="black" stroke-width="2" stroke-linecap="round" stroke-linejoin="round"/>
<path id="Vector_6" d="M55 72C55 72.5304 55.2107 73.0391 55.5858 73.4142C55.9609 73.7893 56.4696 74 57 74H71C71.5304 74 72.0391 73.7893 72.4142 73.4142C72.7893 73.0391 73 72.5304 73 72V67C73 66.4696 72.7893 65.9609 72.4142 65.5858C72.0391 65.2107 71.5304 65 71 65C70.4696 65 69.9609 65.2107 69.5858 65.5858C69.2107 65.9609 69 66.4696 69 67V68.5C69 68.6326 68.9473 68.7598 68.8536 68.8536C68.7598 68.9473 68.6326 69 68.5 69H59.5C59.3674 69 59.2402 68.9473 59.1464 68.8536C59.0527 68.7598 59 68.6326 59 68.5V67C59 66.4696 58.7893 65.9609 58.4142 65.5858C58.0391 65.2107 57.5304 65 57 65C56.4696 65 55.9609 65.2107 55.5858 65.5858C55.2107 65.9609 55 66.4696 55 67V72Z" stroke="black" stroke-width="2" stroke-linecap="round" stroke-linejoin="round"/>
<path id="Vector_7" d="M57 74V76" stroke="black" stroke-width="2" stroke-linecap="round" stroke-linejoin="round"/>
<path id="Vector_8" d="M71 74V76" stroke="black" stroke-width="2" stroke-linecap="round" stroke-linejoin="round"/>
</g></svg>
