<svg viewBox="0 0 24 24" fill="none" xmlns="http://www.w3.org/2000/svg"><g transform="translate(-116 -56)">
<path id="Vector_5" d="M129 64.9999C128.734 64.9999 128.48 64.8945 128.292 64.707C128.105 64.5195 128 64.2651 128 63.9999V60.7069C128 60.5671 127.958 60.4303 127.88 60.314C127.803 60.1977 127.692 60.1071 127.563 60.0536C127.434 60.0001 127.292 59.9861 127.155 60.0133C127.017 60.0406 126.891 60.108 126.793 60.2069L119.853 67.1469C119.74 67.259 119.652 67.392 119.591 67.5385C119.53 67.6849 119.499 67.8419 119.499 68.0004C119.499 68.1589 119.53 68.3159 119.591 68.4623C119.652 68.6088 119.74 68.7418 119.853 68.8539L126.793 75.7939C126.891 75.8928 127.017 75.9602 127.155 75.9875C127.292 76.0148 127.434 76.0008 127.563 75.9472C127.692 75.8937 127.803 75.8031 127.88 75.6868C127.958 75.5705 128 75.4338 128 75.2939V71.9999C128 71.7347 128.105 71.4803 128.292 71.2928C128.48 71.1053 128.734 70.9999 129 70.9999H131C131.265 70.9999 131.519 70.8946 131.707 70.707C131.894 70.5195 132 70.2651 132 69.9999V65.9999C132 65.7347 131.894 65.4803 131.707 65.2928C131.519 65.1053 131.265 64.9999 131 64.9999H129Z" stroke="black" stroke-width="2" stroke-linecap="round" stroke-linejoin="round"/>
<path id="Vector_6" d="M136 65V71" stroke="black" stroke-width="2" stroke-linecap="round" stroke-linejoin="round"/>
</g></svg>
