<svg viewBox="0 0 24 24" fill="none" xmlns="http://www.w3.org/2000/svg"><g transform="translate(-148 -56)">
<path id="Vector_7" d="M161.207 75.7929C161.108 75.8918 160.982 75.9592 160.845 75.9865C160.708 76.0138 160.566 75.9998 160.436 75.9462C160.307 75.8927 160.197 75.8021 160.119 75.6858C160.041 75.5695 160 75.4328 160 75.2929V71.9999C160 71.7347 159.895 71.4803 159.707 71.2928C159.52 71.1053 159.265 70.9999 159 70.9999H153C152.735 70.9999 152.48 70.8946 152.293 70.707C152.105 70.5195 152 70.2651 152 69.9999V65.9999C152 65.7347 152.105 65.4803 152.293 65.2928C152.48 65.1053 152.735 64.9999 153 64.9999H159C159.265 64.9999 159.52 64.8945 159.707 64.707C159.895 64.5195 160 64.2651 160 63.9999V60.7069C160 60.5671 160.041 60.4303 160.119 60.314C160.197 60.1977 160.307 60.1071 160.436 60.0536C160.566 60.0001 160.708 59.9861 160.845 60.0133C160.982 60.0406 161.108 60.108 161.207 60.2069L168.147 67.1469C168.259 67.259 168.348 67.392 168.409 67.5385C168.469 67.6849 168.501 67.8419 168.501 68.0004C168.501 68.1589 168.469 68.3159 168.409 68.4623C168.348 68.6088 168.259 68.7418 168.147 68.8539L161.207 75.7929Z" stroke="black" stroke-width="2" stroke-linecap="round" stroke-linejoin="round"/>
</g></svg>
