<svg viewBox="0 0 24 24" fill="none" xmlns="http://www.w3.org/2000/svg"><g transform="translate(-180 -56)">
<path id="Vector_8" d="M191 64.9999C191.265 64.9999 191.52 64.8945 191.707 64.707C191.895 64.5195 192 64.2651 192 63.9999V60.7069C192 60.5671 192.041 60.4303 192.119 60.314C192.197 60.1977 192.307 60.1071 192.436 60.0536C192.566 60.0001 192.708 59.9861 192.845 60.0133C192.982 60.0406 193.108 60.108 193.207 60.2069L200.147 67.1469C200.259 67.259 200.348 67.392 200.409 67.5385C200.469 67.6849 200.501 67.8419 200.501 68.0004C200.501 68.1589 200.469 68.3159 200.409 68.4623C200.348 68.6088 200.259 68.7418 200.147 68.8539L193.207 75.7939C193.108 75.8928 192.982 75.9602 192.845 75.9875C192.708 76.0148 192.566 76.0008 192.436 75.9472C192.307 75.8937 192.197 75.8031 192.119 75.6868C192.041 75.5705 192 75.4338 192 75.2939V71.9999C192 71.7347 191.895 71.4803 191.707 71.2928C191.52 71.1053 191.265 70.9999 191 70.9999H189C188.735 70.9999 188.48 70.8946 188.293 70.707C188.105 70.5195 188 70.2651 188 69.9999V65.9999C188 65.7347 188.105 65.4803 188.293 65.2928C188.48 65.1053 188.735 64.9999 189 64.9999H191Z" stroke="black" stroke-width="2" stroke-linecap="round" stroke-linejoin="round"/>
<path id="Vector_9" d="M184 65V71" stroke="black" stroke-width="2" stroke-linecap="round" stroke-linejoin="round"/>
</g></svg>
