<svg viewBox="0 0 24 24" fill="none" xmlns="http://www.w3.org/2000/svg"><g transform="translate(-212 -56)">
<path id="Vector_10" d="M221 75.0001C221 75.2653 221.106 75.5197 221.293 75.7072C221.481 75.8947 221.735 76.0001 222 76.0001H226C226.265 76.0001 226.52 75.8947 226.707 75.7072C226.895 75.5197 227 75.2653 227 75.0001V69.0001C227 68.7349 227.106 68.4805 227.293 68.293C227.481 68.1054 227.735 68.0001 228 68.0001H231.293C231.433 68.0001 231.57 67.9587 231.686 67.881C231.802 67.8033 231.893 67.6929 231.946 67.5637C232 67.4345 232.014 67.2923 231.987 67.1551C231.959 67.018 231.892 66.892 231.793 66.7931L224.707 59.7071C224.52 59.5196 224.265 59.4143 224 59.4143C223.735 59.4143 223.481 59.5196 223.293 59.7071L216.207 66.7931C216.108 66.892 216.041 67.018 216.014 67.1551C215.986 67.2923 216 67.4345 216.054 67.5637C216.107 67.6929 216.198 67.8033 216.314 67.881C216.431 67.9587 216.567 68.0001 216.707 68.0001H220C220.265 68.0001 220.52 68.1054 220.707 68.293C220.895 68.4805 221 68.7349 221 69.0001V75.0001Z" stroke="black" stroke-width="2" stroke-linecap="round" stroke-linejoin="round"/>
</g></svg>
