<svg viewBox="0 0 24 24" fill="none" xmlns="http://www.w3.org/2000/svg"><g transform="translate(-20 -56)">
<path id="Vector" d="M29.0002 61C29.0002 60.7348 29.1055 60.4804 29.293 60.2929C29.4806 60.1054 29.7349 60 30.0002 60H34.0002C34.2654 60 34.5197 60.1054 34.7073 60.2929C34.8948 60.4804 35.0002 60.7348 35.0002 61V67C35.0002 67.2652 35.1055 67.5196 35.293 67.7071C35.4806 67.8946 35.7349 68 36.0002 68H39.2932C39.433 68 39.5697 68.0414 39.686 68.1191C39.8023 68.1968 39.893 68.3072 39.9465 68.4364C40 68.5656 40.014 68.7078 39.9867 68.845C39.9594 68.9821 39.8921 69.1081 39.7932 69.207L32.7072 76.293C32.5196 76.4805 32.2653 76.5858 32.0002 76.5858C31.735 76.5858 31.4807 76.4805 31.2932 76.293L24.2072 69.207C24.1082 69.1081 24.0409 68.9821 24.0136 68.845C23.9863 68.7078 24.0003 68.5656 24.0538 68.4364C24.1073 68.3072 24.198 68.1968 24.3143 68.1191C24.4306 68.0414 24.5673 68 24.7072 68H28.0002C28.2654 68 28.5197 67.8946 28.7073 67.7071C28.8948 67.5196 29.0002 67.2652 29.0002 67V61Z" stroke="black" stroke-width="2" stroke-linecap="round" stroke-linejoin="round"/>
</g></svg>
