<svg viewBox="0 0 24 24" fill="none" xmlns="http://www.w3.org/2000/svg"><g transform="translate(-52 -56)">
<path id="Vector_2" d="M66.0002 64C66.2654 64 66.5197 64.1054 66.7073 64.2929C66.8948 64.4804 67.0002 64.7348 67.0002 65V67C67.0002 67.2652 67.1055 67.5196 67.293 67.7071C67.4806 67.8946 67.7349 68 68.0002 68H71.2932C71.433 68 71.5697 68.0414 71.686 68.1191C71.8023 68.1968 71.893 68.3072 71.9465 68.4364C72 68.5656 72.014 68.7078 71.9867 68.845C71.9594 68.9821 71.8921 69.1081 71.7932 69.207L64.8542 76.146C64.7421 76.2582 64.6089 76.3473 64.4624 76.408C64.3159 76.4688 64.1588 76.5 64.0002 76.5C63.8415 76.5 63.6844 76.4688 63.5379 76.408C63.3914 76.3473 63.2583 76.2582 63.1462 76.146L56.2062 69.206C56.1076 69.1071 56.0405 68.9812 56.0134 68.8442C55.9863 68.7072 56.0004 68.5652 56.0539 68.4362C56.1074 68.3072 56.1979 68.197 56.314 68.1193C56.43 68.0417 56.5665 68.0002 56.7062 68H60.0002C60.2654 68 60.5197 67.8946 60.7073 67.7071C60.8948 67.5196 61.0002 67.2652 61.0002 67V65C61.0002 64.7348 61.1055 64.4804 61.293 64.2929C61.4806 64.1054 61.7349 64 62.0002 64H66.0002Z" stroke="black" stroke-width="2" stroke-linecap="round" stroke-linejoin="round"/>
<path id="Vector_3" d="M61 60H67" stroke="black" stroke-width="2" stroke-linecap="round" stroke-linejoin="round"/>
</g></svg>
