<svg viewBox="0 0 24 24" fill="none" xmlns="http://www.w3.org/2000/svg"><g transform="translate(-84 -56)">
<path id="Vector_4" d="M94.7926 75.7929C94.8914 75.8918 95.0174 75.9592 95.1546 75.9865C95.2918 76.0138 95.4339 75.9998 95.5631 75.9462C95.6924 75.8927 95.8028 75.8021 95.8805 75.6858C95.9581 75.5695 95.9996 75.4328 95.9996 75.2929V71.9999C95.9996 71.7347 96.1049 71.4803 96.2925 71.2928C96.48 71.1053 96.7344 70.9999 96.9996 70.9999H103C103.265 70.9999 103.519 70.8946 103.707 70.707C103.894 70.5195 104 70.2651 104 69.9999V65.9999C104 65.7347 103.894 65.4803 103.707 65.2928C103.519 65.1053 103.265 64.9999 103 64.9999H96.9996C96.7344 64.9999 96.48 64.8945 96.2925 64.707C96.1049 64.5195 95.9996 64.2651 95.9996 63.9999V60.7069C95.9996 60.5671 95.9581 60.4303 95.8805 60.314C95.8028 60.1977 95.6924 60.1071 95.5631 60.0536C95.4339 60.0001 95.2918 59.9861 95.1546 60.0133C95.0174 60.0406 94.8914 60.108 94.7926 60.2069L87.8526 67.1469C87.7405 67.259 87.6516 67.392 87.5909 67.5385C87.5302 67.6849 87.499 67.8419 87.499 68.0004C87.499 68.1589 87.5302 68.3159 87.5909 68.4623C87.6516 68.6088 87.7405 68.7418 87.8526 68.8539L94.7926 75.7929Z" stroke="black" stroke-width="2" stroke-linecap="round" stroke-linejoin="round"/>
</g></svg>
