<svg viewBox="0 0 24 24" fill="none" xmlns="http://www.w3.org/2000/svg"><g transform="translate(-244 -56)">
<path id="Vector_11" d="M258 72C258.265 72 258.52 71.8947 258.707 71.7072C258.895 71.5196 259 71.2653 259 71V69C259 68.7348 259.106 68.4805 259.293 68.2929C259.481 68.1054 259.735 68 260 68H263.293C263.433 68.0001 263.57 67.9586 263.686 67.8809C263.802 67.8033 263.893 67.6928 263.946 67.5636C264 67.4344 264.014 67.2922 263.987 67.1551C263.959 67.0179 263.892 66.8919 263.793 66.793L256.854 59.854C256.742 59.7418 256.609 59.6528 256.462 59.592C256.316 59.5313 256.159 59.5 256 59.5C255.842 59.5 255.684 59.5313 255.538 59.592C255.391 59.6528 255.258 59.7418 255.146 59.854L248.206 66.794C248.108 66.893 248.041 67.0189 248.013 67.1559C247.986 67.2929 248 67.4348 248.054 67.5638C248.107 67.6928 248.198 67.8031 248.314 67.8807C248.43 67.9584 248.567 67.9999 248.706 68H252C252.265 68 252.52 68.1054 252.707 68.2929C252.895 68.4805 253 68.7348 253 69V71C253 71.2653 253.106 71.5196 253.293 71.7072C253.481 71.8947 253.735 72 254 72H258Z" stroke="black" stroke-width="2" stroke-linecap="round" stroke-linejoin="round"/>
<path id="Vector_12" d="M253 76H259" stroke="black" stroke-width="2" stroke-linecap="round" stroke-linejoin="round"/>
</g></svg>
