<svg viewBox="0 0 24 24" fill="none" xmlns="http://www.w3.org/2000/svg"><g transform="translate(-20 -56)">
<path id="Vector" d="M32.6393 77.7716C32.8189 77.6225 32.9406 77.4153 32.9834 77.186C33.3283 75.1355 34.3037 73.2436 35.7739 71.7734C37.2441 70.3032 39.136 69.3278 41.1864 68.983C41.4158 68.9401 41.623 68.8184 41.7721 68.6389C41.9212 68.4593 42.0028 68.2333 42.0028 68C42.0028 67.7666 41.9212 67.5406 41.7721 67.3611C41.623 67.1815 41.4158 67.0598 41.1864 67.017C39.136 66.6721 37.2441 65.6967 35.7739 64.2265C34.3037 62.7563 33.3283 60.8644 32.9834 58.814C32.9406 58.5846 32.8189 58.3774 32.6393 58.2283C32.4598 58.0792 32.2338 57.9976 32.0004 57.9976C31.7671 57.9976 31.5411 58.0792 31.3615 58.2283C31.182 58.3774 31.0603 58.5846 31.0174 58.814C30.6726 60.8644 29.6972 62.7563 28.227 64.2265C26.7568 65.6967 24.8648 66.6721 22.8144 67.017C22.585 67.0598 22.3779 67.1815 22.2288 67.3611C22.0797 67.5406 21.998 67.7666 21.998 68C21.998 68.2333 22.0797 68.4593 22.2288 68.6389C22.3779 68.8184 22.585 68.9401 22.8144 68.983C24.8648 69.3278 26.7568 70.3032 28.227 71.7734C29.6972 73.2436 30.6726 75.1355 31.0174 77.186C31.0603 77.4153 31.182 77.6225 31.3615 77.7716C31.5411 77.9207 31.7671 78.0023 32.0004 78.0023C32.2338 78.0023 32.4598 77.9207 32.6393 77.7716Z" stroke="black" stroke-width="2" stroke-linecap="round" stroke-linejoin="round"/>
</g></svg>
