<svg viewBox="0 0 24 24" fill="none" xmlns="http://www.w3.org/2000/svg"><g transform="translate(-20 -56)">
<path id="Vector" d="M32 72C34.2091 72 36 70.2091 36 68C36 65.7909 34.2091 64 32 64C29.7909 64 28 65.7909 28 68C28 70.2091 29.7909 72 32 72Z" stroke="black" stroke-width="2" stroke-linecap="round" stroke-linejoin="round"/>
<path id="Vector_2" d="M36 64V69C36 69.7957 36.3161 70.5587 36.8787 71.1213C37.4413 71.6839 38.2044 72 39 72C39.7957 72 40.5587 71.6839 41.1213 71.1213C41.6839 70.5587 42 69.7957 42 69V68C42 65.7473 41.2394 63.5606 39.8414 61.7942C38.4434 60.0277 36.49 58.7851 34.2975 58.2675C32.1051 57.75 29.8021 57.9878 27.7618 58.9426C25.7214 59.8973 24.0632 61.513 23.0557 63.5279C22.0483 65.5427 21.7507 67.8387 22.2111 70.0439C22.6715 72.249 23.863 74.2341 25.5925 75.6775C27.322 77.1209 29.4883 77.9381 31.7402 77.9966C33.9921 78.0552 36.1979 77.3516 38 76" stroke="black" stroke-width="2" stroke-linecap="round" stroke-linejoin="round"/>
</g></svg>
