<svg viewBox="0 0 24 24" fill="none" xmlns="http://www.w3.org/2000/svg"><g transform="translate(-20 -56)">
<path id="Vector" d="M32 69C32.5523 69 33 68.5523 33 68C33 67.4477 32.5523 67 32 67C31.4477 67 31 67.4477 31 68C31 68.5523 31.4477 69 32 69Z" stroke="black" stroke-width="2" stroke-linecap="round" stroke-linejoin="round"/>
<path id="Vector_2" d="M40.2004 76.2C42.2404 74.17 40.2204 68.84 35.7004 64.3C31.1604 59.78 25.8304 57.76 23.8004 59.8C21.7604 61.83 23.7804 67.16 28.3004 71.7C32.8404 76.22 38.1704 78.24 40.2004 76.2Z" stroke="black" stroke-width="2" stroke-linecap="round" stroke-linejoin="round"/>
<path id="Vector_3" d="M35.7004 71.7C40.2204 67.16 42.2404 61.83 40.2004 59.8C38.1704 57.76 32.8404 59.78 28.3004 64.3C23.7804 68.84 21.7604 74.17 23.8004 76.2C25.8304 78.24 31.1604 76.22 35.7004 71.7Z" stroke="black" stroke-width="2" stroke-linecap="round" stroke-linejoin="round"/>
</g></svg>
