<svg viewBox="0 0 24 24" fill="none" xmlns="http://www.w3.org/2000/svg"><g transform="translate(-84 -56)">
<path id="Vector_9" d="M86 69C86.5304 69 87.0391 68.7893 87.4142 68.4142C87.7893 68.0391 88 67.5304 88 67V63C88 62.4696 88.2107 61.9609 88.5858 61.5858C88.9609 61.2107 89.4696 61 90 61C90.5304 61 91.0391 61.2107 91.4142 61.5858C91.7893 61.9609 92 62.4696 92 63V76C92 76.5304 92.2107 77.0391 92.5858 77.4142C92.9609 77.7893 93.4696 78 94 78C94.5304 78 95.0391 77.7893 95.4142 77.4142C95.7893 77.0391 96 76.5304 96 76V60C96 59.4696 96.2107 58.9609 96.5858 58.5858C96.9609 58.2107 97.4696 58 98 58C98.5304 58 99.0391 58.2107 99.4142 58.5858C99.7893 58.9609 100 59.4696 100 60V73C100 73.5304 100.211 74.0391 100.586 74.4142C100.961 74.7893 101.47 75 102 75C102.53 75 103.039 74.7893 103.414 74.4142C103.789 74.0391 104 73.5304 104 73V69C104 68.4696 104.211 67.9609 104.586 67.5858C104.961 67.2107 105.47 67 106 67" stroke="black" stroke-width="2" stroke-linecap="round" stroke-linejoin="round"/>
</g></svg>
