<svg viewBox="0 0 24 24" fill="none" xmlns="http://www.w3.org/2000/svg"><g transform="translate(-52 -56)">
<path id="Vector_7" d="M67.4768 68.89L68.9918 77.416C69.0087 77.5164 68.9946 77.6196 68.9514 77.7118C68.9081 77.8039 68.8377 77.8807 68.7497 77.9318C68.6616 77.9829 68.56 78.0059 68.4586 77.9977C68.3571 77.9895 68.2605 77.9506 68.1818 77.886L64.6018 75.199C64.4289 75.0699 64.219 75.0001 64.0033 75.0001C63.7875 75.0001 63.5776 75.0699 63.4048 75.199L59.8188 77.885C59.7401 77.9494 59.6436 77.9884 59.5422 77.9966C59.4409 78.0048 59.3394 77.9818 59.2514 77.9309C59.1634 77.8799 59.093 77.8033 59.0497 77.7113C59.0063 77.6194 58.992 77.5163 59.0088 77.416L60.5228 68.89" stroke="black" stroke-width="2" stroke-linecap="round" stroke-linejoin="round"/>
<path id="Vector_8" d="M64 70C67.3137 70 70 67.3137 70 64C70 60.6863 67.3137 58 64 58C60.6863 58 58 60.6863 58 64C58 67.3137 60.6863 70 64 70Z" stroke="black" stroke-width="2" stroke-linecap="round" stroke-linejoin="round"/>
</g></svg>
