<svg viewBox="0 0 24 24" fill="none" xmlns="http://www.w3.org/2000/svg"><g transform="translate(-52 -56)">
<path id="Vector_6" d="M66.0002 68L57.6192 76.38C57.4223 76.577 57.1884 76.7334 56.931 76.84C56.6736 76.9467 56.3977 77.0016 56.1191 77.0017C55.5564 77.0018 55.0167 76.7783 54.6187 76.3805C54.2208 75.9827 53.9972 75.4431 53.9971 74.8804C53.997 74.3177 54.2204 73.778 54.6182 73.38L63.0002 65" stroke="black" stroke-width="2" stroke-linecap="round" stroke-linejoin="round"/>
<path id="Vector_7" d="M66.9999 71.5C66.9999 71.6326 67.0526 71.7598 67.1463 71.8536C67.2401 71.9473 67.3673 72 67.4999 72C68.3535 72 69.1987 71.8319 69.9873 71.5052C70.776 71.1786 71.4925 70.6998 72.0961 70.0962C72.6997 69.4926 73.1785 68.7761 73.5051 67.9875C73.8318 67.1988 73.9999 66.3536 73.9999 65.5C73.9999 65.3674 73.9472 65.2402 73.8534 65.1465C73.7597 65.0527 73.6325 65 73.4999 65H71.8279C71.2975 64.9999 70.7889 64.7891 70.4139 64.414L65.3519 59.352C65.1259 59.1261 64.8195 58.9991 64.4999 58.9991C64.1803 58.9991 63.8739 59.1261 63.6479 59.352L61.3519 61.648C61.126 61.874 60.999 62.1805 60.999 62.5C60.999 62.8196 61.126 63.126 61.3519 63.352L66.4139 68.414C66.789 68.789 66.9998 69.2976 66.9999 69.828V71.5Z" stroke="black" stroke-width="2" stroke-linecap="round" stroke-linejoin="round"/>
</g></svg>
