<svg viewBox="0 0 24 24" fill="none" xmlns="http://www.w3.org/2000/svg"><g transform="translate(-20 -56)">
<path id="Vector" d="M30 72C30.5 72.3 31.2 72.5 32 72.5C32.8 72.5 33.5 72.3 34 72" stroke="black" stroke-width="2" stroke-linecap="round" stroke-linejoin="round"/>
<path id="Vector_2" d="M35 68H35.01" stroke="black" stroke-width="2" stroke-linecap="round" stroke-linejoin="round"/>
<path id="Vector_3" d="M39.3805 62.813C40.0816 63.8324 40.565 64.9854 40.8005 66.2C41.1386 66.3638 41.4238 66.6195 41.6233 66.9378C41.8229 67.2562 41.9287 67.6243 41.9287 68C41.9287 68.3757 41.8229 68.7438 41.6233 69.0622C41.4238 69.3805 41.1386 69.6362 40.8005 69.8C40.3688 71.8135 39.2597 73.618 37.6582 74.9125C36.0567 76.207 34.0597 76.9132 32.0005 76.9132C29.9412 76.9132 27.9443 76.207 26.3428 74.9125C24.7413 73.618 23.6322 71.8135 23.2005 69.8C22.8623 69.6362 22.5772 69.3805 22.3776 69.0622C22.1781 68.7438 22.0723 68.3757 22.0723 68C22.0723 67.6243 22.1781 67.2562 22.3776 66.9378C22.5772 66.6195 22.8623 66.3638 23.2005 66.2C23.6148 64.1705 24.7164 62.346 26.3195 61.0344C27.9226 59.7227 29.9291 59.0042 32.0005 59C34.0005 59 35.5005 60.1 35.5005 61.5C35.5005 62.9 34.6005 64 33.5005 64C32.7005 64 32.0005 63.6 32.0005 63" stroke="black" stroke-width="2" stroke-linecap="round" stroke-linejoin="round"/>
<path id="Vector_4" d="M29 68H29.01" stroke="black" stroke-width="2" stroke-linecap="round" stroke-linejoin="round"/>
</g></svg>
