<svg viewBox="0 0 24 24" fill="none" xmlns="http://www.w3.org/2000/svg"><g transform="translate(-52 -56)">
<path id="Vector_5" d="M56 66C56 64.9391 56.4214 63.9217 57.1716 63.1716C57.9217 62.4214 58.9391 62 60 62H68C69.0609 62 70.0783 62.4214 70.8284 63.1716C71.5786 63.9217 72 64.9391 72 66V76C72 76.5304 71.7893 77.0391 71.4142 77.4142C71.0391 77.7893 70.5304 78 70 78H58C57.4696 78 56.9609 77.7893 56.5858 77.4142C56.2107 77.0391 56 76.5304 56 76V66Z" stroke="black" stroke-width="2" stroke-linecap="round" stroke-linejoin="round"/>
<path id="Vector_6" d="M60 66H68" stroke="black" stroke-width="2" stroke-linecap="round" stroke-linejoin="round"/>
<path id="Vector_7" d="M60 74H68" stroke="black" stroke-width="2" stroke-linecap="round" stroke-linejoin="round"/>
<path id="Vector_8" d="M60 78V72C60 71.4696 60.2107 70.9609 60.5858 70.5858C60.9609 70.2107 61.4696 70 62 70H66C66.5304 70 67.0391 70.2107 67.4142 70.5858C67.7893 70.9609 68 71.4696 68 72V78" stroke="black" stroke-width="2" stroke-linecap="round" stroke-linejoin="round"/>
<path id="Vector_9" d="M61 62V60C61 59.4696 61.2107 58.9609 61.5858 58.5858C61.9609 58.2107 62.4696 58 63 58H65C65.5304 58 66.0391 58.2107 66.4142 58.5858C66.7893 58.9609 67 59.4696 67 60V62" stroke="black" stroke-width="2" stroke-linecap="round" stroke-linejoin="round"/>
</g></svg>
