<svg viewBox="0 0 24 24" fill="none" xmlns="http://www.w3.org/2000/svg"><g transform="translate(-20 -56)">
<path id="Vector" d="M42 74H26C25.4696 74 24.9609 73.7893 24.5858 73.4142C24.2107 73.0391 24 72.5304 24 72V63C24 62.4696 23.7893 61.9609 23.4142 61.5858C23.0391 61.2107 22.5304 61 22 61" stroke="black" stroke-width="2" stroke-linecap="round" stroke-linejoin="round"/>
<path id="Vector_2" d="M37 70V60C37 59.4696 36.7893 58.9609 36.4142 58.5858C36.0391 58.2107 35.5304 58 35 58H34C33.4696 58 32.9609 58.2107 32.5858 58.5858C32.2107 58.9609 32 59.4696 32 60V70" stroke="black" stroke-width="2" stroke-linecap="round" stroke-linejoin="round"/>
<path id="Vector_3" d="M40 62H29C28.4477 62 28 62.4477 28 63V69C28 69.5523 28.4477 70 29 70H40C40.5523 70 41 69.5523 41 69V63C41 62.4477 40.5523 62 40 62Z" stroke="black" stroke-width="2" stroke-linecap="round" stroke-linejoin="round"/>
<path id="Vector_4" d="M38 78C39.1046 78 40 77.1046 40 76C40 74.8954 39.1046 74 38 74C36.8954 74 36 74.8954 36 76C36 77.1046 36.8954 78 38 78Z" stroke="black" stroke-width="2" stroke-linecap="round" stroke-linejoin="round"/>
<path id="Vector_5" d="M29 78C30.1046 78 31 77.1046 31 76C31 74.8954 30.1046 74 29 74C27.8954 74 27 74.8954 27 76C27 77.1046 27.8954 78 29 78Z" stroke="black" stroke-width="2" stroke-linecap="round" stroke-linejoin="round"/>
</g></svg>
