<svg viewBox="0 0 24 24" fill="none" xmlns="http://www.w3.org/2000/svg"><g transform="translate(-84 -56)">
<path id="Vector_9" d="M96 72V73C96 73.5304 96.2107 74.0391 96.5858 74.4142C96.9609 74.7893 97.4696 75 98 75H99C99.5304 75 100.039 75.2107 100.414 75.5858C100.789 75.9609 101 76.4696 101 77V78" stroke="black" stroke-width="2" stroke-linecap="round" stroke-linejoin="round"/>
<path id="Vector_10" d="M96 62C96.5304 62 97.0391 62.2107 97.4142 62.5858C97.7893 62.9609 98 63.4696 98 64" stroke="black" stroke-width="2" stroke-linecap="round" stroke-linejoin="round"/>
<path id="Vector_11" d="M96 72C98.5 72 102 68 102 64C102 62.4087 101.368 60.8826 100.243 59.7574C99.1174 58.6321 97.5913 58 96 58C94.4087 58 92.8826 58.6321 91.7574 59.7574C90.6321 60.8826 90 62.4087 90 64C90 68 93.5 72 96 72Z" stroke="black" stroke-width="2" stroke-linecap="round" stroke-linejoin="round"/>
</g></svg>
