<svg viewBox="0 0 24 24" fill="none" xmlns="http://www.w3.org/2000/svg"><g transform="translate(-52 -56)">
<path id="Vector_3" d="M56 69C59.5 67 64 67 66 71C66.8461 70.568 67.7897 70.3625 68.7389 70.4036C69.688 70.4447 70.6103 70.731 71.4159 71.2345C72.2216 71.738 72.883 72.4416 73.3359 73.2768C73.7887 74.1119 74.0175 75.0501 74 76" stroke="black" stroke-width="2" stroke-linecap="round" stroke-linejoin="round"/>
<path id="Vector_4" d="M57.15 73.89C62.67 72.37 65.8 67 64.15 61.89C63.55 60 63.5 58 65 58C68.22 58 70 63.5 70 66C70 72.5 65.8 78 59.51 78C57.11 78 54 78 54 76C54 74.5 55.14 74.45 57.15 73.89Z" stroke="black" stroke-width="2" stroke-linecap="round" stroke-linejoin="round"/>
</g></svg>
