<svg viewBox="0 0 24 24" fill="none" xmlns="http://www.w3.org/2000/svg"><g transform="translate(-276 -56)">
<path id="Vector_34" d="M289 74H280C279.47 74 278.961 73.7893 278.586 73.4142C278.211 73.0391 278 72.5304 278 72V64C278 63.4696 278.211 62.9609 278.586 62.5858C278.961 62.2107 279.47 62 280 62H296C296.53 62 297.039 62.2107 297.414 62.5858C297.789 62.9609 298 63.4696 298 64V69" stroke="black" stroke-width="2" stroke-linecap="round" stroke-linejoin="round"/>
<path id="Vector_35" d="M293 73L298 78" stroke="black" stroke-width="2" stroke-linecap="round" stroke-linejoin="round"/>
<path id="Vector_36" d="M294 68H294.01" stroke="black" stroke-width="2" stroke-linecap="round" stroke-linejoin="round"/>
<path id="Vector_37" d="M298 73L293 78" stroke="black" stroke-width="2" stroke-linecap="round" stroke-linejoin="round"/>
<path id="Vector_38" d="M282 68H282.01" stroke="black" stroke-width="2" stroke-linecap="round" stroke-linejoin="round"/>
<path id="Vector_39" d="M288 70C289.105 70 290 69.1046 290 68C290 66.8954 289.105 66 288 66C286.895 66 286 66.8954 286 68C286 69.1046 286.895 70 288 70Z" stroke="black" stroke-width="2" stroke-linecap="round" stroke-linejoin="round"/>
</g></svg>
