<svg viewBox="0 0 24 24" fill="none" xmlns="http://www.w3.org/2000/svg"><g transform="translate(-212 -56)">
<path id="Vector_23" d="M224 74H216C215.47 74 214.961 73.7893 214.586 73.4142C214.211 73.0391 214 72.5304 214 72V64C214 63.4696 214.211 62.9609 214.586 62.5858C214.961 62.2107 215.47 62 216 62H232C232.53 62 233.039 62.2107 233.414 62.5858C233.789 62.9609 234 63.4696 234 64V69" stroke="black" stroke-width="2" stroke-linecap="round" stroke-linejoin="round"/>
<path id="Vector_24" d="M230 68H230.01" stroke="black" stroke-width="2" stroke-linecap="round" stroke-linejoin="round"/>
<path id="Vector_25" d="M231 78V72" stroke="black" stroke-width="2" stroke-linecap="round" stroke-linejoin="round"/>
<path id="Vector_26" d="M234 75L231 72L228 75" stroke="black" stroke-width="2" stroke-linecap="round" stroke-linejoin="round"/>
<path id="Vector_27" d="M218 68H218.01" stroke="black" stroke-width="2" stroke-linecap="round" stroke-linejoin="round"/>
<path id="Vector_28" d="M224 70C225.105 70 226 69.1046 226 68C226 66.8954 225.105 66 224 66C222.895 66 222 66.8954 222 68C222 69.1046 222.895 70 224 70Z" stroke="black" stroke-width="2" stroke-linecap="round" stroke-linejoin="round"/>
</g></svg>
