<svg viewBox="0 0 24 24" fill="none" xmlns="http://www.w3.org/2000/svg"><g transform="translate(-180 -56)">
<path id="Vector_17" d="M192 74H184C183.47 74 182.961 73.7893 182.586 73.4142C182.211 73.0391 182 72.5304 182 72V64C182 63.4696 182.211 62.9609 182.586 62.5858C182.961 62.2107 183.47 62 184 62H200C200.53 62 201.039 62.2107 201.414 62.5858C201.789 62.9609 202 63.4696 202 64V69" stroke="black" stroke-width="2" stroke-linecap="round" stroke-linejoin="round"/>
<path id="Vector_18" d="M196 75L199 78L202 75" stroke="black" stroke-width="2" stroke-linecap="round" stroke-linejoin="round"/>
<path id="Vector_19" d="M198 68H198.01" stroke="black" stroke-width="2" stroke-linecap="round" stroke-linejoin="round"/>
<path id="Vector_20" d="M199 72V78" stroke="black" stroke-width="2" stroke-linecap="round" stroke-linejoin="round"/>
<path id="Vector_21" d="M186 68H186.01" stroke="black" stroke-width="2" stroke-linecap="round" stroke-linejoin="round"/>
<path id="Vector_22" d="M192 70C193.105 70 194 69.1046 194 68C194 66.8954 193.105 66 192 66C190.895 66 190 66.8954 190 68C190 69.1046 190.895 70 192 70Z" stroke="black" stroke-width="2" stroke-linecap="round" stroke-linejoin="round"/>
</g></svg>
