<svg viewBox="0 0 24 24" fill="none" xmlns="http://www.w3.org/2000/svg"><g transform="translate(-148 -56)">
<path id="Vector_14" d="M168 62H152C150.895 62 150 62.8954 150 64V72C150 73.1046 150.895 74 152 74H168C169.105 74 170 73.1046 170 72V64C170 62.8954 169.105 62 168 62Z" stroke="black" stroke-width="2" stroke-linecap="round" stroke-linejoin="round"/>
<path id="Vector_15" d="M160 70C161.105 70 162 69.1046 162 68C162 66.8954 161.105 66 160 66C158.895 66 158 66.8954 158 68C158 69.1046 158.895 70 160 70Z" stroke="black" stroke-width="2" stroke-linecap="round" stroke-linejoin="round"/>
<path id="Vector_16" d="M154 68H154.01M166 68H166.01" stroke="black" stroke-width="2" stroke-linecap="round" stroke-linejoin="round"/>
</g></svg>
