<svg viewBox="0 0 24 24" fill="none" xmlns="http://www.w3.org/2000/svg"><g transform="translate(-244 -56)">
<path id="Vector_29" d="M255.748 74H248C247.47 74 246.961 73.7893 246.586 73.4142C246.211 73.0391 246 72.5304 246 72V64C246 63.4696 246.211 62.9609 246.586 62.5858C246.961 62.2107 247.47 62 248 62H264C264.53 62 265.039 62.2107 265.414 62.5858C265.789 62.9609 266 63.4696 266 64V68.875" stroke="black" stroke-width="2" stroke-linecap="round" stroke-linejoin="round"/>
<path id="Vector_30" d="M260 75L262 77L266 73" stroke="black" stroke-width="2" stroke-linecap="round" stroke-linejoin="round"/>
<path id="Vector_31" d="M262 68H262.01" stroke="black" stroke-width="2" stroke-linecap="round" stroke-linejoin="round"/>
<path id="Vector_32" d="M250 68H250.01" stroke="black" stroke-width="2" stroke-linecap="round" stroke-linejoin="round"/>
<path id="Vector_33" d="M256 70C257.105 70 258 69.1046 258 68C258 66.8954 257.105 66 256 66C254.895 66 254 66.8954 254 68C254 69.1046 254.895 70 256 70Z" stroke="black" stroke-width="2" stroke-linecap="round" stroke-linejoin="round"/>
</g></svg>
