<svg viewBox="0 0 24 24" fill="none" xmlns="http://www.w3.org/2000/svg"><g transform="translate(-84 -56)">
<path id="Vector_8" d="M94 59C92.6667 64.9259 92.6667 71.0741 94 77" stroke="black" stroke-width="2" stroke-linecap="round" stroke-linejoin="round"/>
<path id="Vector_9" d="M98 59C99.3333 64.9259 99.3333 71.0741 98 77" stroke="black" stroke-width="2" stroke-linecap="round" stroke-linejoin="round"/>
<path id="Vector_10" d="M101 59C101.335 59.0006 101.664 59.0851 101.958 59.2458C102.251 59.4065 102.5 59.6383 102.68 59.92C104.194 62.3432 104.997 65.1428 104.997 68C104.997 70.8572 104.194 73.6568 102.68 76.08C102.5 76.3617 102.251 76.5935 101.958 76.7542C101.664 76.9149 101.335 76.9994 101 77H91.0004C90.6657 76.9994 90.3366 76.9149 90.0431 76.7542C89.7496 76.5935 89.5011 76.3617 89.3204 76.08C87.8066 73.6568 87.0039 70.8572 87.0039 68C87.0039 65.1428 87.8066 62.3432 89.3204 59.92C89.5011 59.6383 89.7496 59.4065 90.0431 59.2458C90.3366 59.0851 90.6657 59.0006 91.0004 59H101Z" stroke="black" stroke-width="2" stroke-linecap="round" stroke-linejoin="round"/>
<path id="Vector_11" d="M87.8398 73H104.16" stroke="black" stroke-width="2" stroke-linecap="round" stroke-linejoin="round"/>
<path id="Vector_12" d="M87.8398 63H104.16" stroke="black" stroke-width="2" stroke-linecap="round" stroke-linejoin="round"/>
</g></svg>
