<svg viewBox="0 0 24 24" fill="none" xmlns="http://www.w3.org/2000/svg"><g transform="translate(-84 -56)">
<path id="Vector_9" d="M94 60L92 62" stroke="black" stroke-width="2" stroke-linecap="round" stroke-linejoin="round"/>
<path id="Vector_10" d="M101 75V77" stroke="black" stroke-width="2" stroke-linecap="round" stroke-linejoin="round"/>
<path id="Vector_11" d="M86 68H106" stroke="black" stroke-width="2" stroke-linecap="round" stroke-linejoin="round"/>
<path id="Vector_12" d="M91 75V77" stroke="black" stroke-width="2" stroke-linecap="round" stroke-linejoin="round"/>
<path id="Vector_13" d="M93 61L91.621 59.621C91.3318 59.3305 90.9646 59.1299 90.5639 59.0437C90.1631 58.9575 89.746 58.9893 89.3629 59.1352C88.9798 59.281 88.6472 59.5348 88.4053 59.8658C88.1635 60.1967 88.0227 60.5907 88 61V73C88 73.5304 88.2107 74.0391 88.5858 74.4142C88.9609 74.7893 89.4696 75 90 75H102C102.53 75 103.039 74.7893 103.414 74.4142C103.789 74.0391 104 73.5304 104 73V68" stroke="black" stroke-width="2" stroke-linecap="round" stroke-linejoin="round"/>
</g></svg>
