<svg viewBox="0 0 24 24" fill="none" xmlns="http://www.w3.org/2000/svg"><g transform="translate(-148 -56)">
<path id="Vector_17" d="M159 63L156 68H160L157 73" stroke="black" stroke-width="2" stroke-linecap="round" stroke-linejoin="round"/>
<path id="Vector_18" d="M162.856 62H164C164.531 62 165.04 62.2107 165.415 62.5858C165.79 62.9609 166 63.4696 166 64V72C166 72.5304 165.79 73.0391 165.415 73.4142C165.04 73.7893 164.531 74 164 74H161.065" stroke="black" stroke-width="2" stroke-linecap="round" stroke-linejoin="round"/>
<path id="Vector_19" d="M170 70V66" stroke="black" stroke-width="2" stroke-linecap="round" stroke-linejoin="round"/>
<path id="Vector_20" d="M153.14 74H152C151.47 74 150.961 73.7893 150.586 73.4142C150.211 73.0391 150 72.5304 150 72V64C150 63.4696 150.211 62.9609 150.586 62.5858C150.961 62.2107 151.47 62 152 62H154.936" stroke="black" stroke-width="2" stroke-linecap="round" stroke-linejoin="round"/>
</g></svg>
