<svg viewBox="0 0 24 24" fill="none" xmlns="http://www.w3.org/2000/svg"><g transform="translate(-276 -56)">
<path id="Vector_33" d="M286 65V71" stroke="black" stroke-width="2" stroke-linecap="round" stroke-linejoin="round"/>
<path id="Vector_34" d="M288.543 62H292C292.53 62 293.039 62.2107 293.414 62.5858C293.789 62.9609 294 63.4696 294 64V72C294 72.5304 293.789 73.0391 293.414 73.4142C293.039 73.7893 292.53 74 292 74H288.395" stroke="black" stroke-width="2" stroke-linecap="round" stroke-linejoin="round"/>
<path id="Vector_35" d="M298 70V66" stroke="black" stroke-width="2" stroke-linecap="round" stroke-linejoin="round"/>
<path id="Vector_36" d="M283 68H289" stroke="black" stroke-width="2" stroke-linecap="round" stroke-linejoin="round"/>
<path id="Vector_37" d="M283.606 74H280C279.47 74 278.961 73.7893 278.586 73.4142C278.211 73.0391 278 72.5304 278 72V64C278 63.4696 278.211 62.9609 278.586 62.5858C278.961 62.2107 279.47 62 280 62H283.606" stroke="black" stroke-width="2" stroke-linecap="round" stroke-linejoin="round"/>
</g></svg>
