<svg viewBox="0 0 24 24" fill="none" xmlns="http://www.w3.org/2000/svg"><g transform="translate(-308 -56)">
<path id="Vector_38" d="M318 73H318.01" stroke="black" stroke-width="2" stroke-linecap="round" stroke-linejoin="round"/>
<path id="Vector_39" d="M318 63V69" stroke="black" stroke-width="2" stroke-linecap="round" stroke-linejoin="round"/>
<path id="Vector_40" d="M322 62H324C324.53 62 325.039 62.2107 325.414 62.5858C325.789 62.9609 326 63.4696 326 64V72C326 72.5304 325.789 73.0391 325.414 73.4142C325.039 73.7893 324.53 74 324 74H322" stroke="black" stroke-width="2" stroke-linecap="round" stroke-linejoin="round"/>
<path id="Vector_41" d="M330 70V66" stroke="black" stroke-width="2" stroke-linecap="round" stroke-linejoin="round"/>
<path id="Vector_42" d="M314 74H312C311.47 74 310.961 73.7893 310.586 73.4142C310.211 73.0391 310 72.5304 310 72V64C310 63.4696 310.211 62.9609 310.586 62.5858C310.961 62.2107 311.47 62 312 62H314" stroke="black" stroke-width="2" stroke-linecap="round" stroke-linejoin="round"/>
</g></svg>
