<svg viewBox="0 0 24 24" fill="none" xmlns="http://www.w3.org/2000/svg"><g transform="translate(-148 -56)">
<path id="Vector_5" d="M161.127 70.56L162.557 69.13L168.997 75.573L167.57 77L161.127 70.56ZM165.42 64.83L168.28 61.97C164.33 58.02 157.93 58.01 153.98 61.95C157.91 60.65 162.29 61.7 165.42 64.83ZM153.95 61.98C150.01 65.93 150.02 72.33 153.97 76.28L156.83 73.42C153.7 70.29 152.65 65.91 153.95 61.98ZM153.97 61.96L153.96 61.97C153.58 64.98 155.13 68.85 158.26 71.99L163.99 66.26C160.86 63.13 156.98 61.58 153.97 61.96Z" fill="black" fill-opacity="0.56"/>
</g></svg>
