<svg viewBox="0 0 24 24" fill="none" xmlns="http://www.w3.org/2000/svg"><g transform="translate(-116 -56)">
<path id="Vector_7" d="M125 65C124.36 65.64 123.479 65.954 122.598 66.165C121.168 66.5073 119.914 67.3625 119.074 68.5682C118.233 69.7738 117.864 71.2462 118.037 72.7058C118.21 74.1655 118.912 75.5109 120.012 76.4868C121.111 77.4627 122.53 78.0011 124 78C125.839 78.0023 127.66 77.6413 129.359 76.9377C131.058 76.2341 132.601 75.2018 133.9 73.9" stroke="black" stroke-width="2" stroke-linecap="round" stroke-linejoin="round"/>
<path id="Vector_8" d="M126.75 61.093C127.394 59.9289 128.407 59.0119 129.629 58.4862C130.851 57.9604 132.213 57.8557 133.501 58.1886C134.789 58.5214 135.93 59.2729 136.744 60.3249C137.559 61.3768 138.001 62.6696 138 64C138 66.411 137.39 68.68 136.317 70.66" stroke="black" stroke-width="2" stroke-linecap="round" stroke-linejoin="round"/>
<path id="Vector_9" d="M121.341 66.62C121.604 67.2141 122.008 67.7353 122.517 68.1383C123.027 68.5413 123.627 68.8141 124.266 68.933C124.905 69.052 125.563 69.0135 126.184 68.821C126.804 68.6284 127.369 68.2876 127.828 67.828M126.62 61.341C127.529 61.745 128.255 62.4719 128.659 63.381" stroke="black" stroke-width="2" stroke-linecap="round" stroke-linejoin="round"/>
<path id="Vector_10" d="M118 58L138 78" stroke="black" stroke-width="2" stroke-linecap="round" stroke-linejoin="round"/>
</g></svg>
