<svg viewBox="0 0 24 24" fill="none" xmlns="http://www.w3.org/2000/svg"><g transform="translate(-84 -56)">
<path id="Vector_5" d="M94.1647 62.598C93.9537 63.478 93.6397 64.36 92.9997 65C92.3597 65.64 91.4787 65.954 90.5977 66.165C89.1683 66.5074 87.9142 67.3625 87.0735 68.5682C86.2328 69.7739 85.8639 71.2462 86.0368 72.7059C86.2097 74.1655 86.9124 75.5109 88.0116 76.4868C89.1107 77.4627 90.5299 78.0012 91.9997 78C99.7317 78 106 71.732 106 64C106.001 62.5302 105.462 61.111 104.487 60.0119C103.511 58.9127 102.165 58.21 100.706 58.0371C99.2459 57.8642 97.7736 58.2331 96.5679 59.0738C95.3622 59.9145 94.5071 61.1686 94.1647 62.598Z" stroke="black" stroke-width="2" stroke-linecap="round" stroke-linejoin="round"/>
<path id="Vector_6" d="M89.3408 66.62C89.6045 67.2133 90.0085 67.7335 90.5182 68.1357C91.0278 68.5379 91.6277 68.81 92.266 68.9285C92.9043 69.047 93.5619 69.0083 94.1819 68.8159C94.802 68.6234 95.3658 68.2829 95.8248 67.8238C96.2839 67.3647 96.6242 66.8008 96.8166 66.1807C97.0089 65.5606 97.0474 64.9031 96.9288 64.2648C96.8102 63.6265 96.538 63.0267 96.1357 62.5171C95.7334 62.0075 95.2131 61.6036 94.6198 61.34" stroke="black" stroke-width="2" stroke-linecap="round" stroke-linejoin="round"/>
</g></svg>
