<svg viewBox="0 0 24 24" fill="none" xmlns="http://www.w3.org/2000/svg"><g transform="translate(-180 -56)">
<path id="Vector_22" d="M183 76V68C183 67.4696 183.211 66.9609 183.586 66.5858C183.961 66.2107 184.47 66 185 66H199C199.53 66 200.039 66.2107 200.414 66.5858C200.789 66.9609 201 67.4696 201 68V76" stroke="black" stroke-width="2" stroke-linecap="round" stroke-linejoin="round"/>
<path id="Vector_23" d="M185 66V62C185 61.4696 185.211 60.9609 185.586 60.5858C185.961 60.2107 186.47 60 187 60H197C197.53 60 198.039 60.2107 198.414 60.5858C198.789 60.9609 199 61.4696 199 62V66" stroke="black" stroke-width="2" stroke-linecap="round" stroke-linejoin="round"/>
<path id="Vector_24" d="M183 74H201" stroke="black" stroke-width="2" stroke-linecap="round" stroke-linejoin="round"/>
</g></svg>
