<svg viewBox="0 0 24 24" fill="none" xmlns="http://www.w3.org/2000/svg"><g transform="translate(-148 -56)">
<path id="Vector_18" d="M150 76V68C150 67.4696 150.211 66.9609 150.586 66.5858C150.961 66.2107 151.47 66 152 66H168C168.53 66 169.039 66.2107 169.414 66.5858C169.789 66.9609 170 67.4696 170 68V76" stroke="black" stroke-width="2" stroke-linecap="round" stroke-linejoin="round"/>
<path id="Vector_19" d="M152 66V62C152 61.4696 152.211 60.9609 152.586 60.5858C152.961 60.2107 153.47 60 154 60H166C166.53 60 167.039 60.2107 167.414 60.5858C167.789 60.9609 168 61.4696 168 62V66" stroke="black" stroke-width="2" stroke-linecap="round" stroke-linejoin="round"/>
<path id="Vector_20" d="M160 60V66" stroke="black" stroke-width="2" stroke-linecap="round" stroke-linejoin="round"/>
<path id="Vector_21" d="M150 74H170" stroke="black" stroke-width="2" stroke-linecap="round" stroke-linejoin="round"/>
</g></svg>
