<svg viewBox="0 0 24 24" fill="none" xmlns="http://www.w3.org/2000/svg"><g transform="translate(-148 -56)">
<path id="Vector_11" d="M164.4 69.7C165.22 69.0836 165.883 68.2818 166.334 67.3602C166.784 66.4386 167.011 65.4234 166.994 64.3976C166.977 63.3717 166.718 62.3644 166.237 61.458C165.756 60.5517 165.068 59.772 164.228 59.1827C163.388 58.5935 162.421 58.2114 161.405 58.0678C160.389 57.9242 159.354 58.0231 158.383 58.3564C157.413 58.6897 156.535 59.248 155.822 59.9855C155.109 60.7231 154.58 61.619 154.28 62.6C153.18 65.73 153.5 66.5 151.1 68.68C150.622 69.0721 150.276 69.6023 150.111 70.1983C149.946 70.7942 149.969 71.4266 150.177 72.009C150.385 72.5914 150.768 73.0953 151.273 73.4517C151.778 73.8081 152.382 73.9996 153 74C157 74 161.4 72.2 164.4 69.7Z" stroke="black" stroke-width="2" stroke-linecap="round" stroke-linejoin="round"/>
<path id="Vector_12" d="M166.5 62L168.69 66.5C169.11 67.7889 169.114 69.1767 168.703 70.4683C168.293 71.7598 167.487 72.8901 166.4 73.7C163.4 76.2 159 78 155 78C154.444 77.9992 153.898 77.8436 153.425 77.5504C152.951 77.2572 152.569 76.8381 152.32 76.34L150.4 72.5" stroke="black" stroke-width="2" stroke-linecap="round" stroke-linejoin="round"/>
<path id="Vector_13" d="M160.5 67C161.881 67 163 65.8807 163 64.5C163 63.1193 161.881 62 160.5 62C159.119 62 158 63.1193 158 64.5C158 65.8807 159.119 67 160.5 67Z" stroke="black" stroke-width="2" stroke-linecap="round" stroke-linejoin="round"/>
</g></svg>
