<svg viewBox="0 0 24 24" fill="none" xmlns="http://www.w3.org/2000/svg"><g transform="translate(-180 -56)">
<path id="Vector_14" d="M191.771 62.109C192.205 61.9769 192.666 61.9652 193.106 62.0751C193.546 62.1849 193.947 62.4123 194.268 62.7327C194.588 63.0532 194.816 63.4548 194.925 63.8944C195.035 64.3341 195.024 64.7954 194.891 65.229" stroke="black" stroke-width="2" stroke-linecap="round" stroke-linejoin="round"/>
<path id="Vector_15" d="M197.852 68.185C198.712 66.9339 199.106 65.4215 198.967 63.9101C198.828 62.3987 198.165 60.9836 197.092 59.91C196.019 58.8365 194.604 58.1723 193.093 58.0326C191.582 57.8928 190.069 58.2864 188.817 59.145" stroke="black" stroke-width="2" stroke-linecap="round" stroke-linejoin="round"/>
<path id="Vector_16" d="M198.013 74.013C195.029 76.349 190.831 78 187 78C186.444 77.9992 185.898 77.8436 185.425 77.5504C184.951 77.2572 184.569 76.8381 184.32 76.34L182.4 72.5" stroke="black" stroke-width="2" stroke-linecap="round" stroke-linejoin="round"/>
<path id="Vector_17" d="M198.5 62L200.69 66.5C201.157 67.9358 201.108 69.4896 200.551 70.893" stroke="black" stroke-width="2" stroke-linecap="round" stroke-linejoin="round"/>
<path id="Vector_18" d="M182 58L202 78" stroke="black" stroke-width="2" stroke-linecap="round" stroke-linejoin="round"/>
<path id="Vector_19" d="M186.355 62.37C186.329 62.4462 186.304 62.5229 186.28 62.6C185.18 65.73 185.5 66.5 183.1 68.68C182.622 69.0721 182.276 69.6024 182.111 70.1983C181.946 70.7942 181.969 71.4266 182.177 72.009C182.385 72.5914 182.768 73.0953 183.273 73.4517C183.778 73.8081 184.382 73.9996 185 74C188.356 74 191.993 72.733 194.85 70.849" stroke="black" stroke-width="2" stroke-linecap="round" stroke-linejoin="round"/>
</g></svg>
