<svg viewBox="0 0 24 24" fill="none" xmlns="http://www.w3.org/2000/svg"><g transform="translate(-244 -56)">
<path id="Vector_25" d="M257 69V74" stroke="black" stroke-width="2" stroke-linecap="round" stroke-linejoin="round"/>
<path id="Vector_26" d="M261 67.47V64" stroke="black" stroke-width="2" stroke-linecap="round" stroke-linejoin="round"/>
<path id="Vector_27" d="M261 67H262C262.499 67 262.99 67.1245 263.429 67.3622C263.868 67.6 264.241 67.9436 264.513 68.3617C264.786 68.7799 264.95 69.2595 264.99 69.757C265.031 70.2546 264.946 70.7543 264.745 71.211" stroke="black" stroke-width="2" stroke-linecap="round" stroke-linejoin="round"/>
<path id="Vector_28" d="M246 58L266 78" stroke="black" stroke-width="2" stroke-linecap="round" stroke-linejoin="round"/>
<path id="Vector_29" d="M249 64V76C249 76.5304 249.211 77.0391 249.586 77.4142C249.961 77.7893 250.47 78 251 78H259C259.53 78 260.039 77.7893 260.414 77.4142C260.789 77.0391 261 76.5304 261 76V73" stroke="black" stroke-width="2" stroke-linecap="round" stroke-linejoin="round"/>
<path id="Vector_30" d="M251.536 63.535C250.766 63.649 250.154 64 249.5 64C249.006 64.0001 248.523 63.8535 248.111 63.5788C247.7 63.3041 247.38 62.9136 247.19 62.4568C247.001 61.9999 246.952 61.4972 247.048 61.0121C247.145 60.5271 247.383 60.0816 247.732 59.732" stroke="black" stroke-width="2" stroke-linecap="round" stroke-linejoin="round"/>
<path id="Vector_31" d="M252.727 59.204C253.306 58.767 253.885 58 255 58C256.56 58 257 59.5 258 59.5C259 59.5 259.72 59 260.5 59C261.163 59 261.798 59.2634 262.267 59.7322C262.736 60.2011 263 60.837 263 61.5C263 62.163 262.736 62.7989 262.267 63.2678C261.798 63.7366 261.163 64 260.5 64C259.72 64 259 63.5 258 63.5C257.715 63.5017 257.432 63.5421 257.158 63.62" stroke="black" stroke-width="2" stroke-linecap="round" stroke-linejoin="round"/>
<path id="Vector_32" d="M253 70.6V74" stroke="black" stroke-width="2" stroke-linecap="round" stroke-linejoin="round"/>
</g></svg>
