<svg viewBox="0 0 24 24" fill="none" xmlns="http://www.w3.org/2000/svg"><g transform="translate(-212 -56)">
<path id="Vector_20" d="M229 67H230C230.796 67 231.559 67.3161 232.121 67.8787C232.684 68.4413 233 69.2044 233 70C233 70.7956 232.684 71.5587 232.121 72.1213C231.559 72.6839 230.796 73 230 73H229" stroke="black" stroke-width="2" stroke-linecap="round" stroke-linejoin="round"/>
<path id="Vector_21" d="M221 68V74" stroke="black" stroke-width="2" stroke-linecap="round" stroke-linejoin="round"/>
<path id="Vector_22" d="M225 68V74" stroke="black" stroke-width="2" stroke-linecap="round" stroke-linejoin="round"/>
<path id="Vector_23" d="M226 63.5C225 63.5 224.56 64 223 64C221.44 64 221 63.5 220 63.5C219 63.5 218.28 64 217.5 64C216.837 64 216.201 63.7366 215.732 63.2678C215.263 62.7989 215 62.163 215 61.5C215 60.837 215.263 60.2011 215.732 59.7322C216.201 59.2634 216.837 59 217.5 59C218.28 59 219.07 59.5 220 59.5C220.93 59.5 221.44 58 223 58C224.56 58 225 59.5 226 59.5C227 59.5 227.72 59 228.5 59C229.163 59 229.799 59.2634 230.268 59.7322C230.737 60.2011 231 60.837 231 61.5C231 62.163 230.737 62.7989 230.268 63.2678C229.799 63.7366 229.163 64 228.5 64C227.72 64 227 63.5 226 63.5Z" stroke="black" stroke-width="2" stroke-linecap="round" stroke-linejoin="round"/>
<path id="Vector_24" d="M217 64V76C217 76.5304 217.211 77.0391 217.586 77.4142C217.961 77.7893 218.47 78 219 78H227C227.53 78 228.039 77.7893 228.414 77.4142C228.789 77.0391 229 76.5304 229 76V64" stroke="black" stroke-width="2" stroke-linecap="round" stroke-linejoin="round"/>
</g></svg>
