<svg viewBox="0 0 24 24" fill="none" xmlns="http://www.w3.org/2000/svg"><g transform="translate(-340 -56)">
<path id="Vector_27" d="M350.268 77C350.443 77.304 350.696 77.5565 351 77.732C351.304 77.9075 351.649 77.9999 352 77.9999C352.351 77.9999 352.696 77.9075 353 77.732C353.304 77.5565 353.556 77.304 353.732 77" stroke="black" stroke-width="2" stroke-linecap="round" stroke-linejoin="round"/>
<path id="Vector_28" d="M355 64L357 66L361 62" stroke="black" stroke-width="2" stroke-linecap="round" stroke-linejoin="round"/>
<path id="Vector_29" d="M356.86 60.4824C356.117 59.4551 355.067 58.6898 353.862 58.2963C352.656 57.9027 351.357 57.9012 350.151 58.2919C348.945 58.6826 347.893 59.4455 347.147 60.471C346.401 61.4965 346 62.732 346 64C346 68.499 344.589 69.956 343.262 71.326" stroke="black" stroke-width="2" stroke-linecap="round" stroke-linejoin="round"/>
<path id="Vector_30" d="M343.262 71.326C343.132 71.4692 343.045 71.6472 343.014 71.8385C342.983 72.0298 343.008 72.226 343.086 72.4034C343.164 72.5807 343.292 72.7315 343.455 72.8375C343.617 72.9434 343.806 72.9998 344 73H360C360.194 73 360.384 72.9438 360.546 72.8381C360.709 72.7324 360.837 72.5817 360.915 72.4045C360.994 72.2273 361.019 72.0311 360.988 71.8398C360.957 71.6485 360.871 71.4703 360.74 71.327C360.209 70.779 359.665 70.218 359.203 69.454" stroke="black" stroke-width="2" stroke-linecap="round" stroke-linejoin="round"/>
</g></svg>
