<svg viewBox="0 0 24 24" fill="none" xmlns="http://www.w3.org/2000/svg"><g transform="translate(-52 -88)">
<path id="Vector_40" d="M62.2676 109C62.4431 109.304 62.6956 109.556 62.9996 109.732C63.3037 109.908 63.6485 110 63.9996 110C64.3506 110 64.6955 109.908 64.9995 109.732C65.3036 109.556 65.556 109.304 65.7316 109" stroke="black" stroke-width="2" stroke-linecap="round" stroke-linejoin="round"/>
<path id="Vector_41" d="M67 96H73" stroke="black" stroke-width="2" stroke-linecap="round" stroke-linejoin="round"/>
<path id="Vector_42" d="M68.2432 91.757C67.4041 90.9177 66.335 90.3462 65.171 90.1146C64.007 89.883 62.8005 90.0018 61.704 90.456C60.6076 90.9102 59.6705 91.6794 59.0112 92.6662C58.3519 93.653 58.0001 94.8132 58.0002 96C58.0002 100.499 56.5892 101.956 55.2622 103.326C55.1316 103.469 55.0454 103.647 55.0141 103.839C54.9828 104.03 55.0078 104.226 55.086 104.403C55.1641 104.581 55.2922 104.732 55.4545 104.837C55.6168 104.943 55.8064 105 56.0002 105H72.0002C72.194 105 72.3837 104.944 72.5461 104.838C72.7085 104.732 72.8367 104.582 72.9151 104.405C72.9935 104.227 73.0187 104.031 72.9877 103.84C72.9566 103.648 72.8707 103.47 72.7402 103.327C71.8231 102.376 71.1168 101.242 70.6672 100" stroke="black" stroke-width="2" stroke-linecap="round" stroke-linejoin="round"/>
</g></svg>
