<svg viewBox="0 0 24 24" fill="none" xmlns="http://www.w3.org/2000/svg"><g transform="translate(-372 -56)">
<path id="Vector_31" d="M382.268 77C382.443 77.304 382.696 77.5565 383 77.732C383.304 77.9075 383.649 77.9999 384 77.9999C384.351 77.9999 384.696 77.9075 385 77.732C385.304 77.5565 385.556 77.304 385.732 77" stroke="black" stroke-width="2" stroke-linecap="round" stroke-linejoin="round"/>
<path id="Vector_32" d="M383.68 58.009C382.147 58.0909 380.703 58.7578 379.646 59.8724C378.589 60.9869 378 62.4642 378 64C378 68.499 376.589 69.956 375.262 71.326C375.132 71.4692 375.045 71.6473 375.014 71.8386C374.983 72.0298 375.008 72.2261 375.086 72.4034C375.164 72.5808 375.292 72.7316 375.455 72.8375C375.617 72.9434 375.806 72.9999 376 73H392C392.194 73.0001 392.384 72.9439 392.546 72.8381C392.709 72.7324 392.837 72.5818 392.915 72.4045C392.994 72.2273 393.019 72.0311 392.988 71.8398C392.957 71.6485 392.871 71.4704 392.74 71.327C391.916 70.477 391.062 69.596 390.53 67.979" stroke="black" stroke-width="2" stroke-linecap="round" stroke-linejoin="round"/>
<path id="Vector_33" d="M390 64C391.657 64 393 62.6569 393 61C393 59.3431 391.657 58 390 58C388.343 58 387 59.3431 387 61C387 62.6569 388.343 64 390 64Z" stroke="black" stroke-width="2" stroke-linecap="round" stroke-linejoin="round"/>
</g></svg>
