<svg viewBox="0 0 24 24" fill="none" xmlns="http://www.w3.org/2000/svg"><g transform="translate(-84 -88)">
<path id="Vector_43" d="M94.2676 109C94.4431 109.304 94.6956 109.556 94.9996 109.732C95.3037 109.908 95.6485 110 95.9996 110C96.3506 110 96.6955 109.908 96.9995 109.732C97.3036 109.556 97.556 109.304 97.7316 109" stroke="black" stroke-width="2" stroke-linecap="round" stroke-linejoin="round"/>
<path id="Vector_44" d="M101 105H88.0004C87.8066 105 87.6169 104.944 87.4545 104.838C87.2921 104.732 87.1639 104.582 87.0855 104.405C87.0071 104.227 86.9819 104.031 87.0129 103.84C87.044 103.649 87.1299 103.47 87.2604 103.327C88.5904 101.956 90.0004 100.499 90.0004 96.0001C90.0002 95.4099 90.0871 94.8229 90.2584 94.2581" stroke="black" stroke-width="2" stroke-linecap="round" stroke-linejoin="round"/>
<path id="Vector_45" d="M86 90L106 110" stroke="black" stroke-width="2" stroke-linecap="round" stroke-linejoin="round"/>
<path id="Vector_46" d="M92.668 91.01C93.5715 90.4067 94.6218 90.06 95.7069 90.0069C96.792 89.9539 97.8712 90.1964 98.8292 90.7087C99.7872 91.221 100.588 91.9838 101.147 92.9157C101.705 93.8476 102 94.9136 102 96C102 98.687 102.77 100.653 103.707 102.05" stroke="black" stroke-width="2" stroke-linecap="round" stroke-linejoin="round"/>
</g></svg>
