<svg viewBox="0 0 24 24" fill="none" xmlns="http://www.w3.org/2000/svg"><g transform="translate(-20 -88)">
<path id="Vector_34" d="M38.518 105.347C37.2546 106.415 35.654 107 34 107" stroke="black" stroke-width="2" stroke-linecap="round" stroke-linejoin="round"/>
<path id="Vector_35" d="M38.7998 92C39.5892 93.5485 40.0004 95.2619 39.9998 97" stroke="black" stroke-width="2" stroke-linecap="round" stroke-linejoin="round"/>
<path id="Vector_36" d="M29 97H29.01" stroke="black" stroke-width="2" stroke-linecap="round" stroke-linejoin="round"/>
<path id="Vector_37" d="M40 106C41.1046 106 42 105.105 42 104C42 102.895 41.1046 102 40 102C38.8954 102 38 102.895 38 104C38 105.105 38.8954 106 40 106Z" stroke="black" stroke-width="2" stroke-linecap="round" stroke-linejoin="round"/>
<path id="Vector_38" d="M29 104C32.866 104 36 100.866 36 97C36 93.134 32.866 90 29 90C25.134 90 22 93.134 22 97C22 100.866 25.134 104 29 104Z" stroke="black" stroke-width="2" stroke-linecap="round" stroke-linejoin="round"/>
<path id="Vector_39" d="M32 104H26C24.8954 104 24 104.895 24 106V108C24 109.105 24.8954 110 26 110H32C33.1046 110 34 109.105 34 108V106C34 104.895 33.1046 104 32 104Z" stroke="black" stroke-width="2" stroke-linecap="round" stroke-linejoin="round"/>
</g></svg>
