<svg viewBox="0 0 24 24" fill="none" xmlns="http://www.w3.org/2000/svg"><g transform="translate(-148 -88)">
<path id="Vector_51" d="M158.268 109C158.443 109.304 158.696 109.556 159 109.732C159.304 109.908 159.649 110 160 110C160.351 110 160.696 109.908 161 109.732C161.304 109.556 161.556 109.304 161.732 109" stroke="black" stroke-width="2" stroke-linecap="round" stroke-linejoin="round"/>
<path id="Vector_52" d="M170 96C170 93.7 169.2 91.7 168 90" stroke="black" stroke-width="2" stroke-linecap="round" stroke-linejoin="round"/>
<path id="Vector_53" d="M151.262 103.326C151.132 103.469 151.045 103.647 151.014 103.839C150.983 104.03 151.008 104.226 151.086 104.403C151.164 104.581 151.292 104.732 151.455 104.837C151.617 104.943 151.806 105 152 105H168C168.194 105 168.384 104.944 168.546 104.838C168.709 104.732 168.837 104.582 168.915 104.405C168.994 104.227 169.019 104.031 168.988 103.84C168.957 103.648 168.871 103.47 168.74 103.327C167.41 101.956 166 100.499 166 96C166 94.4087 165.368 92.8826 164.243 91.7574C163.118 90.6321 161.592 90 160 90C158.409 90 156.883 90.6321 155.758 91.7574C154.632 92.8826 154 94.4087 154 96C154 100.499 152.589 101.956 151.262 103.326Z" stroke="black" stroke-width="2" stroke-linecap="round" stroke-linejoin="round"/>
<path id="Vector_54" d="M152 90C150.8 91.7 150 93.7 150 96" stroke="black" stroke-width="2" stroke-linecap="round" stroke-linejoin="round"/>
</g></svg>
