<svg viewBox="0 0 24 24" fill="none" xmlns="http://www.w3.org/2000/svg"><g transform="translate(-116 -88)">
<path id="Vector_47" d="M126.268 109C126.443 109.304 126.696 109.556 127 109.732C127.304 109.908 127.649 110 128 110C128.351 110 128.696 109.908 129 109.732C129.304 109.556 129.556 109.304 129.732 109" stroke="black" stroke-width="2" stroke-linecap="round" stroke-linejoin="round"/>
<path id="Vector_48" d="M131 96H137" stroke="black" stroke-width="2" stroke-linecap="round" stroke-linejoin="round"/>
<path id="Vector_49" d="M134 93V99" stroke="black" stroke-width="2" stroke-linecap="round" stroke-linejoin="round"/>
<path id="Vector_50" d="M136.002 102.464C136.23 102.767 136.476 103.055 136.74 103.327C136.871 103.47 136.957 103.649 136.988 103.84C137.019 104.031 136.994 104.227 136.915 104.405C136.837 104.582 136.709 104.732 136.546 104.838C136.384 104.944 136.194 105 136 105H120C119.807 105 119.617 104.944 119.454 104.838C119.292 104.732 119.164 104.582 119.085 104.405C119.007 104.227 118.982 104.031 119.013 103.84C119.044 103.649 119.13 103.47 119.26 103.327C120.59 101.956 122 100.499 122 96.0001C122 94.971 122.265 93.9593 122.769 93.0622C123.273 92.165 123.999 91.4125 124.878 90.8771C125.757 90.3416 126.759 90.0411 127.787 90.0045C128.815 89.9679 129.836 90.1964 130.75 90.6681" stroke="black" stroke-width="2" stroke-linecap="round" stroke-linejoin="round"/>
</g></svg>
