<svg viewBox="0 0 24 24" fill="none" xmlns="http://www.w3.org/2000/svg"><g transform="translate(-308 -56)">
<path id="Vector_25" d="M318.268 77C318.443 77.304 318.696 77.5565 319 77.732C319.304 77.9075 319.649 77.9999 320 77.9999C320.351 77.9999 320.696 77.9075 321 77.732C321.304 77.5565 321.556 77.304 321.732 77" stroke="black" stroke-width="2" stroke-linecap="round" stroke-linejoin="round"/>
<path id="Vector_26" d="M311.262 71.326C311.132 71.4692 311.045 71.6472 311.014 71.8385C310.983 72.0298 311.008 72.226 311.086 72.4034C311.164 72.5807 311.292 72.7316 311.455 72.8375C311.617 72.9434 311.806 72.9999 312 73H328C328.194 73.0001 328.384 72.9438 328.546 72.8381C328.709 72.7324 328.837 72.5817 328.915 72.4045C328.994 72.2273 329.019 72.0311 328.988 71.8398C328.957 71.6485 328.871 71.4703 328.74 71.327C327.41 69.956 326 68.499 326 64C326 62.4087 325.368 60.8826 324.243 59.7574C323.118 58.6321 321.592 58 320 58C318.409 58 316.883 58.6321 315.758 59.7574C314.632 60.8826 314 62.4087 314 64C314 68.499 312.589 69.956 311.262 71.326Z" stroke="black" stroke-width="2" stroke-linecap="round" stroke-linejoin="round"/>
</g></svg>
