<svg viewBox="0 0 24 24" fill="none" xmlns="http://www.w3.org/2000/svg"><g transform="translate(-340 -88)">
<path id="Vector_83" d="M355 91H344C343.448 91 343 91.4477 343 92V97C343 97.5523 343.448 98 344 98H355C355.552 98 356 97.5523 356 97V92C356 91.4477 355.552 91 355 91Z" stroke="black" stroke-width="2" stroke-linecap="round" stroke-linejoin="round"/>
<path id="Vector_84" d="M362 103L359 100L362 97" stroke="black" stroke-width="2" stroke-linecap="round" stroke-linejoin="round"/>
<path id="Vector_85" d="M355 102H344C343.448 102 343 102.448 343 103V108C343 108.552 343.448 109 344 109H355C355.552 109 356 108.552 356 108V103C356 102.448 355.552 102 355 102Z" stroke="black" stroke-width="2" stroke-linecap="round" stroke-linejoin="round"/>
</g></svg>
