<svg viewBox="0 0 24 24" fill="none" xmlns="http://www.w3.org/2000/svg"><g transform="translate(-20 -120)">
<path id="Vector_89" d="M29 123H24C23.4477 123 23 123.448 23 124V135C23 135.552 23.4477 136 24 136H29C29.5523 136 30 135.552 30 135V124C30 123.448 29.5523 123 29 123Z" stroke="black" stroke-width="2" stroke-linecap="round" stroke-linejoin="round"/>
<path id="Vector_90" d="M29 142L32 139L35 142" stroke="black" stroke-width="2" stroke-linecap="round" stroke-linejoin="round"/>
<path id="Vector_91" d="M40 123H35C34.4477 123 34 123.448 34 124V135C34 135.552 34.4477 136 35 136H40C40.5523 136 41 135.552 41 135V124C41 123.448 40.5523 123 40 123Z" stroke="black" stroke-width="2" stroke-linecap="round" stroke-linejoin="round"/>
</g></svg>
