<svg viewBox="0 0 24 24" fill="none" xmlns="http://www.w3.org/2000/svg"><g transform="translate(-52 -120)">
<path id="Vector_92" d="M61 128H56C55.4477 128 55 128.448 55 129V140C55 140.552 55.4477 141 56 141H61C61.5523 141 62 140.552 62 140V129C62 128.448 61.5523 128 61 128Z" stroke="black" stroke-width="2" stroke-linecap="round" stroke-linejoin="round"/>
<path id="Vector_93" d="M67 122L64 125L61 122" stroke="black" stroke-width="2" stroke-linecap="round" stroke-linejoin="round"/>
<path id="Vector_94" d="M72 128H67C66.4477 128 66 128.448 66 129V140C66 140.552 66.4477 141 67 141H72C72.5523 141 73 140.552 73 140V129C73 128.448 72.5523 128 72 128Z" stroke="black" stroke-width="2" stroke-linecap="round" stroke-linejoin="round"/>
</g></svg>
