<svg viewBox="0 0 24 24" fill="none" xmlns="http://www.w3.org/2000/svg"><g transform="translate(-372 -88)">
<path id="Vector_86" d="M392 91H381C380.448 91 380 91.4477 380 92V97C380 97.5523 380.448 98 381 98H392C392.552 98 393 97.5523 393 97V92C393 91.4477 392.552 91 392 91Z" stroke="black" stroke-width="2" stroke-linecap="round" stroke-linejoin="round"/>
<path id="Vector_87" d="M374 97L377 100L374 103" stroke="black" stroke-width="2" stroke-linecap="round" stroke-linejoin="round"/>
<path id="Vector_88" d="M392 102H381C380.448 102 380 102.448 380 103V108C380 108.552 380.448 109 381 109H392C392.552 109 393 108.552 393 108V103C393 102.448 392.552 102 392 102Z" stroke="black" stroke-width="2" stroke-linecap="round" stroke-linejoin="round"/>
</g></svg>
