<svg viewBox="0 0 24 24" fill="none" xmlns="http://www.w3.org/2000/svg"><g transform="translate(-84 -56)">
<path id="Vector_10" d="M96.4092 69.017C96.865 67.9604 97.6714 67.0934 98.6921 66.5622C99.7129 66.031 100.886 65.8682 102.013 66.1011C103.139 66.3341 104.152 66.9487 104.878 67.8411C105.604 68.7336 106.001 69.8493 106 71C106 74.866 102 78 97.0002 78C92.9232 78 88.8472 77.18 86.6292 75.538C86.2032 75.222 85.9982 74.706 86.0092 74.176C86.1182 68.723 86.6272 58 94.0002 58C94.7959 58 95.5589 58.3161 96.1215 58.8787C96.6841 59.4413 97.0002 60.2044 97.0002 61C97.0002 61.5304 96.7895 62.0391 96.4144 62.4142C96.0393 62.7893 95.5306 63 95.0002 63C93.8952 63 93.3602 62.556 93.0002 62" stroke="black" stroke-width="2" stroke-linecap="round" stroke-linejoin="round"/>
<path id="Vector_11" d="M99 70C98.3965 69.5471 97.6983 69.2366 96.9578 69.0919C96.2172 68.9472 95.4536 68.972 94.724 69.1644C93.9944 69.3568 93.3178 69.7119 92.7449 70.2029C92.172 70.694 91.7177 71.3083 91.416 72" stroke="black" stroke-width="2" stroke-linecap="round" stroke-linejoin="round"/>
<path id="Vector_12" d="M93.964 62.825C92.019 63.977 93.5 69 92 71" stroke="black" stroke-width="2" stroke-linecap="round" stroke-linejoin="round"/>
</g></svg>
