<svg viewBox="0 0 24 24" fill="none" xmlns="http://www.w3.org/2000/svg"><g transform="translate(-52 -56)">
<path id="Vector_6" d="M70.5 77C72.433 77 74 75.433 74 73.5C74 71.567 72.433 70 70.5 70C68.567 70 67 71.567 67 73.5C67 75.433 68.567 77 70.5 77Z" stroke="black" stroke-width="2" stroke-linecap="round" stroke-linejoin="round"/>
<path id="Vector_7" d="M57.5 77C59.433 77 61 75.433 61 73.5C61 71.567 59.433 70 57.5 70C55.567 70 54 71.567 54 73.5C54 75.433 55.567 77 57.5 77Z" stroke="black" stroke-width="2" stroke-linecap="round" stroke-linejoin="round"/>
<path id="Vector_8" d="M67 62C67.5523 62 68 61.5523 68 61C68 60.4477 67.5523 60 67 60C66.4477 60 66 60.4477 66 61C66 61.5523 66.4477 62 67 62Z" stroke="black" stroke-width="2" stroke-linecap="round" stroke-linejoin="round"/>
<path id="Vector_9" d="M64 73.5V70L61 67L65 64L67 67H69" stroke="black" stroke-width="2" stroke-linecap="round" stroke-linejoin="round"/>
</g></svg>
