<svg viewBox="0 0 24 24" fill="none" xmlns="http://www.w3.org/2000/svg"><g transform="translate(-52 -56)">
<path id="Vector_4" d="M70 72C70 70.8954 69.1046 70 68 70C66.8954 70 66 70.8954 66 72V74C66 75.1046 66.8954 76 68 76C69.1046 76 70 75.1046 70 74V72Z" stroke="black" stroke-width="2" stroke-linecap="round" stroke-linejoin="round"/>
<path id="Vector_5" d="M62 62C62 60.8954 61.1046 60 60 60C58.8954 60 58 60.8954 58 62V64C58 65.1046 58.8954 66 60 66C61.1046 66 62 65.1046 62 64V62Z" stroke="black" stroke-width="2" stroke-linecap="round" stroke-linejoin="round"/>
<path id="Vector_6" d="M58 76H62" stroke="black" stroke-width="2" stroke-linecap="round" stroke-linejoin="round"/>
<path id="Vector_7" d="M66 66H70" stroke="black" stroke-width="2" stroke-linecap="round" stroke-linejoin="round"/>
<path id="Vector_8" d="M58 70H60V76" stroke="black" stroke-width="2" stroke-linecap="round" stroke-linejoin="round"/>
<path id="Vector_9" d="M66 60H68V66" stroke="black" stroke-width="2" stroke-linecap="round" stroke-linejoin="round"/>
</g></svg>
