<svg viewBox="0 0 24 24" fill="none" xmlns="http://www.w3.org/2000/svg"><g transform="translate(-52 -56)">
<path id="Vector_5" d="M62 66H66" stroke="black" stroke-width="2" stroke-linecap="round" stroke-linejoin="round"/>
<path id="Vector_6" d="M71 63V60C71 59.7348 70.8946 59.4804 70.7071 59.2929C70.5196 59.1054 70.2652 59 70 59H68C67.7348 59 67.4804 59.1054 67.2929 59.2929C67.1054 59.4804 67 59.7348 67 60V63" stroke="black" stroke-width="2" stroke-linecap="round" stroke-linejoin="round"/>
<path id="Vector_7" d="M72 77C72.5304 77 73.0391 76.7893 73.4142 76.4142C73.7893 76.0391 74 75.5304 74 75V71.149C74 69.759 72 68.187 72 66.32V64C72 63.7348 71.8946 63.4804 71.7071 63.2929C71.5196 63.1054 71.2652 63 71 63H67C66.7348 63 66.4804 63.1054 66.2929 63.2929C66.1054 63.4804 66 63.7348 66 64V75C66 75.5304 66.2107 76.0391 66.5858 76.4142C66.9609 76.7893 67.4696 77 68 77H72Z" stroke="black" stroke-width="2" stroke-linecap="round" stroke-linejoin="round"/>
<path id="Vector_8" d="M74 72H54" stroke="black" stroke-width="2" stroke-linecap="round" stroke-linejoin="round"/>
<path id="Vector_9" d="M56 77C55.4696 77 54.9609 76.7893 54.5858 76.4142C54.2107 76.0391 54 75.5304 54 75V71.149C54 69.759 56 68.187 56 66.32V64C56 63.7348 56.1054 63.4804 56.2929 63.2929C56.4804 63.1054 56.7348 63 57 63H61C61.2652 63 61.5196 63.1054 61.7071 63.2929C61.8946 63.4804 62 63.7348 62 64V75C62 75.5304 61.7893 76.0391 61.4142 76.4142C61.0391 76.7893 60.5304 77 60 77H56Z" stroke="black" stroke-width="2" stroke-linecap="round" stroke-linejoin="round"/>
<path id="Vector_10" d="M61 63V60C61 59.7348 60.8946 59.4804 60.7071 59.2929C60.5196 59.1054 60.2652 59 60 59H58C57.7348 59 57.4804 59.1054 57.2929 59.2929C57.1054 59.4804 57 59.7348 57 60V63" stroke="black" stroke-width="2" stroke-linecap="round" stroke-linejoin="round"/>
</g></svg>
