<svg viewBox="0 0 24 24" fill="none" xmlns="http://www.w3.org/2000/svg"><g transform="translate(-116 -56)">
<path id="Vector_18" d="M128 69.8999C129.105 69.8999 130 69.0045 130 67.8999C130 66.7953 129.105 65.8999 128 65.8999C126.895 65.8999 126 66.7953 126 67.8999C126 69.0045 126.895 69.8999 128 69.8999Z" stroke="black" stroke-width="2" stroke-linecap="round" stroke-linejoin="round"/>
<path id="Vector_19" d="M122.7 59.3999C121.8 61.8999 122.7 64.5999 124.9 66.0999C122.5 64.9999 119.7 65.5999 118 67.5999" stroke="black" stroke-width="2" stroke-linecap="round" stroke-linejoin="round"/>
<path id="Vector_20" d="M124.9 66.1001L126.3 66.9001" stroke="black" stroke-width="2" stroke-linecap="round" stroke-linejoin="round"/>
<path id="Vector_21" d="M133.3 59.3999C134.2 61.8999 133.3 64.5999 131.1 66.0999C133.5 64.8999 136.3 65.4999 138 67.5999" stroke="black" stroke-width="2" stroke-linecap="round" stroke-linejoin="round"/>
<path id="Vector_22" d="M131.1 66.1001L129.7 66.9001" stroke="black" stroke-width="2" stroke-linecap="round" stroke-linejoin="round"/>
<path id="Vector_23" d="M132.7 76.8C130.1 76.4 128.1 74.2 128 71.5C127.8 74.1 125.9 76.3 123.3 76.7" stroke="black" stroke-width="2" stroke-linecap="round" stroke-linejoin="round"/>
<path id="Vector_24" d="M128 69.8999V71.4999" stroke="black" stroke-width="2" stroke-linecap="round" stroke-linejoin="round"/>
<path id="Vector_25" d="M129.5 61.4C128.5 61.2 127.5 61.2 126.5 61.4" stroke="black" stroke-width="2" stroke-linecap="round" stroke-linejoin="round"/>
<path id="Vector_26" d="M133 72.3999C133.7 71.6999 134.2 70.7999 134.5 69.8999" stroke="black" stroke-width="2" stroke-linecap="round" stroke-linejoin="round"/>
<path id="Vector_27" d="M121.5 69.8999C121.8 70.7999 122.3 71.6999 123 72.3999" stroke="black" stroke-width="2" stroke-linecap="round" stroke-linejoin="round"/>
</g></svg>
