<svg viewBox="0 0 24 24" fill="none" xmlns="http://www.w3.org/2000/svg"><g transform="translate(-52 -56)">
<path id="Vector_7" d="M64 74V78" stroke="black" stroke-width="2" stroke-linecap="round" stroke-linejoin="round"/>
<path id="Vector_8" d="M69 74L70.956 62.532" stroke="black" stroke-width="2" stroke-linecap="round" stroke-linejoin="round"/>
<path id="Vector_9" d="M55 63.9999L62.82 58.3849C63.1625 58.1347 63.5758 57.9998 64 57.9998C64.4242 57.9998 64.8375 58.1347 65.18 58.3849L73 63.9999" stroke="black" stroke-width="2" stroke-linecap="round" stroke-linejoin="round"/>
<path id="Vector_10" d="M56 74H72" stroke="black" stroke-width="2" stroke-linecap="round" stroke-linejoin="round"/>
<path id="Vector_11" d="M58.9999 74L57.0439 62.532" stroke="black" stroke-width="2" stroke-linecap="round" stroke-linejoin="round"/>
<path id="Vector_12" d="M64 68C65.1046 68 66 67.1046 66 66C66 64.8954 65.1046 64 64 64C62.8954 64 62 64.8954 62 66C62 67.1046 62.8954 68 64 68Z" stroke="black" stroke-width="2" stroke-linecap="round" stroke-linejoin="round"/>
</g></svg>
