<svg viewBox="0 0 24 24" fill="none" xmlns="http://www.w3.org/2000/svg"><g transform="translate(-20 -56)">
<path id="Vector" d="M36 63H36.01" stroke="black" stroke-width="2" stroke-linecap="round" stroke-linejoin="round"/>
<path id="Vector_2" d="M23.4 74.0001H32C34.1217 74.0001 36.1566 73.1572 37.6569 71.6569C39.1571 70.1566 40 68.1218 40 66.0001V63.0001C40.0023 62.148 39.7323 61.3174 39.2296 60.6295C38.7269 59.9415 38.0175 59.432 37.205 59.1753C36.3925 58.9186 35.5193 58.9281 34.7125 59.2024C33.9058 59.4766 33.2077 60.0013 32.72 60.7001L22 76.0001" stroke="black" stroke-width="2" stroke-linecap="round" stroke-linejoin="round"/>
<path id="Vector_3" d="M40 63L42 63.5L40 64" stroke="black" stroke-width="2" stroke-linecap="round" stroke-linejoin="round"/>
<path id="Vector_4" d="M30 74V77" stroke="black" stroke-width="2" stroke-linecap="round" stroke-linejoin="round"/>
<path id="Vector_5" d="M34 73.75V77" stroke="black" stroke-width="2" stroke-linecap="round" stroke-linejoin="round"/>
<path id="Vector_6" d="M27 73.9999C28.2331 73.9998 29.4363 73.6198 30.4457 72.9116C31.4552 72.2034 32.2219 71.2013 32.6416 70.0418C33.0612 68.8823 33.1134 67.6216 32.7911 66.4314C32.4687 65.2412 31.7874 64.1792 30.84 63.3899" stroke="black" stroke-width="2" stroke-linecap="round" stroke-linejoin="round"/>
</g></svg>
