<svg viewBox="0 0 24 24" fill="none" xmlns="http://www.w3.org/2000/svg"><g transform="translate(-116 -56)">
<path id="Vector_13" d="M124 70C123.536 69.9999 123.087 70.1609 122.729 70.4555C122.37 70.7501 122.126 71.16 122.037 71.615L121.019 76.808C120.99 76.9528 120.994 77.1021 121.031 77.2452C121.067 77.3882 121.134 77.5215 121.228 77.6355C121.322 77.7494 121.439 77.8412 121.573 77.9042C121.706 77.9672 121.852 77.9999 122 78H134C134.147 77.9999 134.293 77.9672 134.426 77.9042C134.56 77.8412 134.678 77.7494 134.771 77.6355C134.865 77.5215 134.933 77.3882 134.969 77.2452C135.005 77.1021 135.009 76.9528 134.981 76.808L133.963 71.615C133.873 71.16 133.629 70.7501 133.271 70.4555C132.913 70.1609 132.463 69.9999 132 70H124Z" stroke="black" stroke-width="2" stroke-linecap="round" stroke-linejoin="round"/>
<path id="Vector_14" d="M133 58L132 70" stroke="black" stroke-width="2" stroke-linecap="round" stroke-linejoin="round"/>
<path id="Vector_15" d="M124.006 70L123 58" stroke="black" stroke-width="2" stroke-linecap="round" stroke-linejoin="round"/>
<path id="Vector_16" d="M123.565 64.787C124.315 65.0119 125.106 65.0578 125.877 64.9212C126.647 64.7845 127.374 64.4689 128 64C128.644 63.5173 129.395 63.1971 130.189 63.0665C130.982 62.936 131.796 62.9989 132.56 63.25" stroke="black" stroke-width="2" stroke-linecap="round" stroke-linejoin="round"/>
<path id="Vector_17" d="M135 58H121C120.47 58 119.961 58.2107 119.586 58.5858C119.211 58.9609 119 59.4696 119 60V65C119.001 65.2846 119.063 65.5656 119.182 65.8243C119.301 66.0829 119.473 66.3133 119.688 66.5" stroke="black" stroke-width="2" stroke-linecap="round" stroke-linejoin="round"/>
<path id="Vector_18" d="M128 74H128.01" stroke="black" stroke-width="2" stroke-linecap="round" stroke-linejoin="round"/>
</g></svg>
