<svg viewBox="0 0 24 24" fill="none" xmlns="http://www.w3.org/2000/svg"><g transform="translate(-20 -56)">
<path id="Vector" d="M30 78V63C30 62.7348 29.8946 62.4804 29.7071 62.2929C29.5196 62.1054 29.2652 62 29 62H24C23.4696 62 22.9609 62.2107 22.5858 62.5858C22.2107 62.9609 22 63.4696 22 64V76C22 76.5304 22.2107 77.0391 22.5858 77.4142C22.9609 77.7893 23.4696 78 24 78H36C36.5304 78 37.0391 77.7893 37.4142 77.4142C37.7893 77.0391 38 76.5304 38 76V71C38 70.7348 37.8946 70.4804 37.7071 70.2929C37.5196 70.1054 37.2652 70 37 70H22" stroke="black" stroke-width="2" stroke-linecap="round" stroke-linejoin="round"/>
<path id="Vector_2" d="M41 58H35C34.4477 58 34 58.4477 34 59V65C34 65.5523 34.4477 66 35 66H41C41.5523 66 42 65.5523 42 65V59C42 58.4477 41.5523 58 41 58Z" stroke="black" stroke-width="2" stroke-linecap="round" stroke-linejoin="round"/>
</g></svg>
