<svg viewBox="0 0 24 24" fill="none" xmlns="http://www.w3.org/2000/svg"><g transform="translate(-84 -56)">
<path id="Vector_8" d="M90 68H99C100.061 68 101.078 68.4214 101.828 69.1716C102.579 69.9217 103 70.9391 103 72C103 73.0609 102.579 74.0783 101.828 74.8284C101.078 75.5786 100.061 76 99 76H91C90.7348 76 90.4804 75.8946 90.2929 75.7071C90.1054 75.5196 90 75.2652 90 75V61C90 60.7348 90.1054 60.4804 90.2929 60.2929C90.4804 60.1054 90.7348 60 91 60H98C99.0609 60 100.078 60.4214 100.828 61.1716C101.579 61.9217 102 62.9391 102 64C102 65.0609 101.579 66.0783 100.828 66.8284C100.078 67.5786 99.0609 68 98 68" stroke="black" stroke-width="2" stroke-linecap="round" stroke-linejoin="round"/>
</g></svg>
