<svg viewBox="0 0 24 24" fill="none" xmlns="http://www.w3.org/2000/svg"><g transform="translate(-84 -88)">
<path id="Vector_53" d="M105 104V96C105 95.6493 104.907 95.3048 104.732 95.0012C104.556 94.6975 104.304 94.4454 104 94.27L97 90.27C96.696 90.0945 96.3511 90.0021 96 90.0021C95.6489 90.0021 95.304 90.0945 95 90.27L88 94.27C87.6963 94.4454 87.444 94.6975 87.2685 95.0012C87.0929 95.3048 87.0004 95.6493 87 96V104C87.0004 104.351 87.0929 104.695 87.2685 104.999C87.444 105.303 87.6963 105.555 88 105.73L95 109.73C95.304 109.906 95.6489 109.998 96 109.998C96.3511 109.998 96.696 109.906 97 109.73L104 105.73C104.304 105.555 104.556 105.303 104.732 104.999C104.907 104.695 105 104.351 105 104Z" stroke="black" stroke-width="2" stroke-linecap="round" stroke-linejoin="round"/>
<path id="Vector_54" d="M96 104C98.2091 104 100 102.209 100 100C100 97.7909 98.2091 96 96 96C93.7909 96 92 97.7909 92 100C92 102.209 93.7909 104 96 104Z" stroke="black" stroke-width="2" stroke-linecap="round" stroke-linejoin="round"/>
</g></svg>
