<svg viewBox="0 0 24 24" fill="none" xmlns="http://www.w3.org/2000/svg"><g transform="translate(-116 -56)">
<path id="Vector_12" d="M127 78C131.971 78 136 73.9706 136 69C136 64.0294 131.971 60 127 60C122.029 60 118 64.0294 118 69C118 73.9706 122.029 78 127 78Z" stroke="black" stroke-width="2" stroke-linecap="round" stroke-linejoin="round"/>
<path id="Vector_13" d="M130.35 60.65L132.3 58.7C132.751 58.2505 133.362 57.9982 134 57.9982C134.637 57.9982 135.248 58.2505 135.7 58.7L137.3 60.3C137.523 60.523 137.701 60.7879 137.822 61.0796C137.943 61.3713 138.006 61.6841 138.006 62C138.006 62.3159 137.943 62.6286 137.822 62.9204C137.701 63.2121 137.523 63.477 137.3 63.7L135.35 65.65" stroke="black" stroke-width="2" stroke-linecap="round" stroke-linejoin="round"/>
<path id="Vector_14" d="M138 58L136.5 59.5" stroke="black" stroke-width="2" stroke-linecap="round" stroke-linejoin="round"/>
</g></svg>
