<svg viewBox="0 0 24 24" fill="none" xmlns="http://www.w3.org/2000/svg"><g transform="translate(-180 -56)">
<path id="Vector_29" d="M194 60.5C194 59.837 194.263 59.2011 194.732 58.7322C195.201 58.2634 195.837 58 196.5 58C197.163 58 197.799 58.2634 198.268 58.7322C198.736 59.2011 199 59.837 199 60.5C199 60.6326 199.053 60.7598 199.146 60.8536C199.24 60.9473 199.367 61 199.5 61C200.163 61 200.799 61.2634 201.268 61.7322C201.736 62.2011 202 62.837 202 63.5C202 64.163 201.736 64.7989 201.268 65.2678C200.799 65.7366 200.163 66 199.5 66C198.69 66 197.7 65.3 197 66L195.042 67.957C195.023 67.9759 194.999 67.9894 194.973 67.996C194.948 68.0027 194.92 68.0024 194.895 67.995C194.869 67.9877 194.846 67.9736 194.827 67.9543C194.809 67.9349 194.796 67.911 194.79 67.885L194.297 65.815C194.291 65.7879 194.277 65.763 194.257 65.7432C194.238 65.7235 194.213 65.7095 194.186 65.703L192.114 65.209C192.088 65.2029 192.064 65.19 192.045 65.1715C192.025 65.1531 192.011 65.1298 192.004 65.1042C191.996 65.0785 191.996 65.0513 192.003 65.0254C192.01 64.9995 192.023 64.9759 192.042 64.957L194 63C194.7 62.3 194 61.31 194 60.5Z" stroke="black" stroke-width="2" stroke-linecap="round" stroke-linejoin="round"/>
<path id="Vector_30" d="M196 76L195 74" stroke="black" stroke-width="2" stroke-linecap="round" stroke-linejoin="round"/>
<path id="Vector_31" d="M200 72L198 71" stroke="black" stroke-width="2" stroke-linecap="round" stroke-linejoin="round"/>
<path id="Vector_32" d="M184 64L186 65" stroke="black" stroke-width="2" stroke-linecap="round" stroke-linejoin="round"/>
<path id="Vector_33" d="M188 60L189 62" stroke="black" stroke-width="2" stroke-linecap="round" stroke-linejoin="round"/>
<path id="Vector_34" d="M189.698 70.1901C189.704 70.2173 189.718 70.2423 189.738 70.2621C189.758 70.2819 189.783 70.2957 189.81 70.3021L191.884 70.7911C191.91 70.7972 191.934 70.8101 191.953 70.8285C191.973 70.847 191.987 70.8702 191.994 70.8959C192.001 70.9216 192.002 70.9488 191.995 70.9747C191.988 71.0006 191.975 71.0242 191.956 71.0431L190 73.0001C189.3 73.7001 190 74.6901 190 75.5001C190 76.1631 189.737 76.799 189.268 77.2678C188.799 77.7367 188.163 78.0001 187.5 78.0001C186.837 78.0001 186.201 77.7367 185.732 77.2678C185.263 76.799 185 76.1631 185 75.5001C185.001 75.4342 184.988 75.3689 184.963 75.308C184.938 75.247 184.902 75.1916 184.855 75.145C184.808 75.0985 184.753 75.0617 184.692 75.0368C184.631 75.0119 184.566 74.9994 184.5 75.0001C183.837 75.0001 183.201 74.7367 182.732 74.2678C182.263 73.799 182 73.1631 182 72.5001C182 71.837 182.263 71.2012 182.732 70.7323C183.201 70.2635 183.837 70.0001 184.5 70.0001C185.31 70.0001 186.3 70.7001 187 70.0001L188.956 68.0431C188.975 68.0242 188.999 68.0107 189.024 68.004C189.05 67.9974 189.077 67.9977 189.103 68.005C189.129 68.0124 189.152 68.0265 189.171 68.0458C189.189 68.0651 189.202 68.0891 189.208 68.1151L189.698 70.1901Z" stroke="black" stroke-width="2" stroke-linecap="round" stroke-linejoin="round"/>
</g></svg>
