<svg viewBox="0 0 24 24" fill="none" xmlns="http://www.w3.org/2000/svg"><g transform="translate(-148 -56)">
<path id="Vector_28" d="M165 66C165.7 65.3 166.69 66 167.5 66C168.163 66 168.799 65.7366 169.268 65.2678C169.737 64.7989 170 64.163 170 63.5C170 62.837 169.737 62.2011 169.268 61.7322C168.799 61.2634 168.163 61 167.5 61C167.367 61 167.24 60.9473 167.146 60.8536C167.053 60.7598 167 60.6326 167 60.5C167 59.837 166.737 59.2011 166.268 58.7322C165.799 58.2634 165.163 58 164.5 58C163.837 58 163.201 58.2634 162.732 58.7322C162.263 59.2011 162 59.837 162 60.5C162 61.31 162.7 62.3 162 63L155 70C154.3 70.7 153.31 70 152.5 70C151.837 70 151.201 70.2634 150.732 70.7322C150.263 71.2011 150 71.837 150 72.5C150 73.163 150.263 73.7989 150.732 74.2678C151.201 74.7366 151.837 75 152.5 75C152.78 75 153 75.22 153 75.5C153 76.163 153.263 76.7989 153.732 77.2678C154.201 77.7366 154.837 78 155.5 78C156.163 78 156.799 77.7366 157.268 77.2678C157.737 76.7989 158 76.163 158 75.5C158 74.69 157.3 73.7 158 73L165 66Z" stroke="black" stroke-width="2" stroke-linecap="round" stroke-linejoin="round"/>
</g></svg>
