<svg viewBox="0 0 24 24" fill="none" xmlns="http://www.w3.org/2000/svg"><g transform="translate(-308 -88)">
<path id="Vector_67" d="M320 95V109" stroke="black" stroke-width="2" stroke-linecap="round" stroke-linejoin="round"/>
<path id="Vector_68" d="M311 106C310.735 106 310.48 105.895 310.293 105.707C310.105 105.52 310 105.265 310 105V92C310 91.7348 310.105 91.4804 310.293 91.2929C310.48 91.1054 310.735 91 311 91H316C317.061 91 318.078 91.4214 318.828 92.1716C319.579 92.9217 320 93.9391 320 95C320 93.9391 320.421 92.9217 321.172 92.1716C321.922 91.4214 322.939 91 324 91H329C329.265 91 329.52 91.1054 329.707 91.2929C329.895 91.4804 330 91.7348 330 92V105C330 105.265 329.895 105.52 329.707 105.707C329.52 105.895 329.265 106 329 106H323C322.204 106 321.441 106.316 320.879 106.879C320.316 107.441 320 108.204 320 109C320 108.204 319.684 107.441 319.121 106.879C318.559 106.316 317.796 106 317 106H311Z" stroke="black" stroke-width="2" stroke-linecap="round" stroke-linejoin="round"/>
</g></svg>
