<svg viewBox="0 0 24 24" fill="none" xmlns="http://www.w3.org/2000/svg"><g transform="translate(-84 -88)">
<path id="Vector_50" d="M101 91C101.53 91 102.039 91.2107 102.414 91.5858C102.789 91.9609 103 92.4696 103 93V108C103 108.175 102.954 108.347 102.866 108.499C102.779 108.651 102.653 108.777 102.502 108.865C102.35 108.953 102.178 108.999 102.003 109C101.828 109 101.656 108.955 101.504 108.868L96.992 106.29C96.6899 106.117 96.3479 106.027 96 106.027C95.6521 106.027 95.3101 106.117 95.008 106.29L90.496 108.868C90.3439 108.955 90.1717 109 89.9966 109C89.8215 108.999 89.6496 108.953 89.4981 108.865C89.3467 108.777 89.2209 108.651 89.1335 108.499C89.0461 108.347 89.0001 108.175 89 108V93C89 92.4696 89.2107 91.9609 89.5858 91.5858C89.9609 91.2107 90.4696 91 91 91H101Z" stroke="black" stroke-width="2" stroke-linecap="round" stroke-linejoin="round"/>
<path id="Vector_51" d="M93 98L95 100L99 96" stroke="black" stroke-width="2" stroke-linecap="round" stroke-linejoin="round"/>
</g></svg>
