<svg viewBox="0 0 24 24" fill="none" xmlns="http://www.w3.org/2000/svg"><g transform="translate(-84 -120)">
<path id="Vector_85" d="M88 139.5V124.5C88 123.837 88.2634 123.201 88.7322 122.732C89.2011 122.263 89.837 122 90.5 122H103C103.265 122 103.52 122.105 103.707 122.293C103.895 122.48 104 122.735 104 123V141C104 141.265 103.895 141.52 103.707 141.707C103.52 141.895 103.265 142 103 142H90.5C89.837 142 89.2011 141.737 88.7322 141.268C88.2634 140.799 88 140.163 88 139.5ZM88 139.5C88 138.837 88.2634 138.201 88.7322 137.732C89.2011 137.263 89.837 137 90.5 137H104" stroke="black" stroke-width="2" stroke-linecap="round" stroke-linejoin="round"/>
<path id="Vector_86" d="M92 131H100" stroke="black" stroke-width="2" stroke-linecap="round" stroke-linejoin="round"/>
<path id="Vector_87" d="M92 127H98" stroke="black" stroke-width="2" stroke-linecap="round" stroke-linejoin="round"/>
</g></svg>
