<svg viewBox="0 0 24 24" fill="none" xmlns="http://www.w3.org/2000/svg"><g transform="translate(-212 -88)">
<path id="Vector_59" d="M224 95V101" stroke="black" stroke-width="2" stroke-linecap="round" stroke-linejoin="round"/>
<path id="Vector_60" d="M227 98H221" stroke="black" stroke-width="2" stroke-linecap="round" stroke-linejoin="round"/>
<path id="Vector_61" d="M229 91C229.53 91 230.039 91.2107 230.414 91.5858C230.789 91.9609 231 92.4696 231 93V108C231 108.175 230.954 108.347 230.866 108.499C230.779 108.651 230.653 108.777 230.502 108.865C230.35 108.953 230.178 108.999 230.003 109C229.828 109 229.656 108.955 229.504 108.868L224.992 106.29C224.69 106.117 224.348 106.027 224 106.027C223.652 106.027 223.31 106.117 223.008 106.29L218.496 108.868C218.344 108.955 218.172 109 217.997 109C217.822 108.999 217.65 108.953 217.498 108.865C217.347 108.777 217.221 108.651 217.134 108.499C217.046 108.347 217 108.175 217 108V93C217 92.4696 217.211 91.9609 217.586 91.5858C217.961 91.2107 218.47 91 219 91H229Z" stroke="black" stroke-width="2" stroke-linecap="round" stroke-linejoin="round"/>
</g></svg>
