<svg viewBox="0 0 24 24" fill="none" xmlns="http://www.w3.org/2000/svg"><g transform="translate(-276 -88)">
<path id="Vector_65" d="M280 107.5V92.5C280 91.837 280.263 91.2011 280.732 90.7322C281.201 90.2634 281.837 90 282.5 90H295C295.265 90 295.52 90.1054 295.707 90.2929C295.895 90.4804 296 90.7348 296 91V109C296 109.265 295.895 109.52 295.707 109.707C295.52 109.895 295.265 110 295 110H282.5C281.837 110 281.201 109.737 280.732 109.268C280.263 108.799 280 108.163 280 107.5ZM280 107.5C280 106.837 280.263 106.201 280.732 105.732C281.201 105.263 281.837 105 282.5 105H296" stroke="black" stroke-width="2" stroke-linecap="round" stroke-linejoin="round"/>
<path id="Vector_66" d="M285 98H291" stroke="black" stroke-width="2" stroke-linecap="round" stroke-linejoin="round"/>
</g></svg>
