<svg viewBox="0 0 24 24" fill="none" xmlns="http://www.w3.org/2000/svg"><g transform="translate(-52 -56)">
<path id="Vector_2" d="M56 75.5V60.5C56 59.837 56.2634 59.2011 56.7322 58.7322C57.2011 58.2634 57.837 58 58.5 58H71C71.2652 58 71.5196 58.1054 71.7071 58.2929C71.8946 58.4804 72 58.7348 72 59V77C72 77.2652 71.8946 77.5196 71.7071 77.7071C71.5196 77.8946 71.2652 78 71 78H58.5C57.837 78 57.2011 77.7366 56.7322 77.2678C56.2634 76.7989 56 76.163 56 75.5ZM56 75.5C56 74.837 56.2634 74.2011 56.7322 73.7322C57.2011 73.2634 57.837 73 58.5 73H72" stroke="black" stroke-width="2" stroke-linecap="round" stroke-linejoin="round"/>
<path id="Vector_3" d="M60 69L64 62L68 69" stroke="black" stroke-width="2" stroke-linecap="round" stroke-linejoin="round"/>
<path id="Vector_4" d="M61.0996 67H66.7996" stroke="black" stroke-width="2" stroke-linecap="round" stroke-linejoin="round"/>
</g></svg>
