<svg viewBox="0 0 24 24" fill="none" xmlns="http://www.w3.org/2000/svg"><g transform="translate(-340 -88)">
<path id="Vector_69" d="M352 109V95" stroke="black" stroke-width="2" stroke-linecap="round" stroke-linejoin="round"/>
<path id="Vector_70" d="M356 100L358 102L362 98" stroke="black" stroke-width="2" stroke-linecap="round" stroke-linejoin="round"/>
<path id="Vector_71" d="M362 94V92C362 91.7348 361.895 91.4804 361.707 91.2929C361.52 91.1054 361.265 91 361 91H356C354.939 91 353.922 91.4214 353.172 92.1716C352.421 92.9217 352 93.9391 352 95C352 93.9391 351.579 92.9217 350.828 92.1716C350.078 91.4214 349.061 91 348 91H343C342.735 91 342.48 91.1054 342.293 91.2929C342.105 91.4804 342 91.7348 342 92V105C342 105.265 342.105 105.52 342.293 105.707C342.48 105.895 342.735 106 343 106H349C349.796 106 350.559 106.316 351.121 106.879C351.684 107.441 352 108.204 352 109C352 108.204 352.316 107.441 352.879 106.879C353.441 106.316 354.204 106 355 106H361C361.265 106 361.52 105.895 361.707 105.707C361.895 105.52 362 105.265 362 105V103.7" stroke="black" stroke-width="2" stroke-linecap="round" stroke-linejoin="round"/>
</g></svg>
