<svg viewBox="0 0 24 24" fill="none" xmlns="http://www.w3.org/2000/svg"><g transform="translate(-180 -56)">
<path id="Vector_14" d="M185 63C184.47 63 183.961 63.2107 183.586 63.5858C183.211 63.9609 183 64.4696 183 65V76" stroke="black" stroke-width="2" stroke-linecap="round" stroke-linejoin="round"/>
<path id="Vector_15" d="M185.803 74H185C184.47 74 183.961 74.2107 183.586 74.5858C183.211 74.9609 183 75.4696 183 76C183 76.5304 183.211 77.0391 183.586 77.4142C183.961 77.7893 184.47 78 185 78H194.5C194.633 78 194.76 77.9473 194.854 77.8536C194.947 77.7598 195 77.6326 195 77.5V77" stroke="black" stroke-width="2" stroke-linecap="round" stroke-linejoin="round"/>
<path id="Vector_16" d="M189 71V60C189 59.4696 189.211 58.9609 189.586 58.5858C189.961 58.2107 190.47 58 191 58H200.5C200.633 58 200.76 58.0527 200.854 58.1464C200.947 58.2402 201 58.3674 201 58.5V72.5C201 72.6326 200.947 72.7598 200.854 72.8536C200.76 72.9473 200.633 73 200.5 73H191C190.47 73 189.961 72.7893 189.586 72.4142C189.211 72.0391 189 71.5304 189 71ZM189 71C189 70.4696 189.211 69.9609 189.586 69.5858C189.961 69.2107 190.47 69 191 69H201" stroke="black" stroke-width="2" stroke-linecap="round" stroke-linejoin="round"/>
</g></svg>
