<svg viewBox="0 0 24 24" fill="none" xmlns="http://www.w3.org/2000/svg"><g transform="translate(-20 -56)">
<path id="Vector" d="M24 75.5V60.5C24 59.837 24.2634 59.2011 24.7322 58.7322C25.2011 58.2634 25.837 58 26.5 58H39C39.2652 58 39.5196 58.1054 39.7071 58.2929C39.8946 58.4804 40 58.7348 40 59V77C40 77.2652 39.8946 77.5196 39.7071 77.7071C39.5196 77.8946 39.2652 78 39 78H26.5C25.837 78 25.2011 77.7366 24.7322 77.2678C24.2634 76.7989 24 76.163 24 75.5ZM24 75.5C24 74.837 24.2634 74.2011 24.7322 73.7322C25.2011 73.2634 25.837 73 26.5 73H40" stroke="black" stroke-width="2" stroke-linecap="round" stroke-linejoin="round"/>
</g></svg>
