<svg viewBox="0 0 24 24" fill="none" xmlns="http://www.w3.org/2000/svg"><g transform="translate(-340 -56)">
<path id="Vector_37" d="M360 69.7L357.9 67.6C357.526 67.2336 357.024 67.0283 356.5 67.0283C355.977 67.0283 355.474 67.2336 355.1 67.6L349.7 73" stroke="black" stroke-width="2" stroke-linecap="round" stroke-linejoin="round"/>
<path id="Vector_38" d="M344 75.5V60.5C344 59.837 344.263 59.2011 344.732 58.7322C345.201 58.2634 345.837 58 346.5 58H359C359.265 58 359.52 58.1054 359.707 58.2929C359.895 58.4804 360 58.7348 360 59V77C360 77.2652 359.895 77.5196 359.707 77.7071C359.52 77.8946 359.265 78 359 78H346.5C345.837 78 345.201 77.7366 344.732 77.2678C344.263 76.7989 344 76.163 344 75.5ZM344 75.5C344 74.837 344.263 74.2011 344.732 73.7322C345.201 73.2634 345.837 73 346.5 73H360" stroke="black" stroke-width="2" stroke-linecap="round" stroke-linejoin="round"/>
<path id="Vector_39" d="M350 66C351.105 66 352 65.1046 352 64C352 62.8954 351.105 62 350 62C348.895 62 348 62.8954 348 64C348 65.1046 348.895 66 350 66Z" stroke="black" stroke-width="2" stroke-linecap="round" stroke-linejoin="round"/>
</g></svg>
