<svg viewBox="0 0 24 24" fill="none" xmlns="http://www.w3.org/2000/svg"><g transform="translate(-116 -56)">
<path id="Vector_8" d="M128 62V69" stroke="black" stroke-width="2" stroke-linecap="round" stroke-linejoin="round"/>
<path id="Vector_9" d="M132 64V67" stroke="black" stroke-width="2" stroke-linecap="round" stroke-linejoin="round"/>
<path id="Vector_10" d="M120 75.5V60.5C120 59.837 120.263 59.2011 120.732 58.7322C121.201 58.2634 121.837 58 122.5 58H135C135.265 58 135.52 58.1054 135.707 58.2929C135.895 58.4804 136 58.7348 136 59V77C136 77.2652 135.895 77.5196 135.707 77.7071C135.52 77.8946 135.265 78 135 78H122.5C121.837 78 121.201 77.7366 120.732 77.2678C120.263 76.7989 120 76.163 120 75.5ZM120 75.5C120 74.837 120.263 74.2011 120.732 73.7322C121.201 73.2634 121.837 73 122.5 73H136" stroke="black" stroke-width="2" stroke-linecap="round" stroke-linejoin="round"/>
<path id="Vector_11" d="M124 64V67" stroke="black" stroke-width="2" stroke-linecap="round" stroke-linejoin="round"/>
</g></svg>
