<svg viewBox="0 0 24 24" fill="none" xmlns="http://www.w3.org/2000/svg"><g transform="translate(-276 -56)">
<path id="Vector_31" d="M280 75.5V60.5C280 59.837 280.263 59.2011 280.732 58.7322C281.201 58.2634 281.837 58 282.5 58H295C295.265 58 295.52 58.1054 295.707 58.2929C295.895 58.4804 296 58.7348 296 59V77C296 77.2652 295.895 77.5196 295.707 77.7071C295.52 77.8946 295.265 78 295 78H282.5C281.837 78 281.201 77.7366 280.732 77.2678C280.263 76.7989 280 76.163 280 75.5ZM280 75.5C280 74.837 280.263 74.2011 280.732 73.7322C281.201 73.2634 281.837 73 282.5 73H296" stroke="black" stroke-width="2" stroke-linecap="round" stroke-linejoin="round"/>
<path id="Vector_32" d="M284 68V66C284 64.9391 284.421 63.9217 285.172 63.1716C285.922 62.4214 286.939 62 288 62C289.061 62 290.078 62.4214 290.828 63.1716C291.579 63.9217 292 64.9391 292 66V68" stroke="black" stroke-width="2" stroke-linecap="round" stroke-linejoin="round"/>
<path id="Vector_33" d="M291 69C291.552 69 292 68.5523 292 68C292 67.4477 291.552 67 291 67C290.448 67 290 67.4477 290 68C290 68.5523 290.448 69 291 69Z" stroke="black" stroke-width="2" stroke-linecap="round" stroke-linejoin="round"/>
<path id="Vector_34" d="M285 69C285.552 69 286 68.5523 286 68C286 67.4477 285.552 67 285 67C284.448 67 284 67.4477 284 68C284 68.5523 284.448 69 285 69Z" stroke="black" stroke-width="2" stroke-linecap="round" stroke-linejoin="round"/>
</g></svg>
