<svg viewBox="0 0 24 24" fill="none" xmlns="http://www.w3.org/2000/svg"><g transform="translate(-244 -120)">
<path id="Vector_103" d="M258.5 127L253.5 132" stroke="black" stroke-width="2" stroke-linecap="round" stroke-linejoin="round"/>
<path id="Vector_104" d="M248 139.5V124.5C248 123.837 248.263 123.201 248.732 122.732C249.201 122.263 249.837 122 250.5 122H263C263.265 122 263.52 122.105 263.707 122.293C263.895 122.48 264 122.735 264 123V141C264 141.265 263.895 141.52 263.707 141.707C263.52 141.895 263.265 142 263 142H250.5C249.837 142 249.201 141.737 248.732 141.268C248.263 140.799 248 140.163 248 139.5ZM248 139.5C248 138.837 248.263 138.201 248.732 137.732C249.201 137.263 249.837 137 250.5 137H264" stroke="black" stroke-width="2" stroke-linecap="round" stroke-linejoin="round"/>
<path id="Vector_105" d="M253.5 127L258.5 132" stroke="black" stroke-width="2" stroke-linecap="round" stroke-linejoin="round"/>
</g></svg>
