<svg viewBox="0 0 24 24" fill="none" xmlns="http://www.w3.org/2000/svg"><g transform="translate(-148 -120)">
<path id="Vector_92" d="M160 133V127" stroke="black" stroke-width="2" stroke-linecap="round" stroke-linejoin="round"/>
<path id="Vector_93" d="M152 139.5V124.5C152 123.837 152.263 123.201 152.732 122.732C153.201 122.263 153.837 122 154.5 122H167C167.265 122 167.52 122.105 167.707 122.293C167.895 122.48 168 122.735 168 123V141C168 141.265 167.895 141.52 167.707 141.707C167.52 141.895 167.265 142 167 142H154.5C153.837 142 153.201 141.737 152.732 141.268C152.263 140.799 152 140.163 152 139.5ZM152 139.5C152 138.837 152.263 138.201 152.732 137.732C153.201 137.263 153.837 137 154.5 137H168" stroke="black" stroke-width="2" stroke-linecap="round" stroke-linejoin="round"/>
<path id="Vector_94" d="M157 130L160 127L163 130" stroke="black" stroke-width="2" stroke-linecap="round" stroke-linejoin="round"/>
</g></svg>
