<svg viewBox="0 0 24 24" fill="none" xmlns="http://www.w3.org/2000/svg"><g transform="translate(-212 -56)">
<path id="Vector_17" d="M224 73H225.5" stroke="black" stroke-width="2" stroke-linecap="round" stroke-linejoin="round"/>
<path id="Vector_18" d="M224 78H225.5" stroke="black" stroke-width="2" stroke-linecap="round" stroke-linejoin="round"/>
<path id="Vector_19" d="M224 58H225.5" stroke="black" stroke-width="2" stroke-linecap="round" stroke-linejoin="round"/>
<path id="Vector_20" d="M229.5 78H231C231.265 78 231.52 77.8946 231.707 77.7071C231.895 77.5196 232 77.2652 232 77" stroke="black" stroke-width="2" stroke-linecap="round" stroke-linejoin="round"/>
<path id="Vector_21" d="M229.5 58H231C231.265 58 231.52 58.1054 231.707 58.2929C231.895 58.4804 232 58.7348 232 59V60.5" stroke="black" stroke-width="2" stroke-linecap="round" stroke-linejoin="round"/>
<path id="Vector_22" d="M232 70V73H229.5" stroke="black" stroke-width="2" stroke-linecap="round" stroke-linejoin="round"/>
<path id="Vector_23" d="M232 64.5V66" stroke="black" stroke-width="2" stroke-linecap="round" stroke-linejoin="round"/>
<path id="Vector_24" d="M216 66V64.5" stroke="black" stroke-width="2" stroke-linecap="round" stroke-linejoin="round"/>
<path id="Vector_25" d="M216 75.5V70" stroke="black" stroke-width="2" stroke-linecap="round" stroke-linejoin="round"/>
<path id="Vector_26" d="M216 60.5C216 59.837 216.263 59.2011 216.732 58.7322C217.201 58.2634 217.837 58 218.5 58H220" stroke="black" stroke-width="2" stroke-linecap="round" stroke-linejoin="round"/>
<path id="Vector_27" d="M220 78H218.5C217.837 78 217.201 77.7366 216.732 77.2678C216.263 76.7989 216 76.163 216 75.5C216 74.837 216.263 74.2011 216.732 73.7322C217.201 73.2634 217.837 73 218.5 73H220" stroke="black" stroke-width="2" stroke-linecap="round" stroke-linejoin="round"/>
</g></svg>
