<svg viewBox="0 0 24 24" fill="none" xmlns="http://www.w3.org/2000/svg"><g transform="translate(-372 -88)">
<path id="Vector_72" d="M384 95V109" stroke="black" stroke-width="2" stroke-linecap="round" stroke-linejoin="round"/>
<path id="Vector_73" d="M388 100H390" stroke="black" stroke-width="2" stroke-linecap="round" stroke-linejoin="round"/>
<path id="Vector_74" d="M388 96H390" stroke="black" stroke-width="2" stroke-linecap="round" stroke-linejoin="round"/>
<path id="Vector_75" d="M375 106C374.735 106 374.48 105.895 374.293 105.707C374.105 105.52 374 105.265 374 105V92C374 91.7348 374.105 91.4804 374.293 91.2929C374.48 91.1054 374.735 91 375 91H380C381.061 91 382.078 91.4214 382.828 92.1716C383.579 92.9217 384 93.9391 384 95C384 93.9391 384.421 92.9217 385.172 92.1716C385.922 91.4214 386.939 91 388 91H393C393.265 91 393.52 91.1054 393.707 91.2929C393.895 91.4804 394 91.7348 394 92V105C394 105.265 393.895 105.52 393.707 105.707C393.52 105.895 393.265 106 393 106H387C386.204 106 385.441 106.316 384.879 106.879C384.316 107.441 384 108.204 384 109C384 108.204 383.684 107.441 383.121 106.879C382.559 106.316 381.796 106 381 106H375Z" stroke="black" stroke-width="2" stroke-linecap="round" stroke-linejoin="round"/>
<path id="Vector_76" d="M378 100H380" stroke="black" stroke-width="2" stroke-linecap="round" stroke-linejoin="round"/>
<path id="Vector_77" d="M378 96H380" stroke="black" stroke-width="2" stroke-linecap="round" stroke-linejoin="round"/>
</g></svg>
