<svg viewBox="0 0 24 24" fill="none" xmlns="http://www.w3.org/2000/svg"><g transform="translate(-244 -88)">
<path id="Vector_62" d="M258.5 95.5L253.5 100.5" stroke="black" stroke-width="2" stroke-linecap="round" stroke-linejoin="round"/>
<path id="Vector_63" d="M261 91C261.53 91 262.039 91.2107 262.414 91.5858C262.789 91.9609 263 92.4696 263 93V108C263 108.175 262.954 108.347 262.866 108.499C262.779 108.651 262.653 108.777 262.502 108.865C262.35 108.953 262.178 108.999 262.003 109C261.828 109 261.656 108.955 261.504 108.868L256.992 106.29C256.69 106.117 256.348 106.027 256 106.027C255.652 106.027 255.31 106.117 255.008 106.29L250.496 108.868C250.344 108.955 250.172 109 249.997 109C249.822 108.999 249.65 108.953 249.498 108.865C249.347 108.777 249.221 108.651 249.134 108.499C249.046 108.347 249 108.175 249 108V93C249 92.4696 249.211 91.9609 249.586 91.5858C249.961 91.2107 250.47 91 251 91H261Z" stroke="black" stroke-width="2" stroke-linecap="round" stroke-linejoin="round"/>
<path id="Vector_64" d="M253.5 95.5L258.5 100.5" stroke="black" stroke-width="2" stroke-linecap="round" stroke-linejoin="round"/>
</g></svg>
