<svg viewBox="0 0 24 24" fill="none" xmlns="http://www.w3.org/2000/svg"><g transform="translate(-52 -120)">
<path id="Vector_81" d="M63 142H57.5C56.837 142 56.2011 141.737 55.7322 141.268C55.2634 140.799 55 140.163 55 139.5C55 138.837 55.2634 138.201 55.7322 137.732C56.2011 137.263 56.837 137 57.5 137H62.001" stroke="black" stroke-width="2" stroke-linecap="round" stroke-linejoin="round"/>
<path id="Vector_82" d="M73.0001 142L71.1211 140.122" stroke="black" stroke-width="2" stroke-linecap="round" stroke-linejoin="round"/>
<path id="Vector_83" d="M55 139.5V124.5C55 123.837 55.2634 123.201 55.7322 122.732C56.2011 122.263 56.837 122 57.5 122H70C70.2652 122 70.5196 122.105 70.7071 122.293C70.8946 122.48 71 122.735 71 123V131" stroke="black" stroke-width="2" stroke-linecap="round" stroke-linejoin="round"/>
<path id="Vector_84" d="M69 141C70.6569 141 72 139.657 72 138C72 136.343 70.6569 135 69 135C67.3431 135 66 136.343 66 138C66 139.657 67.3431 141 69 141Z" stroke="black" stroke-width="2" stroke-linecap="round" stroke-linejoin="round"/>
</g></svg>
