<svg viewBox="0 0 24 24" fill="none" xmlns="http://www.w3.org/2000/svg"><g transform="translate(-180 -88)">
<path id="Vector_56" d="M199 107V108C199 108.175 198.954 108.347 198.866 108.499C198.779 108.651 198.653 108.777 198.502 108.865C198.35 108.953 198.178 108.999 198.003 109C197.828 109 197.656 108.955 197.504 108.868L192.992 106.29C192.69 106.117 192.348 106.027 192 106.027C191.652 106.027 191.31 106.117 191.008 106.29L186.496 108.868C186.344 108.955 186.172 109 185.997 109C185.822 108.999 185.65 108.953 185.498 108.865C185.347 108.777 185.221 108.651 185.134 108.499C185.046 108.347 185 108.175 185 108V93" stroke="black" stroke-width="2" stroke-linecap="round" stroke-linejoin="round"/>
<path id="Vector_57" d="M182 90L202 110" stroke="black" stroke-width="2" stroke-linecap="round" stroke-linejoin="round"/>
<path id="Vector_58" d="M188.656 91H197C197.531 91 198.039 91.2107 198.414 91.5858C198.79 91.9609 199 92.4696 199 93V101.344" stroke="black" stroke-width="2" stroke-linecap="round" stroke-linejoin="round"/>
</g></svg>
