<svg viewBox="0 0 24 24" fill="none" xmlns="http://www.w3.org/2000/svg"><g transform="translate(-84 -56)">
<path id="Vector_5" d="M96 69H96.01" stroke="black" stroke-width="2" stroke-linecap="round" stroke-linejoin="round"/>
<path id="Vector_6" d="M96 62V65" stroke="black" stroke-width="2" stroke-linecap="round" stroke-linejoin="round"/>
<path id="Vector_7" d="M88 75.5V60.5C88 59.837 88.2634 59.2011 88.7322 58.7322C89.2011 58.2634 89.837 58 90.5 58H103C103.265 58 103.52 58.1054 103.707 58.2929C103.895 58.4804 104 58.7348 104 59V77C104 77.2652 103.895 77.5196 103.707 77.7071C103.52 77.8946 103.265 78 103 78H90.5C89.837 78 89.2011 77.7366 88.7322 77.2678C88.2634 76.7989 88 76.163 88 75.5ZM88 75.5C88 74.837 88.2634 74.2011 88.7322 73.7322C89.2011 73.2634 89.837 73 90.5 73H104" stroke="black" stroke-width="2" stroke-linecap="round" stroke-linejoin="round"/>
</g></svg>
