<svg viewBox="0 0 24 24" fill="none" xmlns="http://www.w3.org/2000/svg"><g transform="translate(-180 -120)">
<path id="Vector_95" d="M192 133V127" stroke="black" stroke-width="2" stroke-linecap="round" stroke-linejoin="round"/>
<path id="Vector_96" d="M198 122H199C199.265 122 199.52 122.105 199.707 122.293C199.895 122.48 200 122.735 200 123V141C200 141.265 199.895 141.52 199.707 141.707C199.52 141.895 199.265 142 199 142H186.5C185.837 142 185.201 141.737 184.732 141.268C184.263 140.799 184 140.163 184 139.5C184 138.837 184.263 138.201 184.732 137.732C185.201 137.263 185.837 137 186.5 137H200" stroke="black" stroke-width="2" stroke-linecap="round" stroke-linejoin="round"/>
<path id="Vector_97" d="M184 139.5V124.5C184 123.837 184.263 123.201 184.732 122.732C185.201 122.263 185.837 122 186.5 122" stroke="black" stroke-width="2" stroke-linecap="round" stroke-linejoin="round"/>
<path id="Vector_98" d="M189 130L192 127L195 130" stroke="black" stroke-width="2" stroke-linecap="round" stroke-linejoin="round"/>
<path id="Vector_99" d="M189 125L192 122L195 125" stroke="black" stroke-width="2" stroke-linecap="round" stroke-linejoin="round"/>
</g></svg>
