<svg viewBox="0 0 24 24" fill="none" xmlns="http://www.w3.org/2000/svg"><g transform="translate(-308 -56)">
<path id="Vector_35" d="M312 75.5V60.5C312 59.837 312.263 59.2011 312.732 58.7322C313.201 58.2634 313.837 58 314.5 58H327C327.265 58 327.52 58.1054 327.707 58.2929C327.895 58.4804 328 58.7348 328 59V77C328 77.2652 327.895 77.5196 327.707 77.7071C327.52 77.8946 327.265 78 327 78H314.5C313.837 78 313.201 77.7366 312.732 77.2678C312.263 76.7989 312 76.163 312 75.5ZM312 75.5C312 74.837 312.263 74.2011 312.732 73.7322C313.201 73.2634 313.837 73 314.5 73H328" stroke="black" stroke-width="2" stroke-linecap="round" stroke-linejoin="round"/>
<path id="Vector_36" d="M316.62 65.7999C316.41 65.5806 316.246 65.3209 316.139 65.0365C316.032 64.7521 315.983 64.449 315.996 64.1453C316.009 63.8417 316.084 63.5439 316.215 63.2698C316.347 62.9957 316.532 62.7511 316.761 62.5507C316.989 62.3504 317.256 62.1983 317.545 62.1039C317.834 62.0094 318.139 61.9744 318.441 62.0011C318.744 62.0277 319.038 62.1155 319.306 62.2589C319.574 62.4024 319.81 62.5987 320 62.8359C320.191 62.6012 320.428 62.4073 320.695 62.266C320.963 62.1247 321.256 62.0388 321.557 62.0134C321.859 61.9881 322.162 62.0238 322.45 62.1185C322.737 62.2131 323.003 62.3648 323.23 62.5643C323.457 62.7639 323.642 63.0073 323.773 63.2799C323.905 63.5526 323.979 63.8489 323.994 64.1512C324.008 64.4534 323.96 64.7554 323.855 65.039C323.75 65.3226 323.588 65.5821 323.38 65.8019L320.754 68.6579C320.661 68.7658 320.545 68.8523 320.415 68.9115C320.285 68.9708 320.144 69.0015 320.001 69.0015C319.858 69.0015 319.717 68.9708 319.587 68.9115C319.457 68.8523 319.341 68.7658 319.247 68.6579L316.62 65.7999Z" stroke="black" stroke-width="2" stroke-linecap="round" stroke-linejoin="round"/>
</g></svg>
