<svg viewBox="0 0 24 24" fill="none" xmlns="http://www.w3.org/2000/svg"><g transform="translate(-148 -88)">
<path id="Vector_54" d="M163 98H157" stroke="black" stroke-width="2" stroke-linecap="round" stroke-linejoin="round"/>
<path id="Vector_55" d="M165 91C165.53 91 166.039 91.2107 166.414 91.5858C166.789 91.9609 167 92.4696 167 93V108C167 108.175 166.954 108.347 166.866 108.499C166.779 108.651 166.653 108.777 166.502 108.865C166.35 108.953 166.178 108.999 166.003 109C165.828 109 165.656 108.955 165.504 108.868L160.992 106.29C160.69 106.117 160.348 106.027 160 106.027C159.652 106.027 159.31 106.117 159.008 106.29L154.496 108.868C154.344 108.955 154.172 109 153.997 109C153.822 108.999 153.65 108.953 153.498 108.865C153.347 108.777 153.221 108.651 153.134 108.499C153.046 108.347 153 108.175 153 108V93C153 92.4696 153.211 91.9609 153.586 91.5858C153.961 91.2107 154.47 91 155 91H165Z" stroke="black" stroke-width="2" stroke-linecap="round" stroke-linejoin="round"/>
</g></svg>
