<svg viewBox="0 0 24 24" fill="none" xmlns="http://www.w3.org/2000/svg"><g transform="translate(-148 -56)">
<path id="Vector_12" d="M152 75.5V60.5C152 59.837 152.263 59.2011 152.732 58.7322C153.201 58.2634 153.837 58 154.5 58H167C167.265 58 167.52 58.1054 167.707 58.2929C167.895 58.4804 168 58.7348 168 59V77C168 77.2652 167.895 77.5196 167.707 77.7071C167.52 77.8946 167.265 78 167 78H154.5C153.837 78 153.201 77.7366 152.732 77.2678C152.263 76.7989 152 76.163 152 75.5ZM152 75.5C152 74.837 152.263 74.2011 152.732 73.7322C153.201 73.2634 153.837 73 154.5 73H168" stroke="black" stroke-width="2" stroke-linecap="round" stroke-linejoin="round"/>
<path id="Vector_13" d="M157 65.5L159 67.5L163 63.5" stroke="black" stroke-width="2" stroke-linecap="round" stroke-linejoin="round"/>
</g></svg>
