<svg viewBox="0 0 24 24" fill="none" xmlns="http://www.w3.org/2000/svg"><g transform="translate(-20 -120)">
<path id="Vector_78" d="M32 127V133" stroke="black" stroke-width="2" stroke-linecap="round" stroke-linejoin="round"/>
<path id="Vector_79" d="M24 139.5V124.5C24 123.837 24.2634 123.201 24.7322 122.732C25.2011 122.263 25.837 122 26.5 122H39C39.2652 122 39.5196 122.105 39.7071 122.293C39.8946 122.48 40 122.735 40 123V141C40 141.265 39.8946 141.52 39.7071 141.707C39.5196 141.895 39.2652 142 39 142H26.5C25.837 142 25.2011 141.737 24.7322 141.268C24.2634 140.799 24 140.163 24 139.5ZM24 139.5C24 138.837 24.2634 138.201 24.7322 137.732C25.2011 137.263 25.837 137 26.5 137H40" stroke="black" stroke-width="2" stroke-linecap="round" stroke-linejoin="round"/>
<path id="Vector_80" d="M29 130H35" stroke="black" stroke-width="2" stroke-linecap="round" stroke-linejoin="round"/>
</g></svg>
