<svg viewBox="0 0 24 24" fill="none" xmlns="http://www.w3.org/2000/svg"><g transform="translate(-116 -120)">
<path id="Vector_88" d="M126 133H130" stroke="black" stroke-width="2" stroke-linecap="round" stroke-linejoin="round"/>
<path id="Vector_89" d="M128 126V133" stroke="black" stroke-width="2" stroke-linecap="round" stroke-linejoin="round"/>
<path id="Vector_90" d="M132 128V126H124V128" stroke="black" stroke-width="2" stroke-linecap="round" stroke-linejoin="round"/>
<path id="Vector_91" d="M120 139.5V124.5C120 123.837 120.263 123.201 120.732 122.732C121.201 122.263 121.837 122 122.5 122H135C135.265 122 135.52 122.105 135.707 122.293C135.895 122.48 136 122.735 136 123V141C136 141.265 135.895 141.52 135.707 141.707C135.52 141.895 135.265 142 135 142H122.5C121.837 142 121.201 141.737 120.732 141.268C120.263 140.799 120 140.163 120 139.5ZM120 139.5C120 138.837 120.263 138.201 120.732 137.732C121.201 137.263 121.837 137 122.5 137H136" stroke="black" stroke-width="2" stroke-linecap="round" stroke-linejoin="round"/>
</g></svg>
