<svg viewBox="0 0 24 24" fill="none" xmlns="http://www.w3.org/2000/svg"><g transform="translate(-244 -56)">
<path id="Vector_28" d="M256 69V63" stroke="black" stroke-width="2" stroke-linecap="round" stroke-linejoin="round"/>
<path id="Vector_29" d="M248 75.5V60.5C248 59.837 248.263 59.2011 248.732 58.7322C249.201 58.2634 249.837 58 250.5 58H263C263.265 58 263.52 58.1054 263.707 58.2929C263.895 58.4804 264 58.7348 264 59V77C264 77.2652 263.895 77.5196 263.707 77.7071C263.52 77.8946 263.265 78 263 78H250.5C249.837 78 249.201 77.7366 248.732 77.2678C248.263 76.7989 248 76.163 248 75.5ZM248 75.5C248 74.837 248.263 74.2011 248.732 73.7322C249.201 73.2634 249.837 73 250.5 73H264" stroke="black" stroke-width="2" stroke-linecap="round" stroke-linejoin="round"/>
<path id="Vector_30" d="M253 66L256 69L259 66" stroke="black" stroke-width="2" stroke-linecap="round" stroke-linejoin="round"/>
</g></svg>
