<svg viewBox="0 0 24 24" fill="none" xmlns="http://www.w3.org/2000/svg"><g transform="translate(-212 -120)">
<path id="Vector_100" d="M227 133C227 132.204 226.684 131.441 226.121 130.879C225.559 130.316 224.796 130 224 130C223.204 130 222.441 130.316 221.879 130.879C221.316 131.441 221 132.204 221 133" stroke="black" stroke-width="2" stroke-linecap="round" stroke-linejoin="round"/>
<path id="Vector_101" d="M216 139.5V124.5C216 123.837 216.263 123.201 216.732 122.732C217.201 122.263 217.837 122 218.5 122H231C231.265 122 231.52 122.105 231.707 122.293C231.895 122.48 232 122.735 232 123V141C232 141.265 231.895 141.52 231.707 141.707C231.52 141.895 231.265 142 231 142H218.5C217.837 142 217.201 141.737 216.732 141.268C216.263 140.799 216 140.163 216 139.5ZM216 139.5C216 138.837 216.263 138.201 216.732 137.732C217.201 137.263 217.837 137 218.5 137H232" stroke="black" stroke-width="2" stroke-linecap="round" stroke-linejoin="round"/>
<path id="Vector_102" d="M224 130C225.105 130 226 129.105 226 128C226 126.895 225.105 126 224 126C222.895 126 222 126.895 222 128C222 129.105 222.895 130 224 130Z" stroke="black" stroke-width="2" stroke-linecap="round" stroke-linejoin="round"/>
</g></svg>
