<svg viewBox="0 0 24 24" fill="none" xmlns="http://www.w3.org/2000/svg"><g transform="translate(-20 -88)">
<path id="Vector_45" d="M38 94V92C38 91.4696 37.7893 90.9609 37.4142 90.5858C37.0391 90.2107 36.5304 90 36 90C35.4696 90 34.9609 90.2107 34.5858 90.5858C34.2107 90.9609 34 91.4696 34 92V94" stroke="black" stroke-width="2" stroke-linecap="round" stroke-linejoin="round"/>
<path id="Vector_46" d="M40 103V109C40 109.265 39.8946 109.52 39.7071 109.707C39.5196 109.895 39.2652 110 39 110H26.5C25.837 110 25.2011 109.737 24.7322 109.268C24.2634 108.799 24 108.163 24 107.5C24 106.837 24.2634 106.201 24.7322 105.732C25.2011 105.263 25.837 105 26.5 105H40" stroke="black" stroke-width="2" stroke-linecap="round" stroke-linejoin="round"/>
<path id="Vector_47" d="M24 107.5V92.5C24 91.837 24.2634 91.2011 24.7322 90.7322C25.2011 90.2634 25.837 90 26.5 90H30" stroke="black" stroke-width="2" stroke-linecap="round" stroke-linejoin="round"/>
<path id="Vector_48" d="M39 94H33C32.4477 94 32 94.4477 32 95V98C32 98.5523 32.4477 99 33 99H39C39.5523 99 40 98.5523 40 98V95C40 94.4477 39.5523 94 39 94Z" stroke="black" stroke-width="2" stroke-linecap="round" stroke-linejoin="round"/>
</g></svg>
