<svg viewBox="0 0 24 24" fill="none" xmlns="http://www.w3.org/2000/svg"><g transform="translate(-372 -56)">
<path id="Vector_40" d="M385 58H378.5C377.837 58 377.201 58.2634 376.732 58.7322C376.263 59.2011 376 59.837 376 60.5V75.5" stroke="black" stroke-width="2" stroke-linecap="round" stroke-linejoin="round"/>
<path id="Vector_41" d="M389 58V64" stroke="black" stroke-width="2" stroke-linecap="round" stroke-linejoin="round"/>
<path id="Vector_42" d="M389 60H391" stroke="black" stroke-width="2" stroke-linecap="round" stroke-linejoin="round"/>
<path id="Vector_43" d="M392 71.2V77C392 77.2652 391.895 77.5195 391.707 77.7071C391.52 77.8946 391.265 78 391 78H378.5C377.837 78 377.201 77.7366 376.732 77.2677C376.263 76.7989 376 76.163 376 75.5C376 74.8369 376.263 74.201 376.732 73.7322C377.201 73.2633 377.837 73 378.5 73H392" stroke="black" stroke-width="2" stroke-linecap="round" stroke-linejoin="round"/>
<path id="Vector_44" d="M389 68C390.105 68 391 67.1046 391 66C391 64.8954 390.105 64 389 64C387.895 64 387 64.8954 387 66C387 67.1046 387.895 68 389 68Z" stroke="black" stroke-width="2" stroke-linecap="round" stroke-linejoin="round"/>
</g></svg>
