<svg viewBox="0 0 24 24" fill="none" xmlns="http://www.w3.org/2000/svg"><g transform="translate(-116 -88)">
<path id="Vector_52" d="M126 90V98L129 95L132 98V90" stroke="black" stroke-width="2" stroke-linecap="round" stroke-linejoin="round"/>
<path id="Vector_53" d="M120 107.5V92.5C120 91.837 120.263 91.2011 120.732 90.7322C121.201 90.2634 121.837 90 122.5 90H135C135.265 90 135.52 90.1054 135.707 90.2929C135.895 90.4804 136 90.7348 136 91V109C136 109.265 135.895 109.52 135.707 109.707C135.52 109.895 135.265 110 135 110H122.5C121.837 110 121.201 109.737 120.732 109.268C120.263 108.799 120 108.163 120 107.5ZM120 107.5C120 106.837 120.263 106.201 120.732 105.732C121.201 105.263 121.837 105 122.5 105H136" stroke="black" stroke-width="2" stroke-linecap="round" stroke-linejoin="round"/>
</g></svg>
