<svg viewBox="0 0 24 24" fill="none" xmlns="http://www.w3.org/2000/svg"><g transform="translate(-116 -56)">
<path id="Vector_10" d="M120 65V61C120 60.4696 120.211 59.9609 120.586 59.5858C120.961 59.2107 121.47 59 122 59H134C134.53 59 135.039 59.2107 135.414 59.5858C135.789 59.9609 136 60.4696 136 61V65" stroke="black" stroke-width="2" stroke-linecap="round" stroke-linejoin="round"/>
<path id="Vector_11" d="M124 64V65" stroke="black" stroke-width="2" stroke-linecap="round" stroke-linejoin="round"/>
<path id="Vector_12" d="M128 64V65" stroke="black" stroke-width="2" stroke-linecap="round" stroke-linejoin="round"/>
<path id="Vector_13" d="M132 64V65" stroke="black" stroke-width="2" stroke-linecap="round" stroke-linejoin="round"/>
<path id="Vector_14" d="M136 65H120C118.895 65 118 65.8954 118 67V75C118 76.1046 118.895 77 120 77H136C137.105 77 138 76.1046 138 75V67C138 65.8954 137.105 65 136 65Z" stroke="black" stroke-width="2" stroke-linecap="round" stroke-linejoin="round"/>
<path id="Vector_15" d="M124 73C125.105 73 126 72.1046 126 71C126 69.8954 125.105 69 124 69C122.895 69 122 69.8954 122 71C122 72.1046 122.895 73 124 73Z" stroke="black" stroke-width="2" stroke-linecap="round" stroke-linejoin="round"/>
<path id="Vector_16" d="M132 73C133.105 73 134 72.1046 134 71C134 69.8954 133.105 69 132 69C130.895 69 130 69.8954 130 71C130 72.1046 130.895 73 132 73Z" stroke="black" stroke-width="2" stroke-linecap="round" stroke-linejoin="round"/>
</g></svg>
