<svg viewBox="0 0 24 24" fill="none" xmlns="http://www.w3.org/2000/svg"><g transform="translate(-148 -56)">
<path id="Vector_22" d="M161.67 64H166C166.53 64 167.039 64.2107 167.414 64.5858C167.789 64.9609 168 65.4696 168 66V70.33" stroke="black" stroke-width="2" stroke-linecap="round" stroke-linejoin="round"/>
<path id="Vector_23" d="M150 70H152" stroke="black" stroke-width="2" stroke-linecap="round" stroke-linejoin="round"/>
<path id="Vector_24" d="M168 70H170" stroke="black" stroke-width="2" stroke-linecap="round" stroke-linejoin="round"/>
<path id="Vector_25" d="M170 78L150 58" stroke="black" stroke-width="2" stroke-linecap="round" stroke-linejoin="round"/>
<path id="Vector_26" d="M156 64H154C153.47 64 152.961 64.2107 152.586 64.5858C152.211 64.9609 152 65.4696 152 66V74C152 74.5304 152.211 75.0391 152.586 75.4142C152.961 75.7893 153.47 76 154 76H166C166.53 75.9999 167.039 75.7891 167.414 75.414" stroke="black" stroke-width="2" stroke-linecap="round" stroke-linejoin="round"/>
<path id="Vector_27" d="M157 69V71" stroke="black" stroke-width="2" stroke-linecap="round" stroke-linejoin="round"/>
<path id="Vector_28" d="M157.67 60H160V62.33" stroke="black" stroke-width="2" stroke-linecap="round" stroke-linejoin="round"/>
</g></svg>
