<svg viewBox="0 0 24 24" fill="none" xmlns="http://www.w3.org/2000/svg"><g transform="translate(-116 -56)">
<path id="Vector_16" d="M128 62V58H124" stroke="black" stroke-width="2" stroke-linecap="round" stroke-linejoin="round"/>
<path id="Vector_17" d="M131 67V69" stroke="black" stroke-width="2" stroke-linecap="round" stroke-linejoin="round"/>
<path id="Vector_18" d="M118 68H120" stroke="black" stroke-width="2" stroke-linecap="round" stroke-linejoin="round"/>
<path id="Vector_19" d="M136 68H138" stroke="black" stroke-width="2" stroke-linecap="round" stroke-linejoin="round"/>
<path id="Vector_20" d="M136 72C136 72.5304 135.789 73.0391 135.414 73.4142C135.039 73.7893 134.53 74 134 74H124.828C124.298 74.0001 123.789 74.2109 123.414 74.586L121.212 76.788C121.113 76.8873 120.986 76.9549 120.848 76.9823C120.711 77.0097 120.568 76.9956 120.438 76.9419C120.309 76.8881 120.198 76.7971 120.12 76.6804C120.042 76.5637 120 76.4264 120 76.286V64C120 63.4696 120.211 62.9609 120.586 62.5858C120.961 62.2107 121.47 62 122 62H134C134.53 62 135.039 62.2107 135.414 62.5858C135.789 62.9609 136 63.4696 136 64V72Z" stroke="black" stroke-width="2" stroke-linecap="round" stroke-linejoin="round"/>
<path id="Vector_21" d="M125 67V69" stroke="black" stroke-width="2" stroke-linecap="round" stroke-linejoin="round"/>
</g></svg>
