<svg viewBox="0 0 24 24" fill="none" xmlns="http://www.w3.org/2000/svg"><g transform="translate(-276 -56)">
<path id="Vector_33" d="M286 59C286 58.7348 286.105 58.4804 286.293 58.2929C286.48 58.1054 286.735 58 287 58H289C289.265 58 289.52 58.1054 289.707 58.2929C289.895 58.4804 290 58.7348 290 59V61C290 62.2982 290.421 63.5614 291.2 64.6L291.8 65.4C292.579 66.4386 293 67.7018 293 69V77C293 77.2652 292.895 77.5196 292.707 77.7071C292.52 77.8946 292.265 78 292 78H284C283.735 78 283.48 77.8946 283.293 77.7071C283.105 77.5196 283 77.2652 283 77V69C283 67.7018 283.421 66.4386 284.2 65.4L284.8 64.6C285.579 63.5614 286 62.2982 286 61V59Z" stroke="black" stroke-width="2" stroke-linecap="round" stroke-linejoin="round"/>
<path id="Vector_34" d="M293 69H289C288.735 69 288.48 69.1054 288.293 69.2929C288.105 69.4804 288 69.7348 288 70V73C288 73.2652 288.105 73.5196 288.293 73.7071C288.48 73.8946 288.735 74 289 74H293" stroke="black" stroke-width="2" stroke-linecap="round" stroke-linejoin="round"/>
</g></svg>
