<svg viewBox="0 0 24 24" fill="none" xmlns="http://www.w3.org/2000/svg"><g transform="translate(-148 -56)">
<path id="Vector_15" d="M165 59H169V63" stroke="black" stroke-width="2" stroke-linecap="round" stroke-linejoin="round"/>
<path id="Vector_16" d="M166.575 67.082C167.999 69.8669 168.371 73.0719 167.623 76.109C167.575 76.305 167.477 76.4853 167.339 76.6324C167.201 76.7795 167.027 76.8884 166.835 76.9485C166.642 77.0086 166.437 77.0178 166.24 76.9753C166.043 76.9328 165.86 76.84 165.709 76.706L162 73" stroke="black" stroke-width="2" stroke-linecap="round" stroke-linejoin="round"/>
<path id="Vector_17" d="M155 66L151.29 62.29C151.157 62.139 151.065 61.9561 151.023 61.7592C150.982 61.5623 150.991 61.3579 151.052 61.1659C151.112 60.9738 151.221 60.8006 151.368 60.6629C151.515 60.5253 151.695 60.4278 151.89 60.38C154.928 59.6319 158.135 60.0047 160.92 61.43" stroke="black" stroke-width="2" stroke-linecap="round" stroke-linejoin="round"/>
<path id="Vector_18" d="M155 70C154.776 69.9996 154.554 70.0436 154.346 70.1294C154.139 70.2152 153.951 70.3412 153.793 70.5L151.147 73.146C151.077 73.2159 151.029 73.305 151.01 73.402C150.99 73.499 151 73.5996 151.038 73.691C151.076 73.7824 151.14 73.8606 151.222 73.9156C151.304 73.9706 151.401 74 151.5 74H153C153.265 74 153.519 74.1054 153.707 74.2929C153.895 74.4804 154 74.7348 154 75V76.5C154 76.599 154.029 76.6959 154.084 76.7783C154.139 76.8606 154.217 76.9249 154.308 76.9628C154.4 77.0007 154.501 77.0106 154.598 76.9912C154.695 76.9719 154.784 76.9241 154.854 76.854L157.5 74.207C157.659 74.0487 157.785 73.8606 157.87 73.6535C157.956 73.4463 158 73.2242 158 73V71C158 70.7348 157.895 70.4804 157.707 70.2929C157.519 70.1054 157.265 70 157 70H155Z" stroke="black" stroke-width="2" stroke-linecap="round" stroke-linejoin="round"/>
<path id="Vector_19" d="M157.707 70.293L169 59" stroke="black" stroke-width="2" stroke-linecap="round" stroke-linejoin="round"/>
</g></svg>
