<svg viewBox="0 0 24 24" fill="none" xmlns="http://www.w3.org/2000/svg"><g transform="translate(-52 -56)">
<path id="Vector_6" d="M73 64C72.9996 63.6493 72.9071 63.3048 72.7315 63.0012C72.556 62.6975 72.3037 62.4454 72 62.27L65 58.27C64.696 58.0945 64.3511 58.0021 64 58.0021C63.6489 58.0021 63.304 58.0945 63 58.27L56 62.27C55.6963 62.4454 55.444 62.6975 55.2685 63.0012C55.0929 63.3048 55.0004 63.6493 55 64V72C55.0004 72.3508 55.0929 72.6952 55.2685 72.9989C55.444 73.3025 55.6963 73.5547 56 73.73L63 77.73C63.304 77.9056 63.6489 77.998 64 77.998C64.3511 77.998 64.696 77.9056 65 77.73L72 73.73C72.3037 73.5547 72.556 73.3025 72.7315 72.9989C72.9071 72.6952 72.9996 72.3508 73 72V64Z" stroke="black" stroke-width="2" stroke-linecap="round" stroke-linejoin="round"/>
<path id="Vector_7" d="M55.2998 63L63.9998 68L72.6998 63" stroke="black" stroke-width="2" stroke-linecap="round" stroke-linejoin="round"/>
<path id="Vector_8" d="M64 78V68" stroke="black" stroke-width="2" stroke-linecap="round" stroke-linejoin="round"/>
</g></svg>
