<svg viewBox="0 0 24 24" fill="none" xmlns="http://www.w3.org/2000/svg"><g transform="translate(-84 -56)">
<path id="Vector_9" d="M86.97 68.92C86.6748 69.0974 86.4303 69.348 86.2604 69.6476C86.0904 69.9472 86.0008 70.2856 86 70.63V73.87C86.0008 74.2144 86.0904 74.5528 86.2604 74.8524C86.4303 75.152 86.6748 75.4026 86.97 75.58L89.97 77.38C90.2811 77.5669 90.6371 77.6656 91 77.6656C91.3629 77.6656 91.7189 77.5669 92.03 77.38L96 75V69.5L91 66.5L86.97 68.92Z" stroke="black" stroke-width="2" stroke-linecap="round" stroke-linejoin="round"/>
<path id="Vector_10" d="M90.9998 72.5L86.2598 69.65" stroke="black" stroke-width="2" stroke-linecap="round" stroke-linejoin="round"/>
<path id="Vector_11" d="M91 72.5L96 69.5" stroke="black" stroke-width="2" stroke-linecap="round" stroke-linejoin="round"/>
<path id="Vector_12" d="M91 72.5V77.67" stroke="black" stroke-width="2" stroke-linecap="round" stroke-linejoin="round"/>
<path id="Vector_13" d="M96 69.5V75L99.97 77.38C100.281 77.5669 100.637 77.6656 101 77.6656C101.363 77.6656 101.719 77.5669 102.03 77.38L105.03 75.58C105.325 75.4026 105.57 75.152 105.74 74.8524C105.91 74.5528 105.999 74.2144 106 73.87V70.63C105.999 70.2856 105.91 69.9472 105.74 69.6476C105.57 69.348 105.325 69.0974 105.03 68.92L101 66.5L96 69.5Z" stroke="black" stroke-width="2" stroke-linecap="round" stroke-linejoin="round"/>
<path id="Vector_14" d="M101 72.5L96 69.5" stroke="black" stroke-width="2" stroke-linecap="round" stroke-linejoin="round"/>
<path id="Vector_15" d="M101 72.5L105.74 69.65" stroke="black" stroke-width="2" stroke-linecap="round" stroke-linejoin="round"/>
<path id="Vector_16" d="M101 72.5V77.67" stroke="black" stroke-width="2" stroke-linecap="round" stroke-linejoin="round"/>
<path id="Vector_17" d="M91.97 60.42C91.6748 60.5974 91.4303 60.848 91.2604 61.1476C91.0904 61.4471 91.0008 61.7855 91 62.13V66.5L96 69.5L101 66.5V62.13C100.999 61.7855 100.91 61.4471 100.74 61.1476C100.57 60.848 100.325 60.5974 100.03 60.42L97.03 58.62C96.7189 58.4331 96.3629 58.3344 96 58.3344C95.6371 58.3344 95.2811 58.4331 94.97 58.62L91.97 60.42Z" stroke="black" stroke-width="2" stroke-linecap="round" stroke-linejoin="round"/>
<path id="Vector_18" d="M95.9998 64L91.2598 61.15" stroke="black" stroke-width="2" stroke-linecap="round" stroke-linejoin="round"/>
<path id="Vector_19" d="M96 64L100.74 61.15" stroke="black" stroke-width="2" stroke-linecap="round" stroke-linejoin="round"/>
<path id="Vector_20" d="M96 69.5V64" stroke="black" stroke-width="2" stroke-linecap="round" stroke-linejoin="round"/>
</g></svg>
