<svg viewBox="0 0 24 24" fill="none" xmlns="http://www.w3.org/2000/svg"><g transform="translate(-180 -56)">
<path id="Vector_29" d="M188 59H187C186.47 59 185.961 59.2107 185.586 59.5858C185.211 59.9609 185 60.4696 185 61V66C185 66.5304 184.789 67.0391 184.414 67.4142C184.039 67.7893 183.53 68 183 68C183.53 68 184.039 68.2107 184.414 68.5858C184.789 68.9609 185 69.4696 185 70V75C185 76.1 185.9 77 187 77H188" stroke="black" stroke-width="2" stroke-linecap="round" stroke-linejoin="round"/>
<path id="Vector_30" d="M196 77H197C197.53 77 198.039 76.7893 198.414 76.4142C198.789 76.0391 199 75.5304 199 75V70C199 68.9 199.9 68 201 68C200.47 68 199.961 67.7893 199.586 67.4142C199.211 67.0391 199 66.5304 199 66V61C199 60.4696 198.789 59.9609 198.414 59.5858C198.039 59.2107 197.53 59 197 59H196" stroke="black" stroke-width="2" stroke-linecap="round" stroke-linejoin="round"/>
</g></svg>
