<svg viewBox="0 0 24 24" fill="none" xmlns="http://www.w3.org/2000/svg"><g transform="translate(-212 -56)">
<path id="Vector_31" d="M228 59H231C231.265 59 231.52 59.1054 231.707 59.2929C231.895 59.4804 232 59.7348 232 60V76C232 76.2652 231.895 76.5196 231.707 76.7071C231.52 76.8946 231.265 77 231 77H228" stroke="black" stroke-width="2" stroke-linecap="round" stroke-linejoin="round"/>
<path id="Vector_32" d="M220 77H217C216.735 77 216.48 76.8946 216.293 76.7071C216.105 76.5196 216 76.2652 216 76V60C216 59.7348 216.105 59.4804 216.293 59.2929C216.48 59.1054 216.735 59 217 59H220" stroke="black" stroke-width="2" stroke-linecap="round" stroke-linejoin="round"/>
</g></svg>
