<svg viewBox="0 0 24 24" fill="none" xmlns="http://www.w3.org/2000/svg"><g transform="translate(-276 -56)">
<path id="Vector_41" d="M288 61.0001C288.001 60.6001 287.922 60.2039 287.768 59.8348C287.614 59.4658 287.387 59.1313 287.102 58.851C286.817 58.5707 286.478 58.3503 286.106 58.2028C285.735 58.0552 285.337 57.9835 284.937 57.9919C284.537 58.0002 284.143 58.0884 283.778 58.2513C283.413 58.4142 283.084 58.6485 282.81 58.9405C282.537 59.2324 282.325 59.576 282.186 59.9512C282.047 60.3264 281.985 60.7255 282.003 61.1251C281.415 61.2762 280.869 61.5591 280.407 61.9524C279.945 62.3456 279.578 62.8389 279.335 63.3949C279.091 63.9509 278.978 64.5549 279.002 65.1614C279.027 65.7678 279.189 66.3606 279.477 66.8951C278.971 67.306 278.573 67.8343 278.318 68.434C278.063 69.0337 277.958 69.6866 278.013 70.336C278.068 70.9854 278.281 71.6116 278.633 72.1601C278.985 72.7085 279.465 73.1627 280.033 73.4831C279.963 74.0253 280.005 74.5761 280.156 75.1016C280.307 75.627 280.564 76.1159 280.912 76.538C281.259 76.9601 281.689 77.3065 282.176 77.5558C282.663 77.8051 283.195 77.952 283.741 77.9874C284.286 78.0228 284.833 77.946 285.348 77.7617C285.863 77.5774 286.334 77.2895 286.734 76.9158C287.133 76.5421 287.451 76.0906 287.669 75.5891C287.887 75.0876 287.999 74.5468 288 74V61.0001Z" stroke="black" stroke-width="2" stroke-linecap="round" stroke-linejoin="round"/>
<path id="Vector_42" d="M285 69C285.84 68.7047 286.573 68.167 287.107 67.455C287.641 66.743 287.952 65.8887 288 65" stroke="black" stroke-width="2" stroke-linecap="round" stroke-linejoin="round"/>
<path id="Vector_43" d="M282.003 61.125C282.023 61.6087 282.159 62.0805 282.401 62.5" stroke="black" stroke-width="2" stroke-linecap="round" stroke-linejoin="round"/>
<path id="Vector_44" d="M279.477 66.896C279.66 66.747 279.855 66.6145 280.062 66.5" stroke="black" stroke-width="2" stroke-linecap="round" stroke-linejoin="round"/>
<path id="Vector_45" d="M282 74C281.311 74.0003 280.633 73.8226 280.033 73.484" stroke="black" stroke-width="2" stroke-linecap="round" stroke-linejoin="round"/>
<path id="Vector_46" d="M288 69H292" stroke="black" stroke-width="2" stroke-linecap="round" stroke-linejoin="round"/>
<path id="Vector_47" d="M288 74H294C294.53 74 295.039 74.2107 295.414 74.5858C295.789 74.9609 296 75.4696 296 76V77" stroke="black" stroke-width="2" stroke-linecap="round" stroke-linejoin="round"/>
<path id="Vector_48" d="M288 64H296" stroke="black" stroke-width="2" stroke-linecap="round" stroke-linejoin="round"/>
<path id="Vector_49" d="M292 64V61C292 60.4696 292.211 59.9609 292.586 59.5858C292.961 59.2107 293.47 59 294 59" stroke="black" stroke-width="2" stroke-linecap="round" stroke-linejoin="round"/>
<path id="Vector_50" d="M292 69.5C292.276 69.5 292.5 69.2761 292.5 69C292.5 68.7239 292.276 68.5 292 68.5C291.724 68.5 291.5 68.7239 291.5 69C291.5 69.2761 291.724 69.5 292 69.5Z" stroke="black" stroke-width="2" stroke-linecap="round" stroke-linejoin="round"/>
<path id="Vector_51" d="M294 59.5C294.276 59.5 294.5 59.2761 294.5 59C294.5 58.7239 294.276 58.5 294 58.5C293.724 58.5 293.5 58.7239 293.5 59C293.5 59.2761 293.724 59.5 294 59.5Z" stroke="black" stroke-width="2" stroke-linecap="round" stroke-linejoin="round"/>
<path id="Vector_52" d="M296 77.5C296.276 77.5 296.5 77.2761 296.5 77C296.5 76.7239 296.276 76.5 296 76.5C295.724 76.5 295.5 76.7239 295.5 77C295.5 77.2761 295.724 77.5 296 77.5Z" stroke="black" stroke-width="2" stroke-linecap="round" stroke-linejoin="round"/>
<path id="Vector_53" d="M296 64.5C296.276 64.5 296.5 64.2761 296.5 64C296.5 63.7239 296.276 63.5 296 63.5C295.724 63.5 295.5 63.7239 295.5 64C295.5 64.2761 295.724 64.5 296 64.5Z" stroke="black" stroke-width="2" stroke-linecap="round" stroke-linejoin="round"/>
</g></svg>
