<svg viewBox="0 0 24 24" fill="none" xmlns="http://www.w3.org/2000/svg"><g transform="translate(-308 -56)">
<path id="Vector_54" d="M318.852 70.772L318.469 71.695" stroke="black" stroke-width="2" stroke-linecap="round" stroke-linejoin="round"/>
<path id="Vector_55" d="M318.852 65.2281L318.469 64.3051" stroke="black" stroke-width="2" stroke-linecap="round" stroke-linejoin="round"/>
<path id="Vector_56" d="M321.148 70.772L321.53 71.696" stroke="black" stroke-width="2" stroke-linecap="round" stroke-linejoin="round"/>
<path id="Vector_57" d="M321.531 64.3051L321.148 65.2281" stroke="black" stroke-width="2" stroke-linecap="round" stroke-linejoin="round"/>
<path id="Vector_58" d="M322.772 66.852L323.695 66.469" stroke="black" stroke-width="2" stroke-linecap="round" stroke-linejoin="round"/>
<path id="Vector_59" d="M322.772 69.1479L323.695 69.5309" stroke="black" stroke-width="2" stroke-linecap="round" stroke-linejoin="round"/>
<path id="Vector_60" d="M325.598 62.5C325.828 62.1015 325.963 61.6554 325.993 61.1962C326.023 60.737 325.947 60.2771 325.771 59.8519C325.595 59.4268 325.324 59.0478 324.978 58.7444C324.632 58.441 324.221 58.2212 323.776 58.1021C323.332 57.983 322.866 57.9678 322.414 58.0575C321.963 58.1473 321.538 58.3397 321.173 58.6199C320.808 58.9 320.512 59.2604 320.309 59.6731C320.105 60.0858 320 60.5398 320 61C320 60.3338 319.779 59.6864 319.371 59.1598C318.963 58.6331 318.391 58.2574 317.746 58.0916C317.101 57.9259 316.419 57.9797 315.807 58.2445C315.196 58.5092 314.69 58.97 314.37 59.554C314.106 60.0343 313.978 60.5776 314.002 61.125C313.414 61.2762 312.868 61.5593 312.406 61.9526C311.943 62.346 311.577 62.8394 311.333 63.3955C311.09 63.9516 310.977 64.5558 311.001 65.1623C311.026 65.7688 311.189 66.3616 311.477 66.896" stroke="black" stroke-width="2" stroke-linecap="round" stroke-linejoin="round"/>
<path id="Vector_61" d="M325.998 61.125C326.586 61.2762 327.132 61.5592 327.594 61.9526C328.056 62.346 328.423 62.8394 328.666 63.3955C328.909 63.9516 329.023 64.5558 328.998 65.1623C328.973 65.7687 328.811 66.3616 328.523 66.896" stroke="black" stroke-width="2" stroke-linecap="round" stroke-linejoin="round"/>
<path id="Vector_62" d="M327.505 66.2939C328.364 66.6429 329.075 67.2795 329.517 68.095C329.959 68.9104 330.103 69.854 329.926 70.7642C329.749 71.6745 329.261 72.4949 328.546 73.0851C327.83 73.6754 326.932 73.9987 326.005 73.9999" stroke="black" stroke-width="2" stroke-linecap="round" stroke-linejoin="round"/>
<path id="Vector_63" d="M312.032 73.483C311.912 74.4008 312.113 75.3318 312.602 76.1175C313.092 76.9033 313.838 77.495 314.715 77.7919C315.592 78.0888 316.544 78.0725 317.41 77.7458C318.276 77.419 319.002 76.802 319.464 76C319.644 75.689 320.356 75.689 320.536 76C320.998 76.8019 321.724 77.4187 322.59 77.7454C323.456 78.0721 324.408 78.0885 325.284 77.7918C326.161 77.495 326.908 76.9035 327.397 76.118C327.886 75.3325 328.088 74.4017 327.968 73.484" stroke="black" stroke-width="2" stroke-linecap="round" stroke-linejoin="round"/>
<path id="Vector_64" d="M312.5 66.291C311.639 66.6387 310.926 67.2753 310.483 68.0914C310.04 68.9075 309.894 69.8524 310.072 70.764C310.249 71.6756 310.738 72.497 311.455 73.0875C312.172 73.6779 313.072 74.0005 314 74" stroke="black" stroke-width="2" stroke-linecap="round" stroke-linejoin="round"/>
<path id="Vector_65" d="M314.002 61.125C314.022 61.6089 314.16 62.0807 314.402 62.5" stroke="black" stroke-width="2" stroke-linecap="round" stroke-linejoin="round"/>
<path id="Vector_66" d="M317.228 66.852L316.305 66.469" stroke="black" stroke-width="2" stroke-linecap="round" stroke-linejoin="round"/>
<path id="Vector_67" d="M317.228 69.1479L316.305 69.5309" stroke="black" stroke-width="2" stroke-linecap="round" stroke-linejoin="round"/>
<path id="Vector_68" d="M320 71C321.657 71 323 69.6569 323 68C323 66.3431 321.657 65 320 65C318.343 65 317 66.3431 317 68C317 69.6569 318.343 71 320 71Z" stroke="black" stroke-width="2" stroke-linecap="round" stroke-linejoin="round"/>
</g></svg>
