<svg viewBox="0 0 24 24" fill="none" xmlns="http://www.w3.org/2000/svg"><g transform="translate(-244 -56)">
<path id="Vector_33" d="M256 74V61" stroke="black" stroke-width="2" stroke-linecap="round" stroke-linejoin="round"/>
<path id="Vector_34" d="M259 69C258.135 68.7471 257.375 68.2206 256.834 67.4995C256.293 66.7784 256.001 65.9014 256 65C255.999 65.9014 255.707 66.7784 255.166 67.4995C254.625 68.2206 253.865 68.7471 253 69" stroke="black" stroke-width="2" stroke-linecap="round" stroke-linejoin="round"/>
<path id="Vector_35" d="M261.598 62.5C261.828 62.1015 261.963 61.6554 261.994 61.1962C262.024 60.737 261.948 60.2771 261.772 59.8519C261.596 59.4268 261.324 59.0478 260.978 58.7444C260.632 58.441 260.221 58.2212 259.776 58.1021C259.332 57.983 258.866 57.9677 258.415 58.0575C257.963 58.1473 257.539 58.3397 257.174 58.6199C256.809 58.9 256.513 59.2604 256.309 59.6731C256.106 60.0858 256 60.5398 256 61C256 60.5398 255.894 60.0858 255.691 59.6731C255.487 59.2604 255.191 58.9 254.826 58.6199C254.461 58.3397 254.037 58.1473 253.585 58.0575C253.134 57.9677 252.668 57.983 252.224 58.1021C251.779 58.2212 251.368 58.441 251.022 58.7444C250.676 59.0478 250.404 59.4268 250.228 59.8519C250.052 60.2771 249.976 60.737 250.006 61.1962C250.037 61.6554 250.172 62.1015 250.402 62.5" stroke="black" stroke-width="2" stroke-linecap="round" stroke-linejoin="round"/>
<path id="Vector_36" d="M261.997 61.125C262.585 61.2761 263.131 61.559 263.593 61.9523C264.055 62.3456 264.422 62.8389 264.665 63.3948C264.909 63.9508 265.022 64.5549 264.998 65.1613C264.973 65.7677 264.811 66.3606 264.523 66.895" stroke="black" stroke-width="2" stroke-linecap="round" stroke-linejoin="round"/>
<path id="Vector_37" d="M262 74C262.881 74 263.736 73.7094 264.435 73.1734C265.133 72.6373 265.636 71.8858 265.864 71.0353C266.091 70.1848 266.032 69.2829 265.695 68.4694C265.358 67.6559 264.763 66.9763 264 66.536" stroke="black" stroke-width="2" stroke-linecap="round" stroke-linejoin="round"/>
<path id="Vector_38" d="M263.967 73.483C264.037 74.0253 263.995 74.5761 263.844 75.1016C263.693 75.627 263.436 76.1159 263.088 76.538C262.741 76.9601 262.31 77.3065 261.824 77.5558C261.337 77.8051 260.805 77.952 260.259 77.9874C259.713 78.0228 259.166 77.946 258.652 77.7616C258.137 77.5773 257.665 77.2895 257.266 76.9158C256.867 76.5421 256.549 76.0906 256.331 75.5891C256.113 75.0876 256.001 74.5468 256 74C255.999 74.5468 255.887 75.0876 255.669 75.5891C255.451 76.0906 255.133 76.5421 254.734 76.9158C254.335 77.2895 253.863 77.5773 253.348 77.7616C252.834 77.946 252.287 78.0228 251.741 77.9874C251.195 77.952 250.663 77.8051 250.176 77.5558C249.69 77.3065 249.259 76.9601 248.912 76.538C248.564 76.1159 248.307 75.627 248.156 75.1016C248.005 74.5761 247.963 74.0253 248.033 73.483" stroke="black" stroke-width="2" stroke-linecap="round" stroke-linejoin="round"/>
<path id="Vector_39" d="M250 74C249.119 74 248.263 73.7094 247.565 73.1734C246.866 72.6373 246.364 71.8858 246.136 71.0353C245.908 70.1848 245.968 69.2829 246.304 68.4694C246.641 67.6559 247.237 66.9763 248 66.536" stroke="black" stroke-width="2" stroke-linecap="round" stroke-linejoin="round"/>
<path id="Vector_40" d="M250.003 61.125C249.415 61.2761 248.869 61.559 248.407 61.9523C247.945 62.3456 247.578 62.8389 247.335 63.3948C247.091 63.9508 246.978 64.5549 247.002 65.1613C247.027 65.7677 247.189 66.3606 247.477 66.895" stroke="black" stroke-width="2" stroke-linecap="round" stroke-linejoin="round"/>
</g></svg>
