<svg viewBox="0 0 24 24" fill="none" xmlns="http://www.w3.org/2000/svg"><g transform="translate(-212 -56)">
<path id="Vector_34" d="M224 65V66.258" stroke="black" stroke-width="2" stroke-linecap="round" stroke-linejoin="round"/>
<path id="Vector_35" d="M228 59V64.46" stroke="black" stroke-width="2" stroke-linecap="round" stroke-linejoin="round"/>
<path id="Vector_36" d="M233 65.118V61C233 60.4696 232.789 59.9609 232.414 59.5858C232.039 59.2107 231.53 59 231 59H217C216.47 59 215.961 59.2107 215.586 59.5858C215.211 59.9609 215 60.4696 215 61V75C215 75.5304 215.211 76.0391 215.586 76.4142C215.961 76.7893 216.47 77 217 77H222.75" stroke="black" stroke-width="2" stroke-linecap="round" stroke-linejoin="round"/>
<path id="Vector_37" d="M234 73.5001C234 75.9991 232.25 77.2491 230.17 77.9741C230.061 78.011 229.943 78.0092 229.835 77.9691C227.75 77.2491 226 75.9991 226 73.4991V70.0001C226 69.8676 226.053 69.7407 226.147 69.6471C226.241 69.5536 226.368 69.5011 226.5 69.5011C227.5 69.5011 228.75 68.9011 229.62 68.1411C229.727 68.0532 229.861 68.0051 230 68.0049C230.138 68.0047 230.273 68.0525 230.38 68.1401C231.255 68.9051 232.5 69.5001 233.5 69.5001C233.633 69.5001 233.76 69.5527 233.854 69.6465C233.947 69.7403 234 69.8674 234 70.0001V73.5001Z" stroke="black" stroke-width="2" stroke-linecap="round" stroke-linejoin="round"/>
<path id="Vector_38" d="M215 71H222" stroke="black" stroke-width="2" stroke-linecap="round" stroke-linejoin="round"/>
<path id="Vector_39" d="M215 65H227.142" stroke="black" stroke-width="2" stroke-linecap="round" stroke-linejoin="round"/>
<path id="Vector_40" d="M220 71V77" stroke="black" stroke-width="2" stroke-linecap="round" stroke-linejoin="round"/>
<path id="Vector_41" d="M220 59V65" stroke="black" stroke-width="2" stroke-linecap="round" stroke-linejoin="round"/>
</g></svg>
