<svg viewBox="0 0 24 24" fill="none" xmlns="http://www.w3.org/2000/svg"><g transform="translate(-180 -56)">
<path id="Vector_27" d="M196 59V61.107" stroke="black" stroke-width="2" stroke-linecap="round" stroke-linejoin="round"/>
<path id="Vector_28" d="M197 65C198 68 199.5 68.5 200.5 69.5C201.442 70.4232 201.981 71.6812 202 73C202 74.3261 201.473 75.5979 200.536 76.5355C199.598 77.4732 198.326 78 197 78C195.674 78 194.402 77.4732 193.464 76.5355C192.527 75.5979 192 74.3261 192 73C192 72.7 192 72.4 192.1 72.1C192.185 72.3957 192.336 72.668 192.543 72.8956C192.75 73.1232 193.006 73.3001 193.293 73.4124C193.579 73.5247 193.887 73.5695 194.194 73.5432C194.5 73.5169 194.797 73.4203 195.06 73.2609C195.323 73.1015 195.545 72.8835 195.71 72.624C195.876 72.3645 195.979 72.0704 196.012 71.7646C196.044 71.4588 196.006 71.1495 195.9 70.8608C195.794 70.5721 195.623 70.3118 195.4 70.1C193 67.5 196 65 197 65Z" stroke="black" stroke-width="2" stroke-linecap="round" stroke-linejoin="round"/>
<path id="Vector_29" d="M201 64.274V61C201 60.4696 200.789 59.9609 200.414 59.5858C200.039 59.2107 199.53 59 199 59H185C184.47 59 183.961 59.2107 183.586 59.5858C183.211 59.9609 183 60.4696 183 61V75C183 75.5304 183.211 76.0391 183.586 76.4142C183.961 76.7893 184.47 77 185 77H188.938" stroke="black" stroke-width="2" stroke-linecap="round" stroke-linejoin="round"/>
<path id="Vector_30" d="M183 71H188.253" stroke="black" stroke-width="2" stroke-linecap="round" stroke-linejoin="round"/>
<path id="Vector_31" d="M183 65H191.228" stroke="black" stroke-width="2" stroke-linecap="round" stroke-linejoin="round"/>
<path id="Vector_32" d="M188 71V77" stroke="black" stroke-width="2" stroke-linecap="round" stroke-linejoin="round"/>
<path id="Vector_33" d="M188 59V65" stroke="black" stroke-width="2" stroke-linecap="round" stroke-linejoin="round"/>
</g></svg>
