<svg viewBox="0 0 24 24" fill="none" xmlns="http://www.w3.org/2000/svg"><g transform="translate(-180 -56)">
<path id="Vector_27" d="M190 76V78" stroke="black" stroke-width="2" stroke-linecap="round" stroke-linejoin="round"/>
<path id="Vector_28" d="M194 76V78" stroke="black" stroke-width="2" stroke-linecap="round" stroke-linejoin="round"/>
<path id="Vector_29" d="M198 76V78" stroke="black" stroke-width="2" stroke-linecap="round" stroke-linejoin="round"/>
<path id="Vector_30" d="M201 76H183" stroke="black" stroke-width="2" stroke-linecap="round" stroke-linejoin="round"/>
<path id="Vector_31" d="M186 76V78" stroke="black" stroke-width="2" stroke-linecap="round" stroke-linejoin="round"/>
<path id="Vector_32" d="M188 72V60C188 59.4696 188.211 58.9609 188.586 58.5858C188.961 58.2107 189.47 58 190 58H194C194.53 58 195.039 58.2107 195.414 58.5858C195.789 58.9609 196 59.4696 196 60V72" stroke="black" stroke-width="2" stroke-linecap="round" stroke-linejoin="round"/>
<path id="Vector_33" d="M198 62H186C184.895 62 184 62.8954 184 64V70C184 71.1046 184.895 72 186 72H198C199.105 72 200 71.1046 200 70V64C200 62.8954 199.105 62 198 62Z" stroke="black" stroke-width="2" stroke-linecap="round" stroke-linejoin="round"/>
</g></svg>
