<svg viewBox="0 0 24 24" fill="none" xmlns="http://www.w3.org/2000/svg"><g transform="translate(-212 -56)">
<path id="Vector_35" d="M224 67V71" stroke="black" stroke-width="2" stroke-linecap="round" stroke-linejoin="round"/>
<path id="Vector_36" d="M226 69H222" stroke="black" stroke-width="2" stroke-linecap="round" stroke-linejoin="round"/>
<path id="Vector_37" d="M228 62V60C228 59.4696 227.789 58.9609 227.414 58.5858C227.039 58.2107 226.53 58 226 58H222C221.47 58 220.961 58.2107 220.586 58.5858C220.211 58.9609 220 59.4696 220 60V62" stroke="black" stroke-width="2" stroke-linecap="round" stroke-linejoin="round"/>
<path id="Vector_38" d="M230 62V76" stroke="black" stroke-width="2" stroke-linecap="round" stroke-linejoin="round"/>
<path id="Vector_39" d="M218 62V76" stroke="black" stroke-width="2" stroke-linecap="round" stroke-linejoin="round"/>
<path id="Vector_40" d="M232 62H216C214.895 62 214 62.8954 214 64V74C214 75.1046 214.895 76 216 76H232C233.105 76 234 75.1046 234 74V64C234 62.8954 233.105 62 232 62Z" stroke="black" stroke-width="2" stroke-linecap="round" stroke-linejoin="round"/>
</g></svg>
