<svg viewBox="0 0 24 24" fill="none" xmlns="http://www.w3.org/2000/svg"><g transform="translate(-148 -56)">
<path id="Vector_23" d="M160 68H160.01" stroke="black" stroke-width="2" stroke-linecap="round" stroke-linejoin="round"/>
<path id="Vector_24" d="M164 62V60C164 59.4696 163.789 58.9609 163.414 58.5858C163.039 58.2107 162.53 58 162 58H158C157.47 58 156.961 58.2107 156.586 58.5858C156.211 58.9609 156 59.4696 156 60V62" stroke="black" stroke-width="2" stroke-linecap="round" stroke-linejoin="round"/>
<path id="Vector_25" d="M170 69C167.033 70.959 163.556 72.0033 160 72.0033C156.444 72.0033 152.967 70.959 150 69" stroke="black" stroke-width="2" stroke-linecap="round" stroke-linejoin="round"/>
<path id="Vector_26" d="M168 62H152C150.895 62 150 62.8954 150 64V74C150 75.1046 150.895 76 152 76H168C169.105 76 170 75.1046 170 74V64C170 62.8954 169.105 62 168 62Z" stroke="black" stroke-width="2" stroke-linecap="round" stroke-linejoin="round"/>
</g></svg>
