<svg viewBox="0 0 24 24" fill="none" xmlns="http://www.w3.org/2000/svg"><g transform="translate(-116 -56)">
<path id="Vector_21" d="M132 76V60C132 59.4696 131.789 58.9609 131.414 58.5858C131.039 58.2107 130.53 58 130 58H126C125.47 58 124.961 58.2107 124.586 58.5858C124.211 58.9609 124 59.4696 124 60V76" stroke="black" stroke-width="2" stroke-linecap="round" stroke-linejoin="round"/>
<path id="Vector_22" d="M136 62H120C118.895 62 118 62.8954 118 64V74C118 75.1046 118.895 76 120 76H136C137.105 76 138 75.1046 138 74V64C138 62.8954 137.105 62 136 62Z" stroke="black" stroke-width="2" stroke-linecap="round" stroke-linejoin="round"/>
</g></svg>
