<svg viewBox="0 0 24 24" fill="none" xmlns="http://www.w3.org/2000/svg"><g transform="translate(-52 -56)">
<path id="Vector_3" d="M66 64H62C60.8954 64 60 64.8954 60 66V70C60 71.1046 60.8954 72 62 72H66C67.1046 72 68 71.1046 68 70V66C68 64.8954 67.1046 64 66 64Z" stroke="black" stroke-width="2" stroke-linecap="round" stroke-linejoin="round"/>
<path id="Vector_4" d="M56 66C55.4696 66 54.9609 65.7893 54.5858 65.4142C54.2107 65.0391 54 64.5304 54 64V60C54 59.4696 54.2107 58.9609 54.5858 58.5858C54.9609 58.2107 55.4696 58 56 58H60C60.5304 58 61.0391 58.2107 61.4142 58.5858C61.7893 58.9609 62 59.4696 62 60" stroke="black" stroke-width="2" stroke-linecap="round" stroke-linejoin="round"/>
<path id="Vector_5" d="M66 76C66 76.5304 66.2107 77.0391 66.5858 77.4142C66.9609 77.7893 67.4696 78 68 78H72C72.5304 78 73.0391 77.7893 73.4142 77.4142C73.7893 77.0391 74 76.5304 74 76V72C74 71.4696 73.7893 70.9609 73.4142 70.5858C73.0391 70.2107 72.5304 70 72 70" stroke="black" stroke-width="2" stroke-linecap="round" stroke-linejoin="round"/>
</g></svg>
