<svg viewBox="0 0 24 24" fill="none" xmlns="http://www.w3.org/2000/svg"><g transform="translate(-308 -56)">
<path id="Vector_35" d="M318 69C317.407 68.9999 316.827 68.8239 316.334 68.4942C315.841 68.1646 315.456 67.6961 315.229 67.148C315.002 66.5999 314.943 65.9968 315.059 65.4149C315.174 64.8331 315.46 64.2986 315.879 63.879" stroke="black" stroke-width="2" stroke-linecap="round" stroke-linejoin="round"/>
<path id="Vector_36" d="M323.606 70.204C320.106 71.704 317.707 74.707 314.707 77.707C314.52 77.8945 314.265 77.9999 314 78C312 78 310 76 310 74C310 73.7348 310.105 73.4805 310.293 73.293C312.204 71.382 314.116 69.715 315.64 67.852" stroke="black" stroke-width="2" stroke-linecap="round" stroke-linejoin="round"/>
<path id="Vector_37" d="M324.573 70.737C323.816 70.448 323.165 69.9359 322.705 69.2686C322.246 68.6013 322 67.8102 322 67" stroke="black" stroke-width="2" stroke-linecap="round" stroke-linejoin="round"/>
<path id="Vector_38" d="M315.14 66.907C314.582 66.7835 314.057 66.5418 313.6 66.1982C313.144 65.8547 312.766 65.4172 312.492 64.9153C312.219 64.4134 312.056 63.8588 312.015 63.2887C311.974 62.7186 312.056 62.1464 312.255 61.6105C312.453 61.0746 312.765 60.5876 313.168 60.1821C313.57 59.7767 314.055 59.4623 314.59 59.2602C315.125 59.058 315.696 58.9727 316.267 59.0102C316.837 59.0476 317.393 59.2068 317.896 59.477C318.334 58.9388 318.904 58.5235 319.55 58.272C320.197 58.0206 320.897 57.9415 321.584 58.0427C322.27 58.1439 322.918 58.4217 323.464 58.849C324.011 59.2764 324.437 59.8384 324.7 60.48C325.083 60.1524 325.575 59.9812 326.078 60.0006C326.582 60.02 327.059 60.2287 327.415 60.5849C327.772 60.9411 327.98 61.4186 328 61.9219C328.019 62.4253 327.848 62.9174 327.52 63.3C328.162 63.5636 328.724 63.9896 329.152 64.5362C329.579 65.0827 329.857 65.731 329.958 66.4174C330.059 67.1038 329.98 67.8046 329.728 68.4512C329.476 69.0977 329.061 69.6676 328.522 70.105C328.811 70.6409 328.973 71.2355 328.997 71.8436C329.021 72.4517 328.906 73.0573 328.661 73.6142C328.415 74.1711 328.046 74.6647 327.581 75.0573C327.116 75.45 326.568 75.7313 325.978 75.88C325.387 76.0287 324.771 76.0407 324.176 75.9153C323.58 75.7898 323.021 75.5301 322.541 75.1559C322.061 74.7817 321.673 74.303 321.406 73.7561C321.139 73.2092 321 72.6086 321 72" stroke="black" stroke-width="2" stroke-linecap="round" stroke-linejoin="round"/>
</g></svg>
