<svg viewBox="0 0 24 24" fill="none" xmlns="http://www.w3.org/2000/svg"><g transform="translate(-116 -56)">
<path id="Vector_14" d="M127 66L130 69" stroke="black" stroke-width="2" stroke-linecap="round" stroke-linejoin="round"/>
<path id="Vector_15" d="M122.5 77C123.192 77 123.869 76.7947 124.444 76.4101C125.02 76.0256 125.469 75.4789 125.733 74.8394C125.998 74.1999 126.068 73.4961 125.933 72.8172C125.798 72.1383 125.464 71.5146 124.975 71.0251C124.485 70.5356 123.862 70.2023 123.183 70.0673C122.504 69.9322 121.8 70.0015 121.16 70.2664C120.521 70.5313 119.974 70.9799 119.59 71.5555C119.205 72.1311 119 72.8078 119 73.5C119 74.1656 118.747 74.8063 118.292 75.292C118.152 75.4319 118.056 75.6102 118.017 75.8044C117.979 75.9986 117.998 76.2 118.074 76.3829C118.15 76.5659 118.279 76.7222 118.443 76.832C118.608 76.9419 118.802 77.0004 119 77H122.5Z" stroke="black" stroke-width="2" stroke-linecap="round" stroke-linejoin="round"/>
<path id="Vector_16" d="M125.969 73.031L137.378 61.624C137.776 61.2259 138 60.686 138 60.123C138 59.56 137.776 59.0201 137.378 58.622C136.98 58.2239 136.44 58.0002 135.877 58.0002C135.314 58.0002 134.774 58.2239 134.376 58.622L122.967 70.031" stroke="black" stroke-width="2" stroke-linecap="round" stroke-linejoin="round"/>
</g></svg>
