<svg viewBox="0 0 24 24" fill="none" xmlns="http://www.w3.org/2000/svg"><g transform="translate(-148 -56)">
<path id="Vector_17" d="M164 78L163 74" stroke="black" stroke-width="2" stroke-linecap="round" stroke-linejoin="round"/>
<path id="Vector_18" d="M167 70C167.265 70 167.52 69.8946 167.707 69.7071C167.895 69.5196 168 69.2652 168 69V68C168 67.4696 167.789 66.9609 167.414 66.5858C167.039 66.2107 166.53 66 166 66H163C162.735 66 162.48 65.8946 162.293 65.7071C162.105 65.5196 162 65.2652 162 65V60C162 59.4696 161.789 58.9609 161.414 58.5858C161.039 58.2107 160.53 58 160 58C159.47 58 158.961 58.2107 158.586 58.5858C158.211 58.9609 158 59.4696 158 60V65C158 65.2652 157.895 65.5196 157.707 65.7071C157.52 65.8946 157.265 66 157 66H154C153.47 66 152.961 66.2107 152.586 66.5858C152.211 66.9609 152 67.4696 152 68V69C152 69.2652 152.105 69.5196 152.293 69.7071C152.48 69.8946 152.735 70 153 70" stroke="black" stroke-width="2" stroke-linecap="round" stroke-linejoin="round"/>
<path id="Vector_19" d="M167 70H153L151.027 76.767C150.991 76.914 150.99 77.0671 151.022 77.2148C151.055 77.3624 151.12 77.5008 151.214 77.6195C151.308 77.7382 151.427 77.8341 151.563 77.9C151.699 77.9659 151.848 78.0001 152 78H168C168.151 78.0001 168.3 77.9659 168.436 77.9C168.572 77.8341 168.691 77.7382 168.785 77.6195C168.879 77.5008 168.944 77.3624 168.977 77.2148C169.009 77.0671 169.008 76.914 168.973 76.767L167 70Z" stroke="black" stroke-width="2" stroke-linecap="round" stroke-linejoin="round"/>
<path id="Vector_20" d="M156 78L157 74" stroke="black" stroke-width="2" stroke-linecap="round" stroke-linejoin="round"/>
</g></svg>
