<svg viewBox="0 0 24 24" fill="none" xmlns="http://www.w3.org/2000/svg"><g transform="translate(-180 -56)">
<path id="Vector_21" d="M187.001 71.0849C187.227 71.0051 187.469 70.9808 187.707 71.0139C187.945 71.047 188.171 71.1366 188.367 71.2752C188.562 71.4138 188.722 71.5974 188.832 71.8105C188.943 72.0236 189 72.26 189 72.4999" stroke="black" stroke-width="2" stroke-linecap="round" stroke-linejoin="round"/>
<path id="Vector_22" d="M198.5 68C200.433 68 202 66.433 202 64.5C202 62.567 200.433 61 198.5 61C196.567 61 195 62.567 195 64.5C195 66.433 196.567 68 198.5 68Z" stroke="black" stroke-width="2" stroke-linecap="round" stroke-linejoin="round"/>
<path id="Vector_23" d="M187.5 78C190.538 78 193 75.5376 193 72.5C193 69.4624 190.538 67 187.5 67C184.462 67 182 69.4624 182 72.5C182 75.5376 184.462 78 187.5 78Z" stroke="black" stroke-width="2" stroke-linecap="round" stroke-linejoin="round"/>
<path id="Vector_24" d="M187.5 63C188.881 63 190 61.8807 190 60.5C190 59.1193 188.881 58 187.5 58C186.119 58 185 59.1193 185 60.5C185 61.8807 186.119 63 187.5 63Z" stroke="black" stroke-width="2" stroke-linecap="round" stroke-linejoin="round"/>
</g></svg>
