<svg viewBox="0 0 24 24" fill="none" xmlns="http://www.w3.org/2000/svg"><g transform="translate(-20 -88)">
<path id="Vector_92" d="M30 107.655C28.8305 107.242 27.8179 106.476 27.1016 105.463C26.3852 104.45 26.0004 103.24 26 102V99C26 97.9391 26.4214 96.9217 27.1716 96.1716C27.9217 95.4214 28.9391 95 30 95H34C35.0557 95 36.0686 95.4173 36.8179 96.1609C37.5672 96.9046 37.9921 97.9143 38 98.97" stroke="black" stroke-width="2" stroke-linecap="round" stroke-linejoin="round"/>
<path id="Vector_93" d="M34 103.003C33.9995 102.826 34.0462 102.651 34.1353 102.498C34.2245 102.344 34.3528 102.217 34.5073 102.13C34.6617 102.042 34.8366 101.998 35.0141 102C35.1915 102.003 35.3651 102.052 35.517 102.144L40.514 105.141C40.6628 105.23 40.786 105.355 40.8715 105.506C40.9571 105.657 41.002 105.827 41.002 106C41.002 106.173 40.9571 106.343 40.8715 106.494C40.786 106.645 40.6628 106.77 40.514 106.859L35.517 109.856C35.365 109.948 35.1913 109.997 35.0138 110C34.8363 110.002 34.6613 109.958 34.5068 109.87C34.3524 109.782 34.224 109.655 34.1349 109.502C34.0459 109.348 33.9993 109.174 34 108.996V103.003Z" stroke="black" stroke-width="2" stroke-linecap="round" stroke-linejoin="round"/>
<path id="Vector_94" d="M34.1201 91.88L36.0001 90" stroke="black" stroke-width="2" stroke-linecap="round" stroke-linejoin="round"/>
<path id="Vector_95" d="M41.0002 93C40.9991 93.9822 40.6366 94.9296 39.9819 95.6617C39.3273 96.3938 38.4261 96.8595 37.4502 96.97" stroke="black" stroke-width="2" stroke-linecap="round" stroke-linejoin="round"/>
<path id="Vector_96" d="M23 109C22.9988 107.971 23.3941 106.982 24.1036 106.237C24.8132 105.492 25.7824 105.049 26.81 105" stroke="black" stroke-width="2" stroke-linecap="round" stroke-linejoin="round"/>
<path id="Vector_97" d="M23 93C23.0011 93.9822 23.3636 94.9296 24.0182 95.6617C24.6729 96.3938 25.5741 96.8595 26.55 96.97" stroke="black" stroke-width="2" stroke-linecap="round" stroke-linejoin="round"/>
<path id="Vector_98" d="M26 101H22" stroke="black" stroke-width="2" stroke-linecap="round" stroke-linejoin="round"/>
<path id="Vector_99" d="M28 90L29.88 91.88" stroke="black" stroke-width="2" stroke-linecap="round" stroke-linejoin="round"/>
<path id="Vector_100" d="M29 95.13V94C29 93.2044 29.3161 92.4413 29.8787 91.8787C30.4413 91.3161 31.2044 91 32 91C32.7956 91 33.5587 91.3161 34.1213 91.8787C34.6839 92.4413 35 93.2044 35 94V95.13" stroke="black" stroke-width="2" stroke-linecap="round" stroke-linejoin="round"/>
</g></svg>
