<svg viewBox="0 0 24 24" fill="none" xmlns="http://www.w3.org/2000/svg"><g transform="translate(-372 -56)">
<path id="Vector_80" d="M384 76V68" stroke="black" stroke-width="2" stroke-linecap="round" stroke-linejoin="round"/>
<path id="Vector_81" d="M384.656 63H386C387.061 63 388.079 63.4214 388.829 64.1716C389.579 64.9217 390 65.9391 390 67V68.344" stroke="black" stroke-width="2" stroke-linecap="round" stroke-linejoin="round"/>
<path id="Vector_82" d="M386.12 59.88L388 58" stroke="black" stroke-width="2" stroke-linecap="round" stroke-linejoin="round"/>
<path id="Vector_83" d="M389.123 73.123C388.442 74.2403 387.414 75.1042 386.196 75.5832C384.979 76.0623 383.638 76.1301 382.378 75.7764C381.118 75.4227 380.009 74.6668 379.218 73.624C378.428 72.5811 378 71.3085 378 70V67C378 66.3539 378.156 65.7175 378.456 65.1451C378.755 64.5726 379.189 64.0813 379.72 63.713" stroke="black" stroke-width="2" stroke-linecap="round" stroke-linejoin="round"/>
<path id="Vector_84" d="M374 58L394 78" stroke="black" stroke-width="2" stroke-linecap="round" stroke-linejoin="round"/>
<path id="Vector_85" d="M393 61C392.999 61.9822 392.637 62.9296 391.982 63.6617C391.327 64.3938 390.426 64.8595 389.45 64.97" stroke="black" stroke-width="2" stroke-linecap="round" stroke-linejoin="round"/>
<path id="Vector_86" d="M394 69H390.656" stroke="black" stroke-width="2" stroke-linecap="round" stroke-linejoin="round"/>
<path id="Vector_87" d="M375 77C374.999 75.9712 375.394 74.9816 376.104 74.2367C376.813 73.4918 377.782 73.0489 378.81 73" stroke="black" stroke-width="2" stroke-linecap="round" stroke-linejoin="round"/>
<path id="Vector_88" d="M375 61C375.001 61.9822 375.364 62.9296 376.018 63.6617C376.673 64.3938 377.574 64.8595 378.55 64.97" stroke="black" stroke-width="2" stroke-linecap="round" stroke-linejoin="round"/>
<path id="Vector_89" d="M378 69H374" stroke="black" stroke-width="2" stroke-linecap="round" stroke-linejoin="round"/>
<path id="Vector_90" d="M380 58L381.88 59.88" stroke="black" stroke-width="2" stroke-linecap="round" stroke-linejoin="round"/>
<path id="Vector_91" d="M381.712 60.06C382.109 59.5915 382.641 59.2563 383.235 59.0996C383.829 58.9429 384.456 58.9723 385.033 59.1839C385.61 59.3955 386.108 59.779 386.459 60.2826C386.811 60.7862 387 61.3857 387 62V63.13" stroke="black" stroke-width="2" stroke-linecap="round" stroke-linejoin="round"/>
</g></svg>
