<svg viewBox="0 0 24 24" fill="none" xmlns="http://www.w3.org/2000/svg"><g transform="translate(-340 -56)">
<path id="Vector_69" d="M352 76V67" stroke="black" stroke-width="2" stroke-linecap="round" stroke-linejoin="round"/>
<path id="Vector_70" d="M354 63C355.061 63 356.078 63.4214 356.828 64.1716C357.579 64.9217 358 65.9391 358 67V70C358 71.5913 357.368 73.1174 356.243 74.2426C355.117 75.3679 353.591 76 352 76C350.409 76 348.883 75.3679 347.757 74.2426C346.632 73.1174 346 71.5913 346 70V67C346 65.9391 346.421 64.9217 347.172 64.1716C347.922 63.4214 348.939 63 350 63H354Z" stroke="black" stroke-width="2" stroke-linecap="round" stroke-linejoin="round"/>
<path id="Vector_71" d="M354.12 59.88L356 58" stroke="black" stroke-width="2" stroke-linecap="round" stroke-linejoin="round"/>
<path id="Vector_72" d="M361 77C361.002 75.9712 360.606 74.9816 359.897 74.2367C359.187 73.4918 358.218 73.0489 357.19 73" stroke="black" stroke-width="2" stroke-linecap="round" stroke-linejoin="round"/>
<path id="Vector_73" d="M361 61C360.999 61.9822 360.637 62.9296 359.982 63.6617C359.327 64.3938 358.426 64.8595 357.45 64.97" stroke="black" stroke-width="2" stroke-linecap="round" stroke-linejoin="round"/>
<path id="Vector_74" d="M362 69H358" stroke="black" stroke-width="2" stroke-linecap="round" stroke-linejoin="round"/>
<path id="Vector_75" d="M343 77C342.999 75.9712 343.394 74.9816 344.104 74.2367C344.813 73.4918 345.782 73.0489 346.81 73" stroke="black" stroke-width="2" stroke-linecap="round" stroke-linejoin="round"/>
<path id="Vector_76" d="M343 61C343.001 61.9822 343.364 62.9296 344.018 63.6617C344.673 64.3938 345.574 64.8595 346.55 64.97" stroke="black" stroke-width="2" stroke-linecap="round" stroke-linejoin="round"/>
<path id="Vector_77" d="M346 69H342" stroke="black" stroke-width="2" stroke-linecap="round" stroke-linejoin="round"/>
<path id="Vector_78" d="M348 58L349.88 59.88" stroke="black" stroke-width="2" stroke-linecap="round" stroke-linejoin="round"/>
<path id="Vector_79" d="M349 63.13V62C349 61.2044 349.316 60.4413 349.879 59.8787C350.441 59.3161 351.204 59 352 59C352.796 59 353.559 59.3161 354.121 59.8787C354.684 60.4413 355 61.2044 355 62V63.13" stroke="black" stroke-width="2" stroke-linecap="round" stroke-linejoin="round"/>
</g></svg>
