<svg viewBox="0 0 24 24" fill="none" xmlns="http://www.w3.org/2000/svg"><g transform="translate(-52 -56)">
<path id="Vector_12" d="M62 68H66" stroke="black" stroke-width="2" stroke-linecap="round" stroke-linejoin="round"/>
<path id="Vector_13" d="M62 64H66" stroke="black" stroke-width="2" stroke-linecap="round" stroke-linejoin="round"/>
<path id="Vector_14" d="M66 77V74C66 73.4696 65.7893 72.9609 65.4142 72.5858C65.0391 72.2107 64.5304 72 64 72C63.4696 72 62.9609 72.2107 62.5858 72.5858C62.2107 72.9609 62 73.4696 62 74V77" stroke="black" stroke-width="2" stroke-linecap="round" stroke-linejoin="round"/>
<path id="Vector_15" d="M58 66H56C55.4696 66 54.9609 66.2107 54.5858 66.5858C54.2107 66.9609 54 67.4696 54 68V75C54 75.5304 54.2107 76.0391 54.5858 76.4142C54.9609 76.7893 55.4696 77 56 77H72C72.5304 77 73.0391 76.7893 73.4142 76.4142C73.7893 76.0391 74 75.5304 74 75V65C74 64.4696 73.7893 63.9609 73.4142 63.5858C73.0391 63.2107 72.5304 63 72 63H70" stroke="black" stroke-width="2" stroke-linecap="round" stroke-linejoin="round"/>
<path id="Vector_16" d="M58 77V61C58 60.4696 58.2107 59.9609 58.5858 59.5858C58.9609 59.2107 59.4696 59 60 59H68C68.5304 59 69.0391 59.2107 69.4142 59.5858C69.7893 59.9609 70 60.4696 70 61V77" stroke="black" stroke-width="2" stroke-linecap="round" stroke-linejoin="round"/>
</g></svg>
