<svg viewBox="0 0 24 24" fill="none" xmlns="http://www.w3.org/2000/svg"><g transform="translate(-84 -56)">
<path id="Vector_10" d="M92 62V68" stroke="black" stroke-width="2" stroke-linecap="round" stroke-linejoin="round"/>
<path id="Vector_11" d="M99 62V68" stroke="black" stroke-width="2" stroke-linecap="round" stroke-linejoin="round"/>
<path id="Vector_12" d="M86 68H105.6" stroke="black" stroke-width="2" stroke-linecap="round" stroke-linejoin="round"/>
<path id="Vector_13" d="M102 74H105C105 74 105.5 72.3 105.8 71.2C105.9 70.8 106 70.4 106 70C106 69.6 105.9 69.2 105.8 68.8L104.4 63.8C104.1 62.8 103.1 62 102 62H88C87.4696 62 86.9609 62.2107 86.5858 62.5858C86.2107 62.9609 86 63.4696 86 64V74H89" stroke="black" stroke-width="2" stroke-linecap="round" stroke-linejoin="round"/>
<path id="Vector_14" d="M91 76C92.1046 76 93 75.1046 93 74C93 72.8954 92.1046 72 91 72C89.8954 72 89 72.8954 89 74C89 75.1046 89.8954 76 91 76Z" stroke="black" stroke-width="2" stroke-linecap="round" stroke-linejoin="round"/>
<path id="Vector_15" d="M93 74H98" stroke="black" stroke-width="2" stroke-linecap="round" stroke-linejoin="round"/>
<path id="Vector_16" d="M100 76C101.105 76 102 75.1046 102 74C102 72.8954 101.105 72 100 72C98.8954 72 98 72.8954 98 74C98 75.1046 98.8954 76 100 76Z" stroke="black" stroke-width="2" stroke-linecap="round" stroke-linejoin="round"/>
</g></svg>
