<svg viewBox="0 0 24 24" fill="none" xmlns="http://www.w3.org/2000/svg"><g transform="translate(-116 -88)">
<path id="Vector_55" d="M133 107C132.735 107 132.48 106.895 132.293 106.707C132.105 106.52 132 106.265 132 106V104C132 103.47 132.211 102.961 132.586 102.586C132.961 102.211 133.47 102 134 102H136C136.53 102 137.039 102.211 137.414 102.586C137.789 102.961 138 103.47 138 104V106C138 106.265 137.895 106.52 137.707 106.707C137.52 106.895 137.265 107 137 107H133Z" stroke="black" stroke-width="2" stroke-linecap="round" stroke-linejoin="round"/>
<path id="Vector_56" d="M133 109V107" stroke="black" stroke-width="2" stroke-linecap="round" stroke-linejoin="round"/>
<path id="Vector_57" d="M135 102V94.5C135 93.5717 134.631 92.6815 133.975 92.0251C133.318 91.3687 132.428 91 131.5 91C130.572 91 129.682 91.3687 129.025 92.0251C128.369 92.6815 128 93.5717 128 94.5V105.5C128 106.428 127.631 107.318 126.975 107.975C126.318 108.631 125.428 109 124.5 109C123.572 109 122.682 108.631 122.025 107.975C121.369 107.318 121 106.428 121 105.5V98" stroke="black" stroke-width="2" stroke-linecap="round" stroke-linejoin="round"/>
<path id="Vector_58" d="M137 109V107" stroke="black" stroke-width="2" stroke-linecap="round" stroke-linejoin="round"/>
<path id="Vector_59" d="M119 93V91" stroke="black" stroke-width="2" stroke-linecap="round" stroke-linejoin="round"/>
<path id="Vector_60" d="M120 98C119.47 98 118.961 97.7893 118.586 97.4142C118.211 97.0391 118 96.5304 118 96V94C118 93.7348 118.105 93.4804 118.293 93.2929C118.48 93.1054 118.735 93 119 93H123C123.265 93 123.52 93.1054 123.707 93.2929C123.895 93.4804 124 93.7348 124 94V96C124 96.5304 123.789 97.0391 123.414 97.4142C123.039 97.7893 122.53 98 122 98H120Z" stroke="black" stroke-width="2" stroke-linecap="round" stroke-linejoin="round"/>
<path id="Vector_61" d="M123 93V91" stroke="black" stroke-width="2" stroke-linecap="round" stroke-linejoin="round"/>
</g></svg>
