<svg viewBox="0 0 24 24" fill="none" xmlns="http://www.w3.org/2000/svg"><g transform="translate(-372 -56)">
<path id="Vector_11" d="M391 64L387 68H390C390 71.31 387.31 74 384 74C382.99 74 382.03 73.75 381.2 73.3L379.74 74.76C380.97 75.54 382.43 76 384 76C388.42 76 392 72.42 392 68H395L391 64ZM378 68C378 64.69 380.69 62 384 62C385.01 62 385.97 62.25 386.8 62.7L388.26 61.24C387.03 60.46 385.57 60 384 60C379.58 60 376 63.58 376 68H373L377 72L381 68H378Z" fill="black" fill-opacity="0.56"/>
</g></svg>
