<svg viewBox="0 0 24 24" fill="none" xmlns="http://www.w3.org/2000/svg"><g transform="translate(-372 -56)">
<path id="Vector_48" d="M388 69H375" stroke="black" stroke-width="2" stroke-linecap="round" stroke-linejoin="round"/>
<path id="Vector_49" d="M388 73H375" stroke="black" stroke-width="2" stroke-linecap="round" stroke-linejoin="round"/>
<path id="Vector_50" d="M379.2 63.9L375.812 66.4C375.56 66.586 375.355 66.8286 375.214 67.1083C375.073 67.3879 375 67.6968 375 68.01V76C375 76.2652 375.105 76.5196 375.293 76.7071C375.48 76.8946 375.735 77 376 77H392C392.265 77 392.52 76.8946 392.707 76.7071C392.895 76.5196 393 76.2652 393 76V67.346C393 65.346 390.56 61.32 386.56 59.32C386.393 59.2245 386.202 59.1791 386.011 59.1893C385.819 59.1994 385.634 59.2645 385.478 59.377L382.4 61.6" stroke="black" stroke-width="2" stroke-linecap="round" stroke-linejoin="round"/>
<path id="Vector_51" d="M381 65C382.105 65 383 64.1046 383 63C383 61.8954 382.105 61 381 61C379.895 61 379 61.8954 379 63C379 64.1046 379.895 65 381 65Z" stroke="black" stroke-width="2" stroke-linecap="round" stroke-linejoin="round"/>
</g></svg>
