<svg viewBox="0 0 24 24" fill="none" xmlns="http://www.w3.org/2000/svg"><g transform="translate(-276 -56)">
<path id="Vector_46" d="M290 74L294 78L298 74" stroke="black" stroke-width="2" stroke-linecap="round" stroke-linejoin="round"/>
<path id="Vector_47" d="M292 58V62" stroke="black" stroke-width="2" stroke-linecap="round" stroke-linejoin="round"/>
<path id="Vector_48" d="M294 70V78" stroke="black" stroke-width="2" stroke-linecap="round" stroke-linejoin="round"/>
<path id="Vector_49" d="M297 67.354V62C297 61.4696 296.789 60.9609 296.414 60.5858C296.039 60.2107 295.53 60 295 60H281C280.47 60 279.961 60.2107 279.586 60.5858C279.211 60.9609 279 61.4696 279 62V76C279 76.5304 279.211 77.0391 279.586 77.4142C279.961 77.7893 280.47 78 281 78H288.343" stroke="black" stroke-width="2" stroke-linecap="round" stroke-linejoin="round"/>
<path id="Vector_50" d="M279 66H297" stroke="black" stroke-width="2" stroke-linecap="round" stroke-linejoin="round"/>
<path id="Vector_51" d="M284 58V62" stroke="black" stroke-width="2" stroke-linecap="round" stroke-linejoin="round"/>
</g></svg>
