<svg viewBox="0 0 24 24" fill="none" xmlns="http://www.w3.org/2000/svg"><g transform="translate(-52 -120)">
<path id="Vector_155" d="M63 130V134H67" stroke="black" stroke-width="2" stroke-linecap="round" stroke-linejoin="round"/>
<path id="Vector_156" d="M63 134L64.535 132.395C65.109 131.843 65.8065 131.437 66.5694 131.209C67.3323 130.981 68.1386 130.939 68.9211 131.086C69.7037 131.232 70.4399 131.564 71.0684 132.052C71.697 132.541 72.1998 133.173 72.535 133.895" stroke="black" stroke-width="2" stroke-linecap="round" stroke-linejoin="round"/>
<path id="Vector_157" d="M68 122V126" stroke="black" stroke-width="2" stroke-linecap="round" stroke-linejoin="round"/>
<path id="Vector_158" d="M72.9998 138L71.4648 139.605C70.8908 140.157 70.1933 140.563 69.4304 140.791C68.6675 141.019 67.8612 141.061 67.0787 140.914C66.2962 140.768 65.56 140.436 64.9314 139.948C64.3028 139.459 63.8 138.827 63.4648 138.105" stroke="black" stroke-width="2" stroke-linecap="round" stroke-linejoin="round"/>
<path id="Vector_159" d="M73 142V138H69" stroke="black" stroke-width="2" stroke-linecap="round" stroke-linejoin="round"/>
<path id="Vector_160" d="M73 128.5V126C73 125.47 72.7893 124.961 72.4142 124.586C72.0391 124.211 71.5304 124 71 124H57C56.4696 124 55.9609 124.211 55.5858 124.586C55.2107 124.961 55 125.47 55 126V140C55 140.53 55.2107 141.039 55.5858 141.414C55.9609 141.789 56.4696 142 57 142H61.3" stroke="black" stroke-width="2" stroke-linecap="round" stroke-linejoin="round"/>
<path id="Vector_161" d="M55 130H59" stroke="black" stroke-width="2" stroke-linecap="round" stroke-linejoin="round"/>
<path id="Vector_162" d="M60 122V126" stroke="black" stroke-width="2" stroke-linecap="round" stroke-linejoin="round"/>
</g></svg>
