<svg viewBox="0 0 24 24" fill="none" xmlns="http://www.w3.org/2000/svg"><g transform="translate(-116 -120)">
<path id="Vector_169" d="M124 122V126" stroke="black" stroke-width="2" stroke-linecap="round" stroke-linejoin="round"/>
<path id="Vector_170" d="M132 122V126" stroke="black" stroke-width="2" stroke-linecap="round" stroke-linejoin="round"/>
<path id="Vector_171" d="M137 133V126C137 125.47 136.789 124.961 136.414 124.586C136.039 124.211 135.53 124 135 124H121C120.47 124 119.961 124.211 119.586 124.586C119.211 124.961 119 125.47 119 126V140C119 140.53 119.211 141.039 119.586 141.414C119.961 141.789 120.47 142 121 142H129" stroke="black" stroke-width="2" stroke-linecap="round" stroke-linejoin="round"/>
<path id="Vector_172" d="M119 130H137" stroke="black" stroke-width="2" stroke-linecap="round" stroke-linejoin="round"/>
<path id="Vector_173" d="M133 142L138 137" stroke="black" stroke-width="2" stroke-linecap="round" stroke-linejoin="round"/>
<path id="Vector_174" d="M133 137L138 142" stroke="black" stroke-width="2" stroke-linecap="round" stroke-linejoin="round"/>
</g></svg>
