<svg viewBox="0 0 24 24" fill="none" xmlns="http://www.w3.org/2000/svg"><g transform="translate(-244 -88)">
<path id="Vector_117" d="M248.2 92.2C247.848 92.3533 247.548 92.6046 247.336 92.9237C247.123 93.2428 247.006 93.6164 247 94V108C247 108.53 247.211 109.039 247.586 109.414C247.961 109.789 248.47 110 249 110H263C263.385 109.999 263.761 109.887 264.084 109.678C264.407 109.469 264.662 109.171 264.82 108.82" stroke="black" stroke-width="2" stroke-linecap="round" stroke-linejoin="round"/>
<path id="Vector_118" d="M265 103.5V94C265 93.4696 264.789 92.9609 264.414 92.5858C264.039 92.2107 263.53 92 263 92H253.5" stroke="black" stroke-width="2" stroke-linecap="round" stroke-linejoin="round"/>
<path id="Vector_119" d="M260 90V94" stroke="black" stroke-width="2" stroke-linecap="round" stroke-linejoin="round"/>
<path id="Vector_120" d="M247 98H254" stroke="black" stroke-width="2" stroke-linecap="round" stroke-linejoin="round"/>
<path id="Vector_121" d="M265 98H259.5" stroke="black" stroke-width="2" stroke-linecap="round" stroke-linejoin="round"/>
<path id="Vector_122" d="M246 90L266 110" stroke="black" stroke-width="2" stroke-linecap="round" stroke-linejoin="round"/>
</g></svg>
