<svg viewBox="0 0 24 24" fill="none" xmlns="http://www.w3.org/2000/svg"><g transform="translate(-20 -120)">
<path id="Vector_149" d="M36 122V126" stroke="black" stroke-width="2" stroke-linecap="round" stroke-linejoin="round"/>
<path id="Vector_150" d="M41 131.75V126C41 125.47 40.7893 124.961 40.4142 124.586C40.0391 124.211 39.5304 124 39 124H25C24.4696 124 23.9609 124.211 23.5858 124.586C23.2107 124.961 23 125.47 23 126V140C23 140.53 23.2107 141.039 23.5858 141.414C23.9609 141.789 24.4696 142 25 142H32.25" stroke="black" stroke-width="2" stroke-linecap="round" stroke-linejoin="round"/>
<path id="Vector_151" d="M42 142L40.125 140.125" stroke="black" stroke-width="2" stroke-linecap="round" stroke-linejoin="round"/>
<path id="Vector_152" d="M23 130H41" stroke="black" stroke-width="2" stroke-linecap="round" stroke-linejoin="round"/>
<path id="Vector_153" d="M28 122V126" stroke="black" stroke-width="2" stroke-linecap="round" stroke-linejoin="round"/>
<path id="Vector_154" d="M38 141C39.6569 141 41 139.657 41 138C41 136.343 39.6569 135 38 135C36.3431 135 35 136.343 35 138C35 139.657 36.3431 141 38 141Z" stroke="black" stroke-width="2" stroke-linecap="round" stroke-linejoin="round"/>
</g></svg>
