<svg viewBox="0 0 24 24" fill="none" xmlns="http://www.w3.org/2000/svg"><g transform="translate(-148 -88)">
<path id="Vector_102" d="M160.127 110H153C152.47 110 151.961 109.789 151.586 109.414C151.211 109.039 151 108.53 151 108V94C151 93.4696 151.211 92.9609 151.586 92.5858C151.961 92.2107 152.47 92 153 92H167C167.53 92 168.039 92.2107 168.414 92.5858C168.789 92.9609 169 93.4696 169 94V99.125" stroke="black" stroke-width="2" stroke-linecap="round" stroke-linejoin="round"/>
<path id="Vector_103" d="M162.62 106.8C162.41 106.581 162.246 106.321 162.139 106.037C162.032 105.752 161.983 105.449 161.996 105.145C162.009 104.842 162.084 104.544 162.215 104.27C162.347 103.996 162.532 103.751 162.761 103.551C162.989 103.35 163.256 103.198 163.545 103.104C163.834 103.009 164.139 102.974 164.441 103.001C164.744 103.028 165.038 103.115 165.306 103.259C165.574 103.402 165.81 103.599 166 103.836C166.191 103.601 166.428 103.407 166.695 103.266C166.963 103.125 167.256 103.039 167.557 103.013C167.859 102.988 168.162 103.024 168.45 103.118C168.737 103.213 169.003 103.365 169.23 103.564C169.457 103.764 169.642 104.007 169.773 104.28C169.905 104.553 169.979 104.849 169.994 105.151C170.008 105.453 169.96 105.755 169.855 106.039C169.75 106.323 169.588 106.582 169.38 106.802L166.754 109.658C166.661 109.766 166.545 109.852 166.415 109.912C166.285 109.971 166.144 110.002 166.001 110.002C165.858 110.002 165.717 109.971 165.587 109.912C165.457 109.852 165.341 109.766 165.247 109.658L162.62 106.8Z" stroke="black" stroke-width="2" stroke-linecap="round" stroke-linejoin="round"/>
<path id="Vector_104" d="M164 90V94" stroke="black" stroke-width="2" stroke-linecap="round" stroke-linejoin="round"/>
<path id="Vector_105" d="M151 98H169" stroke="black" stroke-width="2" stroke-linecap="round" stroke-linejoin="round"/>
<path id="Vector_106" d="M156 90V94" stroke="black" stroke-width="2" stroke-linecap="round" stroke-linejoin="round"/>
</g></svg>
