<svg viewBox="0 0 24 24" fill="none" xmlns="http://www.w3.org/2000/svg"><g transform="translate(-20 -88)">
<path id="Vector_68" d="M36 102V104.2L37.6 105.2" stroke="black" stroke-width="2" stroke-linecap="round" stroke-linejoin="round"/>
<path id="Vector_69" d="M36 90V94" stroke="black" stroke-width="2" stroke-linecap="round" stroke-linejoin="round"/>
<path id="Vector_70" d="M41 95.5V94C41 93.4696 40.7893 92.9609 40.4142 92.5858C40.0391 92.2107 39.5304 92 39 92H25C24.4696 92 23.9609 92.2107 23.5858 92.5858C23.2107 92.9609 23 93.4696 23 94V108C23 108.53 23.2107 109.039 23.5858 109.414C23.9609 109.789 24.4696 110 25 110H28.5" stroke="black" stroke-width="2" stroke-linecap="round" stroke-linejoin="round"/>
<path id="Vector_71" d="M23 98H28" stroke="black" stroke-width="2" stroke-linecap="round" stroke-linejoin="round"/>
<path id="Vector_72" d="M28 90V94" stroke="black" stroke-width="2" stroke-linecap="round" stroke-linejoin="round"/>
<path id="Vector_73" d="M36 110C39.3137 110 42 107.314 42 104C42 100.686 39.3137 98 36 98C32.6863 98 30 100.686 30 104C30 107.314 32.6863 110 36 110Z" stroke="black" stroke-width="2" stroke-linecap="round" stroke-linejoin="round"/>
</g></svg>
