<svg viewBox="0 0 24 24" fill="none" xmlns="http://www.w3.org/2000/svg"><g transform="translate(-52 -88)">
<path id="Vector_74" d="M67.2277 104.852L66.3047 104.469" stroke="black" stroke-width="2" stroke-linecap="round" stroke-linejoin="round"/>
<path id="Vector_75" d="M67.2277 107.148L66.3047 107.531" stroke="black" stroke-width="2" stroke-linecap="round" stroke-linejoin="round"/>
<path id="Vector_76" d="M68 90V94" stroke="black" stroke-width="2" stroke-linecap="round" stroke-linejoin="round"/>
<path id="Vector_77" d="M68.4697 102.305L68.8517 103.228" stroke="black" stroke-width="2" stroke-linecap="round" stroke-linejoin="round"/>
<path id="Vector_78" d="M68.8517 108.772L68.4688 109.696" stroke="black" stroke-width="2" stroke-linecap="round" stroke-linejoin="round"/>
<path id="Vector_79" d="M71.1484 103.228L71.5314 102.305" stroke="black" stroke-width="2" stroke-linecap="round" stroke-linejoin="round"/>
<path id="Vector_80" d="M71.5304 109.696L71.1484 108.772" stroke="black" stroke-width="2" stroke-linecap="round" stroke-linejoin="round"/>
<path id="Vector_81" d="M72.7725 104.852L73.6965 104.469" stroke="black" stroke-width="2" stroke-linecap="round" stroke-linejoin="round"/>
<path id="Vector_82" d="M72.7725 107.148L73.6965 107.531" stroke="black" stroke-width="2" stroke-linecap="round" stroke-linejoin="round"/>
<path id="Vector_83" d="M73 98.592V94C73 93.4696 72.7893 92.9609 72.4142 92.5858C72.0391 92.2107 71.5304 92 71 92H57C56.4696 92 55.9609 92.2107 55.5858 92.5858C55.2107 92.9609 55 93.4696 55 94V108C55 108.53 55.2107 109.039 55.5858 109.414C55.9609 109.789 56.4696 110 57 110H63" stroke="black" stroke-width="2" stroke-linecap="round" stroke-linejoin="round"/>
<path id="Vector_84" d="M55 98H73" stroke="black" stroke-width="2" stroke-linecap="round" stroke-linejoin="round"/>
<path id="Vector_85" d="M60 90V94" stroke="black" stroke-width="2" stroke-linecap="round" stroke-linejoin="round"/>
<path id="Vector_86" d="M70 109C71.6569 109 73 107.657 73 106C73 104.343 71.6569 103 70 103C68.3431 103 67 104.343 67 106C67 107.657 68.3431 109 70 109Z" stroke="black" stroke-width="2" stroke-linecap="round" stroke-linejoin="round"/>
</g></svg>
