<svg viewBox="0 0 24 24" fill="none" xmlns="http://www.w3.org/2000/svg"><g transform="translate(-372 -88)">
<path id="Vector_143" d="M384 90V92" stroke="black" stroke-width="2" stroke-linecap="round" stroke-linejoin="round"/>
<path id="Vector_144" d="M387.726 109.01C387.55 109.311 387.298 109.561 386.995 109.735C386.692 109.909 386.349 110 386 110H376C375.47 110 374.961 109.789 374.586 109.414C374.211 109.039 374 108.53 374 108V98C374 97.4696 374.211 96.9609 374.586 96.5858C374.961 96.2107 375.47 96 376 96" stroke="black" stroke-width="2" stroke-linecap="round" stroke-linejoin="round"/>
<path id="Vector_145" d="M390 90V92" stroke="black" stroke-width="2" stroke-linecap="round" stroke-linejoin="round"/>
<path id="Vector_146" d="M374 101H376" stroke="black" stroke-width="2" stroke-linecap="round" stroke-linejoin="round"/>
<path id="Vector_147" d="M380 96H394" stroke="black" stroke-width="2" stroke-linecap="round" stroke-linejoin="round"/>
<path id="Vector_148" d="M392 91H382C380.895 91 380 91.8954 380 93V103C380 104.105 380.895 105 382 105H392C393.105 105 394 104.105 394 103V93C394 91.8954 393.105 91 392 91Z" stroke="black" stroke-width="2" stroke-linecap="round" stroke-linejoin="round"/>
</g></svg>
