<svg viewBox="0 0 24 24" fill="none" xmlns="http://www.w3.org/2000/svg"><g transform="translate(-308 -56)">
<path id="Vector_52" d="M322 74L326 70L330 74" stroke="black" stroke-width="2" stroke-linecap="round" stroke-linejoin="round"/>
<path id="Vector_53" d="M324 58V62" stroke="black" stroke-width="2" stroke-linecap="round" stroke-linejoin="round"/>
<path id="Vector_54" d="M326 78V70" stroke="black" stroke-width="2" stroke-linecap="round" stroke-linejoin="round"/>
<path id="Vector_55" d="M329 67.343V62C329 61.4696 328.789 60.9609 328.414 60.5858C328.039 60.2107 327.53 60 327 60H313C312.47 60 311.961 60.2107 311.586 60.5858C311.211 60.9609 311 61.4696 311 62V76C311 76.5304 311.211 77.0391 311.586 77.4142C311.961 77.7893 312.47 78 313 78H322" stroke="black" stroke-width="2" stroke-linecap="round" stroke-linejoin="round"/>
<path id="Vector_56" d="M311 66H329" stroke="black" stroke-width="2" stroke-linecap="round" stroke-linejoin="round"/>
<path id="Vector_57" d="M316 58V62" stroke="black" stroke-width="2" stroke-linecap="round" stroke-linejoin="round"/>
</g></svg>
