<svg viewBox="0 0 24 24" fill="none" xmlns="http://www.w3.org/2000/svg"><g transform="translate(-148 -56)">
<path id="Vector_17" d="M161.997 60C162.358 60 162.712 60.0976 163.022 60.2824C163.332 60.4673 163.586 60.7325 163.757 61.05L164.243 61.95C164.414 62.2675 164.668 62.5327 164.978 62.7176C165.288 62.9024 165.642 63 166.003 63H168C168.53 63 169.039 63.2107 169.414 63.5858C169.789 63.9609 170 64.4696 170 65V74C170 74.5304 169.789 75.0391 169.414 75.4142C169.039 75.7893 168.53 76 168 76H152C151.47 76 150.961 75.7893 150.586 75.4142C150.211 75.0391 150 74.5304 150 74V65C150 64.4696 150.211 63.9609 150.586 63.5858C150.961 63.2107 151.47 63 152 63H153.997C154.357 63 154.711 62.9026 155.021 62.7182C155.33 62.5337 155.584 62.269 155.756 61.952L156.245 61.048C156.417 60.731 156.671 60.4663 156.98 60.2818C157.29 60.0974 157.644 60 158.004 60H161.997Z" stroke="black" stroke-width="2" stroke-linecap="round" stroke-linejoin="round"/>
<path id="Vector_18" d="M160 72C161.657 72 163 70.6569 163 69C163 67.3431 161.657 66 160 66C158.343 66 157 67.3431 157 69C157 70.6569 158.343 72 160 72Z" stroke="black" stroke-width="2" stroke-linecap="round" stroke-linejoin="round"/>
</g></svg>
