<svg viewBox="0 0 24 24" fill="none" xmlns="http://www.w3.org/2000/svg"><g transform="translate(-180 -56)">
<path id="Vector_19" d="M194.564 70.558C194.328 70.9465 194.007 71.2763 193.625 71.5226C193.243 71.7688 192.81 71.925 192.359 71.9793C191.908 72.0337 191.45 71.9848 191.02 71.8364C190.591 71.6879 190.2 71.4438 189.879 71.1224C189.558 70.8011 189.313 70.4109 189.165 69.9813C189.016 69.5518 188.967 69.0941 189.021 68.6428C189.076 68.1915 189.232 67.7585 189.478 67.3763C189.724 66.9942 190.054 66.673 190.442 66.437" stroke="black" stroke-width="2" stroke-linecap="round" stroke-linejoin="round"/>
<path id="Vector_20" d="M182 58L202 78" stroke="black" stroke-width="2" stroke-linecap="round" stroke-linejoin="round"/>
<path id="Vector_21" d="M200 76H184C183.47 76 182.961 75.7892 182.586 75.4142C182.211 75.0391 182 74.5304 182 74V65C182 64.4695 182.211 63.9608 182.586 63.5857C182.961 63.2107 183.47 63 184 63H185.997C186.279 63.0001 186.558 62.9404 186.816 62.825" stroke="black" stroke-width="2" stroke-linecap="round" stroke-linejoin="round"/>
<path id="Vector_22" d="M189.695 60.024C189.798 60.008 189.901 60 190.004 60H193.997C194.358 60 194.712 60.0976 195.022 60.2824C195.332 60.4673 195.586 60.7325 195.757 61.05L196.243 61.95C196.415 62.2675 196.669 62.5327 196.979 62.7176C197.288 62.9024 197.643 63 198.003 63H200C200.531 63 201.039 63.2107 201.415 63.5858C201.79 63.9609 202 64.4696 202 65V72.344" stroke="black" stroke-width="2" stroke-linecap="round" stroke-linejoin="round"/>
</g></svg>
