<svg viewBox="0 0 24 24" fill="none" xmlns="http://www.w3.org/2000/svg"><g transform="translate(-84 -88)">
<path id="Vector_62" d="M94 98V105.9" stroke="black" stroke-width="2" stroke-linecap="round" stroke-linejoin="round"/>
<path id="Vector_63" d="M95.8018 94.145C96.6377 93.9386 97.5127 93.9515 98.3421 94.1825C99.1716 94.4135 99.9273 94.8548 100.536 95.4636C101.145 96.0724 101.586 96.8282 101.817 97.6576C102.048 98.4871 102.061 99.3621 101.855 100.198" stroke="black" stroke-width="2" stroke-linecap="round" stroke-linejoin="round"/>
<path id="Vector_64" d="M98 94.1V96.343" stroke="black" stroke-width="2" stroke-linecap="round" stroke-linejoin="round"/>
<path id="Vector_65" d="M99.4999 103.571L98.5359 104.535C97.5982 105.473 96.3265 105.999 95.0004 105.999C93.6743 105.999 92.4026 105.473 91.4649 104.535C90.5276 103.597 90.001 102.326 90.001 101C90.001 99.6742 90.5276 98.4026 91.4649 97.465L92.4289 96.5" stroke="black" stroke-width="2" stroke-linecap="round" stroke-linejoin="round"/>
<path id="Vector_66" d="M100 95V91C100 90.8022 100.059 90.6089 100.169 90.4445C100.278 90.2801 100.435 90.152 100.617 90.0763C100.8 90.0006 101.001 89.9808 101.195 90.0194C101.389 90.058 101.567 90.1532 101.707 90.293C101.984 90.5737 102.323 90.785 102.697 90.9096C103.071 91.0342 103.469 91.0686 103.859 91.01C104.013 90.9881 104.169 91.0023 104.316 91.0514C104.464 91.1005 104.597 91.1832 104.707 91.2929C104.817 91.4026 104.9 91.5363 104.949 91.6835C104.998 91.8307 105.012 91.9873 104.99 92.141C104.931 92.5308 104.966 92.929 105.09 93.303C105.215 93.677 105.426 94.0162 105.707 94.293C105.847 94.4328 105.942 94.611 105.981 94.8049C106.019 94.9989 105.999 95.1999 105.924 95.3826C105.848 95.5653 105.72 95.7215 105.555 95.8314C105.391 95.9413 105.198 95.9999 105 96H101" stroke="black" stroke-width="2" stroke-linecap="round" stroke-linejoin="round"/>
<path id="Vector_67" d="M86 90L106 110" stroke="black" stroke-width="2" stroke-linecap="round" stroke-linejoin="round"/>
<path id="Vector_68" d="M91.9998 105V109C91.9997 109.198 91.9411 109.391 91.8312 109.555C91.7213 109.72 91.5651 109.848 91.3824 109.924C91.1997 109.999 90.9987 110.019 90.8048 109.981C90.6108 109.942 90.4326 109.847 90.2928 109.707C90.016 109.426 89.6768 109.215 89.3028 109.09C88.9288 108.966 88.5306 108.931 88.1408 108.99C87.9872 109.012 87.8306 108.998 87.6834 108.949C87.5362 108.9 87.4024 108.817 87.2927 108.707C87.183 108.597 87.1003 108.464 87.0512 108.316C87.0021 108.169 86.9879 108.013 87.0098 107.859C87.0684 107.469 87.034 107.071 86.9094 106.697C86.7848 106.323 86.5735 105.984 86.2928 105.707C86.153 105.567 86.0578 105.389 86.0192 105.195C85.9806 105.001 86.0004 104.8 86.0761 104.617C86.1518 104.435 86.2799 104.278 86.4443 104.169C86.6087 104.059 86.802 104 86.9998 104H90.9998" stroke="black" stroke-width="2" stroke-linecap="round" stroke-linejoin="round"/>
</g></svg>
