<svg viewBox="0 0 24 24" fill="none" xmlns="http://www.w3.org/2000/svg"><g transform="translate(-52 -88)">
<path id="Vector_57" d="M62.7998 93L64.9108 97.223" stroke="black" stroke-width="2" stroke-linecap="round" stroke-linejoin="round"/>
<path id="Vector_58" d="M69.75 95L67 90.1" stroke="black" stroke-width="2" stroke-linecap="round" stroke-linejoin="round"/>
<path id="Vector_59" d="M56.874 102.647L58.994 106.887" stroke="black" stroke-width="2" stroke-linecap="round" stroke-linejoin="round"/>
<path id="Vector_60" d="M57.7001 109C57.5688 109.23 57.3935 109.432 57.1842 109.594C56.975 109.756 56.7358 109.875 56.4805 109.945C55.9647 110.085 55.4143 110.015 54.9501 109.75C54.486 109.485 54.1462 109.046 54.0056 108.53C53.8649 108.015 53.9349 107.464 54.2001 107L62.8001 93C63.5958 91.6209 64.9067 90.6143 66.4445 90.2017C67.9823 89.7891 69.621 90.0043 71.0001 90.8C72.3793 91.5956 73.3858 92.9066 73.7984 94.4444C74.211 95.9822 73.9958 97.6209 73.2001 99C73.0698 99.2293 72.8953 99.4305 72.6869 99.5921C72.4784 99.7537 72.2401 99.8725 71.9855 99.9416C71.731 100.011 71.4653 100.029 71.2037 99.9948C70.9422 99.9608 70.6899 99.8754 70.4615 99.7435C70.2331 99.6116 70.033 99.4359 69.8728 99.2263C69.7125 99.0168 69.5954 98.7777 69.5279 98.5227C69.4605 98.2677 69.4442 98.0019 69.4799 97.7405C69.5157 97.4792 69.6027 97.2275 69.7361 97C69.8695 96.7724 69.9566 96.5208 69.9923 96.2594C70.0281 95.9981 70.0118 95.7323 69.9443 95.4773C69.8769 95.2223 69.7597 94.9832 69.5995 94.7736C69.4393 94.5641 69.2392 94.3883 69.0108 94.2565C68.7824 94.1246 68.5301 94.0392 68.2686 94.0052C68.007 93.9712 67.7413 93.9893 67.4868 94.0584C67.2322 94.1275 66.9938 94.2463 66.7854 94.4079C66.5769 94.5695 66.4025 94.7707 66.2721 95L57.7001 109Z" stroke="black" stroke-width="2" stroke-linecap="round" stroke-linejoin="round"/>
<path id="Vector_61" d="M59.9062 97.712L61.9113 102.123" stroke="black" stroke-width="2" stroke-linecap="round" stroke-linejoin="round"/>
</g></svg>
