<svg viewBox="0 0 24 24" fill="none" xmlns="http://www.w3.org/2000/svg"><g transform="translate(-20 -88)">
<path id="Vector_52" d="M30 95V105.9" stroke="black" stroke-width="2" stroke-linecap="round" stroke-linejoin="round"/>
<path id="Vector_53" d="M34 94.1V105" stroke="black" stroke-width="2" stroke-linecap="round" stroke-linejoin="round"/>
<path id="Vector_54" d="M36 95V91C36 90.8022 36.0587 90.6089 36.1686 90.4445C36.2785 90.2801 36.4346 90.152 36.6173 90.0763C36.8 90.0006 37.0011 89.9808 37.195 90.0194C37.389 90.058 37.5671 90.1532 37.707 90.293C37.9838 90.5737 38.323 90.785 38.697 90.9096C39.071 91.0342 39.4692 91.0686 39.859 91.01C40.0126 90.9881 40.1692 91.0023 40.3164 91.0514C40.4636 91.1005 40.5974 91.1832 40.7071 91.2929C40.8168 91.4026 40.8995 91.5363 40.9486 91.6835C40.9977 91.8307 41.0119 91.9873 40.99 92.141C40.9314 92.5308 40.9658 92.929 41.0904 93.303C41.215 93.677 41.4263 94.0162 41.707 94.293C41.8468 94.4328 41.942 94.611 41.9806 94.8049C42.0192 94.9989 41.9993 95.1999 41.9237 95.3826C41.848 95.5653 41.7199 95.7215 41.5555 95.8314C41.391 95.9413 41.1978 95.9999 41 96H37" stroke="black" stroke-width="2" stroke-linecap="round" stroke-linejoin="round"/>
<path id="Vector_55" d="M34.9137 94.3808C35.5204 94.6321 36.0716 95.0006 36.5359 95.465C37.4733 96.4026 37.9999 97.6742 37.9999 99C37.9999 100.326 37.4733 101.597 36.5359 102.535L34.5359 104.535C34.0716 104.999 33.5204 105.368 32.9137 105.619C32.3069 105.871 31.6567 106 30.9999 106C30.3432 106 29.6929 105.871 29.0862 105.619C28.4795 105.368 27.9282 104.999 27.4639 104.535C26.5266 103.597 26 102.326 26 101C26 99.6742 26.5266 98.4026 27.4639 97.465L29.4639 95.465C29.9282 95.0006 30.4795 94.6321 31.0862 94.3808C31.6929 94.1294 32.3432 94.0001 32.9999 94.0001C33.6567 94.0001 34.3069 94.1294 34.9137 94.3808Z" stroke="black" stroke-width="2" stroke-linecap="round" stroke-linejoin="round"/>
<path id="Vector_56" d="M27.9998 105V109C27.9997 109.198 27.9411 109.391 27.8312 109.555C27.7213 109.72 27.5651 109.848 27.3824 109.924C27.1997 109.999 26.9987 110.019 26.8048 109.981C26.6108 109.942 26.4326 109.847 26.2928 109.707C26.016 109.426 25.6768 109.215 25.3028 109.09C24.9288 108.966 24.5306 108.931 24.1408 108.99C23.9872 109.012 23.8306 108.998 23.6834 108.949C23.5362 108.9 23.4024 108.817 23.2927 108.707C23.183 108.597 23.1003 108.464 23.0512 108.316C23.0021 108.169 22.9879 108.013 23.0098 107.859C23.0684 107.469 23.034 107.071 22.9094 106.697C22.7848 106.323 22.5735 105.984 22.2928 105.707C22.153 105.567 22.0578 105.389 22.0192 105.195C21.9806 105.001 22.0004 104.8 22.0761 104.617C22.1518 104.435 22.2799 104.278 22.4443 104.169C22.6087 104.059 22.802 104 22.9998 104H26.9998" stroke="black" stroke-width="2" stroke-linecap="round" stroke-linejoin="round"/>
</g></svg>
