<svg viewBox="0 0 24 24" fill="none" xmlns="http://www.w3.org/2000/svg"><g transform="translate(-244 -56)">
<path id="Vector_41" d="M256 78V74" stroke="black" stroke-width="2" stroke-linecap="round" stroke-linejoin="round"/>
<path id="Vector_42" d="M251 68C249.5 68 246.5 69.5 246 71C249.5 72.5 252 72 252 72C250.5 73.5 250 75.5 250 77C252.5 77 254.5 75.5 256 74C257.5 75.5 259.5 77 262 77C262 75.5 261.5 73.5 260 72C260 72 262.5 72.5 266 71C265.5 69.5 262.5 68 261 68C262.5 67 265 64 265 62C262.5 62 259.5 63.5 258 65C258 62.5 257.5 60 256 58C254.5 60 254 62.5 254 65C252.5 63.5 249.5 62 247 62C247 64 249.5 67 251 68Z" stroke="black" stroke-width="2" stroke-linecap="round" stroke-linejoin="round"/>
</g></svg>
