<svg viewBox="0 0 24 24" fill="none" xmlns="http://www.w3.org/2000/svg"><g transform="translate(-276 -56)">
<path id="Vector_43" d="M288 78V74C289.5 75.5 291.5 77 294 77C294 75.5 293.5 73.5 292 72" stroke="black" stroke-width="2" stroke-linecap="round" stroke-linejoin="round"/>
<path id="Vector_44" d="M289.988 64.327C289.902 62.054 289.365 59.82 288 58C287.352 58.8747 286.863 59.8562 286.555 60.9" stroke="black" stroke-width="2" stroke-linecap="round" stroke-linejoin="round"/>
<path id="Vector_45" d="M293.375 67.725C294.882 66.53 297 63.841 297 62C294.676 62 291.92 63.296 290.338 64.684" stroke="black" stroke-width="2" stroke-linecap="round" stroke-linejoin="round"/>
<path id="Vector_46" d="M278 58L298 78" stroke="black" stroke-width="2" stroke-linecap="round" stroke-linejoin="round"/>
<path id="Vector_47" d="M297.024 71.378C297.354 71.2634 297.679 71.1373 298 71C297.574 69.721 295.33 68.443 293.75 68.093" stroke="black" stroke-width="2" stroke-linecap="round" stroke-linejoin="round"/>
<path id="Vector_48" d="M282.995 62.992C281.714 62.4 280.29 62 279 62C279 64 281.5 67 283 68C281.5 68 278.5 69.5 278 71C281.5 72.5 284 72 284 72C282.5 73.5 282 75.5 282 77C284.5 77 286.5 75.5 288 74" stroke="black" stroke-width="2" stroke-linecap="round" stroke-linejoin="round"/>
</g></svg>
