<svg viewBox="0 0 24 24" fill="none" xmlns="http://www.w3.org/2000/svg"><g transform="translate(-276 -56)">
<path id="Vector_48" d="M286 58H290" stroke="black" stroke-width="2" stroke-linecap="round" stroke-linejoin="round"/>
<path id="Vector_49" d="M297 64L295 66L293.5 62.3C293.359 61.9214 293.106 61.5945 292.775 61.3624C292.444 61.1303 292.05 61.004 291.646 61H284.4C283.993 60.9907 283.592 61.1061 283.252 61.3307C282.912 61.5554 282.648 61.8786 282.497 62.257L281 66L279 64" stroke="black" stroke-width="2" stroke-linecap="round" stroke-linejoin="round"/>
<path id="Vector_50" d="M283 70H283.01" stroke="black" stroke-width="2" stroke-linecap="round" stroke-linejoin="round"/>
<path id="Vector_51" d="M293 70H293.01" stroke="black" stroke-width="2" stroke-linecap="round" stroke-linejoin="round"/>
<path id="Vector_52" d="M295 66H281C279.895 66 279 66.8954 279 68V72C279 73.1046 279.895 74 281 74H295C296.105 74 297 73.1046 297 72V68C297 66.8954 296.105 66 295 66Z" stroke="black" stroke-width="2" stroke-linecap="round" stroke-linejoin="round"/>
<path id="Vector_53" d="M281 74V76" stroke="black" stroke-width="2" stroke-linecap="round" stroke-linejoin="round"/>
<path id="Vector_54" d="M295 74V76" stroke="black" stroke-width="2" stroke-linecap="round" stroke-linejoin="round"/>
</g></svg>
