<svg viewBox="0 0 24 24" fill="none" xmlns="http://www.w3.org/2000/svg"><g transform="translate(-244 -56)">
<path id="Vector_42" d="M265 64L263 66L261.5 62.3C261.359 61.9214 261.106 61.5945 260.775 61.3624C260.444 61.1303 260.05 61.004 259.646 61H252.4C251.993 60.9907 251.592 61.1061 251.252 61.3307C250.912 61.5554 250.648 61.8786 250.497 62.257L249 66L247 64" stroke="black" stroke-width="2" stroke-linecap="round" stroke-linejoin="round"/>
<path id="Vector_43" d="M251 70H251.01" stroke="black" stroke-width="2" stroke-linecap="round" stroke-linejoin="round"/>
<path id="Vector_44" d="M261 70H261.01" stroke="black" stroke-width="2" stroke-linecap="round" stroke-linejoin="round"/>
<path id="Vector_45" d="M263 66H249C247.895 66 247 66.8954 247 68V72C247 73.1046 247.895 74 249 74H263C264.105 74 265 73.1046 265 72V68C265 66.8954 264.105 66 263 66Z" stroke="black" stroke-width="2" stroke-linecap="round" stroke-linejoin="round"/>
<path id="Vector_46" d="M249 74V76" stroke="black" stroke-width="2" stroke-linecap="round" stroke-linejoin="round"/>
<path id="Vector_47" d="M263 74V76" stroke="black" stroke-width="2" stroke-linecap="round" stroke-linejoin="round"/>
</g></svg>
