<svg viewBox="0 0 24 24" fill="none" xmlns="http://www.w3.org/2000/svg"><g transform="translate(-180 -56)">
<path id="Vector_34" d="M199 73H201C201.6 73 202 72.6 202 72V69C202 68.1 201.3 67.3 200.5 67.1C198.7 66.6 196 66 196 66C196 66 194.7 64.6 193.8 63.7C193.3 63.3 192.7 63 192 63H185C184.4 63 183.9 63.4 183.6 63.9L182.2 66.8C182.068 67.1862 182 67.5917 182 68V72C182 72.6 182.4 73 183 73H185" stroke="black" stroke-width="2" stroke-linecap="round" stroke-linejoin="round"/>
<path id="Vector_35" d="M187 75C188.105 75 189 74.1046 189 73C189 71.8954 188.105 71 187 71C185.895 71 185 71.8954 185 73C185 74.1046 185.895 75 187 75Z" stroke="black" stroke-width="2" stroke-linecap="round" stroke-linejoin="round"/>
<path id="Vector_36" d="M189 73H195" stroke="black" stroke-width="2" stroke-linecap="round" stroke-linejoin="round"/>
<path id="Vector_37" d="M197 75C198.105 75 199 74.1046 199 73C199 71.8954 198.105 71 197 71C195.895 71 195 71.8954 195 73C195 74.1046 195.895 75 197 75Z" stroke="black" stroke-width="2" stroke-linecap="round" stroke-linejoin="round"/>
</g></svg>
