<svg viewBox="0 0 24 24" fill="none" xmlns="http://www.w3.org/2000/svg"><g transform="translate(-212 -56)">
<path id="Vector_38" d="M230 75V65C230 63.9391 229.579 62.9217 228.828 62.1716C228.078 61.4214 227.061 61 226 61H218C216.939 61 215.922 61.4214 215.172 62.1716C214.421 62.9217 214 63.9391 214 65V73C214 73.5304 214.211 74.0391 214.586 74.4142C214.961 74.7893 215.47 75 216 75H218" stroke="black" stroke-width="2" stroke-linecap="round" stroke-linejoin="round"/>
<path id="Vector_39" d="M214 65H217C217.265 65 217.52 65.1054 217.707 65.2929C217.895 65.4804 218 65.7348 218 66V68C218 68.2652 217.895 68.5196 217.707 68.7071C217.52 68.8946 217.265 69 217 69H214" stroke="black" stroke-width="2" stroke-linecap="round" stroke-linejoin="round"/>
<path id="Vector_40" d="M234 73V74C234 74.2652 233.895 74.5196 233.707 74.7071C233.52 74.8946 233.265 75 233 75H222V66C222 65.7348 222.105 65.4804 222.293 65.2929C222.48 65.1054 222.735 65 223 65H225C225.265 65 225.52 65.1054 225.707 65.2929C225.895 65.4804 226 65.7348 226 66V75" stroke="black" stroke-width="2" stroke-linecap="round" stroke-linejoin="round"/>
<path id="Vector_41" d="M220 77C221.105 77 222 76.1046 222 75C222 73.8954 221.105 73 220 73C218.895 73 218 73.8954 218 75C218 76.1046 218.895 77 220 77Z" stroke="black" stroke-width="2" stroke-linecap="round" stroke-linejoin="round"/>
</g></svg>
