<svg viewBox="0 0 24 24" fill="none" xmlns="http://www.w3.org/2000/svg"><g transform="translate(-148 -88)">
<path id="Vector_62" d="M160 102V106" stroke="black" stroke-width="2" stroke-linecap="round" stroke-linejoin="round"/>
<path id="Vector_63" d="M162.172 90C162.702 90.0001 163.211 90.2109 163.586 90.586L167.414 94.414C167.789 94.789 168 95.2976 168 95.828V108C168 108.53 167.789 109.039 167.414 109.414C167.039 109.789 166.53 110 166 110H154C153.47 110 152.961 109.789 152.586 109.414C152.211 109.039 152 108.53 152 108V92C152 91.4696 152.211 90.9609 152.586 90.5858C152.961 90.2107 153.47 90 154 90H162.172Z" stroke="black" stroke-width="2" stroke-linecap="round" stroke-linejoin="round"/>
<path id="Vector_64" d="M156 102H164" stroke="black" stroke-width="2" stroke-linecap="round" stroke-linejoin="round"/>
<path id="Vector_65" d="M163 98H157C156.448 98 156 98.4477 156 99V105C156 105.552 156.448 106 157 106H163C163.552 106 164 105.552 164 105V99C164 98.4477 163.552 98 163 98Z" stroke="black" stroke-width="2" stroke-linecap="round" stroke-linejoin="round"/>
</g></svg>
