<svg viewBox="0 0 24 24" fill="none" xmlns="http://www.w3.org/2000/svg"><g transform="translate(-116 -88)">
<path id="Vector_69" d="M131 104C131.928 103.072 132.449 101.813 132.449 100.5C132.449 99.1872 131.928 97.9282 131 97C130.071 96.0717 128.812 95.5502 127.5 95.5502C126.187 95.5502 124.928 96.0717 124 97C121.333 99.6666 119.337 103.795 118.013 109.385C117.993 109.468 117.995 109.555 118.018 109.637C118.041 109.719 118.085 109.794 118.145 109.854C118.206 109.914 118.281 109.958 118.363 109.982C118.445 110.005 118.532 110.007 118.615 109.987C124.205 108.662 128.333 106.667 131 104ZM131 104L128 101" stroke="black" stroke-width="2" stroke-linecap="round" stroke-linejoin="round"/>
<path id="Vector_70" d="M131 97C133.667 99.6667 136 99.6667 138 97C136 94.3333 133.667 94.3333 131 97ZM131 97C133.667 94.3333 133.667 92 131 90C128.333 92 128.333 94.3333 131 97Z" stroke="black" stroke-width="2" stroke-linecap="round" stroke-linejoin="round"/>
<path id="Vector_71" d="M124 103L121.42 100.42" stroke="black" stroke-width="2" stroke-linecap="round" stroke-linejoin="round"/>
</g></svg>
