<svg viewBox="0 0 24 24" fill="none" xmlns="http://www.w3.org/2000/svg"><g transform="translate(-116 -56)">
<path id="Vector_9" d="M126 65V72" stroke="black" stroke-width="2" stroke-linecap="round" stroke-linejoin="round"/>
<path id="Vector_10" d="M130 62V72" stroke="black" stroke-width="2" stroke-linecap="round" stroke-linejoin="round"/>
<path id="Vector_11" d="M133.5 72C135.433 72 137 70.433 137 68.5C137 66.567 135.433 65 133.5 65C131.567 65 130 66.567 130 68.5C130 70.433 131.567 72 133.5 72Z" stroke="black" stroke-width="2" stroke-linecap="round" stroke-linejoin="round"/>
<path id="Vector_12" d="M122.5 72C124.433 72 126 70.433 126 68.5C126 66.567 124.433 65 122.5 65C120.567 65 119 66.567 119 68.5C119 70.433 120.567 72 122.5 72Z" stroke="black" stroke-width="2" stroke-linecap="round" stroke-linejoin="round"/>
</g></svg>
