<svg viewBox="0 0 24 24" fill="none" xmlns="http://www.w3.org/2000/svg"><g transform="translate(-180 -56)">
<path id="Vector_17" d="M195 67H199.5C200.163 67 200.799 67.2634 201.268 67.7322C201.737 68.2011 202 68.837 202 69.5C202 70.163 201.737 70.7989 201.268 71.2678C200.799 71.7366 200.163 72 199.5 72H195.5C195.367 72 195.24 71.9473 195.146 71.8536C195.053 71.7598 195 71.6326 195 71.5V62.5C195 62.3674 195.053 62.2402 195.146 62.1464C195.24 62.0527 195.367 62 195.5 62H198.5C199.163 62 199.799 62.2634 200.268 62.7322C200.737 63.2011 201 63.837 201 64.5C201 65.163 200.737 65.7989 200.268 66.2678C199.799 66.7366 199.163 67 198.5 67" stroke="black" stroke-width="2" stroke-linecap="round" stroke-linejoin="round"/>
<path id="Vector_18" d="M182 72L186.039 62.31C186.077 62.2189 186.141 62.1411 186.223 62.0864C186.305 62.0317 186.402 62.0024 186.501 62.0024C186.599 62.0024 186.696 62.0317 186.778 62.0864C186.86 62.1411 186.924 62.2189 186.962 62.31L191 72" stroke="black" stroke-width="2" stroke-linecap="round" stroke-linejoin="round"/>
<path id="Vector_19" d="M183.304 69H189.696" stroke="black" stroke-width="2" stroke-linecap="round" stroke-linejoin="round"/>
</g></svg>
