<svg viewBox="0 0 24 24" fill="none" xmlns="http://www.w3.org/2000/svg"><g transform="translate(-148 -56)">
<path id="Vector_13" d="M150 72L154.039 62.31C154.077 62.2189 154.141 62.1411 154.223 62.0864C154.305 62.0317 154.402 62.0024 154.501 62.0024C154.599 62.0024 154.696 62.0317 154.778 62.0864C154.86 62.1411 154.924 62.2189 154.962 62.31L159 72" stroke="black" stroke-width="2" stroke-linecap="round" stroke-linejoin="round"/>
<path id="Vector_14" d="M170 65V72" stroke="black" stroke-width="2" stroke-linecap="round" stroke-linejoin="round"/>
<path id="Vector_15" d="M151.304 69H157.696" stroke="black" stroke-width="2" stroke-linecap="round" stroke-linejoin="round"/>
<path id="Vector_16" d="M166.5 72C168.433 72 170 70.433 170 68.5C170 66.567 168.433 65 166.5 65C164.567 65 163 66.567 163 68.5C163 70.433 164.567 72 166.5 72Z" stroke="black" stroke-width="2" stroke-linecap="round" stroke-linejoin="round"/>
</g></svg>
