<svg viewBox="0 0 24 24" fill="none" xmlns="http://www.w3.org/2000/svg"><g transform="translate(-276 -56)">
<path id="Vector_31" d="M296 60H280C278.895 60 278 60.8954 278 62V74C278 75.1046 278.895 76 280 76H296C297.105 76 298 75.1046 298 74V62C298 60.8954 297.105 60 296 60Z" stroke="black" stroke-width="2" stroke-linecap="round" stroke-linejoin="round"/>
<path id="Vector_32" d="M284 68C285.105 68 286 67.1046 286 66C286 64.8954 285.105 64 284 64C282.895 64 282 64.8954 282 66C282 67.1046 282.895 68 284 68Z" stroke="black" stroke-width="2" stroke-linecap="round" stroke-linejoin="round"/>
<path id="Vector_33" d="M284 68H292" stroke="black" stroke-width="2" stroke-linecap="round" stroke-linejoin="round"/>
<path id="Vector_34" d="M292 68C293.105 68 294 67.1046 294 66C294 64.8954 293.105 64 292 64C290.895 64 290 64.8954 290 66C290 67.1046 290.895 68 292 68Z" stroke="black" stroke-width="2" stroke-linecap="round" stroke-linejoin="round"/>
<path id="Vector_35" d="M282 76L282.7 73.1C282.77 72.7827 282.947 72.4994 283.203 72.2988C283.458 72.0981 283.775 71.9925 284.1 72H291.9C292.211 71.9871 292.518 72.0784 292.772 72.2596C293.025 72.4407 293.211 72.7013 293.3 73L294 76" stroke="black" stroke-width="2" stroke-linecap="round" stroke-linejoin="round"/>
</g></svg>
