<svg viewBox="0 0 24 24" fill="none" xmlns="http://www.w3.org/2000/svg"><g transform="translate(-308 -56)">
<path id="Vector_36" d="M310 64V62C310 61.4696 310.211 60.9609 310.586 60.5858C310.961 60.2107 311.47 60 312 60H328C328.53 60 329.039 60.2107 329.414 60.5858C329.789 60.9609 330 61.4696 330 62V74C330 74.5304 329.789 75.0391 329.414 75.4142C329.039 75.7893 328.53 76 328 76H322" stroke="black" stroke-width="2" stroke-linecap="round" stroke-linejoin="round"/>
<path id="Vector_37" d="M310 68C312.047 68.2173 313.958 69.1299 315.414 70.5858C316.87 72.0416 317.783 73.9526 318 76" stroke="black" stroke-width="2" stroke-linecap="round" stroke-linejoin="round"/>
<path id="Vector_38" d="M310 72C310.993 72.1849 311.906 72.666 312.62 73.3799C313.334 74.0939 313.815 75.0073 314 76" stroke="black" stroke-width="2" stroke-linecap="round" stroke-linejoin="round"/>
<path id="Vector_39" d="M310 76H310.01" stroke="black" stroke-width="2" stroke-linecap="round" stroke-linejoin="round"/>
</g></svg>
