<svg viewBox="0 0 24 24" fill="none" xmlns="http://www.w3.org/2000/svg"><g transform="translate(-84 -56)">
<path id="Vector_17" d="M94 61V59" stroke="black" stroke-width="2" stroke-linecap="round" stroke-linejoin="round"/>
<path id="Vector_18" d="M98 61V59" stroke="black" stroke-width="2" stroke-linecap="round" stroke-linejoin="round"/>
<path id="Vector_19" d="M99 77V74C99 73.2044 98.6839 72.4413 98.1213 71.8787C97.5587 71.3161 96.7956 71 96 71C95.2044 71 94.4413 71.3161 93.8787 71.8787C93.3161 72.4413 93 73.2044 93 74V77" stroke="black" stroke-width="2" stroke-linecap="round" stroke-linejoin="round"/>
<path id="Vector_20" d="M102 59V67" stroke="black" stroke-width="2" stroke-linecap="round" stroke-linejoin="round"/>
<path id="Vector_21" d="M102 61H90" stroke="black" stroke-width="2" stroke-linecap="round" stroke-linejoin="round"/>
<path id="Vector_22" d="M106 67H86" stroke="black" stroke-width="2" stroke-linecap="round" stroke-linejoin="round"/>
<path id="Vector_23" d="M106 65V75C106 75.5304 105.789 76.0391 105.414 76.4142C105.039 76.7893 104.53 77 104 77H88C87.4696 77 86.9609 76.7893 86.5858 76.4142C86.2107 76.0391 86 75.5304 86 75V65" stroke="black" stroke-width="2" stroke-linecap="round" stroke-linejoin="round"/>
<path id="Vector_24" d="M90 59V67" stroke="black" stroke-width="2" stroke-linecap="round" stroke-linejoin="round"/>
</g></svg>
