<svg viewBox="0 0 24 24" fill="none" xmlns="http://www.w3.org/2000/svg"><g transform="translate(-84 -56)">
<path id="Vector_13" d="M95.9996 61C96.6696 61 97.3496 61.09 97.9996 61.26C99.7796 59.26 103.03 58.42 104.42 59C105.82 59.58 104 66 104 66C104.57 67.07 105 68.24 105 69.44C105 73.9 100.97 77 95.9996 77C91.0296 77 86.9996 74 86.9996 69.44C86.9996 68.19 87.4996 67.04 87.9996 66C87.9996 66 86.1096 59.58 87.4996 59C88.8896 58.42 92.2196 59.23 93.9996 61.23C94.6556 61.0791 95.3264 61.002 95.9996 61Z" stroke="black" stroke-width="2" stroke-linecap="round" stroke-linejoin="round"/>
<path id="Vector_14" d="M92 70V70.5" stroke="black" stroke-width="2" stroke-linecap="round" stroke-linejoin="round"/>
<path id="Vector_15" d="M100 70V70.5" stroke="black" stroke-width="2" stroke-linecap="round" stroke-linejoin="round"/>
<path id="Vector_16" d="M95.25 72.25H96.75L96 73L95.25 72.25Z" stroke="black" stroke-width="2" stroke-linecap="round" stroke-linejoin="round"/>
</g></svg>
