<svg viewBox="0 0 24 24" fill="none" xmlns="http://www.w3.org/2000/svg"><g transform="translate(-52 -56)">
<path id="Vector_6" d="M64.3086 62.652L69.1056 65.053C69.3426 65.1716 69.5228 65.3795 69.6066 65.631C69.6905 65.8824 69.671 66.1569 69.5526 66.394L69.0516 67.395L69.6566 68H72.3816C72.552 68.0001 72.7195 68.0437 72.8683 68.1267C73.0171 68.2097 73.1422 68.3294 73.2318 68.4744C73.3213 68.6193 73.3724 68.7848 73.38 68.955C73.3877 69.1252 73.3518 69.2946 73.2756 69.447L72.5516 70.895" stroke="black" stroke-width="2" stroke-linecap="round" stroke-linejoin="round"/>
<path id="Vector_7" d="M67.1663 71.166L66.4473 72.605C66.3886 72.7225 66.3073 72.8272 66.208 72.9133C66.1088 72.9993 65.9936 73.065 65.8689 73.1065C65.7443 73.148 65.6127 73.1646 65.4817 73.1552C65.3507 73.1459 65.2228 73.1108 65.1053 73.052L55.6103 68.3C54.9207 67.9526 54.3967 67.3462 54.153 66.6134C53.9094 65.8806 53.966 65.0812 54.3103 64.39L55.6903 61.6C55.8953 61.1902 56.1945 60.8348 56.5633 60.563" stroke="black" stroke-width="2" stroke-linecap="round" stroke-linejoin="round"/>
<path id="Vector_8" d="M54 75H57.76C58.1327 75.0026 58.4988 74.901 58.8168 74.7067C59.1349 74.5123 59.3923 74.2329 59.56 73.9L61.001 70.998" stroke="black" stroke-width="2" stroke-linecap="round" stroke-linejoin="round"/>
<path id="Vector_9" d="M54 58L74 78" stroke="black" stroke-width="2" stroke-linecap="round" stroke-linejoin="round"/>
<path id="Vector_10" d="M54 77V73" stroke="black" stroke-width="2" stroke-linecap="round" stroke-linejoin="round"/>
<path id="Vector_11" d="M59 65H59.01" stroke="black" stroke-width="2" stroke-linecap="round" stroke-linejoin="round"/>
</g></svg>
