<svg viewBox="0 0 24 24" fill="none" xmlns="http://www.w3.org/2000/svg"><g transform="translate(-20 -56)">
<path id="Vector" d="M36.7502 68H40.3822C40.5525 68.0001 40.7201 68.0437 40.8689 68.1267C41.0177 68.2098 41.1428 68.3294 41.2324 68.4744C41.3219 68.6194 41.3729 68.7848 41.3806 68.955C41.3883 69.1252 41.3523 69.2946 41.2762 69.447L39.2422 73.516C39.165 73.6702 39.0494 73.8018 38.9064 73.8981C38.7634 73.9944 38.5979 74.0521 38.426 74.0656C38.2541 74.0791 38.0817 74.0479 37.9254 73.9751C37.7692 73.9022 37.6344 73.7903 37.5342 73.65L35.4102 70.68" stroke="black" stroke-width="2" stroke-linecap="round" stroke-linejoin="round"/>
<path id="Vector_2" d="M37.1063 65.053C37.3433 65.1717 37.5236 65.3796 37.6074 65.631C37.6912 65.8825 37.6717 66.1569 37.5533 66.394L34.4473 72.605C34.3886 72.7225 34.3073 72.8273 34.208 72.9133C34.1088 72.9994 33.9936 73.065 33.8689 73.1066C33.7443 73.1481 33.6127 73.1646 33.4817 73.1553C33.3507 73.1459 33.2228 73.1108 33.1053 73.052L23.6103 68.3C22.9207 67.9527 22.3967 67.3462 22.153 66.6134C21.9094 65.8807 21.966 65.0812 22.3103 64.39L23.6903 61.6C23.8623 61.2573 24.1002 60.9517 24.3903 60.7009C24.6804 60.45 25.017 60.2588 25.381 60.1381C25.7451 60.0173 26.1293 59.9695 26.5118 59.9973C26.8943 60.0251 27.2676 60.128 27.6103 60.3L37.1063 65.053Z" stroke="black" stroke-width="2" stroke-linecap="round" stroke-linejoin="round"/>
<path id="Vector_3" d="M22 75H25.76C26.1327 75.0026 26.4988 74.901 26.8168 74.7066C27.1349 74.5122 27.3923 74.2329 27.56 73.9L29 71" stroke="black" stroke-width="2" stroke-linecap="round" stroke-linejoin="round"/>
<path id="Vector_4" d="M22 77V73" stroke="black" stroke-width="2" stroke-linecap="round" stroke-linejoin="round"/>
<path id="Vector_5" d="M27 65H27.01" stroke="black" stroke-width="2" stroke-linecap="round" stroke-linejoin="round"/>
</g></svg>
