<svg viewBox="0 0 24 24" fill="none" xmlns="http://www.w3.org/2000/svg"><g transform="translate(-84 -56)">
<path id="Vector_7" d="M87 59V75C87 75.5304 87.2107 76.0391 87.5858 76.4142C87.9609 76.7893 88.4696 77 89 77H105" stroke="black" stroke-width="2" stroke-linecap="round" stroke-linejoin="round"/>
<path id="Vector_8" d="M99 69H92C91.4477 69 91 69.4477 91 70V72C91 72.5523 91.4477 73 92 73H99C99.5523 73 100 72.5523 100 72V70C100 69.4477 99.5523 69 99 69Z" stroke="black" stroke-width="2" stroke-linecap="round" stroke-linejoin="round"/>
<path id="Vector_9" d="M102 61H92C91.4477 61 91 61.4477 91 62V64C91 64.5523 91.4477 65 92 65H102C102.552 65 103 64.5523 103 64V62C103 61.4477 102.552 61 102 61Z" stroke="black" stroke-width="2" stroke-linecap="round" stroke-linejoin="round"/>
</g></svg>
