<svg viewBox="0 0 24 24" fill="none" xmlns="http://www.w3.org/2000/svg"><g transform="translate(-372 -56)">
<path id="Vector_45" d="M383 69H379" stroke="black" stroke-width="2" stroke-linecap="round" stroke-linejoin="round"/>
<path id="Vector_46" d="M391 65H387" stroke="black" stroke-width="2" stroke-linecap="round" stroke-linejoin="round"/>
<path id="Vector_47" d="M375 59V75C375 75.5304 375.211 76.0391 375.586 76.4142C375.961 76.7893 376.47 77 377 77H393" stroke="black" stroke-width="2" stroke-linecap="round" stroke-linejoin="round"/>
<path id="Vector_48" d="M390 61H388C387.448 61 387 61.4477 387 62V72C387 72.5523 387.448 73 388 73H390C390.552 73 391 72.5523 391 72V62C391 61.4477 390.552 61 390 61Z" stroke="black" stroke-width="2" stroke-linecap="round" stroke-linejoin="round"/>
<path id="Vector_49" d="M382 64H380C379.448 64 379 64.4477 379 65V72C379 72.5523 379.448 73 380 73H382C382.552 73 383 72.5523 383 72V65C383 64.4477 382.552 64 382 64Z" stroke="black" stroke-width="2" stroke-linecap="round" stroke-linejoin="round"/>
</g></svg>
