<svg viewBox="0 0 24 24" fill="none" xmlns="http://www.w3.org/2000/svg"><g transform="translate(-20 -56)">
<path id="Vector" d="M23 59V75C23 75.5304 23.2107 76.0391 23.5858 76.4142C23.9609 76.7893 24.4696 77 25 77H41" stroke="black" stroke-width="2" stroke-linecap="round" stroke-linejoin="round"/>
<path id="Vector_2" d="M27 67.2069C27 67.0746 27.0525 66.9476 27.146 66.8539L29.146 64.8539C29.1924 64.8074 29.2476 64.7704 29.3084 64.7452C29.3691 64.72 29.4342 64.707 29.5 64.707C29.5658 64.707 29.6309 64.72 29.6916 64.7452C29.7524 64.7704 29.8076 64.8074 29.854 64.8539L33.146 68.1459C33.1924 68.1925 33.2476 68.2294 33.3084 68.2546C33.3691 68.2798 33.4342 68.2928 33.5 68.2928C33.5658 68.2928 33.6309 68.2798 33.6916 68.2546C33.7524 68.2294 33.8076 68.1925 33.854 68.1459L38.146 63.8539C38.2159 63.7839 38.3049 63.7361 38.402 63.7167C38.499 63.6973 38.5996 63.7072 38.691 63.745C38.7824 63.7827 38.8606 63.8468 38.9156 63.929C38.9706 64.0113 39 64.108 39 64.2069V71.9999C39 72.2651 38.8946 72.5195 38.7071 72.707C38.5196 72.8946 38.2652 72.9999 38 72.9999H28C27.7348 72.9999 27.4804 72.8946 27.2929 72.707C27.1054 72.5195 27 72.2651 27 71.9999V67.2069Z" stroke="black" stroke-width="2" stroke-linecap="round" stroke-linejoin="round"/>
</g></svg>
