<svg viewBox="0 0 24 24" fill="none" xmlns="http://www.w3.org/2000/svg"><g transform="translate(-308 -88)">
<path id="Vector_83" d="M315.5 96C315.776 96 316 95.7761 316 95.5C316 95.2239 315.776 95 315.5 95C315.224 95 315 95.2239 315 95.5C315 95.7761 315.224 96 315.5 96Z" fill="black" stroke="black" stroke-width="2" stroke-linecap="round" stroke-linejoin="round"/>
<path id="Vector_84" d="M326.5 94C326.776 94 327 93.7761 327 93.5C327 93.2239 326.776 93 326.5 93C326.224 93 326 93.2239 326 93.5C326 93.7761 326.224 94 326.5 94Z" fill="black" stroke="black" stroke-width="2" stroke-linecap="round" stroke-linejoin="round"/>
<path id="Vector_85" d="M319.5 100C319.776 100 320 99.7761 320 99.5C320 99.2239 319.776 99 319.5 99C319.224 99 319 99.2239 319 99.5C319 99.7761 319.224 100 319.5 100Z" fill="black" stroke="black" stroke-width="2" stroke-linecap="round" stroke-linejoin="round"/>
<path id="Vector_86" d="M315.5 105C315.776 105 316 104.776 316 104.5C316 104.224 315.776 104 315.5 104C315.224 104 315 104.224 315 104.5C315 104.776 315.224 105 315.5 105Z" fill="black" stroke="black" stroke-width="2" stroke-linecap="round" stroke-linejoin="round"/>
<path id="Vector_87" d="M325.5 103C325.776 103 326 102.776 326 102.5C326 102.224 325.776 102 325.5 102C325.224 102 325 102.224 325 102.5C325 102.776 325.224 103 325.5 103Z" fill="black" stroke="black" stroke-width="2" stroke-linecap="round" stroke-linejoin="round"/>
<path id="Vector_88" d="M311 91V107C311 107.53 311.211 108.039 311.586 108.414C311.961 108.789 312.47 109 313 109H329" stroke="black" stroke-width="2" stroke-linecap="round" stroke-linejoin="round"/>
</g></svg>
