<svg viewBox="0 0 24 24" fill="none" xmlns="http://www.w3.org/2000/svg"><g transform="translate(-212 -88)">
<path id="Vector_72" d="M224 104V109" stroke="black" stroke-width="2" stroke-linecap="round" stroke-linejoin="round"/>
<path id="Vector_73" d="M228 102.639V109" stroke="black" stroke-width="2" stroke-linecap="round" stroke-linejoin="round"/>
<path id="Vector_74" d="M232 98.656V109" stroke="black" stroke-width="2" stroke-linecap="round" stroke-linejoin="round"/>
<path id="Vector_75" d="M234 91L225.354 99.646C225.308 99.6926 225.252 99.7295 225.192 99.7547C225.131 99.7799 225.066 99.7929 225 99.7929C224.934 99.7929 224.869 99.7799 224.808 99.7547C224.748 99.7295 224.692 99.6926 224.646 99.646L221.354 96.354C221.26 96.2603 221.133 96.2076 221 96.2076C220.868 96.2076 220.741 96.2603 220.647 96.354L214 103" stroke="black" stroke-width="2" stroke-linecap="round" stroke-linejoin="round"/>
<path id="Vector_76" d="M216 106.463V109" stroke="black" stroke-width="2" stroke-linecap="round" stroke-linejoin="round"/>
<path id="Vector_77" d="M220 102.656V109" stroke="black" stroke-width="2" stroke-linecap="round" stroke-linejoin="round"/>
</g></svg>
