<svg viewBox="0 0 24 24" fill="none" xmlns="http://www.w3.org/2000/svg"><g transform="translate(-276 -56)">
<path id="Vector_34" d="M279 59V75C279 75.5304 279.211 76.0391 279.586 76.4142C279.961 76.7893 280.47 77 281 77H297" stroke="black" stroke-width="2" stroke-linecap="round" stroke-linejoin="round"/>
<path id="Vector_35" d="M294 61H292C291.448 61 291 61.4477 291 62V72C291 72.5523 291.448 73 292 73H294C294.552 73 295 72.5523 295 72V62C295 61.4477 294.552 61 294 61Z" stroke="black" stroke-width="2" stroke-linecap="round" stroke-linejoin="round"/>
<path id="Vector_36" d="M286 64H284C283.448 64 283 64.4477 283 65V72C283 72.5523 283.448 73 284 73H286C286.552 73 287 72.5523 287 72V65C287 64.4477 286.552 64 286 64Z" stroke="black" stroke-width="2" stroke-linecap="round" stroke-linejoin="round"/>
</g></svg>
