<svg viewBox="0 0 24 24" fill="none" xmlns="http://www.w3.org/2000/svg"><g transform="translate(-84 -88)">
<path id="Vector_56" d="M97.1104 95.6639L98.8904 98.3359" stroke="black" stroke-width="2" stroke-linecap="round" stroke-linejoin="round"/>
<path id="Vector_57" d="M98.1619 100.788L94.8379 102.212" stroke="black" stroke-width="2" stroke-linecap="round" stroke-linejoin="round"/>
<path id="Vector_58" d="M104 92L97.9404 93.515" stroke="black" stroke-width="2" stroke-linecap="round" stroke-linejoin="round"/>
<path id="Vector_59" d="M87 91V107C87 107.53 87.2107 108.039 87.5858 108.414C87.9609 108.789 88.4696 109 89 109H105" stroke="black" stroke-width="2" stroke-linecap="round" stroke-linejoin="round"/>
<path id="Vector_60" d="M96 96C97.1046 96 98 95.1046 98 94C98 92.8954 97.1046 92 96 92C94.8954 92 94 92.8954 94 94C94 95.1046 94.8954 96 96 96Z" stroke="black" stroke-width="2" stroke-linecap="round" stroke-linejoin="round"/>
<path id="Vector_61" d="M100 102C101.105 102 102 101.105 102 100C102 98.8954 101.105 98 100 98C98.8954 98 98 98.8954 98 100C98 101.105 98.8954 102 100 102Z" stroke="black" stroke-width="2" stroke-linecap="round" stroke-linejoin="round"/>
<path id="Vector_62" d="M93 105C94.1046 105 95 104.105 95 103C95 101.895 94.1046 101 93 101C91.8954 101 91 101.895 91 103C91 104.105 91.8954 105 93 105Z" stroke="black" stroke-width="2" stroke-linecap="round" stroke-linejoin="round"/>
</g></svg>
