<svg viewBox="0 0 24 24" fill="none" xmlns="http://www.w3.org/2000/svg"><g transform="translate(-212 -56)">
<path id="Vector_23" d="M221 61V65" stroke="black" stroke-width="2" stroke-linecap="round" stroke-linejoin="round"/>
<path id="Vector_24" d="M222 65H220C219.448 65 219 65.4477 219 66V70C219 70.5523 219.448 71 220 71H222C222.552 71 223 70.5523 223 70V66C223 65.4477 222.552 65 222 65Z" stroke="black" stroke-width="2" stroke-linecap="round" stroke-linejoin="round"/>
<path id="Vector_25" d="M221 71V73" stroke="black" stroke-width="2" stroke-linecap="round" stroke-linejoin="round"/>
<path id="Vector_26" d="M229 59V61" stroke="black" stroke-width="2" stroke-linecap="round" stroke-linejoin="round"/>
<path id="Vector_27" d="M230 61H228C227.448 61 227 61.4477 227 62V68C227 68.5523 227.448 69 228 69H230C230.552 69 231 68.5523 231 68V62C231 61.4477 230.552 61 230 61Z" stroke="black" stroke-width="2" stroke-linecap="round" stroke-linejoin="round"/>
<path id="Vector_28" d="M229 69V72" stroke="black" stroke-width="2" stroke-linecap="round" stroke-linejoin="round"/>
<path id="Vector_29" d="M215 59V75C215 75.5304 215.211 76.0391 215.586 76.4142C215.961 76.7893 216.47 77 217 77H233" stroke="black" stroke-width="2" stroke-linecap="round" stroke-linejoin="round"/>
</g></svg>
