<svg viewBox="0 0 24 24" fill="none" xmlns="http://www.w3.org/2000/svg"><g transform="translate(-180 -56)">
<path id="Vector_18" d="M191 69V73" stroke="black" stroke-width="2" stroke-linecap="round" stroke-linejoin="round"/>
<path id="Vector_19" d="M195 61V65" stroke="black" stroke-width="2" stroke-linecap="round" stroke-linejoin="round"/>
<path id="Vector_20" d="M183 59V75C183 75.5304 183.211 76.0391 183.586 76.4142C183.961 76.7893 184.47 77 185 77H201" stroke="black" stroke-width="2" stroke-linecap="round" stroke-linejoin="round"/>
<path id="Vector_21" d="M195 69H188C187.448 69 187 69.4477 187 70V72C187 72.5523 187.448 73 188 73H195C195.552 73 196 72.5523 196 72V70C196 69.4477 195.552 69 195 69Z" stroke="black" stroke-width="2" stroke-linecap="round" stroke-linejoin="round"/>
<path id="Vector_22" d="M198 61H188C187.448 61 187 61.4477 187 62V64C187 64.5523 187.448 65 188 65H198C198.552 65 199 64.5523 199 64V62C199 61.4477 198.552 61 198 61Z" stroke="black" stroke-width="2" stroke-linecap="round" stroke-linejoin="round"/>
</g></svg>
