<svg viewBox="0 0 24 24" fill="none" xmlns="http://www.w3.org/2000/svg"><g transform="translate(-276 -88)">
<path id="Vector_81" d="M297 100C297.552 100 298.005 99.551 297.95 99.002C297.719 96.7062 296.702 94.5607 295.07 92.9294C293.439 91.298 291.293 90.2811 288.997 90.051C288.447 89.996 287.999 90.449 287.999 91.001V99.001C287.999 99.2663 288.104 99.5206 288.292 99.7081C288.479 99.8957 288.734 100.001 288.999 100.001L297 100Z" stroke="black" stroke-width="2" stroke-linecap="round" stroke-linejoin="round"/>
<path id="Vector_82" d="M297.21 103.89C296.574 105.394 295.579 106.72 294.312 107.751C293.045 108.782 291.545 109.487 289.943 109.805C288.341 110.122 286.685 110.042 285.121 109.572C283.556 109.101 282.131 108.255 280.969 107.107C279.808 105.958 278.945 104.543 278.457 102.984C277.969 101.425 277.87 99.7704 278.169 98.1646C278.468 96.5587 279.156 95.0506 280.172 93.772C281.189 92.4934 282.503 91.4833 284 90.83" stroke="black" stroke-width="2" stroke-linecap="round" stroke-linejoin="round"/>
</g></svg>
