<svg viewBox="0 0 24 24" fill="none" xmlns="http://www.w3.org/2000/svg"><g transform="translate(-148 -88)">
<path id="Vector_72" d="M165 109C165.265 109 165.52 108.895 165.707 108.707C165.895 108.52 166 108.265 166 108V102.65C166 102.193 166.316 101.806 166.727 101.609C167.578 101.203 168.258 100.51 168.648 99.6509C169.037 98.7923 169.111 97.8236 168.856 96.916C168.6 96.0083 168.033 95.22 167.253 94.6902C166.473 94.1603 165.531 93.923 164.593 94.02C164.207 93.1222 163.566 92.3573 162.75 91.8199C161.933 91.2824 160.977 90.996 160 90.996C159.023 90.996 158.067 91.2824 157.251 91.8199C156.434 92.3573 155.793 93.1222 155.407 94.02C154.47 93.9237 153.528 94.1613 152.749 94.6912C151.97 95.221 151.403 96.009 151.147 96.9161C150.892 97.8233 150.966 98.7914 151.355 99.6498C151.743 100.508 152.423 101.202 153.273 101.608C153.684 101.806 154 102.193 154 102.649V108C154 108.265 154.106 108.52 154.293 108.707C154.481 108.895 154.735 109 155 109H165Z" stroke="black" stroke-width="2" stroke-linecap="round" stroke-linejoin="round"/>
<path id="Vector_73" d="M154 105H166" stroke="black" stroke-width="2" stroke-linecap="round" stroke-linejoin="round"/>
</g></svg>
