<svg viewBox="0 0 24 24" fill="none" xmlns="http://www.w3.org/2000/svg"><g transform="translate(-180 -88)">
<path id="Vector_74" d="M182 105C182 106.326 182.527 107.598 183.464 108.536C184.402 109.473 185.674 110 187 110C188.326 110 189.598 109.473 190.536 108.536C191.473 107.598 192 106.326 192 105C192 102.24 189.5 100 187 102C184.5 100 182 102.24 182 105Z" stroke="black" stroke-width="2" stroke-linecap="round" stroke-linejoin="round"/>
<path id="Vector_75" d="M192 105C192 106.326 192.527 107.598 193.464 108.536C194.402 109.473 195.674 110 197 110C198.326 110 199.598 109.473 200.536 108.536C201.473 107.598 202 106.326 202 105C202 102.24 199.5 100 197 102C194.5 100 192 102.24 192 105Z" stroke="black" stroke-width="2" stroke-linecap="round" stroke-linejoin="round"/>
<path id="Vector_76" d="M187 102C190.22 99.09 191.29 93.25 192 90C193.66 92.38 196.94 99 197 102" stroke="black" stroke-width="2" stroke-linecap="round" stroke-linejoin="round"/>
<path id="Vector_77" d="M202 97C197.71 97 194.86 94.67 192 90C197.71 90 202 94.67 202 97Z" stroke="black" stroke-width="2" stroke-linecap="round" stroke-linejoin="round"/>
</g></svg>
