<svg viewBox="0 0 24 24" fill="none" xmlns="http://www.w3.org/2000/svg"><g transform="translate(-340 -56)">
<path id="Vector_46" d="M345 76C345 75.4696 345.211 74.9609 345.586 74.5858C345.961 74.2107 346.47 74 347 74H357C357.53 74 358.039 74.2107 358.414 74.5858C358.789 74.9609 359 75.4696 359 76V77C359 77.2652 358.895 77.5196 358.707 77.7071C358.52 77.8946 358.265 78 358 78H346C345.735 78 345.48 77.8946 345.293 77.7071C345.105 77.5196 345 77.2652 345 77V76Z" stroke="black" stroke-width="2" stroke-linecap="round" stroke-linejoin="round"/>
<path id="Vector_47" d="M350 58V60" stroke="black" stroke-width="2" stroke-linecap="round" stroke-linejoin="round"/>
<path id="Vector_48" d="M354 58V60" stroke="black" stroke-width="2" stroke-linecap="round" stroke-linejoin="round"/>
<path id="Vector_49" d="M357 74L356 65" stroke="black" stroke-width="2" stroke-linecap="round" stroke-linejoin="round"/>
<path id="Vector_50" d="M346 58V63C346 63.5304 346.211 64.0391 346.586 64.4142C346.961 64.7893 347.47 65 348 65H356C356.53 65 357.039 64.7893 357.414 64.4142C357.789 64.0391 358 63.5304 358 63V58" stroke="black" stroke-width="2" stroke-linecap="round" stroke-linejoin="round"/>
<path id="Vector_51" d="M346 60H358" stroke="black" stroke-width="2" stroke-linecap="round" stroke-linejoin="round"/>
<path id="Vector_52" d="M347 74L348 65" stroke="black" stroke-width="2" stroke-linecap="round" stroke-linejoin="round"/>
</g></svg>
