<svg viewBox="0 0 24 24" fill="none" xmlns="http://www.w3.org/2000/svg"><g transform="translate(-308 -56)">
<path id="Vector_38" d="M312 76C312 75.4696 312.211 74.9609 312.586 74.5858C312.961 74.2107 313.47 74 314 74H326C326.53 74 327.039 74.2107 327.414 74.5858C327.789 74.9609 328 75.4696 328 76V77C328 77.2652 327.895 77.5196 327.707 77.7071C327.52 77.8946 327.265 78 327 78H313C312.735 78 312.48 77.8946 312.293 77.7071C312.105 77.5196 312 77.2652 312 77V76Z" stroke="black" stroke-width="2" stroke-linecap="round" stroke-linejoin="round"/>
<path id="Vector_39" d="M320.474 61.943L322.041 67.283C322.093 67.4596 322.193 67.6183 322.33 67.7417C322.466 67.865 322.634 67.9483 322.815 67.9822C322.996 68.0161 323.183 67.9994 323.355 67.9339C323.527 67.8684 323.678 67.7567 323.791 67.611L326.407 64.209" stroke="black" stroke-width="2" stroke-linecap="round" stroke-linejoin="round"/>
<path id="Vector_40" d="M328 65L325 74" stroke="black" stroke-width="2" stroke-linecap="round" stroke-linejoin="round"/>
<path id="Vector_41" d="M313.594 64.209L316.209 67.612C316.321 67.7576 316.472 67.8693 316.644 67.9348C316.817 68.0002 317.003 68.0168 317.184 67.9828C317.365 67.9488 317.533 67.8654 317.67 67.7419C317.807 67.6185 317.907 67.4596 317.959 67.283L319.526 61.943" stroke="black" stroke-width="2" stroke-linecap="round" stroke-linejoin="round"/>
<path id="Vector_42" d="M315 74L312 65" stroke="black" stroke-width="2" stroke-linecap="round" stroke-linejoin="round"/>
<path id="Vector_43" d="M320 62C321.105 62 322 61.1046 322 60C322 58.8954 321.105 58 320 58C318.895 58 318 58.8954 318 60C318 61.1046 318.895 62 320 62Z" stroke="black" stroke-width="2" stroke-linecap="round" stroke-linejoin="round"/>
<path id="Vector_44" d="M328 65C329.105 65 330 64.1046 330 63C330 61.8954 329.105 61 328 61C326.895 61 326 61.8954 326 63C326 64.1046 326.895 65 328 65Z" stroke="black" stroke-width="2" stroke-linecap="round" stroke-linejoin="round"/>
<path id="Vector_45" d="M312 65C313.105 65 314 64.1046 314 63C314 61.8954 313.105 61 312 61C310.895 61 310 61.8954 310 63C310 64.1046 310.895 65 312 65Z" stroke="black" stroke-width="2" stroke-linecap="round" stroke-linejoin="round"/>
</g></svg>
