<svg viewBox="0 0 24 24" fill="none" xmlns="http://www.w3.org/2000/svg"><g transform="translate(-276 -56)">
<path id="Vector_33" d="M281 76C281 75.4696 281.211 74.9609 281.586 74.5858C281.961 74.2107 282.47 74 283 74H293C293.53 74 294.039 74.2107 294.414 74.5858C294.789 74.9609 295 75.4696 295 76V77C295 77.2652 294.895 77.5196 294.707 77.7071C294.52 77.8946 294.265 78 294 78H282C281.735 78 281.48 77.8946 281.293 77.7071C281.105 77.5196 281 77.2652 281 77V76Z" stroke="black" stroke-width="2" stroke-linecap="round" stroke-linejoin="round"/>
<path id="Vector_34" d="M290.5 66L292 74" stroke="black" stroke-width="2" stroke-linecap="round" stroke-linejoin="round"/>
<path id="Vector_35" d="M283 66H293" stroke="black" stroke-width="2" stroke-linecap="round" stroke-linejoin="round"/>
<path id="Vector_36" d="M284 74L285.5 66" stroke="black" stroke-width="2" stroke-linecap="round" stroke-linejoin="round"/>
<path id="Vector_37" d="M288 66C290.209 66 292 64.2091 292 62C292 59.7909 290.209 58 288 58C285.791 58 284 59.7909 284 62C284 64.2091 285.791 66 288 66Z" stroke="black" stroke-width="2" stroke-linecap="round" stroke-linejoin="round"/>
</g></svg>
