<svg viewBox="0 0 24 24" fill="none" xmlns="http://www.w3.org/2000/svg"><g transform="translate(-180 -56)">
<path id="Vector_20" d="M185 76C185 75.4696 185.211 74.9609 185.586 74.5858C185.961 74.2107 186.47 74 187 74H197C197.53 74 198.039 74.2107 198.414 74.5858C198.789 74.9609 199 75.4696 199 76V77C199 77.2652 198.895 77.5196 198.707 77.7071C198.52 77.8946 198.265 78 198 78H186C185.735 78 185.48 77.8946 185.293 77.7071C185.105 77.5196 185 77.2652 185 77V76Z" stroke="black" stroke-width="2" stroke-linecap="round" stroke-linejoin="round"/>
<path id="Vector_21" d="M195 74C196.5 73.385 198 71.539 198 69.077C198 64.769 194.5 60.462 192 58C189.5 60.462 186 64.77 186 69.077C186 71.539 187.5 73.385 189 74" stroke="black" stroke-width="2" stroke-linecap="round" stroke-linejoin="round"/>
<path id="Vector_22" d="M196 63L193.5 65.5" stroke="black" stroke-width="2" stroke-linecap="round" stroke-linejoin="round"/>
<path id="Vector_23" d="M189 58H195" stroke="black" stroke-width="2" stroke-linecap="round" stroke-linejoin="round"/>
</g></svg>
