<svg viewBox="0 0 24 24" fill="none" xmlns="http://www.w3.org/2000/svg"><g transform="translate(-244 -56)">
<path id="Vector_28" d="M249 76C249 75.4696 249.211 74.9609 249.586 74.5858C249.961 74.2107 250.47 74 251 74H261C261.53 74 262.039 74.2107 262.414 74.5858C262.789 74.9609 263 75.4696 263 76V77C263 77.2652 262.895 77.5196 262.707 77.7071C262.52 77.8946 262.265 78 262 78H250C249.735 78 249.48 77.8946 249.293 77.7071C249.105 77.5196 249 77.2652 249 77V76Z" stroke="black" stroke-width="2" stroke-linecap="round" stroke-linejoin="round"/>
<path id="Vector_29" d="M260.5 74C261.5 72 263 69 263 65C263 63.1435 262.263 61.363 260.95 60.0503C259.637 58.7375 257.857 58 256 58H250.635C250.445 58.0001 250.259 58.0543 250.099 58.1563C249.939 58.2583 249.811 58.4038 249.73 58.5759C249.65 58.748 249.62 58.9395 249.644 59.1279C249.668 59.3164 249.746 59.494 249.867 59.64L251 61L248.68 66.802C248.495 67.2656 248.489 67.7819 248.665 68.2494C248.841 68.7168 249.185 69.1016 249.63 69.328L252.5 70.784" stroke="black" stroke-width="2" stroke-linecap="round" stroke-linejoin="round"/>
<path id="Vector_30" d="M259 61L260.425 59.575" stroke="black" stroke-width="2" stroke-linecap="round" stroke-linejoin="round"/>
<path id="Vector_31" d="M261 64L262.53 62.47" stroke="black" stroke-width="2" stroke-linecap="round" stroke-linejoin="round"/>
<path id="Vector_32" d="M253.713 68.185L251 74" stroke="black" stroke-width="2" stroke-linecap="round" stroke-linejoin="round"/>
</g></svg>
