<svg viewBox="0 0 24 24" fill="none" xmlns="http://www.w3.org/2000/svg"><g transform="translate(-212 -56)">
<path id="Vector_24" d="M216 76C216 75.4696 216.211 74.9609 216.586 74.5858C216.961 74.2107 217.47 74 218 74H230C230.53 74 231.039 74.2107 231.414 74.5858C231.789 74.9609 232 75.4696 232 76V77C232 77.2652 231.895 77.5196 231.707 77.7071C231.52 77.8946 231.265 78 231 78H217C216.735 78 216.48 77.8946 216.293 77.7071C216.105 77.5196 216 77.2652 216 77V76Z" stroke="black" stroke-width="2" stroke-linecap="round" stroke-linejoin="round"/>
<path id="Vector_25" d="M218.7 74L217.7 73C216.35 71.682 215 70.09 215 68C215 66.6825 215.52 65.4183 216.447 64.482C217.374 63.5458 218.633 63.0132 219.95 63C221.534 63 222.65 63.455 224 64.818C225.35 63.455 226.466 63 228.05 63C229.367 63.0132 230.626 63.5458 231.553 64.482C232.48 65.4183 233 66.6825 233 68C233 70.082 231.641 71.673 230.3 73L229.3 74" stroke="black" stroke-width="2" stroke-linecap="round" stroke-linejoin="round"/>
<path id="Vector_26" d="M222 60H226" stroke="black" stroke-width="2" stroke-linecap="round" stroke-linejoin="round"/>
<path id="Vector_27" d="M224 58V64.818" stroke="black" stroke-width="2" stroke-linecap="round" stroke-linejoin="round"/>
</g></svg>
