<svg viewBox="0 0 24 24" fill="none" xmlns="http://www.w3.org/2000/svg"><g transform="translate(-116 -56)">
<path id="Vector_25" d="M126 65H130" stroke="black" stroke-width="2" stroke-linecap="round" stroke-linejoin="round"/>
<path id="Vector_26" d="M128 63V68" stroke="black" stroke-width="2" stroke-linecap="round" stroke-linejoin="round"/>
<path id="Vector_27" d="M130 77V74C130 73.4696 129.789 72.9609 129.414 72.5858C129.039 72.2107 128.53 72 128 72C127.47 72 126.961 72.2107 126.586 72.5858C126.211 72.9609 126 73.4696 126 74V77" stroke="black" stroke-width="2" stroke-linecap="round" stroke-linejoin="round"/>
<path id="Vector_28" d="M134 65L137.52 67.147C137.667 67.2362 137.788 67.3616 137.872 67.5112C137.956 67.6608 138 67.8294 138 68.001V75C138 75.5304 137.789 76.0391 137.414 76.4142C137.039 76.7893 136.53 77 136 77H120C119.47 77 118.961 76.7893 118.586 76.4142C118.211 76.0391 118 75.5304 118 75V68.001C118 67.8294 118.044 67.6608 118.128 67.5112C118.212 67.3616 118.333 67.2362 118.48 67.147L122 65" stroke="black" stroke-width="2" stroke-linecap="round" stroke-linejoin="round"/>
<path id="Vector_29" d="M122 77V63C122 62.8497 122.034 62.7014 122.099 62.5661C122.164 62.4307 122.259 62.3117 122.376 62.218L127.376 58.219C127.553 58.0774 127.774 58.0003 128.001 58.0005C128.228 58.0007 128.448 58.0781 128.625 58.22L133.625 62.22C133.742 62.3136 133.836 62.4323 133.901 62.5673C133.966 62.7023 134 62.8502 134 63V77" stroke="black" stroke-width="2" stroke-linecap="round" stroke-linejoin="round"/>
</g></svg>
