<svg viewBox="0 0 24 24" fill="none" xmlns="http://www.w3.org/2000/svg"><g transform="translate(-340 -56)">
<path id="Vector_54" d="M352 68H343C342.735 68 342.48 68.1054 342.293 68.2929C342.105 68.4804 342 68.7348 342 69V71C342 71.2652 342.105 71.5196 342.293 71.7071C342.48 71.8946 342.735 72 343 72H356" stroke="black" stroke-width="2" stroke-linecap="round" stroke-linejoin="round"/>
<path id="Vector_55" d="M358 64C358 61.5 356 61.5 356 59" stroke="black" stroke-width="2" stroke-linecap="round" stroke-linejoin="round"/>
<path id="Vector_56" d="M342 58L362 78" stroke="black" stroke-width="2" stroke-linecap="round" stroke-linejoin="round"/>
<path id="Vector_57" d="M361 68C361.265 68 361.52 68.1054 361.707 68.2929C361.895 68.4804 362 68.7348 362 69V71C362 71.1755 361.954 71.348 361.866 71.5C361.778 71.652 361.652 71.7782 361.5 71.866" stroke="black" stroke-width="2" stroke-linecap="round" stroke-linejoin="round"/>
<path id="Vector_58" d="M362 64C362 61.5 360 61.5 360 59" stroke="black" stroke-width="2" stroke-linecap="round" stroke-linejoin="round"/>
<path id="Vector_59" d="M347 68V72" stroke="black" stroke-width="2" stroke-linecap="round" stroke-linejoin="round"/>
</g></svg>
