<svg viewBox="0 0 24 24" fill="none" xmlns="http://www.w3.org/2000/svg"><g transform="translate(-308 -56)">
<path id="Vector_49" d="M325 68H311C310.735 68 310.48 68.1054 310.293 68.2929C310.105 68.4804 310 68.7348 310 69V71C310 71.2652 310.105 71.5196 310.293 71.7071C310.48 71.8946 310.735 72 311 72H325" stroke="black" stroke-width="2" stroke-linecap="round" stroke-linejoin="round"/>
<path id="Vector_50" d="M326 64C326 61.5 324 61.5 324 59" stroke="black" stroke-width="2" stroke-linecap="round" stroke-linejoin="round"/>
<path id="Vector_51" d="M329 72C329.265 72 329.52 71.8946 329.707 71.7071C329.895 71.5196 330 71.2652 330 71V69C330 68.7348 329.895 68.4804 329.707 68.2929C329.52 68.1054 329.265 68 329 68" stroke="black" stroke-width="2" stroke-linecap="round" stroke-linejoin="round"/>
<path id="Vector_52" d="M330 64C330 61.5 328 61.5 328 59" stroke="black" stroke-width="2" stroke-linecap="round" stroke-linejoin="round"/>
<path id="Vector_53" d="M315 68V72" stroke="black" stroke-width="2" stroke-linecap="round" stroke-linejoin="round"/>
</g></svg>
