<svg viewBox="0 0 24 24" fill="none" xmlns="http://www.w3.org/2000/svg"><g transform="translate(-180 -56)">
<path id="Vector_12" d="M182 68C182 66.0222 182.586 64.0888 183.685 62.4443C184.784 60.7998 186.346 59.5181 188.173 58.7612C190 58.0043 192.011 57.8063 193.951 58.1922C195.891 58.578 197.673 59.5304 199.071 60.9289C200.47 62.3275 201.422 64.1093 201.808 66.0491C202.194 67.9889 201.996 69.9996 201.239 71.8268C200.482 73.6541 199.2 75.2159 197.556 76.3147C195.911 77.4135 193.978 78 192 78" stroke="black" stroke-width="2" stroke-linecap="round" stroke-linejoin="round"/>
<path id="Vector_13" d="M182 78L192 68" stroke="black" stroke-width="2" stroke-linecap="round" stroke-linejoin="round"/>
<path id="Vector_14" d="M188 78H182V72" stroke="black" stroke-width="2" stroke-linecap="round" stroke-linejoin="round"/>
</g></svg>
