<svg viewBox="0 0 24 24" fill="none" xmlns="http://www.w3.org/2000/svg"><g transform="translate(-244 -120)">
<path id="Vector_104" d="M256 141C257.105 141 258 140.105 258 139C258 137.895 257.105 137 256 137C254.895 137 254 137.895 254 139C254 140.105 254.895 141 256 141Z" stroke="black" stroke-width="2" stroke-linecap="round" stroke-linejoin="round"/>
<path id="Vector_105" d="M256 127C257.105 127 258 126.105 258 125C258 123.895 257.105 123 256 123C254.895 123 254 123.895 254 125C254 126.105 254.895 127 256 127Z" stroke="black" stroke-width="2" stroke-linecap="round" stroke-linejoin="round"/>
<path id="Vector_106" d="M260 134C261.105 134 262 133.105 262 132C262 130.895 261.105 130 260 130C258.895 130 258 130.895 258 132C258 133.105 258.895 134 260 134Z" stroke="black" stroke-width="2" stroke-linecap="round" stroke-linejoin="round"/>
<path id="Vector_107" d="M264 141C265.105 141 266 140.105 266 139C266 137.895 265.105 137 264 137C262.895 137 262 137.895 262 139C262 140.105 262.895 141 264 141Z" stroke="black" stroke-width="2" stroke-linecap="round" stroke-linejoin="round"/>
<path id="Vector_108" d="M248 141C249.105 141 250 140.105 250 139C250 137.895 249.105 137 248 137C246.895 137 246 137.895 246 139C246 140.105 246.895 141 248 141Z" stroke="black" stroke-width="2" stroke-linecap="round" stroke-linejoin="round"/>
<path id="Vector_109" d="M252 134C253.105 134 254 133.105 254 132C254 130.895 253.105 130 252 130C250.895 130 250 130.895 250 132C250 133.105 250.895 134 252 134Z" stroke="black" stroke-width="2" stroke-linecap="round" stroke-linejoin="round"/>
</g></svg>
