<svg viewBox="0 0 24 24" fill="none" xmlns="http://www.w3.org/2000/svg"><g transform="translate(-116 -56)">
<path id="Vector_13" d="M128 78C133.523 78 138 73.5228 138 68C138 62.4772 133.523 58 128 58C122.477 58 118 62.4772 118 68C118 73.5228 122.477 78 128 78Z" stroke="black" stroke-width="2" stroke-linecap="round" stroke-linejoin="round"/>
<path id="Vector_14" d="M128 69C129.657 69 131 67.6569 131 66C131 64.3431 129.657 63 128 63C126.343 63 125 64.3431 125 66C125 67.6569 126.343 69 128 69Z" stroke="black" stroke-width="2" stroke-linecap="round" stroke-linejoin="round"/>
<path id="Vector_15" d="M123 76.662V75C123 74.4696 123.211 73.9609 123.586 73.5858C123.961 73.2107 124.47 73 125 73H131C131.53 73 132.039 73.2107 132.414 73.5858C132.789 73.9609 133 74.4696 133 75V76.662" stroke="black" stroke-width="2" stroke-linecap="round" stroke-linejoin="round"/>
</g></svg>
