<svg viewBox="0 0 24 24" fill="none" xmlns="http://www.w3.org/2000/svg"><g transform="translate(-20 -120)">
<path id="Vector_77" d="M32 122C33.9401 122 35.8385 122.564 37.4637 123.623C39.0889 124.683 40.3707 126.193 41.153 127.968C41.9352 129.743 42.1841 131.708 41.8693 133.623C41.5545 135.537 40.6896 137.319 39.38 138.75" stroke="black" stroke-width="2" stroke-linecap="round" stroke-linejoin="round"/>
<path id="Vector_78" d="M32 128V136" stroke="black" stroke-width="2" stroke-linecap="round" stroke-linejoin="round"/>
<path id="Vector_79" d="M36 132H28" stroke="black" stroke-width="2" stroke-linecap="round" stroke-linejoin="round"/>
<path id="Vector_80" d="M22.5 128.875C22.1813 129.844 22.0127 130.855 22 131.875" stroke="black" stroke-width="2" stroke-linecap="round" stroke-linejoin="round"/>
<path id="Vector_81" d="M22.8301 136C23.3916 137.292 24.2197 138.45 25.2601 139.4" stroke="black" stroke-width="2" stroke-linecap="round" stroke-linejoin="round"/>
<path id="Vector_82" d="M24.6357 125.235C24.9148 124.931 25.2124 124.645 25.5267 124.378" stroke="black" stroke-width="2" stroke-linecap="round" stroke-linejoin="round"/>
<path id="Vector_83" d="M28.6436 141.42C31.1373 142.308 33.8815 142.172 36.2746 141.04" stroke="black" stroke-width="2" stroke-linecap="round" stroke-linejoin="round"/>
</g></svg>
