<svg viewBox="0 0 24 24" fill="none" xmlns="http://www.w3.org/2000/svg"><g transform="translate(-372 -120)">
<path id="Vector_118" d="M384 142C389.523 142 394 137.523 394 132C394 126.477 389.523 122 384 122C378.477 122 374 126.477 374 132C374 137.523 378.477 142 384 142Z" stroke="black" stroke-width="2" stroke-linecap="round" stroke-linejoin="round"/>
<path id="Vector_119" d="M381.09 129C381.325 128.332 381.789 127.768 382.4 127.409C383.011 127.05 383.729 126.919 384.427 127.039C385.125 127.158 385.759 127.521 386.215 128.063C386.671 128.605 386.921 129.291 386.92 130C386.92 132 383.92 133 383.92 133" stroke="black" stroke-width="2" stroke-linecap="round" stroke-linejoin="round"/>
<path id="Vector_120" d="M384 137H384.01" stroke="black" stroke-width="2" stroke-linecap="round" stroke-linejoin="round"/>
</g></svg>
