<svg viewBox="0 0 24 24" fill="none" xmlns="http://www.w3.org/2000/svg"><g transform="translate(-20 -88)">
<path id="Vector_54" d="M32 110C37.5228 110 42 105.523 42 100C42 94.4772 37.5228 90 32 90C26.4772 90 22 94.4772 22 100C22 105.523 26.4772 110 32 110Z" stroke="black" stroke-width="2" stroke-linecap="round" stroke-linejoin="round"/>
<path id="Vector_55" d="M30 104V97.5C30 96.837 30.2634 96.2011 30.7322 95.7322C31.2011 95.2634 31.837 95 32.5 95C33.163 95 33.7989 95.2634 34.2678 95.7322C34.7366 96.2011 35 96.837 35 97.5" stroke="black" stroke-width="2" stroke-linecap="round" stroke-linejoin="round"/>
<path id="Vector_56" d="M28 100H32" stroke="black" stroke-width="2" stroke-linecap="round" stroke-linejoin="round"/>
<path id="Vector_57" d="M28 104H35" stroke="black" stroke-width="2" stroke-linecap="round" stroke-linejoin="round"/>
</g></svg>
