<svg viewBox="0 0 24 24" fill="none" xmlns="http://www.w3.org/2000/svg"><g transform="translate(-276 -88)">
<path id="Vector_54" d="M286.1 90.18C287.354 89.9354 288.645 89.9354 289.9 90.18" stroke="black" stroke-width="2" stroke-linecap="round" stroke-linejoin="round"/>
<path id="Vector_55" d="M293.6 91.71C294.662 92.4282 295.575 93.345 296.29 94.41" stroke="black" stroke-width="2" stroke-linecap="round" stroke-linejoin="round"/>
<path id="Vector_56" d="M297.82 98.1C298.065 99.3548 298.065 100.645 297.82 101.9" stroke="black" stroke-width="2" stroke-linecap="round" stroke-linejoin="round"/>
<path id="Vector_57" d="M296.29 105.6C295.572 106.662 294.655 107.576 293.59 108.29" stroke="black" stroke-width="2" stroke-linecap="round" stroke-linejoin="round"/>
<path id="Vector_58" d="M289.9 109.82C288.645 110.064 287.354 110.064 286.1 109.82" stroke="black" stroke-width="2" stroke-linecap="round" stroke-linejoin="round"/>
<path id="Vector_59" d="M282.4 108.29C281.338 107.572 280.424 106.655 279.71 105.59" stroke="black" stroke-width="2" stroke-linecap="round" stroke-linejoin="round"/>
<path id="Vector_60" d="M278.18 101.9C277.935 100.645 277.935 99.3548 278.18 98.1" stroke="black" stroke-width="2" stroke-linecap="round" stroke-linejoin="round"/>
<path id="Vector_61" d="M279.71 94.4C280.428 93.3377 281.345 92.4243 282.41 91.71" stroke="black" stroke-width="2" stroke-linecap="round" stroke-linejoin="round"/>
<path id="Vector_62" d="M288 101C288.552 101 289 100.552 289 100C289 99.4477 288.552 99 288 99C287.448 99 287 99.4477 287 100C287 100.552 287.448 101 288 101Z" stroke="black" stroke-width="2" stroke-linecap="round" stroke-linejoin="round"/>
</g></svg>
