<svg viewBox="0 0 24 24" fill="none" xmlns="http://www.w3.org/2000/svg"><g transform="translate(-372 -56)">
<path id="Vector_51" d="M384 78C389.523 78 394 73.5228 394 68C394 62.4772 389.523 58 384 58C378.477 58 374 62.4772 374 68C374 73.5228 378.477 78 384 78Z" stroke="black" stroke-width="2" stroke-linecap="round" stroke-linejoin="round"/>
<path id="Vector_52" d="M388 64H382C381.47 64 380.961 64.2107 380.586 64.5858C380.211 64.9609 380 65.4696 380 66C380 66.5304 380.211 67.0391 380.586 67.4142C380.961 67.7893 381.47 68 382 68H386C386.53 68 387.039 68.2107 387.414 68.5858C387.789 68.9609 388 69.4696 388 70C388 70.5304 387.789 71.0391 387.414 71.4142C387.039 71.7893 386.53 72 386 72H380" stroke="black" stroke-width="2" stroke-linecap="round" stroke-linejoin="round"/>
<path id="Vector_53" d="M384 74V62" stroke="black" stroke-width="2" stroke-linecap="round" stroke-linejoin="round"/>
</g></svg>
