<svg viewBox="0 0 24 24" fill="none" xmlns="http://www.w3.org/2000/svg"><g transform="translate(-116 -152)">
<path id="Vector_126" d="M128 174C133.523 174 138 169.523 138 164C138 158.477 133.523 154 128 154C122.477 154 118 158.477 118 164C118 169.523 122.477 174 128 174Z" stroke="black" stroke-width="2" stroke-linecap="round" stroke-linejoin="round"/>
<path id="Vector_127" d="M127.051 159.616C127.117 159.413 127.246 159.237 127.42 159.113C127.593 158.989 127.801 158.923 128.015 158.926C128.228 158.929 128.434 158.999 128.605 159.128C128.775 159.256 128.899 159.436 128.96 159.64L129.697 161.092C129.769 161.233 129.873 161.355 130.001 161.448C130.129 161.541 130.278 161.602 130.434 161.627L132.068 161.883C132.279 161.884 132.483 161.951 132.653 162.075C132.823 162.199 132.95 162.373 133.015 162.573C133.08 162.773 133.081 162.989 133.016 163.189C132.952 163.39 132.826 163.564 132.656 163.689L131.484 164.857C131.372 164.969 131.288 165.105 131.239 165.256C131.19 165.407 131.177 165.567 131.202 165.723L131.461 167.336C131.532 167.538 131.537 167.758 131.474 167.963C131.411 168.168 131.283 168.347 131.111 168.474C130.938 168.601 130.729 168.669 130.515 168.668C130.301 168.668 130.092 168.598 129.92 168.47L128.455 167.72C128.314 167.648 128.158 167.61 127.999 167.61C127.841 167.61 127.684 167.648 127.543 167.72L126.078 168.47C125.906 168.597 125.698 168.666 125.485 168.666C125.271 168.666 125.063 168.598 124.891 168.471C124.719 168.345 124.592 168.166 124.528 167.962C124.465 167.758 124.469 167.539 124.539 167.337L124.797 165.724C124.822 165.567 124.81 165.407 124.761 165.256C124.712 165.106 124.628 164.969 124.515 164.857L123.359 163.705C123.184 163.583 123.052 163.409 122.983 163.207C122.914 163.006 122.911 162.787 122.975 162.583C123.039 162.38 123.166 162.202 123.338 162.076C123.51 161.95 123.718 161.882 123.931 161.883L125.564 161.627C125.721 161.602 125.869 161.541 125.997 161.448C126.125 161.355 126.23 161.233 126.301 161.092L127.051 159.616Z" stroke="black" stroke-width="2" stroke-linecap="round" stroke-linejoin="round"/>
</g></svg>
