<svg viewBox="0 0 24 24" fill="none" xmlns="http://www.w3.org/2000/svg"><g transform="translate(-372 -88)">
<path id="Vector_70" d="M384 90C385.94 89.9996 387.838 90.5637 389.464 91.6234C391.089 92.683 392.371 94.1926 393.153 95.968C393.935 97.7435 394.184 99.7082 393.869 101.623C393.555 103.537 392.69 105.319 391.38 106.75" stroke="black" stroke-width="2" stroke-linecap="round" stroke-linejoin="round"/>
<path id="Vector_71" d="M388 100L384 96L380 100" stroke="black" stroke-width="2" stroke-linecap="round" stroke-linejoin="round"/>
<path id="Vector_72" d="M384 104V96" stroke="black" stroke-width="2" stroke-linecap="round" stroke-linejoin="round"/>
<path id="Vector_73" d="M374.5 96.875C374.181 97.8437 374.013 98.8554 374 99.875" stroke="black" stroke-width="2" stroke-linecap="round" stroke-linejoin="round"/>
<path id="Vector_74" d="M374.83 104C375.392 105.292 376.22 106.45 377.26 107.4" stroke="black" stroke-width="2" stroke-linecap="round" stroke-linejoin="round"/>
<path id="Vector_75" d="M376.636 93.2351C376.915 92.9313 377.212 92.6451 377.527 92.3781" stroke="black" stroke-width="2" stroke-linecap="round" stroke-linejoin="round"/>
<path id="Vector_76" d="M380.644 109.42C383.137 110.308 385.881 110.172 388.275 109.04" stroke="black" stroke-width="2" stroke-linecap="round" stroke-linejoin="round"/>
</g></svg>
