<svg viewBox="0 0 24 24" fill="none" xmlns="http://www.w3.org/2000/svg"><g transform="translate(-212 -56)">
<path id="Vector_15" d="M224 78C222.022 78 220.089 77.4135 218.444 76.3147C216.8 75.2159 215.518 73.6541 214.761 71.8268C214.004 69.9996 213.806 67.9889 214.192 66.0491C214.578 64.1093 215.53 62.3275 216.929 60.9289C218.327 59.5304 220.109 58.578 222.049 58.1922C223.989 57.8063 226 58.0043 227.827 58.7612C229.654 59.5181 231.216 60.7998 232.315 62.4443C233.414 64.0888 234 66.0222 234 68" stroke="black" stroke-width="2" stroke-linecap="round" stroke-linejoin="round"/>
<path id="Vector_16" d="M234 78L224 68" stroke="black" stroke-width="2" stroke-linecap="round" stroke-linejoin="round"/>
<path id="Vector_17" d="M234 72V78H228" stroke="black" stroke-width="2" stroke-linecap="round" stroke-linejoin="round"/>
</g></svg>
