<svg viewBox="0 0 24 24" fill="none" xmlns="http://www.w3.org/2000/svg"><g transform="translate(-52 -88)">
<path id="Vector_101" d="M71 91H57C55.8954 91 55 91.8954 55 93V107C55 108.105 55.8954 109 57 109H71C72.1046 109 73 108.105 73 107V93C73 91.8954 72.1046 91 71 91Z" stroke="black" stroke-width="2" stroke-linecap="round" stroke-linejoin="round"/>
<path id="Vector_102" d="M63 97H67C67.5304 97 68.0391 96.7893 68.4142 96.4142C68.7893 96.0391 69 95.5304 69 95V91" stroke="black" stroke-width="2" stroke-linecap="round" stroke-linejoin="round"/>
<path id="Vector_103" d="M61 99C62.1046 99 63 98.1046 63 97C63 95.8954 62.1046 95 61 95C59.8954 95 59 95.8954 59 97C59 98.1046 59.8954 99 61 99Z" stroke="black" stroke-width="2" stroke-linecap="round" stroke-linejoin="round"/>
<path id="Vector_104" d="M59 109V105C59 104.47 59.2107 103.961 59.5858 103.586C59.9609 103.211 60.4696 103 61 103H65" stroke="black" stroke-width="2" stroke-linecap="round" stroke-linejoin="round"/>
<path id="Vector_105" d="M67 105C68.1046 105 69 104.105 69 103C69 101.895 68.1046 101 67 101C65.8954 101 65 101.895 65 103C65 104.105 65.8954 105 67 105Z" stroke="black" stroke-width="2" stroke-linecap="round" stroke-linejoin="round"/>
</g></svg>
