<svg viewBox="0 0 24 24" fill="none" xmlns="http://www.w3.org/2000/svg"><g transform="translate(-84 -120)">
<path id="Vector_86" d="M86 122L106 142" stroke="black" stroke-width="2" stroke-linecap="round" stroke-linejoin="round"/>
<path id="Vector_87" d="M92.3496 122.69C94.1602 121.983 96.1377 121.819 98.0401 122.218C99.9426 122.617 101.688 123.561 103.061 124.936C104.435 126.311 105.379 128.057 105.776 129.96C106.174 131.863 106.008 133.84 105.3 135.65" stroke="black" stroke-width="2" stroke-linecap="round" stroke-linejoin="round"/>
<path id="Vector_88" d="M103.08 139.08C102.15 140.01 101.046 140.747 99.8316 141.251C98.6168 141.754 97.3148 142.013 95.9999 142.013C94.6851 142.013 93.3831 141.754 92.1683 141.251C90.9535 140.747 89.8497 140.01 88.9199 139.08C87.9902 138.15 87.2527 137.047 86.7495 135.832C86.2463 134.617 85.9873 133.315 85.9873 132C85.9873 130.685 86.2463 129.383 86.7495 128.168C87.2527 126.954 87.9902 125.85 88.9199 124.92" stroke="black" stroke-width="2" stroke-linecap="round" stroke-linejoin="round"/>
</g></svg>
