<svg viewBox="0 0 24 24" fill="none" xmlns="http://www.w3.org/2000/svg"><g transform="translate(-276 -120)">
<path id="Vector_110" d="M285 129.003C284.999 128.826 285.046 128.651 285.135 128.498C285.224 128.344 285.353 128.217 285.507 128.13C285.662 128.042 285.837 127.998 286.014 128C286.192 128.003 286.365 128.052 286.517 128.144L291.514 131.141C291.663 131.23 291.786 131.355 291.872 131.506C291.957 131.657 292.002 131.827 292.002 132C292.002 132.173 291.957 132.343 291.872 132.494C291.786 132.645 291.663 132.77 291.514 132.859L286.517 135.856C286.365 135.948 286.191 135.997 286.014 136C285.836 136.002 285.661 135.958 285.507 135.87C285.352 135.782 285.224 135.655 285.135 135.502C285.046 135.348 284.999 135.174 285 134.996V129.003Z" stroke="black" stroke-width="2" stroke-linecap="round" stroke-linejoin="round"/>
<path id="Vector_111" d="M288 142C293.523 142 298 137.523 298 132C298 126.477 293.523 122 288 122C282.477 122 278 126.477 278 132C278 137.523 282.477 142 288 142Z" stroke="black" stroke-width="2" stroke-linecap="round" stroke-linejoin="round"/>
</g></svg>
