<svg viewBox="0 0 24 24" fill="none" xmlns="http://www.w3.org/2000/svg"><g transform="translate(-244 -56)">
<path id="Vector_18" d="M246 64V58H252" stroke="black" stroke-width="2" stroke-linecap="round" stroke-linejoin="round"/>
<path id="Vector_19" d="M246 58L256 68" stroke="black" stroke-width="2" stroke-linecap="round" stroke-linejoin="round"/>
<path id="Vector_20" d="M256 58C257.978 58 259.911 58.5865 261.556 59.6853C263.2 60.7841 264.482 62.3459 265.239 64.1732C265.996 66.0004 266.194 68.0111 265.808 69.9509C265.422 71.8907 264.47 73.6725 263.071 75.0711C261.673 76.4696 259.891 77.422 257.951 77.8079C256.011 78.1937 254 77.9957 252.173 77.2388C250.346 76.4819 248.784 75.2002 247.685 73.5557C246.586 71.9112 246 69.9778 246 68" stroke="black" stroke-width="2" stroke-linecap="round" stroke-linejoin="round"/>
</g></svg>
