<svg viewBox="0 0 24 24" fill="none" xmlns="http://www.w3.org/2000/svg"><g transform="translate(-148 -56)">
<path id="Vector_16" d="M165.925 76.0559C165.701 74.6458 164.981 73.3619 163.895 72.435C162.808 71.508 161.427 70.9989 159.999 70.999C158.571 70.9991 157.19 71.5085 156.104 72.4356C155.018 73.3627 154.298 74.6467 154.074 76.0569" stroke="black" stroke-width="2" stroke-linecap="round" stroke-linejoin="round"/>
<path id="Vector_17" d="M160 71C162.209 71 164 69.2091 164 67C164 64.7909 162.209 63 160 63C157.791 63 156 64.7909 156 67C156 69.2091 157.791 71 160 71Z" stroke="black" stroke-width="2" stroke-linecap="round" stroke-linejoin="round"/>
<path id="Vector_18" d="M160 78C165.523 78 170 73.5228 170 68C170 62.4772 165.523 58 160 58C154.477 58 150 62.4772 150 68C150 73.5228 154.477 78 160 78Z" stroke="black" stroke-width="2" stroke-linecap="round" stroke-linejoin="round"/>
</g></svg>
