<svg viewBox="0 0 24 24" fill="none" xmlns="http://www.w3.org/2000/svg"><g transform="translate(-340 -120)">
<path id="Vector_115" d="M352 142C357.523 142 362 137.523 362 132C362 126.477 357.523 122 352 122C346.477 122 342 126.477 342 132C342 137.523 346.477 142 352 142Z" stroke="black" stroke-width="2" stroke-linecap="round" stroke-linejoin="round"/>
<path id="Vector_116" d="M352 127V131" stroke="black" stroke-width="2" stroke-linecap="round" stroke-linejoin="round"/>
<path id="Vector_117" d="M347.998 129.003C347.441 129.746 347.103 130.63 347.02 131.555C346.937 132.479 347.113 133.409 347.529 134.239C347.945 135.07 348.584 135.768 349.374 136.255C350.164 136.743 351.075 137.001 352.003 137.001C352.932 137 353.842 136.741 354.631 136.252C355.421 135.763 356.059 135.065 356.474 134.234C356.888 133.403 357.063 132.473 356.98 131.548C356.896 130.624 356.556 129.741 355.998 128.998" stroke="black" stroke-width="2" stroke-linecap="round" stroke-linejoin="round"/>
</g></svg>
