<svg viewBox="0 0 24 24" fill="none" xmlns="http://www.w3.org/2000/svg"><g transform="translate(-148 -120)">
<path id="Vector_91" d="M160.656 127H161C161.42 127 161.835 127.088 162.219 127.259C162.602 127.429 162.946 127.679 163.227 127.99C163.509 128.302 163.721 128.669 163.852 129.068C163.982 129.467 164.027 129.889 163.984 130.307" stroke="black" stroke-width="2" stroke-linecap="round" stroke-linejoin="round"/>
<path id="Vector_92" d="M161 133H157" stroke="black" stroke-width="2" stroke-linecap="round" stroke-linejoin="round"/>
<path id="Vector_93" d="M167.071 139.071C165.195 140.946 162.652 142 160 142C157.348 142 154.805 140.946 152.93 139.071C151.054 137.196 150.001 134.653 150.001 132.001C150.001 129.349 151.054 126.805 152.93 124.93" stroke="black" stroke-width="2" stroke-linecap="round" stroke-linejoin="round"/>
<path id="Vector_94" d="M150 122L170 142" stroke="black" stroke-width="2" stroke-linecap="round" stroke-linejoin="round"/>
<path id="Vector_95" d="M156.357 122.687C158.168 121.979 160.146 121.814 162.049 122.212C163.951 122.61 165.697 123.554 167.072 124.929C168.446 126.303 169.391 128.049 169.789 129.952C170.187 131.855 170.022 133.833 169.313 135.643" stroke="black" stroke-width="2" stroke-linecap="round" stroke-linejoin="round"/>
<path id="Vector_96" d="M157 137V129" stroke="black" stroke-width="2" stroke-linecap="round" stroke-linejoin="round"/>
</g></svg>
