<svg viewBox="0 0 24 24" fill="none" xmlns="http://www.w3.org/2000/svg"><g transform="translate(-372 -88)">
<path id="Vector_91" d="M387.6 90.7C385.461 89.869 383.102 89.7989 380.917 90.5014C378.733 91.2038 376.856 92.6361 375.603 94.558C374.349 96.4798 373.795 98.7743 374.032 101.057C374.27 103.339 375.285 105.47 376.907 107.092C378.53 108.715 380.661 109.73 382.943 109.968C385.225 110.205 387.52 109.651 389.442 108.397C391.364 107.143 392.796 105.267 393.498 103.083C394.201 100.898 394.131 98.5388 393.3 96.4" stroke="black" stroke-width="2" stroke-linecap="round" stroke-linejoin="round"/>
<path id="Vector_92" d="M384 102C385.105 102 386 101.105 386 100C386 98.8954 385.105 98 384 98C382.895 98 382 98.8954 382 100C382 101.105 382.895 102 384 102Z" stroke="black" stroke-width="2" stroke-linecap="round" stroke-linejoin="round"/>
<path id="Vector_93" d="M385.4 98.6L391 93" stroke="black" stroke-width="2" stroke-linecap="round" stroke-linejoin="round"/>
</g></svg>
