<svg viewBox="0 0 24 24" fill="none" xmlns="http://www.w3.org/2000/svg"><g transform="translate(-180 -88)">
<path id="Vector_42" d="M190.1 90.182C191.355 89.9392 192.645 89.9392 193.9 90.182" stroke="black" stroke-width="2" stroke-linecap="round" stroke-linejoin="round"/>
<path id="Vector_43" d="M193.9 109.818C192.645 110.061 191.355 110.061 190.1 109.818" stroke="black" stroke-width="2" stroke-linecap="round" stroke-linejoin="round"/>
<path id="Vector_44" d="M197.609 91.7209C198.671 92.4402 199.584 93.3568 200.299 94.4209" stroke="black" stroke-width="2" stroke-linecap="round" stroke-linejoin="round"/>
<path id="Vector_45" d="M182.182 101.9C181.939 100.645 181.939 99.355 182.182 98.1" stroke="black" stroke-width="2" stroke-linecap="round" stroke-linejoin="round"/>
<path id="Vector_46" d="M200.279 105.609C199.56 106.67 198.643 107.584 197.579 108.299" stroke="black" stroke-width="2" stroke-linecap="round" stroke-linejoin="round"/>
<path id="Vector_47" d="M201.818 98.1C202.061 99.355 202.061 100.645 201.818 101.9" stroke="black" stroke-width="2" stroke-linecap="round" stroke-linejoin="round"/>
<path id="Vector_48" d="M183.721 94.391C184.44 93.3296 185.357 92.4163 186.421 91.701" stroke="black" stroke-width="2" stroke-linecap="round" stroke-linejoin="round"/>
<path id="Vector_49" d="M186.391 108.279C185.33 107.56 184.416 106.643 183.701 105.579" stroke="black" stroke-width="2" stroke-linecap="round" stroke-linejoin="round"/>
</g></svg>
