<svg viewBox="0 0 24 24" fill="none" xmlns="http://www.w3.org/2000/svg"><g transform="translate(-212 -88)">
<path id="Vector_78" d="M233.66 105.67C233.769 105.774 233.855 105.9 233.913 106.039C233.971 106.178 233.999 106.328 233.995 106.479C233.991 106.63 233.956 106.778 233.891 106.914C233.827 107.05 233.734 107.172 233.62 107.27C231.318 109.162 228.393 110.13 225.416 109.985C222.439 109.84 219.623 108.592 217.516 106.484C215.408 104.377 214.16 101.561 214.015 98.5838C213.87 95.607 214.838 92.6826 216.73 90.38C216.83 90.2669 216.953 90.1756 217.09 90.1118C217.227 90.0481 217.375 90.0132 217.526 90.0095C217.678 90.0057 217.828 90.0332 217.968 90.09C218.108 90.1469 218.235 90.232 218.34 90.34L233.66 105.67Z" stroke="black" stroke-width="2" stroke-linecap="round" stroke-linejoin="round"/>
<path id="Vector_79" d="M231.65 103.66C230.136 105.096 228.121 105.883 226.035 105.855C223.949 105.826 221.957 104.984 220.483 103.507C219.009 102.031 218.17 100.037 218.145 97.9507C218.12 95.8646 218.911 93.8512 220.35 92.34" stroke="black" stroke-width="2" stroke-linecap="round" stroke-linejoin="round"/>
<path id="Vector_80" d="M226 98L220.5 103.5" stroke="black" stroke-width="2" stroke-linecap="round" stroke-linejoin="round"/>
<path id="Vector_81" d="M226 105.85V98H218.15" stroke="black" stroke-width="2" stroke-linecap="round" stroke-linejoin="round"/>
</g></svg>
