<svg viewBox="0 0 24 24" fill="none" xmlns="http://www.w3.org/2000/svg"><g transform="translate(-340 -56)">
<path id="Vector_40" d="M352.296 59.4641L355.316 63.4201" stroke="black" stroke-width="2" stroke-linecap="round" stroke-linejoin="round"/>
<path id="Vector_41" d="M360.2 62L343 67L342.1 64.6C341.8 63.5 342.4 62.4 343.4 62.1L356.9 58.1C358 57.8 359.1 58.4 359.4 59.4L360.2 62Z" stroke="black" stroke-width="2" stroke-linecap="round" stroke-linejoin="round"/>
<path id="Vector_42" d="M343 67H361V75C361 75.5304 360.789 76.0391 360.414 76.4142C360.039 76.7893 359.53 77 359 77H345C344.47 77 343.961 76.7893 343.586 76.4142C343.211 76.0391 343 75.5304 343 75V67Z" stroke="black" stroke-width="2" stroke-linecap="round" stroke-linejoin="round"/>
<path id="Vector_43" d="M346.18 61.2759L349.28 65.1749" stroke="black" stroke-width="2" stroke-linecap="round" stroke-linejoin="round"/>
</g></svg>
