<svg viewBox="0 0 24 24" fill="none" xmlns="http://www.w3.org/2000/svg"><g transform="translate(-276 -56)">
<path id="Vector_34" d="M291 58H285C284.448 58 284 58.4477 284 59V61C284 61.5523 284.448 62 285 62H291C291.552 62 292 61.5523 292 61V59C292 58.4477 291.552 58 291 58Z" stroke="black" stroke-width="2" stroke-linecap="round" stroke-linejoin="round"/>
<path id="Vector_35" d="M292 60H294C294.53 60 295.039 60.2107 295.414 60.5858C295.789 60.9609 296 61.4696 296 62V76C296 76.5304 295.789 77.0391 295.414 77.4142C295.039 77.7893 294.53 78 294 78H282C281.47 78 280.961 77.7893 280.586 77.4142C280.211 77.0391 280 76.5304 280 76V62C280 61.4696 280.211 60.9609 280.586 60.5858C280.961 60.2107 281.47 60 282 60H284" stroke="black" stroke-width="2" stroke-linecap="round" stroke-linejoin="round"/>
<path id="Vector_36" d="M285 70H291" stroke="black" stroke-width="2" stroke-linecap="round" stroke-linejoin="round"/>
</g></svg>
