<svg viewBox="0 0 24 24" fill="none" xmlns="http://www.w3.org/2000/svg"><g transform="translate(-372 -56)">
<path id="Vector_46" d="M387 58H381C380.448 58 380 58.4477 380 59V61C380 61.5523 380.448 62 381 62H387C387.552 62 388 61.5523 388 61V59C388 58.4477 387.552 58 387 58Z" stroke="black" stroke-width="2" stroke-linecap="round" stroke-linejoin="round"/>
<path id="Vector_47" d="M380 60H378C377.47 60 376.961 60.2107 376.586 60.5858C376.211 60.9609 376 61.4696 376 62V76C376 76.5304 376.211 77.0391 376.586 77.4142C376.961 77.7893 377.47 78 378 78H390C390.53 78 391.039 77.7893 391.414 77.4142C391.789 77.0391 392 76.5304 392 76V75.5" stroke="black" stroke-width="2" stroke-linecap="round" stroke-linejoin="round"/>
<path id="Vector_48" d="M388 60H390C390.351 60.0004 390.695 60.0929 390.999 60.2685C391.302 60.444 391.555 60.6963 391.73 61" stroke="black" stroke-width="2" stroke-linecap="round" stroke-linejoin="round"/>
<path id="Vector_49" d="M380 74H381" stroke="black" stroke-width="2" stroke-linecap="round" stroke-linejoin="round"/>
<path id="Vector_50" d="M393.378 68.626C393.776 68.2277 394 67.6874 394 67.124C394 66.5607 393.776 66.0204 393.378 65.622C392.98 65.2237 392.439 64.9999 391.876 64.9999C391.313 64.9999 390.772 65.2237 390.374 65.622L386.364 69.634C386.126 69.8716 385.952 70.1654 385.858 70.488L385.021 73.358C384.996 73.4441 384.994 73.5353 385.017 73.6221C385.039 73.7089 385.084 73.7882 385.147 73.8516C385.211 73.915 385.29 73.9601 385.377 73.9824C385.464 74.0046 385.555 74.0031 385.641 73.978L388.511 73.141C388.834 73.0468 389.127 72.8728 389.365 72.635L393.378 68.626Z" stroke="black" stroke-width="2" stroke-linecap="round" stroke-linejoin="round"/>
</g></svg>
