<svg viewBox="0 0 24 24" fill="none" xmlns="http://www.w3.org/2000/svg"><g transform="translate(-148 -56)">
<path id="Vector_15" d="M163 58H157C156.448 58 156 58.4477 156 59V61C156 61.5523 156.448 62 157 62H163C163.552 62 164 61.5523 164 61V59C164 58.4477 163.552 58 163 58Z" stroke="black" stroke-width="2" stroke-linecap="round" stroke-linejoin="round"/>
<path id="Vector_16" d="M164 60H166C166.53 60 167.039 60.2107 167.414 60.5858C167.789 60.9609 168 61.4696 168 62V76C168 76.5304 167.789 77.0391 167.414 77.4142C167.039 77.7893 166.53 78 166 78H154C153.47 78 152.961 77.7893 152.586 77.4142C152.211 77.0391 152 76.5304 152 76V62C152 61.4696 152.211 60.9609 152.586 60.5858C152.961 60.2107 153.47 60 154 60H156" stroke="black" stroke-width="2" stroke-linecap="round" stroke-linejoin="round"/>
<path id="Vector_17" d="M157 70L159 72L163 68" stroke="black" stroke-width="2" stroke-linecap="round" stroke-linejoin="round"/>
</g></svg>
