<svg viewBox="0 0 24 24" fill="none" xmlns="http://www.w3.org/2000/svg"><g transform="translate(-340 -56)">
<path id="Vector_42" d="M356 60H358C358.53 60 359.039 60.2107 359.414 60.5858C359.789 60.9609 360 61.4696 360 62V64" stroke="black" stroke-width="2" stroke-linecap="round" stroke-linejoin="round"/>
<path id="Vector_43" d="M361.34 71.664C361.537 71.4667 361.694 71.2326 361.8 70.9749C361.907 70.7172 361.962 70.4409 361.962 70.162C361.962 69.883 361.907 69.6068 361.8 69.3491C361.694 69.0914 361.537 68.8572 361.34 68.66C361.143 68.4627 360.908 68.3063 360.651 68.1995C360.393 68.0928 360.117 68.0378 359.838 68.0378C359.559 68.0378 359.283 68.0928 359.025 68.1995C358.767 68.3063 358.533 68.4627 358.336 68.66L353.326 73.672C353.088 73.9096 352.914 74.2033 352.82 74.526L351.983 77.396C351.958 77.482 351.956 77.5733 351.979 77.6601C352.001 77.7469 352.046 77.8262 352.109 77.8895C352.173 77.9529 352.252 77.9981 352.339 78.0203C352.426 78.0426 352.517 78.0411 352.603 78.016L355.473 77.179C355.796 77.0848 356.089 76.9107 356.327 76.673L361.34 71.664Z" stroke="black" stroke-width="2" stroke-linecap="round" stroke-linejoin="round"/>
<path id="Vector_44" d="M348 78H346C345.47 78 344.961 77.7893 344.586 77.4142C344.211 77.0391 344 76.5304 344 76V62C344 61.4696 344.211 60.9609 344.586 60.5858C344.961 60.2107 345.47 60 346 60H348" stroke="black" stroke-width="2" stroke-linecap="round" stroke-linejoin="round"/>
<path id="Vector_45" d="M355 58H349C348.448 58 348 58.4477 348 59V61C348 61.5523 348.448 62 349 62H355C355.552 62 356 61.5523 356 61V59C356 58.4477 355.552 58 355 58Z" stroke="black" stroke-width="2" stroke-linecap="round" stroke-linejoin="round"/>
</g></svg>
