<svg viewBox="0 0 24 24" fill="none" xmlns="http://www.w3.org/2000/svg"><g transform="translate(-180 -56)">
<path id="Vector_18" d="M196 70V72.2L197.6 73.2" stroke="black" stroke-width="2" stroke-linecap="round" stroke-linejoin="round"/>
<path id="Vector_19" d="M196 60H198C198.53 60 199.039 60.2107 199.414 60.5858C199.789 60.9609 200 61.4696 200 62V62.832" stroke="black" stroke-width="2" stroke-linecap="round" stroke-linejoin="round"/>
<path id="Vector_20" d="M188 60H186C185.47 60 184.961 60.2107 184.586 60.5858C184.211 60.9609 184 61.4696 184 62V76C184 76.5304 184.211 77.0391 184.586 77.4142C184.961 77.7893 185.47 78 186 78H188" stroke="black" stroke-width="2" stroke-linecap="round" stroke-linejoin="round"/>
<path id="Vector_21" d="M196 78C199.314 78 202 75.3137 202 72C202 68.6863 199.314 66 196 66C192.686 66 190 68.6863 190 72C190 75.3137 192.686 78 196 78Z" stroke="black" stroke-width="2" stroke-linecap="round" stroke-linejoin="round"/>
<path id="Vector_22" d="M195 58H189C188.448 58 188 58.4477 188 59V61C188 61.5523 188.448 62 189 62H195C195.552 62 196 61.5523 196 61V59C196 58.4477 195.552 58 195 58Z" stroke="black" stroke-width="2" stroke-linecap="round" stroke-linejoin="round"/>
</g></svg>
