<svg viewBox="0 0 24 24" fill="none" xmlns="http://www.w3.org/2000/svg"><g transform="translate(-212 -56)">
<path id="Vector_23" d="M227 58H221C220.448 58 220 58.4477 220 59V61C220 61.5523 220.448 62 221 62H227C227.552 62 228 61.5523 228 61V59C228 58.4477 227.552 58 227 58Z" stroke="black" stroke-width="2" stroke-linecap="round" stroke-linejoin="round"/>
<path id="Vector_24" d="M220 60H218C217.47 60 216.961 60.2107 216.586 60.5858C216.211 60.9609 216 61.4696 216 62V76C216 76.5304 216.211 77.0391 216.586 77.4142C216.961 77.7893 217.47 78 218 78H230C230.53 78 231.039 77.7893 231.414 77.4142C231.789 77.0391 232 76.5304 232 76V74" stroke="black" stroke-width="2" stroke-linecap="round" stroke-linejoin="round"/>
<path id="Vector_25" d="M228 60H230C230.53 60 231.039 60.2107 231.414 60.5858C231.789 60.9609 232 61.4696 232 62V66" stroke="black" stroke-width="2" stroke-linecap="round" stroke-linejoin="round"/>
<path id="Vector_26" d="M233 70H223" stroke="black" stroke-width="2" stroke-linecap="round" stroke-linejoin="round"/>
<path id="Vector_27" d="M227 66L223 70L227 74" stroke="black" stroke-width="2" stroke-linecap="round" stroke-linejoin="round"/>
</g></svg>
