<svg viewBox="0 0 24 24" fill="none" xmlns="http://www.w3.org/2000/svg"><g transform="translate(-20 -88)">
<path id="Vector_51" d="M35 90H29C28.4477 90 28 90.4477 28 91V93C28 93.5523 28.4477 94 29 94H35C35.5523 94 36 93.5523 36 93V91C36 90.4477 35.5523 90 35 90Z" stroke="black" stroke-width="2" stroke-linecap="round" stroke-linejoin="round"/>
<path id="Vector_52" d="M36 92H38C38.5304 92 39.0391 92.2107 39.4142 92.5858C39.7893 92.9609 40 93.4696 40 94V108C40 108.53 39.7893 109.039 39.4142 109.414C39.0391 109.789 38.5304 110 38 110H26C25.4696 110 24.9609 109.789 24.5858 109.414C24.2107 109.039 24 108.53 24 108V94C24 93.4696 24.2107 92.9609 24.5858 92.5858C24.9609 92.2107 25.4696 92 26 92H28" stroke="black" stroke-width="2" stroke-linecap="round" stroke-linejoin="round"/>
<path id="Vector_53" d="M29 102H35" stroke="black" stroke-width="2" stroke-linecap="round" stroke-linejoin="round"/>
<path id="Vector_54" d="M32 105V99" stroke="black" stroke-width="2" stroke-linecap="round" stroke-linejoin="round"/>
</g></svg>
