<svg viewBox="0 0 24 24" fill="none" xmlns="http://www.w3.org/2000/svg"><g transform="translate(-84 -88)">
<path id="Vector_60" d="M99 90H93C92.4477 90 92 90.4477 92 91V93C92 93.5523 92.4477 94 93 94H99C99.5523 94 100 93.5523 100 93V91C100 90.4477 99.5523 90 99 90Z" stroke="black" stroke-width="2" stroke-linecap="round" stroke-linejoin="round"/>
<path id="Vector_61" d="M100 92H102C102.53 92 103.039 92.2107 103.414 92.5858C103.789 92.9609 104 93.4696 104 94V108C104 108.53 103.789 109.039 103.414 109.414C103.039 109.789 102.53 110 102 110H90C89.4696 110 88.9609 109.789 88.5858 109.414C88.2107 109.039 88 108.53 88 108V94C88 93.4696 88.2107 92.9609 88.5858 92.5858C88.9609 92.2107 89.4696 92 90 92H92" stroke="black" stroke-width="2" stroke-linecap="round" stroke-linejoin="round"/>
<path id="Vector_62" d="M99 99L93 105" stroke="black" stroke-width="2" stroke-linecap="round" stroke-linejoin="round"/>
<path id="Vector_63" d="M93 99L99 105" stroke="black" stroke-width="2" stroke-linecap="round" stroke-linejoin="round"/>
</g></svg>
