<svg viewBox="0 0 24 24" fill="none" xmlns="http://www.w3.org/2000/svg"><g transform="translate(-116 -56)">
<path id="Vector_13" d="M131 58H125C124.448 58 124 58.4477 124 59V61C124 61.5523 124.448 62 125 62H131C131.552 62 132 61.5523 132 61V59C132 58.4477 131.552 58 131 58Z" stroke="black" stroke-width="2" stroke-linecap="round" stroke-linejoin="round"/>
<path id="Vector_14" d="M132 60H134C134.53 60 135.039 60.2107 135.414 60.5858C135.789 60.9609 136 61.4696 136 62V76C136 76.5304 135.789 77.0391 135.414 77.4142C135.039 77.7893 134.53 78 134 78H122C121.47 78 120.961 77.7893 120.586 77.4142C120.211 77.0391 120 76.5304 120 76V62C120 61.4696 120.211 60.9609 120.586 60.5858C120.961 60.2107 121.47 60 122 60H124" stroke="black" stroke-width="2" stroke-linecap="round" stroke-linejoin="round"/>
</g></svg>
