<svg viewBox="0 0 24 24" fill="none" xmlns="http://www.w3.org/2000/svg"><g transform="translate(-52 -88)">
<path id="Vector_55" d="M67 90H61C60.4477 90 60 90.4477 60 91V93C60 93.5523 60.4477 94 61 94H67C67.5523 94 68 93.5523 68 93V91C68 90.4477 67.5523 90 67 90Z" stroke="black" stroke-width="2" stroke-linecap="round" stroke-linejoin="round"/>
<path id="Vector_56" d="M68 92H70C70.5304 92 71.0391 92.2107 71.4142 92.5858C71.7893 92.9609 72 93.4696 72 94V108C72 108.53 71.7893 109.039 71.4142 109.414C71.0391 109.789 70.5304 110 70 110H58C57.4696 110 56.9609 109.789 56.5858 109.414C56.2107 109.039 56 108.53 56 108V94C56 93.4696 56.2107 92.9609 56.5858 92.5858C56.9609 92.2107 57.4696 92 58 92H60" stroke="black" stroke-width="2" stroke-linecap="round" stroke-linejoin="round"/>
<path id="Vector_57" d="M61 100V99H67V100" stroke="black" stroke-width="2" stroke-linecap="round" stroke-linejoin="round"/>
<path id="Vector_58" d="M63 105H65" stroke="black" stroke-width="2" stroke-linecap="round" stroke-linejoin="round"/>
<path id="Vector_59" d="M64 99V105" stroke="black" stroke-width="2" stroke-linecap="round" stroke-linejoin="round"/>
</g></svg>
