<svg viewBox="0 0 24 24" fill="none" xmlns="http://www.w3.org/2000/svg"><g transform="translate(-308 -56)">
<path id="Vector_37" d="M319 70H329" stroke="black" stroke-width="2" stroke-linecap="round" stroke-linejoin="round"/>
<path id="Vector_38" d="M324 60H326C326.53 60 327.039 60.2107 327.414 60.5858C327.789 60.9609 328 61.4696 328 62V63.344" stroke="black" stroke-width="2" stroke-linecap="round" stroke-linejoin="round"/>
<path id="Vector_39" d="M325 74L329 70L325 66" stroke="black" stroke-width="2" stroke-linecap="round" stroke-linejoin="round"/>
<path id="Vector_40" d="M316 60H314C313.47 60 312.961 60.2107 312.586 60.5858C312.211 60.9609 312 61.4696 312 62V76C312 76.5304 312.211 77.0391 312.586 77.4142C312.961 77.7893 313.47 78 314 78H326C326.373 78.0001 326.738 77.8959 327.055 77.6992C327.372 77.5026 327.628 77.2212 327.793 76.887" stroke="black" stroke-width="2" stroke-linecap="round" stroke-linejoin="round"/>
<path id="Vector_41" d="M323 58H317C316.448 58 316 58.4477 316 59V61C316 61.5523 316.448 62 317 62H323C323.552 62 324 61.5523 324 61V59C324 58.4477 323.552 58 323 58Z" stroke="black" stroke-width="2" stroke-linecap="round" stroke-linejoin="round"/>
</g></svg>
