<svg viewBox="0 0 24 24" fill="none" xmlns="http://www.w3.org/2000/svg"><g transform="translate(-244 -56)">
<path id="Vector_28" d="M259 58H253C252.448 58 252 58.4477 252 59V61C252 61.5523 252.448 62 253 62H259C259.552 62 260 61.5523 260 61V59C260 58.4477 259.552 58 259 58Z" stroke="black" stroke-width="2" stroke-linecap="round" stroke-linejoin="round"/>
<path id="Vector_29" d="M260 60H262C262.53 60 263.039 60.2107 263.414 60.5858C263.789 60.9609 264 61.4696 264 62V76C264 76.5304 263.789 77.0391 263.414 77.4142C263.039 77.7893 262.53 78 262 78H250C249.47 78 248.961 77.7893 248.586 77.4142C248.211 77.0391 248 76.5304 248 76V62C248 61.4696 248.211 60.9609 248.586 60.5858C248.961 60.2107 249.47 60 250 60H252" stroke="black" stroke-width="2" stroke-linecap="round" stroke-linejoin="round"/>
<path id="Vector_30" d="M256 67H260" stroke="black" stroke-width="2" stroke-linecap="round" stroke-linejoin="round"/>
<path id="Vector_31" d="M256 72H260" stroke="black" stroke-width="2" stroke-linecap="round" stroke-linejoin="round"/>
<path id="Vector_32" d="M252 67H252.01" stroke="black" stroke-width="2" stroke-linecap="round" stroke-linejoin="round"/>
<path id="Vector_33" d="M252 72H252.01" stroke="black" stroke-width="2" stroke-linecap="round" stroke-linejoin="round"/>
</g></svg>
