<svg viewBox="0 0 24 24" fill="none" xmlns="http://www.w3.org/2000/svg"><g transform="translate(-180 -152)">
<path id="Vector_201" d="M192 158V164L196 166" stroke="black" stroke-width="2" stroke-linecap="round" stroke-linejoin="round"/>
<path id="Vector_202" d="M200 164V169" stroke="black" stroke-width="2" stroke-linecap="round" stroke-linejoin="round"/>
<path id="Vector_203" d="M200 173H200.01" stroke="black" stroke-width="2" stroke-linecap="round" stroke-linejoin="round"/>
<path id="Vector_204" d="M201.25 160.2C200.495 158.361 199.21 156.789 197.559 155.684C195.907 154.579 193.963 153.991 191.976 153.996C189.989 154 188.048 154.596 186.401 155.709C184.754 156.821 183.476 158.399 182.73 160.241C181.983 162.083 181.803 164.106 182.211 166.05C182.62 167.995 183.598 169.775 185.022 171.161C186.446 172.547 188.251 173.478 190.206 173.834C192.162 174.19 194.178 173.955 196 173.16" stroke="black" stroke-width="2" stroke-linecap="round" stroke-linejoin="round"/>
</g></svg>
