<svg viewBox="0 0 24 24" fill="none" xmlns="http://www.w3.org/2000/svg"><g transform="translate(-372 -152)">
<path id="Vector_224" d="M384 154C385.94 154 387.838 154.564 389.464 155.623C391.089 156.683 392.371 158.193 393.153 159.968C393.935 161.743 394.184 163.708 393.869 165.623C393.555 167.537 392.69 169.319 391.38 170.75" stroke="black" stroke-width="2" stroke-linecap="round" stroke-linejoin="round"/>
<path id="Vector_225" d="M384 158V164L388 166" stroke="black" stroke-width="2" stroke-linecap="round" stroke-linejoin="round"/>
<path id="Vector_226" d="M374.5 160.875C374.181 161.844 374.013 162.855 374 163.875" stroke="black" stroke-width="2" stroke-linecap="round" stroke-linejoin="round"/>
<path id="Vector_227" d="M374.83 168C375.392 169.292 376.22 170.45 377.26 171.4" stroke="black" stroke-width="2" stroke-linecap="round" stroke-linejoin="round"/>
<path id="Vector_228" d="M376.636 157.235C376.915 156.931 377.212 156.645 377.527 156.378" stroke="black" stroke-width="2" stroke-linecap="round" stroke-linejoin="round"/>
<path id="Vector_229" d="M380.644 173.42C383.137 174.308 385.881 174.172 388.275 173.04" stroke="black" stroke-width="2" stroke-linecap="round" stroke-linejoin="round"/>
</g></svg>
