<svg viewBox="0 0 24 24" fill="none" xmlns="http://www.w3.org/2000/svg"><g transform="translate(-308 -152)">
<path id="Vector_217" d="M320 158V164L321.56 164.78" stroke="black" stroke-width="2" stroke-linecap="round" stroke-linejoin="round"/>
<path id="Vector_218" d="M321.227 173.925C319.198 174.176 317.141 173.799 315.333 172.844C313.524 171.89 312.052 170.405 311.114 168.588C310.176 166.771 309.818 164.71 310.087 162.684C310.356 160.657 311.24 158.761 312.62 157.252C314 155.744 315.809 154.694 317.803 154.245C319.798 153.796 321.882 153.969 323.776 154.741C325.669 155.513 327.28 156.846 328.392 158.562C329.504 160.278 330.063 162.293 329.994 164.337" stroke="black" stroke-width="2" stroke-linecap="round" stroke-linejoin="round"/>
<path id="Vector_219" d="M322 170L326 166L330 170" stroke="black" stroke-width="2" stroke-linecap="round" stroke-linejoin="round"/>
<path id="Vector_220" d="M326 174V166" stroke="black" stroke-width="2" stroke-linecap="round" stroke-linejoin="round"/>
</g></svg>
