<svg viewBox="0 0 24 24" fill="none" xmlns="http://www.w3.org/2000/svg"><g transform="translate(-212 -152)">
<path id="Vector_205" d="M224 158V164L226 165" stroke="black" stroke-width="2" stroke-linecap="round" stroke-linejoin="round"/>
<path id="Vector_206" d="M224.337 173.994C222.294 174.063 220.279 173.504 218.563 172.392C216.847 171.28 215.513 169.669 214.741 167.775C213.969 165.882 213.796 163.798 214.245 161.803C214.694 159.809 215.744 157.999 217.253 156.62C218.762 155.24 220.657 154.356 222.684 154.087C224.711 153.818 226.772 154.176 228.588 155.114C230.405 156.052 231.891 157.524 232.845 159.332C233.799 161.141 234.176 163.198 233.925 165.227" stroke="black" stroke-width="2" stroke-linecap="round" stroke-linejoin="round"/>
<path id="Vector_207" d="M226 170L230 174L234 170" stroke="black" stroke-width="2" stroke-linecap="round" stroke-linejoin="round"/>
<path id="Vector_208" d="M230 166V174" stroke="black" stroke-width="2" stroke-linecap="round" stroke-linejoin="round"/>
</g></svg>
