<svg viewBox="0 0 24 24" fill="none" xmlns="http://www.w3.org/2000/svg"><g transform="translate(-276 -152)">
<path id="Vector_213" d="M288 158V164L290 165" stroke="black" stroke-width="2" stroke-linecap="round" stroke-linejoin="round"/>
<path id="Vector_214" d="M289.5 173.885C287.481 174.191 285.417 173.872 283.585 172.97C281.752 172.069 280.24 170.628 279.251 168.841C278.262 167.055 277.844 165.008 278.052 162.977C278.261 160.945 279.086 159.026 280.418 157.478C281.749 155.93 283.523 154.826 285.5 154.316C287.477 153.805 289.563 153.912 291.478 154.622C293.392 155.332 295.044 156.612 296.21 158.288C297.376 159.965 298 161.958 298 164" stroke="black" stroke-width="2" stroke-linecap="round" stroke-linejoin="round"/>
<path id="Vector_215" d="M290 170H298" stroke="black" stroke-width="2" stroke-linecap="round" stroke-linejoin="round"/>
<path id="Vector_216" d="M294 174L298 170L294 166" stroke="black" stroke-width="2" stroke-linecap="round" stroke-linejoin="round"/>
</g></svg>
