<svg viewBox="0 0 24 24" fill="none" xmlns="http://www.w3.org/2000/svg"><g transform="translate(-244 -152)">
<path id="Vector_209" d="M256 158V164L257.5 164.8" stroke="black" stroke-width="2" stroke-linecap="round" stroke-linejoin="round"/>
<path id="Vector_210" d="M256.338 173.994C254.295 174.063 252.279 173.504 250.563 172.392C248.848 171.28 247.514 169.669 246.741 167.776C245.969 165.883 245.796 163.799 246.245 161.804C246.694 159.809 247.744 158 249.253 156.62C250.761 155.24 252.657 154.356 254.684 154.087C256.711 153.818 258.771 154.176 260.588 155.114C262.405 156.052 263.891 157.524 264.845 159.332C265.799 161.141 266.176 163.198 265.925 165.227" stroke="black" stroke-width="2" stroke-linecap="round" stroke-linejoin="round"/>
<path id="Vector_211" d="M258 170H266" stroke="black" stroke-width="2" stroke-linecap="round" stroke-linejoin="round"/>
<path id="Vector_212" d="M262 174L258 170L262 166" stroke="black" stroke-width="2" stroke-linecap="round" stroke-linejoin="round"/>
</g></svg>
