<svg viewBox="0 0 24 24" fill="none" xmlns="http://www.w3.org/2000/svg"><g transform="translate(-20 -184)">
<path id="Vector_230" d="M32 190V196L35.644 197.822" stroke="black" stroke-width="2" stroke-linecap="round" stroke-linejoin="round"/>
<path id="Vector_231" d="M36 203H42" stroke="black" stroke-width="2" stroke-linecap="round" stroke-linejoin="round"/>
<path id="Vector_232" d="M39 200V206" stroke="black" stroke-width="2" stroke-linecap="round" stroke-linejoin="round"/>
<path id="Vector_233" d="M41.9205 197.267C42.1847 195.198 41.7951 193.098 40.8063 191.261C39.8176 189.424 38.2791 187.942 36.4063 187.023C34.5336 186.104 32.4203 185.794 30.3624 186.136C28.3045 186.477 26.405 187.454 24.9299 188.929C23.4548 190.405 22.478 192.304 22.1362 194.362C21.7943 196.42 22.1046 198.533 23.0236 200.406C23.9426 202.279 25.4243 203.817 27.2612 204.806C29.098 205.795 31.1982 206.184 33.2675 205.92" stroke="black" stroke-width="2" stroke-linecap="round" stroke-linejoin="round"/>
</g></svg>
