<svg viewBox="0 0 24 24" fill="none" xmlns="http://www.w3.org/2000/svg"><g transform="translate(-340 -152)">
<path id="Vector_221" d="M352 158V164L356 166" stroke="black" stroke-width="2" stroke-linecap="round" stroke-linejoin="round"/>
<path id="Vector_222" d="M362 164C362 162.065 361.438 160.171 360.384 158.549C359.329 156.926 357.826 155.645 356.057 154.86C354.288 154.075 352.33 153.82 350.419 154.126C348.508 154.432 346.727 155.286 345.292 156.584C343.857 157.882 342.829 159.569 342.333 161.439C341.838 163.31 341.896 165.284 342.5 167.123C343.104 168.961 344.229 170.585 345.738 171.796C347.247 173.008 349.075 173.756 351 173.95" stroke="black" stroke-width="2" stroke-linecap="round" stroke-linejoin="round"/>
<path id="Vector_223" d="M362 168L356.5 173.5L354 171" stroke="black" stroke-width="2" stroke-linecap="round" stroke-linejoin="round"/>
</g></svg>
