<svg viewBox="0 0 24 24" fill="none" xmlns="http://www.w3.org/2000/svg"><g transform="translate(-372 -56)">
<path id="Vector_44" d="M382 65.17C381.548 65.0109 381.064 64.9625 380.589 65.0289C380.114 65.0954 379.662 65.2747 379.271 65.5519C378.88 65.829 378.56 66.196 378.34 66.6219C378.12 67.0479 378.005 67.5205 378.005 68C378.005 68.4795 378.12 68.9521 378.34 69.3781C378.56 69.804 378.88 70.171 379.271 70.4481C379.662 70.7253 380.114 70.9046 380.589 70.9711C381.064 71.0375 381.548 70.9891 382 70.83" stroke="black" stroke-width="2" stroke-linecap="round" stroke-linejoin="round"/>
<path id="Vector_45" d="M389 65.17C388.548 65.0109 388.064 64.9625 387.589 65.0289C387.114 65.0954 386.662 65.2747 386.271 65.5519C385.88 65.829 385.56 66.196 385.34 66.6219C385.12 67.0479 385.005 67.5205 385.005 68C385.005 68.4795 385.12 68.9521 385.34 69.3781C385.56 69.804 385.88 70.171 386.271 70.4481C386.662 70.7253 387.114 70.9046 387.589 70.9711C388.064 71.0375 388.548 70.9891 389 70.83" stroke="black" stroke-width="2" stroke-linecap="round" stroke-linejoin="round"/>
<path id="Vector_46" d="M392 61H376C374.895 61 374 61.8954 374 63V73C374 74.1046 374.895 75 376 75H392C393.105 75 394 74.1046 394 73V63C394 61.8954 393.105 61 392 61Z" stroke="black" stroke-width="2" stroke-linecap="round" stroke-linejoin="round"/>
</g></svg>
