<svg viewBox="0 0 24 24" fill="none" xmlns="http://www.w3.org/2000/svg"><g transform="translate(-276 -88)">
<path id="Vector_87" d="M293.5 100C294.091 100 294.676 100.116 295.222 100.343C295.768 100.569 296.264 100.9 296.682 101.318C297.1 101.736 297.432 102.232 297.658 102.778C297.884 103.324 298 103.909 298 104.5C298 105.091 297.884 105.676 297.658 106.222C297.432 106.768 297.1 107.264 296.682 107.682C296.264 108.1 295.768 108.431 295.222 108.657C294.676 108.884 294.091 109 293.5 109H285.006C283.708 109.001 282.435 108.641 281.329 107.96C280.223 107.279 279.329 106.304 278.746 105.144C278.163 103.984 277.914 102.684 278.027 101.391C278.14 100.097 278.61 98.8606 279.386 97.8192C280.161 96.7778 281.211 95.9725 282.418 95.4936C283.625 95.0146 284.941 94.8808 286.22 95.1071C287.498 95.3334 288.689 95.9109 289.658 96.7749C290.627 97.639 291.337 98.7557 291.708 100H293.5Z" stroke="black" stroke-width="2" stroke-linecap="round" stroke-linejoin="round"/>
<path id="Vector_88" d="M297.832 97C297.625 96.4145 297.242 95.9077 296.734 95.5495C296.227 95.1913 295.621 94.9993 295 95H292.793C292.453 93.7962 291.712 92.7445 290.693 92.0185C289.674 91.2925 288.438 90.9356 287.189 91.0067C285.94 91.0778 284.752 91.5726 283.822 92.4095C282.892 93.2464 282.275 94.3753 282.073 95.61" stroke="black" stroke-width="2" stroke-linecap="round" stroke-linejoin="round"/>
</g></svg>
