<svg viewBox="0 0 24 24" fill="none" xmlns="http://www.w3.org/2000/svg"><g transform="translate(-244 -56)">
<path id="Vector_29" d="M248 70.899C247.257 70.1399 246.697 69.2217 246.361 68.214C246.026 67.2062 245.924 66.1353 246.064 65.0823C246.203 64.0294 246.581 63.022 247.167 62.1366C247.754 61.2511 248.535 60.5107 249.45 59.9716C250.365 59.4324 251.391 59.1086 252.45 59.0246C253.508 58.9406 254.572 59.0987 255.561 59.4869C256.55 59.8751 257.437 60.4831 258.156 61.2651C258.875 62.047 259.406 62.9823 259.71 64H261.5C262.466 63.9999 263.406 64.3103 264.181 64.8855C264.957 65.4606 265.527 66.2699 265.807 67.1938C266.087 68.1178 266.063 69.1074 265.738 70.0164C265.412 70.9254 264.803 71.7057 264 72.242" stroke="black" stroke-width="2" stroke-linecap="round" stroke-linejoin="round"/>
<path id="Vector_30" d="M260 73H251" stroke="black" stroke-width="2" stroke-linecap="round" stroke-linejoin="round"/>
<path id="Vector_31" d="M261 77H253" stroke="black" stroke-width="2" stroke-linecap="round" stroke-linejoin="round"/>
</g></svg>
