<svg viewBox="0 0 24 24" fill="none" xmlns="http://www.w3.org/2000/svg"><g transform="translate(-148 -56)">
<path id="Vector_10" d="M158.852 75.772L158.469 76.696" stroke="black" stroke-width="2" stroke-linecap="round" stroke-linejoin="round"/>
<path id="Vector_11" d="M161.148 70.2279L161.531 69.3049" stroke="black" stroke-width="2" stroke-linecap="round" stroke-linejoin="round"/>
<path id="Vector_12" d="M161.148 75.7719C161.512 75.6212 161.843 75.4002 162.121 75.1216C162.4 74.843 162.621 74.5123 162.772 74.1483C162.922 73.7843 163 73.3941 163 73.0001C163 72.6061 162.923 72.216 162.772 71.8519C162.621 71.4879 162.4 71.1571 162.121 70.8785C161.843 70.5999 161.512 70.3789 161.148 70.2281C160.784 70.0773 160.394 69.9996 160 69.9996C159.606 69.9996 159.216 70.0772 158.852 70.2279L158.469 69.3049" stroke="black" stroke-width="2" stroke-linecap="round" stroke-linejoin="round"/>
<path id="Vector_13" d="M161.53 76.696L161.148 75.772C160.413 76.0765 159.587 76.0764 158.852 75.7719C158.117 75.4673 157.533 74.8832 157.228 74.148C156.924 73.4128 156.924 72.5868 157.228 71.8517C157.533 71.1165 158.117 70.5325 158.852 70.228" stroke="black" stroke-width="2" stroke-linecap="round" stroke-linejoin="round"/>
<path id="Vector_14" d="M162.772 71.852L163.695 71.469" stroke="black" stroke-width="2" stroke-linecap="round" stroke-linejoin="round"/>
<path id="Vector_15" d="M162.772 74.1479L163.695 74.5309" stroke="black" stroke-width="2" stroke-linecap="round" stroke-linejoin="round"/>
<path id="Vector_16" d="M152.2 71.1001C151.517 70.4561 150.971 69.6814 150.593 68.8219C150.215 67.9624 150.015 67.0357 150.003 66.097C149.99 65.1584 150.167 64.2268 150.522 63.3579C150.878 62.4889 151.404 61.7003 152.07 61.0389C152.736 60.3775 153.529 59.8569 154.4 59.508C155.272 59.1591 156.205 58.9891 157.143 59.008C158.082 59.027 159.007 59.2345 159.864 59.6183C160.721 60.0021 161.491 60.5543 162.13 61.2421C162.861 62.0281 163.402 62.9718 163.71 64.0001H165.5C166.454 64.013 167.379 64.3286 168.142 64.9015C168.905 65.4744 169.466 66.2749 169.744 67.1874C170.022 68.0999 170.003 69.0772 169.69 69.9782C169.376 70.8792 168.785 71.6573 168 72.2001" stroke="black" stroke-width="2" stroke-linecap="round" stroke-linejoin="round"/>
<path id="Vector_17" d="M157.228 71.852L156.305 71.469" stroke="black" stroke-width="2" stroke-linecap="round" stroke-linejoin="round"/>
<path id="Vector_18" d="M157.228 74.1479L156.305 74.5309" stroke="black" stroke-width="2" stroke-linecap="round" stroke-linejoin="round"/>
</g></svg>
