<svg viewBox="0 0 24 24" fill="none" xmlns="http://www.w3.org/2000/svg"><g transform="translate(-340 -56)">
<path id="Vector_41" d="M353 72C353.796 72 354.559 72.3161 355.121 72.8787C355.684 73.4413 356 74.2044 356 75C356 75.7956 355.684 76.5587 355.121 77.1213C354.559 77.6839 353.796 78 353 78H347C346.054 77.9998 345.127 77.7312 344.328 77.2255C343.528 76.7197 342.889 75.9975 342.483 75.1427C342.078 74.288 341.923 73.3358 342.038 72.3966C342.152 71.4575 342.53 70.5701 343.128 69.8373C343.727 69.1046 344.521 68.5567 345.418 68.2572C346.315 67.9577 347.279 67.9189 348.198 68.1454C349.116 68.3718 349.952 68.8542 350.607 69.5366C351.262 70.2189 351.711 71.0731 351.9 72H353Z" stroke="black" stroke-width="2" stroke-linecap="round" stroke-linejoin="round"/>
<path id="Vector_42" d="M358.376 70.5121C359.234 70.1415 359.994 69.5753 360.595 68.8588C361.196 68.1422 361.621 67.2951 361.837 66.3851C361.985 65.7601 361.178 65.4151 360.589 65.6711C359.853 65.9894 359.038 66.0792 358.25 65.9289C357.463 65.7786 356.739 65.395 356.172 64.828C355.605 64.261 355.221 63.5367 355.071 62.7491C354.921 61.9615 355.011 61.1469 355.33 60.4111C355.585 59.8221 355.24 59.0161 354.614 59.1631C353.38 59.4563 352.27 60.133 351.445 61.096C350.619 62.059 350.12 63.2588 350.02 64.5231" stroke="black" stroke-width="2" stroke-linecap="round" stroke-linejoin="round"/>
</g></svg>
