<svg viewBox="0 0 24 24" fill="none" xmlns="http://www.w3.org/2000/svg"><g transform="translate(-148 -88)">
<path id="Vector_65" d="M160 90V92" stroke="black" stroke-width="2" stroke-linecap="round" stroke-linejoin="round"/>
<path id="Vector_66" d="M152.93 92.9299L154.34 94.3399" stroke="black" stroke-width="2" stroke-linecap="round" stroke-linejoin="round"/>
<path id="Vector_67" d="M168 100H170" stroke="black" stroke-width="2" stroke-linecap="round" stroke-linejoin="round"/>
<path id="Vector_68" d="M167.07 92.9299L165.66 94.3399" stroke="black" stroke-width="2" stroke-linecap="round" stroke-linejoin="round"/>
<path id="Vector_69" d="M163.947 100.65C164.071 99.9046 163.98 99.1395 163.686 98.4433C163.392 97.7472 162.907 97.1485 162.287 96.7165C161.668 96.2846 160.938 96.0371 160.183 96.0027C159.428 95.9683 158.679 96.1483 158.022 96.5221" stroke="black" stroke-width="2" stroke-linecap="round" stroke-linejoin="round"/>
<path id="Vector_70" d="M161 110H155C154.054 110 153.127 109.731 152.328 109.225C151.528 108.72 150.889 107.997 150.483 107.143C150.078 106.288 149.923 105.336 150.038 104.397C150.152 103.458 150.53 102.57 151.128 101.837C151.727 101.105 152.521 100.557 153.418 100.257C154.315 99.9577 155.279 99.9189 156.198 100.145C157.116 100.372 157.952 100.854 158.607 101.537C159.262 102.219 159.711 103.073 159.9 104H161C161.796 104 162.559 104.316 163.121 104.879C163.684 105.441 164 106.204 164 107C164 107.796 163.684 108.559 163.121 109.121C162.559 109.684 161.796 110 161 110Z" stroke="black" stroke-width="2" stroke-linecap="round" stroke-linejoin="round"/>
</g></svg>
