<svg viewBox="0 0 24 24" fill="none" xmlns="http://www.w3.org/2000/svg"><g transform="translate(-212 -56)">
<path id="Vector_22" d="M216 70.899C215.257 70.1399 214.697 69.2217 214.361 68.214C214.026 67.2062 213.924 66.1353 214.064 65.0823C214.203 64.0294 214.581 63.022 215.167 62.1366C215.754 61.2511 216.535 60.5107 217.45 59.9716C218.365 59.4324 219.391 59.1086 220.45 59.0246C221.508 58.9406 222.572 59.0987 223.561 59.4869C224.55 59.8751 225.437 60.4831 226.156 61.2651C226.875 62.047 227.406 62.9823 227.71 64H229.5C230.466 63.9999 231.406 64.3103 232.181 64.8855C232.957 65.4606 233.527 66.2699 233.807 67.1938C234.087 68.1178 234.063 69.1074 233.738 70.0164C233.412 70.9254 232.803 71.7057 232 72.242" stroke="black" stroke-width="2" stroke-linecap="round" stroke-linejoin="round"/>
<path id="Vector_23" d="M220 75V76" stroke="black" stroke-width="2" stroke-linecap="round" stroke-linejoin="round"/>
<path id="Vector_24" d="M220 70V71" stroke="black" stroke-width="2" stroke-linecap="round" stroke-linejoin="round"/>
<path id="Vector_25" d="M228 75V76" stroke="black" stroke-width="2" stroke-linecap="round" stroke-linejoin="round"/>
<path id="Vector_26" d="M228 70V71" stroke="black" stroke-width="2" stroke-linecap="round" stroke-linejoin="round"/>
<path id="Vector_27" d="M224 77V78" stroke="black" stroke-width="2" stroke-linecap="round" stroke-linejoin="round"/>
<path id="Vector_28" d="M224 72V73" stroke="black" stroke-width="2" stroke-linecap="round" stroke-linejoin="round"/>
</g></svg>
