<svg viewBox="0 0 24 24" fill="none" xmlns="http://www.w3.org/2000/svg"><g transform="translate(-180 -88)">
<path id="Vector_71" d="M192 90V92" stroke="black" stroke-width="2" stroke-linecap="round" stroke-linejoin="round"/>
<path id="Vector_72" d="M184.93 92.9299L186.34 94.3399" stroke="black" stroke-width="2" stroke-linecap="round" stroke-linejoin="round"/>
<path id="Vector_73" d="M200 100H202" stroke="black" stroke-width="2" stroke-linecap="round" stroke-linejoin="round"/>
<path id="Vector_74" d="M199.07 92.9299L197.66 94.3399" stroke="black" stroke-width="2" stroke-linecap="round" stroke-linejoin="round"/>
<path id="Vector_75" d="M195.947 100.65C196.071 99.9046 195.98 99.1395 195.686 98.4433C195.392 97.7472 194.907 97.1485 194.287 96.7165C193.668 96.2846 192.938 96.0371 192.183 96.0027C191.428 95.9683 190.679 96.1483 190.022 96.5221" stroke="black" stroke-width="2" stroke-linecap="round" stroke-linejoin="round"/>
<path id="Vector_76" d="M183 108C182.55 107.4 182.241 106.707 182.096 105.972C181.951 105.236 181.972 104.478 182.16 103.752C182.347 103.026 182.695 102.352 183.179 101.779C183.662 101.206 184.268 100.749 184.951 100.441C185.635 100.134 186.379 99.9845 187.128 100.004C187.878 100.023 188.613 100.21 189.28 100.552C189.947 100.893 190.529 101.381 190.983 101.978C191.436 102.575 191.749 103.266 191.9 104H193C193.608 103.999 194.202 104.183 194.704 104.528C195.205 104.873 195.59 105.362 195.807 105.93C196.024 106.499 196.063 107.12 195.919 107.711C195.774 108.302 195.454 108.835 195 109.24" stroke="black" stroke-width="2" stroke-linecap="round" stroke-linejoin="round"/>
<path id="Vector_77" d="M191 108V110" stroke="black" stroke-width="2" stroke-linecap="round" stroke-linejoin="round"/>
<path id="Vector_78" d="M187 107V109" stroke="black" stroke-width="2" stroke-linecap="round" stroke-linejoin="round"/>
</g></svg>
