<svg viewBox="0 0 24 24" fill="none" xmlns="http://www.w3.org/2000/svg"><g transform="translate(-308 -56)">
<path id="Vector_39" d="M314 72.326C312.947 71.8256 312.035 71.0698 311.347 70.1273C310.66 69.1848 310.219 68.0855 310.065 66.9292C309.91 65.7729 310.047 64.5964 310.463 63.5065C310.879 62.4167 311.561 61.4481 312.446 60.6887C313.332 59.9294 314.393 59.4034 315.534 59.1586C316.674 58.9138 317.858 58.9579 318.977 59.2869C320.096 59.6159 321.116 60.2194 321.942 61.0425C322.769 61.8656 323.377 62.8822 323.71 64H325.5C326.652 63.998 327.76 64.4375 328.598 65.228C329.435 66.0185 329.937 67.0999 330.001 68.2496C330.065 69.3993 329.686 70.5299 328.942 71.4085C328.198 72.2872 327.145 72.8471 326 72.973" stroke="black" stroke-width="2" stroke-linecap="round" stroke-linejoin="round"/>
<path id="Vector_40" d="M321 68L318 73H322L319 78" stroke="black" stroke-width="2" stroke-linecap="round" stroke-linejoin="round"/>
</g></svg>
