<svg viewBox="0 0 24 24" fill="none" xmlns="http://www.w3.org/2000/svg"><g transform="translate(-20 -56)">
<path id="Vector" d="M37.5002 75H29.0002C27.702 74.9997 26.4296 74.6384 25.3249 73.9565C24.2203 73.2746 23.3271 72.2989 22.745 71.1386C22.163 69.9783 21.9151 68.679 22.029 67.3858C22.1429 66.0927 22.6141 64.8567 23.39 63.816C24.1659 62.7753 25.216 61.9708 26.4228 61.4925C27.6296 61.0142 28.9456 60.8809 30.2238 61.1075C31.502 61.3341 32.692 61.9116 33.6609 62.7756C34.6297 63.6396 35.3393 64.756 35.7102 66H37.5002C38.6936 66 39.8382 66.4741 40.6821 67.318C41.5261 68.1619 42.0002 69.3065 42.0002 70.5C42.0002 71.6935 41.5261 72.8381 40.6821 73.682C39.8382 74.5259 38.6936 75 37.5002 75Z" stroke="black" stroke-width="2" stroke-linecap="round" stroke-linejoin="round"/>
</g></svg>
