<svg viewBox="0 0 24 24" fill="none" xmlns="http://www.w3.org/2000/svg"><g transform="translate(-372 -56)">
<path id="Vector_43" d="M383 76V78" stroke="black" stroke-width="2" stroke-linecap="round" stroke-linejoin="round"/>
<path id="Vector_44" d="M390.376 70.5121C391.234 70.1415 391.994 69.5753 392.595 68.8588C393.196 68.1422 393.621 67.2951 393.837 66.3851C393.985 65.7601 393.178 65.4151 392.589 65.6711C391.853 65.9894 391.038 66.0792 390.25 65.9289C389.463 65.7786 388.739 65.395 388.172 64.828C387.605 64.261 387.221 63.5367 387.071 62.7491C386.921 61.9615 387.011 61.1469 387.33 60.4111C387.585 59.8221 387.24 59.0161 386.614 59.1631C385.38 59.4563 384.27 60.133 383.445 61.096C382.619 62.059 382.12 63.2588 382.02 64.5231" stroke="black" stroke-width="2" stroke-linecap="round" stroke-linejoin="round"/>
<path id="Vector_45" d="M375 76.0001C374.55 75.4002 374.241 74.707 374.096 73.9716C373.951 73.2363 373.972 72.4777 374.16 71.7519C374.347 71.0261 374.695 70.3518 375.179 69.7788C375.662 69.2057 376.268 68.7487 376.951 68.4414C377.635 68.1341 378.379 67.9845 379.128 68.0036C379.878 68.0227 380.613 68.21 381.28 68.5517C381.947 68.8934 382.529 69.3807 382.983 69.9776C383.436 70.5745 383.749 71.2657 383.9 72.0001H385C385.608 71.9992 386.202 72.1833 386.704 72.5281C387.205 72.8728 387.59 73.3619 387.807 73.9303C388.024 74.4988 388.063 75.1198 387.919 75.7109C387.774 76.302 387.454 76.8353 387 77.2401" stroke="black" stroke-width="2" stroke-linecap="round" stroke-linejoin="round"/>
<path id="Vector_46" d="M379 75V77" stroke="black" stroke-width="2" stroke-linecap="round" stroke-linejoin="round"/>
</g></svg>
