<svg viewBox="0 0 24 24" fill="none" xmlns="http://www.w3.org/2000/svg"><g transform="translate(-244 -88)">
<path id="Vector_84" d="M256 101V109" stroke="black" stroke-width="2" stroke-linecap="round" stroke-linejoin="round"/>
<path id="Vector_85" d="M248 102.899C247.257 102.14 246.697 101.222 246.361 100.214C246.026 99.2062 245.924 98.1353 246.064 97.0823C246.203 96.0294 246.581 95.022 247.167 94.1366C247.754 93.2511 248.535 92.5107 249.45 91.9716C250.365 91.4324 251.391 91.1086 252.45 91.0246C253.508 90.9406 254.572 91.0987 255.561 91.4869C256.55 91.8751 257.437 92.4831 258.156 93.2651C258.875 94.047 259.406 94.9823 259.71 96H261.5C262.466 95.9999 263.406 96.3103 264.181 96.8855C264.957 97.4606 265.527 98.2699 265.807 99.1938C266.087 100.118 266.063 101.107 265.738 102.016C265.412 102.925 264.803 103.706 264 104.242" stroke="black" stroke-width="2" stroke-linecap="round" stroke-linejoin="round"/>
<path id="Vector_86" d="M252 105L256 101L260 105" stroke="black" stroke-width="2" stroke-linecap="round" stroke-linejoin="round"/>
</g></svg>
