<svg viewBox="0 0 24 24" fill="none" xmlns="http://www.w3.org/2000/svg"><g transform="translate(-84 -88)">
<path id="Vector_54" d="M88.0003 102.899C87.2574 102.14 86.6969 101.222 86.3614 100.214C86.0258 99.2062 85.924 98.1353 86.0637 97.0823C86.2034 96.0294 86.5808 95.022 87.1674 94.1366C87.7541 93.2511 88.5345 92.5107 89.4497 91.9716C90.3648 91.4324 91.3907 91.1086 92.4495 91.0246C93.5083 90.9406 94.5724 91.0987 95.5611 91.4869C96.5498 91.8751 97.4372 92.4831 98.1561 93.2651C98.8749 94.047 99.4065 94.9823 99.7103 96H101.5C102.466 95.9999 103.406 96.3103 104.181 96.8855C104.957 97.4606 105.527 98.2699 105.807 99.1938C106.087 100.118 106.063 101.107 105.738 102.016C105.412 102.925 104.803 103.706 104 104.242" stroke="black" stroke-width="2" stroke-linecap="round" stroke-linejoin="round"/>
<path id="Vector_55" d="M93.2002 110L96.2002 103" stroke="black" stroke-width="2" stroke-linecap="round" stroke-linejoin="round"/>
<path id="Vector_56" d="M93 101L90 108" stroke="black" stroke-width="2" stroke-linecap="round" stroke-linejoin="round"/>
<path id="Vector_57" d="M101 101L98 108" stroke="black" stroke-width="2" stroke-linecap="round" stroke-linejoin="round"/>
</g></svg>
