<svg viewBox="0 0 24 24" fill="none" xmlns="http://www.w3.org/2000/svg"><g transform="translate(-116 -56)">
<path id="Vector_8" d="M133 71L127.5 76.5L125 74" stroke="black" stroke-width="2" stroke-linecap="round" stroke-linejoin="round"/>
<path id="Vector_9" d="M121.516 72.0699C120.525 71.5005 119.687 70.6967 119.078 69.7289C118.469 68.7612 118.106 67.6588 118.021 66.5184C117.936 65.3779 118.132 64.2341 118.592 63.1869C119.051 62.1396 119.76 61.2209 120.657 60.5111C121.554 59.8013 122.611 59.322 123.735 59.1151C124.86 58.9081 126.018 58.9799 127.109 59.3241C128.2 59.6684 129.189 60.2745 129.991 61.0897C130.793 61.9048 131.384 62.904 131.71 63.9999H133.5C134.35 64 135.182 64.2404 135.9 64.6934C136.619 65.1464 137.194 65.7935 137.56 66.5598C137.927 67.3262 138.068 68.1806 137.969 69.0242C137.871 69.8677 137.535 70.6661 137.001 71.3269" stroke="black" stroke-width="2" stroke-linecap="round" stroke-linejoin="round"/>
</g></svg>
