<svg viewBox="0 0 24 24" fill="none" xmlns="http://www.w3.org/2000/svg"><g transform="translate(-52 -56)">
<path id="Vector_2" d="M64 68V72" stroke="black" stroke-width="2" stroke-linecap="round" stroke-linejoin="round"/>
<path id="Vector_3" d="M64 76H64.01" stroke="black" stroke-width="2" stroke-linecap="round" stroke-linejoin="round"/>
<path id="Vector_4" d="M60.128 72.949C58.8771 72.7914 57.6919 72.2989 56.6978 71.5235C55.7036 70.7481 54.9374 69.7185 54.4799 68.5436C54.0225 67.3687 53.8908 66.0921 54.0989 64.8486C54.307 63.6051 54.8471 62.4409 55.6621 61.4789C56.4771 60.517 57.5368 59.793 58.7293 59.3835C59.9217 58.9739 61.2026 58.8941 62.4367 59.1523C63.6707 59.4105 64.8122 59.9973 65.7403 60.8506C66.6685 61.7038 67.349 62.792 67.71 64H69.5C70.6934 64 71.838 64.4741 72.682 65.318C73.5259 66.1619 74 67.3065 74 68.5C74 69.6935 73.5259 70.8381 72.682 71.682C71.838 72.5259 70.6934 73 69.5 73H67.858" stroke="black" stroke-width="2" stroke-linecap="round" stroke-linejoin="round"/>
</g></svg>
