<svg viewBox="0 0 24 24" fill="none" xmlns="http://www.w3.org/2000/svg"><g transform="translate(-116 -88)">
<path id="Vector_58" d="M120 102.899C119.257 102.14 118.697 101.222 118.361 100.214C118.026 99.2062 117.924 98.1353 118.064 97.0823C118.203 96.0294 118.581 95.022 119.167 94.1366C119.754 93.2511 120.535 92.5107 121.45 91.9716C122.365 91.4324 123.391 91.1086 124.45 91.0246C125.508 90.9406 126.572 91.0987 127.561 91.4869C128.55 91.8751 129.437 92.4831 130.156 93.2651C130.875 94.047 131.406 94.9823 131.71 96H133.5C134.466 95.9999 135.406 96.3103 136.181 96.8855C136.957 97.4606 137.527 98.2699 137.807 99.1938C138.087 100.118 138.063 101.107 137.738 102.016C137.412 102.925 136.803 103.706 136 104.242" stroke="black" stroke-width="2" stroke-linecap="round" stroke-linejoin="round"/>
<path id="Vector_59" d="M124 103H124.01" stroke="black" stroke-width="2" stroke-linecap="round" stroke-linejoin="round"/>
<path id="Vector_60" d="M124 107H124.01" stroke="black" stroke-width="2" stroke-linecap="round" stroke-linejoin="round"/>
<path id="Vector_61" d="M128 105H128.01" stroke="black" stroke-width="2" stroke-linecap="round" stroke-linejoin="round"/>
<path id="Vector_62" d="M128 109H128.01" stroke="black" stroke-width="2" stroke-linecap="round" stroke-linejoin="round"/>
<path id="Vector_63" d="M132 103H132.01" stroke="black" stroke-width="2" stroke-linecap="round" stroke-linejoin="round"/>
<path id="Vector_64" d="M132 107H132.01" stroke="black" stroke-width="2" stroke-linecap="round" stroke-linejoin="round"/>
</g></svg>
