<svg viewBox="0 0 24 24" fill="none" xmlns="http://www.w3.org/2000/svg"><g transform="translate(-180 -56)">
<path id="Vector_19" d="M192 69V77L188 73" stroke="black" stroke-width="2" stroke-linecap="round" stroke-linejoin="round"/>
<path id="Vector_20" d="M192 77L196 73" stroke="black" stroke-width="2" stroke-linecap="round" stroke-linejoin="round"/>
<path id="Vector_21" d="M184.393 71.2691C183.576 70.5546 182.937 69.66 182.525 68.656C182.114 67.6519 181.941 66.566 182.021 65.4838C182.101 64.4016 182.432 63.3529 182.987 62.4204C183.542 61.4879 184.306 60.6972 185.219 60.1108C186.132 59.5243 187.169 59.1582 188.248 59.0412C189.326 58.9243 190.418 59.0598 191.435 59.437C192.453 59.8142 193.369 60.4228 194.11 61.2147C194.852 62.0066 195.4 62.9602 195.71 64.0001H197.5C198.472 63.9999 199.418 64.3146 200.196 64.8969C200.975 65.4792 201.544 66.298 201.818 67.2305C202.092 68.1631 202.057 69.1594 201.718 70.0704C201.378 70.9813 200.753 71.758 199.936 72.2841" stroke="black" stroke-width="2" stroke-linecap="round" stroke-linejoin="round"/>
</g></svg>
