<svg viewBox="0 0 24 24" fill="none" xmlns="http://www.w3.org/2000/svg"><g transform="translate(-20 -88)">
<path id="Vector_47" d="M30.9404 93.2739C32.0679 93.5988 33.0956 94.2018 33.9291 95.0276C34.7626 95.8535 35.3751 96.8755 35.7104 97.9999H37.5004C38.2255 97.9999 38.9398 98.1751 39.5825 98.5106C40.2253 98.8461 40.7774 99.3319 41.192 99.9267C41.6066 100.521 41.8714 101.208 41.9637 101.927C42.0561 102.646 41.9733 103.377 41.7224 104.057" stroke="black" stroke-width="2" stroke-linecap="round" stroke-linejoin="round"/>
<path id="Vector_48" d="M38.7958 106.81C38.3754 106.936 37.9388 107 37.4998 107H28.9998C27.4308 107 25.9073 106.472 24.674 105.502C23.4406 104.533 22.5689 103.176 22.1986 101.652C21.8284 100.127 21.9812 98.5221 22.6324 97.0946C23.2837 95.6671 24.3956 94.4998 25.7898 93.78" stroke="black" stroke-width="2" stroke-linecap="round" stroke-linejoin="round"/>
<path id="Vector_49" d="M22 90L42 110" stroke="black" stroke-width="2" stroke-linecap="round" stroke-linejoin="round"/>
</g></svg>
