<svg viewBox="0 0 24 24" fill="none" xmlns="http://www.w3.org/2000/svg"><g transform="translate(-212 -88)">
<path id="Vector_79" d="M229 106L227.465 107.605C226.891 108.157 226.193 108.563 225.43 108.791C224.668 109.019 223.861 109.061 223.079 108.914C222.296 108.768 221.56 108.436 220.931 107.948C220.303 107.459 219.8 106.827 219.465 106.105" stroke="black" stroke-width="2" stroke-linecap="round" stroke-linejoin="round"/>
<path id="Vector_80" d="M229 110V106H225" stroke="black" stroke-width="2" stroke-linecap="round" stroke-linejoin="round"/>
<path id="Vector_81" d="M232.996 103.251C233.507 102.589 233.824 101.799 233.91 100.967C233.997 100.135 233.851 99.296 233.487 98.5431C233.124 97.7902 232.557 97.1534 231.852 96.7042C231.147 96.255 230.331 96.0112 229.495 96.0001H227.705C227.42 95.0488 226.937 94.169 226.286 93.4189C225.635 92.6689 224.833 92.0658 223.931 91.6498C223.03 91.2337 222.05 91.0142 221.057 91.0059C220.064 90.9975 219.081 91.2004 218.173 91.6012C217.264 92.002 216.451 92.5914 215.788 93.3304C215.125 94.0694 214.627 94.941 214.326 95.8873C214.026 96.8336 213.93 97.8331 214.045 98.8192C214.161 99.8054 214.485 100.756 214.996 101.607" stroke="black" stroke-width="2" stroke-linecap="round" stroke-linejoin="round"/>
<path id="Vector_82" d="M219 98V102H223" stroke="black" stroke-width="2" stroke-linecap="round" stroke-linejoin="round"/>
<path id="Vector_83" d="M219 102L220.535 100.395C221.109 99.8433 221.807 99.4367 222.569 99.2089C223.332 98.9812 224.139 98.9389 224.921 99.0856C225.704 99.2324 226.44 99.5638 227.068 100.052C227.697 100.541 228.2 101.173 228.535 101.895" stroke="black" stroke-width="2" stroke-linecap="round" stroke-linejoin="round"/>
</g></svg>
