<svg viewBox="0 0 24 24" fill="none" xmlns="http://www.w3.org/2000/svg"><g transform="translate(-276 -56)">
<path id="Vector_32" d="M280 70.899C279.257 70.1399 278.697 69.2217 278.361 68.214C278.026 67.2062 277.924 66.1353 278.064 65.0823C278.203 64.0294 278.581 63.022 279.167 62.1366C279.754 61.2511 280.535 60.5107 281.45 59.9716C282.365 59.4324 283.391 59.1086 284.45 59.0246C285.508 58.9406 286.572 59.0987 287.561 59.4869C288.55 59.8751 289.437 60.4831 290.156 61.2651C290.875 62.047 291.406 62.9823 291.71 64H293.5C294.466 63.9999 295.406 64.3103 296.181 64.8855C296.957 65.4606 297.527 66.2699 297.807 67.1938C298.087 68.1178 298.063 69.1074 297.738 70.0164C297.412 70.9254 296.803 71.7057 296 72.242" stroke="black" stroke-width="2" stroke-linecap="round" stroke-linejoin="round"/>
<path id="Vector_33" d="M292 70V72" stroke="black" stroke-width="2" stroke-linecap="round" stroke-linejoin="round"/>
<path id="Vector_34" d="M284 70V72" stroke="black" stroke-width="2" stroke-linecap="round" stroke-linejoin="round"/>
<path id="Vector_35" d="M292 76H292.01" stroke="black" stroke-width="2" stroke-linecap="round" stroke-linejoin="round"/>
<path id="Vector_36" d="M284 76H284.01" stroke="black" stroke-width="2" stroke-linecap="round" stroke-linejoin="round"/>
<path id="Vector_37" d="M288 72V74" stroke="black" stroke-width="2" stroke-linecap="round" stroke-linejoin="round"/>
<path id="Vector_38" d="M288 78H288.01" stroke="black" stroke-width="2" stroke-linecap="round" stroke-linejoin="round"/>
</g></svg>
