<svg viewBox="0 0 24 24" fill="none" xmlns="http://www.w3.org/2000/svg"><g transform="translate(-84 -56)">
<path id="Vector_5" d="M105 71.2509C105.512 70.5894 105.828 69.7985 105.915 68.967C106.002 68.1355 105.856 67.2963 105.492 66.5434C105.129 65.7905 104.563 65.1537 103.858 64.7045C103.153 64.2552 102.336 64.0112 101.5 63.9999H99.7104C99.4256 63.0491 98.9418 62.1697 98.2911 61.4202C97.6405 60.6706 96.8379 60.068 95.9365 59.6523C95.0352 59.2366 94.0557 59.0173 93.0632 59.009C92.0706 59.0008 91.0877 59.2037 90.1796 59.6043C89.2714 60.0049 88.4589 60.5941 87.7958 61.3327C87.1328 62.0714 86.6344 62.9426 86.3337 63.8885C86.0331 64.8345 85.937 65.8335 86.052 66.8194C86.1669 67.8053 86.4902 68.7555 87.0004 69.6069" stroke="black" stroke-width="2" stroke-linecap="round" stroke-linejoin="round"/>
<path id="Vector_6" d="M91 67V71H95" stroke="black" stroke-width="2" stroke-linecap="round" stroke-linejoin="round"/>
<path id="Vector_7" d="M92 75C92.6296 75.8395 93.5075 76.4597 94.5092 76.7726C95.5108 77.0855 96.5856 77.0753 97.5811 76.7434C98.5767 76.4116 99.4426 75.7749 100.056 74.9236C100.67 74.0722 101 73.0494 101 72C101 70.8065 100.526 69.6619 99.682 68.818C98.8381 67.9741 97.6935 67.5 96.5 67.5C95.8669 67.4995 95.2398 67.6238 94.6547 67.8658C94.0696 68.1077 93.5379 68.4625 93.09 68.91L91 71" stroke="black" stroke-width="2" stroke-linecap="round" stroke-linejoin="round"/>
</g></svg>
