<svg viewBox="0 0 24 24" fill="none" xmlns="http://www.w3.org/2000/svg"><g transform="translate(-52 -88)">
<path id="Vector_50" d="M56.0003 102.899C55.2574 102.14 54.6969 101.222 54.3614 100.214C54.0258 99.2062 53.924 98.1353 54.0637 97.0823C54.2034 96.0294 54.5808 95.022 55.1674 94.1366C55.7541 93.2511 56.5345 92.5107 57.4497 91.9716C58.3648 91.4324 59.3907 91.1086 60.4495 91.0246C61.5083 90.9406 62.5724 91.0987 63.5611 91.4869C64.5498 91.8751 65.4372 92.4831 66.1561 93.2651C66.8749 94.047 67.4065 94.9823 67.7103 96H69.5003C70.4659 95.9999 71.4058 96.3103 72.1813 96.8855C72.9569 97.4606 73.5269 98.2699 73.8071 99.1938C74.0874 100.118 74.063 101.107 73.7377 102.016C73.4123 102.925 72.8032 103.706 72.0003 104.242" stroke="black" stroke-width="2" stroke-linecap="round" stroke-linejoin="round"/>
<path id="Vector_51" d="M68 102V108" stroke="black" stroke-width="2" stroke-linecap="round" stroke-linejoin="round"/>
<path id="Vector_52" d="M60 102V108" stroke="black" stroke-width="2" stroke-linecap="round" stroke-linejoin="round"/>
<path id="Vector_53" d="M64 104V110" stroke="black" stroke-width="2" stroke-linecap="round" stroke-linejoin="round"/>
</g></svg>
