<svg viewBox="0 0 24 24" fill="none" xmlns="http://www.w3.org/2000/svg"><g transform="translate(-308 -88)">
<path id="Vector_89" d="M324.17 95.8301L310 110" stroke="black" stroke-width="2" stroke-linecap="round" stroke-linejoin="round"/>
<path id="Vector_90" d="M312.02 100C311.727 99.7553 311.487 99.4537 311.314 99.1135C311.14 98.7732 311.038 98.4015 311.012 98.0205C310.987 97.6396 311.038 97.2574 311.164 96.8971C311.291 96.5367 311.488 96.2056 311.746 95.9237C312.003 95.6419 312.315 95.4151 312.663 95.2571C313.01 95.0991 313.386 95.0131 313.768 95.0043C314.15 94.9956 314.529 95.0642 314.884 95.2062C315.238 95.3481 315.56 95.5603 315.83 95.8301C315.561 95.5599 315.348 95.2379 315.206 94.8834C315.064 94.529 314.996 94.1495 315.005 93.7678C315.013 93.3861 315.099 93.0102 315.257 92.6626C315.415 92.315 315.642 92.0031 315.924 91.7456C316.206 91.488 316.537 91.2903 316.897 91.1642C317.258 91.0381 317.64 90.9864 318.021 91.012C318.402 91.0377 318.773 91.1402 319.114 91.3134C319.454 91.4867 319.756 91.7271 320 92.0201C320.245 91.7271 320.547 91.4867 320.887 91.3134C321.227 91.1402 321.599 91.0377 321.98 91.012C322.361 90.9864 322.743 91.0381 323.103 91.1642C323.464 91.2903 323.795 91.488 324.077 91.7456C324.358 92.0031 324.585 92.315 324.743 92.6626C324.901 93.0102 324.987 93.3861 324.996 93.7678C325.005 94.1495 324.936 94.529 324.794 94.8834C324.652 95.2379 324.44 95.5599 324.17 95.8301C324.44 95.5603 324.762 95.3481 325.117 95.2062C325.471 95.0642 325.851 94.9956 326.233 95.0043C326.614 95.0131 326.99 95.0991 327.338 95.2571C327.685 95.4151 327.997 95.6419 328.255 95.9237C328.512 96.2056 328.71 96.5367 328.836 96.8971C328.962 97.2574 329.014 97.6396 328.988 98.0205C328.963 98.4015 328.86 98.7732 328.687 99.1135C328.514 99.4537 328.273 99.7553 327.98 100C328.273 100.245 328.514 100.546 328.687 100.887C328.86 101.227 328.963 101.599 328.988 101.98C329.014 102.361 328.962 102.743 328.836 103.103C328.71 103.463 328.512 103.795 328.255 104.076C327.997 104.358 327.685 104.585 327.338 104.743C326.99 104.901 326.614 104.987 326.233 104.996C325.851 105.005 325.471 104.936 325.117 104.794C324.762 104.652 324.44 104.44 324.17 104.17C324.44 104.44 324.652 104.762 324.794 105.117C324.936 105.471 325.005 105.851 324.996 106.232C324.987 106.614 324.901 106.99 324.743 107.338C324.585 107.685 324.358 107.997 324.077 108.255C323.795 108.512 323.464 108.71 323.103 108.836C322.743 108.962 322.361 109.014 321.98 108.988C321.599 108.962 321.227 108.86 320.887 108.687C320.547 108.513 320.245 108.273 320 107.98C319.756 108.273 319.454 108.513 319.114 108.687C318.773 108.86 318.402 108.962 318.021 108.988C317.64 109.014 317.258 108.962 316.897 108.836C316.537 108.71 316.206 108.512 315.924 108.255C315.642 107.997 315.415 107.685 315.257 107.338C315.099 106.99 315.013 106.614 315.005 106.232C314.996 105.851 315.064 105.471 315.206 105.117C315.348 104.762 315.561 104.44 315.83 104.17C315.277 104.678 314.545 104.945 313.795 104.913C313.045 104.882 312.338 104.553 311.83 104C311.322 103.447 311.055 102.715 311.087 101.965C311.119 101.215 311.447 100.508 312 100" stroke="black" stroke-width="2" stroke-linecap="round" stroke-linejoin="round"/>
<path id="Vector_91" d="M315.83 95.8301L324.17 104.17" stroke="black" stroke-width="2" stroke-linecap="round" stroke-linejoin="round"/>
</g></svg>
