<svg viewBox="0 0 24 24" fill="none" xmlns="http://www.w3.org/2000/svg"><g transform="translate(-372 -56)">
<path id="Vector_53" d="M389.28 65.05C389.519 64.2303 389.564 63.3662 389.412 62.5261C389.259 61.6861 388.913 60.8931 388.4 60.21C387.888 59.5269 387.224 58.9725 386.46 58.5907C385.696 58.2088 384.854 58.01 384 58.01C383.146 58.01 382.304 58.2088 381.541 58.5907C380.777 58.9725 380.113 59.5269 379.6 60.21C379.088 60.8931 378.742 61.6861 378.589 62.5261C378.436 63.3662 378.481 64.2303 378.72 65.05C377.818 65.1797 376.963 65.5314 376.23 66.0737C375.498 66.6159 374.912 67.3317 374.524 68.1565C374.137 68.9814 373.961 69.8896 374.011 70.7995C374.062 71.7094 374.338 72.5924 374.814 73.3693C375.291 74.1461 375.953 74.7924 376.741 75.2501C377.529 75.7078 378.418 75.9625 379.329 75.9913C380.24 76.0201 381.144 75.8222 381.959 75.4153C382.774 75.0083 383.476 74.4052 384 73.66C384.524 74.4072 385.224 75.0125 386.04 75.4215C386.855 75.8304 387.76 76.0302 388.671 76.0027C389.583 75.9752 390.474 75.7213 391.263 75.264C392.052 74.8067 392.715 74.1602 393.193 73.3828C393.67 72.6055 393.946 71.7216 393.997 70.8108C394.048 69.9 393.871 68.9909 393.483 68.1654C393.095 67.3398 392.508 66.6238 391.774 66.0817C391.04 65.5396 390.183 65.1885 389.28 65.06V65.05Z" stroke="black" stroke-width="2" stroke-linecap="round" stroke-linejoin="round"/>
<path id="Vector_54" d="M384 73.66V78" stroke="black" stroke-width="2" stroke-linecap="round" stroke-linejoin="round"/>
</g></svg>
