<svg viewBox="0 0 24 24" fill="none" xmlns="http://www.w3.org/2000/svg"><g transform="translate(-244 -88)">
<path id="Vector_82" d="M254 90V92" stroke="black" stroke-width="2" stroke-linecap="round" stroke-linejoin="round"/>
<path id="Vector_83" d="M258 90V92" stroke="black" stroke-width="2" stroke-linecap="round" stroke-linejoin="round"/>
<path id="Vector_84" d="M260 96C260.265 96 260.52 96.1054 260.707 96.2929C260.895 96.4804 261 96.7348 261 97V105C261 106.061 260.579 107.078 259.828 107.828C259.078 108.579 258.061 109 257 109H251C249.939 109 248.922 108.579 248.172 107.828C247.421 107.078 247 106.061 247 105V97C247 96.7348 247.105 96.4804 247.293 96.2929C247.48 96.1054 247.735 96 248 96H262C263.061 96 264.078 96.4214 264.828 97.1716C265.579 97.9217 266 98.9391 266 100C266 101.061 265.579 102.078 264.828 102.828C264.078 103.579 263.061 104 262 104H261" stroke="black" stroke-width="2" stroke-linecap="round" stroke-linejoin="round"/>
<path id="Vector_85" d="M250 90V92" stroke="black" stroke-width="2" stroke-linecap="round" stroke-linejoin="round"/>
</g></svg>
