<svg viewBox="0 0 24 24" fill="none" xmlns="http://www.w3.org/2000/svg"><g transform="translate(-52 -88)">
<path id="Vector_58" d="M65.7441 105.736C65.4439 106.729 64.8915 107.626 64.1409 108.342C63.3903 109.057 62.4671 109.566 61.4613 109.819C60.4555 110.071 59.4014 110.058 58.4019 109.782C57.4024 109.506 56.4916 108.975 55.7583 108.242C55.0251 107.508 54.4944 106.598 54.218 105.598C53.9416 104.599 53.929 103.545 54.1814 102.539C54.4338 101.533 54.9426 100.61 55.6581 99.8591C56.3736 99.1085 57.2715 98.5562 58.2641 98.256" stroke="black" stroke-width="2" stroke-linecap="round" stroke-linejoin="round"/>
<path id="Vector_59" d="M67 94H68V98" stroke="black" stroke-width="2" stroke-linecap="round" stroke-linejoin="round"/>
<path id="Vector_60" d="M58.1338 102.768L58.9998 102.268L60.9998 105.732" stroke="black" stroke-width="2" stroke-linecap="round" stroke-linejoin="round"/>
<path id="Vector_61" d="M68 102C71.3137 102 74 99.3137 74 96C74 92.6863 71.3137 90 68 90C64.6863 90 62 92.6863 62 96C62 99.3137 64.6863 102 68 102Z" stroke="black" stroke-width="2" stroke-linecap="round" stroke-linejoin="round"/>
</g></svg>
