<svg viewBox="0 0 24 24" fill="none" xmlns="http://www.w3.org/2000/svg"><g transform="translate(-148 -56)">
<path id="Vector_11" d="M158.5 77H153C152.47 77 151.961 76.7893 151.586 76.4142C151.211 76.0391 151 75.5304 151 75V61C151 60.4696 151.211 59.9609 151.586 59.5858C151.961 59.2107 152.47 59 153 59H167C167.53 59 168.039 59.2107 168.414 59.5858C168.789 59.9609 169 60.4696 169 61V66.5" stroke="black" stroke-width="2" stroke-linecap="round" stroke-linejoin="round"/>
<path id="Vector_12" d="M162.3 75.6L163.3 75.2" stroke="black" stroke-width="2" stroke-linecap="round" stroke-linejoin="round"/>
<path id="Vector_13" d="M163 59V66.5" stroke="black" stroke-width="2" stroke-linecap="round" stroke-linejoin="round"/>
<path id="Vector_14" d="M163.2 72.9001L162.3 72.6001" stroke="black" stroke-width="2" stroke-linecap="round" stroke-linejoin="round"/>
<path id="Vector_15" d="M164.6 77.7001L164.9 76.8" stroke="black" stroke-width="2" stroke-linecap="round" stroke-linejoin="round"/>
<path id="Vector_16" d="M164.8 71.3L164.4 70.3" stroke="black" stroke-width="2" stroke-linecap="round" stroke-linejoin="round"/>
<path id="Vector_17" d="M167.1 71.2L167.4 70.3" stroke="black" stroke-width="2" stroke-linecap="round" stroke-linejoin="round"/>
<path id="Vector_18" d="M167.6 77.7L167.2 76.7" stroke="black" stroke-width="2" stroke-linecap="round" stroke-linejoin="round"/>
<path id="Vector_19" d="M168.7 72.7999L169.7 72.3999" stroke="black" stroke-width="2" stroke-linecap="round" stroke-linejoin="round"/>
<path id="Vector_20" d="M169.7 75.4001L168.8 75.1001" stroke="black" stroke-width="2" stroke-linecap="round" stroke-linejoin="round"/>
<path id="Vector_21" d="M157 59V77" stroke="black" stroke-width="2" stroke-linecap="round" stroke-linejoin="round"/>
<path id="Vector_22" d="M166 77C167.657 77 169 75.6569 169 74C169 72.3431 167.657 71 166 71C164.343 71 163 72.3431 163 74C163 75.6569 164.343 77 166 77Z" stroke="black" stroke-width="2" stroke-linecap="round" stroke-linejoin="round"/>
</g></svg>
