<svg viewBox="0 0 24 24" fill="none" xmlns="http://www.w3.org/2000/svg"><g transform="translate(-212 -56)">
<path id="Vector_27" d="M226 59C226.265 59 226.52 59.1054 226.707 59.2929C226.895 59.4804 227 59.7348 227 60V65C227 65.2652 226.895 65.5196 226.707 65.7071C226.52 65.8946 226.265 66 226 66" stroke="black" stroke-width="2" stroke-linecap="round" stroke-linejoin="round"/>
<path id="Vector_28" d="M231 59C231.265 59 231.52 59.1054 231.707 59.2929C231.895 59.4804 232 59.7348 232 60V65C232 65.2652 231.895 65.5196 231.707 65.7071C231.52 65.8946 231.265 66 231 66" stroke="black" stroke-width="2" stroke-linecap="round" stroke-linejoin="round"/>
<path id="Vector_29" d="M219 71L222 74" stroke="black" stroke-width="2" stroke-linecap="round" stroke-linejoin="round"/>
<path id="Vector_30" d="M219 77L222 74H217C216.47 74 215.961 73.7893 215.586 73.4142C215.211 73.0391 215 72.5304 215 72V70" stroke="black" stroke-width="2" stroke-linecap="round" stroke-linejoin="round"/>
<path id="Vector_31" d="M232 70H227C226.448 70 226 70.4477 226 71V76C226 76.5523 226.448 77 227 77H232C232.552 77 233 76.5523 233 76V71C233 70.4477 232.552 70 232 70Z" stroke="black" stroke-width="2" stroke-linecap="round" stroke-linejoin="round"/>
<path id="Vector_32" d="M221 59H216C215.448 59 215 59.4477 215 60V65C215 65.5523 215.448 66 216 66H221C221.552 66 222 65.5523 222 65V60C222 59.4477 221.552 59 221 59Z" stroke="black" stroke-width="2" stroke-linecap="round" stroke-linejoin="round"/>
</g></svg>
