<svg viewBox="0 0 24 24" fill="none" xmlns="http://www.w3.org/2000/svg"><g transform="translate(-148 -88)">
<path id="Vector_111" d="M163 94V106C163 106.593 163.176 107.173 163.506 107.667C163.835 108.16 164.304 108.545 164.852 108.772C165.4 108.999 166.003 109.058 166.585 108.942C167.167 108.827 167.702 108.541 168.121 108.121C168.541 107.702 168.827 107.167 168.942 106.585C169.058 106.003 168.999 105.4 168.772 104.852C168.545 104.304 168.16 103.835 167.667 103.506C167.173 103.176 166.593 103 166 103H154C153.407 103 152.827 103.176 152.333 103.506C151.84 103.835 151.455 104.304 151.228 104.852C151.001 105.4 150.942 106.003 151.058 106.585C151.173 107.167 151.459 107.702 151.879 108.121C152.298 108.541 152.833 108.827 153.415 108.942C153.997 109.058 154.6 108.999 155.148 108.772C155.696 108.545 156.165 108.16 156.494 107.667C156.824 107.173 157 106.593 157 106V94C157 93.4067 156.824 92.8266 156.494 92.3333C156.165 91.8399 155.696 91.4554 155.148 91.2284C154.6 91.0013 153.997 90.9419 153.415 91.0576C152.833 91.1734 152.298 91.4591 151.879 91.8787C151.459 92.2982 151.173 92.8328 151.058 93.4147C150.942 93.9967 151.001 94.5999 151.228 95.1481C151.455 95.6962 151.84 96.1648 152.333 96.4944C152.827 96.8241 153.407 97 154 97H166C166.593 97 167.173 96.8241 167.667 96.4944C168.16 96.1648 168.545 95.6962 168.772 95.1481C168.999 94.5999 169.058 93.9967 168.942 93.4147C168.827 92.8328 168.541 92.2982 168.121 91.8787C167.702 91.4591 167.167 91.1734 166.585 91.0576C166.003 90.9419 165.4 91.0013 164.852 91.2284C164.304 91.4554 163.835 91.8399 163.506 92.3333C163.176 92.8266 163 93.4067 163 94Z" stroke="black" stroke-width="2" stroke-linecap="round" stroke-linejoin="round"/>
</g></svg>
