<svg viewBox="0 0 24 24" fill="none" xmlns="http://www.w3.org/2000/svg"><g transform="translate(-180 -88)">
<path id="Vector_66" d="M197 90H187C185.895 90 185 90.8954 185 92V96C185 97.1046 185.895 98 187 98H197C198.105 98 199 97.1046 199 96V92C199 90.8954 198.105 90 197 90Z" stroke="black" stroke-width="2" stroke-linecap="round" stroke-linejoin="round"/>
<path id="Vector_67" d="M200 102H184C182.895 102 182 102.895 182 104V108C182 109.105 182.895 110 184 110H200C201.105 110 202 109.105 202 108V104C202 102.895 201.105 102 200 102Z" stroke="black" stroke-width="2" stroke-linecap="round" stroke-linejoin="round"/>
<path id="Vector_68" d="M186 106H188" stroke="black" stroke-width="2" stroke-linecap="round" stroke-linejoin="round"/>
<path id="Vector_69" d="M192 106H198" stroke="black" stroke-width="2" stroke-linecap="round" stroke-linejoin="round"/>
</g></svg>
