<svg viewBox="0 0 24 24" fill="none" xmlns="http://www.w3.org/2000/svg"><g transform="translate(-84 -56)">
<path id="Vector_11" d="M96 78C101.523 78 106 73.5228 106 68C106 62.4772 101.523 58 96 58C90.4772 58 86 62.4772 86 68C86 73.5228 90.4772 78 96 78Z" stroke="black" stroke-width="2" stroke-linecap="round" stroke-linejoin="round"/>
<path id="Vector_12" d="M100.24 63.76L98.4358 69.171C98.3376 69.4656 98.1722 69.7333 97.9526 69.9528C97.733 70.1724 97.4653 70.3378 97.1708 70.436L91.7598 72.24L93.5638 66.829C93.6619 66.5344 93.8274 66.2668 94.0469 66.0472C94.2665 65.8276 94.5342 65.6622 94.8288 65.564L100.24 63.76Z" stroke="black" stroke-width="2" stroke-linecap="round" stroke-linejoin="round"/>
</g></svg>
