<svg viewBox="0 0 24 24" fill="none" xmlns="http://www.w3.org/2000/svg"><g transform="translate(-212 -56)">
<path id="Vector_25" d="M227.536 67.293C227.348 67.4805 227.243 67.7348 227.243 68C227.243 68.2651 227.348 68.5194 227.536 68.707L229.912 71.084C230.099 71.2714 230.354 71.3767 230.619 71.3767C230.884 71.3767 231.138 71.2714 231.326 71.084L233.703 68.707C233.89 68.5194 233.996 68.2651 233.996 68C233.996 67.7348 233.89 67.4805 233.703 67.293L231.326 64.916C231.138 64.7285 230.884 64.6232 230.619 64.6232C230.354 64.6232 230.099 64.7285 229.912 64.916L227.536 67.293Z" stroke="black" stroke-width="2" stroke-linecap="round" stroke-linejoin="round"/>
<path id="Vector_26" d="M214.297 67.293C214.109 67.4805 214.004 67.7348 214.004 68C214.004 68.2651 214.109 68.5194 214.297 68.707L216.674 71.084C216.861 71.2714 217.116 71.3767 217.381 71.3767C217.646 71.3767 217.9 71.2714 218.088 71.084L220.465 68.707C220.652 68.5194 220.757 68.2651 220.757 68C220.757 67.7348 220.652 67.4805 220.465 67.293L218.088 64.916C217.9 64.7285 217.646 64.6232 217.381 64.6232C217.116 64.6232 216.861 64.7285 216.674 64.916L214.297 67.293Z" stroke="black" stroke-width="2" stroke-linecap="round" stroke-linejoin="round"/>
<path id="Vector_27" d="M220.916 73.912C220.823 74.0048 220.75 74.1151 220.699 74.2365C220.649 74.3579 220.623 74.488 220.623 74.6194C220.623 74.7509 220.649 74.881 220.699 75.0024C220.75 75.1238 220.823 75.2341 220.916 75.327L223.293 77.7029C223.481 77.8904 223.735 77.9957 224 77.9957C224.265 77.9957 224.52 77.8904 224.707 77.7029L227.084 75.327C227.177 75.2341 227.251 75.1238 227.301 75.0024C227.352 74.881 227.378 74.7509 227.378 74.6194C227.378 74.488 227.352 74.3579 227.301 74.2365C227.251 74.1151 227.177 74.0048 227.084 73.912L224.707 71.536C224.52 71.3485 224.265 71.2432 224 71.2432C223.735 71.2432 223.481 71.3485 223.293 71.536L220.916 73.912Z" stroke="black" stroke-width="2" stroke-linecap="round" stroke-linejoin="round"/>
<path id="Vector_28" d="M220.916 60.6741C220.728 60.8616 220.623 61.1159 220.623 61.3811C220.623 61.6462 220.728 61.9005 220.916 62.0881L223.293 64.4641C223.48 64.6515 223.735 64.7568 224 64.7568C224.265 64.7568 224.519 64.6515 224.707 64.4641L227.084 62.0881C227.271 61.9005 227.377 61.6462 227.377 61.3811C227.377 61.1159 227.271 60.8616 227.084 60.6741L224.707 58.2971C224.519 58.1096 224.265 58.0043 224 58.0043C223.735 58.0043 223.48 58.1096 223.293 58.2971L220.916 60.6741Z" stroke="black" stroke-width="2" stroke-linecap="round" stroke-linejoin="round"/>
</g></svg>
