<svg viewBox="0 0 24 24" fill="none" xmlns="http://www.w3.org/2000/svg"><g transform="translate(-148 -56)">
<path id="Vector_30" d="M151 76C150.735 76 150.48 75.8946 150.293 75.7071C150.105 75.5196 150 75.2652 150 75V74C150 73.4696 150.211 72.9609 150.586 72.5858C150.961 72.2107 151.47 72 152 72H168C168.53 72 169.039 72.2107 169.414 72.5858C169.789 72.9609 170 73.4696 170 74V75C170 75.2652 169.895 75.5196 169.707 75.7071C169.52 75.8946 169.265 76 169 76H151Z" stroke="black" stroke-width="2" stroke-linecap="round" stroke-linejoin="round"/>
<path id="Vector_31" d="M168 72C168 69.8783 167.157 67.8434 165.657 66.3431C164.157 64.8429 162.122 64 160 64C157.878 64 155.843 64.8429 154.343 66.3431C152.843 67.8434 152 69.8783 152 72" stroke="black" stroke-width="2" stroke-linecap="round" stroke-linejoin="round"/>
<path id="Vector_32" d="M160 60V64" stroke="black" stroke-width="2" stroke-linecap="round" stroke-linejoin="round"/>
<path id="Vector_33" d="M158 60H162" stroke="black" stroke-width="2" stroke-linecap="round" stroke-linejoin="round"/>
</g></svg>
