<svg viewBox="0 0 24 24" fill="none" xmlns="http://www.w3.org/2000/svg"><g transform="translate(-212 -56)">
<path id="Vector_34" d="M234 63.6999C234 63.0999 233.6 62.4999 233.2 62.1999L226.9 58.2999C226.641 58.1526 226.348 58.0752 226.05 58.0752C225.752 58.0752 225.459 58.1526 225.2 58.2999L214.9 64.2999C214.4 64.4999 214 65.0999 214 65.6999V72.2999C214 72.7999 214.4 73.4999 214.8 73.7999L221.1 77.6999C221.359 77.8472 221.652 77.9246 221.95 77.9246C222.248 77.9246 222.541 77.8472 222.8 77.6999L233.1 71.6999C233.6 71.3999 234 70.6999 234 70.1999V63.6999Z" stroke="black" stroke-width="2" stroke-linecap="round" stroke-linejoin="round"/>
<path id="Vector_35" d="M222 77.9001V70.0001L214.1 65.1001" stroke="black" stroke-width="2" stroke-linecap="round" stroke-linejoin="round"/>
<path id="Vector_36" d="M222 70.0001L233.9 63.1001" stroke="black" stroke-width="2" stroke-linecap="round" stroke-linejoin="round"/>
<path id="Vector_37" d="M226 75.8V67.7" stroke="black" stroke-width="2" stroke-linecap="round" stroke-linejoin="round"/>
<path id="Vector_38" d="M230 73.4999V65.3999" stroke="black" stroke-width="2" stroke-linecap="round" stroke-linejoin="round"/>
</g></svg>
