<svg viewBox="0 0 24 24" fill="none" xmlns="http://www.w3.org/2000/svg"><g transform="translate(-212 -56)">
<path id="Vector_24" d="M228 58V60" stroke="black" stroke-width="2" stroke-linecap="round" stroke-linejoin="round"/>
<path id="Vector_25" d="M229.915 78C229.915 76.4087 229.283 74.8826 228.158 73.7574C227.032 72.6321 225.506 72 223.915 72C222.324 72 220.798 72.6321 219.672 73.7574C218.547 74.8826 217.915 76.4087 217.915 78" stroke="black" stroke-width="2" stroke-linecap="round" stroke-linejoin="round"/>
<path id="Vector_26" d="M220 58V60" stroke="black" stroke-width="2" stroke-linecap="round" stroke-linejoin="round"/>
<path id="Vector_27" d="M224 72C226.209 72 228 70.2091 228 68C228 65.7909 226.209 64 224 64C221.791 64 220 65.7909 220 68C220 70.2091 221.791 72 224 72Z" stroke="black" stroke-width="2" stroke-linecap="round" stroke-linejoin="round"/>
<path id="Vector_28" d="M231 60H217C215.895 60 215 60.8954 215 62V76C215 77.1046 215.895 78 217 78H231C232.105 78 233 77.1046 233 76V62C233 60.8954 232.105 60 231 60Z" stroke="black" stroke-width="2" stroke-linecap="round" stroke-linejoin="round"/>
</g></svg>
