<svg viewBox="0 0 24 24" fill="none" xmlns="http://www.w3.org/2000/svg"><g transform="translate(-84 -88)">
<g id="Vector_15">
<path d="M90 108C91.1046 108 92 107.105 92 106C92 104.895 91.1046 104 90 104C88.8954 104 88 104.895 88 106C88 107.105 88.8954 108 90 108Z" fill="black" fill-opacity="0.56"/>
<path d="M96 100.5C96.2761 100.5 96.5 100.276 96.5 100C96.5 99.7239 96.2761 99.5 96 99.5C95.7239 99.5 95.5 99.7239 95.5 100C95.5 100.276 95.7239 100.5 96 100.5Z" fill="black" fill-opacity="0.56"/>
<path d="M90 96C91.1046 96 92 95.1046 92 94C92 92.8954 91.1046 92 90 92C88.8954 92 88 92.8954 88 94C88 95.1046 88.8954 96 90 96Z" fill="black" fill-opacity="0.56"/>
<path d="M93.64 95.64C93.87 95.14 94 94.59 94 94C94 91.79 92.21 90 90 90C87.79 90 86 91.79 86 94C86 96.21 87.79 98 90 98C90.59 98 91.14 97.87 91.64 97.64L94 100L91.64 102.36C91.14 102.13 90.59 102 90 102C87.79 102 86 103.79 86 106C86 108.21 87.79 110 90 110C92.21 110 94 108.21 94 106C94 105.41 93.87 104.86 93.64 104.36L96 102L103 109H106V108L93.64 95.64ZM90 96C88.9 96 88 95.11 88 94C88 92.89 88.9 92 90 92C91.1 92 92 92.89 92 94C92 95.11 91.1 96 90 96ZM90 108C88.9 108 88 107.11 88 106C88 104.89 88.9 104 90 104C91.1 104 92 104.89 92 106C92 107.11 91.1 108 90 108ZM96 100.5C95.72 100.5 95.5 100.28 95.5 100C95.5 99.72 95.72 99.5 96 99.5C96.28 99.5 96.5 99.72 96.5 100C96.5 100.28 96.28 100.5 96 100.5ZM103 91L97 97L99 99L106 92V91H103Z" fill="black" fill-opacity="0.56"/>
</g>
</g></svg>
