<svg viewBox="0 0 24 24" fill="none" xmlns="http://www.w3.org/2000/svg"><g transform="translate(-148 -88)">
<path id="Vector_17" d="M167 91H162.82C162.4 89.84 161.3 89 160 89C158.7 89 157.6 89.84 157.18 91H153C151.9 91 151 91.9 151 93V109C151 110.1 151.9 111 153 111H167C168.1 111 169 110.1 169 109V93C169 91.9 168.1 91 167 91ZM160 91C160.55 91 161 91.45 161 92C161 92.55 160.55 93 160 93C159.45 93 159 92.55 159 92C159 91.45 159.45 91 160 91ZM167 109H153V93H155V96H165V93H167V109Z" fill="black" fill-opacity="0.56"/>
</g></svg>
