<svg viewBox="0 0 24 24" fill="none" xmlns="http://www.w3.org/2000/svg"><g transform="translate(-180 -56)">
<path id="Vector_19" d="M196 58V60" stroke="black" stroke-width="2" stroke-linecap="round" stroke-linejoin="round"/>
<path id="Vector_20" d="M187 78V76C187 75.4696 187.211 74.9609 187.586 74.5858C187.961 74.2107 188.47 74 189 74H195C195.53 74 196.039 74.2107 196.414 74.5858C196.789 74.9609 197 75.4696 197 76V78" stroke="black" stroke-width="2" stroke-linecap="round" stroke-linejoin="round"/>
<path id="Vector_21" d="M188 58V60" stroke="black" stroke-width="2" stroke-linecap="round" stroke-linejoin="round"/>
<path id="Vector_22" d="M192 70C193.657 70 195 68.6569 195 67C195 65.3431 193.657 64 192 64C190.343 64 189 65.3431 189 67C189 68.6569 190.343 70 192 70Z" stroke="black" stroke-width="2" stroke-linecap="round" stroke-linejoin="round"/>
<path id="Vector_23" d="M199 60H185C183.895 60 183 60.8954 183 62V76C183 77.1046 183.895 78 185 78H199C200.105 78 201 77.1046 201 76V62C201 60.8954 200.105 60 199 60Z" stroke="black" stroke-width="2" stroke-linecap="round" stroke-linejoin="round"/>
</g></svg>
