<svg viewBox="0 0 24 24" fill="none" xmlns="http://www.w3.org/2000/svg"><g transform="translate(-308 -88)">
<path id="Vector_92" d="M310 100H330" stroke="black" stroke-width="2" stroke-linecap="round" stroke-linejoin="round"/>
<path id="Vector_93" d="M328 100V108C328 108.53 327.789 109.039 327.414 109.414C327.039 109.789 326.53 110 326 110H314C313.47 110 312.961 109.789 312.586 109.414C312.211 109.039 312 108.53 312 108V100" stroke="black" stroke-width="2" stroke-linecap="round" stroke-linejoin="round"/>
<path id="Vector_94" d="M312 96L328 92" stroke="black" stroke-width="2" stroke-linecap="round" stroke-linejoin="round"/>
<path id="Vector_95" d="M316.86 94.78L316.41 92.97C316.345 92.7152 316.332 92.4502 316.37 92.1902C316.408 91.9302 316.496 91.6802 316.631 91.4545C316.766 91.2288 316.944 91.0319 317.154 90.875C317.365 90.7181 317.605 90.6042 317.86 90.54L319.8 90.06C320.055 89.9957 320.321 89.9824 320.581 90.0211C320.842 90.0597 321.092 90.1494 321.318 90.2851C321.544 90.4207 321.741 90.5997 321.897 90.8116C322.054 91.0235 322.167 91.2643 322.23 91.52L322.68 93.32" stroke="black" stroke-width="2" stroke-linecap="round" stroke-linejoin="round"/>
</g></svg>
