<svg viewBox="0 0 24 24" fill="none" xmlns="http://www.w3.org/2000/svg"><g transform="translate(-276 -88)">
<path id="Vector_86" d="M282.444 91.6853C284.089 90.5865 286.022 90 288 90C287.786 90.695 287.766 91.4352 287.941 92.1409C288.116 92.8467 288.48 93.4913 288.994 94.0056C289.509 94.5198 290.153 94.8841 290.859 95.0593C291.565 95.2345 292.305 95.214 293 95C292.786 95.695 292.766 96.4352 292.941 97.1409C293.116 97.8467 293.48 98.4913 293.994 99.0056C294.509 99.5198 295.153 99.8841 295.859 100.059C296.565 100.234 297.305 100.214 298 100C298 101.978 297.414 103.911 296.315 105.556C295.216 107.2 293.654 108.482 291.827 109.239C290 109.996 287.989 110.194 286.049 109.808C284.109 109.422 282.327 108.47 280.929 107.071C279.53 105.673 278.578 103.891 278.192 101.951C277.806 100.011 278.004 98.0004 278.761 96.1732C279.518 94.3459 280.8 92.7841 282.444 91.6853Z" stroke="black" stroke-width="2" stroke-linecap="round" stroke-linejoin="round"/>
<path id="Vector_87" d="M284.5 96.5V96.51" stroke="black" stroke-width="2" stroke-linecap="round" stroke-linejoin="round"/>
<path id="Vector_88" d="M292 103.5V103.51" stroke="black" stroke-width="2" stroke-linecap="round" stroke-linejoin="round"/>
<path id="Vector_89" d="M288 100V100.01" stroke="black" stroke-width="2" stroke-linecap="round" stroke-linejoin="round"/>
<path id="Vector_90" d="M287 105V105.01" stroke="black" stroke-width="2" stroke-linecap="round" stroke-linejoin="round"/>
<path id="Vector_91" d="M283 102V102.01" stroke="black" stroke-width="2" stroke-linecap="round" stroke-linejoin="round"/>
</g></svg>
