<svg viewBox="0 0 24 24" fill="none" xmlns="http://www.w3.org/2000/svg"><g transform="translate(-212 -88)">
<path id="Vector_72" d="M227 100V106" stroke="black" stroke-width="2" stroke-linecap="round" stroke-linejoin="round"/>
<path id="Vector_73" d="M224 103H230" stroke="black" stroke-width="2" stroke-linecap="round" stroke-linejoin="round"/>
<path id="Vector_74" d="M232 96H222C220.895 96 220 96.8954 220 98V108C220 109.105 220.895 110 222 110H232C233.105 110 234 109.105 234 108V98C234 96.8954 233.105 96 232 96Z" stroke="black" stroke-width="2" stroke-linecap="round" stroke-linejoin="round"/>
<path id="Vector_75" d="M216 104C214.9 104 214 103.1 214 102V92C214 90.9 214.9 90 216 90H226C227.1 90 228 90.9 228 92" stroke="black" stroke-width="2" stroke-linecap="round" stroke-linejoin="round"/>
</g></svg>
