<svg viewBox="0 0 24 24" fill="none" xmlns="http://www.w3.org/2000/svg"><g transform="translate(-148 -88)">
<path id="Vector_66" d="M160 103L162 105L166 101" stroke="black" stroke-width="2" stroke-linecap="round" stroke-linejoin="round"/>
<path id="Vector_67" d="M168 96H158C156.895 96 156 96.8954 156 98V108C156 109.105 156.895 110 158 110H168C169.105 110 170 109.105 170 108V98C170 96.8954 169.105 96 168 96Z" stroke="black" stroke-width="2" stroke-linecap="round" stroke-linejoin="round"/>
<path id="Vector_68" d="M152 104C150.9 104 150 103.1 150 102V92C150 90.9 150.9 90 152 90H162C163.1 90 164 90.9 164 92" stroke="black" stroke-width="2" stroke-linecap="round" stroke-linejoin="round"/>
</g></svg>
