<svg viewBox="0 0 24 24" fill="none" xmlns="http://www.w3.org/2000/svg"><g transform="translate(-180 -56)">
<path id="Vector_12" d="M192 78C197.523 78 202 73.5228 202 68C202 62.4772 197.523 58 192 58C186.477 58 182 62.4772 182 68C182 73.5228 186.477 78 192 78Z" stroke="black" stroke-width="2" stroke-linecap="round" stroke-linejoin="round"/>
<path id="Vector_13" d="M194.83 70.83C194.27 71.389 193.557 71.7695 192.782 71.9235C192.006 72.0774 191.202 71.998 190.471 71.6951C189.741 71.3922 189.116 70.8795 188.677 70.2218C188.237 69.5641 188.003 68.7909 188.003 68C188.003 67.2091 188.237 66.4359 188.677 65.7782C189.116 65.1205 189.741 64.6078 190.471 64.3049C191.202 64.002 192.006 63.9226 192.782 64.0765C193.557 64.2305 194.27 64.611 194.83 65.17" stroke="black" stroke-width="2" stroke-linecap="round" stroke-linejoin="round"/>
</g></svg>
