<svg viewBox="0 0 24 24" fill="none" xmlns="http://www.w3.org/2000/svg"><g transform="translate(-148 -56)">
<path id="Vector_10" d="M160 78C165.523 78 170 73.5228 170 68C170 62.4772 165.523 58 160 58C154.477 58 150 62.4772 150 68C150 73.5228 154.477 78 160 78Z" stroke="black" stroke-width="2" stroke-linecap="round" stroke-linejoin="round"/>
<path id="Vector_11" d="M157.17 70.83C157.73 71.389 158.442 71.7695 159.218 71.9235C159.994 72.0774 160.798 71.998 161.529 71.6951C162.259 71.3922 162.884 70.8795 163.323 70.2218C163.762 69.5641 163.997 68.7909 163.997 68C163.997 67.2091 163.762 66.4359 163.323 65.7782C162.884 65.1205 162.259 64.6078 161.529 64.3049C160.798 64.002 159.994 63.9226 159.218 64.0765C158.442 64.2305 157.73 64.611 157.17 65.17" stroke="black" stroke-width="2" stroke-linecap="round" stroke-linejoin="round"/>
</g></svg>
