<svg viewBox="0 0 24 24" fill="none" xmlns="http://www.w3.org/2000/svg"><g transform="translate(-276 -88)">
<path id="Vector_79" d="M288 100L294 106" stroke="black" stroke-width="2" stroke-linecap="round" stroke-linejoin="round"/>
<path id="Vector_80" d="M288 106L294 100" stroke="black" stroke-width="2" stroke-linecap="round" stroke-linejoin="round"/>
<path id="Vector_81" d="M296 96H286C284.895 96 284 96.8954 284 98V108C284 109.105 284.895 110 286 110H296C297.105 110 298 109.105 298 108V98C298 96.8954 297.105 96 296 96Z" stroke="black" stroke-width="2" stroke-linecap="round" stroke-linejoin="round"/>
<path id="Vector_82" d="M280 104C278.9 104 278 103.1 278 102V92C278 90.9 278.9 90 280 90H290C291.1 90 292 90.9 292 92" stroke="black" stroke-width="2" stroke-linecap="round" stroke-linejoin="round"/>
</g></svg>
