<svg viewBox="0 0 24 24" fill="none" xmlns="http://www.w3.org/2000/svg"><g transform="translate(-212 -56)">
<path id="Vector_14" d="M224 78C229.523 78 234 73.5228 234 68C234 62.4772 229.523 58 224 58C218.477 58 214 62.4772 214 68C214 73.5228 218.477 78 224 78Z" stroke="black" stroke-width="2" stroke-linecap="round" stroke-linejoin="round"/>
<path id="Vector_15" d="M222 65.3C221.393 65.0222 220.707 64.9703 220.065 65.1536C219.424 65.337 218.868 65.7435 218.5 66.3C218.169 66.8051 217.992 67.3959 217.992 68C217.992 68.604 218.169 69.1949 218.5 69.7C218.853 70.2731 219.409 70.6934 220.056 70.8785C220.704 71.0635 221.397 70.9998 222 70.7" stroke="black" stroke-width="2" stroke-linecap="round" stroke-linejoin="round"/>
<path id="Vector_16" d="M229 65.3C228.393 65.0222 227.707 64.9703 227.065 65.1536C226.424 65.337 225.868 65.7435 225.5 66.3C225.169 66.8051 224.992 67.3959 224.992 68C224.992 68.604 225.169 69.1949 225.5 69.7C225.853 70.2731 226.409 70.6934 227.056 70.8785C227.704 71.0635 228.397 70.9998 229 70.7" stroke="black" stroke-width="2" stroke-linecap="round" stroke-linejoin="round"/>
</g></svg>
