<svg viewBox="0 0 24 24" fill="none" xmlns="http://www.w3.org/2000/svg"><g transform="translate(-340 -88)">
<path id="Vector_96" d="M350.2 106H344.774C344.478 105.99 344.191 105.892 343.951 105.72C343.71 105.547 343.526 105.307 343.422 105.03C342.812 102.904 342.858 100.643 343.554 98.543" stroke="black" stroke-width="2" stroke-linecap="round" stroke-linejoin="round"/>
<path id="Vector_97" d="M358 98.2V92.774C357.99 92.4781 357.892 92.1918 357.72 91.9512C357.547 91.7106 357.307 91.5265 357.03 91.422C354.904 90.813 352.644 90.859 350.544 91.554" stroke="black" stroke-width="2" stroke-linecap="round" stroke-linejoin="round"/>
<path id="Vector_98" d="M358 93C359.061 93 360.079 93.3161 360.829 93.8787C361.579 94.4413 362 95.2044 362 96C362 96.5304 361.79 97.0391 361.415 97.4142C361.039 97.7893 360.531 98 360 98C358.19 97.9995 356.414 98.4903 354.861 99.42" stroke="black" stroke-width="2" stroke-linecap="round" stroke-linejoin="round"/>
<path id="Vector_99" d="M345 106C345 107.061 345.316 108.078 345.879 108.828C346.441 109.579 347.204 110 348 110C348.53 110 349.039 109.789 349.414 109.414C349.789 109.039 350 108.53 350 108C349.999 106.19 350.49 104.413 351.42 102.86" stroke="black" stroke-width="2" stroke-linecap="round" stroke-linejoin="round"/>
<path id="Vector_100" d="M344.927 92.9267C345.993 91.8608 347.286 91.0497 348.709 90.554C349.017 90.4809 349.34 90.5069 349.632 90.6283C349.924 90.7497 350.17 90.9603 350.335 91.23L355.755 101.037C355.965 101.417 356.046 101.854 355.985 102.284C355.925 102.714 355.726 103.112 355.419 103.419C355.112 103.726 354.714 103.924 354.284 103.985C353.855 104.046 353.417 103.965 353.037 103.755L343.23 98.335C342.961 98.1698 342.75 97.9237 342.629 97.6316C342.507 97.3396 342.481 97.0167 342.554 96.709C343.05 95.2855 343.861 93.9925 344.927 92.9267Z" stroke="black" stroke-width="2" stroke-linecap="round" stroke-linejoin="round"/>
</g></svg>
