<svg viewBox="0 0 24 24" fill="none" xmlns="http://www.w3.org/2000/svg"><g transform="translate(-372 -56)">
<path id="Vector_60" d="M376 65C375.47 65 374.961 65.2107 374.586 65.5858C374.211 65.9609 374 66.4696 374 67V69C374 69.5304 374.211 70.0391 374.586 70.4142C374.961 70.7893 375.47 71 376 71H380C380.265 71 380.52 71.1054 380.707 71.2929C380.895 71.4804 381 71.7348 381 72V76C381 76.5304 381.211 77.0391 381.586 77.4142C381.961 77.7893 382.47 78 383 78H385C385.53 78 386.039 77.7893 386.414 77.4142C386.789 77.0391 387 76.5304 387 76V72C387 71.7348 387.105 71.4804 387.293 71.2929C387.48 71.1054 387.735 71 388 71H392C392.53 71 393.039 70.7893 393.414 70.4142C393.789 70.0391 394 69.5304 394 69V67C394 66.4696 393.789 65.9609 393.414 65.5858C393.039 65.2107 392.53 65 392 65H388C387.735 65 387.48 64.8946 387.293 64.7071C387.105 64.5196 387 64.2652 387 64V60C387 59.4696 386.789 58.9609 386.414 58.5858C386.039 58.2107 385.53 58 385 58H383C382.47 58 381.961 58.2107 381.586 58.5858C381.211 58.9609 381 59.4696 381 60V64C381 64.2652 380.895 64.5196 380.707 64.7071C380.52 64.8946 380.265 65 380 65H376Z" stroke="black" stroke-width="2" stroke-linecap="round" stroke-linejoin="round"/>
</g></svg>
