<svg viewBox="0 0 24 24" fill="none" xmlns="http://www.w3.org/2000/svg"><g transform="translate(-20 -88)">
<path id="Vector_55" d="M31.5624 91.266C31.6056 91.1876 31.669 91.1222 31.746 91.0767C31.8231 91.0312 31.9109 91.0071 32.0004 91.0071C32.0899 91.0071 32.1778 91.0312 32.2548 91.0767C32.3319 91.1222 32.3953 91.1876 32.4384 91.266L35.3904 96.87C35.4608 96.9997 35.5591 97.1123 35.6781 97.1996C35.7972 97.2869 35.9341 97.3467 36.079 97.3748C36.224 97.403 36.3733 97.3986 36.5164 97.3622C36.6594 97.3257 36.7926 97.258 36.9064 97.164L41.1834 93.5C41.2655 93.4332 41.3667 93.3942 41.4724 93.3886C41.5781 93.383 41.6828 93.411 41.7715 93.4687C41.8602 93.5264 41.9284 93.6108 41.9661 93.7097C42.0038 93.8086 42.0092 93.9169 41.9814 94.019L39.1474 104.265C39.0896 104.475 38.9649 104.66 38.7924 104.792C38.6199 104.925 38.4089 104.997 38.1914 104.999H25.8104C25.5928 104.997 25.3815 104.925 25.2088 104.792C25.0361 104.66 24.9113 104.475 24.8534 104.265L22.0204 94.02C21.9927 93.9179 21.998 93.8096 22.0358 93.7107C22.0735 93.6118 22.1416 93.5274 22.2303 93.4697C22.319 93.412 22.4238 93.384 22.5295 93.3896C22.6351 93.3952 22.7363 93.4342 22.8184 93.501L27.0944 97.165C27.2082 97.259 27.3414 97.3267 27.4845 97.3632C27.6275 97.3996 27.7769 97.404 27.9218 97.3758C28.0668 97.3477 28.2037 97.2879 28.3227 97.2006C28.4418 97.1133 28.54 97.0007 28.6104 96.871L31.5624 91.266Z" stroke="black" stroke-width="2" stroke-linecap="round" stroke-linejoin="round"/>
<path id="Vector_56" d="M25 109H39" stroke="black" stroke-width="2" stroke-linecap="round" stroke-linejoin="round"/>
</g></svg>
