<svg viewBox="0 0 24 24" fill="none" xmlns="http://www.w3.org/2000/svg"><g transform="translate(-244 -152)">
<path id="Vector_135" d="M254 174V166" stroke="black" stroke-width="2" stroke-linecap="round" stroke-linejoin="round"/>
<path id="Vector_136" d="M246.336 160.89L254 166L265.715 158.971" stroke="black" stroke-width="2" stroke-linecap="round" stroke-linejoin="round"/>
<path id="Vector_137" d="M266 166C266 166.345 265.911 166.685 265.74 166.985C265.57 167.286 265.325 167.537 265.029 167.715L255.029 173.715C254.704 173.91 254.331 174.009 253.953 174C253.574 173.991 253.206 173.875 252.891 173.665L246.891 169.665C246.617 169.482 246.392 169.235 246.237 168.944C246.081 168.654 246 168.329 246 168V162C246 161.655 246.089 161.315 246.26 161.015C246.43 160.714 246.675 160.463 246.971 160.285L256.971 154.285C257.296 154.09 257.669 153.991 258.047 154C258.426 154.009 258.794 154.125 259.109 154.335L265.109 158.335C265.383 158.518 265.608 158.765 265.763 159.056C265.919 159.346 266 159.67 266 160V166Z" stroke="black" stroke-width="2" stroke-linecap="round" stroke-linejoin="round"/>
</g></svg>
