<svg viewBox="0 0 24 24" fill="none" xmlns="http://www.w3.org/2000/svg"><g transform="translate(-372 -88)">
<path id="Vector_101" d="M378 96L379.75 108.28C379.818 108.761 380.058 109.2 380.426 109.516C380.794 109.833 381.265 110.005 381.75 110H386.29C386.775 110.005 387.246 109.833 387.614 109.516C387.982 109.2 388.222 108.761 388.29 108.28L390 96" stroke="black" stroke-width="2" stroke-linecap="round" stroke-linejoin="round"/>
<path id="Vector_102" d="M377 96H391" stroke="black" stroke-width="2" stroke-linecap="round" stroke-linejoin="round"/>
<path id="Vector_103" d="M379 103C379.792 102.668 380.642 102.497 381.5 102.497C382.358 102.497 383.208 102.668 384 103C384.792 103.332 385.642 103.503 386.5 103.503C387.358 103.503 388.208 103.332 389 103" stroke="black" stroke-width="2" stroke-linecap="round" stroke-linejoin="round"/>
<path id="Vector_104" d="M384 96L385 90H387" stroke="black" stroke-width="2" stroke-linecap="round" stroke-linejoin="round"/>
</g></svg>
