<svg viewBox="0 0 24 24" fill="none" xmlns="http://www.w3.org/2000/svg"><g transform="translate(-180 -56)">
<path id="Vector_34" d="M191 67.31C192.17 67.87 192.54 69 194.5 69C197 69 197 67 199.5 67C200.8 67 201.4 67.5 202 68" stroke="black" stroke-width="2" stroke-linecap="round" stroke-linejoin="round"/>
<path id="Vector_35" d="M191.75 74C192.1 74.5 193.2 75 194.5 75C197 75 197 73 199.5 73C200.8 73 201.4 73.5 202 74" stroke="black" stroke-width="2" stroke-linecap="round" stroke-linejoin="round"/>
<path id="Vector_36" d="M182 66H186" stroke="black" stroke-width="2" stroke-linecap="round" stroke-linejoin="round"/>
<path id="Vector_37" d="M182 70H186" stroke="black" stroke-width="2" stroke-linecap="round" stroke-linejoin="round"/>
<path id="Vector_38" d="M182 74H186" stroke="black" stroke-width="2" stroke-linecap="round" stroke-linejoin="round"/>
<path id="Vector_39" d="M182 62H186" stroke="black" stroke-width="2" stroke-linecap="round" stroke-linejoin="round"/>
<path id="Vector_40" d="M187 59C186.735 59 186.48 59.1054 186.293 59.2929C186.105 59.4804 186 59.7348 186 60V76C186 76.2652 186.105 76.5196 186.293 76.7071C186.48 76.8946 186.735 77 187 77H191C191.265 77 191.52 76.8946 191.707 76.7071C191.895 76.5196 192 76.2652 192 76L190 60C190 59.7348 189.895 59.4804 189.707 59.2929C189.52 59.1054 189.265 59 189 59H187Z" stroke="black" stroke-width="2" stroke-linecap="round" stroke-linejoin="round"/>
</g></svg>
