<svg viewBox="0 0 24 24" fill="none" xmlns="http://www.w3.org/2000/svg"><g transform="translate(-244 -56)">
<path id="Vector_38" d="M265 67.693V61" stroke="black" stroke-width="2" stroke-linecap="round" stroke-linejoin="round"/>
<path id="Vector_39" d="M266 78L264.125 76.125" stroke="black" stroke-width="2" stroke-linecap="round" stroke-linejoin="round"/>
<path id="Vector_40" d="M247 68C247 68.7781 247.907 69.5257 249.53 70.0851C251.153 70.6445 253.364 70.9718 255.697 70.998" stroke="black" stroke-width="2" stroke-linecap="round" stroke-linejoin="round"/>
<path id="Vector_41" d="M247 61V75C247 75.4019 247.242 75.7996 247.712 76.1697C248.182 76.5398 248.87 76.8746 249.735 77.1544C250.601 77.4341 251.626 77.653 252.75 77.7981C253.875 77.9432 255.075 78.0115 256.28 77.999" stroke="black" stroke-width="2" stroke-linecap="round" stroke-linejoin="round"/>
<path id="Vector_42" d="M262 77C263.657 77 265 75.6569 265 74C265 72.3431 263.657 71 262 71C260.343 71 259 72.3431 259 74C259 75.6569 260.343 77 262 77Z" stroke="black" stroke-width="2" stroke-linecap="round" stroke-linejoin="round"/>
<path id="Vector_43" d="M256 64C260.971 64 265 62.6569 265 61C265 59.3431 260.971 58 256 58C251.029 58 247 59.3431 247 61C247 62.6569 251.029 64 256 64Z" stroke="black" stroke-width="2" stroke-linecap="round" stroke-linejoin="round"/>
</g></svg>
