<svg viewBox="0 0 24 24" fill="none" xmlns="http://www.w3.org/2000/svg"><g transform="translate(-116 -56)">
<path id="Vector_16" d="M128 64C132.971 64 137 62.6569 137 61C137 59.3431 132.971 58 128 58C123.029 58 119 59.3431 119 61C119 62.6569 123.029 64 128 64Z" stroke="black" stroke-width="2" stroke-linecap="round" stroke-linejoin="round"/>
<path id="Vector_17" d="M119 68C118.999 68.5592 119.466 69.1073 120.349 69.5826C121.233 70.0579 122.497 70.4415 124 70.69" stroke="black" stroke-width="2" stroke-linecap="round" stroke-linejoin="round"/>
<path id="Vector_18" d="M137 65.3V61" stroke="black" stroke-width="2" stroke-linecap="round" stroke-linejoin="round"/>
<path id="Vector_19" d="M119 61V75C118.999 75.6487 119.63 76.28 120.796 76.7992C121.962 77.3184 123.602 77.6976 125.47 77.88" stroke="black" stroke-width="2" stroke-linecap="round" stroke-linejoin="round"/>
<path id="Vector_20" d="M128 68V72H132" stroke="black" stroke-width="2" stroke-linecap="round" stroke-linejoin="round"/>
<path id="Vector_21" d="M129 76C129.63 76.8395 130.507 77.4597 131.509 77.7726C132.511 78.0855 133.586 78.0753 134.581 77.7434C135.577 77.4116 136.443 76.7749 137.056 75.9236C137.67 75.0722 138 74.0494 138 73C138 71.8065 137.526 70.6619 136.682 69.818C135.838 68.9741 134.693 68.5 133.5 68.5C132.17 68.5 130.96 69.04 130.09 69.91L128 72" stroke="black" stroke-width="2" stroke-linecap="round" stroke-linejoin="round"/>
</g></svg>
