<svg viewBox="0 0 24 24" fill="none" xmlns="http://www.w3.org/2000/svg"><g transform="translate(-20 -56)">
<path id="Vector" d="M32 64C36.9706 64 41 62.6569 41 61C41 59.3431 36.9706 58 32 58C27.0294 58 23 59.3431 23 61C23 62.6569 27.0294 64 32 64Z" stroke="black" stroke-width="2" stroke-linecap="round" stroke-linejoin="round"/>
<path id="Vector_2" d="M23 61V75C23 75.7956 23.9482 76.5587 25.636 77.1213C27.3239 77.6839 29.6131 78 32 78C34.3869 78 36.6761 77.6839 38.364 77.1213C40.0518 76.5587 41 75.7956 41 75V61" stroke="black" stroke-width="2" stroke-linecap="round" stroke-linejoin="round"/>
<path id="Vector_3" d="M23 68C23 68.7956 23.9482 69.5587 25.636 70.1213C27.3239 70.6839 29.6131 71 32 71C34.3869 71 36.6761 70.6839 38.364 70.1213C40.0518 69.5587 41 68.7956 41 68" stroke="black" stroke-width="2" stroke-linecap="round" stroke-linejoin="round"/>
</g></svg>
