<svg viewBox="0 0 24 24" fill="none" xmlns="http://www.w3.org/2000/svg"><g transform="translate(-52 -56)">
<path id="Vector_4" d="M68 75L71 78L74 75" stroke="black" stroke-width="2" stroke-linecap="round" stroke-linejoin="round"/>
<path id="Vector_5" d="M71 72V78" stroke="black" stroke-width="2" stroke-linecap="round" stroke-linejoin="round"/>
<path id="Vector_6" d="M73 68.536V61" stroke="black" stroke-width="2" stroke-linecap="round" stroke-linejoin="round"/>
<path id="Vector_7" d="M55 68C55.0001 68.4854 55.3536 68.9635 56.03 69.3933C56.7064 69.8232 57.6856 70.1919 58.8836 70.4678C60.0815 70.7438 61.4624 70.9187 62.9078 70.9776C64.3532 71.0365 65.8199 70.9776 67.182 70.806" stroke="black" stroke-width="2" stroke-linecap="round" stroke-linejoin="round"/>
<path id="Vector_8" d="M55 61V75C54.9999 75.4311 55.2785 75.8572 55.8169 76.2492C56.3553 76.6412 57.1409 76.9899 58.1201 77.2716C59.0993 77.5532 60.2491 77.7613 61.4912 77.8814C62.7333 78.0016 64.0386 78.0311 65.318 77.968" stroke="black" stroke-width="2" stroke-linecap="round" stroke-linejoin="round"/>
<path id="Vector_9" d="M64 64C68.9706 64 73 62.6569 73 61C73 59.3431 68.9706 58 64 58C59.0294 58 55 59.3431 55 61C55 62.6569 59.0294 64 64 64Z" stroke="black" stroke-width="2" stroke-linecap="round" stroke-linejoin="round"/>
</g></svg>
