<svg viewBox="0 0 24 24" fill="none" xmlns="http://www.w3.org/2000/svg"><g transform="translate(-180 -56)">
<path id="Vector_27" d="M201 71V61" stroke="black" stroke-width="2" stroke-linecap="round" stroke-linejoin="round"/>
<path id="Vector_28" d="M202 75H196" stroke="black" stroke-width="2" stroke-linecap="round" stroke-linejoin="round"/>
<path id="Vector_29" d="M183 68C183 68.7956 183.948 69.5587 185.636 70.1213C187.324 70.6839 189.613 71 192 71C194.387 71 196.676 70.6839 198.364 70.1213C200.052 69.5587 201 68.7956 201 68" stroke="black" stroke-width="2" stroke-linecap="round" stroke-linejoin="round"/>
<path id="Vector_30" d="M183 61V75C183 75.4311 183.278 75.8572 183.817 76.2492C184.355 76.6412 185.141 76.9899 186.12 77.2716C187.099 77.5532 188.249 77.7613 189.491 77.8814C190.733 78.0016 192.039 78.0311 193.318 77.968" stroke="black" stroke-width="2" stroke-linecap="round" stroke-linejoin="round"/>
<path id="Vector_31" d="M192 64C196.971 64 201 62.6569 201 61C201 59.3431 196.971 58 192 58C187.029 58 183 59.3431 183 61C183 62.6569 187.029 64 192 64Z" stroke="black" stroke-width="2" stroke-linecap="round" stroke-linejoin="round"/>
</g></svg>
