<svg viewBox="0 0 24 24" fill="none" xmlns="http://www.w3.org/2000/svg"><g transform="translate(-308 -56)">
<path id="Vector_51" d="M320 64C324.971 64 329 62.6569 329 61C329 59.3431 324.971 58 320 58C315.029 58 311 59.3431 311 61C311 62.6569 315.029 64 320 64Z" stroke="black" stroke-width="2" stroke-linecap="round" stroke-linejoin="round"/>
<path id="Vector_52" d="M311 61V75C310.994 75.4809 311.336 75.9552 311.995 76.383C312.655 76.8107 313.613 77.1793 314.79 77.4577C315.966 77.7361 317.326 77.9162 318.755 77.9827C320.184 78.0493 321.64 78.0003 323 77.84" stroke="black" stroke-width="2" stroke-linecap="round" stroke-linejoin="round"/>
<path id="Vector_53" d="M329 61V64" stroke="black" stroke-width="2" stroke-linecap="round" stroke-linejoin="round"/>
<path id="Vector_54" d="M329 68L326 73H330L327 78" stroke="black" stroke-width="2" stroke-linecap="round" stroke-linejoin="round"/>
<path id="Vector_55" d="M311 68C311.001 68.4675 311.331 68.9285 311.961 69.3461C312.592 69.7636 313.507 70.1263 314.633 70.4051C315.759 70.6839 317.065 70.8711 318.446 70.9519C319.828 71.0326 321.247 71.0045 322.59 70.87" stroke="black" stroke-width="2" stroke-linecap="round" stroke-linejoin="round"/>
</g></svg>
