<svg viewBox="0 0 24 24" fill="none" xmlns="http://www.w3.org/2000/svg"><g transform="translate(-84 -56)">
<path id="Vector_10" d="M103 78V72" stroke="black" stroke-width="2" stroke-linecap="round" stroke-linejoin="round"/>
<path id="Vector_11" d="M105 68.536V61" stroke="black" stroke-width="2" stroke-linecap="round" stroke-linejoin="round"/>
<path id="Vector_12" d="M106 75L103 72L100 75" stroke="black" stroke-width="2" stroke-linecap="round" stroke-linejoin="round"/>
<path id="Vector_13" d="M87 68C87 68.4639 87.3228 68.9215 87.9429 69.3367C88.563 69.752 89.4636 70.1137 90.5739 70.3934C91.6841 70.6731 92.9739 70.8631 94.3417 70.9486C95.7095 71.0341 97.1182 71.0126 98.457 70.886" stroke="black" stroke-width="2" stroke-linecap="round" stroke-linejoin="round"/>
<path id="Vector_14" d="M87 61V75C86.9999 75.4311 87.2785 75.8572 87.8169 76.2492C88.3553 76.6412 89.1409 76.9899 90.1201 77.2716C91.0993 77.5532 92.2491 77.7613 93.4912 77.8814C94.7333 78.0016 96.0386 78.0311 97.318 77.968" stroke="black" stroke-width="2" stroke-linecap="round" stroke-linejoin="round"/>
<path id="Vector_15" d="M96 64C100.971 64 105 62.6569 105 61C105 59.3431 100.971 58 96 58C91.0294 58 87 59.3431 87 61C87 62.6569 91.0294 64 96 64Z" stroke="black" stroke-width="2" stroke-linecap="round" stroke-linejoin="round"/>
</g></svg>
