<svg viewBox="0 0 24 24" fill="none" xmlns="http://www.w3.org/2000/svg"><g transform="translate(-212 -56)">
<path id="Vector_32" d="M231 72V78" stroke="black" stroke-width="2" stroke-linecap="round" stroke-linejoin="round"/>
<path id="Vector_33" d="M233 68.536V61" stroke="black" stroke-width="2" stroke-linecap="round" stroke-linejoin="round"/>
<path id="Vector_34" d="M234 75H228" stroke="black" stroke-width="2" stroke-linecap="round" stroke-linejoin="round"/>
<path id="Vector_35" d="M215 68C215 68.4854 215.353 68.9636 216.03 69.3934C216.706 69.8233 217.686 70.192 218.884 70.468C220.082 70.7439 221.463 70.9189 222.908 70.9777C224.354 71.0366 225.82 70.9777 227.182 70.8061" stroke="black" stroke-width="2" stroke-linecap="round" stroke-linejoin="round"/>
<path id="Vector_36" d="M215 61V75C215 75.4311 215.278 75.8572 215.817 76.2492C216.355 76.6412 217.141 76.9899 218.12 77.2716C219.099 77.5532 220.249 77.7613 221.491 77.8814C222.733 78.0016 224.039 78.0311 225.318 77.968" stroke="black" stroke-width="2" stroke-linecap="round" stroke-linejoin="round"/>
<path id="Vector_37" d="M224 64C228.971 64 233 62.6569 233 61C233 59.3431 228.971 58 224 58C219.029 58 215 59.3431 215 61C215 62.6569 219.029 64 224 64Z" stroke="black" stroke-width="2" stroke-linecap="round" stroke-linejoin="round"/>
</g></svg>
