<svg viewBox="0 0 24 24" fill="none" xmlns="http://www.w3.org/2000/svg"><g transform="translate(-148 -56)">
<path id="Vector_22" d="M164 75L166 77L170 73" stroke="black" stroke-width="2" stroke-linecap="round" stroke-linejoin="round"/>
<path id="Vector_23" d="M169 69.127V61" stroke="black" stroke-width="2" stroke-linecap="round" stroke-linejoin="round"/>
<path id="Vector_24" d="M151 68C151 68.7956 151.948 69.5587 153.636 70.1213C155.324 70.6839 157.613 71 160 71C162.387 71 164.676 70.6839 166.364 70.1213C168.052 69.5587 169 68.7956 169 68" stroke="black" stroke-width="2" stroke-linecap="round" stroke-linejoin="round"/>
<path id="Vector_25" d="M151 61V75C151 75.4311 151.278 75.8572 151.817 76.2492C152.355 76.6412 153.141 76.9899 154.12 77.2716C155.099 77.5532 156.249 77.7613 157.491 77.8814C158.733 78.0016 160.039 78.0311 161.318 77.968" stroke="black" stroke-width="2" stroke-linecap="round" stroke-linejoin="round"/>
<path id="Vector_26" d="M160 64C164.971 64 169 62.6569 169 61C169 59.3431 164.971 58 160 58C155.029 58 151 59.3431 151 61C151 62.6569 155.029 64 160 64Z" stroke="black" stroke-width="2" stroke-linecap="round" stroke-linejoin="round"/>
</g></svg>
