<svg viewBox="0 0 24 24" fill="none" xmlns="http://www.w3.org/2000/svg"><g transform="translate(-276 -56)">
<path id="Vector_44" d="M293 73L298 78" stroke="black" stroke-width="2" stroke-linecap="round" stroke-linejoin="round"/>
<path id="Vector_45" d="M295.323 69.744C296.414 69.2351 297 68.6254 297 68" stroke="black" stroke-width="2" stroke-linecap="round" stroke-linejoin="round"/>
<path id="Vector_46" d="M297 69.127V61" stroke="black" stroke-width="2" stroke-linecap="round" stroke-linejoin="round"/>
<path id="Vector_47" d="M298 73L293 78" stroke="black" stroke-width="2" stroke-linecap="round" stroke-linejoin="round"/>
<path id="Vector_48" d="M279 68C279 68.438 279.288 68.8708 279.844 69.2677C280.399 69.6647 281.209 70.0163 282.215 70.2979C283.222 70.5794 284.402 70.784 285.671 70.8974C286.94 71.0108 288.269 71.0301 289.563 70.954" stroke="black" stroke-width="2" stroke-linecap="round" stroke-linejoin="round"/>
<path id="Vector_49" d="M279 61V75C279 75.4221 279.268 75.8393 279.785 76.2246C280.302 76.6099 281.057 76.9544 282 77.2358C282.944 77.5171 284.056 77.7289 285.262 77.8573C286.468 77.9858 287.742 78.0279 289 77.981" stroke="black" stroke-width="2" stroke-linecap="round" stroke-linejoin="round"/>
<path id="Vector_50" d="M288 64C292.971 64 297 62.6569 297 61C297 59.3431 292.971 58 288 58C283.029 58 279 59.3431 279 61C279 62.6569 283.029 64 288 64Z" stroke="black" stroke-width="2" stroke-linecap="round" stroke-linejoin="round"/>
</g></svg>
