<svg viewBox="0 0 24 24" fill="none" xmlns="http://www.w3.org/2000/svg"><g transform="translate(-276 -56)">
<path id="Vector_21" d="M286 74H296" stroke="black" stroke-width="2" stroke-linecap="round" stroke-linejoin="round"/>
<path id="Vector_22" d="M293 77L296 74L293 71" stroke="black" stroke-width="2" stroke-linecap="round" stroke-linejoin="round"/>
<path id="Vector_23" d="M279 67H279.01" stroke="black" stroke-width="2" stroke-linecap="round" stroke-linejoin="round"/>
<path id="Vector_24" d="M296 61.5C296 60.1193 294.881 59 293.5 59C292.119 59 291 60.1193 291 61.5V64.5C291 65.8807 292.119 67 293.5 67C294.881 67 296 65.8807 296 64.5V61.5Z" stroke="black" stroke-width="2" stroke-linecap="round" stroke-linejoin="round"/>
<path id="Vector_25" d="M287 61.5C287 60.1193 285.881 59 284.5 59C283.119 59 282 60.1193 282 61.5V64.5C282 65.8807 283.119 67 284.5 67C285.881 67 287 65.8807 287 64.5V61.5Z" stroke="black" stroke-width="2" stroke-linecap="round" stroke-linejoin="round"/>
</g></svg>
