<svg viewBox="0 0 24 24" fill="none" xmlns="http://www.w3.org/2000/svg"><g transform="translate(-20 -120)">
<path id="Vector_105" d="M30.162 123.167C27.8679 123.596 25.7961 124.814 24.3054 126.61C22.8148 128.405 21.9992 130.666 22 133C22 133.53 22.2107 134.039 22.5858 134.414C22.9609 134.789 23.4696 135 24 135C24.5304 135 25.0391 134.789 25.4142 134.414C25.7893 134.039 26 133.53 26 133V132C26 131.47 26.2107 130.961 26.5858 130.586C26.9609 130.211 27.4696 130 28 130C28.5304 130 29.0391 130.211 29.4142 130.586C29.7893 130.961 30 131.47 30 132V136C30 136.53 30.2107 137.039 30.5858 137.414C30.9609 137.789 31.4696 138 32 138C32.5304 138 33.0391 137.789 33.4142 137.414C33.7893 137.039 34 136.53 34 136V132C34 131.47 34.2107 130.961 34.5858 130.586C34.9609 130.211 35.4696 130 36 130C36.5304 130 37.0391 130.211 37.4142 130.586C37.7893 130.961 38 131.47 38 132V133C38.0008 133.53 38.2123 134.039 38.5879 134.413C38.9635 134.788 39.4726 134.998 40.003 134.997C40.5334 134.996 41.0418 134.785 41.4163 134.409C41.7908 134.033 42.0008 133.524 42 132.994C41.9992 130.661 41.183 128.403 39.6927 126.608C38.2024 124.814 36.1318 123.597 33.839 123.168" stroke="black" stroke-width="2" stroke-linecap="round" stroke-linejoin="round"/>
<path id="Vector_106" d="M40.8043 134.869C40.3762 136.887 39.2681 138.696 37.6654 139.994C36.0628 141.293 34.0628 142.001 32.0003 142.001C29.9378 142.001 27.9378 141.293 26.3351 139.994C24.7325 138.696 23.6244 136.887 23.1963 134.869" stroke="black" stroke-width="2" stroke-linecap="round" stroke-linejoin="round"/>
<path id="Vector_107" d="M32 126C33.1046 126 34 125.105 34 124C34 122.895 33.1046 122 32 122C30.8954 122 30 122.895 30 124C30 125.105 30.8954 126 32 126Z" stroke="black" stroke-width="2" stroke-linecap="round" stroke-linejoin="round"/>
</g></svg>
