<svg viewBox="0 0 24 24" fill="none" xmlns="http://www.w3.org/2000/svg"><g transform="translate(-340 -152)">
<path id="Vector_141" d="M342.7 162.3C342.476 162.524 342.298 162.79 342.177 163.082C342.056 163.375 341.993 163.688 341.993 164.005C341.993 164.322 342.056 164.635 342.177 164.928C342.298 165.22 342.476 165.486 342.7 165.71L350.29 173.3C350.514 173.524 350.78 173.702 351.072 173.823C351.365 173.944 351.678 174.007 351.995 174.007C352.312 174.007 352.625 173.944 352.918 173.823C353.21 173.702 353.476 173.524 353.7 173.3L361.29 165.71C361.514 165.486 361.692 165.22 361.813 164.928C361.934 164.635 361.997 164.322 361.997 164.005C361.997 163.688 361.934 163.375 361.813 163.082C361.692 162.79 361.514 162.524 361.29 162.3L353.7 154.71C353.476 154.486 353.21 154.308 352.918 154.187C352.625 154.066 352.312 154.003 351.995 154.003C351.678 154.003 351.365 154.066 351.072 154.187C350.78 154.308 350.514 154.486 350.29 154.71L342.7 162.3Z" stroke="black" stroke-width="2" stroke-linecap="round" stroke-linejoin="round"/>
<path id="Vector_142" d="M348 164H356" stroke="black" stroke-width="2" stroke-linecap="round" stroke-linejoin="round"/>
</g></svg>
