<svg viewBox="0 0 24 24" fill="none" xmlns="http://www.w3.org/2000/svg"><g transform="translate(-372 -152)">
<path id="Vector_143" d="M374.7 162.3C374.476 162.524 374.298 162.79 374.177 163.082C374.056 163.375 373.993 163.688 373.993 164.005C373.993 164.322 374.056 164.635 374.177 164.928C374.298 165.22 374.476 165.486 374.7 165.71L382.29 173.3C382.514 173.524 382.78 173.702 383.072 173.823C383.365 173.944 383.678 174.007 383.995 174.007C384.312 174.007 384.625 173.944 384.918 173.823C385.21 173.702 385.476 173.524 385.7 173.3L393.29 165.71C393.514 165.486 393.692 165.22 393.813 164.928C393.934 164.635 393.997 164.322 393.997 164.005C393.997 163.688 393.934 163.375 393.813 163.082C393.692 162.79 393.514 162.524 393.29 162.3L385.7 154.71C385.476 154.486 385.21 154.308 384.918 154.187C384.625 154.066 384.312 154.003 383.995 154.003C383.678 154.003 383.365 154.066 383.072 154.187C382.78 154.308 382.514 154.486 382.29 154.71L374.7 162.3Z" stroke="black" stroke-width="2" stroke-linecap="round" stroke-linejoin="round"/>
<path id="Vector_144" d="M381.2 161.2H381.21" stroke="black" stroke-width="2" stroke-linecap="round" stroke-linejoin="round"/>
<path id="Vector_145" d="M386.5 161.5L381.5 166.5" stroke="black" stroke-width="2" stroke-linecap="round" stroke-linejoin="round"/>
<path id="Vector_146" d="M386.7 166.8H386.71" stroke="black" stroke-width="2" stroke-linecap="round" stroke-linejoin="round"/>
</g></svg>
