<svg viewBox="0 0 24 24" fill="none" xmlns="http://www.w3.org/2000/svg"><g transform="translate(-308 -152)">
<path id="Vector_140" d="M310.7 162.3C310.476 162.524 310.298 162.79 310.177 163.082C310.056 163.375 309.993 163.688 309.993 164.005C309.993 164.322 310.056 164.635 310.177 164.928C310.298 165.22 310.476 165.486 310.7 165.71L318.29 173.3C318.514 173.524 318.78 173.702 319.072 173.823C319.365 173.944 319.678 174.007 319.995 174.007C320.312 174.007 320.625 173.944 320.918 173.823C321.21 173.702 321.476 173.524 321.7 173.3L329.29 165.71C329.514 165.486 329.692 165.22 329.813 164.928C329.934 164.635 329.997 164.322 329.997 164.005C329.997 163.688 329.934 163.375 329.813 163.082C329.692 162.79 329.514 162.524 329.29 162.3L321.7 154.71C321.476 154.486 321.21 154.308 320.918 154.187C320.625 154.066 320.312 154.003 319.995 154.003C319.678 154.003 319.365 154.066 319.072 154.187C318.78 154.308 318.514 154.486 318.29 154.71L310.7 162.3Z" stroke="black" stroke-width="2" stroke-linecap="round" stroke-linejoin="round"/>
</g></svg>
