<svg viewBox="0 0 24 24" fill="none" xmlns="http://www.w3.org/2000/svg"><g transform="translate(-308 -56)">
<path id="Vector_33" d="M327 77C328.105 77 329 76.1046 329 75C329 73.8954 328.105 73 327 73C325.895 73 325 73.8954 325 75C325 76.1046 325.895 77 327 77Z" stroke="black" stroke-width="2" stroke-linecap="round" stroke-linejoin="round"/>
<path id="Vector_34" d="M313 63C314.105 63 315 62.1046 315 61C315 59.8954 314.105 59 313 59C311.895 59 311 59.8954 311 61C311 62.1046 311.895 63 313 63Z" stroke="black" stroke-width="2" stroke-linecap="round" stroke-linejoin="round"/>
<path id="Vector_35" d="M314.48 59.66C316.404 58.3854 318.708 57.815 321.004 58.0454C323.299 58.2758 325.445 59.2929 327.076 60.9243C328.708 62.5557 329.725 64.701 329.955 66.9966C330.186 69.2922 329.615 71.5969 328.34 73.52" stroke="black" stroke-width="2" stroke-linecap="round" stroke-linejoin="round"/>
<path id="Vector_36" d="M314.41 62.41L325.59 73.59" stroke="black" stroke-width="2" stroke-linecap="round" stroke-linejoin="round"/>
<path id="Vector_37" d="M311.66 62.48C310.385 64.4031 309.815 66.7077 310.045 69.0033C310.276 71.299 311.293 73.4443 312.924 75.0757C314.555 76.7071 316.701 77.7242 318.996 77.9546C321.292 78.185 323.597 77.6146 325.52 76.34" stroke="black" stroke-width="2" stroke-linecap="round" stroke-linejoin="round"/>
</g></svg>
