<svg viewBox="0 0 24 24" fill="none" xmlns="http://www.w3.org/2000/svg"><g transform="translate(-20 -184)">
<path id="Vector_147" d="M32 192V200" stroke="black" stroke-width="2" stroke-linecap="round" stroke-linejoin="round"/>
<path id="Vector_148" d="M22.6999 194.3C22.4759 194.524 22.2981 194.79 22.1769 195.082C22.0556 195.375 21.9932 195.688 21.9932 196.005C21.9932 196.322 22.0556 196.635 22.1769 196.928C22.2981 197.22 22.4759 197.486 22.6999 197.71L30.2899 205.3C30.5137 205.524 30.7795 205.702 31.0721 205.823C31.3646 205.944 31.6782 206.007 31.9949 206.007C32.3116 206.007 32.6252 205.944 32.9177 205.823C33.2103 205.702 33.4761 205.524 33.6999 205.3L41.2899 197.71C41.514 197.486 41.6917 197.22 41.813 196.928C41.9342 196.635 41.9967 196.322 41.9967 196.005C41.9967 195.688 41.9342 195.375 41.813 195.082C41.6917 194.79 41.514 194.524 41.2899 194.3L33.6999 186.71C33.4761 186.486 33.2103 186.308 32.9177 186.187C32.6252 186.066 32.3116 186.003 31.9949 186.003C31.6782 186.003 31.3646 186.066 31.0721 186.187C30.7795 186.308 30.5137 186.486 30.2899 186.71L22.6999 194.3Z" stroke="black" stroke-width="2" stroke-linecap="round" stroke-linejoin="round"/>
<path id="Vector_149" d="M28 196H36" stroke="black" stroke-width="2" stroke-linecap="round" stroke-linejoin="round"/>
</g></svg>
