<svg viewBox="0 0 24 24" fill="none" xmlns="http://www.w3.org/2000/svg"><g transform="translate(-244 -88)">
<path id="Vector_84" d="M256 98H248C246.895 98 246 98.8954 246 100V108C246 109.105 246.895 110 248 110H256C257.105 110 258 109.105 258 108V100C258 98.8954 257.105 98 256 98Z" stroke="black" stroke-width="2" stroke-linecap="round" stroke-linejoin="round"/>
<path id="Vector_85" d="M261.92 102L265.42 98.5C265.791 98.0885 265.996 97.5541 265.996 97C265.996 96.4459 265.791 95.9115 265.42 95.5L260.42 90.58C260.008 90.209 259.474 90.0036 258.92 90.0036C258.366 90.0036 257.832 90.209 257.42 90.58L254 94" stroke="black" stroke-width="2" stroke-linecap="round" stroke-linejoin="round"/>
<path id="Vector_86" d="M250 106H250.01" stroke="black" stroke-width="2" stroke-linecap="round" stroke-linejoin="round"/>
<path id="Vector_87" d="M254 102H254.01" stroke="black" stroke-width="2" stroke-linecap="round" stroke-linejoin="round"/>
<path id="Vector_88" d="M259 94H259.01" stroke="black" stroke-width="2" stroke-linecap="round" stroke-linejoin="round"/>
<path id="Vector_89" d="M262 97H262.01" stroke="black" stroke-width="2" stroke-linecap="round" stroke-linejoin="round"/>
</g></svg>
