<svg viewBox="0 0 24 24" fill="none" xmlns="http://www.w3.org/2000/svg"><g transform="translate(-116 -88)">
<path id="Vector_56" d="M135 91H121C119.895 91 119 91.8954 119 93V107C119 108.105 119.895 109 121 109H135C136.105 109 137 108.105 137 107V93C137 91.8954 136.105 91 135 91Z" stroke="black" stroke-width="2" stroke-linecap="round" stroke-linejoin="round"/>
<path id="Vector_57" d="M128 105C130.761 105 133 102.761 133 100C133 97.2386 130.761 95 128 95C125.239 95 123 97.2386 123 100C123 102.761 125.239 105 128 105Z" stroke="black" stroke-width="2" stroke-linecap="round" stroke-linejoin="round"/>
<path id="Vector_58" d="M128 100H128.01" stroke="black" stroke-width="2" stroke-linecap="round" stroke-linejoin="round"/>
</g></svg>
