<svg viewBox="0 0 24 24" fill="none" xmlns="http://www.w3.org/2000/svg"><g transform="translate(-84 -88)">
<path id="Vector_52" d="M96 110C101.523 110 106 105.523 106 100C106 94.4772 101.523 90 96 90C90.4772 90 86 94.4772 86 100C86 105.523 90.4772 110 96 110Z" stroke="black" stroke-width="2" stroke-linecap="round" stroke-linejoin="round"/>
<path id="Vector_53" d="M90 100C90 98.3 90.7 96.8 91.8 95.8" stroke="black" stroke-width="2" stroke-linecap="round" stroke-linejoin="round"/>
<path id="Vector_54" d="M96 102C97.1046 102 98 101.105 98 100C98 98.8954 97.1046 98 96 98C94.8954 98 94 98.8954 94 100C94 101.105 94.8954 102 96 102Z" stroke="black" stroke-width="2" stroke-linecap="round" stroke-linejoin="round"/>
<path id="Vector_55" d="M102 100C102 101.7 101.3 103.2 100.2 104.2" stroke="black" stroke-width="2" stroke-linecap="round" stroke-linejoin="round"/>
</g></svg>
