<svg viewBox="0 0 24 24" fill="none" xmlns="http://www.w3.org/2000/svg"><g transform="translate(-52 -88)">
<path id="Vector_72" d="M67 90C65.65 91.5 64.908 93 64.5 94.5L66 96" stroke="black" stroke-width="2" stroke-linecap="round" stroke-linejoin="round"/>
<path id="Vector_73" d="M69.0004 93.9999L66.1094 91.1089" stroke="black" stroke-width="2" stroke-linecap="round" stroke-linejoin="round"/>
<path id="Vector_74" d="M54 103C57.333 100 60.667 100 64 100" stroke="black" stroke-width="2" stroke-linecap="round" stroke-linejoin="round"/>
<path id="Vector_75" d="M54 90L74 110" stroke="black" stroke-width="2" stroke-linecap="round" stroke-linejoin="round"/>
<path id="Vector_76" d="M72 97L72.891 97.891" stroke="black" stroke-width="2" stroke-linecap="round" stroke-linejoin="round"/>
<path id="Vector_77" d="M74 97C72.5 98.35 71 99.092 69.5 99.5L68.5 98.5" stroke="black" stroke-width="2" stroke-linecap="round" stroke-linejoin="round"/>
<path id="Vector_78" d="M55.1094 102.109L56.0004 103" stroke="black" stroke-width="2" stroke-linecap="round" stroke-linejoin="round"/>
<path id="Vector_79" d="M58.5 100.5L59.5 101.5" stroke="black" stroke-width="2" stroke-linecap="round" stroke-linejoin="round"/>
<path id="Vector_80" d="M59 106L61.891 108.891" stroke="black" stroke-width="2" stroke-linecap="round" stroke-linejoin="round"/>
<path id="Vector_81" d="M61 110C62.35 108.5 63.092 107 63.5 105.5L62 104" stroke="black" stroke-width="2" stroke-linecap="round" stroke-linejoin="round"/>
</g></svg>
