<svg viewBox="0 0 24 24" fill="none" xmlns="http://www.w3.org/2000/svg"><g transform="translate(-116 -56)">
<path id="Vector_17" d="M127.25 72.25H128.75L128 73L127.25 72.25Z" stroke="black" stroke-width="2" stroke-linecap="round" stroke-linejoin="round"/>
<path id="Vector_18" d="M132 70V70.5" stroke="black" stroke-width="2" stroke-linecap="round" stroke-linejoin="round"/>
<path id="Vector_19" d="M120.42 67.2471C120.14 68.3278 119.999 69.4397 120 70.5561C120 74.7281 123.582 77.0001 128 77.0001C132.418 77.0001 136 74.7281 136 70.5561C135.995 69.4352 135.829 68.3208 135.507 67.2471" stroke="black" stroke-width="2" stroke-linecap="round" stroke-linejoin="round"/>
<path id="Vector_20" d="M124 70V70.5" stroke="black" stroke-width="2" stroke-linecap="round" stroke-linejoin="round"/>
<path id="Vector_21" d="M124.5 64.5C124.116 65.55 123.417 66.528 122.156 67C120.225 67.722 118.58 66.703 118.5 66C118.387 65.006 119.677 59.47 122.5 59C124.423 58.679 126.151 59.845 126.151 61.235C127.416 60.9137 128.743 60.9282 130 61.277C130 59.887 131.844 58.679 133.767 59C136.59 59.47 137.88 65.006 137.767 66C137.687 66.703 136.042 67.722 134.111 67C132.85 66.528 132.256 65.55 131.872 64.5" stroke="black" stroke-width="2" stroke-linecap="round" stroke-linejoin="round"/>
</g></svg>
