<svg viewBox="0 0 24 24" fill="none" xmlns="http://www.w3.org/2000/svg"><g transform="translate(-52 -120)">
<path id="Vector_108" d="M72.4996 130C72.1331 129.993 71.7727 129.905 71.4438 129.743C71.115 129.581 70.8259 129.348 70.5968 129.062C70.3678 128.776 70.2046 128.443 70.1187 128.086C70.0327 127.73 70.0262 127.359 70.0996 127H69.9996C69.4816 127.005 68.9713 126.874 68.52 126.62C68.0687 126.366 67.6924 125.997 67.4289 125.551C67.1653 125.105 67.0239 124.597 67.0187 124.079C67.0136 123.561 67.145 123.051 67.3996 122.6C65.3087 121.836 63.0226 121.791 60.9033 122.472C58.784 123.154 56.9528 124.524 55.6999 126.364C54.447 128.204 53.8439 130.41 53.9863 132.631C54.1287 134.853 55.0083 136.964 56.4859 138.629C57.9635 140.294 59.9545 141.419 62.1435 141.824C64.3324 142.23 66.5942 141.894 68.5704 140.869C70.5466 139.844 72.1242 138.188 73.0533 136.165C73.9824 134.142 74.2099 131.867 73.6996 129.7C73.3996 129.9 72.8996 130 72.4996 130Z" stroke="black" stroke-width="2" stroke-linecap="round" stroke-linejoin="round"/>
<path id="Vector_109" d="M64 135C65.6569 135 67 133.657 67 132C67 130.343 65.6569 129 64 129C62.3431 129 61 130.343 61 132C61 133.657 62.3431 135 64 135Z" stroke="black" stroke-width="2" stroke-linecap="round" stroke-linejoin="round"/>
</g></svg>
