<svg viewBox="0 0 24 24" fill="none" xmlns="http://www.w3.org/2000/svg"><g transform="translate(-276 -56)">
<path id="Vector_35" d="M287 76H278" stroke="black" stroke-width="2" stroke-linecap="round" stroke-linejoin="round"/>
<path id="Vector_36" d="M287 60.562V76.719C287 76.8709 287.035 77.0208 287.101 77.1573C287.168 77.2938 287.265 77.4134 287.384 77.5069C287.504 77.6004 287.644 77.6653 287.792 77.6969C287.941 77.7285 288.095 77.7258 288.242 77.689L295 76V61.562C295 61.116 294.851 60.6829 294.576 60.3313C294.302 59.9798 293.918 59.7302 293.485 59.622L289.485 58.622C289.19 58.5483 288.883 58.5428 288.585 58.6058C288.288 58.6688 288.009 58.7986 287.77 58.9855C287.53 59.1724 287.336 59.4114 287.203 59.6844C287.07 59.9574 287 60.2582 287 60.562Z" stroke="black" stroke-width="2" stroke-linecap="round" stroke-linejoin="round"/>
<path id="Vector_37" d="M287 60H284C283.47 60 282.961 60.2107 282.586 60.5858C282.211 60.9609 282 61.4696 282 62V76" stroke="black" stroke-width="2" stroke-linecap="round" stroke-linejoin="round"/>
<path id="Vector_38" d="M290 68H290.01" stroke="black" stroke-width="2" stroke-linecap="round" stroke-linejoin="round"/>
<path id="Vector_39" d="M298 76H295" stroke="black" stroke-width="2" stroke-linecap="round" stroke-linejoin="round"/>
</g></svg>
