<svg viewBox="0 0 24 24" fill="none" xmlns="http://www.w3.org/2000/svg"><g transform="translate(-84 -56)">
<path id="Vector_12" d="M94 68H94.01" stroke="black" stroke-width="2" stroke-linecap="round" stroke-linejoin="round"/>
<path id="Vector_13" d="M102 65V62C102 61.4696 101.789 60.9609 101.414 60.5858C101.039 60.2107 100.53 60 100 60H92C91.4696 60 90.9609 60.2107 90.5858 60.5858C90.2107 60.9609 90 61.4696 90 62V76" stroke="black" stroke-width="2" stroke-linecap="round" stroke-linejoin="round"/>
<path id="Vector_14" d="M86 76H94" stroke="black" stroke-width="2" stroke-linecap="round" stroke-linejoin="round"/>
<path id="Vector_15" d="M104 73V71C104 70.4696 103.789 69.9609 103.414 69.5858C103.039 69.2107 102.53 69 102 69C101.47 69 100.961 69.2107 100.586 69.5858C100.211 69.9609 100 70.4696 100 71V73" stroke="black" stroke-width="2" stroke-linecap="round" stroke-linejoin="round"/>
<path id="Vector_16" d="M105 73H99C98.4477 73 98 73.4477 98 74V77C98 77.5523 98.4477 78 99 78H105C105.552 78 106 77.5523 106 77V74C106 73.4477 105.552 73 105 73Z" stroke="black" stroke-width="2" stroke-linecap="round" stroke-linejoin="round"/>
</g></svg>
