<svg viewBox="0 0 24 24" fill="none" xmlns="http://www.w3.org/2000/svg"><g transform="translate(-340 -56)">
<path id="Vector_38" d="M352.99 62.74L354.92 66.18" stroke="black" stroke-width="2" stroke-linecap="round" stroke-linejoin="round"/>
<path id="Vector_39" d="M359.136 68C358.205 68.948 357.095 69.7011 355.87 70.2151C354.645 70.7292 353.329 70.994 352.001 70.994C350.672 70.994 349.357 70.7292 348.132 70.2151C346.907 69.7011 345.796 68.948 344.865 68" stroke="black" stroke-width="2" stroke-linecap="round" stroke-linejoin="round"/>
<path id="Vector_40" d="M361 77L358.84 73.16" stroke="black" stroke-width="2" stroke-linecap="round" stroke-linejoin="round"/>
<path id="Vector_41" d="M343 77L351.02 62.74" stroke="black" stroke-width="2" stroke-linecap="round" stroke-linejoin="round"/>
<path id="Vector_42" d="M352 63C353.105 63 354 62.1046 354 61C354 59.8954 353.105 59 352 59C350.895 59 350 59.8954 350 61C350 62.1046 350.895 63 352 63Z" stroke="black" stroke-width="2" stroke-linecap="round" stroke-linejoin="round"/>
</g></svg>
