<svg viewBox="0 0 24 24" fill="none" xmlns="http://www.w3.org/2000/svg"><g transform="translate(-52 -88)">
<path id="Vector_14" d="M63 106C63 107.1 62.1 108 61 108C59.9 108 59 107.1 59 106C59 104.9 59.9 104 61 104C62.1 104 63 104.9 63 106ZM61 98C59.9 98 59 98.9 59 100C59 101.1 59.9 102 61 102C62.1 102 63 101.1 63 100C63 98.9 62.1 98 61 98ZM61 92C59.9 92 59 92.9 59 94C59 95.1 59.9 96 61 96C62.1 96 63 95.1 63 94C63 92.9 62.1 92 61 92ZM67 96C68.1 96 69 95.1 69 94C69 92.9 68.1 92 67 92C65.9 92 65 92.9 65 94C65 95.1 65.9 96 67 96ZM67 98C65.9 98 65 98.9 65 100C65 101.1 65.9 102 67 102C68.1 102 69 101.1 69 100C69 98.9 68.1 98 67 98ZM67 104C65.9 104 65 104.9 65 106C65 107.1 65.9 108 67 108C68.1 108 69 107.1 69 106C69 104.9 68.1 104 67 104Z" fill="black" fill-opacity="0.56"/>
</g></svg>
