<svg viewBox="0 0 24 24" fill="none" xmlns="http://www.w3.org/2000/svg"><g transform="translate(-276 -88)">
<path id="Vector_90" d="M286 99H286.01" stroke="black" stroke-width="2" stroke-linecap="round" stroke-linejoin="round"/>
<path id="Vector_91" d="M290 94H290.01" stroke="black" stroke-width="2" stroke-linecap="round" stroke-linejoin="round"/>
<path id="Vector_92" d="M294 94H294.01" stroke="black" stroke-width="2" stroke-linecap="round" stroke-linejoin="round"/>
<path id="Vector_93" d="M282.5 101.1H282.51" stroke="black" stroke-width="2" stroke-linecap="round" stroke-linejoin="round"/>
<path id="Vector_94" d="M298 93C298 102 294 105 292 105C290 105 286 102 286 93C286 91 288 90 292 90C296 90 298 91 298 93Z" stroke="black" stroke-width="2" stroke-linecap="round" stroke-linejoin="round"/>
<path id="Vector_95" d="M293.4 97.9C292.6 98.7 291.4 98.7 290.6 97.9" stroke="black" stroke-width="2" stroke-linecap="round" stroke-linejoin="round"/>
<path id="Vector_96" d="M286.1 95.1C285 95.2 283.7 95.7 282 96.6C278.5 98.6 277.3 100.5 278.3 102.2C282.8 110 287.8 110.6 289.5 109.6C290.4 109.1 291.4 107.5 291.4 104.9" stroke="black" stroke-width="2" stroke-linecap="round" stroke-linejoin="round"/>
<path id="Vector_97" d="M285.1 104.5C285.4 103.4 286.5 102.8 287.5 103.1" stroke="black" stroke-width="2" stroke-linecap="round" stroke-linejoin="round"/>
</g></svg>
