<svg viewBox="0 0 24 24" fill="none" xmlns="http://www.w3.org/2000/svg"><g transform="translate(-276 -56)">
<path id="Vector_50" d="M286 74C286.265 74 286.52 74.1054 286.707 74.2929C286.895 74.4804 287 74.7348 287 75V77C287 77.2652 286.895 77.5196 286.707 77.7071C286.52 77.8946 286.265 78 286 78H281C280.204 78 279.441 77.6839 278.879 77.1213C278.316 76.5587 278 75.7956 278 75C278 74.7348 278.105 74.4804 278.293 74.2929C278.48 74.1054 278.735 74 279 74H286Z" stroke="black" stroke-width="2" stroke-linecap="round" stroke-linejoin="round"/>
<path id="Vector_51" d="M289 66H280C279.47 66 278.961 65.7893 278.586 65.4142C278.211 65.0391 278 64.5304 278 64V60C278 59.4696 278.211 58.9609 278.586 58.5858C278.961 58.2107 279.47 58 280 58H289C289.265 58 289.52 58.1054 289.707 58.2929C289.895 58.4804 290 58.7348 290 59V65C290 65.2652 289.895 65.5196 289.707 65.7071C289.52 65.8946 289.265 66 289 66ZM289 66L288.19 69.242C288.136 69.4584 288.011 69.6506 287.835 69.788C287.66 69.9253 287.443 69.9999 287.22 70H284" stroke="black" stroke-width="2" stroke-linecap="round" stroke-linejoin="round"/>
<path id="Vector_52" d="M290 60H293C293.265 60 293.52 60.1054 293.707 60.2929C293.895 60.4804 294 60.7348 294 61V63C294 63.2652 293.895 63.5196 293.707 63.7071C293.52 63.8946 293.265 64 293 64H290" stroke="black" stroke-width="2" stroke-linecap="round" stroke-linejoin="round"/>
<path id="Vector_53" d="M294 62H298" stroke="black" stroke-width="2" stroke-linecap="round" stroke-linejoin="round"/>
<path id="Vector_54" d="M281 66L279 74" stroke="black" stroke-width="2" stroke-linecap="round" stroke-linejoin="round"/>
<path id="Vector_55" d="M283 74L285 66" stroke="black" stroke-width="2" stroke-linecap="round" stroke-linejoin="round"/>
</g></svg>
