<svg viewBox="0 0 24 24" fill="none" xmlns="http://www.w3.org/2000/svg"><g transform="translate(-308 -56)">
<path id="Vector_55" d="M318 66L315 63" stroke="black" stroke-width="2" stroke-linecap="round" stroke-linejoin="round"/>
<path id="Vector_56" d="M318 70L315 73" stroke="black" stroke-width="2" stroke-linecap="round" stroke-linejoin="round"/>
<path id="Vector_57" d="M322 66L325 63" stroke="black" stroke-width="2" stroke-linecap="round" stroke-linejoin="round"/>
<path id="Vector_58" d="M322 70L325 73" stroke="black" stroke-width="2" stroke-linecap="round" stroke-linejoin="round"/>
<path id="Vector_59" d="M322.205 60.139C322.587 59.7659 323.04 59.473 323.537 59.2777C324.034 59.0823 324.565 58.9884 325.099 59.0016C325.632 59.0147 326.158 59.1346 326.645 59.3542C327.132 59.5737 327.569 59.8885 327.933 60.28C328.296 60.6714 328.577 61.1316 328.759 61.6334C328.942 62.1353 329.022 62.6685 328.995 63.2018C328.968 63.7351 328.835 64.2576 328.603 64.7385C328.371 65.2194 328.045 65.649 327.644 66.002" stroke="black" stroke-width="2" stroke-linecap="round" stroke-linejoin="round"/>
<path id="Vector_60" d="M327.637 70C328.041 70.3516 328.37 70.7808 328.605 71.2621C328.84 71.7434 328.976 72.267 329.005 72.8018C329.034 73.3366 328.955 73.8718 328.773 74.3755C328.591 74.8793 328.31 75.3414 327.946 75.7344C327.582 76.1275 327.143 76.4435 326.655 76.6636C326.167 76.8838 325.639 77.0036 325.104 77.0161C324.569 77.0285 324.036 76.9333 323.538 76.7361C323.04 76.5389 322.587 76.2437 322.205 75.868" stroke="black" stroke-width="2" stroke-linecap="round" stroke-linejoin="round"/>
<path id="Vector_61" d="M312.367 65.9999C311.962 65.6481 311.633 65.2186 311.398 64.7369C311.162 64.2552 311.027 63.7312 310.998 63.1959C310.969 62.6606 311.048 62.1251 311.231 61.621C311.413 61.117 311.695 60.6548 312.06 60.2618C312.424 59.8688 312.864 59.5531 313.353 59.3335C313.842 59.1138 314.37 58.9947 314.906 58.9831C315.442 58.9716 315.975 59.0678 316.473 59.2662C316.971 59.4646 317.424 59.761 317.805 60.1379" stroke="black" stroke-width="2" stroke-linecap="round" stroke-linejoin="round"/>
<path id="Vector_62" d="M317.795 75.862C317.412 76.2327 316.959 76.5232 316.462 76.7163C315.965 76.9094 315.434 77.0012 314.902 76.9864C314.369 76.9716 313.844 76.8505 313.359 76.6301C312.874 76.4097 312.437 76.0946 312.075 75.7032C311.714 75.3117 311.434 74.852 311.252 74.3508C311.07 73.8497 310.991 73.3173 311.018 72.785C311.045 72.2526 311.178 71.7311 311.41 71.2509C311.641 70.7708 311.966 70.3417 312.366 69.989" stroke="black" stroke-width="2" stroke-linecap="round" stroke-linejoin="round"/>
<path id="Vector_63" d="M321 64H319C318.448 64 318 64.4477 318 65V71C318 71.5523 318.448 72 319 72H321C321.552 72 322 71.5523 322 71V65C322 64.4477 321.552 64 321 64Z" stroke="black" stroke-width="2" stroke-linecap="round" stroke-linejoin="round"/>
</g></svg>
