<svg viewBox="0 0 24 24" fill="none" xmlns="http://www.w3.org/2000/svg"><g transform="translate(-372 -88)">
<path id="Vector_93" d="M390.715 101.186C390.29 99.858 389.384 98.607 388 97.5C386 95.9 384.5 93.5 384 91C383.817 91.8962 383.52 92.7653 383.116 93.586" stroke="black" stroke-width="2" stroke-linecap="round" stroke-linejoin="round"/>
<path id="Vector_94" d="M374 90L394 110" stroke="black" stroke-width="2" stroke-linecap="round" stroke-linejoin="round"/>
<path id="Vector_95" d="M380.795 96.7971C380.541 97.0441 380.276 97.2787 380 97.5001C378 99.1001 377 101 377 103C377 104.57 377.527 106.094 378.497 107.328C379.468 108.561 380.824 109.433 382.35 109.803C383.875 110.174 385.48 110.02 386.908 109.368C388.336 108.716 389.503 107.603 390.222 106.208" stroke="black" stroke-width="2" stroke-linecap="round" stroke-linejoin="round"/>
</g></svg>
