<svg viewBox="0 0 24 24" fill="none" xmlns="http://www.w3.org/2000/svg"><g transform="translate(-20 -120)">
<path id="Vector_96" d="M27 136.3C29.2 136.3 31 134.47 31 132.25C31 131.09 30.43 129.99 29.29 129.06C28.15 128.13 27.29 126.75 27 125.3C26.71 126.75 25.86 128.14 24.71 129.06C23.56 129.98 23 131.1 23 132.25C23 134.47 24.8 136.3 27 136.3Z" stroke="black" stroke-width="2" stroke-linecap="round" stroke-linejoin="round"/>
<path id="Vector_97" d="M32.5598 126.6C33.2476 125.501 33.7351 124.289 33.9998 123.02C34.4998 125.52 35.9998 127.92 37.9998 129.52C39.9998 131.12 40.9998 133.02 40.9998 135.02C41.0056 136.402 40.6007 137.755 39.8366 138.907C39.0726 140.059 37.9837 140.958 36.708 141.491C35.4323 142.023 34.0273 142.164 32.671 141.897C31.3148 141.63 30.0684 140.966 29.0898 139.99" stroke="black" stroke-width="2" stroke-linecap="round" stroke-linejoin="round"/>
</g></svg>
