<svg viewBox="0 0 24 24" fill="none" xmlns="http://www.w3.org/2000/svg"><g transform="translate(-148 -88)">
<path id="Vector_59" d="M150 90L158 98" stroke="black" stroke-width="2" stroke-linecap="round" stroke-linejoin="round"/>
<path id="Vector_60" d="M170 90L162 98" stroke="black" stroke-width="2" stroke-linecap="round" stroke-linejoin="round"/>
<path id="Vector_61" d="M160 102C165.523 102 170 99.7614 170 97C170 94.2386 165.523 92 160 92C154.477 92 150 94.2386 150 97C150 99.7614 154.477 102 160 102Z" stroke="black" stroke-width="2" stroke-linecap="round" stroke-linejoin="round"/>
<path id="Vector_62" d="M155 101.4V109.3" stroke="black" stroke-width="2" stroke-linecap="round" stroke-linejoin="round"/>
<path id="Vector_63" d="M160 102V110" stroke="black" stroke-width="2" stroke-linecap="round" stroke-linejoin="round"/>
<path id="Vector_64" d="M165 101.4V109.3" stroke="black" stroke-width="2" stroke-linecap="round" stroke-linejoin="round"/>
<path id="Vector_65" d="M150 97V105C150 106.326 151.054 107.598 152.929 108.536C154.804 109.473 157.348 110 160 110C162.652 110 165.196 109.473 167.071 108.536C168.946 107.598 170 106.326 170 105V97" stroke="black" stroke-width="2" stroke-linecap="round" stroke-linejoin="round"/>
</g></svg>
