<svg viewBox="0 0 24 24" fill="none" xmlns="http://www.w3.org/2000/svg"><g transform="translate(-180 -88)">
<path id="Vector_66" d="M195.4 103.63C193.904 104.11 192.419 104.122 191.165 103.663C189.91 103.205 188.953 102.3 188.433 101.082C187.913 99.8648 187.858 98.3987 188.276 96.8997C188.694 95.4007 189.564 93.9482 190.756 92.7557C191.948 91.5633 193.401 90.694 194.9 90.2758C196.399 89.8575 197.865 89.9125 199.083 90.4325C200.3 90.9525 201.205 91.9101 201.663 93.1644C202.122 94.4187 202.11 95.9034 201.63 97.4001C200.936 97.0037 200.055 96.9052 199.136 97.1209C198.217 97.3367 197.316 97.8536 196.585 98.5847C195.854 99.3159 195.337 100.217 195.121 101.135C194.905 102.054 195.004 102.935 195.4 103.63Z" stroke="black" stroke-width="2" stroke-linecap="round" stroke-linejoin="round"/>
<path id="Vector_67" d="M188.29 100.71L185.69 103.31C185.372 103.135 185.02 103.031 184.659 103.006C184.297 102.98 183.934 103.034 183.595 103.163C183.256 103.291 182.95 103.492 182.696 103.752C182.443 104.011 182.249 104.322 182.127 104.664C182.006 105.005 181.961 105.369 181.994 105.73C182.027 106.091 182.139 106.441 182.321 106.754C182.503 107.068 182.751 107.338 183.048 107.546C183.344 107.754 183.683 107.896 184.04 107.96C184.11 108.312 184.255 108.645 184.465 108.936C184.675 109.227 184.946 109.47 185.258 109.647C185.57 109.824 185.917 109.932 186.275 109.963C186.632 109.994 186.992 109.948 187.331 109.828C187.669 109.707 187.977 109.515 188.235 109.265C188.492 109.015 188.692 108.712 188.822 108.377C188.952 108.042 189.009 107.684 188.987 107.325C188.966 106.967 188.868 106.617 188.7 106.3L191.29 103.71" stroke="black" stroke-width="2" stroke-linecap="round" stroke-linejoin="round"/>
</g></svg>
