<svg viewBox="0 0 24 24" fill="none" xmlns="http://www.w3.org/2000/svg"><g transform="translate(-84 -88)">
<path id="Vector_82" d="M101.596 100.768C101.972 101.143 102.48 101.354 103.011 101.354C103.541 101.354 104.05 101.143 104.425 100.768C104.801 100.393 105.011 99.884 105.011 99.3535C105.011 98.823 104.801 98.3142 104.425 97.939L102.657 96.172C103.033 96.547 103.541 96.7577 104.072 96.7576C104.334 96.7575 104.594 96.7057 104.837 96.6052C105.08 96.5046 105.3 96.3573 105.486 96.1715C105.672 95.9858 105.819 95.7652 105.919 95.5226C106.02 95.2799 106.071 95.0198 106.071 94.7572C106.071 94.4945 106.02 94.2344 105.919 93.9918C105.819 93.7492 105.671 93.5287 105.485 93.343L102.657 90.515C102.282 90.1399 101.774 89.929 101.243 89.929C100.713 89.9289 100.204 90.1395 99.8289 90.5145C99.4537 90.8895 99.2429 91.3982 99.2428 91.9287C99.2427 92.4591 99.4534 92.9679 99.8284 93.343L98.0614 91.575C97.8756 91.3893 97.6551 91.2419 97.4124 91.1414C97.1697 91.0408 96.9096 90.9891 96.6469 90.9891C96.3842 90.9891 96.1241 91.0408 95.8814 91.1414C95.6387 91.2419 95.4181 91.3893 95.2324 91.575C95.0466 91.7608 94.8993 91.9813 94.7988 92.224C94.6982 92.4667 94.6465 92.7268 94.6465 92.9895C94.6465 93.2522 94.6982 93.5123 94.7988 93.755C94.8993 93.9977 95.0466 94.2183 95.2324 94.404L101.596 100.768Z" stroke="black" stroke-width="2" stroke-linecap="round" stroke-linejoin="round"/>
<path id="Vector_83" d="M86.5 109.5L87.9 108.1" stroke="black" stroke-width="2" stroke-linecap="round" stroke-linejoin="round"/>
<path id="Vector_84" d="M104.1 91.9L105.5 90.5" stroke="black" stroke-width="2" stroke-linecap="round" stroke-linejoin="round"/>
<path id="Vector_85" d="M89.3428 109.485C89.7178 109.86 90.2265 110.071 90.7569 110.071C91.0196 110.071 91.2796 110.019 91.5223 109.919C91.765 109.818 91.9855 109.671 92.1713 109.485C92.357 109.3 92.5044 109.079 92.6049 108.837C92.7055 108.594 92.7573 108.334 92.7573 108.071C92.7574 107.809 92.7057 107.549 92.6052 107.306C92.5047 107.063 92.3575 106.843 92.1718 106.657L93.9388 108.425C94.3139 108.8 94.8227 109.011 95.3533 109.011C95.8838 109.011 96.3926 108.8 96.7678 108.425C97.1429 108.05 97.3537 107.541 97.3537 107.01C97.3537 106.48 97.1429 105.971 96.7678 105.596L90.4038 99.2319C90.218 99.0461 89.9975 98.8988 89.7548 98.7983C89.5121 98.6977 89.252 98.646 88.9893 98.646C88.7266 98.646 88.4664 98.6977 88.2237 98.7983C87.981 98.8988 87.7605 99.0461 87.5748 99.2319C87.389 99.4177 87.2417 99.6382 87.1411 99.8809C87.0406 100.124 86.9889 100.384 86.9889 100.646C86.9889 100.909 87.0406 101.169 87.1411 101.412C87.2417 101.655 87.389 101.875 87.5748 102.061L89.3428 103.828C88.9676 103.453 88.4589 103.242 87.9284 103.242C87.398 103.242 86.8893 103.453 86.5143 103.828C86.1392 104.204 85.9286 104.712 85.9287 105.243C85.9288 105.773 86.1396 106.282 86.5148 106.657L89.3428 109.485Z" stroke="black" stroke-width="2" stroke-linecap="round" stroke-linejoin="round"/>
<path id="Vector_86" d="M93.5996 102.4L98.3996 97.6001" stroke="black" stroke-width="2" stroke-linecap="round" stroke-linejoin="round"/>
</g></svg>
