<svg viewBox="0 0 24 24" fill="none" xmlns="http://www.w3.org/2000/svg"><g transform="translate(-148 -88)">
<path id="Vector_89" d="M154 106.5C154 106.96 154.091 107.415 154.266 107.839C154.442 108.264 154.7 108.65 155.025 108.975C155.35 109.3 155.736 109.558 156.161 109.734C156.585 109.91 157.04 110 157.5 110C157.96 110 158.415 109.91 158.839 109.734C159.264 109.558 159.65 109.3 159.975 108.975C160.3 108.65 160.558 108.264 160.734 107.839C160.909 107.415 161 106.96 161 106.5C161 104.93 161.92 103.98 163.04 103.04" stroke="black" stroke-width="2" stroke-linecap="round" stroke-linejoin="round"/>
<path id="Vector_90" d="M154 96.5001C154 95.7501 154.13 95.0301 154.36 94.3601" stroke="black" stroke-width="2" stroke-linecap="round" stroke-linejoin="round"/>
<path id="Vector_91" d="M156.8 91.15C157.775 90.4745 158.917 90.079 160.102 90.0063C161.286 89.9337 162.468 90.1867 163.519 90.7379C164.57 91.2891 165.45 92.1175 166.063 93.1332C166.677 94.149 167.001 95.3133 167 96.5C167 98.13 166.56 99.31 165.91 100.26" stroke="black" stroke-width="2" stroke-linecap="round" stroke-linejoin="round"/>
<path id="Vector_92" d="M160.5 94C161.163 94 161.799 94.2634 162.268 94.7322C162.737 95.2011 163 95.837 163 96.5M158 101C158.385 100.999 158.761 100.887 159.084 100.678C159.407 100.469 159.662 100.171 159.82 99.82" stroke="black" stroke-width="2" stroke-linecap="round" stroke-linejoin="round"/>
<path id="Vector_93" d="M150 90L170 110" stroke="black" stroke-width="2" stroke-linecap="round" stroke-linejoin="round"/>
</g></svg>
