<svg viewBox="0 0 24 24" fill="none" xmlns="http://www.w3.org/2000/svg"><g transform="translate(-116 -88)">
<path id="Vector_87" d="M122 96.5C122 94.7761 122.685 93.1228 123.904 91.9038C125.123 90.6848 126.776 90 128.5 90C130.224 90 131.877 90.6848 133.096 91.9038C134.315 93.1228 135 94.7761 135 96.5C135 102.5 129 102.5 129 106.5C129 106.96 128.909 107.415 128.734 107.839C128.558 108.264 128.3 108.65 127.975 108.975C127.65 109.3 127.264 109.558 126.839 109.734C126.415 109.909 125.96 110 125.5 110C125.04 110 124.585 109.909 124.161 109.734C123.736 109.558 123.35 109.3 123.025 108.975C122.7 108.65 122.442 108.264 122.266 107.839C122.091 107.415 122 106.96 122 106.5" stroke="black" stroke-width="2" stroke-linecap="round" stroke-linejoin="round"/>
<path id="Vector_88" d="M131 96.5C131 95.837 130.737 95.2011 130.268 94.7322C129.799 94.2634 129.163 94 128.5 94C127.837 94 127.201 94.2634 126.732 94.7322C126.263 95.2011 126 95.837 126 96.5V97.5C126.53 97.5 127.039 97.7107 127.414 98.0858C127.789 98.4609 128 98.9696 128 99.5C128 100.03 127.789 100.539 127.414 100.914C127.039 101.289 126.53 101.5 126 101.5" stroke="black" stroke-width="2" stroke-linecap="round" stroke-linejoin="round"/>
</g></svg>
