<svg viewBox="0 0 24 24" fill="none" xmlns="http://www.w3.org/2000/svg"><g transform="translate(-148 -56)">
<path id="Vector_18" d="M169.54 71H165C164.47 71 163.961 71.2107 163.586 71.5858C163.211 71.9609 163 72.4696 163 73V77.54" stroke="black" stroke-width="2" stroke-linecap="round" stroke-linejoin="round"/>
<path id="Vector_19" d="M155 59.3401V61.0001C155 61.7957 155.316 62.5588 155.879 63.1214C156.441 63.684 157.204 64.0001 158 64.0001C158.53 64.0001 159.039 64.2108 159.414 64.5859C159.789 64.9609 160 65.4697 160 66.0001C160 67.1001 160.9 68.0001 162 68.0001C162.53 68.0001 163.039 67.7894 163.414 67.4143C163.789 67.0392 164 66.5305 164 66.0001C164 64.9001 164.9 64.0001 166 64.0001H169.17" stroke="black" stroke-width="2" stroke-linecap="round" stroke-linejoin="round"/>
<path id="Vector_20" d="M159 77.95V74C159 73.4696 158.789 72.9609 158.414 72.5858C158.039 72.2107 157.53 72 157 72C156.469 72 155.961 71.7893 155.586 71.4142C155.211 71.0391 155 70.5304 155 70V69C155 68.4696 154.789 67.9609 154.414 67.5858C154.039 67.2107 153.53 67 153 67H150.05" stroke="black" stroke-width="2" stroke-linecap="round" stroke-linejoin="round"/>
<path id="Vector_21" d="M160 78C165.523 78 170 73.5228 170 68C170 62.4772 165.523 58 160 58C154.477 58 150 62.4772 150 68C150 73.5228 154.477 78 160 78Z" stroke="black" stroke-width="2" stroke-linecap="round" stroke-linejoin="round"/>
</g></svg>
