<svg viewBox="0 0 24 24" fill="none" xmlns="http://www.w3.org/2000/svg"><g transform="translate(-180 -56)">
<path id="Vector_22" d="M187 59.3401V61.0001C187 61.7957 187.316 62.5588 187.879 63.1214C188.441 63.684 189.204 64.0001 190 64.0001" stroke="black" stroke-width="2" stroke-linecap="round" stroke-linejoin="round"/>
<path id="Vector_23" d="M191 77.95V74C191 73.4696 190.789 72.9609 190.414 72.5858C190.039 72.2107 189.53 72 189 72C188.469 72 187.961 71.7893 187.586 71.4142C187.211 71.0391 187 70.5304 187 70V69C187 68.4696 186.789 67.9609 186.414 67.5858C186.039 67.2107 185.53 67 185 67H182.05" stroke="black" stroke-width="2" stroke-linecap="round" stroke-linejoin="round"/>
<path id="Vector_24" d="M201.54 71H197C196.47 71 195.961 71.2107 195.586 71.5858C195.211 71.9609 195 72.4696 195 73V77.54" stroke="black" stroke-width="2" stroke-linecap="round" stroke-linejoin="round"/>
<path id="Vector_25" d="M192 58C190.152 58.0001 188.34 58.5124 186.765 59.4801C185.191 60.4477 183.915 61.8328 183.08 63.4816C182.245 65.1304 181.883 66.9784 182.035 68.8204C182.186 70.6623 182.845 72.4263 183.939 73.9163C185.032 75.4064 186.517 76.5642 188.229 77.2614C189.941 77.9585 191.812 78.1676 193.636 77.8655C195.459 77.5634 197.163 76.7619 198.558 75.55C199.954 74.338 200.986 72.7631 201.54 71" stroke="black" stroke-width="2" stroke-linecap="round" stroke-linejoin="round"/>
<path id="Vector_26" d="M200 62V60C200 59.4696 199.789 58.9609 199.414 58.5858C199.039 58.2107 198.53 58 198 58C197.47 58 196.961 58.2107 196.586 58.5858C196.211 58.9609 196 59.4696 196 60V62" stroke="black" stroke-width="2" stroke-linecap="round" stroke-linejoin="round"/>
<path id="Vector_27" d="M201 62H195C194.448 62 194 62.4477 194 63V66C194 66.5523 194.448 67 195 67H201C201.552 67 202 66.5523 202 66V63C202 62.4477 201.552 62 201 62Z" stroke="black" stroke-width="2" stroke-linecap="round" stroke-linejoin="round"/>
</g></svg>
