<svg viewBox="0 0 24 24" fill="none" xmlns="http://www.w3.org/2000/svg"><g transform="translate(-116 -120)">
<path id="Vector_111" d="M127.5 136C129.433 136 131 134.433 131 132.5C131 130.567 129.433 129 127.5 129C125.567 129 124 130.567 124 132.5C124 134.433 125.567 136 127.5 136Z" stroke="black" stroke-width="2" stroke-linecap="round" stroke-linejoin="round"/>
<path id="Vector_112" d="M119 128C119 124.5 121.5 122 125.5 122C130.5 122 130.33 125 133 127C135.67 129 138 129 138 133C138 137.5 135.5 139.5 131 139.5C128.5 139.5 128.5 142 125 142C121.5 142 118 140 118 136.5C118 133.5 119.5 133.5 119.5 131.5C119.5 130 119 129 119 128Z" stroke="black" stroke-width="2" stroke-linecap="round" stroke-linejoin="round"/>
</g></svg>
