<svg viewBox="0 0 32 32" fill="none" xmlns="http://www.w3.org/2000/svg"><g transform="translate(-140 -96)">
<g id="Vector_37">
<path d="M160.748 109H155.524C155.549 109.125 155.599 109.25 155.624 109.35C155.799 109.95 155.898 110.575 155.948 111.225C155.973 111.475 155.973 111.75 155.973 112C155.973 112.25 155.973 112.525 155.948 112.775C155.898 113.425 155.799 114.05 155.624 114.65C155.599 114.775 155.549 114.9 155.524 115H160.748C162.397 115 163.722 113.65 163.722 112C163.722 110.35 162.397 109 160.748 109Z" fill="#00A9E5"/>
<path d="M155.948 112.775C155.973 112.525 155.973 112.25 155.973 112C155.973 111.75 155.973 111.475 155.948 111.225C155.898 110.575 155.799 109.95 155.624 109.35C155.599 109.225 155.549 109.1 155.524 109H147.45C147.15 109.95 147 110.95 147 112C147 113.05 147.15 114.05 147.45 115H155.524C155.549 114.875 155.599 114.75 155.624 114.65C155.799 114.05 155.898 113.425 155.948 112.775Z" fill="#353535"/>
<path d="M161.649 116H155.15C154.95 116.45 154.725 116.875 154.475 117.275C154.1 117.9 153.65 118.45 153.15 118.975C152.975 119.15 152.8 119.3 152.625 119.475C152.275 119.8 151.875 120.075 151.475 120.35C153.05 121.4 154.95 122 156.974 122C160.449 122 163.498 120.225 165.298 117.55C164.373 116.6 163.073 116 161.649 116Z" fill="#00BFB3"/>
<path d="M154.472 117.275C154.722 116.875 154.947 116.45 155.147 116H147.823C148.598 117.775 149.873 119.3 151.497 120.35C151.897 120.075 152.272 119.8 152.647 119.475C152.822 119.325 152.997 119.15 153.172 118.975C153.647 118.475 154.097 117.9 154.472 117.275Z" fill="#019B8F"/>
<path d="M153.147 105.027C152.972 104.852 152.797 104.702 152.622 104.527C152.272 104.202 151.872 103.927 151.472 103.652C149.873 104.702 148.598 106.227 147.798 108.002H155.122C154.922 107.552 154.697 107.127 154.447 106.727C154.097 106.102 153.647 105.527 153.147 105.027Z" fill="#F9B110"/>
<path d="M156.974 102C154.95 102 153.05 102.6 151.475 103.65C151.875 103.925 152.25 104.2 152.625 104.525C152.8 104.675 152.975 104.85 153.15 105.025C153.65 105.55 154.1 106.1 154.475 106.725C154.725 107.125 154.95 107.55 155.15 108H161.649C163.073 108 164.373 107.4 165.298 106.45C163.498 103.775 160.449 102 156.974 102Z" fill="#FED10A"/>
</g>
</g></svg>
