<svg viewBox="0 0 24 24" fill="none" xmlns="http://www.w3.org/2000/svg"><g transform="translate(-308 -88)">
<path id="Vector_64" d="M320 101C320.552 101 321 100.552 321 100C321 99.4477 320.552 99 320 99C319.448 99 319 99.4477 319 100C319 100.552 319.448 101 320 101Z" stroke="black" stroke-width="2" stroke-linecap="round" stroke-linejoin="round"/>
<path id="Vector_65" d="M320 94C320.552 94 321 93.5523 321 93C321 92.4477 320.552 92 320 92C319.448 92 319 92.4477 319 93C319 93.5523 319.448 94 320 94Z" stroke="black" stroke-width="2" stroke-linecap="round" stroke-linejoin="round"/>
<path id="Vector_66" d="M320 108C320.552 108 321 107.552 321 107C321 106.448 320.552 106 320 106C319.448 106 319 106.448 319 107C319 107.552 319.448 108 320 108Z" stroke="black" stroke-width="2" stroke-linecap="round" stroke-linejoin="round"/>
</g></svg>
