<svg viewBox="0 0 24 24" fill="none" xmlns="http://www.w3.org/2000/svg"><g transform="translate(-276 -88)">
<path id="Vector_61" d="M288 101C288.552 101 289 100.552 289 100C289 99.4477 288.552 99 288 99C287.448 99 287 99.4477 287 100C287 100.552 287.448 101 288 101Z" stroke="black" stroke-width="2" stroke-linecap="round" stroke-linejoin="round"/>
<path id="Vector_62" d="M295 101C295.552 101 296 100.552 296 100C296 99.4477 295.552 99 295 99C294.448 99 294 99.4477 294 100C294 100.552 294.448 101 295 101Z" stroke="black" stroke-width="2" stroke-linecap="round" stroke-linejoin="round"/>
<path id="Vector_63" d="M281 101C281.552 101 282 100.552 282 100C282 99.4477 281.552 99 281 99C280.448 99 280 99.4477 280 100C280 100.552 280.448 101 281 101Z" stroke="black" stroke-width="2" stroke-linecap="round" stroke-linejoin="round"/>
</g></svg>
