<svg viewBox="0 0 24 24" fill="none" xmlns="http://www.w3.org/2000/svg"><g transform="translate(-372 -56)">
<path id="Vector_43" d="M393 77H380C379.736 77.0006 379.475 76.949 379.231 76.8483C378.987 76.7475 378.766 76.5996 378.58 76.413L374.586 72.4139C374.211 72.0389 374 71.5303 374 71C374 70.4696 374.211 69.961 374.586 69.586L384.586 59.586C384.771 59.4001 384.992 59.2528 385.235 59.1522C385.477 59.0516 385.737 58.9999 386 58.9999C386.263 58.9999 386.523 59.0516 386.766 59.1522C387.008 59.2528 387.229 59.4001 387.415 59.586L393.414 65.586C393.789 65.961 393.999 66.4696 393.999 67C393.999 67.5303 393.789 68.0389 393.414 68.4139L384.834 77" stroke="black" stroke-width="2" stroke-linecap="round" stroke-linejoin="round"/>
<path id="Vector_44" d="M377.082 67.09L385.91 75.918" stroke="black" stroke-width="2" stroke-linecap="round" stroke-linejoin="round"/>
</g></svg>
