<svg viewBox="0 0 24 24" fill="none" xmlns="http://www.w3.org/2000/svg"><g transform="translate(-244 -88)">
<path id="Vector_73" d="M259 108L262 105H264C264.53 105 265.039 104.789 265.414 104.414C265.789 104.039 266 103.53 266 103V94C266 93.4696 265.789 92.9609 265.414 92.5858C265.039 92.2107 264.53 92 264 92H248C247.47 92 246.961 92.2107 246.586 92.5858C246.211 92.9609 246 93.4696 246 94V103C246 103.53 246.211 104.039 246.586 104.414C246.961 104.789 247.47 105 248 105H250L253 108H259Z" stroke="black" stroke-width="2" stroke-linecap="round" stroke-linejoin="round"/>
<path id="Vector_74" d="M250 96V97" stroke="black" stroke-width="2" stroke-linecap="round" stroke-linejoin="round"/>
<path id="Vector_75" d="M254 96V97" stroke="black" stroke-width="2" stroke-linecap="round" stroke-linejoin="round"/>
<path id="Vector_76" d="M258 96V97" stroke="black" stroke-width="2" stroke-linecap="round" stroke-linejoin="round"/>
<path id="Vector_77" d="M262 96V97" stroke="black" stroke-width="2" stroke-linecap="round" stroke-linejoin="round"/>
</g></svg>
