<svg viewBox="0 0 24 24" fill="none" xmlns="http://www.w3.org/2000/svg"><g transform="translate(-340 -56)">
<path id="Vector_64" d="M354 69H356C356.53 69 357.039 69.2107 357.414 69.5858C357.789 69.9609 358 70.4696 358 71V73C358 73.5304 358.211 74.0391 358.586 74.4142C358.961 74.7893 359.47 75 360 75C360.53 75 361.039 74.7893 361.414 74.4142C361.789 74.0391 362 73.5304 362 73V66.002C362 65.7381 361.948 65.4767 361.847 65.233C361.746 64.9893 361.597 64.7681 361.41 64.582L358 61" stroke="black" stroke-width="2" stroke-linecap="round" stroke-linejoin="round"/>
<path id="Vector_65" d="M354 77V61C354 60.4696 353.789 59.9609 353.414 59.5858C353.039 59.2107 352.53 59 352 59H345C344.47 59 343.961 59.2107 343.586 59.5858C343.211 59.9609 343 60.4696 343 61V77" stroke="black" stroke-width="2" stroke-linecap="round" stroke-linejoin="round"/>
<path id="Vector_66" d="M342 77H355" stroke="black" stroke-width="2" stroke-linecap="round" stroke-linejoin="round"/>
<path id="Vector_67" d="M343 63H354" stroke="black" stroke-width="2" stroke-linecap="round" stroke-linejoin="round"/>
<path id="Vector_68" d="M349 67L347 70H350L348 73" stroke="black" stroke-width="2" stroke-linecap="round" stroke-linejoin="round"/>
</g></svg>
