<svg viewBox="0 0 24 24" fill="none" xmlns="http://www.w3.org/2000/svg"><g transform="translate(-276 -88)">
<path id="Vector_110" d="M286.733 93.076C289.063 92.7984 291.419 93.2908 293.442 94.478C295.466 95.6653 297.045 97.4821 297.938 99.651C298.022 99.8755 298.022 100.122 297.938 100.347C297.571 101.238 297.085 102.075 296.494 102.837" stroke="black" stroke-width="2" stroke-linecap="round" stroke-linejoin="round"/>
<path id="Vector_111" d="M290.084 102.158C289.518 102.704 288.761 103.007 287.974 103C287.187 102.993 286.435 102.678 285.879 102.121C285.322 101.565 285.007 100.813 285 100.026C284.993 99.2396 285.296 98.4818 285.842 97.916" stroke="black" stroke-width="2" stroke-linecap="round" stroke-linejoin="round"/>
<path id="Vector_112" d="M293.479 105.499C292.152 106.285 290.672 106.776 289.139 106.939C287.606 107.103 286.055 106.934 284.593 106.446C283.131 105.957 281.791 105.16 280.664 104.108C279.537 103.056 278.649 101.773 278.062 100.348C277.978 100.124 277.978 99.8765 278.062 99.652C278.948 97.5019 280.508 95.6973 282.508 94.509" stroke="black" stroke-width="2" stroke-linecap="round" stroke-linejoin="round"/>
<path id="Vector_113" d="M278 90L298 110" stroke="black" stroke-width="2" stroke-linecap="round" stroke-linejoin="round"/>
</g></svg>
