<svg viewBox="0 0 24 24" fill="none" xmlns="http://www.w3.org/2000/svg"><g transform="translate(-244 -88)">
<path id="Vector_101" d="M257.054 106.946C256.353 107.014 255.646 107.014 254.944 106.946" stroke="black" stroke-width="2" stroke-linecap="round" stroke-linejoin="round"/>
<path id="Vector_102" d="M257.054 93.0539C256.353 92.986 255.646 92.9856 254.944 93.0529" stroke="black" stroke-width="2" stroke-linecap="round" stroke-linejoin="round"/>
<path id="Vector_103" d="M261.072 94.2739C261.693 94.6079 262.28 95.0007 262.825 95.4469" stroke="black" stroke-width="2" stroke-linecap="round" stroke-linejoin="round"/>
<path id="Vector_104" d="M262.825 104.552C262.28 104.999 261.693 105.392 261.072 105.726" stroke="black" stroke-width="2" stroke-linecap="round" stroke-linejoin="round"/>
<path id="Vector_105" d="M246.514 101.303C246.348 100.992 246.197 100.674 246.062 100.349C245.978 100.124 245.978 99.8768 246.062 99.652C246.196 99.3267 246.347 99.008 246.512 98.697" stroke="black" stroke-width="2" stroke-linecap="round" stroke-linejoin="round"/>
<path id="Vector_106" d="M265.485 98.697C265.652 99.0079 265.803 99.3266 265.938 99.652C266.022 99.8768 266.022 100.124 265.938 100.349C265.803 100.674 265.652 100.992 265.485 101.303" stroke="black" stroke-width="2" stroke-linecap="round" stroke-linejoin="round"/>
<path id="Vector_107" d="M249.173 95.4479C249.718 95.0013 250.305 94.6082 250.926 94.2739" stroke="black" stroke-width="2" stroke-linecap="round" stroke-linejoin="round"/>
<path id="Vector_108" d="M250.926 105.726C250.305 105.392 249.718 104.999 249.173 104.552" stroke="black" stroke-width="2" stroke-linecap="round" stroke-linejoin="round"/>
<path id="Vector_109" d="M256 103C257.657 103 259 101.657 259 100C259 98.3431 257.657 97 256 97C254.343 97 253 98.3431 253 100C253 101.657 254.343 103 256 103Z" stroke="black" stroke-width="2" stroke-linecap="round" stroke-linejoin="round"/>
</g></svg>
