<svg viewBox="0 0 24 24" fill="none" xmlns="http://www.w3.org/2000/svg"><g transform="translate(-180 -88)">
<path id="Vector_94" d="M182.062 99.6521C181.978 99.8766 181.978 100.124 182.062 100.348C182.873 102.316 184.251 103.999 186.02 105.183C187.79 106.367 189.871 107 192 107C194.128 107 196.21 106.367 197.979 105.183C199.748 103.999 201.126 102.316 201.938 100.348C202.021 100.124 202.021 99.8766 201.938 99.6521C201.126 97.684 199.748 96.0012 197.979 94.817C196.21 93.6329 194.128 93.0007 192 93.0007C189.871 93.0007 187.79 93.6329 186.02 94.817C184.251 96.0012 182.873 97.684 182.062 99.6521Z" stroke="black" stroke-width="2" stroke-linecap="round" stroke-linejoin="round"/>
<path id="Vector_95" d="M192 103C193.657 103 195 101.657 195 100C195 98.3431 193.657 97 192 97C190.343 97 189 98.3431 189 100C189 101.657 190.343 103 192 103Z" stroke="black" stroke-width="2" stroke-linecap="round" stroke-linejoin="round"/>
</g></svg>
