<svg viewBox="0 0 24 24" fill="none" xmlns="http://www.w3.org/2000/svg"><g transform="translate(-212 -56)">
<path id="Vector_41" d="M224 72H224.01" stroke="black" stroke-width="2" stroke-linecap="round" stroke-linejoin="round"/>
<path id="Vector_42" d="M228 72H228.01" stroke="black" stroke-width="2" stroke-linecap="round" stroke-linejoin="round"/>
<path id="Vector_43" d="M215 75C215 75.5304 215.211 76.0391 215.586 76.4142C215.961 76.7893 216.47 77 217 77H231C231.53 77 232.039 76.7893 232.414 76.4142C232.789 76.0391 233 75.5304 233 75V64.5C233 64.4103 232.976 64.3222 232.93 64.245C232.885 64.1678 232.819 64.1043 232.741 64.0611C232.662 64.018 232.573 63.9968 232.483 63.9997C232.394 64.0027 232.307 64.0297 232.231 64.078L227.769 66.922C227.693 66.9703 227.606 66.9973 227.517 67.0003C227.427 67.0032 227.338 66.982 227.259 66.9389C227.181 66.8957 227.115 66.8322 227.07 66.755C227.024 66.6778 227 66.5897 227 66.5V64.5C227 64.4103 226.976 64.3222 226.93 64.245C226.885 64.1678 226.819 64.1043 226.741 64.0611C226.662 64.018 226.573 63.9968 226.483 63.9997C226.394 64.0027 226.307 64.0297 226.231 64.078L221.77 66.922C221.694 66.9705 221.607 66.9978 221.517 67.0009C221.427 67.004 221.338 66.9828 221.26 66.9396C221.181 66.8965 221.115 66.8328 221.069 66.7555C221.024 66.6781 221 66.5899 221 66.5V61C221 60.4696 220.789 59.9609 220.414 59.5858C220.039 59.2107 219.53 59 219 59H217C216.47 59 215.961 59.2107 215.586 59.5858C215.211 59.9609 215 60.4696 215 61V75Z" stroke="black" stroke-width="2" stroke-linecap="round" stroke-linejoin="round"/>
<path id="Vector_44" d="M220 72H220.01" stroke="black" stroke-width="2" stroke-linecap="round" stroke-linejoin="round"/>
</g></svg>
