<svg viewBox="0 0 24 24" fill="none" xmlns="http://www.w3.org/2000/svg"><g transform="translate(-308 -56)">
<path id="Vector_40" d="M318.827 72.379C317.779 72.9085 316.601 73.1235 315.433 72.9979C314.266 72.8722 313.16 72.4115 312.249 71.6711C311.338 70.9308 310.66 69.9426 310.298 68.8257C309.936 67.7088 309.905 66.5111 310.209 65.377L315.621 66.827C315.092 65.7792 314.877 64.6005 315.002 63.4332C315.128 62.2659 315.589 61.1599 316.329 60.2487C317.069 59.3375 318.058 58.66 319.174 58.2981C320.291 57.9362 321.489 57.9052 322.623 58.209L321.173 63.621C322.221 63.0915 323.4 62.8766 324.567 63.0022C325.734 63.1278 326.84 63.5886 327.751 64.3289C328.663 65.0693 329.34 66.0575 329.702 67.1744C330.064 68.2912 330.095 69.489 329.791 70.623L324.379 69.173C324.909 70.2209 325.124 71.3996 324.998 72.5669C324.872 73.7342 324.412 74.8402 323.671 75.7514C322.931 76.6626 321.943 77.34 320.826 77.702C319.709 78.0639 318.511 78.0948 317.377 77.791L318.827 72.379Z" stroke="black" stroke-width="2" stroke-linecap="round" stroke-linejoin="round"/>
<path id="Vector_41" d="M320 68V68.01" stroke="black" stroke-width="2" stroke-linecap="round" stroke-linejoin="round"/>
</g></svg>
