<svg viewBox="0 0 24 24" fill="none" xmlns="http://www.w3.org/2000/svg"><g transform="translate(-212 -88)">
<path id="Vector_68" d="M224 94.0001C224 93.6046 224.117 93.218 224.337 92.8891C224.557 92.5603 224.869 92.304 225.235 92.1527C225.6 92.0014 226.002 91.9618 226.39 92.0389C226.778 92.116 227.134 92.3064 227.414 92.5861L233.414 98.5861C233.789 98.9611 234 99.4697 234 100C234 100.53 233.789 101.039 233.414 101.414L227.414 107.414C227.134 107.694 226.778 107.884 226.39 107.961C226.002 108.038 225.6 107.999 225.235 107.847C224.869 107.696 224.557 107.44 224.337 107.111C224.117 106.782 224 106.396 224 106V94.0001Z" stroke="black" stroke-width="2" stroke-linecap="round" stroke-linejoin="round"/>
<path id="Vector_69" d="M214 94.0001C214 93.6046 214.117 93.218 214.337 92.8891C214.557 92.5603 214.869 92.304 215.235 92.1527C215.6 92.0014 216.002 91.9618 216.39 92.0389C216.778 92.116 217.134 92.3064 217.414 92.5861L223.414 98.5861C223.789 98.9611 224 99.4697 224 100C224 100.53 223.789 101.039 223.414 101.414L217.414 107.414C217.134 107.694 216.778 107.884 216.39 107.961C216.002 108.038 215.6 107.999 215.235 107.847C214.869 107.696 214.557 107.44 214.337 107.111C214.117 106.782 214 106.396 214 106V94.0001Z" stroke="black" stroke-width="2" stroke-linecap="round" stroke-linejoin="round"/>
</g></svg>
