<svg viewBox="0 0 24 24" fill="none" xmlns="http://www.w3.org/2000/svg"><g transform="translate(-52 -88)">
<path id="Vector_53" d="M64.67 107C64.9331 107 65.1936 106.948 65.4366 106.847C65.6796 106.746 65.9003 106.598 66.086 106.412L72.24 100.24C73.3658 99.1142 73.9983 97.5872 73.9983 95.995C73.9983 94.4029 73.3658 92.8759 72.24 91.75C71.1142 90.6242 69.5872 89.9917 67.995 89.9917C66.4028 89.9917 64.8758 90.6242 63.75 91.75L57.586 97.914C57.2109 98.289 57.0001 98.7976 57 99.328V106C57 106.265 57.1054 106.52 57.2929 106.707C57.4804 106.895 57.7348 107 58 107H64.67Z" stroke="black" stroke-width="2" stroke-linecap="round" stroke-linejoin="round"/>
<path id="Vector_54" d="M68 96L54 110" stroke="black" stroke-width="2" stroke-linecap="round" stroke-linejoin="round"/>
<path id="Vector_55" d="M69.5 103H61" stroke="black" stroke-width="2" stroke-linecap="round" stroke-linejoin="round"/>
</g></svg>
