<svg viewBox="0 0 24 24" fill="none" xmlns="http://www.w3.org/2000/svg"><g transform="translate(-244 -56)">
<path id="Vector_45" d="M256 70C257.105 70 258 69.1046 258 68C258 66.8954 257.105 66 256 66C254.895 66 254 66.8954 254 68C254 69.1046 254.895 70 256 70Z" stroke="black" stroke-width="2" stroke-linecap="round" stroke-linejoin="round"/>
<path id="Vector_46" d="M256 58V62" stroke="black" stroke-width="2" stroke-linecap="round" stroke-linejoin="round"/>
<path id="Vector_47" d="M250.8 71L247.3 73" stroke="black" stroke-width="2" stroke-linecap="round" stroke-linejoin="round"/>
<path id="Vector_48" d="M264.7 63L261.2 65" stroke="black" stroke-width="2" stroke-linecap="round" stroke-linejoin="round"/>
<path id="Vector_49" d="M250.8 65L247.3 63" stroke="black" stroke-width="2" stroke-linecap="round" stroke-linejoin="round"/>
<path id="Vector_50" d="M264.7 73L261.2 71" stroke="black" stroke-width="2" stroke-linecap="round" stroke-linejoin="round"/>
<path id="Vector_51" d="M253 78L256 70L259 78" stroke="black" stroke-width="2" stroke-linecap="round" stroke-linejoin="round"/>
<path id="Vector_52" d="M252 78H260" stroke="black" stroke-width="2" stroke-linecap="round" stroke-linejoin="round"/>
<path id="Vector_53" d="M262 74.6999C263.359 73.4848 264.316 71.8857 264.746 70.1144C265.176 68.3431 265.058 66.483 264.408 64.7803C263.757 63.0776 262.605 61.6124 261.104 60.5788C259.602 59.5451 257.823 58.9917 256 58.9917C254.177 58.9917 252.398 59.5451 250.896 60.5788C249.395 61.6124 248.243 63.0776 247.592 64.7803C246.942 66.483 246.824 68.3431 247.254 70.1144C247.684 71.8857 248.641 73.4848 250 74.6999" stroke="black" stroke-width="2" stroke-linecap="round" stroke-linejoin="round"/>
</g></svg>
