<svg viewBox="0 0 24 24" fill="none" xmlns="http://www.w3.org/2000/svg"><g transform="translate(-276 -120)">
<path id="Vector_129" d="M282 142C281.47 142 280.961 141.789 280.586 141.414C280.211 141.039 280 140.53 280 140V124C280 123.47 280.211 122.961 280.586 122.586C280.961 122.211 281.47 122 282 122H290C290.317 121.999 290.63 122.062 290.923 122.183C291.215 122.304 291.481 122.482 291.704 122.706L295.292 126.294C295.517 126.518 295.695 126.783 295.817 127.076C295.938 127.369 296.001 127.683 296 128V140C296 140.53 295.789 141.039 295.414 141.414C295.039 141.789 294.53 142 294 142H282Z" stroke="black" stroke-width="2" stroke-linecap="round" stroke-linejoin="round"/>
<path id="Vector_130" d="M290 122V127C290 127.265 290.105 127.52 290.293 127.707C290.48 127.895 290.735 128 291 128H296" stroke="black" stroke-width="2" stroke-linecap="round" stroke-linejoin="round"/>
<path id="Vector_131" d="M292 133L288.5 136.5L286.5 134.5L284 137" stroke="black" stroke-width="2" stroke-linecap="round" stroke-linejoin="round"/>
</g></svg>
