<svg viewBox="0 0 24 24" fill="none" xmlns="http://www.w3.org/2000/svg"><g transform="translate(-148 -120)">
<path id="Vector_111" d="M154 142C153.47 142 152.961 141.789 152.586 141.414C152.211 141.039 152 140.53 152 140V124C152 123.47 152.211 122.961 152.586 122.586C152.961 122.211 153.47 122 154 122H162C162.317 121.999 162.63 122.062 162.923 122.183C163.215 122.304 163.481 122.482 163.704 122.706L167.292 126.294C167.517 126.518 167.695 126.783 167.817 127.076C167.938 127.369 168.001 127.683 168 128V140C168 140.53 167.789 141.039 167.414 141.414C167.039 141.789 166.53 142 166 142H154Z" stroke="black" stroke-width="2" stroke-linecap="round" stroke-linejoin="round"/>
<path id="Vector_112" d="M162 122V127C162 127.265 162.105 127.52 162.293 127.707C162.48 127.895 162.735 128 163 128H168" stroke="black" stroke-width="2" stroke-linecap="round" stroke-linejoin="round"/>
<path id="Vector_113" d="M158 132C157.735 132 157.48 132.105 157.293 132.293C157.105 132.48 157 132.735 157 133V134C157 134.265 156.895 134.52 156.707 134.707C156.52 134.895 156.265 135 156 135C156.265 135 156.52 135.105 156.707 135.293C156.895 135.48 157 135.735 157 136V137C157 137.265 157.105 137.52 157.293 137.707C157.48 137.895 157.735 138 158 138" stroke="black" stroke-width="2" stroke-linecap="round" stroke-linejoin="round"/>
<path id="Vector_114" d="M162 138C162.265 138 162.52 137.895 162.707 137.707C162.895 137.52 163 137.265 163 137V136C163 135.735 163.105 135.48 163.293 135.293C163.48 135.105 163.735 135 164 135C163.735 135 163.48 134.895 163.293 134.707C163.105 134.52 163 134.265 163 134V133C163 132.735 162.895 132.48 162.707 132.293C162.52 132.105 162.265 132 162 132" stroke="black" stroke-width="2" stroke-linecap="round" stroke-linejoin="round"/>
</g></svg>
