<svg viewBox="0 0 24 24" fill="none" xmlns="http://www.w3.org/2000/svg"><g transform="translate(-116 -184)">
<path id="Vector_208" d="M136 198V192C136.001 191.683 135.939 191.369 135.818 191.076C135.696 190.784 135.518 190.518 135.294 190.294L131.706 186.706C131.482 186.482 131.216 186.304 130.924 186.182C130.631 186.061 130.317 185.999 130 186H122C121.47 186 120.961 186.211 120.586 186.586C120.211 186.961 120 187.47 120 188V204C120 204.53 120.211 205.039 120.586 205.414C120.961 205.789 121.47 206 122 206H134" stroke="black" stroke-width="2" stroke-linecap="round" stroke-linejoin="round"/>
<path id="Vector_209" d="M130 186V191C130 191.265 130.105 191.52 130.293 191.707C130.48 191.895 130.735 192 131 192H136" stroke="black" stroke-width="2" stroke-linecap="round" stroke-linejoin="round"/>
<path id="Vector_210" d="M130 202H136" stroke="black" stroke-width="2" stroke-linecap="round" stroke-linejoin="round"/>
</g></svg>
