<svg viewBox="0 0 24 24" fill="none" xmlns="http://www.w3.org/2000/svg"><g transform="translate(-52 -248)">
<path id="Vector_299" d="M58 270C57.4696 270 56.9609 269.789 56.5858 269.414C56.2107 269.039 56 268.53 56 268V252C56 251.47 56.2107 250.961 56.5858 250.586C56.9609 250.211 57.4696 250 58 250H66C66.3166 249.999 66.6301 250.062 66.9225 250.183C67.215 250.304 67.4806 250.482 67.704 250.706L71.292 254.294C71.5168 254.518 71.6952 254.783 71.8167 255.076C71.9382 255.369 72.0005 255.683 72 256V268C72 268.53 71.7893 269.039 71.4142 269.414C71.0391 269.789 70.5304 270 70 270H58Z" stroke="black" stroke-width="2" stroke-linecap="round" stroke-linejoin="round"/>
<path id="Vector_300" d="M66 250V255C66 255.265 66.1054 255.52 66.2929 255.707C66.4804 255.895 66.7348 256 67 256H72" stroke="black" stroke-width="2" stroke-linecap="round" stroke-linejoin="round"/>
<path id="Vector_301" d="M64 260V266" stroke="black" stroke-width="2" stroke-linecap="round" stroke-linejoin="round"/>
<path id="Vector_302" d="M67 263L64 260L61 263" stroke="black" stroke-width="2" stroke-linecap="round" stroke-linejoin="round"/>
</g></svg>
