<svg viewBox="0 0 24 24" fill="none" xmlns="http://www.w3.org/2000/svg"><g transform="translate(-244 -216)">
<path id="Vector_274" d="M255 237C255 237.265 254.895 237.52 254.707 237.707C254.52 237.895 254.265 238 254 238H248C247.735 238 247.48 237.895 247.293 237.707C247.105 237.52 247 237.265 247 237V229C247 228.735 247.105 228.48 247.293 228.293C247.48 228.105 247.735 228 248 228" stroke="black" stroke-width="2" stroke-linecap="round" stroke-linejoin="round"/>
<path id="Vector_275" d="M260 232C260 232.265 259.895 232.52 259.707 232.707C259.52 232.895 259.265 233 259 233H253C252.735 233 252.48 232.895 252.293 232.707C252.105 232.52 252 232.265 252 232V224C252 223.735 252.105 223.48 252.293 223.293C252.48 223.105 252.735 223 253 223" stroke="black" stroke-width="2" stroke-linecap="round" stroke-linejoin="round"/>
<path id="Vector_276" d="M265 222C265 221.47 264.789 220.961 264.414 220.586L262.414 218.586C262.039 218.211 261.53 218 261 218H258C257.735 218 257.48 218.105 257.293 218.293C257.105 218.48 257 218.735 257 219V227C257 227.265 257.105 227.52 257.293 227.707C257.48 227.895 257.735 228 258 228H264C264.265 228 264.52 227.895 264.707 227.707C264.895 227.52 265 227.265 265 227V222Z" stroke="black" stroke-width="2" stroke-linecap="round" stroke-linejoin="round"/>
</g></svg>
