<svg viewBox="0 0 24 24" fill="none" xmlns="http://www.w3.org/2000/svg"><g transform="translate(-84 -152)">
<path id="Vector_150" d="M88 164.15V156C88 155.47 88.2107 154.961 88.5858 154.586C88.9609 154.211 89.4696 154 90 154H98C98.3169 153.999 98.6308 154.061 98.9236 154.182C99.2164 154.304 99.4823 154.482 99.706 154.706L103.294 158.294C103.518 158.518 103.696 158.784 103.818 159.076C103.939 159.369 104.001 159.683 104 160V172C104 172.53 103.789 173.039 103.414 173.414C103.039 173.789 102.53 174 102 174H98.65" stroke="black" stroke-width="2" stroke-linecap="round" stroke-linejoin="round"/>
<path id="Vector_151" d="M98 154V159C98 159.265 98.1054 159.52 98.2929 159.707C98.4804 159.895 98.7348 160 99 160H104" stroke="black" stroke-width="2" stroke-linecap="round" stroke-linejoin="round"/>
<path id="Vector_152" d="M89 168L86 171L89 174" stroke="black" stroke-width="2" stroke-linecap="round" stroke-linejoin="round"/>
<path id="Vector_153" d="M93 174L96 171L93 168" stroke="black" stroke-width="2" stroke-linecap="round" stroke-linejoin="round"/>
</g></svg>
