<svg viewBox="0 0 24 24" fill="none" xmlns="http://www.w3.org/2000/svg"><g transform="translate(-212 -216)">
<path id="Vector_268" d="M218 238C217.47 238 216.961 237.789 216.586 237.414C216.211 237.039 216 236.53 216 236V220C216 219.47 216.211 218.961 216.586 218.586C216.961 218.211 217.47 218 218 218H226C226.317 217.999 226.63 218.062 226.923 218.183C227.215 218.304 227.481 218.482 227.704 218.706L231.292 222.294C231.517 222.518 231.695 222.783 231.817 223.076C231.938 223.369 232.001 223.683 232 224V236C232 236.53 231.789 237.039 231.414 237.414C231.039 237.789 230.53 238 230 238H218Z" stroke="black" stroke-width="2" stroke-linecap="round" stroke-linejoin="round"/>
<path id="Vector_269" d="M226 218V223C226 223.265 226.105 223.52 226.293 223.707C226.48 223.895 226.735 224 227 224H232" stroke="black" stroke-width="2" stroke-linecap="round" stroke-linejoin="round"/>
<path id="Vector_270" d="M220 229H222" stroke="black" stroke-width="2" stroke-linecap="round" stroke-linejoin="round"/>
<path id="Vector_271" d="M226 229H228" stroke="black" stroke-width="2" stroke-linecap="round" stroke-linejoin="round"/>
<path id="Vector_272" d="M220 233H222" stroke="black" stroke-width="2" stroke-linecap="round" stroke-linejoin="round"/>
<path id="Vector_273" d="M226 233H228" stroke="black" stroke-width="2" stroke-linecap="round" stroke-linejoin="round"/>
</g></svg>
