<svg viewBox="0 0 24 24" fill="none" xmlns="http://www.w3.org/2000/svg"><g transform="translate(-308 -184)">
<path id="Vector_229" d="M314 206C313.47 206 312.961 205.789 312.586 205.414C312.211 205.039 312 204.53 312 204V188C312 187.47 312.211 186.961 312.586 186.586C312.961 186.211 313.47 186 314 186H322C322.317 185.999 322.63 186.062 322.923 186.183C323.215 186.304 323.481 186.482 323.704 186.706L327.292 190.294C327.517 190.518 327.695 190.783 327.817 191.076C327.938 191.369 328.001 191.683 328 192V204C328 204.53 327.789 205.039 327.414 205.414C327.039 205.789 326.53 206 326 206H314Z" stroke="black" stroke-width="2" stroke-linecap="round" stroke-linejoin="round"/>
<path id="Vector_230" d="M322 186V191C322 191.265 322.105 191.52 322.293 191.707C322.48 191.895 322.735 192 323 192H328" stroke="black" stroke-width="2" stroke-linecap="round" stroke-linejoin="round"/>
<path id="Vector_231" d="M317 199H323" stroke="black" stroke-width="2" stroke-linecap="round" stroke-linejoin="round"/>
<path id="Vector_232" d="M320 202V196" stroke="black" stroke-width="2" stroke-linecap="round" stroke-linejoin="round"/>
</g></svg>
