<svg viewBox="0 0 24 24" fill="none" xmlns="http://www.w3.org/2000/svg"><g transform="translate(-180 -216)">
<path id="Vector_262" d="M186 238C185.47 238 184.961 237.789 184.586 237.414C184.211 237.039 184 236.53 184 236V220C184 219.47 184.211 218.961 184.586 218.586C184.961 218.211 185.47 218 186 218H194C194.317 217.999 194.63 218.062 194.923 218.183C195.215 218.304 195.481 218.482 195.704 218.706L199.292 222.294C199.517 222.518 199.695 222.783 199.817 223.076C199.938 223.369 200.001 223.683 200 224V236C200 236.53 199.789 237.039 199.414 237.414C199.039 237.789 198.53 238 198 238H186Z" stroke="black" stroke-width="2" stroke-linecap="round" stroke-linejoin="round"/>
<path id="Vector_263" d="M194 218V223C194 223.265 194.105 223.52 194.293 223.707C194.48 223.895 194.735 224 195 224H200" stroke="black" stroke-width="2" stroke-linecap="round" stroke-linejoin="round"/>
<path id="Vector_264" d="M188 228H196" stroke="black" stroke-width="2" stroke-linecap="round" stroke-linejoin="round"/>
<path id="Vector_265" d="M190 227V229" stroke="black" stroke-width="2" stroke-linecap="round" stroke-linejoin="round"/>
<path id="Vector_266" d="M188 233H196" stroke="black" stroke-width="2" stroke-linecap="round" stroke-linejoin="round"/>
<path id="Vector_267" d="M194 232V234" stroke="black" stroke-width="2" stroke-linecap="round" stroke-linejoin="round"/>
</g></svg>
