<svg viewBox="0 0 24 24" fill="none" xmlns="http://www.w3.org/2000/svg"><g transform="translate(-340 -120)">
<path id="Vector_136" d="M346 142C345.47 142 344.961 141.789 344.586 141.414C344.211 141.039 344 140.53 344 140V124C344 123.47 344.211 122.961 344.586 122.586C344.961 122.211 345.47 122 346 122H354C354.317 121.999 354.63 122.062 354.923 122.183C355.215 122.304 355.481 122.482 355.704 122.706L359.292 126.294C359.517 126.518 359.695 126.783 359.817 127.076C359.938 127.369 360.001 127.683 360 128V140C360 140.53 359.789 141.039 359.414 141.414C359.039 141.789 358.53 142 358 142H346Z" stroke="black" stroke-width="2" stroke-linecap="round" stroke-linejoin="round"/>
<path id="Vector_137" d="M354 122V127C354 127.265 354.105 127.52 354.293 127.707C354.48 127.895 354.735 128 355 128H360" stroke="black" stroke-width="2" stroke-linecap="round" stroke-linejoin="round"/>
<path id="Vector_138" d="M349 135L351 137L355 133" stroke="black" stroke-width="2" stroke-linecap="round" stroke-linejoin="round"/>
</g></svg>
