<svg viewBox="0 0 24 24" fill="none" xmlns="http://www.w3.org/2000/svg"><g transform="translate(-340 -184)">
<path id="Vector_233" d="M351.35 206H346C345.47 206 344.961 205.789 344.586 205.414C344.211 205.039 344 204.53 344 204V188C344 187.47 344.211 186.961 344.586 186.586C344.961 186.211 345.47 186 346 186H354C354.317 185.999 354.631 186.061 354.924 186.182C355.216 186.304 355.482 186.482 355.706 186.706L359.294 190.294C359.518 190.518 359.696 190.784 359.818 191.076C359.939 191.369 360.001 191.683 360 192V197.35" stroke="black" stroke-width="2" stroke-linecap="round" stroke-linejoin="round"/>
<path id="Vector_234" d="M354 186V191C354 191.265 354.105 191.52 354.293 191.707C354.48 191.895 354.735 192 355 192H360" stroke="black" stroke-width="2" stroke-linecap="round" stroke-linejoin="round"/>
<path id="Vector_235" d="M354 203H360" stroke="black" stroke-width="2" stroke-linecap="round" stroke-linejoin="round"/>
<path id="Vector_236" d="M357 200V206" stroke="black" stroke-width="2" stroke-linecap="round" stroke-linejoin="round"/>
</g></svg>
