<svg viewBox="0 0 24 24" fill="none" xmlns="http://www.w3.org/2000/svg"><g transform="translate(-212 -152)">
<path id="Vector_175" d="M218 174C217.47 174 216.961 173.789 216.586 173.414C216.211 173.039 216 172.53 216 172V156C216 155.47 216.211 154.961 216.586 154.586C216.961 154.211 217.47 154 218 154H226C226.317 153.999 226.63 154.062 226.923 154.183C227.215 154.304 227.481 154.482 227.704 154.706L231.292 158.294C231.517 158.518 231.695 158.783 231.817 159.076C231.938 159.369 232.001 159.683 232 160V172C232 172.53 231.789 173.039 231.414 173.414C231.039 173.789 230.53 174 230 174H218Z" stroke="black" stroke-width="2" stroke-linecap="round" stroke-linejoin="round"/>
<path id="Vector_176" d="M226 154V159C226 159.265 226.105 159.52 226.293 159.707C226.48 159.895 226.735 160 227 160H232" stroke="black" stroke-width="2" stroke-linecap="round" stroke-linejoin="round"/>
<path id="Vector_177" d="M224 170V164" stroke="black" stroke-width="2" stroke-linecap="round" stroke-linejoin="round"/>
<path id="Vector_178" d="M221 167L224 170L227 167" stroke="black" stroke-width="2" stroke-linecap="round" stroke-linejoin="round"/>
</g></svg>
