<svg viewBox="0 0 24 24" fill="none" xmlns="http://www.w3.org/2000/svg"><g transform="translate(-180 -184)">
<path id="Vector_215" d="M184.226 204.925C184.395 205.249 184.65 205.521 184.963 205.71C185.276 205.9 185.634 206 186 206H198C198.53 206 199.039 205.789 199.414 205.414C199.789 205.039 200 204.53 200 204V192C200.001 191.683 199.939 191.369 199.818 191.076C199.696 190.784 199.518 190.518 199.294 190.294L195.706 186.706C195.482 186.482 195.216 186.304 194.924 186.182C194.631 186.061 194.317 185.999 194 186H186C185.47 186 184.961 186.211 184.586 186.586C184.211 186.961 184 187.47 184 188V191.127" stroke="black" stroke-width="2" stroke-linecap="round" stroke-linejoin="round"/>
<path id="Vector_216" d="M194 186V191C194 191.265 194.105 191.52 194.293 191.707C194.48 191.895 194.735 192 195 192H200" stroke="black" stroke-width="2" stroke-linecap="round" stroke-linejoin="round"/>
<path id="Vector_217" d="M185 195L182 198" stroke="black" stroke-width="2" stroke-linecap="round" stroke-linejoin="round"/>
<path id="Vector_218" d="M185 201L182 198H192" stroke="black" stroke-width="2" stroke-linecap="round" stroke-linejoin="round"/>
</g></svg>
