<svg viewBox="0 0 24 24" fill="none" xmlns="http://www.w3.org/2000/svg"><g transform="translate(-180 -152)">
<path id="Vector_170" d="M184 164V156C184 155.47 184.211 154.961 184.586 154.586C184.961 154.211 185.47 154 186 154H194C194.317 153.999 194.631 154.061 194.924 154.182C195.216 154.304 195.482 154.482 195.706 154.706L199.294 158.294C199.518 158.518 199.696 158.784 199.818 159.076C199.939 159.369 200.001 159.683 200 160V172C200 172.53 199.789 173.039 199.414 173.414C199.039 173.789 198.53 174 198 174" stroke="black" stroke-width="2" stroke-linecap="round" stroke-linejoin="round"/>
<path id="Vector_171" d="M194 154V159C194 159.265 194.105 159.52 194.293 159.707C194.48 159.895 194.735 160 195 160H200" stroke="black" stroke-width="2" stroke-linecap="round" stroke-linejoin="round"/>
<path id="Vector_172" d="M190 168H192V174" stroke="black" stroke-width="2" stroke-linecap="round" stroke-linejoin="round"/>
<path id="Vector_173" d="M190 174H194" stroke="black" stroke-width="2" stroke-linecap="round" stroke-linejoin="round"/>
<path id="Vector_174" d="M186 170C186 168.895 185.105 168 184 168C182.895 168 182 168.895 182 170V172C182 173.105 182.895 174 184 174C185.105 174 186 173.105 186 172V170Z" stroke="black" stroke-width="2" stroke-linecap="round" stroke-linejoin="round"/>
</g></svg>
