<svg viewBox="0 0 24 24" fill="none" xmlns="http://www.w3.org/2000/svg"><g transform="translate(-52 -120)">
<path id="Vector_98" d="M58 142C57.4696 142 56.9609 141.789 56.5858 141.414C56.2107 141.039 56 140.53 56 140V124C56 123.47 56.2107 122.961 56.5858 122.586C56.9609 122.211 57.4696 122 58 122H66C66.3166 121.999 66.6301 122.062 66.9225 122.183C67.215 122.304 67.4806 122.482 67.704 122.706L71.292 126.294C71.5168 126.518 71.6952 126.783 71.8167 127.076C71.9382 127.369 72.0005 127.683 72 128V140C72 140.53 71.7893 141.039 71.4142 141.414C71.0391 141.789 70.5304 142 70 142H58Z" stroke="black" stroke-width="2" stroke-linecap="round" stroke-linejoin="round"/>
<path id="Vector_99" d="M66 122V127C66 127.265 66.1054 127.52 66.2929 127.707C66.4804 127.895 66.7348 128 67 128H72" stroke="black" stroke-width="2" stroke-linecap="round" stroke-linejoin="round"/>
<path id="Vector_100" d="M60 138L64 134" stroke="black" stroke-width="2" stroke-linecap="round" stroke-linejoin="round"/>
<path id="Vector_101" d="M60 130V138H68" stroke="black" stroke-width="2" stroke-linecap="round" stroke-linejoin="round"/>
</g></svg>
