<svg viewBox="0 0 24 24" fill="none" xmlns="http://www.w3.org/2000/svg"><g transform="translate(-20 -120)">
<path id="Vector_92" d="M33.659 142H38C38.5304 142 39.0391 141.789 39.4142 141.414C39.7893 141.039 40 140.53 40 140V128C40.0008 127.683 39.9388 127.369 39.8176 127.076C39.6964 126.784 39.5185 126.518 39.294 126.294L35.706 122.706C35.4823 122.482 35.2164 122.304 34.9236 122.182C34.6308 122.061 34.3169 121.999 34 122H26C25.4696 122 24.9609 122.211 24.5858 122.586C24.2107 122.961 24 123.47 24 124V135.5" stroke="black" stroke-width="2" stroke-linecap="round" stroke-linejoin="round"/>
<path id="Vector_93" d="M34 122V127C34 127.265 34.1054 127.52 34.2929 127.707C34.4804 127.895 34.7348 128 35 128H40" stroke="black" stroke-width="2" stroke-linecap="round" stroke-linejoin="round"/>
<path id="Vector_94" d="M28 132V131" stroke="black" stroke-width="2" stroke-linecap="round" stroke-linejoin="round"/>
<path id="Vector_95" d="M28 138V136" stroke="black" stroke-width="2" stroke-linecap="round" stroke-linejoin="round"/>
<path id="Vector_96" d="M28 127V126" stroke="black" stroke-width="2" stroke-linecap="round" stroke-linejoin="round"/>
<path id="Vector_97" d="M28 142C29.1046 142 30 141.105 30 140C30 138.895 29.1046 138 28 138C26.8954 138 26 138.895 26 140C26 141.105 26.8954 142 28 142Z" stroke="black" stroke-width="2" stroke-linecap="round" stroke-linejoin="round"/>
</g></svg>
