<svg viewBox="0 0 24 24" fill="none" xmlns="http://www.w3.org/2000/svg"><g transform="translate(-372 -184)">
<path id="Vector_237" d="M378 206C377.47 206 376.961 205.789 376.586 205.414C376.211 205.039 376 204.53 376 204V188C376 187.47 376.211 186.961 376.586 186.586C376.961 186.211 377.47 186 378 186H386C386.317 185.999 386.63 186.062 386.923 186.183C387.215 186.304 387.481 186.482 387.704 186.706L391.292 190.294C391.517 190.518 391.695 190.783 391.817 191.076C391.938 191.369 392.001 191.683 392 192V204C392 204.53 391.789 205.039 391.414 205.414C391.039 205.789 390.53 206 390 206H378Z" stroke="black" stroke-width="2" stroke-linecap="round" stroke-linejoin="round"/>
<path id="Vector_238" d="M384 201H384.01" stroke="black" stroke-width="2" stroke-linecap="round" stroke-linejoin="round"/>
<path id="Vector_239" d="M381.1 193C381.34 192.339 381.804 191.783 382.413 191.429C383.021 191.076 383.734 190.948 384.428 191.067C385.121 191.186 385.751 191.545 386.206 192.081C386.662 192.617 386.914 193.297 386.92 194C386.92 196 383.92 197 383.92 197" stroke="black" stroke-width="2" stroke-linecap="round" stroke-linejoin="round"/>
</g></svg>
