<svg viewBox="0 0 24 24" fill="none" xmlns="http://www.w3.org/2000/svg"><g transform="translate(-212 -184)">
<path id="Vector_219" d="M224.659 206H230C230.53 206 231.039 205.789 231.414 205.414C231.789 205.039 232 204.53 232 204V192C232.001 191.683 231.939 191.369 231.818 191.076C231.696 190.784 231.518 190.518 231.294 190.294L227.706 186.706C227.482 186.482 227.216 186.304 226.924 186.182C226.631 186.061 226.317 185.999 226 186H218C217.47 186 216.961 186.211 216.586 186.586C216.211 186.961 216 187.47 216 188V197.34" stroke="black" stroke-width="2" stroke-linecap="round" stroke-linejoin="round"/>
<path id="Vector_220" d="M226 186V191C226 191.265 226.105 191.52 226.293 191.707C226.48 191.895 226.735 192 227 192H232" stroke="black" stroke-width="2" stroke-linecap="round" stroke-linejoin="round"/>
<path id="Vector_221" d="M222.378 196.622C222.776 196.224 223.316 196.001 223.879 196.001C224.442 196.001 224.982 196.225 225.38 196.623C225.777 197.022 226.001 197.562 226 198.125C226 198.687 225.776 199.227 225.378 199.625L220.36 204.637C220.122 204.875 219.829 205.049 219.506 205.143L216.639 205.98C216.553 206.005 216.462 206.007 216.375 205.984C216.288 205.962 216.209 205.917 216.145 205.854C216.082 205.79 216.037 205.711 216.015 205.624C215.992 205.537 215.994 205.446 216.019 205.36L216.855 202.491C216.949 202.169 217.123 201.875 217.361 201.638L222.378 196.622Z" stroke="black" stroke-width="2" stroke-linecap="round" stroke-linejoin="round"/>
</g></svg>
