<svg viewBox="0 0 24 24" fill="none" xmlns="http://www.w3.org/2000/svg"><g transform="translate(-84 -248)">
<path id="Vector_303" d="M90 270C89.4696 270 88.9609 269.789 88.5858 269.414C88.2107 269.039 88 268.53 88 268V252C88 251.47 88.2107 250.961 88.5858 250.586C88.9609 250.211 89.4696 250 90 250H98C98.3166 249.999 98.6301 250.062 98.9225 250.183C99.215 250.304 99.4806 250.482 99.704 250.706L103.292 254.294C103.517 254.518 103.695 254.783 103.817 255.076C103.938 255.369 104.001 255.683 104 256V268C104 268.53 103.789 269.039 103.414 269.414C103.039 269.789 102.53 270 102 270H90Z" stroke="black" stroke-width="2" stroke-linecap="round" stroke-linejoin="round"/>
<path id="Vector_304" d="M98 250V255C98 255.265 98.1054 255.52 98.2929 255.707C98.4804 255.895 98.7348 256 99 256H104" stroke="black" stroke-width="2" stroke-linecap="round" stroke-linejoin="round"/>
<path id="Vector_305" d="M100 270C100 268.939 99.5786 267.922 98.8284 267.172C98.0783 266.421 97.0609 266 96 266C94.9391 266 93.9217 266.421 93.1716 267.172C92.4214 267.922 92 268.939 92 270" stroke="black" stroke-width="2" stroke-linecap="round" stroke-linejoin="round"/>
<path id="Vector_306" d="M96 266C97.6569 266 99 264.657 99 263C99 261.343 97.6569 260 96 260C94.3431 260 93 261.343 93 263C93 264.657 94.3431 266 96 266Z" stroke="black" stroke-width="2" stroke-linecap="round" stroke-linejoin="round"/>
</g></svg>
