<svg viewBox="0 0 24 24" fill="none" xmlns="http://www.w3.org/2000/svg"><g transform="translate(-244 -184)">
<path id="Vector_222" d="M258.364 197.634C258.126 197.872 257.952 198.165 257.858 198.488L257.021 201.358C256.996 201.444 256.994 201.535 257.017 201.622C257.039 201.709 257.084 201.788 257.147 201.852C257.211 201.915 257.29 201.96 257.377 201.982C257.464 202.005 257.555 202.003 257.641 201.978L260.511 201.141C260.834 201.047 261.127 200.873 261.365 200.635L265.378 196.626C265.776 196.228 266 195.687 266 195.124C266 194.561 265.776 194.02 265.378 193.622C264.98 193.224 264.439 193 263.876 193C263.313 193 262.772 193.224 262.374 193.622L258.364 197.634Z" stroke="black" stroke-width="2" stroke-linecap="round" stroke-linejoin="round"/>
<path id="Vector_223" d="M258.487 191.858C258.339 191.769 258.216 191.644 258.13 191.493C258.045 191.343 258 191.173 258 191V186" stroke="black" stroke-width="2" stroke-linecap="round" stroke-linejoin="round"/>
<path id="Vector_224" d="M264 203.645V204C264 204.53 263.789 205.039 263.414 205.414C263.039 205.789 262.53 206 262 206H250C249.47 206 248.961 205.789 248.586 205.414C248.211 205.039 248 204.53 248 204V188C248 187.47 248.211 186.961 248.586 186.586C248.961 186.211 249.47 186 250 186H258C258.317 185.999 258.63 186.062 258.923 186.183C259.215 186.304 259.481 186.482 259.704 186.706L262.22 189.222" stroke="black" stroke-width="2" stroke-linecap="round" stroke-linejoin="round"/>
<path id="Vector_225" d="M252 202H253" stroke="black" stroke-width="2" stroke-linecap="round" stroke-linejoin="round"/>
</g></svg>
