<svg viewBox="0 0 24 24" fill="none" xmlns="http://www.w3.org/2000/svg"><g transform="translate(-276 -216)">
<path id="Vector_277" d="M280 227V220C280 219.47 280.211 218.961 280.586 218.586C280.961 218.211 281.47 218 282 218H290C290.317 217.999 290.631 218.061 290.924 218.182C291.216 218.304 291.482 218.482 291.706 218.706L295.294 222.294C295.518 222.518 295.696 222.784 295.818 223.076C295.939 223.369 296.001 223.683 296 224V236C296 236.53 295.789 237.039 295.414 237.414C295.039 237.789 294.53 238 294 238H282C281.47 238 280.961 237.789 280.586 237.414C280.211 237.039 280 236.53 280 236V233C280 232.47 280.211 231.961 280.586 231.586C280.961 231.211 281.47 231 282 231H289" stroke="black" stroke-width="2" stroke-linecap="round" stroke-linejoin="round"/>
<path id="Vector_278" d="M290 218V223C290 223.265 290.105 223.52 290.293 223.707C290.48 223.895 290.735 224 291 224H296" stroke="black" stroke-width="2" stroke-linecap="round" stroke-linejoin="round"/>
<path id="Vector_279" d="M286 234L289 231L286 228" stroke="black" stroke-width="2" stroke-linecap="round" stroke-linejoin="round"/>
</g></svg>
