<svg viewBox="0 0 24 24" fill="none" xmlns="http://www.w3.org/2000/svg"><g transform="translate(-52 -216)">
<path id="Vector_243" d="M72 226V224C72.0005 223.683 71.9384 223.37 71.8172 223.077C71.6961 222.785 71.5182 222.519 71.294 222.296L67.706 218.708C67.4825 218.483 67.2167 218.305 66.9238 218.183C66.631 218.062 66.317 217.999 66 218H58C57.4696 218 56.9609 218.211 56.5858 218.586C56.2107 218.961 56 219.47 56 220V236C56 236.53 56.2107 237.039 56.5858 237.414C56.9609 237.789 57.4696 238 58 238H62.35" stroke="black" stroke-width="2" stroke-linecap="round" stroke-linejoin="round"/>
<path id="Vector_244" d="M66 218V223C66 223.265 66.1054 223.52 66.2929 223.707C66.4804 223.895 66.7348 224 67 224H72" stroke="black" stroke-width="2" stroke-linecap="round" stroke-linejoin="round"/>
<path id="Vector_245" d="M68 230C67.4696 230 66.9609 230.211 66.5858 230.586C66.2107 230.961 66 231.47 66 232" stroke="black" stroke-width="2" stroke-linecap="round" stroke-linejoin="round"/>
<path id="Vector_246" d="M68 238C67.4696 238 66.9609 237.789 66.5858 237.414C66.2107 237.039 66 236.53 66 236" stroke="black" stroke-width="2" stroke-linecap="round" stroke-linejoin="round"/>
<path id="Vector_247" d="M72 230C72.5304 230 73.0391 230.211 73.4142 230.586C73.7893 230.961 74 231.47 74 232" stroke="black" stroke-width="2" stroke-linecap="round" stroke-linejoin="round"/>
<path id="Vector_248" d="M72 238C72.5304 238 73.0391 237.789 73.4142 237.414C73.7893 237.039 74 236.53 74 236" stroke="black" stroke-width="2" stroke-linecap="round" stroke-linejoin="round"/>
</g></svg>
