<svg viewBox="0 0 24 24" fill="none" xmlns="http://www.w3.org/2000/svg"><g transform="translate(-244 -120)">
<path id="Vector_124" d="M250 142C249.47 142 248.961 141.789 248.586 141.414C248.211 141.039 248 140.53 248 140V124C248 123.47 248.211 122.961 248.586 122.586C248.961 122.211 249.47 122 250 122H258C258.317 121.999 258.63 122.062 258.923 122.183C259.215 122.304 259.481 122.482 259.704 122.706L263.292 126.294C263.517 126.518 263.695 126.783 263.817 127.076C263.938 127.369 264.001 127.683 264 128V140C264 140.53 263.789 141.039 263.414 141.414C263.039 141.789 262.53 142 262 142H250Z" stroke="black" stroke-width="2" stroke-linecap="round" stroke-linejoin="round"/>
<path id="Vector_125" d="M258 122V127C258 127.265 258.105 127.52 258.293 127.707C258.48 127.895 258.735 128 259 128H264" stroke="black" stroke-width="2" stroke-linecap="round" stroke-linejoin="round"/>
<path id="Vector_126" d="M252 138V136" stroke="black" stroke-width="2" stroke-linecap="round" stroke-linejoin="round"/>
<path id="Vector_127" d="M256 138V134" stroke="black" stroke-width="2" stroke-linecap="round" stroke-linejoin="round"/>
<path id="Vector_128" d="M260 138V132" stroke="black" stroke-width="2" stroke-linecap="round" stroke-linejoin="round"/>
</g></svg>
