<svg viewBox="0 0 24 24" fill="none" xmlns="http://www.w3.org/2000/svg"><g transform="translate(-20 -248)">
<path id="Vector_294" d="M32 270H38C38.5304 270 39.0391 269.789 39.4142 269.414C39.7893 269.039 40 268.53 40 268V256C40.0008 255.683 39.9388 255.369 39.8176 255.076C39.6964 254.784 39.5185 254.518 39.294 254.294L35.706 250.706C35.4823 250.482 35.2164 250.304 34.9236 250.182C34.6308 250.061 34.3169 249.999 34 250H26C25.4696 250 24.9609 250.211 24.5858 250.586C24.2107 250.961 24 251.47 24 252V258" stroke="black" stroke-width="2" stroke-linecap="round" stroke-linejoin="round"/>
<path id="Vector_295" d="M34 250V255C34 255.265 34.1054 255.52 34.2929 255.707C34.4804 255.895 34.7348 256 35 256H40" stroke="black" stroke-width="2" stroke-linecap="round" stroke-linejoin="round"/>
<path id="Vector_296" d="M23 264V262.5C23 262.367 23.0527 262.24 23.1464 262.146C23.2402 262.053 23.3674 262 23.5 262H30.5C30.6326 262 30.7598 262.053 30.8536 262.146C30.9473 262.24 31 262.367 31 262.5V264" stroke="black" stroke-width="2" stroke-linecap="round" stroke-linejoin="round"/>
<path id="Vector_297" d="M26 270H28" stroke="black" stroke-width="2" stroke-linecap="round" stroke-linejoin="round"/>
<path id="Vector_298" d="M27 262V270" stroke="black" stroke-width="2" stroke-linecap="round" stroke-linejoin="round"/>
</g></svg>
