<svg viewBox="0 0 24 24" fill="none" xmlns="http://www.w3.org/2000/svg"><g transform="translate(-244 -56)">
<path id="Vector_39" d="M250 78C249.47 78 248.961 77.7893 248.586 77.4142C248.211 77.0391 248 76.5304 248 76V60C248 59.4696 248.211 58.9609 248.586 58.5858C248.961 58.2107 249.47 58 250 58H258C258.317 57.9995 258.63 58.0616 258.923 58.1828C259.215 58.3039 259.481 58.4818 259.704 58.706L263.292 62.294C263.517 62.5175 263.695 62.7833 263.817 63.0762C263.938 63.369 264.001 63.683 264 64V76C264 76.5304 263.789 77.0391 263.414 77.4142C263.039 77.7893 262.53 78 262 78H250Z" stroke="black" stroke-width="2" stroke-linecap="round" stroke-linejoin="round"/>
<path id="Vector_40" d="M258 58V63C258 63.2652 258.105 63.5196 258.293 63.7071C258.48 63.8946 258.735 64 259 64H264" stroke="black" stroke-width="2" stroke-linecap="round" stroke-linejoin="round"/>
</g></svg>
