<svg viewBox="0 0 24 24" fill="none" xmlns="http://www.w3.org/2000/svg"><g transform="translate(-372 -120)">
<path id="Vector_139" d="M382.5 142H378C377.47 142 376.961 141.789 376.586 141.414C376.211 141.039 376 140.53 376 140V124C376 123.47 376.211 122.961 376.586 122.586C376.961 122.211 377.47 122 378 122H386C386.317 121.999 386.631 122.061 386.924 122.182C387.216 122.304 387.482 122.482 387.706 122.706L391.294 126.294C391.518 126.518 391.696 126.784 391.818 127.076C391.939 127.369 392.001 127.683 392 128V134" stroke="black" stroke-width="2" stroke-linecap="round" stroke-linejoin="round"/>
<path id="Vector_140" d="M386 122V127C386 127.265 386.105 127.52 386.293 127.707C386.48 127.895 386.735 128 387 128H392" stroke="black" stroke-width="2" stroke-linecap="round" stroke-linejoin="round"/>
<path id="Vector_141" d="M386 140L388 142L392 138" stroke="black" stroke-width="2" stroke-linecap="round" stroke-linejoin="round"/>
</g></svg>
