<svg viewBox="0 0 24 24" fill="none" xmlns="http://www.w3.org/2000/svg"><g transform="translate(-52 -184)">
<path id="Vector_201" d="M56 193.8V188C56 187.47 56.2107 186.961 56.5858 186.586C56.9609 186.211 57.4696 186 58 186H66C66.3169 185.999 66.6308 186.061 66.9236 186.182C67.2164 186.304 67.4823 186.482 67.706 186.706L71.294 190.294C71.5185 190.518 71.6964 190.784 71.8176 191.076C71.9388 191.369 72.0008 191.683 72 192V204C72 204.53 71.7893 205.039 71.4142 205.414C71.0391 205.789 70.5304 206 70 206H67" stroke="black" stroke-width="2" stroke-linecap="round" stroke-linejoin="round"/>
<path id="Vector_202" d="M66 186V191C66 191.265 66.1054 191.52 66.2929 191.707C66.4804 191.895 66.7348 192 67 192H72" stroke="black" stroke-width="2" stroke-linecap="round" stroke-linejoin="round"/>
<path id="Vector_203" d="M61 201V199C61 198.47 60.7893 197.961 60.4142 197.586C60.0391 197.211 59.5304 197 59 197C58.4696 197 57.9609 197.211 57.5858 197.586C57.2107 197.961 57 198.47 57 199V201" stroke="black" stroke-width="2" stroke-linecap="round" stroke-linejoin="round"/>
<path id="Vector_204" d="M62 201H56C55.4477 201 55 201.448 55 202V205C55 205.552 55.4477 206 56 206H62C62.5523 206 63 205.552 63 205V202C63 201.448 62.5523 201 62 201Z" stroke="black" stroke-width="2" stroke-linecap="round" stroke-linejoin="round"/>
</g></svg>
