<svg viewBox="0 0 24 24" fill="none" xmlns="http://www.w3.org/2000/svg"><g transform="translate(-116 -120)">
<path id="Vector_106" d="M130.5 142H134C134.53 142 135.039 141.789 135.414 141.414C135.789 141.039 136 140.53 136 140V128C136.001 127.683 135.939 127.369 135.818 127.076C135.696 126.784 135.518 126.518 135.294 126.294L131.706 122.706C131.482 122.482 131.216 122.304 130.924 122.182C130.631 122.061 130.317 121.999 130 122H122C121.47 122 120.961 122.211 120.586 122.586C120.211 122.961 120 123.47 120 124V127.8" stroke="black" stroke-width="2" stroke-linecap="round" stroke-linejoin="round"/>
<path id="Vector_107" d="M130 122V127C130 127.265 130.105 127.52 130.293 127.707C130.48 127.895 130.735 128 131 128H136" stroke="black" stroke-width="2" stroke-linecap="round" stroke-linejoin="round"/>
<path id="Vector_108" d="M127.7 134.2L123 137L118.3 134.2" stroke="black" stroke-width="2" stroke-linecap="round" stroke-linejoin="round"/>
<path id="Vector_109" d="M119 133.1C118.692 133.278 118.437 133.535 118.262 133.844C118.086 134.154 117.996 134.504 118.001 134.86V138.1C117.989 138.456 118.073 138.809 118.243 139.122C118.414 139.435 118.665 139.697 118.97 139.88L122 141.7C122.307 141.883 122.657 141.98 123.014 141.982C123.371 141.983 123.722 141.89 124.03 141.71L127 139.9C127.308 139.722 127.563 139.465 127.739 139.156C127.915 138.847 128.005 138.496 128 138.14V134.9C128.012 134.544 127.928 134.191 127.757 133.878C127.587 133.565 127.336 133.303 127.03 133.12L124 131.3C123.693 131.117 123.343 131.02 122.986 131.018C122.629 131.017 122.279 131.11 121.97 131.29L119 133.1Z" stroke="black" stroke-width="2" stroke-linecap="round" stroke-linejoin="round"/>
<path id="Vector_110" d="M123 137V142" stroke="black" stroke-width="2" stroke-linecap="round" stroke-linejoin="round"/>
</g></svg>
