<svg viewBox="0 0 24 24" fill="none" xmlns="http://www.w3.org/2000/svg"><g transform="translate(-116 -248)">
<path id="Vector_307" d="M120 260V252C120 251.47 120.211 250.961 120.586 250.586C120.961 250.211 121.47 250 122 250H130C130.317 249.999 130.631 250.061 130.924 250.182C131.216 250.304 131.482 250.482 131.706 250.706L135.294 254.294C135.518 254.518 135.696 254.784 135.818 255.076C135.939 255.369 136.001 255.683 136 256V268C136 268.53 135.789 269.039 135.414 269.414C135.039 269.789 134.53 270 134 270" stroke="black" stroke-width="2" stroke-linecap="round" stroke-linejoin="round"/>
<path id="Vector_308" d="M130 250V255C130 255.265 130.105 255.52 130.293 255.707C130.48 255.895 130.735 256 131 256H136" stroke="black" stroke-width="2" stroke-linecap="round" stroke-linejoin="round"/>
<path id="Vector_309" d="M126 265.843L129.033 264.088C129.131 264.03 129.243 263.999 129.356 263.998C129.47 263.998 129.582 264.027 129.681 264.084C129.779 264.141 129.861 264.224 129.917 264.323C129.973 264.422 130.002 264.534 130 264.648V269.352C129.999 269.465 129.968 269.575 129.911 269.672C129.854 269.77 129.773 269.851 129.676 269.907C129.578 269.964 129.468 269.994 129.355 269.995C129.242 269.995 129.131 269.967 129.033 269.912L126 268.157" stroke="black" stroke-width="2" stroke-linecap="round" stroke-linejoin="round"/>
<path id="Vector_310" d="M125 264H120C119.448 264 119 264.448 119 265V269C119 269.552 119.448 270 120 270H125C125.552 270 126 269.552 126 269V265C126 264.448 125.552 264 125 264Z" stroke="black" stroke-width="2" stroke-linecap="round" stroke-linejoin="round"/>
</g></svg>
