<svg viewBox="0 0 24 24" fill="none" xmlns="http://www.w3.org/2000/svg"><g transform="translate(-84 -184)">
<path id="Vector_205" d="M90 206C89.4696 206 88.9609 205.789 88.5858 205.414C88.2107 205.039 88 204.53 88 204V188C88 187.47 88.2107 186.961 88.5858 186.586C88.9609 186.211 89.4696 186 90 186H98C98.3166 185.999 98.6301 186.062 98.9225 186.183C99.215 186.304 99.4806 186.482 99.704 186.706L103.292 190.294C103.517 190.518 103.695 190.783 103.817 191.076C103.938 191.369 104.001 191.683 104 192V204C104 204.53 103.789 205.039 103.414 205.414C103.039 205.789 102.53 206 102 206H90Z" stroke="black" stroke-width="2" stroke-linecap="round" stroke-linejoin="round"/>
<path id="Vector_206" d="M98 186V191C98 191.265 98.1054 191.52 98.2929 191.707C98.4804 191.895 98.7348 192 99 192H104" stroke="black" stroke-width="2" stroke-linecap="round" stroke-linejoin="round"/>
<path id="Vector_207" d="M93 199H99" stroke="black" stroke-width="2" stroke-linecap="round" stroke-linejoin="round"/>
</g></svg>
