<svg viewBox="0 0 24 24" fill="none" xmlns="http://www.w3.org/2000/svg"><g transform="translate(-276 -152)">
<path id="Vector_182" d="M280 158.835V156C280 155.47 280.211 154.961 280.586 154.586C280.961 154.211 281.47 154 282 154H290C290.317 153.999 290.631 154.061 290.924 154.182C291.216 154.304 291.482 154.482 291.706 154.706L295.294 158.294C295.518 158.518 295.696 158.784 295.818 159.076C295.939 159.369 296.001 159.683 296 160V172C296 172.53 295.789 173.039 295.414 173.414C295.039 173.789 294.53 174 294 174H293.657" stroke="black" stroke-width="2" stroke-linecap="round" stroke-linejoin="round"/>
<path id="Vector_183" d="M290 154V159C290 159.265 290.105 159.52 290.293 159.707C290.48 159.895 290.735 160 291 160H296" stroke="black" stroke-width="2" stroke-linecap="round" stroke-linejoin="round"/>
<path id="Vector_184" d="M278 171C278 170.47 278.211 169.961 278.586 169.586C278.961 169.211 279.47 169 280 169C280.53 169 281.039 169.211 281.414 169.586C281.789 169.961 282 170.47 282 171V172C282 172.53 281.789 173.039 281.414 173.414C281.039 173.789 280.53 174 280 174C279.47 174 278.961 173.789 278.586 173.414C278.211 173.039 278 172.53 278 172V168C278 166.409 278.632 164.883 279.757 163.757C280.883 162.632 282.409 162 284 162C285.591 162 287.117 162.632 288.243 163.757C289.368 164.883 290 166.409 290 168V172C290 172.53 289.789 173.039 289.414 173.414C289.039 173.789 288.53 174 288 174C287.47 174 286.961 173.789 286.586 173.414C286.211 173.039 286 172.53 286 172V171C286 170.47 286.211 169.961 286.586 169.586C286.961 169.211 287.47 169 288 169C288.53 169 289.039 169.211 289.414 169.586C289.789 169.961 290 170.47 290 171" stroke="black" stroke-width="2" stroke-linecap="round" stroke-linejoin="round"/>
</g></svg>
