<svg viewBox="0 0 24 24" fill="none" xmlns="http://www.w3.org/2000/svg"><g transform="translate(-20 -152)">
<path id="Vector_142" d="M36 174H38C38.5304 174 39.0391 173.789 39.4142 173.414C39.7893 173.039 40 172.53 40 172V160C40.0008 159.683 39.9388 159.369 39.8176 159.076C39.6964 158.784 39.5185 158.518 39.294 158.294L35.706 154.706C35.4823 154.482 35.2164 154.304 34.9236 154.182C34.6308 154.061 34.3169 153.999 34 154H26C25.4696 154 24.9609 154.211 24.5858 154.586C24.2107 154.961 24 155.47 24 156V158.85" stroke="black" stroke-width="2" stroke-linecap="round" stroke-linejoin="round"/>
<path id="Vector_143" d="M34 154V159C34 159.265 34.1054 159.52 34.2929 159.707C34.4804 159.895 34.7348 160 35 160H40" stroke="black" stroke-width="2" stroke-linecap="round" stroke-linejoin="round"/>
<path id="Vector_144" d="M28 166V168.2L29.6 169.2" stroke="black" stroke-width="2" stroke-linecap="round" stroke-linejoin="round"/>
<path id="Vector_145" d="M28 174C31.3137 174 34 171.314 34 168C34 164.686 31.3137 162 28 162C24.6863 162 22 164.686 22 168C22 171.314 24.6863 174 28 174Z" stroke="black" stroke-width="2" stroke-linecap="round" stroke-linejoin="round"/>
</g></svg>
