<svg viewBox="0 0 24 24" fill="none" xmlns="http://www.w3.org/2000/svg"><g transform="translate(-148 -184)">
<path id="Vector_211" d="M159.65 206H166C166.53 206 167.039 205.789 167.414 205.414C167.789 205.039 168 204.53 168 204V192C168.001 191.683 167.939 191.369 167.818 191.076C167.696 190.784 167.518 190.518 167.294 190.294L163.706 186.706C163.482 186.482 163.216 186.304 162.924 186.182C162.631 186.061 162.317 185.999 162 186H154C153.47 186 152.961 186.211 152.586 186.586C152.211 186.961 152 187.47 152 188V198.35" stroke="black" stroke-width="2" stroke-linecap="round" stroke-linejoin="round"/>
<path id="Vector_212" d="M162 186V191C162 191.265 162.105 191.52 162.293 191.707C162.48 191.895 162.735 192 163 192H168" stroke="black" stroke-width="2" stroke-linecap="round" stroke-linejoin="round"/>
<path id="Vector_213" d="M156 204V197L159 198.474" stroke="black" stroke-width="2" stroke-linecap="round" stroke-linejoin="round"/>
<path id="Vector_214" d="M154 206C155.105 206 156 205.105 156 204C156 202.895 155.105 202 154 202C152.895 202 152 202.895 152 204C152 205.105 152.895 206 154 206Z" stroke="black" stroke-width="2" stroke-linecap="round" stroke-linejoin="round"/>
</g></svg>
