<svg viewBox="0 0 24 24" fill="none" xmlns="http://www.w3.org/2000/svg"><g transform="translate(-276 -184)">
<path id="Vector_226" d="M282 206C281.47 206 280.961 205.789 280.586 205.414C280.211 205.039 280 204.53 280 204V188C280 187.47 280.211 186.961 280.586 186.586C280.961 186.211 281.47 186 282 186H290C290.317 185.999 290.63 186.062 290.923 186.183C291.215 186.304 291.481 186.482 291.704 186.706L295.292 190.294C295.517 190.518 295.695 190.783 295.817 191.076C295.938 191.369 296.001 191.683 296 192V204C296 204.53 295.789 205.039 295.414 205.414C295.039 205.789 294.53 206 294 206H282Z" stroke="black" stroke-width="2" stroke-linecap="round" stroke-linejoin="round"/>
<path id="Vector_227" d="M290 186V191C290 191.265 290.105 191.52 290.293 191.707C290.48 191.895 290.735 192 291 192H296" stroke="black" stroke-width="2" stroke-linecap="round" stroke-linejoin="round"/>
<path id="Vector_228" d="M291.033 197.44C291.131 197.497 291.213 197.578 291.269 197.677C291.326 197.775 291.356 197.886 291.356 198C291.356 198.113 291.326 198.225 291.269 198.323C291.213 198.421 291.131 198.503 291.033 198.56L286.968 200.912C286.87 200.969 286.758 200.999 286.645 200.999C286.532 200.999 286.42 200.969 286.322 200.912C286.224 200.855 286.142 200.773 286.086 200.675C286.029 200.577 286 200.465 286 200.352V195.648C286 195.535 286.029 195.423 286.086 195.325C286.142 195.227 286.224 195.145 286.322 195.089C286.42 195.032 286.531 195.002 286.644 195.002C286.758 195.002 286.869 195.031 286.967 195.088L291.033 197.44Z" stroke="black" stroke-width="2" stroke-linecap="round" stroke-linejoin="round"/>
</g></svg>
