<svg viewBox="0 0 24 24" fill="none" xmlns="http://www.w3.org/2000/svg"><g transform="translate(-20 -216)">
<path id="Vector_240" d="M35 218H31C30.4696 218 29.9609 218.211 29.5858 218.586C29.2107 218.961 29 219.47 29 220V231C29 231.53 29.2107 232.039 29.5858 232.414C29.9609 232.789 30.4696 233 31 233H39C39.5304 233 40.0391 232.789 40.4142 232.414C40.7893 232.039 41 231.53 41 231V224" stroke="black" stroke-width="2" stroke-linecap="round" stroke-linejoin="round"/>
<path id="Vector_241" d="M36.706 218.706C36.4823 218.482 36.2164 218.304 35.9236 218.182C35.6308 218.061 35.3169 217.999 35 218V223C35 223.265 35.1054 223.52 35.2929 223.707C35.4804 223.895 35.7348 224 36 224H41C41.0008 223.683 40.9388 223.369 40.8176 223.076C40.6964 222.784 40.5185 222.518 40.294 222.294L36.706 218.706Z" stroke="black" stroke-width="2" stroke-linecap="round" stroke-linejoin="round"/>
<path id="Vector_242" d="M25 223C24.4696 223 23.9609 223.211 23.5858 223.586C23.2107 223.961 23 224.47 23 225V236C23 236.53 23.2107 237.039 23.5858 237.414C23.9609 237.789 24.4696 238 25 238H33C33.3511 238 33.6959 237.908 34 237.732C34.304 237.557 34.5565 237.304 34.732 237" stroke="black" stroke-width="2" stroke-linecap="round" stroke-linejoin="round"/>
</g></svg>
