<svg viewBox="0 0 24 24" fill="none" xmlns="http://www.w3.org/2000/svg"><g transform="translate(-372 -152)">
<path id="Vector_192" d="M376 163V156C376 155.47 376.211 154.961 376.586 154.586C376.961 154.211 377.47 154 378 154H386C386.317 153.999 386.631 154.061 386.924 154.182C387.216 154.304 387.482 154.482 387.706 154.706L391.294 158.294C391.518 158.518 391.696 158.784 391.818 159.076C391.939 159.369 392.001 159.683 392 160V172C392 172.53 391.789 173.039 391.414 173.414C391.039 173.789 390.53 174 390 174H378C377.47 174 376.961 173.789 376.586 173.414C376.211 173.039 376 172.53 376 172V171" stroke="black" stroke-width="2" stroke-linecap="round" stroke-linejoin="round"/>
<path id="Vector_193" d="M386 154V159C386 159.265 386.105 159.52 386.293 159.707C386.48 159.895 386.735 160 387 160H392" stroke="black" stroke-width="2" stroke-linecap="round" stroke-linejoin="round"/>
<path id="Vector_194" d="M374 167H384" stroke="black" stroke-width="2" stroke-linecap="round" stroke-linejoin="round"/>
<path id="Vector_195" d="M381 170L384 167L381 164" stroke="black" stroke-width="2" stroke-linecap="round" stroke-linejoin="round"/>
</g></svg>
