<svg viewBox="0 0 24 24" fill="none" xmlns="http://www.w3.org/2000/svg"><g transform="translate(-148 -248)">
<path id="Vector_311" d="M152 259.55V252C152 251.47 152.211 250.961 152.586 250.586C152.961 250.211 153.47 250 154 250H162C162.317 249.999 162.631 250.061 162.924 250.182C163.216 250.304 163.482 250.482 163.706 250.706L167.294 254.294C167.518 254.518 167.696 254.784 167.818 255.076C167.939 255.369 168.001 255.683 168 256V268C168 268.53 167.789 269.039 167.414 269.414C167.039 269.789 166.53 270 166 270H164.05" stroke="black" stroke-width="2" stroke-linecap="round" stroke-linejoin="round"/>
<path id="Vector_312" d="M162 250V255C162 255.265 162.105 255.52 162.293 255.707C162.48 255.895 162.735 256 163 256H168" stroke="black" stroke-width="2" stroke-linecap="round" stroke-linejoin="round"/>
<path id="Vector_313" d="M160 263C160.649 263.865 161 264.918 161 266C161 267.082 160.649 268.135 160 269" stroke="black" stroke-width="2" stroke-linecap="round" stroke-linejoin="round"/>
<path id="Vector_314" d="M156 262.502C156 262.406 155.973 262.312 155.922 262.231C155.87 262.151 155.796 262.086 155.709 262.046C155.622 262.006 155.526 261.992 155.431 262.005C155.336 262.018 155.247 262.059 155.174 262.121L153.281 263.752C153.1 263.908 152.869 263.994 152.63 263.995H151.5C151.434 263.995 151.369 264.008 151.308 264.033C151.248 264.058 151.193 264.095 151.146 264.142C151.1 264.188 151.063 264.244 151.038 264.304C151.013 264.365 151 264.43 151 264.496V267.502C151 267.568 151.013 267.633 151.038 267.694C151.063 267.754 151.1 267.81 151.146 267.856C151.193 267.903 151.248 267.94 151.308 267.965C151.369 267.99 151.434 268.003 151.5 268.003H152.629C152.868 268.003 153.1 268.09 153.281 268.246L155.174 269.879C155.247 269.941 155.336 269.982 155.43 269.995C155.525 270.008 155.622 269.994 155.709 269.954C155.796 269.914 155.87 269.85 155.921 269.769C155.973 269.689 156 269.595 156 269.499V262.502Z" stroke="black" stroke-width="2" stroke-linecap="round" stroke-linejoin="round"/>
</g></svg>
