<svg viewBox="0 0 24 24" fill="none" xmlns="http://www.w3.org/2000/svg"><g transform="translate(-116 -216)">
<path id="Vector_253" d="M127.1 238H122C121.47 238 120.961 237.789 120.586 237.414C120.211 237.039 120 236.53 120 236V220C120 219.47 120.211 218.961 120.586 218.586C120.961 218.211 121.47 218 122 218H130C130.317 217.999 130.631 218.061 130.924 218.182C131.216 218.304 131.482 218.482 131.706 218.706L135.295 222.294C135.519 222.518 135.697 222.784 135.818 223.077C135.939 223.369 136.001 223.683 136 224V227.25" stroke="black" stroke-width="2" stroke-linecap="round" stroke-linejoin="round"/>
<path id="Vector_254" d="M130 218V223C130 223.265 130.105 223.52 130.293 223.707C130.48 223.895 130.735 224 131 224H136" stroke="black" stroke-width="2" stroke-linecap="round" stroke-linejoin="round"/>
<path id="Vector_255" d="M137 238L134.12 235.12" stroke="black" stroke-width="2" stroke-linecap="round" stroke-linejoin="round"/>
<path id="Vector_256" d="M132 236C133.657 236 135 234.657 135 233C135 231.343 133.657 230 132 230C130.343 230 129 231.343 129 233C129 234.657 130.343 236 132 236Z" stroke="black" stroke-width="2" stroke-linecap="round" stroke-linejoin="round"/>
</g></svg>
