<svg viewBox="0 0 24 24" fill="none" xmlns="http://www.w3.org/2000/svg"><g transform="translate(-244 -152)">
<path id="Vector_179" d="M250 174C249.47 174 248.961 173.789 248.586 173.414C248.211 173.039 248 172.53 248 172V156C248 155.47 248.211 154.961 248.586 154.586C248.961 154.211 249.47 154 250 154H258C258.317 153.999 258.63 154.062 258.923 154.183C259.215 154.304 259.481 154.482 259.704 154.706L263.292 158.294C263.517 158.518 263.695 158.783 263.817 159.076C263.938 159.369 264.001 159.683 264 160V172C264 172.53 263.789 173.039 263.414 173.414C263.039 173.789 262.53 174 262 174H250Z" stroke="black" stroke-width="2" stroke-linecap="round" stroke-linejoin="round"/>
<path id="Vector_180" d="M256 161V165" stroke="black" stroke-width="2" stroke-linecap="round" stroke-linejoin="round"/>
<path id="Vector_181" d="M256 169H256.01" stroke="black" stroke-width="2" stroke-linecap="round" stroke-linejoin="round"/>
</g></svg>
