<svg viewBox="0 0 24 24" fill="none" xmlns="http://www.w3.org/2000/svg"><g transform="translate(-340 -216)">
<path id="Vector_284" d="M346 238C345.47 238 344.961 237.789 344.586 237.414C344.211 237.039 344 236.53 344 236V220C344 219.47 344.211 218.961 344.586 218.586C344.961 218.211 345.47 218 346 218H354C354.317 217.999 354.63 218.062 354.923 218.183C355.215 218.304 355.481 218.482 355.704 218.706L359.292 222.294C359.517 222.518 359.695 222.783 359.817 223.076C359.938 223.369 360.001 223.683 360 224V236C360 236.53 359.789 237.039 359.414 237.414C359.039 237.789 358.53 238 358 238H346Z" stroke="black" stroke-width="2" stroke-linecap="round" stroke-linejoin="round"/>
<path id="Vector_285" d="M354 218V223C354 223.265 354.105 223.52 354.293 223.707C354.48 223.895 354.735 224 355 224H360" stroke="black" stroke-width="2" stroke-linecap="round" stroke-linejoin="round"/>
<path id="Vector_286" d="M350 225H348" stroke="black" stroke-width="2" stroke-linecap="round" stroke-linejoin="round"/>
<path id="Vector_287" d="M356 229H348" stroke="black" stroke-width="2" stroke-linecap="round" stroke-linejoin="round"/>
<path id="Vector_288" d="M356 233H348" stroke="black" stroke-width="2" stroke-linecap="round" stroke-linejoin="round"/>
</g></svg>
