<svg viewBox="0 0 24 24" fill="none" xmlns="http://www.w3.org/2000/svg"><g transform="translate(-148 -152)">
<path id="Vector_166" d="M154 174C153.47 174 152.961 173.789 152.586 173.414C152.211 173.039 152 172.53 152 172V156C152 155.47 152.211 154.961 152.586 154.586C152.961 154.211 153.47 154 154 154H162C162.317 153.999 162.63 154.062 162.923 154.183C163.215 154.304 163.481 154.482 163.704 154.706L167.292 158.294C167.517 158.518 167.695 158.783 167.817 159.076C167.938 159.369 168.001 159.683 168 160V172C168 172.53 167.789 173.039 167.414 173.414C167.039 173.789 166.53 174 166 174H154Z" stroke="black" stroke-width="2" stroke-linecap="round" stroke-linejoin="round"/>
<path id="Vector_167" d="M157 162H163" stroke="black" stroke-width="2" stroke-linecap="round" stroke-linejoin="round"/>
<path id="Vector_168" d="M160 165V159" stroke="black" stroke-width="2" stroke-linecap="round" stroke-linejoin="round"/>
<path id="Vector_169" d="M157 169H163" stroke="black" stroke-width="2" stroke-linecap="round" stroke-linejoin="round"/>
</g></svg>
