<svg viewBox="0 0 24 24" fill="none" xmlns="http://www.w3.org/2000/svg"><g transform="translate(-180 -120)">
<path id="Vector_115" d="M194 142H198C198.53 142 199.039 141.789 199.414 141.414C199.789 141.039 200 140.53 200 140V128C200.001 127.683 199.939 127.369 199.818 127.076C199.696 126.784 199.518 126.518 199.294 126.294L195.706 122.706C195.482 122.482 195.216 122.304 194.924 122.182C194.631 122.061 194.317 121.999 194 122H186C185.47 122 184.961 122.211 184.586 122.586C184.211 122.961 184 123.47 184 124V130" stroke="black" stroke-width="2" stroke-linecap="round" stroke-linejoin="round"/>
<path id="Vector_116" d="M194 122V127C194 127.265 194.105 127.52 194.293 127.707C194.48 127.895 194.735 128 195 128H200" stroke="black" stroke-width="2" stroke-linecap="round" stroke-linejoin="round"/>
<path id="Vector_117" d="M185 134C184.735 134 184.48 134.105 184.293 134.293C184.105 134.48 184 134.735 184 135V137C184 137.265 183.895 137.52 183.707 137.707C183.52 137.895 183.265 138 183 138C183.265 138 183.52 138.105 183.707 138.293C183.895 138.48 184 138.735 184 139V141C184 141.265 184.105 141.52 184.293 141.707C184.48 141.895 184.735 142 185 142" stroke="black" stroke-width="2" stroke-linecap="round" stroke-linejoin="round"/>
<path id="Vector_118" d="M189 142C189.265 142 189.52 141.895 189.707 141.707C189.895 141.52 190 141.265 190 141V139C190 138.735 190.105 138.48 190.293 138.293C190.48 138.105 190.735 138 191 138C190.735 138 190.48 137.895 190.293 137.707C190.105 137.52 190 137.265 190 137V135C190 134.735 189.895 134.48 189.707 134.293C189.52 134.105 189.265 134 189 134" stroke="black" stroke-width="2" stroke-linecap="round" stroke-linejoin="round"/>
</g></svg>
