<svg viewBox="0 0 24 24" fill="none" xmlns="http://www.w3.org/2000/svg"><g transform="translate(-308 -216)">
<path id="Vector_280" d="M314 238C313.47 238 312.961 237.789 312.586 237.414C312.211 237.039 312 236.53 312 236V220C312 219.47 312.211 218.961 312.586 218.586C312.961 218.211 313.47 218 314 218H322C322.317 217.999 322.63 218.062 322.923 218.183C323.215 218.304 323.481 218.482 323.704 218.706L327.292 222.294C327.517 222.518 327.695 222.783 327.817 223.076C327.938 223.369 328.001 223.683 328 224V236C328 236.53 327.789 237.039 327.414 237.414C327.039 237.789 326.53 238 326 238H314Z" stroke="black" stroke-width="2" stroke-linecap="round" stroke-linejoin="round"/>
<path id="Vector_281" d="M322 218V223C322 223.265 322.105 223.52 322.293 223.707C322.48 223.895 322.735 224 323 224H328" stroke="black" stroke-width="2" stroke-linecap="round" stroke-linejoin="round"/>
<path id="Vector_282" d="M316 232L318 230L316 228" stroke="black" stroke-width="2" stroke-linecap="round" stroke-linejoin="round"/>
<path id="Vector_283" d="M320 234H324" stroke="black" stroke-width="2" stroke-linecap="round" stroke-linejoin="round"/>
</g></svg>
