<svg viewBox="0 0 24 24" fill="none" xmlns="http://www.w3.org/2000/svg"><g transform="translate(-212 -248)">
<path id="Vector_319" d="M223 270H218C217.47 270 216.961 269.789 216.586 269.414C216.211 269.039 216 268.53 216 268V252C216 251.47 216.211 250.961 216.586 250.586C216.961 250.211 217.47 250 218 250H226C226.317 249.999 226.631 250.061 226.924 250.182C227.216 250.304 227.482 250.482 227.706 250.706L231.294 254.294C231.518 254.518 231.696 254.784 231.818 255.076C231.939 255.369 232.001 255.683 232 256V261" stroke="black" stroke-width="2" stroke-linecap="round" stroke-linejoin="round"/>
<path id="Vector_320" d="M226 250V255C226 255.265 226.105 255.52 226.293 255.707C226.48 255.895 226.735 256 227 256H232" stroke="black" stroke-width="2" stroke-linecap="round" stroke-linejoin="round"/>
<path id="Vector_321" d="M227 265L232 270" stroke="black" stroke-width="2" stroke-linecap="round" stroke-linejoin="round"/>
<path id="Vector_322" d="M232 265L227 270" stroke="black" stroke-width="2" stroke-linecap="round" stroke-linejoin="round"/>
</g></svg>
