<svg viewBox="0 0 24 24" fill="none" xmlns="http://www.w3.org/2000/svg"><g transform="translate(-308 -120)">
<path id="Vector_132" d="M323.941 142H326C326.53 142 327.039 141.789 327.414 141.414C327.789 141.039 328 140.53 328 140V128C328.001 127.683 327.938 127.37 327.817 127.077C327.696 126.785 327.518 126.519 327.294 126.296L323.706 122.708C323.482 122.483 323.217 122.305 322.924 122.183C322.631 122.062 322.317 121.999 322 122H314C313.47 122 312.961 122.211 312.586 122.586C312.211 122.961 312 123.47 312 124V127.512" stroke="black" stroke-width="2" stroke-linecap="round" stroke-linejoin="round"/>
<path id="Vector_133" d="M322 122V127C322 127.265 322.105 127.52 322.293 127.707C322.48 127.895 322.735 128 323 128H328" stroke="black" stroke-width="2" stroke-linecap="round" stroke-linejoin="round"/>
<path id="Vector_134" d="M312.017 131.512C311.406 132.055 310.912 132.717 310.565 133.458C310.219 134.198 310.027 135.002 310.003 135.819C309.978 136.637 310.121 137.451 310.422 138.211C310.724 138.971 311.177 139.661 311.755 140.24C312.333 140.819 313.023 141.273 313.783 141.575C314.543 141.877 315.356 142.021 316.174 141.997C316.991 141.973 317.795 141.783 318.536 141.437C319.277 141.092 319.94 140.598 320.483 139.987" stroke="black" stroke-width="2" stroke-linecap="round" stroke-linejoin="round"/>
<path id="Vector_135" d="M317 136C316.735 136 316.48 135.895 316.293 135.707C316.105 135.52 316 135.265 316 135V131C316 130.448 316.45 129.992 316.995 130.083C318.225 130.29 319.361 130.875 320.243 131.757C321.125 132.64 321.71 133.775 321.917 135.005C322.008 135.549 321.552 136 321 136H317Z" stroke="black" stroke-width="2" stroke-linecap="round" stroke-linejoin="round"/>
</g></svg>
