<svg viewBox="0 0 24 24" fill="none" xmlns="http://www.w3.org/2000/svg"><g transform="translate(-20 -184)">
<path id="Vector_196" d="M34 186V191C34 191.265 34.1054 191.52 34.2929 191.707C34.4804 191.895 34.7348 192 35 192H40" stroke="black" stroke-width="2" stroke-linecap="round" stroke-linejoin="round"/>
<path id="Vector_197" d="M24 196V202" stroke="black" stroke-width="2" stroke-linecap="round" stroke-linejoin="round"/>
<path id="Vector_198" d="M24 198H26" stroke="black" stroke-width="2" stroke-linecap="round" stroke-linejoin="round"/>
<path id="Vector_199" d="M29.65 206H38C38.5304 206 39.0391 205.789 39.4142 205.414C39.7893 205.039 40 204.53 40 204V192C40.0008 191.683 39.9388 191.369 39.8176 191.076C39.6964 190.784 39.5185 190.518 39.294 190.294L35.706 186.706C35.4823 186.482 35.2164 186.304 34.9236 186.182C34.6308 186.061 34.3169 185.999 34 186H26C25.4696 186 24.9609 186.211 24.5858 186.586C24.2107 186.961 24 187.47 24 188V192" stroke="black" stroke-width="2" stroke-linecap="round" stroke-linejoin="round"/>
<path id="Vector_200" d="M24 206C25.1046 206 26 205.105 26 204C26 202.895 25.1046 202 24 202C22.8954 202 22 202.895 22 204C22 205.105 22.8954 206 24 206Z" stroke="black" stroke-width="2" stroke-linecap="round" stroke-linejoin="round"/>
</g></svg>
