<svg viewBox="0 0 24 24" fill="none" xmlns="http://www.w3.org/2000/svg"><g transform="translate(-116 -152)">
<path id="Vector_154" d="M131 160C130.735 160 130.48 159.895 130.293 159.707C130.105 159.52 130 159.265 130 159V154C130.317 153.999 130.63 154.062 130.923 154.183C131.215 154.304 131.481 154.482 131.704 154.706L135.292 158.294C135.517 158.518 135.695 158.783 135.817 159.076C135.938 159.369 136.001 159.683 136 160H131Z" stroke="black" stroke-width="2" stroke-linecap="round" stroke-linejoin="round"/>
<path id="Vector_155" d="M136 160V172C136 172.53 135.79 173.039 135.415 173.414C135.039 173.789 134.531 174 134 174H129.818" stroke="black" stroke-width="2" stroke-linecap="round" stroke-linejoin="round"/>
<path id="Vector_156" d="M119.305 171.53L120.228 171.148" stroke="black" stroke-width="2" stroke-linecap="round" stroke-linejoin="round"/>
<path id="Vector_157" d="M120 162.592V156C120 155.47 120.211 154.961 120.586 154.586C120.961 154.211 121.47 154 122 154H130" stroke="black" stroke-width="2" stroke-linecap="round" stroke-linejoin="round"/>
<path id="Vector_158" d="M120.228 168.852L119.304 168.469" stroke="black" stroke-width="2" stroke-linecap="round" stroke-linejoin="round"/>
<path id="Vector_159" d="M121.852 167.228L121.469 166.305" stroke="black" stroke-width="2" stroke-linecap="round" stroke-linejoin="round"/>
<path id="Vector_160" d="M121.852 172.772L121.469 173.696" stroke="black" stroke-width="2" stroke-linecap="round" stroke-linejoin="round"/>
<path id="Vector_161" d="M124.148 167.228L124.531 166.305" stroke="black" stroke-width="2" stroke-linecap="round" stroke-linejoin="round"/>
<path id="Vector_162" d="M124.53 173.696L124.148 172.772" stroke="black" stroke-width="2" stroke-linecap="round" stroke-linejoin="round"/>
<path id="Vector_163" d="M125.773 168.852L126.695 168.469" stroke="black" stroke-width="2" stroke-linecap="round" stroke-linejoin="round"/>
<path id="Vector_164" d="M125.773 171.148L126.695 171.531" stroke="black" stroke-width="2" stroke-linecap="round" stroke-linejoin="round"/>
<path id="Vector_165" d="M123 173C124.657 173 126 171.657 126 170C126 168.343 124.657 167 123 167C121.343 167 120 168.343 120 170C120 171.657 121.343 173 123 173Z" stroke="black" stroke-width="2" stroke-linecap="round" stroke-linejoin="round"/>
</g></svg>
