<svg viewBox="0 0 24 24" fill="none" xmlns="http://www.w3.org/2000/svg"><g transform="translate(-212 -120)">
<path id="Vector_119" d="M218 142C217.47 142 216.961 141.789 216.586 141.414C216.211 141.039 216 140.53 216 140V124C216 123.47 216.211 122.961 216.586 122.586C216.961 122.211 217.47 122 218 122H226C226.317 121.999 226.63 122.062 226.923 122.183C227.215 122.304 227.481 122.482 227.704 122.706L231.292 126.294C231.517 126.518 231.695 126.783 231.817 127.076C231.938 127.369 232.001 127.683 232 128V140C232 140.53 231.789 141.039 231.414 141.414C231.039 141.789 230.53 142 230 142H218Z" stroke="black" stroke-width="2" stroke-linecap="round" stroke-linejoin="round"/>
<path id="Vector_120" d="M226 122V127C226 127.265 226.105 127.52 226.293 127.707C226.48 127.895 226.735 128 227 128H232" stroke="black" stroke-width="2" stroke-linecap="round" stroke-linejoin="round"/>
<path id="Vector_121" d="M220 138V137" stroke="black" stroke-width="2" stroke-linecap="round" stroke-linejoin="round"/>
<path id="Vector_122" d="M224 138V132" stroke="black" stroke-width="2" stroke-linecap="round" stroke-linejoin="round"/>
<path id="Vector_123" d="M228 138V135" stroke="black" stroke-width="2" stroke-linecap="round" stroke-linejoin="round"/>
</g></svg>
