<svg viewBox="0 0 24 24" fill="none" xmlns="http://www.w3.org/2000/svg"><g transform="translate(-52 -152)">
<path id="Vector_146" d="M58 174C57.4696 174 56.9609 173.789 56.5858 173.414C56.2107 173.039 56 172.53 56 172V156C56 155.47 56.2107 154.961 56.5858 154.586C56.9609 154.211 57.4696 154 58 154H66C66.3166 153.999 66.6301 154.062 66.9225 154.183C67.215 154.304 67.4806 154.482 67.704 154.706L71.292 158.294C71.5168 158.518 71.6952 158.783 71.8167 159.076C71.9382 159.369 72.0005 159.683 72 160V172C72 172.53 71.7893 173.039 71.4142 173.414C71.0391 173.789 70.5304 174 70 174H58Z" stroke="black" stroke-width="2" stroke-linecap="round" stroke-linejoin="round"/>
<path id="Vector_147" d="M66 154V159C66 159.265 66.1054 159.52 66.2929 159.707C66.4804 159.895 66.7348 160 67 160H72" stroke="black" stroke-width="2" stroke-linecap="round" stroke-linejoin="round"/>
<path id="Vector_148" d="M62 164.5L60 167L62 169.5" stroke="black" stroke-width="2" stroke-linecap="round" stroke-linejoin="round"/>
<path id="Vector_149" d="M66 164.5L68 167L66 169.5" stroke="black" stroke-width="2" stroke-linecap="round" stroke-linejoin="round"/>
</g></svg>
