<svg viewBox="0 0 24 24" fill="none" xmlns="http://www.w3.org/2000/svg"><g transform="translate(-148 -216)">
<path id="Vector_257" d="M154 238C153.47 238 152.961 237.789 152.586 237.414C152.211 237.039 152 236.53 152 236V220C152 219.47 152.211 218.961 152.586 218.586C152.961 218.211 153.47 218 154 218H162C162.317 217.999 162.63 218.062 162.923 218.183C163.215 218.304 163.481 218.482 163.704 218.706L167.292 222.294C167.517 222.518 167.695 222.783 167.817 223.076C167.938 223.369 168.001 223.683 168 224V236C168 236.53 167.789 237.039 167.414 237.414C167.039 237.789 166.53 238 166 238H154Z" stroke="black" stroke-width="2" stroke-linecap="round" stroke-linejoin="round"/>
<path id="Vector_258" d="M162 218V223C162 223.265 162.105 223.52 162.293 223.707C162.48 223.895 162.735 224 163 224H168" stroke="black" stroke-width="2" stroke-linecap="round" stroke-linejoin="round"/>
<path id="Vector_259" d="M156 231H156.01" stroke="black" stroke-width="2" stroke-linecap="round" stroke-linejoin="round"/>
<path id="Vector_260" d="M159.5 229.5C159.825 229.933 160 230.459 160 231C160 231.541 159.825 232.067 159.5 232.5" stroke="black" stroke-width="2" stroke-linecap="round" stroke-linejoin="round"/>
<path id="Vector_261" d="M163 228C163.649 228.865 164 229.918 164 231C164 232.082 163.649 233.135 163 234" stroke="black" stroke-width="2" stroke-linecap="round" stroke-linejoin="round"/>
</g></svg>
