<svg viewBox="0 0 24 24" fill="none" xmlns="http://www.w3.org/2000/svg"><g transform="translate(-372 -216)">
<path id="Vector_289" d="M378 238C377.47 238 376.961 237.789 376.586 237.414C376.211 237.039 376 236.53 376 236V220C376 219.47 376.211 218.961 376.586 218.586C376.961 218.211 377.47 218 378 218H386C386.317 217.999 386.63 218.062 386.923 218.183C387.215 218.304 387.481 218.482 387.704 218.706L391.292 222.294C391.517 222.518 391.695 222.783 391.817 223.076C391.938 223.369 392.001 223.683 392 224V236C392 236.53 391.789 237.039 391.414 237.414C391.039 237.789 390.53 238 390 238H378Z" stroke="black" stroke-width="2" stroke-linecap="round" stroke-linejoin="round"/>
<path id="Vector_290" d="M386 218V223C386 223.265 386.105 223.52 386.293 223.707C386.48 223.895 386.735 224 387 224H392" stroke="black" stroke-width="2" stroke-linecap="round" stroke-linejoin="round"/>
<path id="Vector_291" d="M383 234H385" stroke="black" stroke-width="2" stroke-linecap="round" stroke-linejoin="round"/>
<path id="Vector_292" d="M384 228V234" stroke="black" stroke-width="2" stroke-linecap="round" stroke-linejoin="round"/>
<path id="Vector_293" d="M381 229V228.5C381 228.367 381.053 228.24 381.146 228.146C381.24 228.053 381.367 228 381.5 228H386.5C386.633 228 386.76 228.053 386.854 228.146C386.947 228.24 387 228.367 387 228.5V229" stroke="black" stroke-width="2" stroke-linecap="round" stroke-linejoin="round"/>
</g></svg>
