<svg viewBox="0 0 24 24" fill="none" xmlns="http://www.w3.org/2000/svg"><g transform="translate(-340 -152)">
<path id="Vector_188" d="M346 174C345.47 174 344.961 173.789 344.586 173.414C344.211 173.039 344 172.53 344 172V156C344 155.47 344.211 154.961 344.586 154.586C344.961 154.211 345.47 154 346 154H354C354.317 153.999 354.63 154.062 354.923 154.183C355.215 154.304 355.481 154.482 355.704 154.706L359.292 158.294C359.517 158.518 359.695 158.783 359.817 159.076C359.938 159.369 360.001 159.683 360 160V172C360 172.53 359.789 173.039 359.414 173.414C359.039 173.789 358.53 174 358 174H346Z" stroke="black" stroke-width="2" stroke-linecap="round" stroke-linejoin="round"/>
<path id="Vector_189" d="M354 154V159C354 159.265 354.105 159.52 354.293 159.707C354.48 159.895 354.735 160 355 160H360" stroke="black" stroke-width="2" stroke-linecap="round" stroke-linejoin="round"/>
<path id="Vector_190" d="M350 166C351.105 166 352 165.105 352 164C352 162.895 351.105 162 350 162C348.895 162 348 162.895 348 164C348 165.105 348.895 166 350 166Z" stroke="black" stroke-width="2" stroke-linecap="round" stroke-linejoin="round"/>
<path id="Vector_191" d="M360 169L358.704 167.704C358.252 167.252 357.639 166.998 357 166.998C356.361 166.998 355.748 167.252 355.296 167.704L349 174" stroke="black" stroke-width="2" stroke-linecap="round" stroke-linejoin="round"/>
</g></svg>
