<svg viewBox="0 0 24 24" fill="none" xmlns="http://www.w3.org/2000/svg"><g transform="translate(-180 -248)">
<path id="Vector_315" d="M186 270C185.47 270 184.961 269.789 184.586 269.414C184.211 269.039 184 268.53 184 268V252C184 251.47 184.211 250.961 184.586 250.586C184.961 250.211 185.47 250 186 250H194C194.317 249.999 194.63 250.062 194.923 250.183C195.215 250.304 195.481 250.482 195.704 250.706L199.292 254.294C199.517 254.518 199.695 254.783 199.817 255.076C199.938 255.369 200.001 255.683 200 256V268C200 268.53 199.789 269.039 199.414 269.414C199.039 269.789 198.53 270 198 270H186Z" stroke="black" stroke-width="2" stroke-linecap="round" stroke-linejoin="round"/>
<path id="Vector_316" d="M194 250V255C194 255.265 194.105 255.52 194.293 255.707C194.48 255.895 194.735 256 195 256H200" stroke="black" stroke-width="2" stroke-linecap="round" stroke-linejoin="round"/>
<path id="Vector_317" d="M194.5 260.5L189.5 265.5" stroke="black" stroke-width="2" stroke-linecap="round" stroke-linejoin="round"/>
<path id="Vector_318" d="M189.5 260.5L194.5 265.5" stroke="black" stroke-width="2" stroke-linecap="round" stroke-linejoin="round"/>
</g></svg>
