<svg viewBox="0 0 24 24" fill="none" xmlns="http://www.w3.org/2000/svg"><g transform="translate(-84 -216)">
<path id="Vector_249" d="M90 238C89.4696 238 88.9609 237.789 88.5858 237.414C88.2107 237.039 88 236.53 88 236V220C88 219.47 88.2107 218.961 88.5858 218.586C88.9609 218.211 89.4696 218 90 218H98C98.3166 217.999 98.6301 218.062 98.9225 218.183C99.215 218.304 99.4806 218.482 99.704 218.706L103.292 222.294C103.517 222.518 103.695 222.783 103.817 223.076C103.938 223.369 104.001 223.683 104 224V236C104 236.53 103.789 237.039 103.414 237.414C103.039 237.789 102.53 238 102 238H90Z" stroke="black" stroke-width="2" stroke-linecap="round" stroke-linejoin="round"/>
<path id="Vector_250" d="M98 218V223C98 223.265 98.1054 223.52 98.2929 223.707C98.4804 223.895 98.7348 224 99 224H104" stroke="black" stroke-width="2" stroke-linecap="round" stroke-linejoin="round"/>
<path id="Vector_251" d="M95.5 233C96.8807 233 98 231.881 98 230.5C98 229.119 96.8807 228 95.5 228C94.1193 228 93 229.119 93 230.5C93 231.881 94.1193 233 95.5 233Z" stroke="black" stroke-width="2" stroke-linecap="round" stroke-linejoin="round"/>
<path id="Vector_252" d="M97.2998 232.3L98.9998 234" stroke="black" stroke-width="2" stroke-linecap="round" stroke-linejoin="round"/>
</g></svg>
