<svg viewBox="0 0 24 24" fill="none" xmlns="http://www.w3.org/2000/svg"><g transform="translate(-308 -152)">
<path id="Vector_185" d="M321 174H326C326.53 174 327.039 173.789 327.414 173.414C327.789 173.039 328 172.53 328 172V160C328.001 159.683 327.939 159.369 327.818 159.076C327.696 158.784 327.518 158.518 327.294 158.294L323.706 154.706C323.482 154.482 323.216 154.304 322.924 154.182C322.631 154.061 322.317 153.999 322 154H314C313.47 154 312.961 154.211 312.586 154.586C312.211 154.961 312 155.47 312 156V163" stroke="black" stroke-width="2" stroke-linecap="round" stroke-linejoin="round"/>
<path id="Vector_186" d="M322 154V159C322 159.265 322.105 159.52 322.293 159.707C322.48 159.895 322.735 160 323 160H328" stroke="black" stroke-width="2" stroke-linecap="round" stroke-linejoin="round"/>
<path id="Vector_187" d="M311.62 170.8C311.41 170.581 311.246 170.321 311.139 170.037C311.032 169.752 310.983 169.449 310.996 169.145C311.009 168.842 311.084 168.544 311.215 168.27C311.347 167.996 311.532 167.751 311.761 167.551C311.989 167.35 312.256 167.198 312.545 167.104C312.834 167.01 313.139 166.975 313.441 167.001C313.744 167.028 314.038 167.116 314.306 167.259C314.574 167.403 314.81 167.599 315 167.836C315.191 167.601 315.428 167.407 315.695 167.266C315.963 167.125 316.256 167.039 316.557 167.014C316.859 166.988 317.162 167.024 317.45 167.119C317.737 167.213 318.003 167.365 318.23 167.564C318.457 167.764 318.642 168.007 318.773 168.28C318.905 168.553 318.979 168.849 318.994 169.151C319.008 169.454 318.96 169.755 318.855 170.039C318.75 170.323 318.588 170.582 318.38 170.802L315.754 173.658C315.66 173.766 315.545 173.852 315.415 173.911C315.285 173.97 315.144 174.001 315.001 174.001C314.858 174.001 314.717 173.97 314.587 173.911C314.457 173.852 314.341 173.766 314.247 173.658L311.62 170.8Z" stroke="black" stroke-width="2" stroke-linecap="round" stroke-linejoin="round"/>
</g></svg>
