<svg viewBox="0 0 24 24" fill="none" xmlns="http://www.w3.org/2000/svg"><g transform="translate(-116 -56)">
<path id="Vector_17" d="M128 66C127.47 66 126.961 66.2107 126.586 66.5858C126.211 66.9609 126 67.4696 126 68C126 69.02 125.9 70.51 125.74 72" stroke="black" stroke-width="2" stroke-linecap="round" stroke-linejoin="round"/>
<path id="Vector_18" d="M130 69.12C130 71.5 130 75.5 129 78" stroke="black" stroke-width="2" stroke-linecap="round" stroke-linejoin="round"/>
<path id="Vector_19" d="M133.29 77.02C133.41 76.42 133.72 74.72 133.79 74" stroke="black" stroke-width="2" stroke-linecap="round" stroke-linejoin="round"/>
<path id="Vector_20" d="M118 68C118 65.9012 118.66 63.8556 119.888 62.1529C121.115 60.4502 122.847 59.1769 124.838 58.5132C126.829 57.8495 128.978 57.8291 130.982 58.4549C132.985 59.0807 134.741 60.3209 136 62" stroke="black" stroke-width="2" stroke-linecap="round" stroke-linejoin="round"/>
<path id="Vector_21" d="M118 72H118.01" stroke="black" stroke-width="2" stroke-linecap="round" stroke-linejoin="round"/>
<path id="Vector_22" d="M137.8 72C138 70 137.931 66.646 137.8 66" stroke="black" stroke-width="2" stroke-linecap="round" stroke-linejoin="round"/>
<path id="Vector_23" d="M121 75.5C121.5 74 122 71 122 68C121.999 67.3189 122.114 66.6425 122.34 66" stroke="black" stroke-width="2" stroke-linecap="round" stroke-linejoin="round"/>
<path id="Vector_24" d="M124.65 78C124.86 77.34 125.1 76.68 125.22 76" stroke="black" stroke-width="2" stroke-linecap="round" stroke-linejoin="round"/>
<path id="Vector_25" d="M125 62.7999C125.912 62.2732 126.947 61.9959 128.001 61.9961C129.055 61.9963 130.089 62.2738 131.002 62.8009C131.914 63.328 132.671 64.0859 133.198 64.9986C133.724 65.9112 134.001 66.9464 134 67.9999V69.9999" stroke="black" stroke-width="2" stroke-linecap="round" stroke-linejoin="round"/>
</g></svg>
