<svg viewBox="0 0 24 24" fill="none" xmlns="http://www.w3.org/2000/svg"><g transform="translate(-276 -56)">
<path id="Vector_41" d="M291 62.5V59C291 58.7348 290.895 58.4804 290.707 58.2929C290.52 58.1054 290.265 58 290 58H288C287.735 58 287.48 58.1054 287.293 58.2929C287.105 58.4804 287 58.7348 287 59V62.5" stroke="black" stroke-width="2" stroke-linecap="round" stroke-linejoin="round"/>
<path id="Vector_42" d="M285 74H293" stroke="black" stroke-width="2" stroke-linecap="round" stroke-linejoin="round"/>
<path id="Vector_43" d="M294 59H291" stroke="black" stroke-width="2" stroke-linecap="round" stroke-linejoin="round"/>
<path id="Vector_44" d="M287 59C285.409 59 283.883 59.6321 282.757 60.7574C281.632 61.8826 281 63.4087 281 65V76" stroke="black" stroke-width="2" stroke-linecap="round" stroke-linejoin="round"/>
<path id="Vector_45" d="M281 69H285" stroke="black" stroke-width="2" stroke-linecap="round" stroke-linejoin="round"/>
<path id="Vector_46" d="M293 66C293 64.9391 292.579 63.9217 291.828 63.1716C291.078 62.4214 290.061 62 289 62C287.939 62 286.922 62.4214 286.172 63.1716C285.421 63.9217 285 64.9391 285 66V76C285 76.5304 285.211 77.0391 285.586 77.4142C285.961 77.7893 286.47 78 287 78H291C291.53 78 292.039 77.7893 292.414 77.4142C292.789 77.0391 293 76.5304 293 76V66Z" stroke="black" stroke-width="2" stroke-linecap="round" stroke-linejoin="round"/>
</g></svg>
