<svg viewBox="0 0 24 24" fill="none" xmlns="http://www.w3.org/2000/svg"><g transform="translate(-180 -120)">
<path id="Vector_116" d="M186.5 132C187.44 128.54 191.44 126 195 126C198.56 126 201.06 128.54 202 132C201.06 135.47 198.56 138 195 138C191.44 138 187.44 135.47 186.5 132Z" stroke="black" stroke-width="2" stroke-linecap="round" stroke-linejoin="round"/>
<path id="Vector_117" d="M198 132V132.5" stroke="black" stroke-width="2" stroke-linecap="round" stroke-linejoin="round"/>
<path id="Vector_118" d="M196 137.93C194.699 136.227 193.994 134.143 193.994 132C193.994 129.857 194.699 127.773 196 126.07" stroke="black" stroke-width="2" stroke-linecap="round" stroke-linejoin="round"/>
<path id="Vector_119" d="M187 130.67C187 128 185.58 125.97 182.73 125.5C181.73 127 181.73 130.5 182.96 132C181.72 133.5 181.72 137 182.73 138.5C185.58 138.03 187 136 187 133.33" stroke="black" stroke-width="2" stroke-linecap="round" stroke-linejoin="round"/>
<path id="Vector_120" d="M190.46 127.26C190.2 125.88 189.17 124.24 188 123H193.8C194.274 122.998 194.734 123.165 195.097 123.471C195.46 123.777 195.702 124.202 195.78 124.67L196.01 126.07" stroke="black" stroke-width="2" stroke-linecap="round" stroke-linejoin="round"/>
<path id="Vector_121" d="M196.01 137.93L195.78 139.33C195.702 139.798 195.46 140.223 195.097 140.529C194.734 140.835 194.274 141.002 193.8 141H189.5C190.469 139.902 190.999 138.485 190.99 137.02" stroke="black" stroke-width="2" stroke-linecap="round" stroke-linejoin="round"/>
</g></svg>
