<svg viewBox="0 0 24 24" fill="none" xmlns="http://www.w3.org/2000/svg"><g transform="translate(-308 -88)">
<path id="Vector_98" d="M325.586 99.414L319.656 105.344C318.595 106.405 317.156 107.001 315.656 107.001C314.156 107.001 312.717 106.405 311.656 105.344C310.595 104.283 309.999 102.844 309.999 101.344C309.999 99.8437 310.595 98.4049 311.656 97.344L314.793 94.207C314.892 94.1081 315.018 94.0408 315.155 94.0135C315.292 93.9862 315.434 94.0002 315.563 94.0537C315.693 94.1072 315.803 94.1979 315.881 94.3142C315.958 94.4305 316 94.5672 316 94.707V98" stroke="black" stroke-width="2" stroke-linecap="round" stroke-linejoin="round"/>
<path id="Vector_99" d="M328.414 96.586L330 95" stroke="black" stroke-width="2" stroke-linecap="round" stroke-linejoin="round"/>
<path id="Vector_100" d="M327 100C328.105 100 329 99.1046 329 98C329 96.8954 328.105 96 327 96C325.895 96 325 96.8954 325 98C325 99.1046 325.895 100 327 100Z" stroke="black" stroke-width="2" stroke-linecap="round" stroke-linejoin="round"/>
</g></svg>
