<svg viewBox="0 0 24 24" fill="none" xmlns="http://www.w3.org/2000/svg"><g transform="translate(-212 -120)">
<path id="Vector_122" d="M230 132.5V132.47V132M229.525 137.526C228.721 137.844 227.864 138.005 227 138C223.44 138 219.44 135.47 218.5 132C218.848 130.72 219.614 129.567 220.621 128.62M224.065 126.532C225.006 126.189 225.999 126.009 227 126C230.56 126 233.06 128.54 234 132C233.691 133.14 233.214 134.177 232.587 135.058" stroke="black" stroke-width="2" stroke-linecap="round" stroke-linejoin="round"/>
<path id="Vector_123" d="M219 130.67C219 128 217.58 125.97 214.73 125.5C213.73 127 213.73 130.5 214.96 132C213.72 133.5 213.72 137 214.73 138.5C217.58 138.03 219 136 219 133.33M226.48 128.958C226.821 127.917 227.335 126.941 228 126.07M228 137.93C227.18 136.856 226.592 135.624 226.272 134.312" stroke="black" stroke-width="2" stroke-linecap="round" stroke-linejoin="round"/>
<path id="Vector_124" d="M228.01 137.93L227.78 139.33C227.702 139.798 227.46 140.223 227.097 140.529C226.734 140.835 226.274 141.002 225.8 141H221.5C222.469 139.901 222.999 138.485 222.99 137.02M220.53 123H225.8C226.274 122.998 226.734 123.165 227.097 123.471C227.46 123.777 227.702 124.202 227.78 124.67L228.01 126.07M214 122L234 142" stroke="black" stroke-width="2" stroke-linecap="round" stroke-linejoin="round"/>
</g></svg>
