<svg viewBox="0 0 24 24" fill="none" xmlns="http://www.w3.org/2000/svg"><g transform="translate(-340 -88)">
<path id="Vector_101" d="M344 99H345" stroke="black" stroke-width="2" stroke-linecap="round" stroke-linejoin="round"/>
<path id="Vector_102" d="M348 103C348 103.53 347.789 104.039 347.414 104.414C347.039 104.789 346.53 105 346 105C345.47 105 344.961 104.789 344.586 104.414C344.211 104.039 344 103.53 344 103V91C344 90.7348 344.105 90.4804 344.293 90.2929C344.48 90.1054 344.735 90 345 90H345.5C354 90 360 97 360 106V110" stroke="black" stroke-width="2" stroke-linecap="round" stroke-linejoin="round"/>
<path id="Vector_103" d="M358 108C359.105 108 360 107.105 360 106C360 104.895 359.105 104 358 104C356.895 104 356 104.895 356 106C356 107.105 356.895 108 358 108Z" stroke="black" stroke-width="2" stroke-linecap="round" stroke-linejoin="round"/>
</g></svg>
