<svg viewBox="0 0 24 24" fill="none" xmlns="http://www.w3.org/2000/svg"><g transform="translate(-84 -88)">
<path id="Vector_37" d="M100 104C97 104 95 102 92 102C90.5241 102 89.1 102.544 88 103.528" stroke="black" stroke-width="2" stroke-linecap="round" stroke-linejoin="round"/>
<path id="Vector_38" d="M86 90L106 110" stroke="black" stroke-width="2" stroke-linecap="round" stroke-linejoin="round"/>
<path id="Vector_39" d="M88 110V92" stroke="black" stroke-width="2" stroke-linecap="round" stroke-linejoin="round"/>
<path id="Vector_40" d="M91.6562 90H92.0002C95.0002 90 97.0003 92 99.3333 92C100.667 92 101.689 91.7333 102.4 91.2C102.549 91.0886 102.725 91.0207 102.91 91.004C103.095 90.9874 103.281 91.0225 103.447 91.1056C103.614 91.1886 103.753 91.3163 103.851 91.4743C103.949 91.6322 104 91.8143 104 92V102.347" stroke="black" stroke-width="2" stroke-linecap="round" stroke-linejoin="round"/>
</g></svg>
