<svg viewBox="0 0 24 24" fill="none" xmlns="http://www.w3.org/2000/svg"><g transform="translate(-52 -88)">
<path id="Vector_36" d="M56 110V92C56 91.8448 56.0361 91.6916 56.1056 91.5528C56.175 91.4139 56.2758 91.2931 56.4 91.2C57.4386 90.4211 58.7018 90 60 90C63 90 65 92 67.333 92C68.6663 92 69.6887 91.7333 70.4 91.2C70.5486 91.0886 70.7252 91.0207 70.9102 91.004C71.0952 90.9874 71.2811 91.0225 71.4472 91.1056C71.6133 91.1886 71.753 91.3163 71.8507 91.4743C71.9483 91.6322 72 91.8143 72 92V102C72 102.155 71.9639 102.308 71.8944 102.447C71.825 102.586 71.7242 102.707 71.6 102.8C70.5614 103.579 69.2982 104 68 104C65 104 63 102 60 102C58.5241 102 57.1 102.544 56 103.528" stroke="black" stroke-width="2" stroke-linecap="round" stroke-linejoin="round"/>
</g></svg>
