<svg viewBox="0 0 24 24" fill="none" xmlns="http://www.w3.org/2000/svg"><g transform="translate(-84 -120)">
<path id="Vector_100" d="M96 123C96.6667 125.667 98 127.833 100 129.5C102 131.167 103 133 103 135C103 136.857 102.263 138.637 100.95 139.95C99.637 141.263 97.8565 142 96 142C94.1435 142 92.363 141.263 91.0503 139.95C89.7375 138.637 89 136.857 89 135C89 133.918 89.3509 132.865 90 132C90 132.663 90.2634 133.299 90.7322 133.768C91.2011 134.237 91.837 134.5 92.5 134.5C93.163 134.5 93.7989 134.237 94.2678 133.768C94.7366 133.299 95 132.663 95 132C95 130 93.5 129 93.5 127C93.5 125.667 94.3333 124.333 96 123Z" stroke="black" stroke-width="2" stroke-linecap="round" stroke-linejoin="round"/>
</g></svg>
