<svg viewBox="0 0 24 24" fill="none" xmlns="http://www.w3.org/2000/svg"><g transform="translate(-116 -120)">
<path id="Vector_101" d="M128 122C129 125 130.5 125.5 131.5 126.5C132.442 127.423 132.981 128.681 133 130C133 131.326 132.473 132.598 131.536 133.536C130.598 134.473 129.326 135 128 135C126.674 135 125.402 134.473 124.464 133.536C123.527 132.598 123 131.326 123 130C123 129.7 123 129.4 123.1 129.1C123.185 129.396 123.336 129.668 123.543 129.896C123.75 130.123 124.006 130.3 124.293 130.412C124.579 130.525 124.887 130.569 125.194 130.543C125.5 130.517 125.797 130.42 126.06 130.261C126.323 130.101 126.545 129.884 126.71 129.624C126.876 129.365 126.979 129.07 127.012 128.765C127.044 128.459 127.006 128.15 126.9 127.861C126.794 127.572 126.623 127.312 126.4 127.1C124 124.5 127 122 128 122Z" stroke="black" stroke-width="2" stroke-linecap="round" stroke-linejoin="round"/>
<path id="Vector_102" d="M121 142L135 138" stroke="black" stroke-width="2" stroke-linecap="round" stroke-linejoin="round"/>
<path id="Vector_103" d="M121 138L135 142" stroke="black" stroke-width="2" stroke-linecap="round" stroke-linejoin="round"/>
</g></svg>
