<svg viewBox="0 0 24 24" fill="none" xmlns="http://www.w3.org/2000/svg"><g transform="translate(-372 -88)">
<path id="Vector_123" d="M382 90V96.292C380.389 96.7724 379.004 97.8168 378.099 99.2341C377.195 100.651 376.831 102.347 377.073 104.011C377.316 105.675 378.15 107.195 379.421 108.295C380.693 109.395 382.319 110 384 110C385.681 110 387.307 109.395 388.579 108.295C389.85 107.195 390.684 105.675 390.927 104.011C391.169 102.347 390.805 100.651 389.901 99.2341C388.996 97.8168 387.611 96.7724 386 96.292V90" stroke="black" stroke-width="2" stroke-linecap="round" stroke-linejoin="round"/>
<path id="Vector_124" d="M377 103H391" stroke="black" stroke-width="2" stroke-linecap="round" stroke-linejoin="round"/>
<path id="Vector_125" d="M380.5 90H387.5" stroke="black" stroke-width="2" stroke-linecap="round" stroke-linejoin="round"/>
</g></svg>
