<svg viewBox="0 0 24 24" fill="none" xmlns="http://www.w3.org/2000/svg"><g transform="translate(-340 -56)">
<path id="Vector_59" d="M351.652 62H358" stroke="black" stroke-width="2" stroke-linecap="round" stroke-linejoin="round"/>
<path id="Vector_60" d="M352 69V70" stroke="black" stroke-width="2" stroke-linecap="round" stroke-linejoin="round"/>
<path id="Vector_61" d="M356 72V76C356 76.5304 355.789 77.0391 355.414 77.4142C355.039 77.7893 354.53 78 354 78H350C349.47 78 348.961 77.7893 348.586 77.4142C348.211 77.0391 348 76.5304 348 76V68C348 67.1345 347.719 66.2924 347.2 65.6L346.6 64.8C346.211 64.2807 346 63.6491 346 63V62" stroke="black" stroke-width="2" stroke-linecap="round" stroke-linejoin="round"/>
<path id="Vector_62" d="M342 58L362 78" stroke="black" stroke-width="2" stroke-linecap="round" stroke-linejoin="round"/>
<path id="Vector_63" d="M347.649 58H357C357.266 58 357.52 58.1054 357.708 58.2929C357.895 58.4804 358 58.7348 358 59V63C358 63.6491 357.79 64.2807 357.4 64.8L356.8 65.6C356.57 65.9075 356.384 66.2466 356.25 66.607" stroke="black" stroke-width="2" stroke-linecap="round" stroke-linejoin="round"/>
</g></svg>
