<svg viewBox="0 0 24 24" fill="none" xmlns="http://www.w3.org/2000/svg"><g transform="translate(-308 -88)">
<path id="Vector_114" d="M322 90V96C322 96.3355 322.085 96.6656 322.245 96.96L327.755 107.04C327.922 107.345 328.007 107.687 328.001 108.035C327.995 108.382 327.898 108.721 327.721 109.02C327.544 109.319 327.292 109.566 326.991 109.738C326.689 109.91 326.348 110 326 110H314C313.653 110 313.312 109.91 313.01 109.738C312.709 109.566 312.457 109.319 312.28 109.02C312.103 108.721 312.006 108.382 312 108.035C311.994 107.687 312.079 107.345 312.245 107.04L317.755 96.96C317.916 96.6656 318.001 96.3355 318 96V90" stroke="black" stroke-width="2" stroke-linecap="round" stroke-linejoin="round"/>
<path id="Vector_115" d="M314.453 103H325.547" stroke="black" stroke-width="2" stroke-linecap="round" stroke-linejoin="round"/>
<path id="Vector_116" d="M316.5 90H323.5" stroke="black" stroke-width="2" stroke-linecap="round" stroke-linejoin="round"/>
</g></svg>
