<svg viewBox="0 0 24 24" fill="none" xmlns="http://www.w3.org/2000/svg"><g transform="translate(-308 -56)">
<path id="Vector_56" d="M320 69V70" stroke="black" stroke-width="2" stroke-linecap="round" stroke-linejoin="round"/>
<path id="Vector_57" d="M325 58C325.265 58 325.52 58.1054 325.707 58.2929C325.895 58.4804 326 58.7348 326 59V63C326 63.6491 325.789 64.2807 325.4 64.8L324.8 65.6C324.281 66.2924 324 67.1345 324 68V76C324 76.5304 323.789 77.0391 323.414 77.4142C323.039 77.7893 322.53 78 322 78H318C317.47 78 316.961 77.7893 316.586 77.4142C316.211 77.0391 316 76.5304 316 76V68C316 67.1345 315.719 66.2924 315.2 65.6L314.6 64.8C314.211 64.2807 314 63.6491 314 63V59C314 58.7348 314.105 58.4804 314.293 58.2929C314.48 58.1054 314.735 58 315 58H325Z" stroke="black" stroke-width="2" stroke-linecap="round" stroke-linejoin="round"/>
<path id="Vector_58" d="M314 62H326" stroke="black" stroke-width="2" stroke-linecap="round" stroke-linejoin="round"/>
</g></svg>
