<svg viewBox="0 0 24 24" fill="none" xmlns="http://www.w3.org/2000/svg"><g transform="translate(-148 -120)">
<path id="Vector_104" d="M160 135C161.657 135 163 133.657 163 132C163 130.343 161.657 129 160 129C158.343 129 157 130.343 157 132C157 133.657 158.343 135 160 135Z" stroke="black" stroke-width="2" stroke-linecap="round" stroke-linejoin="round"/>
<path id="Vector_105" d="M160 136.5C160 137.39 159.736 138.26 159.242 139C158.747 139.74 158.044 140.317 157.222 140.657C156.4 140.998 155.495 141.087 154.622 140.914C153.749 140.74 152.947 140.311 152.318 139.682C151.689 139.053 151.26 138.251 151.086 137.378C150.913 136.505 151.002 135.6 151.343 134.778C151.683 133.956 152.26 133.253 153 132.758C153.74 132.264 154.61 132 155.5 132C154.61 132 153.74 131.736 153 131.242C152.26 130.747 151.683 130.044 151.343 129.222C151.002 128.4 150.913 127.495 151.086 126.622C151.26 125.749 151.689 124.947 152.318 124.318C152.947 123.689 153.749 123.26 154.622 123.086C155.495 122.913 156.4 123.002 157.222 123.343C158.044 123.683 158.747 124.26 159.242 125C159.736 125.74 160 126.61 160 127.5C160 126.61 160.264 125.74 160.758 125C161.253 124.26 161.956 123.683 162.778 123.343C163.6 123.002 164.505 122.913 165.378 123.086C166.251 123.26 167.053 123.689 167.682 124.318C168.311 124.947 168.74 125.749 168.914 126.622C169.087 127.495 168.998 128.4 168.657 129.222C168.317 130.044 167.74 130.747 167 131.242C166.26 131.736 165.39 132 164.5 132C165.39 132 166.26 132.264 167 132.758C167.74 133.253 168.317 133.956 168.657 134.778C168.998 135.6 169.087 136.505 168.914 137.378C168.74 138.251 168.311 139.053 167.682 139.682C167.053 140.311 166.251 140.74 165.378 140.914C164.505 141.087 163.6 140.998 162.778 140.657C161.956 140.317 161.253 139.74 160.758 139C160.264 138.26 160 137.39 160 136.5Z" stroke="black" stroke-width="2" stroke-linecap="round" stroke-linejoin="round"/>
<path id="Vector_106" d="M160 127.5V129" stroke="black" stroke-width="2" stroke-linecap="round" stroke-linejoin="round"/>
<path id="Vector_107" d="M155.5 132H157" stroke="black" stroke-width="2" stroke-linecap="round" stroke-linejoin="round"/>
<path id="Vector_108" d="M164.5 132H163" stroke="black" stroke-width="2" stroke-linecap="round" stroke-linejoin="round"/>
<path id="Vector_109" d="M160 136.5V135" stroke="black" stroke-width="2" stroke-linecap="round" stroke-linejoin="round"/>
<path id="Vector_110" d="M156 128L157.88 129.88" stroke="black" stroke-width="2" stroke-linecap="round" stroke-linejoin="round"/>
<path id="Vector_111" d="M162.12 129.88L164 128" stroke="black" stroke-width="2" stroke-linecap="round" stroke-linejoin="round"/>
<path id="Vector_112" d="M156 136L157.88 134.12" stroke="black" stroke-width="2" stroke-linecap="round" stroke-linejoin="round"/>
<path id="Vector_113" d="M162.12 134.12L164 136" stroke="black" stroke-width="2" stroke-linecap="round" stroke-linejoin="round"/>
</g></svg>
