<svg viewBox="0 0 24 24" fill="none" xmlns="http://www.w3.org/2000/svg"><g transform="translate(-180 -120)">
<path id="Vector_114" d="M192 125C192 124.407 192.176 123.827 192.506 123.333C192.835 122.84 193.304 122.455 193.852 122.228C194.4 122.001 195.003 121.942 195.585 122.058C196.167 122.173 196.702 122.459 197.121 122.879C197.541 123.298 197.827 123.833 197.942 124.415C198.058 124.997 197.999 125.6 197.772 126.148C197.545 126.696 197.16 127.165 196.667 127.494C196.173 127.824 195.593 128 195 128M192 125C192 124.407 191.824 123.827 191.494 123.333C191.165 122.84 190.696 122.455 190.148 122.228C189.6 122.001 188.997 121.942 188.415 122.058C187.833 122.173 187.298 122.459 186.879 122.879C186.459 123.298 186.173 123.833 186.058 124.415C185.942 124.997 186.001 125.6 186.228 126.148C186.455 126.696 186.84 127.165 187.333 127.494C187.827 127.824 188.407 128 189 128M192 125V126M195 128C195.593 128 196.173 128.176 196.667 128.506C197.16 128.835 197.545 129.304 197.772 129.852C197.999 130.4 198.058 131.003 197.942 131.585C197.827 132.167 197.541 132.702 197.121 133.121C196.702 133.541 196.167 133.827 195.585 133.942C195.003 134.058 194.4 133.999 193.852 133.772C193.304 133.545 192.835 133.16 192.506 132.667C192.176 132.173 192 131.593 192 131M195 128H194M189 128C188.407 128 187.827 128.176 187.333 128.506C186.84 128.835 186.455 129.304 186.228 129.852C186.001 130.4 185.942 131.003 186.058 131.585C186.173 132.167 186.459 132.702 186.879 133.121C187.298 133.541 187.833 133.827 188.415 133.942C188.997 134.058 189.6 133.999 190.148 133.772C190.696 133.545 191.165 133.16 191.494 132.667C191.824 132.173 192 131.593 192 131M189 128H190M192 131V130" stroke="black" stroke-width="2" stroke-linecap="round" stroke-linejoin="round"/>
<path id="Vector_115" d="M192 130C193.105 130 194 129.105 194 128C194 126.895 193.105 126 192 126C190.895 126 190 126.895 190 128C190 129.105 190.895 130 192 130Z" stroke="black" stroke-width="2" stroke-linecap="round" stroke-linejoin="round"/>
<path id="Vector_116" d="M192 130V142" stroke="black" stroke-width="2" stroke-linecap="round" stroke-linejoin="round"/>
<path id="Vector_117" d="M192 142C196.2 142 199 140.333 199 137C194.8 137 192 138.667 192 142Z" stroke="black" stroke-width="2" stroke-linecap="round" stroke-linejoin="round"/>
<path id="Vector_118" d="M192 142C187.8 142 185 140.333 185 137C189.2 137 192 138.667 192 142Z" stroke="black" stroke-width="2" stroke-linecap="round" stroke-linejoin="round"/>
</g></svg>
