<svg viewBox="0 0 24 24" fill="none" xmlns="http://www.w3.org/2000/svg"><g transform="translate(-180 -120)">
<path id="Vector_88" d="M200 130C200.265 130 200.52 129.895 200.707 129.707C200.895 129.52 201 129.265 201 129V126C201 125.735 200.895 125.48 200.707 125.293C200.52 125.105 200.265 125 200 125H197.5C197.345 125 197.192 124.964 197.053 124.894C196.914 124.825 196.793 124.724 196.7 124.6L195.8 123.4C195.707 123.276 195.586 123.175 195.447 123.106C195.308 123.036 195.155 123 195 123H193C192.735 123 192.48 123.105 192.293 123.293C192.105 123.48 192 123.735 192 124V129C192 129.265 192.105 129.52 192.293 129.707C192.48 129.895 192.735 130 193 130H200Z" stroke="black" stroke-width="2" stroke-linecap="round" stroke-linejoin="round"/>
<path id="Vector_89" d="M200 141C200.265 141 200.52 140.895 200.707 140.707C200.895 140.52 201 140.265 201 140V137C201 136.735 200.895 136.48 200.707 136.293C200.52 136.105 200.265 136 200 136H197.1C196.917 135.998 196.738 135.945 196.583 135.848C196.428 135.751 196.302 135.613 196.22 135.45L195.8 134.6C195.722 134.421 195.593 134.269 195.43 134.162C195.266 134.056 195.075 133.999 194.88 134H193C192.735 134 192.48 134.105 192.293 134.293C192.105 134.48 192 134.735 192 135V140C192 140.265 192.105 140.52 192.293 140.707C192.48 140.895 192.735 141 193 141H200Z" stroke="black" stroke-width="2" stroke-linecap="round" stroke-linejoin="round"/>
<path id="Vector_90" d="M183 125C183 125.53 183.211 126.039 183.586 126.414C183.961 126.789 184.47 127 185 127H188" stroke="black" stroke-width="2" stroke-linecap="round" stroke-linejoin="round"/>
<path id="Vector_91" d="M183 123V136C183 136.53 183.211 137.039 183.586 137.414C183.961 137.789 184.47 138 185 138H188" stroke="black" stroke-width="2" stroke-linecap="round" stroke-linejoin="round"/>
</g></svg>
