<svg viewBox="0 0 24 24" fill="none" xmlns="http://www.w3.org/2000/svg"><g transform="translate(-148 -88)">
<path id="Vector_54" d="M169 105H163C162.448 105 162 105.448 162 106V109C162 109.552 162.448 110 163 110H169C169.552 110 170 109.552 170 109V106C170 105.448 169.552 105 169 105Z" stroke="black" stroke-width="2" stroke-linecap="round" stroke-linejoin="round"/>
<path id="Vector_55" d="M158 108H152C151.47 108 150.961 107.789 150.586 107.414C150.211 107.039 150 106.53 150 106V93C150 92.4695 150.211 91.9608 150.586 91.5858C150.961 91.2107 151.47 91 152 91H155.9C156.234 90.9967 156.564 91.0774 156.86 91.2346C157.155 91.3918 157.406 91.6206 157.59 91.9L158.4 93.1C158.582 93.3765 158.83 93.6035 159.122 93.7606C159.413 93.9177 159.739 93.9999 160.07 94H168C168.53 94 169.039 94.2107 169.414 94.5858C169.789 94.9608 170 95.4695 170 96V98.5" stroke="black" stroke-width="2" stroke-linecap="round" stroke-linejoin="round"/>
<path id="Vector_56" d="M168 105V103C168 102.47 167.789 101.961 167.414 101.586C167.039 101.211 166.53 101 166 101C165.47 101 164.961 101.211 164.586 101.586C164.211 101.961 164 102.47 164 103V105" stroke="black" stroke-width="2" stroke-linecap="round" stroke-linejoin="round"/>
</g></svg>
