<svg viewBox="0 0 24 24" fill="none" xmlns="http://www.w3.org/2000/svg"><g transform="translate(-116 -88)">
<path id="Vector_50" d="M129 108H120C119.47 108 118.961 107.789 118.586 107.414C118.211 107.039 118 106.53 118 106V93C118 92.4695 118.211 91.9608 118.586 91.5858C118.961 91.2107 119.47 91 120 91H123.9C124.234 90.9967 124.564 91.0774 124.86 91.2346C125.155 91.3918 125.406 91.6206 125.59 91.9L126.4 93.1C126.582 93.3765 126.83 93.6035 127.122 93.7606C127.413 93.9177 127.739 93.9999 128.07 94H136C136.53 94 137.039 94.2107 137.414 94.5858C137.789 94.9608 138 95.4695 138 96V97.36" stroke="black" stroke-width="2" stroke-linecap="round" stroke-linejoin="round"/>
<path id="Vector_51" d="M135 100V106" stroke="black" stroke-width="2" stroke-linecap="round" stroke-linejoin="round"/>
<path id="Vector_52" d="M135 102H137" stroke="black" stroke-width="2" stroke-linecap="round" stroke-linejoin="round"/>
<path id="Vector_53" d="M135 110C136.105 110 137 109.105 137 108C137 106.895 136.105 106 135 106C133.895 106 133 106.895 133 108C133 109.105 133.895 110 135 110Z" stroke="black" stroke-width="2" stroke-linecap="round" stroke-linejoin="round"/>
</g></svg>
