<svg viewBox="0 0 24 24" fill="none" xmlns="http://www.w3.org/2000/svg"><g transform="translate(-372 -88)">
<path id="Vector_70" d="M376 108H392C392.53 108 393.039 107.789 393.414 107.414C393.789 107.039 394 106.53 394 106V96C394 95.4696 393.789 94.9609 393.414 94.5858C393.039 94.2107 392.53 94 392 94H384.07C383.741 93.9983 383.417 93.9152 383.127 93.7582C382.838 93.6012 382.591 93.3751 382.41 93.1L381.59 91.9C381.409 91.6249 381.162 91.3988 380.873 91.2418C380.583 91.0848 380.259 91.0017 379.93 91H376C375.47 91 374.961 91.2107 374.586 91.5858C374.211 91.9609 374 92.4696 374 93V106C374 107.1 374.9 108 376 108Z" stroke="black" stroke-width="2" stroke-linecap="round" stroke-linejoin="round"/>
<path id="Vector_71" d="M384 103C385.105 103 386 102.105 386 101C386 99.8954 385.105 99 384 99C382.895 99 382 99.8954 382 101C382 102.105 382.895 103 384 103Z" stroke="black" stroke-width="2" stroke-linecap="round" stroke-linejoin="round"/>
<path id="Vector_72" d="M384 103V108" stroke="black" stroke-width="2" stroke-linecap="round" stroke-linejoin="round"/>
</g></svg>
