<svg viewBox="0 0 24 24" fill="none" xmlns="http://www.w3.org/2000/svg"><g transform="translate(-308 -88)">
<path id="Vector_65" d="M310 99.5V93C310 92.4696 310.211 91.9609 310.586 91.5858C310.961 91.2107 311.47 91 312 91H315.9C316.6 91 317.2 91.3 317.6 91.9L318.4 93.1C318.8 93.7 319.4 94 320.1 94H328C328.53 94 329.039 94.2107 329.414 94.5858C329.789 94.9609 330 95.4696 330 96V106C330 106.53 329.789 107.039 329.414 107.414C329.039 107.789 328.53 108 328 108H318.5" stroke="black" stroke-width="2" stroke-linecap="round" stroke-linejoin="round"/>
<path id="Vector_66" d="M319.378 101.626C319.575 101.429 319.732 101.195 319.838 100.937C319.945 100.679 320 100.403 320 100.124C320 99.8451 319.945 99.5689 319.838 99.3112C319.732 99.0534 319.575 98.8193 319.378 98.622C319.181 98.4248 318.947 98.2683 318.689 98.1616C318.431 98.0548 318.155 97.9999 317.876 97.9999C317.597 97.9999 317.321 98.0548 317.063 98.1616C316.805 98.2683 316.571 98.4248 316.374 98.622L311.364 103.634C311.126 103.872 310.952 104.165 310.858 104.488L310.021 107.358C309.996 107.444 309.994 107.535 310.017 107.622C310.039 107.709 310.084 107.788 310.147 107.852C310.211 107.915 310.29 107.96 310.377 107.982C310.464 108.005 310.555 108.003 310.641 107.978L313.511 107.141C313.834 107.047 314.127 106.873 314.365 106.635L319.378 101.626Z" stroke="black" stroke-width="2" stroke-linecap="round" stroke-linejoin="round"/>
</g></svg>
