<svg viewBox="0 0 24 24" fill="none" xmlns="http://www.w3.org/2000/svg"><g transform="translate(-52 -56)">
<path id="Vector_2" d="M67 77C68.1046 77 69 76.1046 69 75C69 73.8954 68.1046 73 67 73C65.8954 73 65 73.8954 65 75C65 76.1046 65.8954 77 67 77Z" stroke="black" stroke-width="2" stroke-linecap="round" stroke-linejoin="round"/>
<path id="Vector_3" d="M72.9 75.8C73.2329 75.6323 73.5122 75.3749 73.7066 75.0568C73.901 74.7388 74.0026 74.3727 74 74V64C74 63.4696 73.7893 62.9609 73.4142 62.5858C73.0391 62.2107 72.5304 62 72 62H64.1C63.7655 62.0033 63.4355 61.9226 63.1403 61.7654C62.8451 61.6081 62.594 61.3794 62.41 61.1L61.6 59.9C61.4179 59.6235 61.17 59.3965 60.8785 59.2394C60.587 59.0823 60.2611 59.0001 59.93 59H56C55.4696 59 54.9609 59.2107 54.5858 59.5858C54.2107 59.9609 54 60.4696 54 61V74C54 74.5304 54.2107 75.0391 54.5858 75.4142C54.9609 75.7893 55.4696 76 56 76H61.1" stroke="black" stroke-width="2" stroke-linecap="round" stroke-linejoin="round"/>
<path id="Vector_4" d="M67 67V66" stroke="black" stroke-width="2" stroke-linecap="round" stroke-linejoin="round"/>
<path id="Vector_5" d="M67 73V71" stroke="black" stroke-width="2" stroke-linecap="round" stroke-linejoin="round"/>
</g></svg>
