<svg viewBox="0 0 24 24" fill="none" xmlns="http://www.w3.org/2000/svg"><g transform="translate(-148 -56)">
<path id="Vector_10" d="M164 70V72.2L165.6 73.2" stroke="black" stroke-width="2" stroke-linecap="round" stroke-linejoin="round"/>
<path id="Vector_11" d="M155 76H152C151.47 76 150.961 75.7893 150.586 75.4142C150.211 75.0391 150 74.5304 150 74V61C150 60.4695 150.211 59.9608 150.586 59.5858C150.961 59.2107 151.47 59 152 59H155.9C156.234 58.9967 156.564 59.0774 156.86 59.2346C157.155 59.3918 157.406 59.6206 157.59 59.9L158.4 61.1C158.582 61.3765 158.83 61.6035 159.122 61.7606C159.413 61.9177 159.739 61.9999 160.07 62H168C168.53 62 169.039 62.2107 169.414 62.5858C169.789 62.9608 170 63.4695 170 64" stroke="black" stroke-width="2" stroke-linecap="round" stroke-linejoin="round"/>
<path id="Vector_12" d="M164 78C167.314 78 170 75.3137 170 72C170 68.6863 167.314 66 164 66C160.686 66 158 68.6863 158 72C158 75.3137 160.686 78 164 78Z" stroke="black" stroke-width="2" stroke-linecap="round" stroke-linejoin="round"/>
</g></svg>
