<svg viewBox="0 0 24 24" fill="none" xmlns="http://www.w3.org/2000/svg"><g transform="translate(-116 -120)">
<path id="Vector_81" d="M118 129.35V125C118 124.47 118.211 123.961 118.586 123.586C118.961 123.211 119.47 123 120 123H123.9C124.234 122.997 124.564 123.077 124.86 123.235C125.155 123.392 125.406 123.621 125.59 123.9L126.4 125.1C126.582 125.377 126.83 125.603 127.122 125.761C127.413 125.918 127.739 126 128.07 126H136C136.53 126 137.039 126.211 137.414 126.586C137.789 126.961 138 127.47 138 128V138C138 138.53 137.789 139.039 137.414 139.414C137.039 139.789 136.53 140 136 140H120C119.47 140 118.961 139.789 118.586 139.414C118.211 139.039 118 138.53 118 138V135C118 134.47 118.211 133.961 118.586 133.586C118.961 133.211 119.47 133 120 133H127" stroke="black" stroke-width="2" stroke-linecap="round" stroke-linejoin="round"/>
<path id="Vector_82" d="M124 136L127 133L124 130" stroke="black" stroke-width="2" stroke-linecap="round" stroke-linejoin="round"/>
</g></svg>
