<svg viewBox="0 0 24 24" fill="none" xmlns="http://www.w3.org/2000/svg"><g transform="translate(-52 -88)">
<path id="Vector_43" d="M54 97V93C54 92.4695 54.2107 91.9608 54.5858 91.5858C54.9609 91.2107 55.4696 91 56 91H59.9C60.2345 90.9967 60.5645 91.0774 60.8597 91.2346C61.1549 91.3918 61.406 91.6206 61.59 91.9L62.4 93.1C62.5821 93.3765 62.83 93.6035 63.1215 93.7606C63.413 93.9177 63.7389 93.9999 64.07 94H72C72.5304 94 73.0391 94.2107 73.4142 94.5858C73.7893 94.9608 74 95.4695 74 96V106C74 106.53 73.7893 107.039 73.4142 107.414C73.0391 107.789 72.5304 108 72 108H56C55.4696 108 54.9609 107.789 54.5858 107.414C54.2107 107.039 54 106.53 54 106V105" stroke="black" stroke-width="2" stroke-linecap="round" stroke-linejoin="round"/>
<path id="Vector_44" d="M54 101H64" stroke="black" stroke-width="2" stroke-linecap="round" stroke-linejoin="round"/>
<path id="Vector_45" d="M61 104L64 101L61 98" stroke="black" stroke-width="2" stroke-linecap="round" stroke-linejoin="round"/>
</g></svg>
