<svg viewBox="0 0 24 24" fill="none" xmlns="http://www.w3.org/2000/svg"><g transform="translate(-276 -88)">
<path id="Vector_62" d="M278 95.5V93C278 92.4695 278.211 91.9608 278.586 91.5858C278.961 91.2107 279.47 91 280 91H283.9C284.234 90.9967 284.564 91.0774 284.86 91.2346C285.155 91.3918 285.406 91.6206 285.59 91.9L286.4 93.1C286.582 93.3765 286.83 93.6035 287.122 93.7606C287.413 93.9177 287.739 93.9999 288.07 94H296C296.53 94 297.039 94.2107 297.414 94.5858C297.789 94.9608 298 95.4695 298 96V106C298 106.53 297.789 107.039 297.414 107.414C297.039 107.789 296.53 108 296 108H280C279.546 108.014 279.1 107.874 278.737 107.601C278.373 107.328 278.113 106.94 278 106.5" stroke="black" stroke-width="2" stroke-linecap="round" stroke-linejoin="round"/>
<path id="Vector_63" d="M278 101H288" stroke="black" stroke-width="2" stroke-linecap="round" stroke-linejoin="round"/>
<path id="Vector_64" d="M281 98L278 101L281 104" stroke="black" stroke-width="2" stroke-linecap="round" stroke-linejoin="round"/>
</g></svg>
