<svg viewBox="0 0 24 24" fill="none" xmlns="http://www.w3.org/2000/svg"><g transform="translate(-116 -56)">
<path id="Vector_8" d="M136 76C136.53 76 137.039 75.7893 137.414 75.4142C137.789 75.0391 138 74.5304 138 74V64C138 63.4696 137.789 62.9609 137.414 62.5858C137.039 62.2107 136.53 62 136 62H128.1C127.766 62.0033 127.436 61.9226 127.14 61.7654C126.845 61.6081 126.594 61.3794 126.41 61.1L125.6 59.9C125.418 59.6235 125.17 59.3965 124.878 59.2394C124.587 59.0823 124.261 59.0001 123.93 59H120C119.47 59 118.961 59.2107 118.586 59.5858C118.211 59.9609 118 60.4696 118 61V74C118 74.5304 118.211 75.0391 118.586 75.4142C118.961 75.7893 119.47 76 120 76H136Z" stroke="black" stroke-width="2" stroke-linecap="round" stroke-linejoin="round"/>
<path id="Vector_9" d="M125 69L127 71L131 67" stroke="black" stroke-width="2" stroke-linecap="round" stroke-linejoin="round"/>
</g></svg>
