<svg viewBox="0 0 24 24" fill="none" xmlns="http://www.w3.org/2000/svg"><g transform="translate(-84 -56)">
<path id="Vector_6" d="M96 62V70L99 67L102 70V62" stroke="black" stroke-width="2" stroke-linecap="round" stroke-linejoin="round"/>
<path id="Vector_7" d="M104 76C104.53 76 105.039 75.7893 105.414 75.4142C105.789 75.0391 106 74.5304 106 74V64C106 63.4696 105.789 62.9609 105.414 62.5858C105.039 62.2107 104.53 62 104 62H96.1C95.7655 62.0033 95.4355 61.9226 95.1403 61.7654C94.8451 61.6081 94.594 61.3794 94.41 61.1L93.6 59.9C93.4179 59.6235 93.17 59.3965 92.8785 59.2394C92.587 59.0823 92.2611 59.0001 91.93 59H88C87.4696 59 86.9609 59.2107 86.5858 59.5858C86.2107 59.9609 86 60.4696 86 61V74C86 74.5304 86.2107 75.0391 86.5858 75.4142C86.9609 75.7893 87.4696 76 88 76H104Z" stroke="black" stroke-width="2" stroke-linecap="round" stroke-linejoin="round"/>
</g></svg>
