<svg viewBox="0 0 24 24" fill="none" xmlns="http://www.w3.org/2000/svg"><g transform="translate(-308 -56)">
<path id="Vector_30" d="M328 76C328.53 76 329.039 75.7893 329.414 75.4142C329.789 75.0391 330 74.5304 330 74V64C330 63.4696 329.789 62.9609 329.414 62.5858C329.039 62.2107 328.53 62 328 62H320.1C319.766 62.0033 319.436 61.9226 319.14 61.7654C318.845 61.6081 318.594 61.3794 318.41 61.1L317.6 59.9C317.418 59.6235 317.17 59.3965 316.878 59.2394C316.587 59.0823 316.261 59.0001 315.93 59H312C311.47 59 310.961 59.2107 310.586 59.5858C310.211 59.9609 310 60.4696 310 61V74C310 74.5304 310.211 75.0391 310.586 75.4142C310.961 75.7893 311.47 76 312 76H328Z" stroke="black" stroke-width="2" stroke-linecap="round" stroke-linejoin="round"/>
<path id="Vector_31" d="M320 66V72" stroke="black" stroke-width="2" stroke-linecap="round" stroke-linejoin="round"/>
<path id="Vector_32" d="M323 69L320 72L317 69" stroke="black" stroke-width="2" stroke-linecap="round" stroke-linejoin="round"/>
</g></svg>
