<svg viewBox="0 0 24 24" fill="none" xmlns="http://www.w3.org/2000/svg"><g transform="translate(-52 -120)">
<path id="Vector_75" d="M62.7 140H56C55.4696 140 54.9609 139.789 54.5858 139.414C54.2107 139.039 54 138.53 54 138V125C54 124.47 54.2107 123.961 54.5858 123.586C54.9609 123.211 55.4696 123 56 123H59.9C60.2345 122.997 60.5645 123.077 60.8597 123.235C61.1549 123.392 61.406 123.621 61.59 123.9L62.4 125.1C62.5821 125.377 62.83 125.603 63.1215 125.761C63.413 125.918 63.7389 126 64.07 126H72C72.5304 126 73.0391 126.211 73.4142 126.586C73.7893 126.961 74 127.47 74 128V132.1" stroke="black" stroke-width="2" stroke-linecap="round" stroke-linejoin="round"/>
<path id="Vector_76" d="M72.9996 141L71.0996 139.1" stroke="black" stroke-width="2" stroke-linecap="round" stroke-linejoin="round"/>
<path id="Vector_77" d="M69 140C70.6569 140 72 138.657 72 137C72 135.343 70.6569 134 69 134C67.3431 134 66 135.343 66 137C66 138.657 67.3431 140 69 140Z" stroke="black" stroke-width="2" stroke-linecap="round" stroke-linejoin="round"/>
</g></svg>
