<svg viewBox="0 0 24 24" fill="none" xmlns="http://www.w3.org/2000/svg"><g transform="translate(-20 -120)">
<path id="Vector_73" d="M40 125C40.5304 125 41.0391 125.211 41.4142 125.586C41.7893 125.961 42 126.47 42 127V134C42 134.53 41.7893 135.039 41.4142 135.414C41.0391 135.789 40.5304 136 40 136H29C28.4696 136 27.9609 135.789 27.5858 135.414C27.2107 135.039 27 134.53 27 134V125C27 124.47 27.2107 123.961 27.5858 123.586C27.9609 123.211 28.4696 123 29 123H31.5C31.7329 123 31.9625 123.054 32.1708 123.158C32.3791 123.263 32.5603 123.414 32.7 123.6L33.3 124.4C33.4397 124.586 33.6209 124.737 33.8292 124.842C34.0375 124.946 34.2671 125 34.5 125H40Z" stroke="black" stroke-width="2" stroke-linecap="round" stroke-linejoin="round"/>
<path id="Vector_74" d="M23 128.268C22.6951 128.444 22.4421 128.697 22.2665 129.003C22.0909 129.308 21.999 129.654 22 130.006V139C22 139.53 22.2107 140.039 22.5858 140.414C22.9609 140.789 23.4696 141 24 141H35C35.3511 141 35.696 140.908 36 140.732C36.304 140.556 36.5565 140.304 36.732 140" stroke="black" stroke-width="2" stroke-linecap="round" stroke-linejoin="round"/>
</g></svg>
