<svg viewBox="0 0 24 24" fill="none" xmlns="http://www.w3.org/2000/svg"><g transform="translate(-20 -88)">
<path id="Vector_41" d="M30.638 108H24C23.4696 108 22.9609 107.789 22.5858 107.414C22.2107 107.039 22 106.53 22 106V93C22 92.4695 22.2107 91.9608 22.5858 91.5858C22.9609 91.2107 23.4696 91 24 91H27.9C28.2345 90.9967 28.5645 91.0774 28.8597 91.2346C29.1549 91.3918 29.406 91.6206 29.59 91.9L30.4 93.1C30.5821 93.3765 30.83 93.6035 31.1215 93.7606C31.413 93.9177 31.7389 93.9999 32.07 94H40C40.5304 94 41.0391 94.2107 41.4142 94.5858C41.7893 94.9608 42 95.4695 42 96V99.417" stroke="black" stroke-width="2" stroke-linecap="round" stroke-linejoin="round"/>
<path id="Vector_42" d="M34.6203 106.8C34.4099 106.581 34.2462 106.321 34.1389 106.037C34.0317 105.752 33.9831 105.449 33.9962 105.145C34.0094 104.842 34.0838 104.544 34.2152 104.27C34.3466 103.996 34.5322 103.751 34.7607 103.551C34.9892 103.35 35.2559 103.198 35.5448 103.104C35.8337 103.01 36.1387 102.975 36.4414 103.001C36.7442 103.028 37.0384 103.116 37.3063 103.259C37.5742 103.403 37.8103 103.599 38.0003 103.836C38.1912 103.601 38.4275 103.407 38.6951 103.266C38.9626 103.125 39.2559 103.039 39.5574 103.014C39.8589 102.988 40.1624 103.024 40.4498 103.119C40.7372 103.213 41.0026 103.365 41.23 103.564C41.4574 103.764 41.6422 104.007 41.7734 104.28C41.9046 104.553 41.9795 104.849 41.9935 105.151C42.0076 105.454 41.9605 105.755 41.8551 106.039C41.7498 106.323 41.5883 106.582 41.3803 106.802L38.7543 109.658C38.6606 109.766 38.5449 109.852 38.4149 109.912C38.2849 109.971 38.1437 110.002 38.0008 110.002C37.858 110.002 37.7167 109.971 37.5868 109.912C37.4568 109.852 37.341 109.766 37.2473 109.658L34.6203 106.8Z" stroke="black" stroke-width="2" stroke-linecap="round" stroke-linejoin="round"/>
</g></svg>
