<svg viewBox="0 0 24 24" fill="none" xmlns="http://www.w3.org/2000/svg"><g transform="translate(-148 -120)">
<path id="Vector_83" d="M157 140H152C151.47 140 150.961 139.789 150.586 139.414C150.211 139.039 150 138.53 150 138V125C150 124.47 150.211 123.961 150.586 123.586C150.961 123.211 151.47 123 152 123H155.9C156.234 122.997 156.564 123.077 156.86 123.235C157.155 123.392 157.406 123.621 157.59 123.9L158.4 125.1C158.582 125.377 158.83 125.603 159.122 125.761C159.413 125.918 159.739 126 160.07 126H168C168.53 126 169.039 126.211 169.414 126.586C169.789 126.961 170 127.47 170 128V128.5" stroke="black" stroke-width="2" stroke-linecap="round" stroke-linejoin="round"/>
<path id="Vector_84" d="M160 130V134H164" stroke="black" stroke-width="2" stroke-linecap="round" stroke-linejoin="round"/>
<path id="Vector_85" d="M160 134L161.535 132.395C162.109 131.843 162.807 131.437 163.569 131.209C164.332 130.981 165.139 130.939 165.921 131.086C166.704 131.232 167.44 131.564 168.068 132.052C168.697 132.541 169.2 133.173 169.535 133.895" stroke="black" stroke-width="2" stroke-linecap="round" stroke-linejoin="round"/>
<path id="Vector_86" d="M170 142V138H166" stroke="black" stroke-width="2" stroke-linecap="round" stroke-linejoin="round"/>
<path id="Vector_87" d="M170 138L168.465 139.605C167.891 140.157 167.193 140.563 166.43 140.791C165.668 141.019 164.861 141.061 164.079 140.914C163.296 140.768 162.56 140.436 161.931 139.948C161.303 139.459 160.8 138.827 160.465 138.105" stroke="black" stroke-width="2" stroke-linecap="round" stroke-linejoin="round"/>
</g></svg>
