<svg viewBox="0 0 24 24" fill="none" xmlns="http://www.w3.org/2000/svg"><g transform="translate(-212 -120)">
<path id="Vector_92" d="M232 140C232.53 140 233.039 139.789 233.414 139.414C233.789 139.039 234 138.53 234 138V128C234 127.47 233.789 126.961 233.414 126.586C233.039 126.211 232.53 126 232 126H224.1C223.766 126.003 223.436 125.923 223.14 125.765C222.845 125.608 222.594 125.379 222.41 125.1L221.6 123.9C221.418 123.623 221.17 123.396 220.878 123.239C220.587 123.082 220.261 123 219.93 123H216C215.47 123 214.961 123.211 214.586 123.586C214.211 123.961 214 124.47 214 125V138C214 138.53 214.211 139.039 214.586 139.414C214.961 139.789 215.47 140 216 140H232Z" stroke="black" stroke-width="2" stroke-linecap="round" stroke-linejoin="round"/>
<path id="Vector_93" d="M224 130V136" stroke="black" stroke-width="2" stroke-linecap="round" stroke-linejoin="round"/>
<path id="Vector_94" d="M221 133L224 130L227 133" stroke="black" stroke-width="2" stroke-linecap="round" stroke-linejoin="round"/>
</g></svg>
