<svg viewBox="0 0 24 24" fill="none" xmlns="http://www.w3.org/2000/svg"><g transform="translate(-84 -88)">
<path id="Vector_46" d="M88 108H104C104.53 108 105.039 107.789 105.414 107.414C105.789 107.039 106 106.53 106 106V96C106 95.4696 105.789 94.9609 105.414 94.5858C105.039 94.2107 104.53 94 104 94H96.07C95.7406 93.9983 95.4167 93.9152 95.1271 93.7582C94.8375 93.6012 94.5912 93.3751 94.41 93.1L93.59 91.9C93.4088 91.6249 93.1625 91.3988 92.8729 91.2418C92.5833 91.0848 92.2594 91.0017 91.93 91H88C87.4696 91 86.9609 91.2107 86.5858 91.5858C86.2107 91.9609 86 92.4696 86 93V106C86 107.1 86.9 108 88 108Z" stroke="black" stroke-width="2" stroke-linecap="round" stroke-linejoin="round"/>
<path id="Vector_47" d="M92 98V102" stroke="black" stroke-width="2" stroke-linecap="round" stroke-linejoin="round"/>
<path id="Vector_48" d="M96 98V100" stroke="black" stroke-width="2" stroke-linecap="round" stroke-linejoin="round"/>
<path id="Vector_49" d="M100 98V104" stroke="black" stroke-width="2" stroke-linecap="round" stroke-linejoin="round"/>
</g></svg>
