<svg viewBox="0 0 24 24" fill="none" xmlns="http://www.w3.org/2000/svg"><g transform="translate(-212 -88)">
<path id="Vector_59" d="M218 102L219.5 99.1C219.663 98.7761 219.911 98.5027 220.218 98.3089C220.524 98.1152 220.877 98.0084 221.24 98H232M232 98C232.306 97.9994 232.607 98.0689 232.882 98.2031C233.156 98.3372 233.396 98.5325 233.584 98.7738C233.771 99.0152 233.9 99.2963 233.962 99.5955C234.024 99.8947 234.016 100.204 233.94 100.5L232.4 106.5C232.289 106.932 232.036 107.314 231.683 107.585C231.33 107.857 230.896 108.003 230.45 108H216C215.47 108 214.961 107.789 214.586 107.414C214.211 107.039 214 106.53 214 106V93C214 92.4695 214.211 91.9608 214.586 91.5858C214.961 91.2107 215.47 91 216 91H219.9C220.234 90.9967 220.564 91.0774 220.86 91.2346C221.155 91.3918 221.406 91.6206 221.59 91.9L222.4 93.1C222.582 93.3765 222.83 93.6035 223.122 93.7606C223.413 93.9177 223.739 93.9999 224.07 94H230C230.53 94 231.039 94.2107 231.414 94.5858C231.789 94.9608 232 95.4695 232 96V98Z" stroke="black" stroke-width="2" stroke-linecap="round" stroke-linejoin="round"/>
</g></svg>
