<svg viewBox="0 0 24 24" fill="none" xmlns="http://www.w3.org/2000/svg"><g transform="translate(-244 -88)">
<path id="Vector_60" d="M250 102L251.45 99.1C251.617 98.7687 251.873 98.4903 252.189 98.296C252.505 98.1018 252.869 97.9993 253.24 98H264M264 98C264.306 97.9995 264.607 98.0689 264.882 98.2031C265.156 98.3372 265.396 98.5325 265.584 98.7739C265.771 99.0152 265.9 99.2963 265.962 99.5956C266.024 99.8948 266.016 100.204 265.94 100.5L264.39 106.5C264.279 106.93 264.028 107.311 263.677 107.582C263.326 107.854 262.894 108.001 262.45 108H248C247.47 108 246.961 107.789 246.586 107.414C246.211 107.039 246 106.53 246 106V93C246 91.9 246.9 91 248 91H251.93C252.259 91.0017 252.583 91.0848 252.873 91.2418C253.162 91.3988 253.409 91.6249 253.59 91.9L254.41 93.1C254.591 93.3751 254.838 93.6012 255.127 93.7582C255.417 93.9152 255.741 93.9983 256.07 94H262C262.53 94 263.039 94.2107 263.414 94.5858C263.789 94.9609 264 95.4696 264 96V98Z" stroke="black" stroke-width="2" stroke-linecap="round" stroke-linejoin="round"/>
<path id="Vector_61" d="M258 104C258.552 104 259 103.552 259 103C259 102.448 258.552 102 258 102C257.448 102 257 102.448 257 103C257 103.552 257.448 104 258 104Z" stroke="black" stroke-width="2" stroke-linecap="round" stroke-linejoin="round"/>
</g></svg>
