<svg viewBox="0 0 24 24" fill="none" xmlns="http://www.w3.org/2000/svg"><g transform="translate(-180 -88)">
<path id="Vector_57" d="M189 101H195" stroke="black" stroke-width="2" stroke-linecap="round" stroke-linejoin="round"/>
<path id="Vector_58" d="M200 108C200.53 108 201.039 107.789 201.414 107.414C201.789 107.039 202 106.53 202 106V96C202 95.4696 201.789 94.9609 201.414 94.5858C201.039 94.2107 200.53 94 200 94H192.1C191.766 94.0033 191.436 93.9226 191.14 93.7654C190.845 93.6081 190.594 93.3794 190.41 93.1L189.6 91.9C189.418 91.6235 189.17 91.3965 188.878 91.2394C188.587 91.0823 188.261 91.0001 187.93 91H184C183.47 91 182.961 91.2107 182.586 91.5858C182.211 91.9609 182 92.4696 182 93V106C182 106.53 182.211 107.039 182.586 107.414C182.961 107.789 183.47 108 184 108H200Z" stroke="black" stroke-width="2" stroke-linecap="round" stroke-linejoin="round"/>
</g></svg>
