<svg viewBox="0 0 24 24" fill="none" xmlns="http://www.w3.org/2000/svg"><g transform="translate(-212 -56)">
<path id="Vector_15" d="M222 66.5L220 69L222 71.5" stroke="black" stroke-width="2" stroke-linecap="round" stroke-linejoin="round"/>
<path id="Vector_16" d="M226 66.5L228 69L226 71.5" stroke="black" stroke-width="2" stroke-linecap="round" stroke-linejoin="round"/>
<path id="Vector_17" d="M232 76C232.53 76 233.039 75.7893 233.414 75.4142C233.789 75.0391 234 74.5304 234 74V64C234 63.4696 233.789 62.9609 233.414 62.5858C233.039 62.2107 232.53 62 232 62H224.1C223.766 62.0033 223.436 61.9226 223.14 61.7654C222.845 61.6081 222.594 61.3794 222.41 61.1L221.6 59.9C221.418 59.6235 221.17 59.3965 220.878 59.2394C220.587 59.0823 220.261 59.0001 219.93 59H216C215.47 59 214.961 59.2107 214.586 59.5858C214.211 59.9609 214 60.4696 214 61V74C214 74.5304 214.211 75.0391 214.586 75.4142C214.961 75.7893 215.47 76 216 76H232Z" stroke="black" stroke-width="2" stroke-linecap="round" stroke-linejoin="round"/>
</g></svg>
