<svg viewBox="0 0 24 24" fill="none" xmlns="http://www.w3.org/2000/svg"><g transform="translate(-340 -88)">
<path id="Vector_67" d="M352 98V104" stroke="black" stroke-width="2" stroke-linecap="round" stroke-linejoin="round"/>
<path id="Vector_68" d="M349 101H355" stroke="black" stroke-width="2" stroke-linecap="round" stroke-linejoin="round"/>
<path id="Vector_69" d="M360 108C360.53 108 361.039 107.789 361.414 107.414C361.789 107.039 362 106.53 362 106V96C362 95.4696 361.789 94.9609 361.414 94.5858C361.039 94.2107 360.53 94 360 94H352.1C351.766 94.0033 351.436 93.9226 351.14 93.7654C350.845 93.6081 350.594 93.3794 350.41 93.1L349.6 91.9C349.418 91.6235 349.17 91.3965 348.878 91.2394C348.587 91.0823 348.261 91.0001 347.93 91H344C343.47 91 342.961 91.2107 342.586 91.5858C342.211 91.9609 342 92.4696 342 93V106C342 106.53 342.211 107.039 342.586 107.414C342.961 107.789 343.47 108 344 108H360Z" stroke="black" stroke-width="2" stroke-linecap="round" stroke-linejoin="round"/>
</g></svg>
