<svg viewBox="0 0 24 24" fill="none" xmlns="http://www.w3.org/2000/svg"><g transform="translate(-244 -56)">
<path id="Vector_18" d="M254.3 76H248C247.47 76 246.961 75.7893 246.586 75.4142C246.211 75.0391 246 74.5304 246 74V61C246 60.4695 246.211 59.9608 246.586 59.5858C246.961 59.2107 247.47 59 248 59H251.98C252.314 58.9967 252.644 59.0774 252.94 59.2346C253.235 59.3918 253.486 59.6206 253.67 59.9L254.33 61.1C254.512 61.3765 254.76 61.6035 255.052 61.7606C255.343 61.9177 255.669 61.9999 256 62H264C264.53 62 265.039 62.2107 265.414 62.5858C265.789 62.9608 266 63.4695 266 64V67.3" stroke="black" stroke-width="2" stroke-linecap="round" stroke-linejoin="round"/>
<path id="Vector_19" d="M258.305 75.5299L259.228 75.1479" stroke="black" stroke-width="2" stroke-linecap="round" stroke-linejoin="round"/>
<path id="Vector_20" d="M259.228 72.852L258.305 72.469" stroke="black" stroke-width="2" stroke-linecap="round" stroke-linejoin="round"/>
<path id="Vector_21" d="M260.852 71.2281L260.469 70.3051" stroke="black" stroke-width="2" stroke-linecap="round" stroke-linejoin="round"/>
<path id="Vector_22" d="M260.852 76.772L260.469 77.696" stroke="black" stroke-width="2" stroke-linecap="round" stroke-linejoin="round"/>
<path id="Vector_23" d="M263.148 71.2281L263.531 70.3051" stroke="black" stroke-width="2" stroke-linecap="round" stroke-linejoin="round"/>
<path id="Vector_24" d="M263.53 77.696L263.148 76.772" stroke="black" stroke-width="2" stroke-linecap="round" stroke-linejoin="round"/>
<path id="Vector_25" d="M264.772 72.852L265.696 72.469" stroke="black" stroke-width="2" stroke-linecap="round" stroke-linejoin="round"/>
<path id="Vector_26" d="M264.772 75.1479L265.696 75.5309" stroke="black" stroke-width="2" stroke-linecap="round" stroke-linejoin="round"/>
<path id="Vector_27" d="M262 77C263.657 77 265 75.6569 265 74C265 72.3431 263.657 71 262 71C260.343 71 259 72.3431 259 74C259 75.6569 260.343 77 262 77Z" stroke="black" stroke-width="2" stroke-linecap="round" stroke-linejoin="round"/>
</g></svg>
