<svg viewBox="0 0 24 24" fill="none" xmlns="http://www.w3.org/2000/svg"><g transform="translate(-20 -56)">
<path id="Vector" d="M40 76C40.5304 76 41.0391 75.7893 41.4142 75.4142C41.7893 75.0391 42 74.5304 42 74V64C42 63.4696 41.7893 62.9609 41.4142 62.5858C41.0391 62.2107 40.5304 62 40 62H32.1C31.7655 62.0033 31.4355 61.9226 31.1403 61.7654C30.8451 61.6081 30.594 61.3794 30.41 61.1L29.6 59.9C29.4179 59.6235 29.17 59.3965 28.8785 59.2394C28.587 59.0823 28.2611 59.0001 27.93 59H24C23.4696 59 22.9609 59.2107 22.5858 59.5858C22.2107 59.9609 22 60.4696 22 61V74C22 74.5304 22.2107 75.0391 22.5858 75.4142C22.9609 75.7893 23.4696 76 24 76H40Z" stroke="black" stroke-width="2" stroke-linecap="round" stroke-linejoin="round"/>
</g></svg>
