<svg viewBox="0 0 24 24" fill="none" xmlns="http://www.w3.org/2000/svg"><g transform="translate(-84 -120)">
<path id="Vector_78" d="M95.5 135C96.8807 135 98 133.881 98 132.5C98 131.119 96.8807 130 95.5 130C94.1193 130 93 131.119 93 132.5C93 133.881 94.1193 135 95.5 135Z" stroke="black" stroke-width="2" stroke-linecap="round" stroke-linejoin="round"/>
<path id="Vector_79" d="M104 140C104.53 140 105.039 139.789 105.414 139.414C105.789 139.039 106 138.53 106 138V128C106 127.47 105.789 126.961 105.414 126.586C105.039 126.211 104.53 126 104 126H96.1C95.7655 126.003 95.4355 125.923 95.1403 125.765C94.8451 125.608 94.594 125.379 94.41 125.1L93.6 123.9C93.4179 123.623 93.17 123.396 92.8785 123.239C92.587 123.082 92.2611 123 91.93 123H88C87.4696 123 86.9609 123.211 86.5858 123.586C86.2107 123.961 86 124.47 86 125V138C86 138.53 86.2107 139.039 86.5858 139.414C86.9609 139.789 87.4696 140 88 140H104Z" stroke="black" stroke-width="2" stroke-linecap="round" stroke-linejoin="round"/>
<path id="Vector_80" d="M97.2998 134.3L98.9998 136" stroke="black" stroke-width="2" stroke-linecap="round" stroke-linejoin="round"/>
</g></svg>
