<svg viewBox="0 0 24 24" fill="none" xmlns="http://www.w3.org/2000/svg"><g transform="translate(-244 -120)">
<path id="Vector_95" d="M264 140C264.53 140 265.039 139.789 265.414 139.414C265.789 139.039 266 138.53 266 138V128C266 127.47 265.789 126.961 265.414 126.586C265.039 126.211 264.53 126 264 126H256.1C255.766 126.003 255.436 125.923 255.14 125.765C254.845 125.608 254.594 125.379 254.41 125.1L253.6 123.9C253.418 123.623 253.17 123.396 252.878 123.239C252.587 123.082 252.261 123 251.93 123H248C247.47 123 246.961 123.211 246.586 123.586C246.211 123.961 246 124.47 246 125V138C246 138.53 246.211 139.039 246.586 139.414C246.961 139.789 247.47 140 248 140H264Z" stroke="black" stroke-width="2" stroke-linecap="round" stroke-linejoin="round"/>
<path id="Vector_96" d="M253.5 130.5L258.5 135.5" stroke="black" stroke-width="2" stroke-linecap="round" stroke-linejoin="round"/>
<path id="Vector_97" d="M258.5 130.5L253.5 135.5" stroke="black" stroke-width="2" stroke-linecap="round" stroke-linejoin="round"/>
</g></svg>
