<svg viewBox="0 0 24 24" fill="none" xmlns="http://www.w3.org/2000/svg"><g transform="translate(-180 -56)">
<path id="Vector_13" d="M200 76C200.53 76 201.039 75.7893 201.414 75.4142C201.789 75.0391 202 74.5304 202 74V64C202 63.4696 201.789 62.9609 201.414 62.5858C201.039 62.2107 200.53 62 200 62H192.1C191.766 62.0033 191.436 61.9226 191.14 61.7654C190.845 61.6081 190.594 61.3794 190.41 61.1L189.6 59.9C189.418 59.6235 189.17 59.3965 188.878 59.2394C188.587 59.0823 188.261 59.0001 187.93 59H184C183.47 59 182.961 59.2107 182.586 59.5858C182.211 59.9609 182 60.4696 182 61V74C182 74.5304 182.211 75.0391 182.586 75.4142C182.961 75.7893 183.47 76 184 76H200Z" stroke="black" stroke-width="2" stroke-linecap="round" stroke-linejoin="round"/>
<path id="Vector_14" d="M182 66H202" stroke="black" stroke-width="2" stroke-linecap="round" stroke-linejoin="round"/>
</g></svg>
