<svg viewBox="0 0 24 24" fill="none" xmlns="http://www.w3.org/2000/svg"><g transform="translate(-372 -56)">
<path id="Vector_37" d="M390 75C388.674 75 387.402 74.4732 386.464 73.5355C385.527 72.5979 385 71.3261 385 70V78" stroke="black" stroke-width="2" stroke-linecap="round" stroke-linejoin="round"/>
<path id="Vector_38" d="M381 76H376C375.47 76 374.961 75.7893 374.586 75.4142C374.211 75.0391 374 74.5304 374 74V61C374 60.4695 374.211 59.9608 374.586 59.5858C374.961 59.2107 375.47 59 376 59H379.9C380.234 58.9967 380.564 59.0774 380.86 59.2346C381.155 59.3918 381.406 59.6206 381.59 59.9L382.4 61.1C382.582 61.3765 382.83 61.6035 383.122 61.7606C383.413 61.9177 383.739 61.9999 384.07 62H392C392.53 62 393.039 62.2107 393.414 62.5858C393.789 62.9608 394 63.4695 394 64V69" stroke="black" stroke-width="2" stroke-linecap="round" stroke-linejoin="round"/>
<path id="Vector_39" d="M385 70C386.105 70 387 69.1046 387 68C387 66.8954 386.105 66 385 66C383.895 66 383 66.8954 383 68C383 69.1046 383.895 70 385 70Z" stroke="black" stroke-width="2" stroke-linecap="round" stroke-linejoin="round"/>
<path id="Vector_40" d="M392 77C393.105 77 394 76.1046 394 75C394 73.8954 393.105 73 392 73C390.895 73 390 73.8954 390 75C390 76.1046 390.895 77 392 77Z" stroke="black" stroke-width="2" stroke-linecap="round" stroke-linejoin="round"/>
</g></svg>
