<svg viewBox="0 0 24 24" fill="none" xmlns="http://www.w3.org/2000/svg"><g transform="translate(-340 -56)">
<path id="Vector_33" d="M352 71C353.105 71 354 70.1046 354 69C354 67.8954 353.105 67 352 67C350.895 67 350 67.8954 350 69C350 70.1046 350.895 71 352 71Z" stroke="black" stroke-width="2" stroke-linecap="round" stroke-linejoin="round"/>
<path id="Vector_34" d="M360 76C360.53 76 361.039 75.7893 361.414 75.4142C361.789 75.0391 362 74.5304 362 74V64C362 63.4696 361.789 62.9609 361.414 62.5858C361.039 62.2107 360.53 62 360 62H352.1C351.766 62.0033 351.436 61.9226 351.14 61.7654C350.845 61.6081 350.594 61.3794 350.41 61.1L349.6 59.9C349.418 59.6235 349.17 59.3965 348.878 59.2394C348.587 59.0823 348.261 59.0001 347.93 59H344C343.47 59 342.961 59.2107 342.586 59.5858C342.211 59.9609 342 60.4696 342 61V74C342 74.5304 342.211 75.0391 342.586 75.4142C342.961 75.7893 343.47 76 344 76H360Z" stroke="black" stroke-width="2" stroke-linecap="round" stroke-linejoin="round"/>
<path id="Vector_35" d="M354 69H357" stroke="black" stroke-width="2" stroke-linecap="round" stroke-linejoin="round"/>
<path id="Vector_36" d="M347 69H350" stroke="black" stroke-width="2" stroke-linecap="round" stroke-linejoin="round"/>
</g></svg>
