<svg viewBox="0 0 24 24" fill="none" xmlns="http://www.w3.org/2000/svg"><g transform="translate(-276 -56)">
<path id="Vector_28" d="M280 76H296C296.53 76 297.039 75.7893 297.414 75.4142C297.789 75.0391 298 74.5304 298 74V64C298 63.4696 297.789 62.9609 297.414 62.5858C297.039 62.2107 296.53 62 296 62H288.07C287.741 61.9983 287.417 61.9152 287.127 61.7582C286.838 61.6012 286.591 61.3751 286.41 61.1L285.59 59.9C285.409 59.6249 285.162 59.3988 284.873 59.2418C284.583 59.0848 284.259 59.0017 283.93 59H280C279.47 59 278.961 59.2107 278.586 59.5858C278.211 59.9609 278 60.4696 278 61V74C278 75.1 278.9 76 280 76Z" stroke="black" stroke-width="2" stroke-linecap="round" stroke-linejoin="round"/>
<path id="Vector_29" d="M288 70C288.552 70 289 69.5523 289 69C289 68.4477 288.552 68 288 68C287.448 68 287 68.4477 287 69C287 69.5523 287.448 70 288 70Z" stroke="black" stroke-width="2" stroke-linecap="round" stroke-linejoin="round"/>
</g></svg>
