<svg viewBox="0 0 24 24" fill="none" xmlns="http://www.w3.org/2000/svg"><g transform="translate(-372 -56)">
<path id="Vector_69" d="M376 72V69.62C376 67.5 374.97 66.5 375 64C375.03 61.28 376.49 58 379.5 58C381.37 58 382 59.8 382 61.5C382 64.61 380 67.16 380 70.18V72C380 72.5304 379.789 73.0391 379.414 73.4142C379.039 73.7893 378.53 74 378 74C377.469 74 376.961 73.7893 376.585 73.4142C376.21 73.0391 376 72.5304 376 72Z" stroke="black" stroke-width="2" stroke-linecap="round" stroke-linejoin="round"/>
<path id="Vector_70" d="M392 76V73.62C392 71.5 393.03 70.5 393 68C392.97 65.28 391.51 62 388.5 62C386.63 62 386 63.8 386 65.5C386 68.61 388 71.16 388 74.18V76C388 76.5304 388.211 77.0391 388.586 77.4142C388.961 77.7893 389.47 78 390 78C390.53 78 391.039 77.7893 391.414 77.4142C391.789 77.0391 392 76.5304 392 76Z" stroke="black" stroke-width="2" stroke-linecap="round" stroke-linejoin="round"/>
<path id="Vector_71" d="M388 73H392" stroke="black" stroke-width="2" stroke-linecap="round" stroke-linejoin="round"/>
<path id="Vector_72" d="M376 69H380" stroke="black" stroke-width="2" stroke-linecap="round" stroke-linejoin="round"/>
</g></svg>
