<svg viewBox="0 0 24 24" fill="none" xmlns="http://www.w3.org/2000/svg"><g transform="translate(-20 -88)">
<path id="Vector_73" d="M32 100H25C24.4696 100 23.9609 100.211 23.5858 100.586C23.2107 100.961 23 101.47 23 102V107" stroke="black" stroke-width="2" stroke-linecap="round" stroke-linejoin="round"/>
<path id="Vector_74" d="M35 107H42" stroke="black" stroke-width="2" stroke-linecap="round" stroke-linejoin="round"/>
<path id="Vector_75" d="M36 107V90" stroke="black" stroke-width="2" stroke-linecap="round" stroke-linejoin="round"/>
<path id="Vector_76" d="M26 100V95C26 94.4696 26.2107 93.9609 26.5858 93.5858C26.9609 93.2107 27.4696 93 28 93H30.172C30.7024 93.0001 31.211 93.2109 31.586 93.586L35.414 97.414C35.7891 97.789 35.9999 98.2976 36 98.828" stroke="black" stroke-width="2" stroke-linecap="round" stroke-linejoin="round"/>
<path id="Vector_77" d="M27 107H31" stroke="black" stroke-width="2" stroke-linecap="round" stroke-linejoin="round"/>
<path id="Vector_78" d="M33 109C34.1046 109 35 108.105 35 107C35 105.895 34.1046 105 33 105C31.8954 105 31 105.895 31 107C31 108.105 31.8954 109 33 109Z" stroke="black" stroke-width="2" stroke-linecap="round" stroke-linejoin="round"/>
<path id="Vector_79" d="M25 109C26.1046 109 27 108.105 27 107C27 105.895 26.1046 105 25 105C23.8954 105 23 105.895 23 107C23 108.105 23.8954 109 25 109Z" stroke="black" stroke-width="2" stroke-linecap="round" stroke-linejoin="round"/>
</g></svg>
