<svg viewBox="0 0 24 24" fill="none" xmlns="http://www.w3.org/2000/svg"><g transform="translate(-244 -248)">
<path id="Vector_323" d="M248 262H254" stroke="black" stroke-width="2" stroke-linecap="round" stroke-linejoin="round"/>
<path id="Vector_324" d="M248 250H258" stroke="black" stroke-width="2" stroke-linecap="round" stroke-linejoin="round"/>
<path id="Vector_325" d="M263 266H249C248.448 266 248 266.448 248 267V269C248 269.552 248.448 270 249 270H263C263.552 270 264 269.552 264 269V267C264 266.448 263.552 266 263 266Z" stroke="black" stroke-width="2" stroke-linecap="round" stroke-linejoin="round"/>
<path id="Vector_326" d="M263 254H249C248.448 254 248 254.448 248 255V257C248 257.552 248.448 258 249 258H263C263.552 258 264 257.552 264 257V255C264 254.448 263.552 254 263 254Z" stroke="black" stroke-width="2" stroke-linecap="round" stroke-linejoin="round"/>
</g></svg>
