<svg viewBox="0 0 24 24" fill="none" xmlns="http://www.w3.org/2000/svg"><g transform="translate(-52 -88)">
<path id="Vector_80" d="M66 101H68C68.5304 101 69.0391 101.211 69.4142 101.586C69.7893 101.961 70 102.47 70 103V105C70 105.53 70.2107 106.039 70.5858 106.414C70.9609 106.789 71.4696 107 72 107C72.5304 107 73.0391 106.789 73.4142 106.414C73.7893 106.039 74 105.53 74 105V98.002C74.0002 97.7381 73.9482 97.4767 73.8469 97.233C73.7457 96.9893 73.5972 96.7681 73.41 96.582L70 93" stroke="black" stroke-width="2" stroke-linecap="round" stroke-linejoin="round"/>
<path id="Vector_81" d="M66 109V93C66 92.4696 65.7893 91.9609 65.4142 91.5858C65.0391 91.2107 64.5304 91 64 91H57C56.4696 91 55.9609 91.2107 55.5858 91.5858C55.2107 91.9609 55 92.4696 55 93V109" stroke="black" stroke-width="2" stroke-linecap="round" stroke-linejoin="round"/>
<path id="Vector_82" d="M54 109H67" stroke="black" stroke-width="2" stroke-linecap="round" stroke-linejoin="round"/>
<path id="Vector_83" d="M55 97H66" stroke="black" stroke-width="2" stroke-linecap="round" stroke-linejoin="round"/>
</g></svg>
