<svg viewBox="0 0 24 24" fill="none" xmlns="http://www.w3.org/2000/svg"><g transform="translate(-340 -88)">
<path id="Vector_67" d="M350 108C350 108.186 350.051 108.368 350.149 108.526C350.247 108.684 350.386 108.812 350.553 108.895L352.553 109.895C352.705 109.971 352.875 110.007 353.045 109.999C353.215 109.992 353.381 109.941 353.526 109.851C353.671 109.761 353.79 109.636 353.873 109.487C353.956 109.338 354 109.17 354 109V102C354 101.504 354.184 101.027 354.517 100.659L361.74 92.67C361.869 92.5266 361.954 92.3487 361.985 92.1579C362.015 91.9671 361.99 91.7715 361.912 91.5949C361.833 91.4182 361.705 91.268 361.544 91.1625C361.382 91.0569 361.193 91.0005 361 91H343C342.806 91.0001 342.617 91.0562 342.455 91.1616C342.293 91.2671 342.165 91.4172 342.086 91.594C342.008 91.7707 341.982 91.9664 342.012 92.1574C342.043 92.3484 342.128 92.5264 342.258 92.67L349.483 100.659C349.815 101.027 349.999 101.504 350 102V108Z" stroke="black" stroke-width="2" stroke-linecap="round" stroke-linejoin="round"/>
</g></svg>
