<svg viewBox="0 0 24 24" fill="none" xmlns="http://www.w3.org/2000/svg"><g transform="translate(-372 -88)">
<path id="Vector_68" d="M385.354 91H375C374.806 91.0001 374.617 91.0562 374.455 91.1616C374.293 91.2671 374.165 91.4172 374.086 91.594C374.008 91.7707 373.982 91.9664 374.012 92.1574C374.043 92.3484 374.128 92.5264 374.258 92.67L381.483 100.659C381.815 101.027 381.999 101.504 382 102V108C382 108.186 382.051 108.368 382.149 108.526C382.247 108.684 382.386 108.812 382.553 108.895L384.553 109.895C384.705 109.971 384.875 110.007 385.045 109.999C385.215 109.992 385.381 109.941 385.526 109.851C385.671 109.761 385.79 109.636 385.873 109.487C385.956 109.338 386 109.17 386 109V102C386 101.504 386.184 101.027 386.517 100.659L387.735 99.311" stroke="black" stroke-width="2" stroke-linecap="round" stroke-linejoin="round"/>
<path id="Vector_69" d="M388 94H394" stroke="black" stroke-width="2" stroke-linecap="round" stroke-linejoin="round"/>
<path id="Vector_70" d="M391 91V97" stroke="black" stroke-width="2" stroke-linecap="round" stroke-linejoin="round"/>
</g></svg>
