<svg viewBox="0 0 24 24" fill="none" xmlns="http://www.w3.org/2000/svg"><g transform="translate(-20 -120)">
<path id="Vector_71" d="M32.5306 123H22.9996C22.8062 123 22.617 123.056 22.4549 123.162C22.2928 123.267 22.1647 123.417 22.0861 123.594C22.0076 123.771 21.982 123.966 22.0125 124.157C22.0429 124.348 22.1281 124.526 22.2576 124.67L29.4826 132.659C29.8152 133.027 29.9994 133.504 29.9996 134V140C29.9996 140.186 30.0512 140.368 30.1489 140.526C30.2466 140.684 30.3864 140.812 30.5526 140.895L32.5526 141.895C32.7051 141.971 32.8746 142.007 33.0449 141.999C33.2152 141.992 33.3807 141.941 33.5257 141.851C33.6707 141.761 33.7903 141.636 33.8733 141.487C33.9562 141.338 33.9997 141.17 33.9996 141V134C33.9999 133.504 34.1841 133.027 34.5166 132.659L34.9436 132.186" stroke="black" stroke-width="2" stroke-linecap="round" stroke-linejoin="round"/>
<path id="Vector_72" d="M36.5 123.5L41.5 128.5" stroke="black" stroke-width="2" stroke-linecap="round" stroke-linejoin="round"/>
<path id="Vector_73" d="M41.5 123.5L36.5 128.5" stroke="black" stroke-width="2" stroke-linecap="round" stroke-linejoin="round"/>
</g></svg>
