<svg viewBox="0 0 24 24" fill="none" xmlns="http://www.w3.org/2000/svg"><g transform="translate(-20 -120)">
<path id="Vector_109" d="M26 131H30" stroke="black" stroke-width="2" stroke-linecap="round" stroke-linejoin="round"/>
<path id="Vector_110" d="M28 129V133" stroke="black" stroke-width="2" stroke-linecap="round" stroke-linejoin="round"/>
<path id="Vector_111" d="M35 132H35.01" stroke="black" stroke-width="2" stroke-linecap="round" stroke-linejoin="round"/>
<path id="Vector_112" d="M38 130H38.01" stroke="black" stroke-width="2" stroke-linecap="round" stroke-linejoin="round"/>
<path id="Vector_113" d="M37.32 125H26.68C25.6903 125 24.7358 125.367 24.001 126.03C23.2663 126.694 22.8034 127.605 22.702 128.59C22.696 128.642 22.692 128.691 22.685 128.742C22.604 129.416 22 134.456 22 136C22 136.796 22.3161 137.559 22.8787 138.121C23.4413 138.684 24.2044 139 25 139C26 139 26.5 138.5 27 138L28.414 136.586C28.789 136.211 29.2976 136 29.828 136H34.172C34.7024 136 35.211 136.211 35.586 136.586L37 138C37.5 138.5 38 139 39 139C39.7956 139 40.5587 138.684 41.1213 138.121C41.6839 137.559 42 136.796 42 136C42 134.455 41.396 129.416 41.315 128.742C41.308 128.692 41.304 128.642 41.298 128.591C41.1968 127.606 40.7341 126.694 39.9993 126.031C39.2645 125.368 38.3099 125 37.32 125Z" stroke="black" stroke-width="2" stroke-linecap="round" stroke-linejoin="round"/>
</g></svg>
