<svg viewBox="0 0 24 24" fill="none" xmlns="http://www.w3.org/2000/svg"><g transform="translate(-52 -120)">
<path id="Vector_114" d="M63.146 135.854C63.2581 135.742 63.3912 135.653 63.5378 135.592C63.6843 135.531 63.8414 135.5 64 135.5C64.1586 135.5 64.3157 135.531 64.4622 135.592C64.6088 135.653 64.7419 135.742 64.854 135.854L66.414 137.414C66.7891 137.789 66.9999 138.298 67 138.828V141C67 141.265 66.8946 141.52 66.7071 141.707C66.5196 141.895 66.2652 142 66 142H62C61.7348 142 61.4804 141.895 61.2929 141.707C61.1054 141.52 61 141.265 61 141V138.828C61.0001 138.298 61.2109 137.789 61.586 137.414L63.146 135.854Z" stroke="black" stroke-width="2" stroke-linecap="round" stroke-linejoin="round"/>
<path id="Vector_115" d="M70.828 135C70.2977 135 69.789 134.789 69.414 134.414L67.854 132.854C67.7418 132.742 67.6528 132.609 67.592 132.462C67.5313 132.316 67.5 132.159 67.5 132C67.5 131.841 67.5313 131.684 67.592 131.538C67.6528 131.391 67.7418 131.258 67.854 131.146L69.414 129.586C69.789 129.211 70.2977 129 70.828 129H73C73.2653 129 73.5196 129.105 73.7072 129.293C73.8947 129.48 74 129.735 74 130V134C74 134.265 73.8947 134.52 73.7072 134.707C73.5196 134.895 73.2653 135 73 135H70.828Z" stroke="black" stroke-width="2" stroke-linecap="round" stroke-linejoin="round"/>
<path id="Vector_116" d="M58.586 134.414C58.211 134.789 57.7024 135 57.172 135H55C54.7348 135 54.4804 134.895 54.2929 134.707C54.1054 134.52 54 134.265 54 134V130C54 129.735 54.1054 129.48 54.2929 129.293C54.4804 129.105 54.7348 129 55 129H57.172C57.7024 129 58.211 129.211 58.586 129.586L60.146 131.146C60.2582 131.258 60.3473 131.391 60.408 131.538C60.4688 131.684 60.5 131.841 60.5 132C60.5 132.159 60.4688 132.316 60.408 132.462C60.3473 132.609 60.2582 132.742 60.146 132.854L58.586 134.414Z" stroke="black" stroke-width="2" stroke-linecap="round" stroke-linejoin="round"/>
<path id="Vector_117" d="M61 123C61 122.735 61.1054 122.48 61.2929 122.293C61.4804 122.105 61.7348 122 62 122H66C66.2652 122 66.5196 122.105 66.7071 122.293C66.8946 122.48 67 122.735 67 123V125.172C66.9999 125.702 66.7891 126.211 66.414 126.586L64.854 128.146C64.7419 128.258 64.6088 128.347 64.4622 128.408C64.3157 128.469 64.1586 128.5 64 128.5C63.8414 128.5 63.6843 128.469 63.5378 128.408C63.3912 128.347 63.2581 128.258 63.146 128.146L61.586 126.586C61.2109 126.211 61.0001 125.702 61 125.172V123Z" stroke="black" stroke-width="2" stroke-linecap="round" stroke-linejoin="round"/>
</g></svg>
