<svg viewBox="0 0 24 24" fill="none" xmlns="http://www.w3.org/2000/svg"><g transform="translate(-212 -56)">
<path id="Vector_34" d="M222.5 59L220 65L224 78L228 65L225.5 59" stroke="black" stroke-width="2" stroke-linecap="round" stroke-linejoin="round"/>
<path id="Vector_35" d="M229 59C229.311 59 229.617 59.0723 229.895 59.2111C230.172 59.35 230.414 59.5516 230.6 59.8L233.6 63.8C233.858 64.1432 233.998 64.56 234 64.9889C234.002 65.4178 233.867 65.836 233.613 66.182L225.623 77.168C225.438 77.4255 225.194 77.6352 224.912 77.7799C224.63 77.9245 224.317 78 224 78C223.683 78 223.37 77.9245 223.088 77.7799C222.805 77.6352 222.562 77.4255 222.376 77.168L214.386 66.182C214.133 65.8359 213.998 65.4176 214 64.9887C214.003 64.5598 214.143 64.1431 214.4 63.8L217.398 59.803C217.585 59.5538 217.826 59.3514 218.104 59.212C218.382 59.0726 218.689 59 219 59H229Z" stroke="black" stroke-width="2" stroke-linecap="round" stroke-linejoin="round"/>
<path id="Vector_36" d="M214 65H234" stroke="black" stroke-width="2" stroke-linecap="round" stroke-linejoin="round"/>
</g></svg>
