<svg viewBox="0 0 24 24" fill="none" xmlns="http://www.w3.org/2000/svg"><g transform="translate(-212 -88)">
<path id="Vector_74" d="M223.5 109C222.081 109 220.692 108.597 219.492 107.838C218.293 107.08 217.334 105.996 216.726 104.714C216.117 103.432 215.886 102.004 216.057 100.595C216.228 99.1863 216.795 97.8551 217.693 96.756C218.591 95.6569 219.782 94.835 221.128 94.3858C222.474 93.9365 223.92 93.8784 225.297 94.2181C226.675 94.5578 227.928 95.2814 228.911 96.3048C229.894 97.3283 230.567 98.6096 230.85 100" stroke="black" stroke-width="2" stroke-linecap="round" stroke-linejoin="round"/>
<path id="Vector_75" d="M225 100V91" stroke="black" stroke-width="2" stroke-linecap="round" stroke-linejoin="round"/>
<path id="Vector_76" d="M216 109H232" stroke="black" stroke-width="2" stroke-linecap="round" stroke-linejoin="round"/>
<path id="Vector_77" d="M221 100V91" stroke="black" stroke-width="2" stroke-linecap="round" stroke-linejoin="round"/>
</g></svg>
