<svg viewBox="0 0 24 24" fill="none" xmlns="http://www.w3.org/2000/svg"><g transform="translate(-116 -120)">
<path id="Vector_121" d="M128 127V141" stroke="black" stroke-width="2" stroke-linecap="round" stroke-linejoin="round"/>
<path id="Vector_122" d="M136 131V139C136 139.53 135.789 140.039 135.414 140.414C135.039 140.789 134.53 141 134 141H122C121.47 141 120.961 140.789 120.586 140.414C120.211 140.039 120 139.53 120 139V131" stroke="black" stroke-width="2" stroke-linecap="round" stroke-linejoin="round"/>
<path id="Vector_123" d="M123.5 127C122.837 127 122.201 126.737 121.732 126.268C121.263 125.799 121 125.163 121 124.5C121 123.837 121.263 123.201 121.732 122.732C122.201 122.263 122.837 122 123.5 122C124.465 121.983 125.41 122.451 126.213 123.343C127.015 124.235 127.638 125.509 128 127C128.362 125.509 128.985 124.235 129.787 123.343C130.59 122.451 131.535 121.983 132.5 122C133.163 122 133.799 122.263 134.268 122.732C134.737 123.201 135 123.837 135 124.5C135 125.163 134.737 125.799 134.268 126.268C133.799 126.737 133.163 127 132.5 127" stroke="black" stroke-width="2" stroke-linecap="round" stroke-linejoin="round"/>
<path id="Vector_124" d="M136 127H120C119.448 127 119 127.448 119 128V130C119 130.552 119.448 131 120 131H136C136.552 131 137 130.552 137 130V128C137 127.448 136.552 127 136 127Z" stroke="black" stroke-width="2" stroke-linecap="round" stroke-linejoin="round"/>
</g></svg>
