<svg viewBox="0 0 24 24" fill="none" xmlns="http://www.w3.org/2000/svg"><g transform="translate(-340 -120)">
<path id="Vector_200" d="M358 141C359.657 141 361 139.657 361 138C361 136.343 359.657 135 358 135C356.343 135 355 136.343 355 138C355 139.657 356.343 141 358 141Z" stroke="black" stroke-width="2" stroke-linecap="round" stroke-linejoin="round"/>
<path id="Vector_201" d="M346 129C347.657 129 349 127.657 349 126C349 124.343 347.657 123 346 123C344.343 123 343 124.343 343 126C343 127.657 344.343 129 346 129Z" stroke="black" stroke-width="2" stroke-linecap="round" stroke-linejoin="round"/>
<path id="Vector_202" d="M358 126V125" stroke="black" stroke-width="2" stroke-linecap="round" stroke-linejoin="round"/>
<path id="Vector_203" d="M358 131V130" stroke="black" stroke-width="2" stroke-linecap="round" stroke-linejoin="round"/>
<path id="Vector_204" d="M346 129V141" stroke="black" stroke-width="2" stroke-linecap="round" stroke-linejoin="round"/>
</g></svg>
