<svg viewBox="0 0 24 24" fill="none" xmlns="http://www.w3.org/2000/svg"><g transform="translate(-116 -120)">
<path id="Vector_166" d="M134 141C135.657 141 137 139.657 137 138C137 136.343 135.657 135 134 135C132.343 135 131 136.343 131 138C131 139.657 132.343 141 134 141Z" stroke="black" stroke-width="2" stroke-linecap="round" stroke-linejoin="round"/>
<path id="Vector_167" d="M122 129C123.657 129 125 127.657 125 126C125 124.343 123.657 123 122 123C120.343 123 119 124.343 119 126C119 127.657 120.343 129 122 129Z" stroke="black" stroke-width="2" stroke-linecap="round" stroke-linejoin="round"/>
<path id="Vector_168" d="M122 141V129C122 131.387 122.948 133.676 124.636 135.364C126.324 137.052 128.613 138 131 138" stroke="black" stroke-width="2" stroke-linecap="round" stroke-linejoin="round"/>
</g></svg>
