<svg viewBox="0 0 24 24" fill="none" xmlns="http://www.w3.org/2000/svg"><g transform="translate(-244 -120)">
<path id="Vector_183" d="M250 129C251.657 129 253 127.657 253 126C253 124.343 251.657 123 250 123C248.343 123 247 124.343 247 126C247 127.657 248.343 129 250 129Z" stroke="black" stroke-width="2" stroke-linecap="round" stroke-linejoin="round"/>
<path id="Vector_184" d="M250 129V141" stroke="black" stroke-width="2" stroke-linecap="round" stroke-linejoin="round"/>
<path id="Vector_185" d="M265 123L259 129" stroke="black" stroke-width="2" stroke-linecap="round" stroke-linejoin="round"/>
<path id="Vector_186" d="M265 129L259 123" stroke="black" stroke-width="2" stroke-linecap="round" stroke-linejoin="round"/>
<path id="Vector_187" d="M262 131.5V135" stroke="black" stroke-width="2" stroke-linecap="round" stroke-linejoin="round"/>
<path id="Vector_188" d="M262 141C263.657 141 265 139.657 265 138C265 136.343 263.657 135 262 135C260.343 135 259 136.343 259 138C259 139.657 260.343 141 262 141Z" stroke="black" stroke-width="2" stroke-linecap="round" stroke-linejoin="round"/>
</g></svg>
