<svg viewBox="0 0 24 24" fill="none" xmlns="http://www.w3.org/2000/svg"><g transform="translate(-372 -88)">
<path id="Vector_145" d="M390 109C391.657 109 393 107.657 393 106C393 104.343 391.657 103 390 103C388.343 103 387 104.343 387 106C387 107.657 388.343 109 390 109Z" stroke="black" stroke-width="2" stroke-linecap="round" stroke-linejoin="round"/>
<path id="Vector_146" d="M378 97C379.657 97 381 95.6569 381 94C381 92.3431 379.657 91 378 91C376.343 91 375 92.3431 375 94C375 95.6569 376.343 97 378 97Z" stroke="black" stroke-width="2" stroke-linecap="round" stroke-linejoin="round"/>
<path id="Vector_147" d="M385 94H388C388.53 94 389.039 94.2107 389.414 94.5858C389.789 94.9609 390 95.4696 390 96V103" stroke="black" stroke-width="2" stroke-linecap="round" stroke-linejoin="round"/>
<path id="Vector_148" d="M383 106H380C379.47 106 378.961 105.789 378.586 105.414C378.211 105.039 378 104.53 378 104V97" stroke="black" stroke-width="2" stroke-linecap="round" stroke-linejoin="round"/>
</g></svg>
