<svg viewBox="0 0 24 24" fill="none" xmlns="http://www.w3.org/2000/svg"><g transform="translate(-244 -88)">
<path id="Vector_129" d="M259 94C256.613 94 254.324 94.9482 252.636 96.636C250.948 98.3239 250 100.613 250 103V91" stroke="black" stroke-width="2" stroke-linecap="round" stroke-linejoin="round"/>
<path id="Vector_130" d="M265 106H259" stroke="black" stroke-width="2" stroke-linecap="round" stroke-linejoin="round"/>
<path id="Vector_131" d="M262 97C263.657 97 265 95.6569 265 94C265 92.3431 263.657 91 262 91C260.343 91 259 92.3431 259 94C259 95.6569 260.343 97 262 97Z" stroke="black" stroke-width="2" stroke-linecap="round" stroke-linejoin="round"/>
<path id="Vector_132" d="M250 109C251.657 109 253 107.657 253 106C253 104.343 251.657 103 250 103C248.343 103 247 104.343 247 106C247 107.657 248.343 109 250 109Z" stroke="black" stroke-width="2" stroke-linecap="round" stroke-linejoin="round"/>
</g></svg>
