<svg viewBox="0 0 24 24" fill="none" xmlns="http://www.w3.org/2000/svg"><g transform="translate(-84 -120)">
<path id="Vector_160" d="M89 129C90.6569 129 92 127.657 92 126C92 124.343 90.6569 123 89 123C87.3431 123 86 124.343 86 126C86 127.657 87.3431 129 89 129Z" stroke="black" stroke-width="2" stroke-linecap="round" stroke-linejoin="round"/>
<path id="Vector_161" d="M89 129V135" stroke="black" stroke-width="2" stroke-linecap="round" stroke-linejoin="round"/>
<path id="Vector_162" d="M89 141C90.6569 141 92 139.657 92 138C92 136.343 90.6569 135 89 135C87.3431 135 86 136.343 86 138C86 139.657 87.3431 141 89 141Z" stroke="black" stroke-width="2" stroke-linecap="round" stroke-linejoin="round"/>
<path id="Vector_163" d="M96 123V141" stroke="black" stroke-width="2" stroke-linecap="round" stroke-linejoin="round"/>
<path id="Vector_164" d="M103 129C104.657 129 106 127.657 106 126C106 124.343 104.657 123 103 123C101.343 123 100 124.343 100 126C100 127.657 101.343 129 103 129Z" stroke="black" stroke-width="2" stroke-linecap="round" stroke-linejoin="round"/>
<path id="Vector_165" d="M100 135.7C100.943 134.857 101.697 133.824 102.214 132.67C102.731 131.515 102.999 130.265 103 129" stroke="black" stroke-width="2" stroke-linecap="round" stroke-linejoin="round"/>
</g></svg>
