<svg viewBox="0 0 24 24" fill="none" xmlns="http://www.w3.org/2000/svg"><g transform="translate(-20 -120)">
<path id="Vector_149" d="M25 129C26.6569 129 28 127.657 28 126C28 124.343 26.6569 123 25 123C23.3431 123 22 124.343 22 126C22 127.657 23.3431 129 25 129Z" stroke="black" stroke-width="2" stroke-linecap="round" stroke-linejoin="round"/>
<path id="Vector_150" d="M32 126H37C37.5304 126 38.0391 126.211 38.4142 126.586C38.7893 126.961 39 127.47 39 128V135" stroke="black" stroke-width="2" stroke-linecap="round" stroke-linejoin="round"/>
<path id="Vector_151" d="M35 129L32 126L35 123" stroke="black" stroke-width="2" stroke-linecap="round" stroke-linejoin="round"/>
<path id="Vector_152" d="M39 141C40.6569 141 42 139.657 42 138C42 136.343 40.6569 135 39 135C37.3431 135 36 136.343 36 138C36 139.657 37.3431 141 39 141Z" stroke="black" stroke-width="2" stroke-linecap="round" stroke-linejoin="round"/>
<path id="Vector_153" d="M32 138H27C26.4696 138 25.9609 137.789 25.5858 137.414C25.2107 137.039 25 136.53 25 136V129" stroke="black" stroke-width="2" stroke-linecap="round" stroke-linejoin="round"/>
<path id="Vector_154" d="M29 135L32 138L29 141" stroke="black" stroke-width="2" stroke-linecap="round" stroke-linejoin="round"/>
</g></svg>
