<svg viewBox="0 0 24 24" fill="none" xmlns="http://www.w3.org/2000/svg"><g transform="translate(-212 -88)">
<path id="Vector_126" d="M227 94C224.613 94 222.324 94.9482 220.636 96.636C218.948 98.3239 218 100.613 218 103V91" stroke="black" stroke-width="2" stroke-linecap="round" stroke-linejoin="round"/>
<path id="Vector_127" d="M230 97C231.657 97 233 95.6569 233 94C233 92.3431 231.657 91 230 91C228.343 91 227 92.3431 227 94C227 95.6569 228.343 97 230 97Z" stroke="black" stroke-width="2" stroke-linecap="round" stroke-linejoin="round"/>
<path id="Vector_128" d="M218 109C219.657 109 221 107.657 221 106C221 104.343 219.657 103 218 103C216.343 103 215 104.343 215 106C215 107.657 216.343 109 218 109Z" stroke="black" stroke-width="2" stroke-linecap="round" stroke-linejoin="round"/>
</g></svg>
