<svg viewBox="0 0 24 24" fill="none" xmlns="http://www.w3.org/2000/svg"><g transform="translate(-180 -120)">
<path id="Vector_174" d="M198 141C199.657 141 201 139.657 201 138C201 136.343 199.657 135 198 135C196.343 135 195 136.343 195 138C195 139.657 196.343 141 198 141Z" stroke="black" stroke-width="2" stroke-linecap="round" stroke-linejoin="round"/>
<path id="Vector_175" d="M186 129C187.657 129 189 127.657 189 126C189 124.343 187.657 123 186 123C184.343 123 183 124.343 183 126C183 127.657 184.343 129 186 129Z" stroke="black" stroke-width="2" stroke-linecap="round" stroke-linejoin="round"/>
<path id="Vector_176" d="M193 126H196C196.53 126 197.039 126.211 197.414 126.586C197.789 126.961 198 127.47 198 128V135" stroke="black" stroke-width="2" stroke-linecap="round" stroke-linejoin="round"/>
<path id="Vector_177" d="M186 129V141" stroke="black" stroke-width="2" stroke-linecap="round" stroke-linejoin="round"/>
</g></svg>
