<svg viewBox="0 0 24 24" fill="none" xmlns="http://www.w3.org/2000/svg"><g transform="translate(-276 -88)">
<path id="Vector_133" d="M282 91V103" stroke="black" stroke-width="2" stroke-linecap="round" stroke-linejoin="round"/>
<path id="Vector_134" d="M294 97C294.796 97 295.559 96.6839 296.121 96.1213C296.684 95.5587 297 94.7956 297 94C297 93.2044 296.684 92.4413 296.121 91.8787C295.559 91.3161 294.796 91 294 91C293.204 91 292.441 91.3161 291.879 91.8787C291.316 92.4413 291 93.2044 291 94C291 94.7956 291.316 95.5587 291.879 96.1213C292.441 96.6839 293.204 97 294 97Z" stroke="black" stroke-width="2" stroke-linecap="round" stroke-linejoin="round"/>
<path id="Vector_135" d="M282 109C282.796 109 283.559 108.684 284.121 108.121C284.684 107.559 285 106.796 285 106C285 105.204 284.684 104.441 284.121 103.879C283.559 103.316 282.796 103 282 103C281.204 103 280.441 103.316 279.879 103.879C279.316 104.441 279 105.204 279 106C279 106.796 279.316 107.559 279.879 108.121C280.441 108.684 281.204 109 282 109Z" stroke="black" stroke-width="2" stroke-linecap="round" stroke-linejoin="round"/>
<path id="Vector_136" d="M291 94C288.613 94 286.324 94.9482 284.636 96.636C282.948 98.3239 282 100.613 282 103" stroke="black" stroke-width="2" stroke-linecap="round" stroke-linejoin="round"/>
<path id="Vector_137" d="M294 103V109" stroke="black" stroke-width="2" stroke-linecap="round" stroke-linejoin="round"/>
<path id="Vector_138" d="M297 106H291" stroke="black" stroke-width="2" stroke-linecap="round" stroke-linejoin="round"/>
</g></svg>
