<svg viewBox="0 0 24 24" fill="none" xmlns="http://www.w3.org/2000/svg"><g transform="translate(-52 -120)">
<path id="Vector_155" d="M64 141C65.6569 141 67 139.657 67 138C67 136.343 65.6569 135 64 135C62.3431 135 61 136.343 61 138C61 139.657 62.3431 141 64 141Z" stroke="black" stroke-width="2" stroke-linecap="round" stroke-linejoin="round"/>
<path id="Vector_156" d="M58 129C59.6569 129 61 127.657 61 126C61 124.343 59.6569 123 58 123C56.3431 123 55 124.343 55 126C55 127.657 56.3431 129 58 129Z" stroke="black" stroke-width="2" stroke-linecap="round" stroke-linejoin="round"/>
<path id="Vector_157" d="M70 129C71.6569 129 73 127.657 73 126C73 124.343 71.6569 123 70 123C68.3431 123 67 124.343 67 126C67 127.657 68.3431 129 70 129Z" stroke="black" stroke-width="2" stroke-linecap="round" stroke-linejoin="round"/>
<path id="Vector_158" d="M70 129V131C70 131.6 69.6 132 69 132H59C58.4 132 58 131.6 58 131V129" stroke="black" stroke-width="2" stroke-linecap="round" stroke-linejoin="round"/>
<path id="Vector_159" d="M64 132V135" stroke="black" stroke-width="2" stroke-linecap="round" stroke-linejoin="round"/>
</g></svg>
