<svg viewBox="0 0 24 24" fill="none" xmlns="http://www.w3.org/2000/svg"><g transform="translate(-212 -120)">
<path id="Vector_178" d="M217 129C218.657 129 220 127.657 220 126C220 124.343 218.657 123 217 123C215.343 123 214 124.343 214 126C214 127.657 215.343 129 217 129Z" stroke="black" stroke-width="2" stroke-linecap="round" stroke-linejoin="round"/>
<path id="Vector_179" d="M217 129V141" stroke="black" stroke-width="2" stroke-linecap="round" stroke-linejoin="round"/>
<path id="Vector_180" d="M231 141C232.657 141 234 139.657 234 138C234 136.343 232.657 135 231 135C229.343 135 228 136.343 228 138C228 139.657 229.343 141 231 141Z" stroke="black" stroke-width="2" stroke-linecap="round" stroke-linejoin="round"/>
<path id="Vector_181" d="M227 129L224 126L227 123" stroke="black" stroke-width="2" stroke-linecap="round" stroke-linejoin="round"/>
<path id="Vector_182" d="M224 126H229C229.53 126 230.039 126.211 230.414 126.586C230.789 126.961 231 127.47 231 128V135" stroke="black" stroke-width="2" stroke-linecap="round" stroke-linejoin="round"/>
</g></svg>
