<svg viewBox="0 0 24 24" fill="none" xmlns="http://www.w3.org/2000/svg"><g transform="translate(-244 -120)">
<path id="Vector_125" d="M249.116 124.104C249.101 123.965 249.116 123.824 249.159 123.691C249.203 123.558 249.273 123.435 249.367 123.331C249.461 123.227 249.575 123.144 249.703 123.087C249.831 123.03 249.97 123 250.11 123H261.89C262.03 123 262.168 123.03 262.296 123.087C262.424 123.144 262.539 123.227 262.633 123.331C262.726 123.435 262.797 123.558 262.841 123.691C262.884 123.825 262.898 123.966 262.884 124.105L261.19 140.21C261.138 140.702 260.906 141.156 260.538 141.487C260.171 141.817 259.694 142 259.2 142H252.8C252.304 142.003 251.824 141.821 251.455 141.49C251.085 141.16 250.852 140.703 250.8 140.21L249.116 124.104Z" stroke="black" stroke-width="2" stroke-linecap="round" stroke-linejoin="round"/>
<path id="Vector_126" d="M250 132C250.865 131.351 251.918 131 253 131C254.082 131 255.135 131.351 256 132C256.865 132.649 257.918 133 259 133C260.082 133 261.135 132.649 262 132" stroke="black" stroke-width="2" stroke-linecap="round" stroke-linejoin="round"/>
</g></svg>
