<svg viewBox="0 0 24 24" fill="none" xmlns="http://www.w3.org/2000/svg"><g transform="translate(-116 -56)">
<path id="Vector_15" d="M122 75C124.209 75 126 73.2091 126 71C126 68.7909 124.209 67 122 67C119.791 67 118 68.7909 118 71C118 73.2091 119.791 75 122 75Z" stroke="black" stroke-width="2" stroke-linecap="round" stroke-linejoin="round"/>
<path id="Vector_16" d="M134 75C136.209 75 138 73.2091 138 71C138 68.7909 136.209 67 134 67C131.791 67 130 68.7909 130 71C130 73.2091 131.791 75 134 75Z" stroke="black" stroke-width="2" stroke-linecap="round" stroke-linejoin="round"/>
<path id="Vector_17" d="M130 71C130 70.4696 129.789 69.9609 129.414 69.5858C129.039 69.2107 128.53 69 128 69C127.47 69 126.961 69.2107 126.586 69.5858C126.211 69.9609 126 70.4696 126 71" stroke="black" stroke-width="2" stroke-linecap="round" stroke-linejoin="round"/>
<path id="Vector_18" d="M118.5 69L121 63C121.7 61.7 122.4 61 124 61" stroke="black" stroke-width="2" stroke-linecap="round" stroke-linejoin="round"/>
<path id="Vector_19" d="M137.5 69L135 63C134.3 61.7 133.5 61 132 61" stroke="black" stroke-width="2" stroke-linecap="round" stroke-linejoin="round"/>
</g></svg>
