<svg viewBox="0 0 24 24" fill="none" xmlns="http://www.w3.org/2000/svg"><g transform="translate(-276 -56)">
<path id="Vector_34" d="M291 62L293 64L297 60" stroke="black" stroke-width="2" stroke-linecap="round" stroke-linejoin="round"/>
<path id="Vector_35" d="M278 68H298C298 69.9778 297.414 71.9112 296.315 73.5557C295.216 75.2002 293.654 76.4819 291.827 77.2388C290 77.9957 287.989 78.1937 286.049 77.8079C284.109 77.422 282.327 76.4696 280.929 75.0711C279.53 73.6725 278.578 71.8907 278.192 69.9509C277.806 68.0111 278.004 66.0004 278.761 64.1732C279.518 62.3459 280.8 60.7841 282.444 59.6853C284.089 58.5865 286.022 58 288 58C285.432 60.6962 284 64.2767 284 68C284 71.7233 285.432 75.3038 288 78C290.568 75.3038 292 71.7233 292 68" stroke="black" stroke-width="2" stroke-linecap="round" stroke-linejoin="round"/>
</g></svg>
