<svg viewBox="0 0 24 24" fill="none" xmlns="http://www.w3.org/2000/svg"><g transform="translate(-340 -56)">
<path id="Vector_40" d="M350.114 60.462C350.653 59.5763 351.285 58.7509 352 58C353.628 58 355.231 58.3973 356.671 59.1575C358.11 59.9177 359.342 61.0177 360.26 62.3621C361.177 63.7065 361.753 65.2546 361.937 66.872C362.12 68.4893 361.906 70.1271 361.313 71.643" stroke="black" stroke-width="2" stroke-linecap="round" stroke-linejoin="round"/>
<path id="Vector_41" d="M355.557 71.556C354.945 73.9741 353.72 76.1937 352 78C350.022 77.9999 348.089 77.4134 346.444 76.3146C344.8 75.2158 343.518 73.654 342.761 71.8268C342.004 69.9995 341.806 67.9889 342.192 66.0491C342.578 64.1093 343.53 62.3275 344.929 60.929" stroke="black" stroke-width="2" stroke-linecap="round" stroke-linejoin="round"/>
<path id="Vector_42" d="M355.892 66.234C355.513 63.1426 354.148 60.2554 352 58C350.754 57.9999 349.518 58.2329 348.357 58.687" stroke="black" stroke-width="2" stroke-linecap="round" stroke-linejoin="round"/>
<path id="Vector_43" d="M357.656 68H362" stroke="black" stroke-width="2" stroke-linecap="round" stroke-linejoin="round"/>
<path id="Vector_44" d="M359.071 75.071C357.196 76.9463 354.652 77.9999 352 78C350.31 76.2261 349.098 74.0529 348.475 71.6834C347.852 69.3139 347.84 66.8253 348.44 64.45" stroke="black" stroke-width="2" stroke-linecap="round" stroke-linejoin="round"/>
<path id="Vector_45" d="M342 68H352" stroke="black" stroke-width="2" stroke-linecap="round" stroke-linejoin="round"/>
<path id="Vector_46" d="M342 58L362 78" stroke="black" stroke-width="2" stroke-linecap="round" stroke-linejoin="round"/>
</g></svg>
