<svg viewBox="0 0 24 24" fill="none" xmlns="http://www.w3.org/2000/svg"><g transform="translate(-308 -56)">
<path id="Vector_36" d="M323.686 71C323.13 73.6299 321.854 76.0534 320 78C317.433 75.3038 316 71.7233 316 68C316 64.2767 317.433 60.6962 320 58C318.152 58.0005 316.34 58.5131 314.766 59.481C313.191 60.4489 311.916 61.8341 311.081 63.4829C310.246 65.1318 309.885 66.9797 310.037 68.8216C310.189 70.6635 310.848 72.4273 311.941 73.9171C313.035 75.407 314.52 76.5647 316.232 77.2616C317.943 77.9586 319.815 78.1676 321.638 77.8654C323.461 77.5632 325.165 76.7617 326.56 75.5498C327.956 74.3379 328.988 72.763 329.542 71" stroke="black" stroke-width="2" stroke-linecap="round" stroke-linejoin="round"/>
<path id="Vector_37" d="M310 68H318.5" stroke="black" stroke-width="2" stroke-linecap="round" stroke-linejoin="round"/>
<path id="Vector_38" d="M328 62V60C328 59.4696 327.789 58.9609 327.414 58.5858C327.039 58.2107 326.53 58 326 58C325.47 58 324.961 58.2107 324.586 58.5858C324.211 58.9609 324 59.4696 324 60V62" stroke="black" stroke-width="2" stroke-linecap="round" stroke-linejoin="round"/>
<path id="Vector_39" d="M329 62H323C322.448 62 322 62.4477 322 63V66C322 66.5523 322.448 67 323 67H329C329.552 67 330 66.5523 330 66V63C330 62.4477 329.552 62 329 62Z" stroke="black" stroke-width="2" stroke-linecap="round" stroke-linejoin="round"/>
</g></svg>
