<svg viewBox="0 0 24 24" fill="none" xmlns="http://www.w3.org/2000/svg"><g transform="translate(-372 -56)">
<path id="Vector_47" d="M388 59L393 64" stroke="black" stroke-width="2" stroke-linecap="round" stroke-linejoin="round"/>
<path id="Vector_48" d="M374 68H394C394 69.9778 393.414 71.9112 392.315 73.5557C391.216 75.2002 389.654 76.4819 387.827 77.2388C386 77.9957 383.989 78.1937 382.049 77.8079C380.109 77.422 378.327 76.4696 376.929 75.0711C375.53 73.6725 374.578 71.8907 374.192 69.9509C373.806 68.0111 374.004 66.0004 374.761 64.1732C375.518 62.3459 376.8 60.7841 378.444 59.6853C380.089 58.5865 382.022 58 384 58C381.432 60.6962 380 64.2767 380 68C380 71.7233 381.432 75.3038 384 78C386.568 75.3038 388 71.7233 388 68" stroke="black" stroke-width="2" stroke-linecap="round" stroke-linejoin="round"/>
<path id="Vector_49" d="M393 59L388 64" stroke="black" stroke-width="2" stroke-linecap="round" stroke-linejoin="round"/>
</g></svg>
