<svg viewBox="0 0 24 24" fill="none" xmlns="http://www.w3.org/2000/svg"><g transform="translate(-276 -56)">
<path id="Vector_54" d="M288 69V58L296 62L288 66" stroke="black" stroke-width="2" stroke-linecap="round" stroke-linejoin="round"/>
<path id="Vector_55" d="M296.561 66.2219C297.093 67.862 297.143 69.6205 296.704 71.2881C296.266 72.9558 295.357 74.4623 294.087 75.6286C292.817 76.7948 291.239 77.5717 289.54 77.8667C287.841 78.1617 286.093 77.9625 284.504 77.2928C282.915 76.623 281.552 75.5109 280.577 74.0888C279.602 72.6666 279.056 70.9943 279.004 69.2708C278.952 67.5473 279.396 65.8451 280.284 64.3668C281.171 62.8884 282.465 61.6962 284.011 60.9319" stroke="black" stroke-width="2" stroke-linecap="round" stroke-linejoin="round"/>
<path id="Vector_56" d="M284.002 65.9971C283.501 66.6641 283.175 67.4459 283.053 68.2713C282.932 69.0966 283.019 69.9393 283.306 70.7225C283.593 71.5057 284.072 72.2046 284.699 72.7554C285.325 73.3063 286.08 73.6916 286.893 73.8762C287.707 74.0609 288.554 74.039 289.357 73.8127C290.16 73.5863 290.893 73.1626 291.491 72.5802C292.088 71.9977 292.53 71.2751 292.777 70.4781C293.023 69.6811 293.066 68.8351 292.902 68.0171" stroke="black" stroke-width="2" stroke-linecap="round" stroke-linejoin="round"/>
</g></svg>
