<svg viewBox="0 0 32 32" fill="none" xmlns="http://www.w3.org/2000/svg"><g transform="translate(-60 -96)">
<g id="Shape_7">
<path d="M79.2288 107.318H79.9607L82.0468 105.232L82.1493 104.347C80.9543 103.292 79.5101 102.559 77.9531 102.218C76.3962 101.876 74.7779 101.937 73.2511 102.395C71.7244 102.853 70.3395 103.693 69.2275 104.835C68.1154 105.976 67.3127 107.383 66.8954 108.921C67.1278 108.826 67.3852 108.811 67.6274 108.877L71.7995 108.189C71.7995 108.189 72.0117 107.838 72.1215 107.86C73.0155 106.878 74.2509 106.275 75.5749 106.174C76.8989 106.074 78.2113 106.483 79.2434 107.318H79.2288Z" fill="#EA4335"/>
<path d="M85.0194 108.919C84.5399 107.153 83.5555 105.566 82.1868 104.352L79.259 107.279C79.8691 107.778 80.3582 108.409 80.6891 109.124C81.02 109.839 81.1842 110.62 81.1694 111.408V111.927C81.5116 111.927 81.8504 111.995 82.1665 112.126C82.4827 112.257 82.7699 112.449 83.0119 112.691C83.2539 112.933 83.4458 113.22 83.5768 113.536C83.7077 113.852 83.7751 114.191 83.7751 114.533C83.7751 114.875 83.7077 115.214 83.5768 115.53C83.4458 115.846 83.2539 116.134 83.0119 116.376C82.7699 116.618 82.4827 116.81 82.1665 116.94C81.8504 117.071 81.5116 117.139 81.1694 117.139H75.9579L75.4382 117.666V120.791L75.9579 121.311H81.1694C82.6247 121.322 84.0449 120.865 85.2201 120.006C86.3953 119.148 87.263 117.934 87.6948 116.544C88.1266 115.154 88.0996 113.663 87.6178 112.289C87.136 110.916 86.2249 109.734 85.0194 108.919Z" fill="#4285F4"/>
<path d="M70.7335 121.284H75.945V117.111H70.7335C70.3622 117.111 69.9953 117.032 69.6575 116.877L68.9256 117.104L66.8249 119.19L66.6419 119.922C67.8199 120.812 69.2574 121.29 70.7335 121.284Z" fill="#34A853"/>
<path d="M70.7374 107.751C69.3253 107.759 67.9511 108.208 66.8068 109.036C65.6625 109.863 64.8051 111.027 64.3544 112.365C63.9038 113.704 63.8824 115.149 64.2931 116.5C64.7039 117.851 65.5264 119.04 66.6458 119.901L69.6687 116.878C69.2846 116.705 68.9483 116.44 68.6887 116.108C68.429 115.776 68.2539 115.386 68.1782 114.971C68.1025 114.557 68.1286 114.13 68.2541 113.727C68.3797 113.325 68.601 112.959 68.899 112.661C69.1971 112.363 69.5631 112.142 69.9655 112.016C70.3679 111.891 70.7948 111.864 71.2094 111.94C71.6241 112.016 72.0143 112.191 72.3464 112.451C72.6785 112.71 72.9427 113.047 73.1162 113.431L76.1392 110.408C75.5047 109.578 74.6869 108.907 73.7498 108.446C72.8127 107.985 71.7817 107.747 70.7374 107.751Z" fill="#FBBC05"/>
</g>
</g></svg>
