<svg viewBox="0 0 31.998882293701172 31.999862670898438" fill="none" xmlns="http://www.w3.org/2000/svg"><g transform="translate(-60 -56)">
<g id="Vector_14">
<path d="M66.6633 78.688L67.6335 80.3591C67.8351 80.7109 68.125 80.9874 68.4652 81.1884L71.9303 75.2074H65C65 75.5969 65.1008 75.9865 65.3024 76.3383L66.6633 78.688Z" fill="#0066DA"/>
<path d="M76.0003 68.1733L72.5352 62.1923C72.195 62.3934 71.9051 62.6698 71.7035 63.0216L65.3024 74.079C65.1045 74.4232 65.0003 74.8131 65 75.2098H71.9303L76.0003 68.1733Z" fill="#00AC47"/>
<path d="M83.5348 81.1884C83.875 80.9874 84.1649 80.7109 84.3665 80.3591L84.7697 79.668L86.6976 76.3383C86.8992 75.9865 87 75.5969 87 75.2074H80.0691L81.5439 78.0974L83.5348 81.1884Z" fill="#EA4335"/>
<path d="M76.0011 68.1734L79.4663 62.1924C79.1261 61.9914 78.7354 61.8909 78.3322 61.8909H73.67C73.2667 61.8909 72.8761 62.004 72.5359 62.1924L76.0011 68.1734Z" fill="#00832D"/>
<path d="M80.0723 75.2074H71.9323L68.4672 81.1884C68.8074 81.3895 69.198 81.49 69.6012 81.49H82.4035C82.8067 81.49 83.1973 81.3769 83.5375 81.1884L80.0723 75.2074Z" fill="#2684FC"/>
<path d="M83.4951 68.5503L80.2945 63.0216C80.0929 62.6698 79.8031 62.3934 79.4629 62.1923L75.9977 68.1733L80.0677 75.2098H86.9854C86.9854 74.8203 86.8846 74.4308 86.683 74.079L83.4951 68.5503Z" fill="#FFBA00"/>
</g>
</g></svg>
