<svg viewBox="0 0 24 24" fill="none" xmlns="http://www.w3.org/2000/svg"><g transform="translate(-372 -120)">
<path id="Vector_205" d="M374 137H392C392.53 137 393.039 136.789 393.414 136.414C393.789 136.039 394 135.53 394 135V127C394 126.47 393.789 125.961 393.414 125.586C393.039 125.211 392.53 125 392 125H374" stroke="black" stroke-width="2" stroke-linecap="round" stroke-linejoin="round"/>
<path id="Vector_206" d="M374 141V123" stroke="black" stroke-width="2" stroke-linecap="round" stroke-linejoin="round"/>
<path id="Vector_207" d="M379 137V140C379 140.265 379.105 140.52 379.293 140.707C379.48 140.895 379.735 141 380 141H385C385.265 141 385.52 140.895 385.707 140.707C385.895 140.52 386 140.265 386 140V137" stroke="black" stroke-width="2" stroke-linecap="round" stroke-linejoin="round"/>
<path id="Vector_208" d="M388 133C389.105 133 390 132.105 390 131C390 129.895 389.105 129 388 129C386.895 129 386 129.895 386 131C386 132.105 386.895 133 388 133Z" stroke="black" stroke-width="2" stroke-linecap="round" stroke-linejoin="round"/>
<path id="Vector_209" d="M380 133C381.105 133 382 132.105 382 131C382 129.895 381.105 129 380 129C378.895 129 378 129.895 378 131C378 132.105 378.895 133 380 133Z" stroke="black" stroke-width="2" stroke-linecap="round" stroke-linejoin="round"/>
</g></svg>
