<svg viewBox="0 0 24 24" fill="none" xmlns="http://www.w3.org/2000/svg"><g transform="translate(-148 -56)">
<path id="Vector_20" d="M169.42 66.922C169.599 66.843 169.751 66.7133 169.857 66.5488C169.963 66.3843 170.018 66.1924 170.016 65.9967C170.014 65.8011 169.955 65.6103 169.845 65.4481C169.736 65.2858 169.581 65.1592 169.401 65.084L160.83 61.18C160.569 61.0611 160.286 60.9996 160 60.9996C159.713 60.9996 159.43 61.0611 159.17 61.18L150.6 65.08C150.422 65.158 150.27 65.2861 150.164 65.4488C150.058 65.6115 150.001 65.8016 150.001 65.996C150.001 66.1903 150.058 66.3805 150.164 66.5432C150.27 66.7059 150.422 66.834 150.6 66.912L159.17 70.82C159.43 70.9388 159.713 71.0003 160 71.0003C160.286 71.0003 160.569 70.9388 160.83 70.82L169.42 66.922Z" stroke="black" stroke-width="2" stroke-linecap="round" stroke-linejoin="round"/>
<path id="Vector_21" d="M170 66V72" stroke="black" stroke-width="2" stroke-linecap="round" stroke-linejoin="round"/>
<path id="Vector_22" d="M154 68.5V72C154 72.7956 154.632 73.5587 155.757 74.1213C156.883 74.6839 158.409 75 160 75C161.591 75 163.117 74.6839 164.243 74.1213C165.368 73.5587 166 72.7956 166 72V68.5" stroke="black" stroke-width="2" stroke-linecap="round" stroke-linejoin="round"/>
</g></svg>
