<svg viewBox="0 0 24 24" fill="none" xmlns="http://www.w3.org/2000/svg"><g transform="translate(-276 -120)">
<path id="Vector_127" d="M298 125V122L292.11 127.89" stroke="black" stroke-width="2" stroke-linecap="round" stroke-linejoin="round"/>
<path id="Vector_128" d="M292.6 138.89C294.256 138.89 295.6 137.547 295.6 135.89C295.6 134.233 294.256 132.89 292.6 132.89C290.943 132.89 289.6 134.233 289.6 135.89C289.6 137.547 290.943 138.89 292.6 138.89Z" stroke="black" stroke-width="2" stroke-linecap="round" stroke-linejoin="round"/>
<path id="Vector_129" d="M284.11 130.4C285.767 130.4 287.11 129.057 287.11 127.4C287.11 125.743 285.767 124.4 284.11 124.4C282.453 124.4 281.11 125.743 281.11 127.4C281.11 129.057 282.453 130.4 284.11 130.4Z" stroke="black" stroke-width="2" stroke-linecap="round" stroke-linejoin="round"/>
<path id="Vector_130" d="M288.35 134.65C290.006 134.65 291.35 133.307 291.35 131.65C291.35 129.993 290.006 128.65 288.35 128.65C286.693 128.65 285.35 129.993 285.35 131.65C285.35 133.307 286.693 134.65 288.35 134.65Z" stroke="black" stroke-width="2" stroke-linecap="round" stroke-linejoin="round"/>
<path id="Vector_131" d="M289.91 128.85C291.567 128.85 292.91 127.507 292.91 125.85C292.91 124.193 291.567 122.85 289.91 122.85C288.253 122.85 286.91 124.193 286.91 125.85C286.91 127.507 288.253 128.85 289.91 128.85Z" stroke="black" stroke-width="2" stroke-linecap="round" stroke-linejoin="round"/>
<path id="Vector_132" d="M294.15 133.09C295.807 133.09 297.15 131.747 297.15 130.09C297.15 128.433 295.807 127.09 294.15 127.09C292.494 127.09 291.15 128.433 291.15 130.09C291.15 131.747 292.494 133.09 294.15 133.09Z" stroke="black" stroke-width="2" stroke-linecap="round" stroke-linejoin="round"/>
<path id="Vector_133" d="M282.56 136.2C284.216 136.2 285.56 134.857 285.56 133.2C285.56 131.543 284.216 130.2 282.56 130.2C280.903 130.2 279.56 131.543 279.56 133.2C279.56 134.857 280.903 136.2 282.56 136.2Z" stroke="black" stroke-width="2" stroke-linecap="round" stroke-linejoin="round"/>
<path id="Vector_134" d="M286.8 140.44C288.457 140.44 289.8 139.097 289.8 137.44C289.8 135.783 288.457 134.44 286.8 134.44C285.143 134.44 283.8 135.783 283.8 137.44C283.8 139.097 285.143 140.44 286.8 140.44Z" stroke="black" stroke-width="2" stroke-linecap="round" stroke-linejoin="round"/>
<path id="Vector_135" d="M281 142C282.657 142 284 140.657 284 139C284 137.343 282.657 136 281 136C279.343 136 278 137.343 278 139C278 140.657 279.343 142 281 142Z" stroke="black" stroke-width="2" stroke-linecap="round" stroke-linejoin="round"/>
</g></svg>
