<svg viewBox="0 0 24 24" fill="none" xmlns="http://www.w3.org/2000/svg"><g transform="translate(-20 -88)">
<path id="Vector_57" d="M32 91V108C32 108.265 31.8946 108.52 31.7071 108.707C31.5196 108.895 31.2652 109 31 109H25C24.4696 109 23.9609 108.789 23.5858 108.414C23.2107 108.039 23 107.53 23 107V93C23 92.4696 23.2107 91.9609 23.5858 91.5858C23.9609 91.2107 24.4696 91 25 91H39C39.5304 91 40.0391 91.2107 40.4142 91.5858C40.7893 91.9609 41 92.4696 41 93V99C41 99.2652 40.8946 99.5196 40.7071 99.7071C40.5196 99.8946 40.2652 100 40 100H23" stroke="black" stroke-width="2" stroke-linecap="round" stroke-linejoin="round"/>
<path id="Vector_58" d="M36 104L41 109" stroke="black" stroke-width="2" stroke-linecap="round" stroke-linejoin="round"/>
<path id="Vector_59" d="M36 109L41 104" stroke="black" stroke-width="2" stroke-linecap="round" stroke-linejoin="round"/>
</g></svg>
