<svg viewBox="0 0 24 24" fill="none" xmlns="http://www.w3.org/2000/svg"><g transform="translate(-372 -56)">
<path id="Vector_54" d="M384 59V76C384 76.2652 383.895 76.5196 383.707 76.7071C383.52 76.8946 383.265 77 383 77H377C376.47 77 375.961 76.7893 375.586 76.4142C375.211 76.0391 375 75.5304 375 75V61C375 60.4696 375.211 59.9609 375.586 59.5858C375.961 59.2107 376.47 59 377 59H391C391.53 59 392.039 59.2107 392.414 59.5858C392.789 59.9609 393 60.4696 393 61V67C393 67.2652 392.895 67.5196 392.707 67.7071C392.52 67.8946 392.265 68 392 68H375" stroke="black" stroke-width="2" stroke-linecap="round" stroke-linejoin="round"/>
<path id="Vector_55" d="M388 75H394" stroke="black" stroke-width="2" stroke-linecap="round" stroke-linejoin="round"/>
<path id="Vector_56" d="M391 78V72" stroke="black" stroke-width="2" stroke-linecap="round" stroke-linejoin="round"/>
</g></svg>
