<svg viewBox="0 0 24 24" fill="none" xmlns="http://www.w3.org/2000/svg"><g transform="translate(-340 -56)">
<path id="Vector_52" d="M352 59V76C352 76.2652 351.895 76.5196 351.707 76.7071C351.52 76.8946 351.265 77 351 77H345C344.47 77 343.961 76.7893 343.586 76.4142C343.211 76.0391 343 75.5304 343 75V61C343 60.4696 343.211 59.9609 343.586 59.5858C343.961 59.2107 344.47 59 345 59H359C359.53 59 360.039 59.2107 360.414 59.5858C360.789 59.9609 361 60.4696 361 61V67C361 67.2652 360.895 67.5196 360.707 67.7071C360.52 67.8946 360.265 68 360 68H343" stroke="black" stroke-width="2" stroke-linecap="round" stroke-linejoin="round"/>
<path id="Vector_53" d="M356 75L358 77L362 73" stroke="black" stroke-width="2" stroke-linecap="round" stroke-linejoin="round"/>
</g></svg>
