<svg viewBox="0 0 24 24" fill="none" xmlns="http://www.w3.org/2000/svg"><g transform="translate(-180 -88)">
<path id="Vector_84" d="M189 101C189.552 101 190 100.552 190 100C190 99.4477 189.552 99 189 99C188.448 99 188 99.4477 188 100C188 100.552 188.448 101 189 101Z" stroke="black" stroke-width="2" stroke-linecap="round" stroke-linejoin="round"/>
<path id="Vector_85" d="M189 94C189.552 94 190 93.5523 190 93C190 92.4477 189.552 92 189 92C188.448 92 188 92.4477 188 93C188 93.5523 188.448 94 189 94Z" stroke="black" stroke-width="2" stroke-linecap="round" stroke-linejoin="round"/>
<path id="Vector_86" d="M189 108C189.552 108 190 107.552 190 107C190 106.448 189.552 106 189 106C188.448 106 188 106.448 188 107C188 107.552 188.448 108 189 108Z" stroke="black" stroke-width="2" stroke-linecap="round" stroke-linejoin="round"/>
<path id="Vector_87" d="M195 101C195.552 101 196 100.552 196 100C196 99.4477 195.552 99 195 99C194.448 99 194 99.4477 194 100C194 100.552 194.448 101 195 101Z" stroke="black" stroke-width="2" stroke-linecap="round" stroke-linejoin="round"/>
<path id="Vector_88" d="M195 94C195.552 94 196 93.5523 196 93C196 92.4477 195.552 92 195 92C194.448 92 194 92.4477 194 93C194 93.5523 194.448 94 195 94Z" stroke="black" stroke-width="2" stroke-linecap="round" stroke-linejoin="round"/>
<path id="Vector_89" d="M195 108C195.552 108 196 107.552 196 107C196 106.448 195.552 106 195 106C194.448 106 194 106.448 194 107C194 107.552 194.448 108 195 108Z" stroke="black" stroke-width="2" stroke-linecap="round" stroke-linejoin="round"/>
</g></svg>
