<svg viewBox="0 0 24 24" fill="none" xmlns="http://www.w3.org/2000/svg"><g transform="translate(-116 -88)">
<path id="Vector_69" d="M128 94C128.552 94 129 93.5523 129 93C129 92.4477 128.552 92 128 92C127.448 92 127 92.4477 127 93C127 93.5523 127.448 94 128 94Z" stroke="black" stroke-width="2" stroke-linecap="round" stroke-linejoin="round"/>
<path id="Vector_70" d="M135 94C135.552 94 136 93.5523 136 93C136 92.4477 135.552 92 135 92C134.448 92 134 92.4477 134 93C134 93.5523 134.448 94 135 94Z" stroke="black" stroke-width="2" stroke-linecap="round" stroke-linejoin="round"/>
<path id="Vector_71" d="M121 94C121.552 94 122 93.5523 122 93C122 92.4477 121.552 92 121 92C120.448 92 120 92.4477 120 93C120 93.5523 120.448 94 121 94Z" stroke="black" stroke-width="2" stroke-linecap="round" stroke-linejoin="round"/>
<path id="Vector_72" d="M128 101C128.552 101 129 100.552 129 100C129 99.4477 128.552 99 128 99C127.448 99 127 99.4477 127 100C127 100.552 127.448 101 128 101Z" stroke="black" stroke-width="2" stroke-linecap="round" stroke-linejoin="round"/>
<path id="Vector_73" d="M135 101C135.552 101 136 100.552 136 100C136 99.4477 135.552 99 135 99C134.448 99 134 99.4477 134 100C134 100.552 134.448 101 135 101Z" stroke="black" stroke-width="2" stroke-linecap="round" stroke-linejoin="round"/>
<path id="Vector_74" d="M121 101C121.552 101 122 100.552 122 100C122 99.4477 121.552 99 121 99C120.448 99 120 99.4477 120 100C120 100.552 120.448 101 121 101Z" stroke="black" stroke-width="2" stroke-linecap="round" stroke-linejoin="round"/>
<path id="Vector_75" d="M128 108C128.552 108 129 107.552 129 107C129 106.448 128.552 106 128 106C127.448 106 127 106.448 127 107C127 107.552 127.448 108 128 108Z" stroke="black" stroke-width="2" stroke-linecap="round" stroke-linejoin="round"/>
<path id="Vector_76" d="M135 108C135.552 108 136 107.552 136 107C136 106.448 135.552 106 135 106C134.448 106 134 106.448 134 107C134 107.552 134.448 108 135 108Z" stroke="black" stroke-width="2" stroke-linecap="round" stroke-linejoin="round"/>
<path id="Vector_77" d="M121 108C121.552 108 122 107.552 122 107C122 106.448 121.552 106 121 106C120.448 106 120 106.448 120 107C120 107.552 120.448 108 121 108Z" stroke="black" stroke-width="2" stroke-linecap="round" stroke-linejoin="round"/>
</g></svg>
