<svg viewBox="0 0 24 24" fill="none" xmlns="http://www.w3.org/2000/svg"><g transform="translate(-148 -88)">
<path id="Vector_78" d="M160 98C160.552 98 161 97.5523 161 97C161 96.4477 160.552 96 160 96C159.448 96 159 96.4477 159 97C159 97.5523 159.448 98 160 98Z" stroke="black" stroke-width="2" stroke-linecap="round" stroke-linejoin="round"/>
<path id="Vector_79" d="M167 98C167.552 98 168 97.5523 168 97C168 96.4477 167.552 96 167 96C166.448 96 166 96.4477 166 97C166 97.5523 166.448 98 167 98Z" stroke="black" stroke-width="2" stroke-linecap="round" stroke-linejoin="round"/>
<path id="Vector_80" d="M153 98C153.552 98 154 97.5523 154 97C154 96.4477 153.552 96 153 96C152.448 96 152 96.4477 152 97C152 97.5523 152.448 98 153 98Z" stroke="black" stroke-width="2" stroke-linecap="round" stroke-linejoin="round"/>
<path id="Vector_81" d="M160 104C160.552 104 161 103.552 161 103C161 102.448 160.552 102 160 102C159.448 102 159 102.448 159 103C159 103.552 159.448 104 160 104Z" stroke="black" stroke-width="2" stroke-linecap="round" stroke-linejoin="round"/>
<path id="Vector_82" d="M167 104C167.552 104 168 103.552 168 103C168 102.448 167.552 102 167 102C166.448 102 166 102.448 166 103C166 103.552 166.448 104 167 104Z" stroke="black" stroke-width="2" stroke-linecap="round" stroke-linejoin="round"/>
<path id="Vector_83" d="M153 104C153.552 104 154 103.552 154 103C154 102.448 153.552 102 153 102C152.448 102 152 102.448 152 103C152 103.552 152.448 104 153 104Z" stroke="black" stroke-width="2" stroke-linecap="round" stroke-linejoin="round"/>
</g></svg>
