<svg viewBox="0 0 24 24" fill="none" xmlns="http://www.w3.org/2000/svg"><g transform="translate(-212 -88)">
<path id="Vector_90" d="M215 95V93C215 91.9 215.9 91 217 91H219" stroke="black" stroke-width="2" stroke-linecap="round" stroke-linejoin="round"/>
<path id="Vector_91" d="M229 91H231C232.1 91 233 91.9 233 93V95" stroke="black" stroke-width="2" stroke-linecap="round" stroke-linejoin="round"/>
<path id="Vector_92" d="M233 105V107C233 108.1 232.1 109 231 109H229" stroke="black" stroke-width="2" stroke-linecap="round" stroke-linejoin="round"/>
<path id="Vector_93" d="M219 109H217C215.9 109 215 108.1 215 107V105" stroke="black" stroke-width="2" stroke-linecap="round" stroke-linejoin="round"/>
<path id="Vector_94" d="M225 95H220C219.448 95 219 95.4477 219 96V99C219 99.5523 219.448 100 220 100H225C225.552 100 226 99.5523 226 99V96C226 95.4477 225.552 95 225 95Z" stroke="black" stroke-width="2" stroke-linecap="round" stroke-linejoin="round"/>
<path id="Vector_95" d="M228 100H223C222.448 100 222 100.448 222 101V104C222 104.552 222.448 105 223 105H228C228.552 105 229 104.552 229 104V101C229 100.448 228.552 100 228 100Z" stroke="black" stroke-width="2" stroke-linecap="round" stroke-linejoin="round"/>
</g></svg>
