<svg viewBox="0 0 24 24" fill="none" xmlns="http://www.w3.org/2000/svg"><g transform="translate(-52 -120)">
<path id="Vector_95" d="M63.9004 132.1L68.4144 127.586" stroke="black" stroke-width="2" stroke-linecap="round" stroke-linejoin="round"/>
<path id="Vector_96" d="M72.1001 122.3C71.9131 122.117 71.6618 122.014 71.4001 122.014C71.1383 122.014 70.887 122.117 70.7001 122.3L69.5861 123.414C69.211 123.789 69.0002 124.298 69.0001 124.828V126.172C68.9999 126.702 68.7892 127.211 68.4141 127.586C68.789 127.211 69.2977 127 69.8281 127H71.1721C71.7025 127 72.2111 126.789 72.5861 126.414L73.7001 125.3C73.8833 125.113 73.9859 124.862 73.9859 124.6C73.9859 124.338 73.8833 124.087 73.7001 123.9L72.1001 122.3Z" stroke="black" stroke-width="2" stroke-linecap="round" stroke-linejoin="round"/>
<path id="Vector_97" d="M58 136L60 138" stroke="black" stroke-width="2" stroke-linecap="round" stroke-linejoin="round"/>
<path id="Vector_98" d="M60.23 129.85C60.4573 129.302 60.8417 128.834 61.3347 128.505C61.8277 128.176 62.4072 128 63 128C64.3261 128 65.5979 128.527 66.5355 129.464C67.4732 130.402 68 131.674 68 133C67.9998 133.593 67.824 134.172 67.4948 134.665C67.1655 135.158 66.6976 135.543 66.15 135.77L65.23 136.15C64.8651 136.302 64.5534 136.559 64.3345 136.889C64.1156 137.218 63.9992 137.605 64 138C64 139.061 63.5786 140.078 62.8284 140.828C62.0783 141.579 61.0609 142 60 142C58.4087 142 56.8826 141.368 55.7574 140.243C54.6321 139.117 54 137.591 54 136C54 134.939 54.4214 133.922 55.1716 133.172C55.9217 132.421 56.9391 132 58 132C58.3954 132.001 58.7822 131.884 59.1115 131.665C59.4408 131.447 59.6978 131.135 59.85 130.77L60.23 129.85Z" stroke="black" stroke-width="2" stroke-linecap="round" stroke-linejoin="round"/>
</g></svg>
