<svg viewBox="0 0 24 24" fill="none" xmlns="http://www.w3.org/2000/svg"><g transform="translate(-308 -120)">
<path id="Vector_136" d="M321.144 141.144C322.114 140.174 322.942 139.08 323.58 137.926C324.217 136.771 324.653 135.578 324.861 134.414C325.069 133.251 325.046 132.14 324.793 131.144C324.54 130.149 324.062 129.289 323.387 128.614C322.711 127.938 321.851 127.46 320.856 127.207C319.861 126.954 318.75 126.931 317.586 127.14C316.423 127.348 315.229 127.783 314.075 128.421C312.92 129.059 311.826 129.886 310.856 130.856" stroke="black" stroke-width="2" stroke-linecap="round" stroke-linejoin="round"/>
<path id="Vector_137" d="M321.82 137.455C322.206 138.998 321.963 140.325 321.144 141.144C320.325 141.963 318.998 142.206 317.455 141.82C315.911 141.434 314.278 140.451 312.913 139.087C311.549 137.723 310.566 136.089 310.18 134.545C309.794 133.002 310.037 131.675 310.856 130.856C311.675 130.037 313.002 129.794 314.545 130.18C316.089 130.566 317.723 131.549 319.087 132.913C320.451 134.277 321.434 135.911 321.82 137.455Z" stroke="black" stroke-width="2" stroke-linecap="round" stroke-linejoin="round"/>
<path id="Vector_138" d="M324.565 130.435L326.6 128.4C326.918 128.576 327.27 128.681 327.633 128.707C327.995 128.733 328.358 128.68 328.698 128.551C329.038 128.423 329.345 128.222 329.599 127.962C329.854 127.703 330.048 127.391 330.17 127.049C330.291 126.706 330.336 126.342 330.303 125.98C330.269 125.619 330.157 125.269 329.974 124.955C329.792 124.641 329.543 124.37 329.245 124.162C328.947 123.954 328.608 123.814 328.25 123.75C328.18 123.398 328.035 123.065 327.825 122.774C327.615 122.483 327.345 122.24 327.032 122.063C326.72 121.886 326.373 121.778 326.016 121.747C325.658 121.716 325.298 121.762 324.959 121.882C324.621 122.003 324.313 122.195 324.056 122.445C323.798 122.695 323.598 122.998 323.468 123.333C323.338 123.668 323.282 124.026 323.303 124.385C323.324 124.743 323.422 125.093 323.59 125.41L321.566 127.435" stroke="black" stroke-width="2" stroke-linecap="round" stroke-linejoin="round"/>
<path id="Vector_139" d="M316.5 136.5L315.5 135.5" stroke="black" stroke-width="2" stroke-linecap="round" stroke-linejoin="round"/>
</g></svg>
