<svg viewBox="0 0 24 24" fill="none" xmlns="http://www.w3.org/2000/svg"><g transform="translate(-340 -120)">
<path id="Vector_140" d="M352 136H344C343.47 136 342.961 135.789 342.586 135.414C342.211 135.039 342 134.53 342 134C342 133.47 342.211 132.961 342.586 132.586C342.961 132.211 343.47 132 344 132H360C360.53 132 361.039 132.211 361.414 132.586C361.789 132.961 362 133.47 362 134C362 134.53 361.789 135.039 361.414 135.414C361.039 135.789 360.53 136 360 136H355.75" stroke="black" stroke-width="2" stroke-linecap="round" stroke-linejoin="round"/>
<path id="Vector_141" d="M345 132C344.47 132 343.961 131.789 343.586 131.414C343.211 131.039 343 130.53 343 130C343 128.143 343.948 126.363 345.636 125.05C347.324 123.737 349.613 123 352 123C354.387 123 356.676 123.737 358.364 125.05C360.052 126.363 361 128.143 361 130C361 130.53 360.789 131.039 360.414 131.414C360.039 131.789 359.53 132 359 132" stroke="black" stroke-width="2" stroke-linecap="round" stroke-linejoin="round"/>
<path id="Vector_142" d="M345 136C344.47 136 343.961 136.211 343.586 136.586C343.211 136.961 343 137.47 343 138C343 138.796 343.316 139.559 343.879 140.121C344.441 140.684 345.204 141 346 141H358C358.796 141 359.559 140.684 360.121 140.121C360.684 139.559 361 138.796 361 138C361 137.47 360.789 136.961 360.414 136.586C360.039 136.211 359.53 136 359 136" stroke="black" stroke-width="2" stroke-linecap="round" stroke-linejoin="round"/>
<path id="Vector_143" d="M346.67 132L352.8 136.6C353.224 136.918 353.758 137.055 354.283 136.98C354.543 136.943 354.793 136.855 355.019 136.721C355.245 136.587 355.442 136.41 355.6 136.2L358.75 132" stroke="black" stroke-width="2" stroke-linecap="round" stroke-linejoin="round"/>
</g></svg>
