<svg viewBox="0 0 24 24" fill="none" xmlns="http://www.w3.org/2000/svg"><g transform="translate(-20 -88)">
<path id="Vector_69" d="M35.0001 100L25.6271 109.373C25.4301 109.57 25.1962 109.726 24.9388 109.833C24.6814 109.94 24.4055 109.995 24.1269 109.995C23.5642 109.995 23.0245 109.771 22.6266 109.374C22.2286 108.976 22.005 108.436 22.0049 107.873C22.0048 107.311 22.2282 106.771 22.6261 106.373L32.0001 97" stroke="black" stroke-width="2" stroke-linecap="round" stroke-linejoin="round"/>
<path id="Vector_70" d="M38 103L42 99" stroke="black" stroke-width="2" stroke-linecap="round" stroke-linejoin="round"/>
<path id="Vector_71" d="M41.5 99.5L39.586 97.586C39.2109 97.211 39.0001 96.7024 39 96.172V95.828C38.9999 95.2976 38.7891 94.789 38.414 94.414L36.757 92.757C35.6321 91.6323 34.1067 91.0003 32.516 91H29L30.243 92.243C31.3679 93.3681 31.9999 94.894 32 96.485V98L34 100H35.172C35.7024 100 36.211 100.211 36.586 100.586L38.5 102.5" stroke="black" stroke-width="2" stroke-linecap="round" stroke-linejoin="round"/>
</g></svg>
