<svg viewBox="0 0 24 24" fill="none" xmlns="http://www.w3.org/2000/svg"><g transform="translate(-52 -88)">
<path id="Vector_53" d="M63 100H65C65.5304 100 66.0391 99.7893 66.4142 99.4142C66.7893 99.0391 67 98.5304 67 98C67 97.4696 66.7893 96.9609 66.4142 96.5858C66.0391 96.2107 65.5304 96 65 96H62C61.4 96 60.9 96.2 60.6 96.6L55 102" stroke="black" stroke-width="2" stroke-linecap="round" stroke-linejoin="round"/>
<path id="Vector_54" d="M59 106L60.6 104.6C60.9 104.2 61.4 104 62 104H66C67.1 104 68.1 103.6 68.8 102.8L73.4 98.4C73.7859 98.0354 74.0111 97.5323 74.0261 97.0016C74.0411 96.4709 73.8447 95.9559 73.48 95.57C73.1153 95.1841 72.6123 94.9589 72.0816 94.9439C71.5508 94.9289 71.0359 95.1254 70.65 95.49L66.45 99.39" stroke="black" stroke-width="2" stroke-linecap="round" stroke-linejoin="round"/>
<path id="Vector_55" d="M54 101L60 107" stroke="black" stroke-width="2" stroke-linecap="round" stroke-linejoin="round"/>
</g></svg>
