<svg viewBox="0 0 24 24" fill="none" xmlns="http://www.w3.org/2000/svg"><g transform="translate(-84 -88)">
<path id="Vector_56" d="M102 100.5V98C102 97.4696 101.789 96.9609 101.414 96.5858C101.039 96.2107 100.53 96 100 96C99.4696 96 98.9609 96.2107 98.5858 96.5858C98.2107 96.9609 98 97.4696 98 98V99.4" stroke="black" stroke-width="2" stroke-linecap="round" stroke-linejoin="round"/>
<path id="Vector_57" d="M98 99V97C98 96.4696 97.7893 95.9609 97.4142 95.5858C97.0391 95.2107 96.5304 95 96 95C95.4696 95 94.9609 95.2107 94.5858 95.5858C94.2107 95.9609 94 96.4696 94 97V99" stroke="black" stroke-width="2" stroke-linecap="round" stroke-linejoin="round"/>
<path id="Vector_58" d="M94 98.5V93C94 92.4696 93.7893 91.9609 93.4142 91.5858C93.0391 91.2107 92.5304 91 92 91C91.4696 91 90.9609 91.2107 90.5858 91.5858C90.2107 91.9609 90 92.4696 90 93V102" stroke="black" stroke-width="2" stroke-linecap="round" stroke-linejoin="round"/>
<path id="Vector_59" d="M91.0001 103L89.2401 101.24C88.8603 100.895 88.3621 100.708 87.8489 100.72C87.3356 100.732 86.8465 100.941 86.4828 101.303C86.1191 101.665 85.9088 102.154 85.8952 102.667C85.8817 103.18 86.066 103.679 86.4101 104.06L90.0101 107.66C91.5001 109.14 93.2001 110 96.0001 110H98.0001C100.122 110 102.157 109.157 103.657 107.657C105.157 106.157 106 104.122 106 102V95C106 94.4696 105.789 93.9609 105.414 93.5858C105.039 93.2107 104.531 93 104 93C103.47 93 102.961 93.2107 102.586 93.5858C102.211 93.9609 102 94.4696 102 95V100" stroke="black" stroke-width="2" stroke-linecap="round" stroke-linejoin="round"/>
</g></svg>
