<svg viewBox="0 0 24 24" fill="none" xmlns="http://www.w3.org/2000/svg"><g transform="translate(-116 -88)">
<path id="Vector_60" d="M128 91V90" stroke="black" stroke-width="2" stroke-linecap="round" stroke-linejoin="round"/>
<path id="Vector_61" d="M131.4 105.4L134.6 102.6C134.79 102.416 135.015 102.272 135.261 102.175C135.508 102.078 135.771 102.03 136.035 102.035C136.3 102.039 136.561 102.096 136.804 102.202C137.047 102.307 137.266 102.46 137.45 102.65C137.634 102.84 137.778 103.065 137.875 103.311C137.972 103.558 138.02 103.821 138.015 104.085C138.011 104.35 137.954 104.611 137.848 104.854C137.743 105.097 137.59 105.316 137.4 105.5L133.8 108.8C133.1 109.6 132.1 110 131 110H127C125.9 110 124.9 109.6 124.2 108.8L122.898 107.336C122.804 107.23 122.689 107.146 122.56 107.088C122.432 107.03 122.292 107 122.151 107H121" stroke="black" stroke-width="2" stroke-linecap="round" stroke-linejoin="round"/>
<path id="Vector_62" d="M118 102H130C130.53 102 131.039 102.211 131.414 102.586C131.789 102.961 132 103.47 132 104C132 104.53 131.789 105.039 131.414 105.414C131.039 105.789 130.53 106 130 106H128" stroke="black" stroke-width="2" stroke-linecap="round" stroke-linejoin="round"/>
<path id="Vector_63" d="M120 98H136" stroke="black" stroke-width="2" stroke-linecap="round" stroke-linejoin="round"/>
<path id="Vector_64" d="M121 98C121 96.1435 121.737 94.363 123.05 93.0503C124.363 91.7375 126.143 91 128 91C129.857 91 131.637 91.7375 132.95 93.0503C134.263 94.363 135 96.1435 135 98" stroke="black" stroke-width="2" stroke-linecap="round" stroke-linejoin="round"/>
<path id="Vector_65" d="M121 102V108C121 108.265 120.895 108.52 120.707 108.707C120.52 108.895 120.265 109 120 109H118" stroke="black" stroke-width="2" stroke-linecap="round" stroke-linejoin="round"/>
</g></svg>
