<svg viewBox="0 0 24 24" fill="none" xmlns="http://www.w3.org/2000/svg"><g transform="translate(-20 -88)">
<path id="Vector_49" d="M31 102H33C33.5304 102 34.0391 101.789 34.4142 101.414C34.7893 101.039 35 100.53 35 100C35 99.4696 34.7893 98.9609 34.4142 98.5858C34.0391 98.2107 33.5304 98 33 98H30C29.4 98 28.9 98.2 28.6 98.6L23 104" stroke="black" stroke-width="2" stroke-linecap="round" stroke-linejoin="round"/>
<path id="Vector_50" d="M34.45 101.39L39.5 96.696C40.196 96 41 94.85 41 93.75C41.0001 93.1934 40.8313 92.6498 40.5159 92.1911C40.2005 91.7325 39.7533 91.3803 39.2335 91.1813C38.7136 90.9822 38.1456 90.9456 37.6045 91.0762C37.0634 91.2069 36.5747 91.4987 36.203 91.913C36.1772 91.9411 36.1458 91.9635 36.1108 91.9788C36.0759 91.9941 36.0382 92.002 36 92.002C35.9618 92.002 35.9241 91.9941 35.8892 91.9788C35.8542 91.9635 35.8228 91.9411 35.797 91.913C35.4253 91.4987 34.9366 91.2069 34.3955 91.0762C33.8544 90.9456 33.2864 90.9822 32.7665 91.1813C32.2467 91.3803 31.7995 91.7325 31.4841 92.1911C31.1687 92.6498 30.9999 93.1934 31 93.75C31 94.95 31.802 95.998 32.5 96.696L36 99.95" stroke="black" stroke-width="2" stroke-linecap="round" stroke-linejoin="round"/>
<path id="Vector_51" d="M22 103L28 109" stroke="black" stroke-width="2" stroke-linecap="round" stroke-linejoin="round"/>
<path id="Vector_52" d="M27 108L28.6 106.6C28.9 106.2 29.4 106 30 106H34C35.1 106 36.1 105.6 36.8 104.8L41.4 100.4C41.7859 100.035 42.0111 99.5323 42.0261 99.0016C42.0411 98.4709 41.8447 97.9559 41.48 97.57C41.1153 97.1841 40.6123 96.9589 40.0816 96.9439C39.5508 96.9289 39.0359 97.1254 38.65 97.49" stroke="black" stroke-width="2" stroke-linecap="round" stroke-linejoin="round"/>
</g></svg>
