<svg viewBox="0 0 24 24" fill="none" xmlns="http://www.w3.org/2000/svg"><g transform="translate(-308 -56)">
<path id="Vector_35" d="M319 71H321C321.53 71 322.039 70.7893 322.414 70.4142C322.789 70.0391 323 69.5304 323 69C323 68.4696 322.789 67.9609 322.414 67.5858C322.039 67.2107 321.53 67 321 67H318C317.4 67 316.9 67.2 316.6 67.6L311 73" stroke="black" stroke-width="2" stroke-linecap="round" stroke-linejoin="round"/>
<path id="Vector_36" d="M315 77L316.6 75.6C316.9 75.2 317.4 75 318 75H322C323.1 75 324.1 74.6 324.8 73.8L329.4 69.4C329.786 69.0354 330.011 68.5323 330.026 68.0016C330.041 67.4709 329.845 66.9559 329.48 66.57C329.115 66.1841 328.612 65.9589 328.082 65.9439C327.551 65.9289 327.036 66.1254 326.65 66.49L322.45 70.39" stroke="black" stroke-width="2" stroke-linecap="round" stroke-linejoin="round"/>
<path id="Vector_37" d="M310 72L316 78" stroke="black" stroke-width="2" stroke-linecap="round" stroke-linejoin="round"/>
<path id="Vector_38" d="M324 67.9C325.601 67.9 326.9 66.6016 326.9 65C326.9 63.3983 325.601 62.1 324 62.1C322.398 62.1 321.1 63.3983 321.1 65C321.1 66.6016 322.398 67.9 324 67.9Z" stroke="black" stroke-width="2" stroke-linecap="round" stroke-linejoin="round"/>
<path id="Vector_39" d="M314 64C315.657 64 317 62.6569 317 61C317 59.3431 315.657 58 314 58C312.343 58 311 59.3431 311 61C311 62.6569 312.343 64 314 64Z" stroke="black" stroke-width="2" stroke-linecap="round" stroke-linejoin="round"/>
</g></svg>
