<svg viewBox="0 0 24 24" fill="none" xmlns="http://www.w3.org/2000/svg"><g transform="translate(-244 -56)">
<path id="Vector_29" d="M262 67V62C262 61.4696 261.789 60.9609 261.414 60.5858C261.039 60.2107 260.53 60 260 60C259.47 60 258.961 60.2107 258.586 60.5858C258.211 60.9609 258 61.4696 258 62" stroke="black" stroke-width="2" stroke-linecap="round" stroke-linejoin="round"/>
<path id="Vector_30" d="M258 66V60C258 59.4696 257.789 58.9609 257.414 58.5858C257.039 58.2107 256.53 58 256 58C255.47 58 254.961 58.2107 254.586 58.5858C254.211 58.9609 254 59.4696 254 60V62" stroke="black" stroke-width="2" stroke-linecap="round" stroke-linejoin="round"/>
<path id="Vector_31" d="M254 66.5V62C254 61.4696 253.789 60.9609 253.414 60.5858C253.039 60.2107 252.53 60 252 60C251.47 60 250.961 60.2107 250.586 60.5858C250.211 60.9609 250 61.4696 250 62V70" stroke="black" stroke-width="2" stroke-linecap="round" stroke-linejoin="round"/>
<path id="Vector_32" d="M262 64C262 63.4696 262.211 62.9609 262.586 62.5858C262.961 62.2107 263.47 62 264 62C264.531 62 265.039 62.2107 265.414 62.5858C265.789 62.9609 266 63.4696 266 64V70C266 72.1217 265.157 74.1566 263.657 75.6569C262.157 77.1571 260.122 78 258 78H256C253.2 78 251.5 77.14 250.01 75.66L246.41 72.06C246.066 71.6789 245.882 71.1802 245.895 70.6669C245.909 70.1537 246.119 69.6653 246.483 69.303C246.846 68.9406 247.336 68.7319 247.849 68.7202C248.362 68.7085 248.86 68.8946 249.24 69.24L251 71" stroke="black" stroke-width="2" stroke-linecap="round" stroke-linejoin="round"/>
</g></svg>
