<svg viewBox="0 0 24 24" fill="none" xmlns="http://www.w3.org/2000/svg"><g transform="translate(-276 -56)">
<path id="Vector_33" d="M278.048 74.566C277.983 74.8583 277.984 75.1615 278.052 75.4532C278.12 75.7449 278.252 76.0176 278.44 76.2513C278.627 76.4849 278.865 76.6735 279.135 76.8031C279.405 76.9326 279.7 76.9999 280 77H296C296.299 76.9999 296.595 76.9326 296.865 76.8031C297.135 76.6735 297.372 76.4849 297.56 76.2513C297.747 76.0176 297.879 75.7449 297.947 75.4532C298.015 75.1615 298.017 74.8583 297.952 74.566L295.952 65.566C295.853 65.1219 295.606 64.7247 295.251 64.44C294.896 64.1553 294.455 64.0001 294 64H282C281.545 64.0001 281.103 64.1553 280.748 64.44C280.394 64.7247 280.146 65.1219 280.048 65.566L278.048 74.566Z" stroke="black" stroke-width="2" stroke-linecap="round" stroke-linejoin="round"/>
<path id="Vector_34" d="M284 67V62C284 60.9391 284.421 59.9217 285.172 59.1716C285.922 58.4214 286.939 58 288 58C289.061 58 290.078 58.4214 290.828 59.1716C291.579 59.9217 292 60.9391 292 62V67" stroke="black" stroke-width="2" stroke-linecap="round" stroke-linejoin="round"/>
</g></svg>
