<svg viewBox="0 0 24 24" fill="none" xmlns="http://www.w3.org/2000/svg"><g transform="translate(-372 -56)">
<path id="Vector_44" d="M390 67.5V65C390 64.4696 389.789 63.9609 389.414 63.5858C389.039 63.2107 388.53 63 388 63C387.47 63 386.961 63.2107 386.586 63.5858C386.211 63.9609 386 64.4696 386 65V66.4" stroke="black" stroke-width="2" stroke-linecap="round" stroke-linejoin="round"/>
<path id="Vector_45" d="M386 66V64C386 63.4696 385.789 62.9609 385.414 62.5858C385.039 62.2107 384.53 62 384 62C383.47 62 382.961 62.2107 382.586 62.5858C382.211 62.9609 382 63.4696 382 64V66" stroke="black" stroke-width="2" stroke-linecap="round" stroke-linejoin="round"/>
<path id="Vector_46" d="M382 65.9V65C382 64.4696 381.789 63.9609 381.414 63.5858C381.039 63.2107 380.53 63 380 63C379.47 63 378.961 63.2107 378.586 63.5858C378.211 63.9609 378 64.4696 378 65V70" stroke="black" stroke-width="2" stroke-linecap="round" stroke-linejoin="round"/>
<path id="Vector_47" d="M378 70C378 69.4696 377.789 68.9609 377.414 68.5858C377.039 68.2107 376.53 68 376 68C375.47 68 374.961 68.2107 374.586 68.5858C374.211 68.9609 374 69.4696 374 70" stroke="black" stroke-width="2" stroke-linecap="round" stroke-linejoin="round"/>
<path id="Vector_48" d="M390 67C390 66.4696 390.211 65.9609 390.586 65.5858C390.961 65.2107 391.47 65 392 65C392.53 65 393.039 65.2107 393.414 65.5858C393.789 65.9609 394 66.4696 394 67V70C394 72.1217 393.157 74.1566 391.657 75.6569C390.157 77.1571 388.122 78 386 78H382C379.878 78 377.843 77.1571 376.343 75.6569C374.843 74.1566 374 72.1217 374 70C374 69.4696 374.211 68.9609 374.586 68.5858C374.961 68.2107 375.47 68 376 68C376.53 68 377.039 68.2107 377.414 68.5858C377.789 68.9609 378 69.4696 378 70" stroke="black" stroke-width="2" stroke-linecap="round" stroke-linejoin="round"/>
</g></svg>
