<svg viewBox="0 0 24 24" fill="none" xmlns="http://www.w3.org/2000/svg"><g transform="translate(-148 -88)">
<path id="Vector_66" d="M159 105L161 107C161.197 107.197 161.431 107.353 161.688 107.46C161.946 107.566 162.221 107.621 162.5 107.621C162.779 107.621 163.054 107.566 163.312 107.46C163.569 107.353 163.803 107.197 164 107C164.197 106.803 164.353 106.569 164.46 106.312C164.566 106.054 164.621 105.779 164.621 105.5C164.621 105.221 164.566 104.946 164.46 104.688C164.353 104.431 164.197 104.197 164 104" stroke="black" stroke-width="2" stroke-linecap="round" stroke-linejoin="round"/>
<path id="Vector_67" d="M162 102L164.5 104.5C164.898 104.898 165.438 105.121 166 105.121C166.563 105.121 167.102 104.898 167.5 104.5C167.898 104.102 168.122 103.563 168.122 103C168.122 102.437 167.898 101.898 167.5 101.5L163.62 97.62C163.058 97.0582 162.295 96.7427 161.5 96.7427C160.705 96.7427 159.943 97.0582 159.38 97.62L158.5 98.5C158.102 98.8978 157.563 99.1213 157 99.1213C156.438 99.1213 155.898 98.8978 155.5 98.5C155.102 98.1022 154.879 97.5626 154.879 97C154.879 96.4374 155.102 95.8978 155.5 95.5L158.31 92.69C159.222 91.7802 160.412 91.2006 161.691 91.043C162.97 90.8854 164.264 91.1588 165.37 91.82L165.84 92.1C166.266 92.357 166.772 92.4461 167.26 92.35L169 92" stroke="black" stroke-width="2" stroke-linecap="round" stroke-linejoin="round"/>
<path id="Vector_68" d="M169 91L170 102H168" stroke="black" stroke-width="2" stroke-linecap="round" stroke-linejoin="round"/>
<path id="Vector_69" d="M151 91L150 102L156.5 108.5C156.898 108.898 157.437 109.121 158 109.121C158.563 109.121 159.102 108.898 159.5 108.5C159.898 108.102 160.121 107.563 160.121 107C160.121 106.437 159.898 105.898 159.5 105.5" stroke="black" stroke-width="2" stroke-linecap="round" stroke-linejoin="round"/>
<path id="Vector_70" d="M151 92H159" stroke="black" stroke-width="2" stroke-linecap="round" stroke-linejoin="round"/>
</g></svg>
