<svg viewBox="0 0 24 24" fill="none" xmlns="http://www.w3.org/2000/svg"><g transform="translate(-340 -56)">
<path id="Vector_40" d="M352.035 73.012C352.035 72.2163 351.719 71.4533 351.156 70.8907C350.594 70.3281 349.831 70.012 349.035 70.012L348.724 70.01C348.582 70.0092 348.443 69.9663 348.326 69.8869C348.208 69.8075 348.116 69.695 348.062 69.5637C348.008 69.4323 347.994 69.2879 348.022 69.1486C348.05 69.0094 348.119 68.8815 348.219 68.781L349.414 67.586C349.789 67.2109 350.298 67.0001 350.828 67H352C352.53 67 353.039 66.7893 353.414 66.4142C353.789 66.0391 354 65.5304 354 65C354 64.4696 353.789 63.9609 353.414 63.5858C353.039 63.2107 352.53 63 352 63H349.243C348.849 63 348.459 63.0776 348.095 63.2284C347.73 63.3792 347.4 63.6003 347.121 63.879L344.414 66.586C343.509 67.4916 343 68.7196 343 70C343 72.1217 343.843 74.1566 345.343 75.6569C346.843 77.1571 348.878 78 351 78H353C355.122 78 357.157 77.1571 358.657 75.6569C360.157 74.1566 361 72.1217 361 70V63C361 62.4696 360.789 61.9609 360.414 61.5858C360.039 61.2107 359.53 61 359 61C358.47 61 357.961 61.2107 357.586 61.5858C357.211 61.9609 357 62.4696 357 63V65C357 65.5304 357.211 66.0391 357.586 66.4142C357.961 66.7893 358.47 67 359 67C359.53 67 360.039 66.7893 360.414 66.4142C360.789 66.0391 361 65.5304 361 65" stroke="black" stroke-width="2" stroke-linecap="round" stroke-linejoin="round"/>
<path id="Vector_41" d="M353.888 65.662C354.189 65.8634 354.539 65.9793 354.901 65.9972C355.263 66.0151 355.623 65.9345 355.942 65.7638C356.262 65.5932 356.529 65.3389 356.715 65.0283C356.901 64.7176 357 64.3622 357 64V61C357 60.4696 356.789 59.9609 356.414 59.5858C356.039 59.2107 355.53 59 355 59C354.47 59 353.961 59.2107 353.586 59.5858C353.211 59.9609 353 60.4696 353 61" stroke="black" stroke-width="2" stroke-linecap="round" stroke-linejoin="round"/>
<path id="Vector_42" d="M349 61C349 60.4696 348.789 59.9609 348.414 59.5858C348.039 59.2107 347.53 59 347 59C346.47 59 345.961 59.2107 345.586 59.5858C345.211 59.9609 345 60.4696 345 61V66" stroke="black" stroke-width="2" stroke-linecap="round" stroke-linejoin="round"/>
<path id="Vector_43" d="M349 63V60C349 59.4696 349.211 58.9609 349.586 58.5858C349.961 58.2107 350.47 58 351 58C351.53 58 352.039 58.2107 352.414 58.5858C352.789 58.9609 353 59.4696 353 60V63.268" stroke="black" stroke-width="2" stroke-linecap="round" stroke-linejoin="round"/>
</g></svg>
