<svg viewBox="0 0 24 24" fill="none" xmlns="http://www.w3.org/2000/svg"><g transform="translate(-52 -88)">
<path id="Vector_72" d="M62 98V93C62 92.7348 62.1054 92.4804 62.2929 92.2929C62.4804 92.1054 62.7348 92 63 92H65C65.2652 92 65.5196 92.1054 65.7071 92.2929C65.8946 92.4804 66 92.7348 66 93V98" stroke="black" stroke-width="2" stroke-linecap="round" stroke-linejoin="round"/>
<path id="Vector_73" d="M66 94C67.5913 94 69.1174 94.6321 70.2426 95.7574C71.3679 96.8826 72 98.4087 72 100V103" stroke="black" stroke-width="2" stroke-linecap="round" stroke-linejoin="round"/>
<path id="Vector_74" d="M56 103V100C56 98.4087 56.6321 96.8826 57.7574 95.7574C58.8826 94.6321 60.4087 94 62 94" stroke="black" stroke-width="2" stroke-linecap="round" stroke-linejoin="round"/>
<path id="Vector_75" d="M73 103H55C54.4477 103 54 103.448 54 104V106C54 106.552 54.4477 107 55 107H73C73.5523 107 74 106.552 74 106V104C74 103.448 73.5523 103 73 103Z" stroke="black" stroke-width="2" stroke-linecap="round" stroke-linejoin="round"/>
</g></svg>
