<svg viewBox="0 0 24 24" fill="none" xmlns="http://www.w3.org/2000/svg"><g transform="translate(-276 -88)">
<path id="Vector_78" d="M286 104H286.01" stroke="black" stroke-width="2" stroke-linecap="round" stroke-linejoin="round"/>
<path id="Vector_79" d="M278.212 99.577C278.073 99.8551 278 100.162 278 100.473V106C278 106.53 278.211 107.039 278.586 107.414C278.961 107.789 279.47 108 280 108H296C296.53 108 297.039 107.789 297.414 107.414C297.789 107.039 298 106.53 298 106V100.473C298 100.162 297.927 99.8551 297.788 99.577L294.55 93.11C294.384 92.7768 294.129 92.4964 293.813 92.3003C293.497 92.1042 293.132 92.0002 292.76 92H283.24C282.868 92.0002 282.503 92.1042 282.187 92.3003C281.871 92.4964 281.616 92.7768 281.45 93.11L278.212 99.577Z" stroke="black" stroke-width="2" stroke-linecap="round" stroke-linejoin="round"/>
<path id="Vector_80" d="M297.946 100.013H278.054" stroke="black" stroke-width="2" stroke-linecap="round" stroke-linejoin="round"/>
<path id="Vector_81" d="M282 104H282.01" stroke="black" stroke-width="2" stroke-linecap="round" stroke-linejoin="round"/>
</g></svg>
