<svg viewBox="0 0 24 24" fill="none" xmlns="http://www.w3.org/2000/svg"><g transform="translate(-148 -120)">
<path id="Vector_125" d="M162 138C162 137.47 161.789 136.961 161.414 136.586C161.039 136.211 160.53 136 160 136C159.47 136 158.961 136.211 158.586 136.586C158.211 136.961 158 137.47 158 138" stroke="black" stroke-width="2" stroke-linecap="round" stroke-linejoin="round"/>
<path id="Vector_126" d="M167 131L164.89 124.343C164.798 124.077 164.65 123.834 164.457 123.629C164.264 123.424 164.031 123.262 163.771 123.153C163.511 123.045 163.231 122.993 162.95 123C162.669 123.007 162.392 123.074 162.138 123.195L160.862 123.805C160.593 123.933 160.298 124 160 124H156.5C156.064 124 155.641 124.142 155.293 124.405C154.946 124.668 154.693 125.037 154.575 125.456L153 131" stroke="black" stroke-width="2" stroke-linecap="round" stroke-linejoin="round"/>
<path id="Vector_127" d="M150 131H170" stroke="black" stroke-width="2" stroke-linecap="round" stroke-linejoin="round"/>
<path id="Vector_128" d="M165 141C166.657 141 168 139.657 168 138C168 136.343 166.657 135 165 135C163.343 135 162 136.343 162 138C162 139.657 163.343 141 165 141Z" stroke="black" stroke-width="2" stroke-linecap="round" stroke-linejoin="round"/>
<path id="Vector_129" d="M155 141C156.657 141 158 139.657 158 138C158 136.343 156.657 135 155 135C153.343 135 152 136.343 152 138C152 139.657 153.343 141 155 141Z" stroke="black" stroke-width="2" stroke-linecap="round" stroke-linejoin="round"/>
</g></svg>
