<svg viewBox="0 0 24 24" fill="none" xmlns="http://www.w3.org/2000/svg"><g transform="translate(-84 -120)">
<path id="Vector_99" d="M94 132H90" stroke="black" stroke-width="2" stroke-linecap="round" stroke-linejoin="round"/>
<path id="Vector_100" d="M94 135V129" stroke="black" stroke-width="2" stroke-linecap="round" stroke-linejoin="round"/>
<path id="Vector_101" d="M98 134.5C98 134.633 98.0527 134.76 98.1464 134.854C98.2402 134.947 98.3674 135 98.5 135H99.5C100.163 135 100.799 134.737 101.268 134.268C101.737 133.799 102 133.163 102 132.5V131.5C102 130.837 101.737 130.201 101.268 129.732C100.799 129.263 100.163 129 99.5 129H98.5C98.3674 129 98.2402 129.053 98.1464 129.146C98.0527 129.24 98 129.367 98 129.5V134.5Z" stroke="black" stroke-width="2" stroke-linecap="round" stroke-linejoin="round"/>
<path id="Vector_102" d="M90 135V129" stroke="black" stroke-width="2" stroke-linecap="round" stroke-linejoin="round"/>
<path id="Vector_103" d="M104 125H88C86.8954 125 86 125.895 86 127V137C86 138.105 86.8954 139 88 139H104C105.105 139 106 138.105 106 137V127C106 125.895 105.105 125 104 125Z" stroke="black" stroke-width="2" stroke-linecap="round" stroke-linejoin="round"/>
</g></svg>
