<svg viewBox="0 0 24 24" fill="none" xmlns="http://www.w3.org/2000/svg"><g transform="translate(-372 -88)">
<path id="Vector_92" d="M394 97C394 96.7348 393.895 96.4804 393.707 96.2929C393.52 96.1054 393.265 96 393 96H375C374.735 96 374.48 96.1054 374.293 96.2929C374.105 96.4804 374 96.7348 374 97V101C374 101.265 374.105 101.52 374.293 101.707C374.48 101.895 374.735 102 375 102H376L378 104H390L392 102H393C393.265 102 393.52 101.895 393.707 101.707C393.895 101.52 394 101.265 394 101V97Z" stroke="black" stroke-width="2" stroke-linecap="round" stroke-linejoin="round"/>
<path id="Vector_93" d="M379.5 100H388.5" stroke="black" stroke-width="2" stroke-linecap="round" stroke-linejoin="round"/>
</g></svg>
