<svg viewBox="0 0 24 24" fill="none" xmlns="http://www.w3.org/2000/svg"><g transform="translate(-116 -120)">
<path id="Vector_104" d="M137 134H135.657" stroke="black" stroke-width="2" stroke-linecap="round" stroke-linejoin="round"/>
<path id="Vector_105" d="M125.128 123.47C126.482 123.014 127.924 122.887 129.337 123.099C130.75 123.312 132.091 123.857 133.251 124.69C134.411 125.524 135.356 126.622 136.008 127.893C136.66 129.164 137 130.572 137 132V135.343" stroke="black" stroke-width="2" stroke-linecap="round" stroke-linejoin="round"/>
<path id="Vector_106" d="M118 122L138 142" stroke="black" stroke-width="2" stroke-linecap="round" stroke-linejoin="round"/>
<path id="Vector_107" d="M136.414 140.414C136.039 140.789 135.53 141 135 141H134C133.47 141 132.961 140.789 132.586 140.414C132.211 140.039 132 139.53 132 139V136" stroke="black" stroke-width="2" stroke-linecap="round" stroke-linejoin="round"/>
<path id="Vector_108" d="M119 134H122C122.53 134 123.039 134.211 123.414 134.586C123.789 134.961 124 135.47 124 136V139C124 139.53 123.789 140.039 123.414 140.414C123.039 140.789 122.53 141 122 141H121C120.47 141 119.961 140.789 119.586 140.414C119.211 140.039 119 139.53 119 139V132C119 130.818 119.233 129.648 119.685 128.556C120.137 127.464 120.8 126.472 121.636 125.636" stroke="black" stroke-width="2" stroke-linecap="round" stroke-linejoin="round"/>
</g></svg>
