<svg viewBox="0 0 24 24" fill="none" xmlns="http://www.w3.org/2000/svg"><g transform="translate(-180 -120)">
<path id="Vector_110" d="M183 131H186C186.53 131 187.039 131.211 187.414 131.586C187.789 131.961 188 132.47 188 133V136C188 136.53 187.789 137.039 187.414 137.414C187.039 137.789 186.53 138 186 138H185C184.47 138 183.961 137.789 183.586 137.414C183.211 137.039 183 136.53 183 136V131ZM183 131C183 129.818 183.233 128.648 183.685 127.556C184.137 126.464 184.8 125.472 185.636 124.636C186.472 123.8 187.464 123.137 188.556 122.685C189.648 122.233 190.818 122 192 122C193.182 122 194.352 122.233 195.444 122.685C196.536 123.137 197.528 123.8 198.364 124.636C199.2 125.472 199.863 126.464 200.315 127.556C200.767 128.648 201 129.818 201 131M201 131V136C201 136.53 200.789 137.039 200.414 137.414C200.039 137.789 199.53 138 199 138H198C197.47 138 196.961 137.789 196.586 137.414C196.211 137.039 196 136.53 196 136V133C196 132.47 196.211 131.961 196.586 131.586C196.961 131.211 197.47 131 198 131H201Z" stroke="black" stroke-width="2" stroke-linecap="round" stroke-linejoin="round"/>
<path id="Vector_111" d="M201 136V138C201 139.061 200.579 140.078 199.828 140.828C199.078 141.579 198.061 142 197 142H192" stroke="black" stroke-width="2" stroke-linecap="round" stroke-linejoin="round"/>
</g></svg>
