<svg viewBox="0 0 24 24" fill="none" xmlns="http://www.w3.org/2000/svg"><g transform="translate(-148 -120)">
<path id="Vector_109" d="M151 134H154C154.53 134 155.039 134.211 155.414 134.586C155.789 134.961 156 135.47 156 136V139C156 139.53 155.789 140.039 155.414 140.414C155.039 140.789 154.53 141 154 141H153C152.47 141 151.961 140.789 151.586 140.414C151.211 140.039 151 139.53 151 139V132C151 129.613 151.948 127.324 153.636 125.636C155.324 123.948 157.613 123 160 123C162.387 123 164.676 123.948 166.364 125.636C168.052 127.324 169 129.613 169 132V139C169 139.53 168.789 140.039 168.414 140.414C168.039 140.789 167.53 141 167 141H166C165.47 141 164.961 140.789 164.586 140.414C164.211 140.039 164 139.53 164 139V136C164 135.47 164.211 134.961 164.586 134.586C164.961 134.211 165.47 134 166 134H169" stroke="black" stroke-width="2" stroke-linecap="round" stroke-linejoin="round"/>
</g></svg>
