<svg viewBox="0 0 24 24" fill="none" xmlns="http://www.w3.org/2000/svg"><g transform="translate(-52 -120)">
<path id="Vector_127" d="M64.4094 125.824C63.7074 126.616 63.2594 127.32 62.9944 127.99L65.1474 130.146C65.2411 130.24 65.2938 130.367 65.2938 130.499C65.2938 130.632 65.2411 130.759 65.1474 130.853L62.8544 133.146C62.7607 133.24 62.708 133.367 62.708 133.499C62.708 133.632 62.7607 133.759 62.8544 133.853L64.0004 135" stroke="black" stroke-width="2" stroke-linecap="round" stroke-linejoin="round"/>
<path id="Vector_128" d="M65.508 140.313C65.3217 140.527 65.0919 140.699 64.834 140.817C64.5762 140.936 64.296 140.998 64.0123 141C63.7285 141.001 63.4476 140.943 63.1883 140.828C62.9289 140.713 62.697 140.544 62.508 140.332L57 135C55.5 133.5 54 131.8 54 129.5C53.9998 128.387 54.3372 127.3 54.9677 126.383C55.5982 125.466 56.492 124.762 57.5311 124.364C58.5703 123.965 59.7058 123.891 60.7878 124.152C61.8697 124.412 62.8472 124.995 63.591 125.823C63.7019 125.927 63.848 125.984 63.9998 125.984C64.1516 125.985 64.2978 125.927 64.409 125.824C65.1528 124.996 66.1301 124.414 67.212 124.153C68.2938 123.892 69.4293 123.966 70.4684 124.364C71.5075 124.763 72.4013 125.467 73.0319 126.384C73.6624 127.301 74 128.387 74 129.5C74 131.79 72.5 133.5 71 135L65.508 140.313Z" stroke="black" stroke-width="2" stroke-linecap="round" stroke-linejoin="round"/>
</g></svg>
