<svg viewBox="0 0 24 24" fill="none" xmlns="http://www.w3.org/2000/svg"><g transform="translate(-116 -120)">
<path id="Vector_130" d="M130.876 138.99L129.508 140.313C129.322 140.527 129.092 140.699 128.834 140.817C128.576 140.936 128.296 140.998 128.012 141C127.729 141.001 127.448 140.943 127.188 140.828C126.929 140.713 126.697 140.544 126.508 140.332L121 135C119.5 133.5 118 131.8 118 129.5C118 128.387 118.338 127.301 118.968 126.384C119.599 125.467 120.493 124.763 121.532 124.364C122.571 123.966 123.706 123.892 124.788 124.153C125.87 124.414 126.847 124.996 127.591 125.824C127.643 125.88 127.707 125.925 127.777 125.955C127.847 125.986 127.923 126.002 128 126.002C128.077 126.002 128.153 125.986 128.223 125.955C128.293 125.925 128.357 125.88 128.409 125.824C129.15 124.991 130.128 124.403 131.212 124.14C132.295 123.876 133.433 123.948 134.475 124.348C135.516 124.747 136.411 125.453 137.041 126.374C137.671 127.294 138.005 128.385 138 129.5C138 130.033 137.917 130.564 137.756 131.072" stroke="black" stroke-width="2" stroke-linecap="round" stroke-linejoin="round"/>
<path id="Vector_131" d="M131 135H137" stroke="black" stroke-width="2" stroke-linecap="round" stroke-linejoin="round"/>
</g></svg>
