<svg viewBox="0 0 24 24" fill="none" xmlns="http://www.w3.org/2000/svg"><g transform="translate(-84 -120)">
<path id="Vector_129" d="M96.409 125.824L93.586 128.586C93.2111 128.961 93.0004 129.47 93.0004 130C93.0004 130.53 93.2111 131.039 93.586 131.414C93.9611 131.789 94.4697 131.999 95 131.999C95.5303 131.999 96.0389 131.789 96.414 131.414L98.124 129.704C98.3478 129.48 98.6135 129.302 98.906 129.181C99.1985 129.06 99.5119 128.998 99.8285 128.998C100.145 128.998 100.459 129.06 100.751 129.181C101.043 129.302 101.309 129.48 101.533 129.704L103.414 131.586C103.789 131.961 104 132.47 104 133C104 133.53 103.789 134.039 103.414 134.414C105 132.828 106 131.5 106 129.5C106 128.387 105.662 127.3 105.032 126.384C104.401 125.467 103.507 124.763 102.468 124.364C101.429 123.966 100.294 123.892 99.212 124.153C98.1301 124.414 97.1528 124.996 96.409 125.824ZM103.414 134.414C103.217 134.611 102.983 134.768 102.725 134.874C102.467 134.981 102.191 135.036 101.912 135.036C101.633 135.036 101.357 134.981 101.099 134.874C100.841 134.768 100.607 134.611 100.41 134.414C100.624 134.607 100.796 134.842 100.916 135.103C101.036 135.365 101.102 135.648 101.109 135.936C101.116 136.224 101.065 136.51 100.958 136.777C100.851 137.045 100.691 137.288 100.487 137.491C100.284 137.695 100.041 137.855 99.7735 137.962C99.5062 138.069 99.2199 138.12 98.9321 138.113C98.6443 138.105 98.3609 138.04 98.0993 137.92C97.8376 137.8 97.6031 137.627 97.41 137.414C97.6074 137.611 97.7641 137.844 97.8712 138.101C97.9782 138.359 98.0335 138.634 98.0339 138.913C98.0342 139.192 97.9797 139.468 97.8733 139.725C97.767 139.983 97.6109 140.217 97.414 140.414C97.224 140.604 96.9976 140.754 96.7484 140.854C96.4991 140.955 96.2322 141.004 95.9635 141C95.6947 140.995 95.4297 140.936 95.1843 140.826C94.9389 140.717 94.718 140.559 94.535 140.362L89 135C87.5 133.5 86 131.8 86 129.5C86.0002 128.387 86.3379 127.301 86.9686 126.384C87.5992 125.467 88.493 124.763 89.5321 124.365C90.5711 123.967 91.7065 123.893 92.7883 124.154C93.87 124.415 94.8473 124.997 95.591 125.825C95.7022 125.928 95.8484 125.986 96.0002 125.985C96.152 125.985 96.2981 125.928 96.409 125.824" stroke="black" stroke-width="2" stroke-linecap="round" stroke-linejoin="round"/>
</g></svg>
