<svg viewBox="0 0 24 24" fill="none" xmlns="http://www.w3.org/2000/svg"><g transform="translate(-244 -120)">
<path id="Vector_140" d="M259.5 132.5L264.5 137.5" stroke="black" stroke-width="2" stroke-linecap="round" stroke-linejoin="round"/>
<path id="Vector_141" d="M264.5 132.5L259.5 137.5" stroke="black" stroke-width="2" stroke-linecap="round" stroke-linejoin="round"/>
<path id="Vector_142" d="M265.955 128.774C265.817 127.732 265.383 126.751 264.704 125.948C264.026 125.145 263.131 124.553 262.127 124.242C261.122 123.932 260.05 123.916 259.036 124.196C258.023 124.477 257.111 125.041 256.409 125.824C256.298 125.927 256.152 125.985 256 125.985C255.848 125.985 255.702 125.927 255.591 125.824C254.847 124.996 253.87 124.414 252.788 124.153C251.706 123.892 250.571 123.966 249.532 124.364C248.493 124.763 247.599 125.467 246.968 126.384C246.338 127.301 246 128.387 246 129.5C246 131.8 247.5 133.5 249 135L254.508 140.332C254.825 140.687 255.257 140.917 255.728 140.981C256.199 141.046 256.678 140.94 257.078 140.684" stroke="black" stroke-width="2" stroke-linecap="round" stroke-linejoin="round"/>
</g></svg>
