<svg viewBox="0 0 24 24" fill="none" xmlns="http://www.w3.org/2000/svg"><g transform="translate(-180 -120)">
<path id="Vector_135" d="M194.479 139.374L193.508 140.313C193.322 140.527 193.092 140.699 192.834 140.817C192.576 140.936 192.296 140.998 192.012 141C191.729 141.001 191.448 140.943 191.188 140.828C190.929 140.713 190.697 140.544 190.508 140.332L185 135C183.5 133.5 182 131.8 182 129.5C182 128.387 182.338 127.301 182.968 126.384C183.599 125.467 184.493 124.763 185.532 124.364C186.571 123.966 187.706 123.892 188.788 124.153C189.87 124.414 190.847 124.996 191.591 125.824C191.643 125.88 191.707 125.925 191.777 125.955C191.847 125.986 191.923 126.002 192 126.002C192.077 126.002 192.153 125.986 192.223 125.955C192.293 125.925 192.357 125.88 192.409 125.824C193.15 124.991 194.128 124.403 195.212 124.14C196.295 123.876 197.433 123.948 198.475 124.348C199.516 124.747 200.411 125.453 201.041 126.374C201.671 127.294 202.005 128.385 202 129.5C202 130.005 201.926 130.507 201.781 130.99" stroke="black" stroke-width="2" stroke-linecap="round" stroke-linejoin="round"/>
<path id="Vector_136" d="M195 135H201" stroke="black" stroke-width="2" stroke-linecap="round" stroke-linejoin="round"/>
<path id="Vector_137" d="M198 132V138" stroke="black" stroke-width="2" stroke-linecap="round" stroke-linejoin="round"/>
</g></svg>
