<svg viewBox="0 0 24 24" fill="none" xmlns="http://www.w3.org/2000/svg"><g transform="translate(-148 -120)">
<path id="Vector_132" d="M158.5 124.893C158.903 125.154 159.27 125.467 159.591 125.824C159.643 125.88 159.707 125.925 159.777 125.955C159.847 125.986 159.923 126.002 160 126.002C160.077 126.002 160.153 125.986 160.223 125.955C160.293 125.925 160.357 125.88 160.409 125.824C161.15 124.991 162.128 124.403 163.212 124.14C164.295 123.876 165.433 123.948 166.475 124.348C167.516 124.747 168.411 125.453 169.041 126.374C169.671 127.294 170.005 128.385 170 129.5C170 131.372 168.998 132.856 167.813 134.155" stroke="black" stroke-width="2" stroke-linecap="round" stroke-linejoin="round"/>
<path id="Vector_133" d="M164.967 136.967L161.508 140.313C161.322 140.527 161.092 140.699 160.834 140.817C160.576 140.936 160.296 140.998 160.012 141C159.729 141.001 159.448 140.943 159.188 140.828C158.929 140.713 158.697 140.544 158.508 140.332L153 135C151.5 133.5 150 131.8 150 129.5C150 128.535 150.254 127.587 150.736 126.752C151.218 125.916 151.912 125.222 152.747 124.739" stroke="black" stroke-width="2" stroke-linecap="round" stroke-linejoin="round"/>
<path id="Vector_134" d="M150 122L170 142" stroke="black" stroke-width="2" stroke-linecap="round" stroke-linejoin="round"/>
</g></svg>
