<svg viewBox="0 0 24 24" fill="none" xmlns="http://www.w3.org/2000/svg"><g transform="translate(-212 -120)">
<path id="Vector_138" d="M214 129.5C214 128.387 214.338 127.301 214.968 126.384C215.599 125.467 216.493 124.763 217.532 124.364C218.571 123.966 219.706 123.892 220.788 124.153C221.87 124.414 222.847 124.996 223.591 125.824C223.643 125.88 223.707 125.925 223.777 125.955C223.847 125.986 223.923 126.002 224 126.002C224.077 126.002 224.153 125.986 224.223 125.955C224.293 125.925 224.357 125.88 224.409 125.824C225.15 124.991 226.128 124.403 227.212 124.14C228.295 123.876 229.433 123.948 230.475 124.348C231.516 124.747 232.411 125.453 233.041 126.374C233.671 127.294 234.005 128.385 234 129.5C234 131.79 232.5 133.5 231 135L225.508 140.313C225.322 140.527 225.092 140.699 224.834 140.817C224.576 140.936 224.296 140.998 224.012 141C223.729 141.001 223.448 140.943 223.188 140.828C222.929 140.713 222.697 140.544 222.508 140.332L217 135C215.5 133.5 214 131.8 214 129.5Z" stroke="black" stroke-width="2" stroke-linecap="round" stroke-linejoin="round"/>
<path id="Vector_139" d="M215.22 133H221.5L222 132L224 136.5L226 129.5L227.5 133H232.77" stroke="black" stroke-width="2" stroke-linecap="round" stroke-linejoin="round"/>
</g></svg>
