<svg viewBox="0 0 24 24" fill="none" xmlns="http://www.w3.org/2000/svg"><g transform="translate(-84 -88)">
<path id="Vector_84" d="M95 105V109" stroke="black" stroke-width="2" stroke-linecap="round" stroke-linejoin="round"/>
<path id="Vector_85" d="M98 91V99C98 99.5304 98.2107 100.039 98.5858 100.414C98.9609 100.789 99.4696 101 100 101H105.865" stroke="black" stroke-width="2" stroke-linecap="round" stroke-linejoin="round"/>
<path id="Vector_86" d="M101 105V109" stroke="black" stroke-width="2" stroke-linecap="round" stroke-linejoin="round"/>
<path id="Vector_87" d="M102 105C103.061 105 104.078 104.579 104.828 103.828C105.579 103.078 106 102.061 106 101C106 99.4087 105.157 97.8826 103.657 96.7574C102.157 95.6321 100.122 95 98 95C96.4087 95 94.8826 95.5268 93.7574 96.4645C92.6321 97.4021 92 98.6739 92 100V103C92 103.53 92.2107 104.039 92.5858 104.414C92.9609 104.789 93.4696 105 94 105H102Z" stroke="black" stroke-width="2" stroke-linecap="round" stroke-linejoin="round"/>
<path id="Vector_88" d="M86 98V103" stroke="black" stroke-width="2" stroke-linecap="round" stroke-linejoin="round"/>
<path id="Vector_89" d="M90 91H106" stroke="black" stroke-width="2" stroke-linecap="round" stroke-linejoin="round"/>
<path id="Vector_90" d="M91 109H105" stroke="black" stroke-width="2" stroke-linecap="round" stroke-linejoin="round"/>
<path id="Vector_91" d="M92 101H86" stroke="black" stroke-width="2" stroke-linecap="round" stroke-linejoin="round"/>
</g></svg>
