<svg viewBox="0 0 24 24" fill="none" xmlns="http://www.w3.org/2000/svg"><g transform="translate(-116 -184)">
<path id="Vector_152" d="M137 200V192C137 191.649 136.907 191.305 136.732 191.001C136.556 190.698 136.304 190.445 136 190.27L129 186.27C128.696 186.094 128.351 186.002 128 186.002C127.649 186.002 127.304 186.094 127 186.27L120 190.27C119.696 190.445 119.444 190.698 119.268 191.001C119.093 191.305 119 191.649 119 192V200C119 200.351 119.093 200.695 119.268 200.999C119.444 201.303 119.696 201.555 120 201.73L127 205.73C127.304 205.906 127.649 205.998 128 205.998C128.351 205.998 128.696 205.906 129 205.73L136 201.73C136.304 201.555 136.556 201.303 136.732 200.999C136.907 200.695 137 200.351 137 200Z" stroke="black" stroke-width="2" stroke-linecap="round" stroke-linejoin="round"/>
</g></svg>
