<svg viewBox="0 0 24 24" fill="none" xmlns="http://www.w3.org/2000/svg"><g transform="translate(-180 -88)">
<path id="Vector_18" d="M197 93H195V91H197V93ZM195 103V109L197.29 106.71L199.59 109L201 107.59L198.71 105.3L201 103H195ZM199 97H201V95H199V97ZM199 101H201V99H199V101ZM191 109H193V107H191V109ZM187 93H189V91H187V93ZM183 105H185V103H183V105ZM185 109V107H183C183 108.1 183.9 109 185 109ZM199 91V93H201C201 91.9 200.1 91 199 91ZM191 93H193V91H191V93ZM183 97H185V95H183V97ZM187 109H189V107H187V109ZM183 101H185V99H183V101ZM183 93H185V91C183.9 91 183 91.9 183 93Z" fill="black" fill-opacity="0.54"/>
</g></svg>
