<svg viewBox="0 0 24 24" fill="none" xmlns="http://www.w3.org/2000/svg"><g transform="translate(-276 -248)">
<path id="Vector_327" d="M279 260C279 261.78 279.528 263.52 280.517 265C281.506 266.48 282.911 267.634 284.556 268.315C286.2 268.996 288.01 269.174 289.756 268.827C291.502 268.48 293.105 267.623 294.364 266.364C295.623 265.105 296.48 263.502 296.827 261.756C297.174 260.01 296.996 258.2 296.315 256.556C295.634 254.911 294.48 253.506 293 252.517C291.52 251.528 289.78 251 288 251C285.484 251.009 283.069 251.991 281.26 253.74L279 256" stroke="black" stroke-width="2" stroke-linecap="round" stroke-linejoin="round"/>
<path id="Vector_328" d="M279 251V256H284" stroke="black" stroke-width="2" stroke-linecap="round" stroke-linejoin="round"/>
<path id="Vector_329" d="M288 255V260L292 262" stroke="black" stroke-width="2" stroke-linecap="round" stroke-linejoin="round"/>
</g></svg>
