<svg viewBox="0 0 24 24" fill="none" xmlns="http://www.w3.org/2000/svg"><g transform="translate(-20 -152)">
<path id="Vector_152" d="M30.8203 168.12C32.5103 168.72 34.7303 168.91 36.0003 168.97C36.2803 168.98 36.5303 168.88 36.7003 168.7" stroke="black" stroke-width="2" stroke-linecap="round" stroke-linejoin="round"/>
<path id="Vector_153" d="M31.1396 172.57C31.6596 172.81 33.5796 173.69 35.2196 173.94C35.6796 174 36.0796 173.69 36.1196 173.23C36.2396 171.71 35.8196 169.8 35.6196 168.95" stroke="black" stroke-width="2" stroke-linecap="round" stroke-linejoin="round"/>
<path id="Vector_154" d="M36.1299 173.05C37.7799 173.68 39.8099 173.89 40.9999 173.96C41.1284 173.969 41.2574 173.951 41.3781 173.906C41.4989 173.861 41.6086 173.791 41.6999 173.7" stroke="black" stroke-width="2" stroke-linecap="round" stroke-linejoin="round"/>
<path id="Vector_155" d="M37.9896 157.52C39.2336 158.874 40.2928 160.388 41.1396 162.02C41.1934 162.138 41.2176 162.268 41.2101 162.397C41.2027 162.527 41.1639 162.653 41.0969 162.764C41.03 162.875 40.937 162.968 40.8259 163.036C40.7149 163.103 40.5892 163.142 40.4596 163.15C39.2896 163.25 37.9596 163.17 36.5596 162.9" stroke="black" stroke-width="2" stroke-linecap="round" stroke-linejoin="round"/>
<path id="Vector_156" d="M40.5703 163.14C40.8103 163.66 41.6903 165.58 41.9403 167.22C41.9803 167.52 41.8603 167.81 41.6303 167.97" stroke="black" stroke-width="2" stroke-linecap="round" stroke-linejoin="round"/>
<path id="Vector_157" d="M24.9302 156.93C23.1773 158.683 22.1382 161.025 22.0144 163.501C21.8906 165.977 22.691 168.411 24.2602 170.33C24.6102 170.76 25.2202 170.73 25.4302 170.21C26.1202 168.5 26.5002 165.14 26.5002 163.5C27.8402 163.95 29.6002 164.4 31.3802 164.12C31.5619 164.094 31.7303 164.01 31.8602 163.88" stroke="black" stroke-width="2" stroke-linecap="round" stroke-linejoin="round"/>
<path id="Vector_158" d="M25.5195 169.99C26.5695 170.94 28.4295 172.41 30.0195 173.14C30.1377 173.194 30.2672 173.218 30.3968 173.211C30.5264 173.203 30.6522 173.164 30.7635 173.097C30.8747 173.03 30.968 172.937 31.0352 172.826C31.1025 172.715 31.1417 172.59 31.1495 172.46C31.3495 170.12 30.8195 167.16 29.5795 164.18" stroke="black" stroke-width="2" stroke-linecap="round" stroke-linejoin="round"/>
<path id="Vector_159" d="M28.3496 154.68C30.0036 154.034 31.7999 153.839 33.5538 154.117C35.3078 154.394 36.9562 155.134 38.3296 156.26C38.7596 156.61 38.7296 157.22 38.2096 157.43C36.7096 158.03 33.9096 158.41 32.1396 158.48" stroke="black" stroke-width="2" stroke-linecap="round" stroke-linejoin="round"/>
<path id="Vector_160" d="M22 154L42 174" stroke="black" stroke-width="2" stroke-linecap="round" stroke-linejoin="round"/>
</g></svg>
