<svg viewBox="0 0 24 24" fill="none" xmlns="http://www.w3.org/2000/svg"><g transform="translate(-372 -120)">
<path id="Vector_144" d="M382.82 136.12C384.51 136.72 386.73 136.91 388 136.97C388.55 137 389 136.55 388.97 136C388.91 134.73 388.71 132.5 388.12 130.82" stroke="black" stroke-width="2" stroke-linecap="round" stroke-linejoin="round"/>
<path id="Vector_145" d="M390.21 125.43C388.5 126.12 385.14 126.5 383.5 126.5C383.96 127.88 384.41 129.24 384.11 131.38C384.082 131.565 383.997 131.736 383.865 131.869C383.734 132.002 383.564 132.09 383.38 132.12C381.6 132.4 379.84 131.95 378.5 131.5C378.5 133.14 378.12 136.5 377.43 138.21C377.22 138.73 376.61 138.76 376.26 138.33C374.693 136.41 373.895 133.978 374.021 131.503C374.146 129.029 375.185 126.689 376.937 124.937C378.689 123.185 381.028 122.146 383.503 122.021C385.977 121.896 388.41 122.694 390.33 124.26C390.76 124.61 390.73 125.23 390.21 125.43Z" stroke="black" stroke-width="2" stroke-linecap="round" stroke-linejoin="round"/>
<path id="Vector_146" d="M387.62 136.95C387.82 137.8 388.24 139.71 388.12 141.23C388.111 141.337 388.081 141.441 388.03 141.536C387.979 141.63 387.909 141.713 387.825 141.779C387.74 141.845 387.642 141.893 387.538 141.919C387.434 141.945 387.325 141.948 387.22 141.93C385.807 141.655 384.435 141.198 383.14 140.57" stroke="black" stroke-width="2" stroke-linecap="round" stroke-linejoin="round"/>
<path id="Vector_147" d="M388.13 141.05C389.78 141.68 391.81 141.89 393 141.96C393.128 141.969 393.257 141.95 393.378 141.905C393.498 141.86 393.607 141.79 393.698 141.699C393.789 141.608 393.86 141.498 393.905 141.378C393.95 141.257 393.969 141.128 393.96 141C393.89 139.342 393.587 137.703 393.06 136.13" stroke="black" stroke-width="2" stroke-linecap="round" stroke-linejoin="round"/>
<path id="Vector_148" d="M388.94 135.62C389.8 135.82 391.71 136.24 393.23 136.12C393.337 136.112 393.442 136.081 393.536 136.031C393.631 135.98 393.714 135.91 393.78 135.825C393.846 135.74 393.893 135.643 393.919 135.538C393.945 135.434 393.949 135.326 393.93 135.22C393.655 133.807 393.198 132.435 392.57 131.14" stroke="black" stroke-width="2" stroke-linecap="round" stroke-linejoin="round"/>
<path id="Vector_149" d="M389.99 125.52C391.235 126.874 392.294 128.387 393.14 130.02C393.194 130.138 393.218 130.268 393.211 130.397C393.204 130.527 393.165 130.653 393.098 130.764C393.031 130.875 392.938 130.968 392.827 131.036C392.716 131.103 392.59 131.142 392.46 131.15C390.13 131.35 387.16 130.83 384.19 129.58" stroke="black" stroke-width="2" stroke-linecap="round" stroke-linejoin="round"/>
<path id="Vector_150" d="M376.93 124.93L375 123C374.934 122.935 374.881 122.857 374.845 122.771C374.809 122.685 374.79 122.593 374.79 122.5C374.79 122.407 374.809 122.315 374.845 122.229C374.881 122.143 374.934 122.065 375 122" stroke="black" stroke-width="2" stroke-linecap="round" stroke-linejoin="round"/>
<path id="Vector_151" d="M381.58 132.18C382.82 135.16 383.35 138.13 383.15 140.46C383.142 140.59 383.102 140.715 383.035 140.826C382.968 140.937 382.875 141.03 382.763 141.097C382.652 141.164 382.526 141.203 382.397 141.211C382.267 141.218 382.138 141.194 382.02 141.14C380.387 140.293 378.874 139.234 377.52 137.99" stroke="black" stroke-width="2" stroke-linecap="round" stroke-linejoin="round"/>
</g></svg>
