<svg viewBox="0 0 24 24" fill="none" xmlns="http://www.w3.org/2000/svg"><g transform="translate(-276 -120)">
<path id="Vector_143" d="M288 127V131" stroke="black" stroke-width="2" stroke-linecap="round" stroke-linejoin="round"/>
<path id="Vector_144" d="M290 141V138C290 137.47 289.789 136.961 289.414 136.586C289.039 136.211 288.53 136 288 136C287.47 136 286.961 136.211 286.586 136.586C286.211 136.961 286 137.47 286 138V141" stroke="black" stroke-width="2" stroke-linecap="round" stroke-linejoin="round"/>
<path id="Vector_145" d="M290 129H286" stroke="black" stroke-width="2" stroke-linecap="round" stroke-linejoin="round"/>
<path id="Vector_146" d="M294 131H296C296.53 131 297.039 131.211 297.414 131.586C297.789 131.961 298 132.47 298 133V139C298 139.53 297.789 140.039 297.414 140.414C297.039 140.789 296.53 141 296 141H280C279.47 141 278.961 140.789 278.586 140.414C278.211 140.039 278 139.53 278 139V130C278 129.47 278.211 128.961 278.586 128.586C278.961 128.211 279.47 128 280 128H282" stroke="black" stroke-width="2" stroke-linecap="round" stroke-linejoin="round"/>
<path id="Vector_147" d="M294 141V125C294 124.47 293.789 123.961 293.414 123.586C293.039 123.211 292.53 123 292 123H284C283.47 123 282.961 123.211 282.586 123.586C282.211 123.961 282 124.47 282 125V141" stroke="black" stroke-width="2" stroke-linecap="round" stroke-linejoin="round"/>
</g></svg>
