<svg viewBox="0 0 24 24" fill="none" xmlns="http://www.w3.org/2000/svg"><g transform="translate(-52 -88)">
<path id="Vector_75" d="M64.35 109H57C56.4696 109 55.9609 108.789 55.5858 108.414C55.2107 108.039 55 107.53 55 107V97.9999C54.9998 97.7086 55.0632 97.4207 55.1858 97.1564C55.3085 96.8921 55.4874 96.6578 55.71 96.4699L62.71 90.4699C63.0708 90.1654 63.5278 89.9983 64 89.9983C64.4722 89.9983 64.9292 90.1654 65.29 90.4699L72.29 96.4699C72.5126 96.6578 72.6915 96.8921 72.8142 97.1564C72.9368 97.4207 73.0002 97.7086 73 97.9999V100.35" stroke="black" stroke-width="2" stroke-linecap="round" stroke-linejoin="round"/>
<path id="Vector_76" d="M66.8 100.4C66.7069 100.276 66.5861 100.175 66.4472 100.106C66.3084 100.036 66.1552 100 66 100H62C61.7348 100 61.4804 100.105 61.2929 100.293C61.1054 100.48 61 100.735 61 101V109" stroke="black" stroke-width="2" stroke-linecap="round" stroke-linejoin="round"/>
<path id="Vector_77" d="M67 106H73" stroke="black" stroke-width="2" stroke-linecap="round" stroke-linejoin="round"/>
<path id="Vector_78" d="M70 103V109" stroke="black" stroke-width="2" stroke-linecap="round" stroke-linejoin="round"/>
</g></svg>
