<svg viewBox="0 0 24 24" fill="none" xmlns="http://www.w3.org/2000/svg"><g transform="translate(-372 -56)">
<path id="Vector_69" d="M380.62 69.7999C380.41 69.5806 380.246 69.3209 380.139 69.0365C380.032 68.7521 379.983 68.449 379.996 68.1453C380.009 67.8417 380.084 67.5439 380.215 67.2698C380.347 66.9957 380.532 66.7511 380.761 66.5507C380.989 66.3504 381.256 66.1983 381.545 66.1039C381.834 66.0094 382.139 65.9744 382.441 66.0011C382.744 66.0277 383.038 66.1155 383.306 66.2589C383.574 66.4024 383.81 66.5987 384 66.8359C384.191 66.6012 384.428 66.4073 384.695 66.266C384.963 66.1247 385.256 66.0388 385.557 66.0134C385.859 65.9881 386.162 66.0238 386.45 66.1185C386.737 66.2131 387.003 66.3648 387.23 66.5643C387.457 66.7639 387.642 67.0073 387.773 67.2799C387.905 67.5526 387.979 67.8489 387.994 68.1512C388.008 68.4534 387.96 68.7554 387.855 69.039C387.75 69.3226 387.588 69.5821 387.38 69.8019L384.754 72.6579C384.661 72.7658 384.545 72.8523 384.415 72.9115C384.285 72.9708 384.144 73.0015 384.001 73.0015C383.858 73.0015 383.717 72.9708 383.587 72.9115C383.457 72.8523 383.341 72.7658 383.247 72.6579L380.62 69.7999Z" stroke="black" stroke-width="2" stroke-linecap="round" stroke-linejoin="round"/>
<path id="Vector_70" d="M375 66C375 65.7091 375.063 65.4216 375.186 65.1577C375.308 64.8938 375.487 64.6598 375.709 64.472L382.709 58.472C383.07 58.1669 383.527 57.9995 384 57.9995C384.473 57.9995 384.93 58.1669 385.291 58.472L392.291 64.472C392.513 64.6598 392.692 64.8938 392.814 65.1577C392.937 65.4216 393 65.7091 393 66V75C393 75.5304 392.789 76.0391 392.414 76.4142C392.039 76.7893 391.53 77 391 77H377C376.47 77 375.961 76.7893 375.586 76.4142C375.211 76.0391 375 75.5304 375 75V66Z" stroke="black" stroke-width="2" stroke-linecap="round" stroke-linejoin="round"/>
</g></svg>
