<svg viewBox="0 0 24 24" fill="none" xmlns="http://www.w3.org/2000/svg"><g transform="translate(-20 -88)">
<path id="Vector_71" d="M30 100V96.9641" stroke="black" stroke-width="2" stroke-linecap="round" stroke-linejoin="round"/>
<path id="Vector_72" d="M34 100V96.9641" stroke="black" stroke-width="2" stroke-linecap="round" stroke-linejoin="round"/>
<path id="Vector_73" d="M35 100C35.2652 100 35.5196 100.105 35.7071 100.293C35.8946 100.48 36 100.735 36 101V103C36 103.53 35.7893 104.039 35.4142 104.414C35.0391 104.789 34.5304 105 34 105H30C29.4696 105 28.9609 104.789 28.5858 104.414C28.2107 104.039 28 103.53 28 103V101C28 100.735 28.1054 100.48 28.2929 100.293C28.4804 100.105 28.7348 100 29 100H35Z" stroke="black" stroke-width="2" stroke-linecap="round" stroke-linejoin="round"/>
<path id="Vector_74" d="M28.5 109H25C24.4696 109 23.9609 108.789 23.5858 108.414C23.2107 108.039 23 107.53 23 107V98C22.9999 97.7091 23.0633 97.4216 23.1858 97.1577C23.3082 96.8938 23.4868 96.6598 23.709 96.472L30.709 90.472C31.07 90.1669 31.5274 89.9995 32 89.9995C32.4726 89.9995 32.93 90.1669 33.291 90.472L40.291 96.472C40.5132 96.6598 40.6918 96.8938 40.8142 97.1577C40.9367 97.4216 41.0001 97.7091 41 98V107C41 107.53 40.7893 108.039 40.4142 108.414C40.0391 108.789 39.5304 109 39 109H34C33.4696 109 32.9609 108.789 32.5858 108.414C32.2107 108.039 32 107.53 32 107V105" stroke="black" stroke-width="2" stroke-linecap="round" stroke-linejoin="round"/>
</g></svg>
