<svg viewBox="0 0 24 24" fill="none" xmlns="http://www.w3.org/2000/svg"><g transform="translate(-84 -88)">
<path id="Vector_79" d="M93.5 101.866C94.2106 101.299 95.0929 100.992 96.0018 100.993C96.9106 100.995 97.7917 101.306 98.5 101.876" stroke="black" stroke-width="2" stroke-linecap="round" stroke-linejoin="round"/>
<path id="Vector_80" d="M96 105H96.01" stroke="black" stroke-width="2" stroke-linecap="round" stroke-linejoin="round"/>
<path id="Vector_81" d="M87 98C86.9999 97.7091 87.0633 97.4216 87.1858 97.1577C87.3082 96.8938 87.4868 96.6598 87.709 96.472L94.709 90.472C95.07 90.1669 95.5274 89.9995 96 89.9995C96.4726 89.9995 96.93 90.1669 97.291 90.472L104.291 96.472C104.513 96.6598 104.692 96.8938 104.814 97.1577C104.937 97.4216 105 97.7091 105 98V107C105 107.53 104.789 108.039 104.414 108.414C104.039 108.789 103.53 109 103 109H89C88.4696 109 87.9609 108.789 87.5858 108.414C87.2107 108.039 87 107.53 87 107V98Z" stroke="black" stroke-width="2" stroke-linecap="round" stroke-linejoin="round"/>
<path id="Vector_82" d="M91 98.754C92.4189 97.618 94.1824 96.999 96 96.999C97.8176 96.999 99.5811 97.618 101 98.754" stroke="black" stroke-width="2" stroke-linecap="round" stroke-linejoin="round"/>
</g></svg>
