<svg viewBox="0 0 24 24" fill="none" xmlns="http://www.w3.org/2000/svg"><g transform="translate(-340 -56)">
<path id="Vector_67" d="M355 77V69C355 68.7348 354.895 68.4804 354.707 68.2929C354.52 68.1054 354.265 68 354 68H350C349.735 68 349.48 68.1054 349.293 68.2929C349.105 68.4804 349 68.7348 349 69V77" stroke="black" stroke-width="2" stroke-linecap="round" stroke-linejoin="round"/>
<path id="Vector_68" d="M343 66C343 65.7091 343.063 65.4216 343.186 65.1577C343.308 64.8938 343.487 64.6598 343.709 64.472L350.709 58.472C351.07 58.1669 351.527 57.9995 352 57.9995C352.473 57.9995 352.93 58.1669 353.291 58.472L360.291 64.472C360.513 64.6598 360.692 64.8938 360.814 65.1577C360.937 65.4216 361 65.7091 361 66V75C361 75.5304 360.789 76.0391 360.414 76.4142C360.039 76.7893 359.53 77 359 77H345C344.47 77 343.961 76.7893 343.586 76.4142C343.211 76.0391 343 75.5304 343 75V66Z" stroke="black" stroke-width="2" stroke-linecap="round" stroke-linejoin="round"/>
</g></svg>
