<svg viewBox="0 0 24 24" fill="none" xmlns="http://www.w3.org/2000/svg"><g transform="translate(-52 -152)">
<path id="Vector_161" d="M60 173H68M64 170V173M57.14 163C56.9848 162.478 56.9537 161.926 57.0491 161.39C57.1445 160.854 57.3639 160.347 57.6897 159.91C58.0155 159.473 58.4388 159.119 58.9258 158.874C59.4128 158.63 59.9501 158.503 60.495 158.503C61.0399 158.503 61.5772 158.63 62.0642 158.874C62.5512 159.119 62.9745 159.473 63.3003 159.91C63.6261 160.347 63.8455 160.854 63.9409 161.39C64.0363 161.926 64.0052 162.478 63.85 163M64 169C69 169 72 166.31 72 163H56C56 166.31 59 169 64 169Z" stroke="black" stroke-width="2" stroke-linecap="round" stroke-linejoin="round"/>
<path id="Vector_162" d="M64.1401 163C63.9849 162.478 63.9538 161.926 64.0492 161.39C64.1447 160.854 64.364 160.347 64.6898 159.91C65.0156 159.473 65.4389 159.119 65.9259 158.874C66.4129 158.63 66.9503 158.503 67.4951 158.503C68.04 158.503 68.5773 158.63 69.0643 158.874C69.5513 159.119 69.9746 159.473 70.3004 159.91C70.6262 160.347 70.8456 160.854 70.941 161.39C71.0364 161.926 71.0053 162.478 70.8501 163" stroke="black" stroke-width="2" stroke-linecap="round" stroke-linejoin="round"/>
<path id="Vector_163" d="M67.5 158.5C67.5 158.04 67.4095 157.585 67.2336 157.161C67.0577 156.736 66.7999 156.35 66.4749 156.025C66.1499 155.7 65.764 155.442 65.3394 155.266C64.9148 155.091 64.4596 155 64 155C63.5404 155 63.0852 155.091 62.6606 155.266C62.236 155.442 61.8501 155.7 61.5251 156.025C61.2001 156.35 60.9423 156.736 60.7664 157.161C60.5905 157.585 60.5 158.04 60.5 158.5" stroke="black" stroke-width="2" stroke-linecap="round" stroke-linejoin="round"/>
</g></svg>
