<svg viewBox="0 0 24 24" fill="none" xmlns="http://www.w3.org/2000/svg"><g transform="translate(-84 -152)">
<path id="Vector_164" d="M91 163L95.08 173.35C95.1568 173.53 95.285 173.684 95.4486 173.792C95.6122 173.9 95.8039 173.958 96 173.958C96.1961 173.958 96.3878 173.9 96.5514 173.792C96.715 173.684 96.8432 173.53 96.92 173.35L101 163" stroke="black" stroke-width="2" stroke-linecap="round" stroke-linejoin="round"/>
<path id="Vector_165" d="M101 159C101 157.674 100.473 156.402 99.5355 155.464C98.5979 154.527 97.3261 154 96 154C94.6739 154 93.4021 154.527 92.4645 155.464C91.5268 156.402 91 157.674 91 159" stroke="black" stroke-width="2" stroke-linecap="round" stroke-linejoin="round"/>
<path id="Vector_166" d="M101 159C101.53 159 102.039 159.211 102.414 159.586C102.789 159.961 103 160.47 103 161C103 161.53 102.789 162.039 102.414 162.414C102.039 162.789 101.53 163 101 163H91C90.4696 163 89.9609 162.789 89.5858 162.414C89.2107 162.039 89 161.53 89 161C89 160.47 89.2107 159.961 89.5858 159.586C89.9609 159.211 90.4696 159 91 159" stroke="black" stroke-width="2" stroke-linecap="round" stroke-linejoin="round"/>
</g></svg>
