<svg viewBox="0 0 24 24" fill="none" xmlns="http://www.w3.org/2000/svg"><g transform="translate(-180 -88)">
<path id="Vector_71" d="M196 98H198" stroke="black" stroke-width="2" stroke-linecap="round" stroke-linejoin="round"/>
<path id="Vector_72" d="M196 102H198" stroke="black" stroke-width="2" stroke-linecap="round" stroke-linejoin="round"/>
<path id="Vector_73" d="M186.17 103C186.376 102.414 186.759 101.906 187.266 101.547C187.773 101.188 188.379 100.996 189 100.996C189.621 100.996 190.227 101.188 190.734 101.547C191.241 101.906 191.624 102.414 191.83 103" stroke="black" stroke-width="2" stroke-linecap="round" stroke-linejoin="round"/>
<path id="Vector_74" d="M189 101C190.105 101 191 100.105 191 99C191 97.8954 190.105 97 189 97C187.895 97 187 97.8954 187 99C187 100.105 187.895 101 189 101Z" stroke="black" stroke-width="2" stroke-linecap="round" stroke-linejoin="round"/>
<path id="Vector_75" d="M200 93H184C182.895 93 182 93.8954 182 95V105C182 106.105 182.895 107 184 107H200C201.105 107 202 106.105 202 105V95C202 93.8954 201.105 93 200 93Z" stroke="black" stroke-width="2" stroke-linecap="round" stroke-linejoin="round"/>
</g></svg>
