<svg viewBox="0 0 24 24" fill="none" xmlns="http://www.w3.org/2000/svg"><g transform="translate(-212 -88)">
<path id="Vector_76" d="M225.5 96H222.5" stroke="black" stroke-width="2" stroke-linecap="round" stroke-linejoin="round"/>
<path id="Vector_77" d="M227 90L226 92H229C229.53 92 230.039 92.2107 230.414 92.5858C230.789 92.9609 231 93.4696 231 94V108C231 108.53 230.789 109.039 230.414 109.414C230.039 109.789 229.53 110 229 110H219C218.47 110 217.961 109.789 217.586 109.414C217.211 109.039 217 108.53 217 108V94C217 93.4696 217.211 92.9609 217.586 92.5858C217.961 92.2107 218.47 92 219 92H222" stroke="black" stroke-width="2" stroke-linecap="round" stroke-linejoin="round"/>
<path id="Vector_78" d="M228.899 110C228.669 108.87 228.055 107.855 227.162 107.125C226.27 106.396 225.152 105.997 223.999 105.997C222.846 105.997 221.729 106.396 220.836 107.125C219.943 107.855 219.33 108.87 219.1 110" stroke="black" stroke-width="2" stroke-linecap="round" stroke-linejoin="round"/>
<path id="Vector_79" d="M221 90L224 96" stroke="black" stroke-width="2" stroke-linecap="round" stroke-linejoin="round"/>
<path id="Vector_80" d="M224 106C225.657 106 227 104.657 227 103C227 101.343 225.657 100 224 100C222.343 100 221 101.343 221 103C221 104.657 222.343 106 224 106Z" stroke="black" stroke-width="2" stroke-linecap="round" stroke-linejoin="round"/>
</g></svg>
