<svg viewBox="0 0 24 24" fill="none" xmlns="http://www.w3.org/2000/svg"><g transform="translate(-308 -88)">
<path id="Vector_87" d="M318.3 109H313C312.47 109 311.961 108.789 311.586 108.414C311.211 108.039 311 107.53 311 107V93C311 92.4696 311.211 91.9609 311.586 91.5858C311.961 91.2107 312.47 91 313 91H327C327.53 91 328.039 91.2107 328.414 91.5858C328.789 91.9609 329 92.4696 329 93V103L325.9 99.9C325.524 99.5312 325.017 99.3258 324.49 99.3284C323.963 99.331 323.459 99.5415 323.086 99.914L314 109" stroke="black" stroke-width="2" stroke-linecap="round" stroke-linejoin="round"/>
<path id="Vector_88" d="M322 107L325 110V104.5" stroke="black" stroke-width="2" stroke-linecap="round" stroke-linejoin="round"/>
<path id="Vector_89" d="M325 110L328 107" stroke="black" stroke-width="2" stroke-linecap="round" stroke-linejoin="round"/>
<path id="Vector_90" d="M317 99C318.105 99 319 98.1046 319 97C319 95.8954 318.105 95 317 95C315.895 95 315 95.8954 315 97C315 98.1046 315.895 99 317 99Z" stroke="black" stroke-width="2" stroke-linecap="round" stroke-linejoin="round"/>
</g></svg>
