<svg viewBox="0 0 24 24" fill="none" xmlns="http://www.w3.org/2000/svg"><g transform="translate(-116 -120)">
<path id="Vector_114" d="M126.3 141H121C120.47 141 119.961 140.789 119.586 140.414C119.211 140.039 119 139.53 119 139V125C119 124.47 119.211 123.961 119.586 123.586C119.961 123.211 120.47 123 121 123H135C135.53 123 136.039 123.211 136.414 123.586C136.789 123.961 137 124.47 137 125V135L133.9 131.9C133.524 131.531 133.017 131.326 132.49 131.328C131.963 131.331 131.459 131.541 131.086 131.914L122 141" stroke="black" stroke-width="2" stroke-linecap="round" stroke-linejoin="round"/>
<path id="Vector_115" d="M130 139.5L133 136.5L136 139.5" stroke="black" stroke-width="2" stroke-linecap="round" stroke-linejoin="round"/>
<path id="Vector_116" d="M133 142V136.5" stroke="black" stroke-width="2" stroke-linecap="round" stroke-linejoin="round"/>
<path id="Vector_117" d="M125 131C126.105 131 127 130.105 127 129C127 127.895 126.105 127 125 127C123.895 127 123 127.895 123 129C123 130.105 123.895 131 125 131Z" stroke="black" stroke-width="2" stroke-linecap="round" stroke-linejoin="round"/>
</g></svg>
