<svg viewBox="0 0 24 24" fill="none" xmlns="http://www.w3.org/2000/svg"><g transform="translate(-84 -120)">
<path id="Vector_110" d="M106 131L104.704 129.704C104.481 129.479 104.215 129.301 103.923 129.179C103.631 129.057 103.317 128.994 103 128.994C102.683 128.994 102.369 129.057 102.077 129.179C101.785 129.301 101.519 129.479 101.296 129.704L95 136" stroke="black" stroke-width="2" stroke-linecap="round" stroke-linejoin="round"/>
<path id="Vector_111" d="M88 128C87.4696 128 86.9609 128.211 86.5858 128.586C86.2107 128.961 86 129.47 86 130V140C86 140.53 86.2107 141.039 86.5858 141.414C86.9609 141.789 87.4696 142 88 142H98C98.5304 142 99.0391 141.789 99.4142 141.414C99.7893 141.039 100 140.53 100 140" stroke="black" stroke-width="2" stroke-linecap="round" stroke-linejoin="round"/>
<path id="Vector_112" d="M97 128C97.5523 128 98 127.552 98 127C98 126.448 97.5523 126 97 126C96.4477 126 96 126.448 96 127C96 127.552 96.4477 128 97 128Z" fill="black" stroke="black" stroke-width="2" stroke-linecap="round" stroke-linejoin="round"/>
<path id="Vector_113" d="M104 122H94C92.8954 122 92 122.895 92 124V134C92 135.105 92.8954 136 94 136H104C105.105 136 106 135.105 106 134V124C106 122.895 105.105 122 104 122Z" stroke="black" stroke-width="2" stroke-linecap="round" stroke-linejoin="round"/>
</g></svg>
