<svg viewBox="0 0 24 24" fill="none" xmlns="http://www.w3.org/2000/svg"><g transform="translate(-276 -88)">
<path id="Vector_84" d="M295 91H281C279.895 91 279 91.8954 279 93V107C279 108.105 279.895 109 281 109H295C296.105 109 297 108.105 297 107V93C297 91.8954 296.105 91 295 91Z" stroke="black" stroke-width="2" stroke-linecap="round" stroke-linejoin="round"/>
<path id="Vector_85" d="M285 99C286.105 99 287 98.1046 287 97C287 95.8954 286.105 95 285 95C283.895 95 283 95.8954 283 97C283 98.1046 283.895 99 285 99Z" stroke="black" stroke-width="2" stroke-linecap="round" stroke-linejoin="round"/>
<path id="Vector_86" d="M297 103L293.914 99.9139C293.539 99.539 293.03 99.3284 292.5 99.3284C291.97 99.3284 291.461 99.539 291.086 99.9139L282 109" stroke="black" stroke-width="2" stroke-linecap="round" stroke-linejoin="round"/>
</g></svg>
