<svg viewBox="0 0 24 24" fill="none" xmlns="http://www.w3.org/2000/svg"><g transform="translate(-372 -88)">
<path id="Vector_95" d="M374 90L394 110" stroke="black" stroke-width="2" stroke-linecap="round" stroke-linejoin="round"/>
<path id="Vector_96" d="M382.41 98.41C382.224 98.5958 382.004 98.7432 381.761 98.8437C381.518 98.9443 381.258 98.9961 380.995 98.9961C380.732 98.9961 380.472 98.9443 380.229 98.8437C379.987 98.7432 379.766 98.5958 379.58 98.41C379.394 98.2241 379.247 98.0035 379.146 97.7607C379.046 97.518 378.994 97.2577 378.994 96.995C378.994 96.7322 379.046 96.472 379.146 96.2292C379.247 95.9864 379.394 95.7658 379.58 95.58" stroke="black" stroke-width="2" stroke-linecap="round" stroke-linejoin="round"/>
<path id="Vector_97" d="M385.5 101.5L378 109" stroke="black" stroke-width="2" stroke-linecap="round" stroke-linejoin="round"/>
<path id="Vector_98" d="M390 100L393 103" stroke="black" stroke-width="2" stroke-linecap="round" stroke-linejoin="round"/>
<path id="Vector_99" d="M375.59 91.59C375.404 91.7745 375.255 91.9941 375.154 92.2361C375.053 92.478 375.001 92.7377 375 93V107C375 107.53 375.211 108.039 375.586 108.414C375.961 108.789 376.47 109 377 109H391C391.55 109 392.052 108.78 392.41 108.41" stroke="black" stroke-width="2" stroke-linecap="round" stroke-linejoin="round"/>
<path id="Vector_100" d="M393 103V93C393 92.4696 392.789 91.9609 392.414 91.5858C392.039 91.2107 391.53 91 391 91H381" stroke="black" stroke-width="2" stroke-linecap="round" stroke-linejoin="round"/>
</g></svg>
