<svg viewBox="0 0 24 24" fill="none" xmlns="http://www.w3.org/2000/svg"><g transform="translate(-148 -120)">
<path id="Vector_118" d="M164 123H169V128" stroke="black" stroke-width="2" stroke-linecap="round" stroke-linejoin="round"/>
<path id="Vector_119" d="M165 141H167C167.53 141 168.039 140.789 168.414 140.414C168.789 140.039 169 139.53 169 139" stroke="black" stroke-width="2" stroke-linecap="round" stroke-linejoin="round"/>
<path id="Vector_120" d="M169 132V135" stroke="black" stroke-width="2" stroke-linecap="round" stroke-linejoin="round"/>
<path id="Vector_121" d="M169 123L164 128" stroke="black" stroke-width="2" stroke-linecap="round" stroke-linejoin="round"/>
<path id="Vector_122" d="M151 127V125C151 124.47 151.211 123.961 151.586 123.586C151.961 123.211 152.47 123 153 123" stroke="black" stroke-width="2" stroke-linecap="round" stroke-linejoin="round"/>
<path id="Vector_123" d="M153 141L157.144 136.856C157.256 136.744 157.39 136.654 157.537 136.593C157.684 136.533 157.841 136.501 158 136.501C158.159 136.501 158.316 136.533 158.463 136.593C158.61 136.654 158.744 136.744 158.856 136.856L161 139" stroke="black" stroke-width="2" stroke-linecap="round" stroke-linejoin="round"/>
<path id="Vector_124" d="M157 123H160" stroke="black" stroke-width="2" stroke-linecap="round" stroke-linejoin="round"/>
<path id="Vector_125" d="M160 131H152C151.448 131 151 131.448 151 132V140C151 140.552 151.448 141 152 141H160C160.552 141 161 140.552 161 140V132C161 131.448 160.552 131 160 131Z" stroke="black" stroke-width="2" stroke-linecap="round" stroke-linejoin="round"/>
</g></svg>
