<svg viewBox="0 0 24 24" fill="none" xmlns="http://www.w3.org/2000/svg"><g transform="translate(-52 -120)">
<path id="Vector_105" d="M68 125H74" stroke="black" stroke-width="2" stroke-linecap="round" stroke-linejoin="round"/>
<path id="Vector_106" d="M71 122V128" stroke="black" stroke-width="2" stroke-linecap="round" stroke-linejoin="round"/>
<path id="Vector_107" d="M73 131.5V139C73 139.53 72.7893 140.039 72.4142 140.414C72.0391 140.789 71.5304 141 71 141H57C56.4696 141 55.9609 140.789 55.5858 140.414C55.2107 140.039 55 139.53 55 139V125C55 124.47 55.2107 123.961 55.5858 123.586C55.9609 123.211 56.4696 123 57 123H64.5" stroke="black" stroke-width="2" stroke-linecap="round" stroke-linejoin="round"/>
<path id="Vector_108" d="M73 135L69.914 131.914C69.5389 131.539 69.0303 131.328 68.5 131.328C67.9697 131.328 67.4611 131.539 67.086 131.914L58 141" stroke="black" stroke-width="2" stroke-linecap="round" stroke-linejoin="round"/>
<path id="Vector_109" d="M61 131C62.1046 131 63 130.105 63 129C63 127.895 62.1046 127 61 127C59.8954 127 59 127.895 59 129C59 130.105 59.8954 131 61 131Z" stroke="black" stroke-width="2" stroke-linecap="round" stroke-linejoin="round"/>
</g></svg>
