<svg viewBox="0 0 24 24" fill="none" xmlns="http://www.w3.org/2000/svg"><g transform="translate(-340 -88)">
<path id="Vector_91" d="M361 97V107C361 107.53 360.789 108.039 360.414 108.414C360.039 108.789 359.53 109 359 109H345C344.47 109 343.961 108.789 343.586 108.414C343.211 108.039 343 107.53 343 107V93C343 92.4696 343.211 91.9609 343.586 91.5858C343.961 91.2107 344.47 91 345 91H352" stroke="black" stroke-width="2" stroke-linecap="round" stroke-linejoin="round"/>
<path id="Vector_92" d="M356 93H362" stroke="black" stroke-width="2" stroke-linecap="round" stroke-linejoin="round"/>
<path id="Vector_93" d="M349 99C350.105 99 351 98.1046 351 97C351 95.8954 350.105 95 349 95C347.895 95 347 95.8954 347 97C347 98.1046 347.895 99 349 99Z" stroke="black" stroke-width="2" stroke-linecap="round" stroke-linejoin="round"/>
<path id="Vector_94" d="M361 103L357.914 99.9139C357.539 99.539 357.03 99.3284 356.5 99.3284C355.97 99.3284 355.461 99.539 355.086 99.9139L346 109" stroke="black" stroke-width="2" stroke-linecap="round" stroke-linejoin="round"/>
</g></svg>
