<svg viewBox="0 0 24 24" fill="none" xmlns="http://www.w3.org/2000/svg"><g transform="translate(-20 -120)">
<path id="Vector_101" d="M35 135.003C34.9995 134.826 35.0462 134.651 35.1353 134.498C35.2245 134.344 35.3528 134.217 35.5073 134.13C35.6617 134.042 35.8366 133.998 36.0141 134C36.1915 134.003 36.3651 134.052 36.517 134.144L41.514 137.141C41.6628 137.23 41.786 137.355 41.8715 137.506C41.9571 137.657 42.002 137.827 42.002 138C42.002 138.173 41.9571 138.343 41.8715 138.494C41.786 138.645 41.6628 138.77 41.514 138.859L36.517 141.856C36.365 141.948 36.1913 141.997 36.0138 142C35.8363 142.002 35.6613 141.958 35.5068 141.87C35.3524 141.782 35.224 141.655 35.1349 141.502C35.0459 141.348 34.9993 141.174 35 140.996V135.003Z" stroke="black" stroke-width="2" stroke-linecap="round" stroke-linejoin="round"/>
<path id="Vector_102" d="M41 132.17V125C41 124.47 40.7893 123.961 40.4142 123.586C40.0391 123.211 39.5304 123 39 123H25C24.4696 123 23.9609 123.211 23.5858 123.586C23.2107 123.961 23 124.47 23 125V139C23 139.53 23.2107 140.039 23.5858 140.414C23.9609 140.789 24.4696 141 25 141H31" stroke="black" stroke-width="2" stroke-linecap="round" stroke-linejoin="round"/>
<path id="Vector_103" d="M26 141L31 136" stroke="black" stroke-width="2" stroke-linecap="round" stroke-linejoin="round"/>
<path id="Vector_104" d="M29 131C30.1046 131 31 130.105 31 129C31 127.895 30.1046 127 29 127C27.8954 127 27 127.895 27 129C27 130.105 27.8954 131 29 131Z" stroke="black" stroke-width="2" stroke-linecap="round" stroke-linejoin="round"/>
</g></svg>
