<svg viewBox="0 0 24 24" fill="none" xmlns="http://www.w3.org/2000/svg"><g transform="translate(-308 -248)">
<path id="Vector_330" d="M320 251V263" stroke="black" stroke-width="2" stroke-linecap="round" stroke-linejoin="round"/>
<path id="Vector_331" d="M316 259L320 263L324 259" stroke="black" stroke-width="2" stroke-linecap="round" stroke-linejoin="round"/>
<path id="Vector_332" d="M316 253H312C311.47 253 310.961 253.211 310.586 253.586C310.211 253.961 310 254.47 310 255V265C310 265.53 310.211 266.039 310.586 266.414C310.961 266.789 311.47 267 312 267H328C328.53 267 329.039 266.789 329.414 266.414C329.789 266.039 330 265.53 330 265V255C330 254.47 329.789 253.961 329.414 253.586C329.039 253.211 328.53 253 328 253H324" stroke="black" stroke-width="2" stroke-linecap="round" stroke-linejoin="round"/>
</g></svg>
