<svg viewBox="0 0 24 24" fill="none" xmlns="http://www.w3.org/2000/svg"><g transform="translate(-84 -56)">
<path id="Vector_5" d="M106 68H100L98 71H94L92 68H86" stroke="black" stroke-width="2" stroke-linecap="round" stroke-linejoin="round"/>
<path id="Vector_6" d="M89.45 61.11L86 68V74C86 74.5304 86.2107 75.0391 86.5858 75.4142C86.9609 75.7893 87.4696 76 88 76H104C104.53 76 105.039 75.7893 105.414 75.4142C105.789 75.0391 106 74.5304 106 74V68L102.55 61.11C102.384 60.7768 102.129 60.4964 101.813 60.3003C101.497 60.1042 101.132 60.0002 100.76 60H91.24C90.8679 60.0002 90.5033 60.1042 90.187 60.3003C89.8708 60.4964 89.6156 60.7768 89.45 61.11Z" stroke="black" stroke-width="2" stroke-linecap="round" stroke-linejoin="round"/>
</g></svg>
