<svg viewBox="0 0 24 24" fill="none" xmlns="http://www.w3.org/2000/svg"><g transform="translate(-212 -88)">
<path id="Vector_47" d="M218 104C223 104 225 96 230 96C231.061 96 232.078 96.4214 232.828 97.1716C233.579 97.9217 234 98.9391 234 100C234 101.061 233.579 102.078 232.828 102.828C232.078 103.579 231.061 104 230 104C225 104 223 96 218 96C216.939 96 215.922 96.4214 215.172 97.1716C214.421 97.9217 214 98.9391 214 100C214 101.061 214.421 102.078 215.172 102.828C215.922 103.579 216.939 104 218 104Z" stroke="black" stroke-width="2" stroke-linecap="round" stroke-linejoin="round"/>
</g></svg>
