<svg viewBox="0 0 24 24" fill="none" xmlns="http://www.w3.org/2000/svg"><g transform="translate(-180 -120)">
<path id="Vector_130" d="M201 137C201 136.47 200.789 135.961 200.414 135.586C200.039 135.211 199.53 135 199 135H185C184.47 135 183.961 135.211 183.586 135.586C183.211 135.961 183 136.47 183 137V139C183 139.53 183.211 140.039 183.586 140.414C183.961 140.789 184.47 141 185 141H199C199.53 141 200.039 140.789 200.414 140.414C200.789 140.039 201 139.53 201 139V137Z" stroke="black" stroke-width="2" stroke-linecap="round" stroke-linejoin="round"/>
<path id="Vector_131" d="M186 135V133" stroke="black" stroke-width="2" stroke-linecap="round" stroke-linejoin="round"/>
<path id="Vector_132" d="M192 135V129" stroke="black" stroke-width="2" stroke-linecap="round" stroke-linejoin="round"/>
<path id="Vector_133" d="M192 129C193.657 129 195 127.657 195 126C195 124.343 193.657 123 192 123C190.343 123 189 124.343 189 126C189 127.657 190.343 129 192 129Z" stroke="black" stroke-width="2" stroke-linecap="round" stroke-linejoin="round"/>
</g></svg>
