<svg viewBox="0 0 24 24" fill="none" xmlns="http://www.w3.org/2000/svg"><g transform="translate(-116 -88)">
<path id="Vector_92" d="M134 105C133.735 105 133.48 105.105 133.293 105.293C133.105 105.48 133 105.735 133 106V107C133 107.396 133.117 107.782 133.337 108.111C133.557 108.44 133.869 108.696 134.235 108.848C134.6 108.999 135.002 109.039 135.39 108.962C135.778 108.884 136.135 108.694 136.414 108.414C136.694 108.135 136.884 107.778 136.962 107.39C137.039 107.002 136.999 106.6 136.848 106.235C136.696 105.869 136.44 105.557 136.111 105.337C135.782 105.117 135.396 105 135 105H134Z" stroke="black" stroke-width="2" stroke-linecap="round" stroke-linejoin="round"/>
<path id="Vector_93" d="M136.97 91.61C137.001 91.529 137.007 91.4409 136.989 91.3563C136.971 91.2716 136.928 91.194 136.867 91.1328C136.806 91.0715 136.728 91.0293 136.644 91.0111C136.559 90.9928 136.471 90.9994 136.39 91.03C126.2 94.6 122.6 98.2 119.03 108.39C118.999 108.471 118.993 108.559 119.011 108.644C119.029 108.728 119.072 108.806 119.133 108.867C119.194 108.928 119.272 108.971 119.356 108.989C119.441 109.007 119.529 109.001 119.61 108.97C129.8 105.4 133.4 101.8 136.97 91.61Z" stroke="black" stroke-width="2" stroke-linecap="round" stroke-linejoin="round"/>
<path id="Vector_94" d="M122.707 94.707L133.293 105.293" stroke="black" stroke-width="2" stroke-linecap="round" stroke-linejoin="round"/>
<path id="Vector_95" d="M123 93C123 92.6044 122.883 92.2178 122.663 91.8889C122.443 91.56 122.131 91.3036 121.765 91.1522C121.4 91.0009 120.998 90.9613 120.61 91.0384C120.222 91.1156 119.865 91.3061 119.586 91.5858C119.306 91.8655 119.116 92.2219 119.038 92.6098C118.961 92.9978 119.001 93.3999 119.152 93.7654C119.304 94.1308 119.56 94.4432 119.889 94.6629C120.218 94.8827 120.604 95 121 95H122C122.265 95 122.52 94.8946 122.707 94.7071C122.895 94.5196 123 94.2652 123 94V93Z" stroke="black" stroke-width="2" stroke-linecap="round" stroke-linejoin="round"/>
</g></svg>
