<svg viewBox="0 0 24 24" fill="none" xmlns="http://www.w3.org/2000/svg"><g transform="translate(-180 -56)">
<path id="Vector_29" d="M182.586 73.414C182.211 73.789 182 74.2976 182 74.828V77C182 77.2653 182.105 77.5196 182.293 77.7071C182.48 77.8947 182.735 78 183 78H186C186.265 78 186.52 77.8947 186.707 77.7071C186.895 77.5196 187 77.2653 187 77V76C187 75.7348 187.105 75.4805 187.293 75.2929C187.48 75.1054 187.735 75 188 75H189C189.265 75 189.52 74.8947 189.707 74.7071C189.895 74.5196 190 74.2653 190 74V73C190 72.7348 190.105 72.4805 190.293 72.2929C190.48 72.1054 190.735 72 191 72H191.172C191.702 71.9999 192.211 71.7891 192.586 71.414L193.4 70.6C194.79 71.0842 196.303 71.0823 197.691 70.5948C199.08 70.1072 200.262 69.1629 201.044 67.9162C201.827 66.6695 202.162 65.1942 201.997 63.7318C201.832 62.2693 201.175 60.9063 200.134 59.8656C199.094 58.8249 197.731 58.1682 196.268 58.0029C194.806 57.8376 193.331 58.1735 192.084 58.9557C190.837 59.7378 189.893 60.9199 189.405 62.3086C188.918 63.6972 188.916 65.2102 189.4 66.6L182.586 73.414Z" stroke="black" stroke-width="2" stroke-linecap="round" stroke-linejoin="round"/>
<path id="Vector_30" d="M196.5 64C196.776 64 197 63.7761 197 63.5C197 63.2239 196.776 63 196.5 63C196.224 63 196 63.2239 196 63.5C196 63.7761 196.224 64 196.5 64Z" fill="black" stroke="black" stroke-width="2" stroke-linecap="round" stroke-linejoin="round"/>
</g></svg>
