<svg viewBox="0 0 24 24" fill="none" xmlns="http://www.w3.org/2000/svg"><g transform="translate(-212 -56)">
<path id="Vector_31" d="M224.4 58.7001C224.862 58.2713 225.47 58.0331 226.1 58.0331C226.731 58.0331 227.338 58.2713 227.8 58.7001L233.3 64.2001C233.729 64.6623 233.967 65.2696 233.967 65.9001C233.967 66.5305 233.729 67.1378 233.3 67.6001L229.6 71.3001C229.138 71.7288 228.531 71.967 227.9 71.967C227.27 71.967 226.662 71.7288 226.2 71.3001L220.7 65.8001C220.271 65.3378 220.033 64.7305 220.033 64.1001C220.033 63.4696 220.271 62.8623 220.7 62.4001L224.4 58.7001Z" stroke="black" stroke-width="2" stroke-linecap="round" stroke-linejoin="round"/>
<path id="Vector_32" d="M226 63L229 66" stroke="black" stroke-width="2" stroke-linecap="round" stroke-linejoin="round"/>
<path id="Vector_33" d="M221.4 66.6L214.586 73.414C214.211 73.789 214 74.2976 214 74.828V77C214 77.2652 214.105 77.5195 214.293 77.7071C214.48 77.8946 214.735 78 215 78H218C218.265 78 218.52 77.8946 218.707 77.7071C218.895 77.5195 219 77.2652 219 77V76C219 75.7348 219.105 75.4804 219.293 75.2929C219.48 75.1053 219.735 75 220 75H221C221.265 75 221.52 74.8946 221.707 74.7071C221.895 74.5195 222 74.2652 222 74V73C222 72.7348 222.105 72.4804 222.293 72.2929C222.48 72.1053 222.735 72 223 72H223.172C223.702 71.9999 224.211 71.7891 224.586 71.414L225.4 70.6" stroke="black" stroke-width="2" stroke-linecap="round" stroke-linejoin="round"/>
</g></svg>
