<svg viewBox="0 0 24 24" fill="none" xmlns="http://www.w3.org/2000/svg"><g transform="translate(-148 -56)">
<path id="Vector_26" d="M163.5 63.5L165.8 65.8C165.987 65.9832 166.238 66.0859 166.5 66.0859C166.762 66.0859 167.013 65.9832 167.2 65.8L169.3 63.7C169.483 63.5131 169.586 63.2618 169.586 63C169.586 62.7382 169.483 62.4869 169.3 62.3L167 60" stroke="black" stroke-width="2" stroke-linecap="round" stroke-linejoin="round"/>
<path id="Vector_27" d="M169 58L159.4 67.6" stroke="black" stroke-width="2" stroke-linecap="round" stroke-linejoin="round"/>
<path id="Vector_28" d="M155.5 77C158.538 77 161 74.5376 161 71.5C161 68.4624 158.538 66 155.5 66C152.462 66 150 68.4624 150 71.5C150 74.5376 152.462 77 155.5 77Z" stroke="black" stroke-width="2" stroke-linecap="round" stroke-linejoin="round"/>
</g></svg>
