<svg viewBox="0 0 24 24" fill="none" xmlns="http://www.w3.org/2000/svg"><g transform="translate(-20 -88)">
<path id="Vector_59" d="M32 100V106" stroke="black" stroke-width="2" stroke-linecap="round" stroke-linejoin="round"/>
<path id="Vector_60" d="M24.0771 98.615C24.0137 98.767 23.9888 98.9323 24.0046 99.0962C24.0205 99.2601 24.0765 99.4175 24.1679 99.5546C24.2592 99.6916 24.3829 99.8039 24.5281 99.8817C24.6733 99.9594 24.8354 100 25.0001 100H39.0001C39.1648 100 39.3269 99.9594 39.4721 99.8817C39.6172 99.8039 39.741 99.6916 39.8323 99.5546C39.9236 99.4175 39.9797 99.2601 39.9955 99.0962C40.0114 98.9323 39.9865 98.767 39.9231 98.615L36.8461 91.231C36.6943 90.8665 36.4379 90.5551 36.1094 90.336C35.7809 90.117 35.3949 90 35.0001 90H29.0001C28.6053 90 28.2194 90.1167 27.8909 90.3356C27.5624 90.5545 27.3061 90.8657 27.1541 91.23L24.0771 98.615Z" stroke="black" stroke-width="2" stroke-linecap="round" stroke-linejoin="round"/>
<path id="Vector_61" d="M28 108C28 107.47 28.2107 106.961 28.5858 106.586C28.9609 106.211 29.4696 106 30 106H34C34.5304 106 35.0391 106.211 35.4142 106.586C35.7893 106.961 36 107.47 36 108V109C36 109.265 35.8946 109.52 35.7071 109.707C35.5196 109.895 35.2652 110 35 110H29C28.7348 110 28.4804 109.895 28.2929 109.707C28.1054 109.52 28 109.265 28 109V108Z" stroke="black" stroke-width="2" stroke-linecap="round" stroke-linejoin="round"/>
</g></svg>
