<svg viewBox="0 0 24 24" fill="none" xmlns="http://www.w3.org/2000/svg"><g transform="translate(-84 -88)">
<path id="Vector_65" d="M94.2928 90.293C94.4803 90.1056 94.7346 90.0002 94.9998 90.0002C95.265 90.0002 95.5193 90.1056 95.7068 90.293L98.2068 92.793L104.201 94.02C104.378 94.0563 104.542 94.1398 104.675 94.2617C104.808 94.3836 104.906 94.5394 104.958 94.7124C105.01 94.8854 105.014 95.0692 104.97 95.2443C104.925 95.4195 104.835 95.5794 104.707 95.707L97.7068 102.707C97.5791 102.835 97.4192 102.926 97.2441 102.97C97.069 103.014 96.8851 103.01 96.7121 102.958C96.5391 102.906 96.3834 102.808 96.2615 102.675C96.1396 102.542 96.0561 102.378 96.0198 102.201L94.7928 96.207L92.2928 93.707C92.1053 93.5195 92 93.2652 92 93C92 92.7349 92.1053 92.4806 92.2928 92.293L94.2928 90.293Z" stroke="black" stroke-width="2" stroke-linecap="round" stroke-linejoin="round"/>
<path id="Vector_66" d="M98.207 92.793L94.793 96.207" stroke="black" stroke-width="2" stroke-linecap="round" stroke-linejoin="round"/>
<path id="Vector_67" d="M87 108C87 107.47 87.2107 106.961 87.5858 106.586C87.9609 106.211 88.4696 106 89 106H93C93.5304 106 94.0391 106.211 94.4142 106.586C94.7893 106.961 95 107.47 95 108V109C95 109.265 94.8946 109.52 94.7071 109.707C94.5196 109.895 94.2652 110 94 110H88C87.7348 110 87.4804 109.895 87.2929 109.707C87.1054 109.52 87 109.265 87 109V108Z" stroke="black" stroke-width="2" stroke-linecap="round" stroke-linejoin="round"/>
<path id="Vector_68" d="M93.0864 94.5L88.2934 99.293C88.1427 99.4435 88.044 99.6381 88.0116 99.8485C87.9793 100.059 88.0149 100.274 88.1133 100.463L91.0003 106" stroke="black" stroke-width="2" stroke-linecap="round" stroke-linejoin="round"/>
</g></svg>
