<svg viewBox="0 0 24 24" fill="none" xmlns="http://www.w3.org/2000/svg"><g transform="translate(-52 -88)">
<path id="Vector_62" d="M64 90V95" stroke="black" stroke-width="2" stroke-linecap="round" stroke-linejoin="round"/>
<path id="Vector_63" d="M66.829 103.998C66.9887 104.45 67.0375 104.935 66.9714 105.41C66.9053 105.885 66.7261 106.337 66.449 106.729C66.1719 107.121 65.8048 107.44 65.3787 107.661C64.9526 107.881 64.4798 107.996 64 107.996C63.5202 107.996 63.0474 107.881 62.6213 107.661C62.1952 107.44 61.8281 107.121 61.551 106.729C61.2739 106.337 61.0947 105.885 61.0286 105.41C60.9625 104.935 61.0113 104.45 61.171 103.998" stroke="black" stroke-width="2" stroke-linecap="round" stroke-linejoin="round"/>
<path id="Vector_64" d="M72.9199 102.606C72.9851 102.758 73.0116 102.924 72.9968 103.089C72.9821 103.254 72.9266 103.413 72.8354 103.551C72.7442 103.689 72.6201 103.802 72.4743 103.881C72.3285 103.959 72.1655 104 71.9999 104H55.9999C55.8343 104 55.6713 103.959 55.5255 103.881C55.3797 103.802 55.2556 103.689 55.1644 103.551C55.0732 103.413 55.0177 103.254 55.003 103.089C54.9883 102.924 55.0147 102.758 55.0799 102.606L58.0799 95.606C58.1571 95.426 58.2854 95.2726 58.4489 95.1649C58.6125 95.0572 58.8041 94.9998 58.9999 95H68.9999C69.1958 94.9998 69.3873 95.0572 69.5509 95.1649C69.7144 95.2726 69.8428 95.426 69.9199 95.606L72.9199 102.606Z" stroke="black" stroke-width="2" stroke-linecap="round" stroke-linejoin="round"/>
</g></svg>
