<svg viewBox="0 0 24 24" fill="none" xmlns="http://www.w3.org/2000/svg"><g transform="translate(-180 -88)">
<path id="Vector_75" d="M199.929 97.629C199.99 97.7808 200.012 97.9451 199.995 98.1075C199.977 98.27 199.92 98.4257 199.829 98.561C199.737 98.6962 199.613 98.807 199.469 98.8835C199.325 98.9601 199.164 99.0001 199 99H189C188.837 98.9999 188.676 98.9598 188.532 98.8832C188.388 98.8066 188.264 98.6958 188.173 98.5605C188.081 98.4253 188.024 98.2697 188.007 98.1073C187.989 97.9449 188.012 97.7807 188.072 97.629L190.072 92.629C190.146 92.4434 190.275 92.2843 190.44 92.1722C190.605 92.0601 190.801 92.0001 191 92H197C197.2 92.0001 197.395 92.0601 197.561 92.1722C197.726 92.2843 197.854 92.4434 197.928 92.629L199.929 97.629Z" stroke="black" stroke-width="2" stroke-linecap="round" stroke-linejoin="round"/>
<path id="Vector_76" d="M186 103C186.53 103 187.039 103.211 187.414 103.586C187.789 103.961 188 104.47 188 105V107C188 107.53 187.789 108.039 187.414 108.414C187.039 108.789 186.53 109 186 109H185C184.735 109 184.48 108.895 184.293 108.707C184.105 108.52 184 108.265 184 108V104C184 103.735 184.105 103.48 184.293 103.293C184.48 103.105 184.735 103 185 103H186Z" stroke="black" stroke-width="2" stroke-linecap="round" stroke-linejoin="round"/>
<path id="Vector_77" d="M188 106H192C192.53 106 193.039 105.789 193.414 105.414C193.789 105.039 194 104.53 194 104V99" stroke="black" stroke-width="2" stroke-linecap="round" stroke-linejoin="round"/>
</g></svg>
