<svg viewBox="0 0 24 24" fill="none" xmlns="http://www.w3.org/2000/svg"><g transform="translate(-116 -88)">
<path id="Vector_69" d="M128 98V110" stroke="black" stroke-width="2" stroke-linecap="round" stroke-linejoin="round"/>
<path id="Vector_70" d="M133.929 95.629C133.99 95.7808 134.012 95.9451 133.995 96.1075C133.977 96.27 133.92 96.4257 133.829 96.561C133.737 96.6962 133.613 96.807 133.469 96.8835C133.325 96.9601 133.164 97.0001 133 97H123C122.837 96.9999 122.676 96.9598 122.532 96.8832C122.388 96.8066 122.264 96.6958 122.173 96.5605C122.081 96.4253 122.024 96.2697 122.007 96.1073C121.989 95.9449 122.012 95.7807 122.072 95.629L124.072 90.629C124.146 90.4434 124.275 90.2843 124.44 90.1722C124.605 90.0601 124.801 90.0001 125 90H131C131.2 90.0001 131.395 90.0601 131.561 90.1722C131.726 90.2843 131.854 90.4434 131.928 90.629L133.929 95.629Z" stroke="black" stroke-width="2" stroke-linecap="round" stroke-linejoin="round"/>
<path id="Vector_71" d="M125 110H131" stroke="black" stroke-width="2" stroke-linecap="round" stroke-linejoin="round"/>
</g></svg>
