<svg viewBox="0 0 24 24" fill="none" xmlns="http://www.w3.org/2000/svg"><g transform="translate(-148 -88)">
<path id="Vector_72" d="M167.929 106.629C167.99 106.781 168.012 106.945 167.995 107.108C167.977 107.27 167.92 107.426 167.829 107.561C167.737 107.696 167.613 107.807 167.469 107.884C167.325 107.96 167.164 108 167 108H157C156.837 108 156.676 107.96 156.532 107.883C156.388 107.807 156.264 107.696 156.173 107.561C156.081 107.425 156.024 107.27 156.007 107.107C155.989 106.945 156.012 106.781 156.072 106.629L158.072 101.629C158.146 101.443 158.275 101.284 158.44 101.172C158.605 101.06 158.801 101 159 101H165C165.2 101 165.395 101.06 165.561 101.172C165.726 101.284 165.854 101.443 165.928 101.629L167.929 106.629Z" stroke="black" stroke-width="2" stroke-linecap="round" stroke-linejoin="round"/>
<path id="Vector_73" d="M154 91C154.53 91 155.039 91.2107 155.414 91.5858C155.789 91.9609 156 92.4696 156 93V95C156 95.5304 155.789 96.0391 155.414 96.4142C155.039 96.7893 154.53 97 154 97H153C152.735 97 152.48 96.8946 152.293 96.7071C152.105 96.5196 152 96.2652 152 96V92C152 91.7348 152.105 91.4804 152.293 91.2929C152.48 91.1054 152.735 91 153 91H154Z" stroke="black" stroke-width="2" stroke-linecap="round" stroke-linejoin="round"/>
<path id="Vector_74" d="M156 94H160C160.53 94 161.039 94.2107 161.414 94.5858C161.789 94.9609 162 95.4696 162 96V101" stroke="black" stroke-width="2" stroke-linecap="round" stroke-linejoin="round"/>
</g></svg>
