<svg viewBox="0 0 24 24" fill="none" xmlns="http://www.w3.org/2000/svg"><g transform="translate(-116 -88)">
<path id="Vector_83" d="M126 106V99" stroke="black" stroke-width="2" stroke-linecap="round" stroke-linejoin="round"/>
<path id="Vector_84" d="M127.119 90.205C127.393 90.0704 127.695 90.0005 128 90.0005C128.305 90.0005 128.607 90.0704 128.881 90.205L136.721 94.051C136.823 94.1007 136.904 94.1834 136.953 94.2856C137.001 94.3877 137.014 94.5033 136.988 94.6134C136.962 94.7235 136.9 94.8217 136.811 94.8919C136.723 94.9621 136.613 95.0002 136.5 95H119.5C119.387 95 119.277 94.9617 119.189 94.8914C119.1 94.8211 119.038 94.723 119.013 94.6129C118.987 94.5028 119 94.3874 119.048 94.2853C119.097 94.1833 119.179 94.1007 119.28 94.051L127.119 90.205Z" stroke="black" stroke-width="2" stroke-linecap="round" stroke-linejoin="round"/>
<path id="Vector_85" d="M130 106V99" stroke="black" stroke-width="2" stroke-linecap="round" stroke-linejoin="round"/>
<path id="Vector_86" d="M134 106V99" stroke="black" stroke-width="2" stroke-linecap="round" stroke-linejoin="round"/>
<path id="Vector_87" d="M119 110H137" stroke="black" stroke-width="2" stroke-linecap="round" stroke-linejoin="round"/>
<path id="Vector_88" d="M122 106V99" stroke="black" stroke-width="2" stroke-linecap="round" stroke-linejoin="round"/>
</g></svg>
