<svg viewBox="0 0 24 24" fill="none" xmlns="http://www.w3.org/2000/svg"><g transform="translate(-148 -88)">
<path id="Vector_89" d="M160 96L166 93L160 90V100" stroke="black" stroke-width="2" stroke-linecap="round" stroke-linejoin="round"/>
<path id="Vector_90" d="M156 99.99L150.5 103.13C150.346 103.217 150.218 103.344 150.129 103.497C150.04 103.649 149.993 103.823 149.993 104C149.993 104.177 150.04 104.351 150.129 104.503C150.218 104.656 150.346 104.783 150.5 104.87L159 109.73C159.304 109.906 159.649 109.998 160 109.998C160.351 109.998 160.696 109.906 161 109.73L169.5 104.87C169.654 104.783 169.782 104.656 169.871 104.503C169.96 104.351 170.007 104.177 170.007 104C170.007 103.823 169.96 103.649 169.871 103.497C169.782 103.344 169.654 103.217 169.5 103.13L164 100" stroke="black" stroke-width="2" stroke-linecap="round" stroke-linejoin="round"/>
<path id="Vector_91" d="M154.49 100.85L165.51 107.15" stroke="black" stroke-width="2" stroke-linecap="round" stroke-linejoin="round"/>
<path id="Vector_92" d="M165.51 100.85L154.5 107.15" stroke="black" stroke-width="2" stroke-linecap="round" stroke-linejoin="round"/>
</g></svg>
