<svg viewBox="0 0 24 24" fill="none" xmlns="http://www.w3.org/2000/svg"><g transform="translate(-148 -120)">
<path id="Vector_127" d="M166 125C166.531 125 167.039 125.211 167.414 125.586C167.79 125.961 168 126.47 168 127V135.526C168 135.837 168.073 136.145 168.212 136.423L169.28 138.55C169.357 138.703 169.394 138.873 169.386 139.044C169.379 139.216 169.327 139.382 169.237 139.527C169.147 139.673 169.02 139.793 168.87 139.876C168.72 139.958 168.552 140.001 168.38 140H151.62C151.449 140.001 151.28 139.958 151.13 139.876C150.98 139.793 150.854 139.673 150.764 139.527C150.673 139.382 150.622 139.216 150.614 139.044C150.607 138.873 150.643 138.703 150.72 138.55L151.788 136.423C151.928 136.145 152 135.837 152 135.526V127C152 126.47 152.211 125.961 152.586 125.586C152.961 125.211 153.47 125 154 125H166Z" stroke="black" stroke-width="2" stroke-linecap="round" stroke-linejoin="round"/>
<path id="Vector_128" d="M168.054 135.987H151.946" stroke="black" stroke-width="2" stroke-linecap="round" stroke-linejoin="round"/>
</g></svg>
