<svg viewBox="0 0 24 24" fill="none" xmlns="http://www.w3.org/2000/svg"><g transform="translate(-180 -120)">
<path id="Vector_126" d="M183.704 134.467C182.327 132.831 181.754 130.847 182.095 128.894C182.435 126.941 183.666 125.157 185.549 123.885C187.433 122.614 189.837 121.943 192.301 122.003C194.764 122.062 197.114 122.847 198.898 124.208C200.682 125.568 201.776 127.408 201.968 129.374C202.161 131.339 201.439 133.293 199.942 134.859C198.445 136.425 196.277 137.494 193.855 137.86C191.433 138.226 188.927 137.863 186.819 136.842" stroke="black" stroke-width="2" stroke-linecap="round" stroke-linejoin="round"/>
<path id="Vector_127" d="M187 142C186.38 141.535 185.876 140.932 185.529 140.239C185.182 139.546 185.001 138.781 185 138.006" stroke="black" stroke-width="2" stroke-linecap="round" stroke-linejoin="round"/>
<path id="Vector_128" d="M185 138C186.105 138 187 137.105 187 136C187 134.895 186.105 134 185 134C183.895 134 183 134.895 183 136C183 137.105 183.895 138 185 138Z" stroke="black" stroke-width="2" stroke-linecap="round" stroke-linejoin="round"/>
</g></svg>
