<svg viewBox="0 0 24 24" fill="none" xmlns="http://www.w3.org/2000/svg"><g transform="translate(-212 -120)">
<path id="Vector_129" d="M219 142C218.379 141.534 217.875 140.93 217.528 140.236C217.181 139.542 217 138.776 217 138" stroke="black" stroke-width="2" stroke-linecap="round" stroke-linejoin="round"/>
<path id="Vector_130" d="M219 136.93C219.96 137.36 220.96 137.67 221.99 137.84" stroke="black" stroke-width="2" stroke-linecap="round" stroke-linejoin="round"/>
<path id="Vector_131" d="M215.34 134C214.481 132.842 214.011 131.442 214 130C214 125.58 218.48 122 224 122C229.52 122 234 125.58 234 130C233.985 130.679 233.874 131.352 233.67 132" stroke="black" stroke-width="2" stroke-linecap="round" stroke-linejoin="round"/>
<path id="Vector_132" d="M217 138C217.53 138 218.039 137.789 218.414 137.414C218.789 137.039 219 136.53 219 136C219 135.47 218.789 134.961 218.414 134.586C218.039 134.211 217.53 134 217 134C216.47 134 215.961 134.211 215.586 134.586C215.211 134.961 215 135.47 215 136C215 136.53 215.211 137.039 215.586 137.414C215.961 137.789 216.47 138 217 138Z" stroke="black" stroke-width="2" stroke-linecap="round" stroke-linejoin="round"/>
<path id="Vector_133" d="M226.33 142H226.24C226.172 141.978 226.113 141.935 226.07 141.878C226.027 141.82 226.003 141.751 226 141.68V131.68C226 131.591 226.034 131.506 226.096 131.443C226.158 131.38 226.242 131.343 226.33 131.34C226.41 131.34 226.48 131.37 226.54 131.42L233.88 137.42C233.935 137.463 233.974 137.521 233.994 137.588C234.013 137.654 234.011 137.725 233.988 137.791C233.965 137.856 233.921 137.912 233.864 137.952C233.807 137.991 233.739 138.011 233.67 138.01H229.18L226.61 141.86C226.577 141.903 226.535 141.939 226.487 141.963C226.438 141.987 226.384 142 226.33 142Z" stroke="black" stroke-width="2" stroke-linecap="round" stroke-linejoin="round"/>
</g></svg>
