<svg viewBox="0 0 24 24" fill="none" xmlns="http://www.w3.org/2000/svg"><g transform="translate(-180 -56)">
<path id="Vector_23" d="M192 78C197.523 78 202 73.5228 202 68C202 62.4772 197.523 58 192 58C186.477 58 182 62.4772 182 68C182 73.5228 186.477 78 192 78Z" stroke="black" stroke-width="2" stroke-linecap="round" stroke-linejoin="round"/>
<path id="Vector_24" d="M198 69C197.761 70.4124 197.025 71.6929 195.925 72.6099C194.824 73.5269 193.432 74.02 192 74C190.568 74.02 189.176 73.5269 188.075 72.6099C186.975 71.6929 186.239 70.4124 186 69H198Z" stroke="black" stroke-width="2" stroke-linecap="round" stroke-linejoin="round"/>
<path id="Vector_25" d="M189 65H189.01" stroke="black" stroke-width="2" stroke-linecap="round" stroke-linejoin="round"/>
<path id="Vector_26" d="M195 65H195.01" stroke="black" stroke-width="2" stroke-linecap="round" stroke-linejoin="round"/>
</g></svg>
