<svg viewBox="0 0 24 24" fill="none" xmlns="http://www.w3.org/2000/svg"><g transform="translate(-244 -88)">
<path id="Vector_96" d="M256.83 90.1801C256.57 90.0613 256.287 89.9998 256 89.9998C255.714 89.9998 255.431 90.0613 255.17 90.1801L246.6 94.0801C246.423 94.1584 246.272 94.2865 246.166 94.449C246.06 94.6114 246.004 94.8012 246.004 94.9951C246.004 95.189 246.06 95.3788 246.166 95.5413C246.272 95.7037 246.423 95.8319 246.6 95.9101L255.18 99.8201C255.441 99.939 255.724 100 256.01 100C256.297 100 256.58 99.939 256.84 99.8201L265.42 95.9201C265.598 95.8419 265.749 95.7137 265.855 95.5513C265.961 95.3888 266.017 95.199 266.017 95.0051C266.017 94.8112 265.961 94.6214 265.855 94.459C265.749 94.2965 265.598 94.1684 265.42 94.0901L256.83 90.1801Z" stroke="black" stroke-width="2" stroke-linecap="round" stroke-linejoin="round"/>
<path id="Vector_97" d="M246 100C246 100.191 246.054 100.379 246.157 100.54C246.26 100.701 246.406 100.83 246.58 100.91L255.18 104.82C255.439 104.937 255.72 104.998 256.005 104.998C256.29 104.998 256.571 104.937 256.83 104.82L265.41 100.92C265.587 100.84 265.737 100.711 265.842 100.548C265.947 100.384 266.002 100.194 266 100" stroke="black" stroke-width="2" stroke-linecap="round" stroke-linejoin="round"/>
<path id="Vector_98" d="M246 105C246 105.191 246.054 105.379 246.157 105.54C246.26 105.701 246.406 105.83 246.58 105.91L255.18 109.82C255.439 109.937 255.72 109.998 256.005 109.998C256.29 109.998 256.571 109.937 256.83 109.82L265.41 105.92C265.587 105.84 265.737 105.711 265.842 105.548C265.947 105.384 266.002 105.194 266 105" stroke="black" stroke-width="2" stroke-linecap="round" stroke-linejoin="round"/>
</g></svg>
