<svg viewBox="0 0 24 24" fill="none" xmlns="http://www.w3.org/2000/svg"><g transform="translate(-276 -88)">
<path id="Vector_99" d="M289 101.74C288.696 101.915 288.351 102.008 288 102.008C287.649 102.008 287.304 101.915 287 101.74L278.5 96.8699C278.346 96.7827 278.218 96.6562 278.129 96.5034C278.04 96.3505 277.993 96.1768 277.993 95.9999C277.993 95.823 278.04 95.6493 278.129 95.4964C278.218 95.3436 278.346 95.2171 278.5 95.1299L287 90.2599C287.304 90.0844 287.649 89.9919 288 89.9919C288.351 89.9919 288.696 90.0844 289 90.2599L297.5 95.1299C297.654 95.2171 297.782 95.3436 297.871 95.4964C297.96 95.6493 298.007 95.823 298.007 95.9999C298.007 96.1768 297.96 96.3505 297.871 96.5034C297.782 96.6562 297.654 96.7827 297.5 96.8699L289 101.74Z" stroke="black" stroke-width="2" stroke-linecap="round" stroke-linejoin="round"/>
<path id="Vector_100" d="M296 102.285L297.5 103.13C297.654 103.217 297.782 103.344 297.871 103.496C297.96 103.649 298.007 103.823 298.007 104C298.007 104.177 297.96 104.351 297.871 104.503C297.782 104.656 297.654 104.783 297.5 104.87L289 109.74C288.696 109.915 288.351 110.008 288 110.008C287.649 110.008 287.304 109.915 287 109.74L278.5 104.87C278.346 104.783 278.218 104.656 278.129 104.503C278.04 104.351 277.993 104.177 277.993 104C277.993 103.823 278.04 103.649 278.129 103.496C278.218 103.344 278.346 103.217 278.5 103.13L280 102.285" stroke="black" stroke-width="2" stroke-linecap="round" stroke-linejoin="round"/>
</g></svg>
