<svg viewBox="0 0 24 24" fill="none" xmlns="http://www.w3.org/2000/svg"><g transform="translate(-308 -88)">
<path id="Vector_101" d="M320.83 90.1801C320.57 90.0613 320.287 89.9998 320 89.9998C319.714 89.9998 319.431 90.0613 319.17 90.1801L310.6 94.0801C310.423 94.1584 310.272 94.2865 310.166 94.449C310.06 94.6114 310.004 94.8012 310.004 94.9951C310.004 95.189 310.06 95.3788 310.166 95.5413C310.272 95.7037 310.423 95.8319 310.6 95.9101L319.18 99.8201C319.441 99.9388 319.724 100 320.01 100C320.297 100 320.58 99.9388 320.84 99.8201L329.42 95.9201C329.598 95.8421 329.75 95.714 329.856 95.5513C329.963 95.3886 330.019 95.1985 330.019 95.0041C330.019 94.8098 329.963 94.6196 329.856 94.4569C329.75 94.2942 329.598 94.1661 329.42 94.0881L320.83 90.1801Z" stroke="black" stroke-width="2" stroke-linecap="round" stroke-linejoin="round"/>
<path id="Vector_102" d="M324 105H330" stroke="black" stroke-width="2" stroke-linecap="round" stroke-linejoin="round"/>
<path id="Vector_103" d="M310.003 99.9951C310.003 100.189 310.059 100.379 310.165 100.541C310.271 100.704 310.422 100.832 310.6 100.91L319.18 104.82C319.441 104.939 319.724 105 320.01 105" stroke="black" stroke-width="2" stroke-linecap="round" stroke-linejoin="round"/>
<path id="Vector_104" d="M310.003 104.995C310.003 105.189 310.059 105.379 310.165 105.541C310.271 105.704 310.422 105.832 310.6 105.91L319.18 109.82C319.441 109.939 319.724 110 320.01 110C320.296 110 320.579 109.939 320.84 109.82L322.95 108.86" stroke="black" stroke-width="2" stroke-linecap="round" stroke-linejoin="round"/>
<path id="Vector_105" d="M330.018 100.004C330.018 100.198 329.962 100.388 329.856 100.551C329.749 100.714 329.598 100.842 329.42 100.92L329.243 101" stroke="black" stroke-width="2" stroke-linecap="round" stroke-linejoin="round"/>
</g></svg>
