<svg viewBox="0 0 24 24" fill="none" xmlns="http://www.w3.org/2000/svg"><g transform="translate(-340 -88)">
<path id="Vector_106" d="M352.83 90.1801C352.57 90.0613 352.287 89.9998 352 89.9998C351.714 89.9998 351.431 90.0613 351.17 90.1801L342.6 94.0801C342.423 94.1584 342.272 94.2865 342.166 94.449C342.06 94.6114 342.004 94.8012 342.004 94.9951C342.004 95.189 342.06 95.3788 342.166 95.5413C342.272 95.7037 342.423 95.8319 342.6 95.9101L351.18 99.8201C351.441 99.9388 351.724 100 352.01 100C352.297 100 352.58 99.9388 352.84 99.8201L361.42 95.9201C361.598 95.842 361.749 95.7138 361.855 95.5513C361.962 95.3887 362.018 95.1988 362.018 95.0046C362.018 94.8105 361.962 94.6205 361.855 94.4579C361.749 94.2954 361.598 94.1672 361.42 94.0891L352.83 90.1801Z" stroke="black" stroke-width="2" stroke-linecap="round" stroke-linejoin="round"/>
<path id="Vector_107" d="M356 105H362" stroke="black" stroke-width="2" stroke-linecap="round" stroke-linejoin="round"/>
<path id="Vector_108" d="M359 102V108" stroke="black" stroke-width="2" stroke-linecap="round" stroke-linejoin="round"/>
<path id="Vector_109" d="M342 100C342 100.191 342.054 100.379 342.157 100.54C342.26 100.701 342.406 100.83 342.58 100.91L351.18 104.82C351.439 104.937 351.72 104.998 352.005 104.998" stroke="black" stroke-width="2" stroke-linecap="round" stroke-linejoin="round"/>
<path id="Vector_110" d="M342 105C342 105.191 342.054 105.379 342.157 105.54C342.26 105.701 342.406 105.83 342.58 105.91L351.18 109.82C351.439 109.937 351.72 109.998 352.005 109.998C352.29 109.998 352.571 109.937 352.83 109.82L354.946 108.858" stroke="black" stroke-width="2" stroke-linecap="round" stroke-linejoin="round"/>
</g></svg>
