<svg viewBox="0 0 24 24" fill="none" xmlns="http://www.w3.org/2000/svg"><g transform="translate(-20 -120)">
<path id="Vector_115" d="M29 123H24C23.4477 123 23 123.448 23 124V129C23 129.552 23.4477 130 24 130H29C29.5523 130 30 129.552 30 129V124C30 123.448 29.5523 123 29 123Z" stroke="black" stroke-width="2" stroke-linecap="round" stroke-linejoin="round"/>
<path id="Vector_116" d="M40 123H35C34.4477 123 34 123.448 34 124V129C34 129.552 34.4477 130 35 130H40C40.5523 130 41 129.552 41 129V124C41 123.448 40.5523 123 40 123Z" stroke="black" stroke-width="2" stroke-linecap="round" stroke-linejoin="round"/>
<path id="Vector_117" d="M40 134H35C34.4477 134 34 134.448 34 135V140C34 140.552 34.4477 141 35 141H40C40.5523 141 41 140.552 41 140V135C41 134.448 40.5523 134 40 134Z" stroke="black" stroke-width="2" stroke-linecap="round" stroke-linejoin="round"/>
<path id="Vector_118" d="M29 134H24C23.4477 134 23 134.448 23 135V140C23 140.552 23.4477 141 24 141H29C29.5523 141 30 140.552 30 140V135C30 134.448 29.5523 134 29 134Z" stroke="black" stroke-width="2" stroke-linecap="round" stroke-linejoin="round"/>
</g></svg>
