<svg viewBox="0 0 24 24" fill="none" xmlns="http://www.w3.org/2000/svg"><g transform="translate(-52 -120)">
<path id="Vector_119" d="M61 123H56C55.4477 123 55 123.448 55 124V129C55 129.552 55.4477 130 56 130H61C61.5523 130 62 129.552 62 129V124C62 123.448 61.5523 123 61 123Z" stroke="black" stroke-width="2" stroke-linecap="round" stroke-linejoin="round"/>
<path id="Vector_120" d="M61 134H56C55.4477 134 55 134.448 55 135V140C55 140.552 55.4477 141 56 141H61C61.5523 141 62 140.552 62 140V135C62 134.448 61.5523 134 61 134Z" stroke="black" stroke-width="2" stroke-linecap="round" stroke-linejoin="round"/>
<path id="Vector_121" d="M66 124H73" stroke="black" stroke-width="2" stroke-linecap="round" stroke-linejoin="round"/>
<path id="Vector_122" d="M66 129H73" stroke="black" stroke-width="2" stroke-linecap="round" stroke-linejoin="round"/>
<path id="Vector_123" d="M66 135H73" stroke="black" stroke-width="2" stroke-linecap="round" stroke-linejoin="round"/>
<path id="Vector_124" d="M66 140H73" stroke="black" stroke-width="2" stroke-linecap="round" stroke-linejoin="round"/>
</g></svg>
