<svg viewBox="0 0 24 24" fill="none" xmlns="http://www.w3.org/2000/svg"><g transform="translate(-116 -120)">
<path id="Vector_128" d="M136 123H120C119.448 123 119 123.448 119 124V129C119 129.552 119.448 130 120 130H136C136.552 130 137 129.552 137 129V124C137 123.448 136.552 123 136 123Z" stroke="black" stroke-width="2" stroke-linecap="round" stroke-linejoin="round"/>
<path id="Vector_129" d="M125 134H120C119.448 134 119 134.448 119 135V140C119 140.552 119.448 141 120 141H125C125.552 141 126 140.552 126 140V135C126 134.448 125.552 134 125 134Z" stroke="black" stroke-width="2" stroke-linecap="round" stroke-linejoin="round"/>
<path id="Vector_130" d="M136 134H131C130.448 134 130 134.448 130 135V140C130 140.552 130.448 141 131 141H136C136.552 141 137 140.552 137 140V135C137 134.448 136.552 134 136 134Z" stroke="black" stroke-width="2" stroke-linecap="round" stroke-linejoin="round"/>
</g></svg>
