<svg viewBox="0 0 24 24" fill="none" xmlns="http://www.w3.org/2000/svg"><g transform="translate(-84 -120)">
<path id="Vector_125" d="M93 123H88C87.4477 123 87 123.448 87 124V140C87 140.552 87.4477 141 88 141H93C93.5523 141 94 140.552 94 140V124C94 123.448 93.5523 123 93 123Z" stroke="black" stroke-width="2" stroke-linecap="round" stroke-linejoin="round"/>
<path id="Vector_126" d="M104 123H99C98.4477 123 98 123.448 98 124V129C98 129.552 98.4477 130 99 130H104C104.552 130 105 129.552 105 129V124C105 123.448 104.552 123 104 123Z" stroke="black" stroke-width="2" stroke-linecap="round" stroke-linejoin="round"/>
<path id="Vector_127" d="M104 134H99C98.4477 134 98 134.448 98 135V140C98 140.552 98.4477 141 99 141H104C104.552 141 105 140.552 105 140V135C105 134.448 104.552 134 104 134Z" stroke="black" stroke-width="2" stroke-linecap="round" stroke-linejoin="round"/>
</g></svg>
