<svg viewBox="0 0 24 24" fill="none" xmlns="http://www.w3.org/2000/svg"><g transform="translate(-372 -88)">
<path id="Vector_111" d="M381 91H376C375.448 91 375 91.4477 375 92V99C375 99.5523 375.448 100 376 100H381C381.552 100 382 99.5523 382 99V92C382 91.4477 381.552 91 381 91Z" stroke="black" stroke-width="2" stroke-linecap="round" stroke-linejoin="round"/>
<path id="Vector_112" d="M392 91H387C386.448 91 386 91.4477 386 92V95C386 95.5523 386.448 96 387 96H392C392.552 96 393 95.5523 393 95V92C393 91.4477 392.552 91 392 91Z" stroke="black" stroke-width="2" stroke-linecap="round" stroke-linejoin="round"/>
<path id="Vector_113" d="M392 100H387C386.448 100 386 100.448 386 101V108C386 108.552 386.448 109 387 109H392C392.552 109 393 108.552 393 108V101C393 100.448 392.552 100 392 100Z" stroke="black" stroke-width="2" stroke-linecap="round" stroke-linejoin="round"/>
<path id="Vector_114" d="M381 104H376C375.448 104 375 104.448 375 105V108C375 108.552 375.448 109 376 109H381C381.552 109 382 108.552 382 108V105C382 104.448 381.552 104 381 104Z" stroke="black" stroke-width="2" stroke-linecap="round" stroke-linejoin="round"/>
</g></svg>
