<svg viewBox="0 0 24 24" fill="none" xmlns="http://www.w3.org/2000/svg"><g transform="translate(-148 -120)">
<path id="Vector_131" d="M168 123H152C151.448 123 151 123.448 151 124V129C151 129.552 151.448 130 152 130H168C168.552 130 169 129.552 169 129V124C169 123.448 168.552 123 168 123Z" stroke="black" stroke-width="2" stroke-linecap="round" stroke-linejoin="round"/>
<path id="Vector_132" d="M159 134H152C151.448 134 151 134.448 151 135V140C151 140.552 151.448 141 152 141H159C159.552 141 160 140.552 160 140V135C160 134.448 159.552 134 159 134Z" stroke="black" stroke-width="2" stroke-linecap="round" stroke-linejoin="round"/>
<path id="Vector_133" d="M168 134H165C164.448 134 164 134.448 164 135V140C164 140.552 164.448 141 165 141H168C168.552 141 169 140.552 169 140V135C169 134.448 168.552 134 168 134Z" stroke="black" stroke-width="2" stroke-linecap="round" stroke-linejoin="round"/>
</g></svg>
