<svg viewBox="0 0 24 24" fill="none" xmlns="http://www.w3.org/2000/svg"><g transform="translate(-244 -120)">
<path id="Vector_127" d="M255 140C253.244 140.005 251.55 139.351 250.254 138.165C248.959 136.98 248.156 135.352 248.004 133.602C247.853 131.853 248.365 130.11 249.439 128.721C250.512 127.331 252.069 126.396 253.8 126.1C259.5 125 261 124.48 263 122C264 124 265 126.18 265 130C265 135.5 260.22 140 255 140Z" stroke="black" stroke-width="2" stroke-linecap="round" stroke-linejoin="round"/>
<path id="Vector_128" d="M246 141C246 138 247.85 135.64 251.08 135C253.5 134.52 256 133 257 132" stroke="black" stroke-width="2" stroke-linecap="round" stroke-linejoin="round"/>
</g></svg>
