<svg viewBox="0 0 24 24" fill="none" xmlns="http://www.w3.org/2000/svg"><g transform="translate(-116 -152)">
<path id="Vector_167" d="M118 174C119.25 173.013 120.27 172.025 121.9 171.8C123.311 171.8 124.669 172.336 125.7 173.3C126.234 173.675 126.853 173.913 127.501 173.993C128.148 174.074 128.806 173.995 129.416 173.763C130.027 173.531 130.571 173.153 131.001 172.662C131.432 172.171 131.736 171.582 131.887 170.947C132.535 171.063 133.204 170.993 133.815 170.745C134.425 170.498 134.954 170.083 135.34 169.549C135.725 169.014 135.952 168.382 135.994 167.724C136.036 167.066 135.891 166.41 135.577 165.831C136.15 165.646 136.666 165.316 137.074 164.873C137.482 164.43 137.769 163.889 137.907 163.303C138.045 162.716 138.03 162.104 137.862 161.526C137.694 160.947 137.38 160.422 136.95 160C137.275 159.675 137.532 159.289 137.708 158.864C137.884 158.44 137.975 157.985 137.975 157.525C137.975 157.065 137.884 156.61 137.708 156.186C137.532 155.761 137.275 155.375 136.95 155.05C136.625 154.725 136.239 154.467 135.814 154.291C135.389 154.115 134.934 154.025 134.475 154.025C133.546 154.025 132.656 154.394 132 155.05C131.578 154.62 131.053 154.305 130.474 154.137C129.895 153.97 129.283 153.954 128.697 154.092C128.11 154.23 127.57 154.517 127.127 154.926C126.684 155.334 126.354 155.85 126.169 156.423C125.589 156.108 124.933 155.964 124.276 156.006C123.618 156.048 122.985 156.274 122.451 156.66C121.916 157.046 121.501 157.574 121.254 158.185C121.007 158.796 120.937 159.464 121.053 160.113C120.423 160.266 119.84 160.57 119.354 160.999C118.867 161.428 118.493 161.968 118.262 162.574C118.031 163.179 117.95 163.832 118.027 164.475C118.105 165.119 118.337 165.734 118.705 166.268C119.499 167.42 120.409 168.712 120.2 170.1C119.926 171.743 119.014 172.732 118 174Z" stroke="black" stroke-width="2" stroke-linecap="round" stroke-linejoin="round"/>
<path id="Vector_168" d="M118 174L133 159" stroke="black" stroke-width="2" stroke-linecap="round" stroke-linejoin="round"/>
</g></svg>
