<svg viewBox="0 0 24 24" fill="none" xmlns="http://www.w3.org/2000/svg"><g transform="translate(-180 -88)">
<path id="Vector_93" d="M196 100H199C199.422 100 199.833 99.8667 200.175 99.6188C200.517 99.3709 200.771 99.0213 200.902 98.62L201.958 95.287C202.003 95.1377 202.012 94.98 201.985 94.8265C201.958 94.673 201.895 94.5279 201.802 94.4029C201.709 94.2779 201.588 94.1763 201.449 94.1064C201.31 94.0364 201.156 94 201 94H183C182.844 94 182.69 94.0364 182.551 94.1064C182.412 94.1763 182.291 94.2779 182.198 94.4029C182.105 94.5279 182.042 94.673 182.015 94.8265C181.988 94.98 181.997 95.1377 182.042 95.287L183.098 98.621C183.229 99.0221 183.484 99.3715 183.825 99.6192C184.167 99.8669 184.578 100 185 100H188" stroke="black" stroke-width="2" stroke-linecap="round" stroke-linejoin="round"/>
<path id="Vector_94" d="M198 94V91C198 90.7348 197.895 90.4804 197.707 90.2929C197.52 90.1054 197.265 90 197 90H194" stroke="black" stroke-width="2" stroke-linecap="round" stroke-linejoin="round"/>
<path id="Vector_95" d="M195 98H189C188.448 98 188 98.4477 188 99V109C188 109.552 188.448 110 189 110H195C195.552 110 196 109.552 196 109V99C196 98.4477 195.552 98 195 98Z" stroke="black" stroke-width="2" stroke-linecap="round" stroke-linejoin="round"/>
</g></svg>
