<svg viewBox="0 0 24 24" fill="none" xmlns="http://www.w3.org/2000/svg"><g transform="translate(-276 -120)">
<path id="Vector_135" d="M289.433 122C289.596 122.002 289.757 122.043 289.9 122.121C290.044 122.2 290.166 122.312 290.257 122.448C292.049 125.311 293 128.622 293 132C293 135.378 292.049 138.689 290.257 141.552C290.166 141.688 290.044 141.8 289.9 141.879C289.757 141.957 289.596 141.998 289.433 142H286.567C286.403 141.998 286.242 141.957 286.099 141.879C285.955 141.8 285.833 141.688 285.743 141.552C283.95 138.689 282.999 135.378 282.999 132C282.999 128.622 283.95 125.311 285.743 122.448C285.833 122.312 285.955 122.2 286.099 122.121C286.242 122.043 286.403 122.002 286.567 122H289.433Z" stroke="black" stroke-width="2" stroke-linecap="round" stroke-linejoin="round"/>
</g></svg>
