<svg viewBox="0 0 24 24" fill="none" xmlns="http://www.w3.org/2000/svg"><g transform="translate(-244 -120)">
<path id="Vector_134" d="M251 122C250.814 122 250.632 122.052 250.474 122.149C250.316 122.247 250.189 122.387 250.106 122.553C250.023 122.719 249.987 122.905 250.004 123.09C250.021 123.275 250.089 123.451 250.2 123.6C252.018 126.023 253 128.971 253 132C253 135.029 252.018 137.977 250.2 140.4C250.089 140.549 250.021 140.725 250.004 140.91C249.987 141.095 250.023 141.281 250.106 141.447C250.189 141.613 250.316 141.753 250.474 141.851C250.632 141.948 250.814 142 251 142H261C261.186 142 261.368 141.948 261.526 141.851C261.684 141.753 261.811 141.613 261.894 141.447C261.977 141.281 262.013 141.095 261.996 140.91C261.979 140.725 261.911 140.549 261.8 140.4C259.982 137.977 259 135.029 259 132C259 128.971 259.982 126.023 261.8 123.6C261.911 123.451 261.979 123.275 261.996 123.09C262.013 122.905 261.977 122.719 261.894 122.553C261.811 122.387 261.684 122.247 261.526 122.149C261.368 122.052 261.186 122 261 122H251Z" stroke="black" stroke-width="2" stroke-linecap="round" stroke-linejoin="round"/>
</g></svg>
