<svg viewBox="0 0 24 24" fill="none" xmlns="http://www.w3.org/2000/svg"><g transform="translate(-308 -120)">
<path id="Vector_110" d="M318 123H312C311.448 123 311 123.448 311 124V140C311 140.552 311.448 141 312 141H318C318.552 141 319 140.552 319 140V124C319 123.448 318.552 123 318 123Z" stroke="black" stroke-width="2" stroke-linecap="round" stroke-linejoin="round"/>
<path id="Vector_111" d="M315 123V141" stroke="black" stroke-width="2" stroke-linecap="round" stroke-linejoin="round"/>
<path id="Vector_112" d="M328.4 138.9C328.6 139.4 328.3 140 327.8 140.2L325.9 140.9C325.4 141.1 324.8 140.8 324.6 140.3L319.1 125.1C318.9 124.6 319.2 124 319.7 123.8L321.6 123.1C322.1 122.9 322.7 123.2 322.9 123.7L328.4 138.9Z" stroke="black" stroke-width="2" stroke-linecap="round" stroke-linejoin="round"/>
</g></svg>
