<svg viewBox="0 0 24 24" fill="none" xmlns="http://www.w3.org/2000/svg"><g transform="translate(-148 -88)">
<path id="Vector_96" d="M160 110C165.523 110 170 105.523 170 100C170 94.4772 165.523 90 160 90C154.477 90 150 94.4772 150 100C150 105.523 154.477 110 160 110Z" stroke="black" stroke-width="2" stroke-linecap="round" stroke-linejoin="round"/>
<path id="Vector_97" d="M152.93 92.9301L157.17 97.1701" stroke="black" stroke-width="2" stroke-linecap="round" stroke-linejoin="round"/>
<path id="Vector_98" d="M162.83 97.1701L167.07 92.9301" stroke="black" stroke-width="2" stroke-linecap="round" stroke-linejoin="round"/>
<path id="Vector_99" d="M162.83 102.83L167.07 107.07" stroke="black" stroke-width="2" stroke-linecap="round" stroke-linejoin="round"/>
<path id="Vector_100" d="M157.17 102.83L152.93 107.07" stroke="black" stroke-width="2" stroke-linecap="round" stroke-linejoin="round"/>
<path id="Vector_101" d="M160 104C162.209 104 164 102.209 164 100C164 97.7909 162.209 96 160 96C157.791 96 156 97.7909 156 100C156 102.209 157.791 104 160 104Z" stroke="black" stroke-width="2" stroke-linecap="round" stroke-linejoin="round"/>
</g></svg>
