<svg viewBox="0 0 24 24" fill="none" xmlns="http://www.w3.org/2000/svg"><g transform="translate(-244 -56)">
<path id="Vector_30" d="M260.8 67.2C261.6 66.3 262 65.2 262 64C261.998 62.9178 261.704 61.8563 261.147 60.9279C260.591 59.9995 259.795 59.2388 258.841 58.7263C257.888 58.2139 256.814 57.9688 255.733 58.0169C254.652 58.0651 253.604 58.4048 252.7 59" stroke="black" stroke-width="2" stroke-linecap="round" stroke-linejoin="round"/>
<path id="Vector_31" d="M246 58L266 78" stroke="black" stroke-width="2" stroke-linecap="round" stroke-linejoin="round"/>
<path id="Vector_32" d="M250.3 62.3C249.945 63.1856 249.87 64.1587 250.084 65.0883C250.299 66.018 250.793 66.8597 251.5 67.5C252.2 68.2 252.8 69 253 70" stroke="black" stroke-width="2" stroke-linecap="round" stroke-linejoin="round"/>
<path id="Vector_33" d="M253 74H259" stroke="black" stroke-width="2" stroke-linecap="round" stroke-linejoin="round"/>
<path id="Vector_34" d="M254 78H258" stroke="black" stroke-width="2" stroke-linecap="round" stroke-linejoin="round"/>
</g></svg>
