<svg viewBox="0 0 24 24" fill="none" xmlns="http://www.w3.org/2000/svg"><g transform="translate(-244 -56)">
<g id="Shapes_8">
<path id="Vector_14" d="M262.268 62.7689L257.384 59.9501C256.345 59.35 255.057 59.35 254.023 59.9501L249.138 62.7689C248.104 63.3649 247.458 64.4825 247.458 65.6787V71.3162C247.458 72.5124 248.104 73.6299 249.138 74.2301L254.023 77.0488C254.54 77.3469 255.124 77.5 255.703 77.5C256.283 77.5 256.866 77.351 257.384 77.0488L262.268 74.2301C263.307 73.6299 263.948 72.5165 263.948 71.3162V65.6787C263.948 64.4825 263.303 63.3649 262.268 62.7647V62.7689ZM262.707 71.3203C262.707 72.0736 262.301 72.7773 261.647 73.1581L256.763 75.9768C256.109 76.3535 255.297 76.3535 254.644 75.9768L249.759 73.1581C249.105 72.7814 248.7 72.0778 248.7 71.3203V65.6828C248.7 64.9295 249.105 64.2258 249.759 63.845L254.644 61.0263C254.971 60.8359 255.339 60.7448 255.703 60.7448C256.067 60.7448 256.436 60.84 256.763 61.0263L261.647 63.845C262.301 64.2217 262.707 64.9254 262.707 65.6828V71.3203Z" fill="black" fill-opacity="0.54"/>
<path id="Vector_15" d="M255.704 65.5089C254.052 65.5089 252.711 66.85 252.711 68.5015C252.711 70.153 254.052 71.4941 255.704 71.4941C257.355 71.4941 258.696 70.153 258.696 68.5015C258.696 66.85 257.355 65.5089 255.704 65.5089ZM255.704 70.2523C254.739 70.2523 253.953 69.4659 253.953 68.5015C253.953 67.5371 254.739 66.7506 255.704 66.7506C256.668 66.7506 257.454 67.5371 257.454 68.5015C257.454 69.4659 256.668 70.2523 255.704 70.2523Z" fill="black" fill-opacity="0.54"/>
</g>
</g></svg>
