<svg viewBox="0 0 24 24" fill="none" xmlns="http://www.w3.org/2000/svg"><g transform="translate(-340 -56)">
<path id="Vector_40" d="M349 73H347C345.674 73 344.402 72.4732 343.464 71.5355C342.527 70.5979 342 69.3261 342 68C342 66.6739 342.527 65.4021 343.464 64.4645C344.402 63.5268 345.674 63 347 63" stroke="black" stroke-width="2" stroke-linecap="round" stroke-linejoin="round"/>
<path id="Vector_41" d="M355 63H357C357.929 63 358.839 63.2586 359.629 63.7467C360.419 64.2349 361.057 64.9334 361.472 65.7639C361.887 66.5945 362.063 67.5242 361.98 68.449C361.896 69.3738 361.557 70.2572 361 71" stroke="black" stroke-width="2" stroke-linecap="round" stroke-linejoin="round"/>
<path id="Vector_42" d="M348 68H352" stroke="black" stroke-width="2" stroke-linecap="round" stroke-linejoin="round"/>
<path id="Vector_43" d="M342 58L362 78" stroke="black" stroke-width="2" stroke-linecap="round" stroke-linejoin="round"/>
</g></svg>
