<svg viewBox="0 0 24 24" fill="none" xmlns="http://www.w3.org/2000/svg"><g transform="translate(-308 -56)">
<path id="Vector_37" d="M317 73H315C313.674 73 312.402 72.4732 311.464 71.5355C310.527 70.5979 310 69.3261 310 68C310 66.6739 310.527 65.4021 311.464 64.4645C312.402 63.5268 313.674 63 315 63H317" stroke="black" stroke-width="2" stroke-linecap="round" stroke-linejoin="round"/>
<path id="Vector_38" d="M323 63H325C326.326 63 327.598 63.5268 328.536 64.4645C329.473 65.4021 330 66.6739 330 68C330 69.3261 329.473 70.5979 328.536 71.5355C327.598 72.4732 326.326 73 325 73H323" stroke="black" stroke-width="2" stroke-linecap="round" stroke-linejoin="round"/>
<path id="Vector_39" d="M316 68H324" stroke="black" stroke-width="2" stroke-linecap="round" stroke-linejoin="round"/>
</g></svg>
