<svg viewBox="0 0 24 24" fill="none" xmlns="http://www.w3.org/2000/svg"><g transform="translate(-276 -56)">
<path id="Vector_35" d="M286 69C286.429 69.5741 286.977 70.0491 287.607 70.3929C288.236 70.7367 288.932 70.9411 289.647 70.9923C290.362 71.0435 291.08 70.9403 291.751 70.6897C292.423 70.4392 293.033 70.047 293.54 69.54L296.54 66.54C297.451 65.597 297.955 64.3339 297.943 63.023C297.932 61.712 297.406 60.4579 296.479 59.5309C295.552 58.6038 294.298 58.078 292.987 58.0666C291.676 58.0552 290.413 58.5592 289.47 59.47L287.75 61.18" stroke="black" stroke-width="2" stroke-linecap="round" stroke-linejoin="round"/>
<path id="Vector_36" d="M290 67C289.571 66.4259 289.023 65.9508 288.394 65.607C287.764 65.2633 287.069 65.0589 286.354 65.0076C285.638 64.9564 284.921 65.0596 284.249 65.3102C283.577 65.5608 282.967 65.9529 282.46 66.46L279.46 69.46C278.549 70.403 278.045 71.666 278.057 72.977C278.068 74.288 278.594 75.542 279.521 76.4691C280.448 77.3961 281.702 77.922 283.013 77.9334C284.324 77.9447 285.587 77.4408 286.53 76.53L288.24 74.82" stroke="black" stroke-width="2" stroke-linecap="round" stroke-linejoin="round"/>
</g></svg>
