<svg viewBox="0 0 24 24" fill="none" xmlns="http://www.w3.org/2000/svg"><g transform="translate(-372 -152)">
<path id="Vector_174" d="M393 157H375" stroke="black" stroke-width="2" stroke-linecap="round" stroke-linejoin="round"/>
<path id="Vector_175" d="M382 164H375" stroke="black" stroke-width="2" stroke-linecap="round" stroke-linejoin="round"/>
<path id="Vector_176" d="M382 171H375" stroke="black" stroke-width="2" stroke-linecap="round" stroke-linejoin="round"/>
<path id="Vector_177" d="M387 164.003C386.999 163.826 387.046 163.651 387.135 163.498C387.224 163.344 387.353 163.217 387.507 163.13C387.662 163.042 387.837 162.998 388.014 163C388.192 163.003 388.365 163.052 388.517 163.144L393.514 166.141C393.663 166.23 393.786 166.355 393.872 166.506C393.957 166.657 394.002 166.827 394.002 167C394.002 167.173 393.957 167.343 393.872 167.494C393.786 167.645 393.663 167.77 393.514 167.859L388.517 170.856C388.365 170.948 388.191 170.997 388.014 171C387.836 171.002 387.661 170.958 387.507 170.87C387.352 170.782 387.224 170.655 387.135 170.502C387.046 170.348 386.999 170.174 387 169.996V164.003Z" stroke="black" stroke-width="2" stroke-linecap="round" stroke-linejoin="round"/>
</g></svg>
