<svg viewBox="0 0 24 24" fill="none" xmlns="http://www.w3.org/2000/svg"><g transform="translate(-180 -152)">
<path id="Vector_148" d="M201 157H183" stroke="black" stroke-width="2" stroke-linecap="round" stroke-linejoin="round"/>
<path id="Vector_149" d="M187 164H183" stroke="black" stroke-width="2" stroke-linecap="round" stroke-linejoin="round"/>
<path id="Vector_150" d="M187 171H183" stroke="black" stroke-width="2" stroke-linecap="round" stroke-linejoin="round"/>
<path id="Vector_151" d="M192 170C192.63 170.84 193.507 171.46 194.509 171.773C195.511 172.085 196.586 172.075 197.581 171.743C198.577 171.412 199.443 170.775 200.056 169.924C200.67 169.072 201 168.049 201 167C201 165.807 200.526 164.662 199.682 163.818C198.838 162.974 197.693 162.5 196.5 162.5C195.17 162.5 193.96 163.04 193.09 163.91L191 166" stroke="black" stroke-width="2" stroke-linecap="round" stroke-linejoin="round"/>
<path id="Vector_152" d="M191 162V166H195" stroke="black" stroke-width="2" stroke-linecap="round" stroke-linejoin="round"/>
</g></svg>
