<svg viewBox="0 0 24 24" fill="none" xmlns="http://www.w3.org/2000/svg"><g transform="translate(-52 -88)">
<path id="Vector_24" d="M65.111 95.7854C63.7747 94.4487 62.86 92.1145 62.4061 89.9907C61.9515 92.115 61.0379 94.4496 59.7011 95.7863C58.3648 97.1221 56.0298 98.0366 53.9062 98.4914C56.0306 98.9453 58.3653 99.8593 59.7015 101.196C61.0378 102.532 61.9525 104.867 62.4071 106.991C62.861 104.866 63.7753 102.532 65.1114 101.195C66.4477 99.8589 68.7827 98.9448 70.9062 98.49C68.7823 98.0361 66.4477 97.1216 65.111 95.7854Z" fill="black" fill-opacity="0.56"/>
<path id="Vector_25" d="M69.9997 102C69.7857 102.999 69.356 104.099 68.7271 104.727C68.0983 105.356 66.9993 105.786 66 106C66.9993 106.215 68.0983 106.644 68.7271 107.273C69.356 107.902 69.7865 109 70.0005 110C70.2143 109 70.6442 107.902 71.2733 107.273C71.9017 106.644 73.0009 106.214 74 105.999C73.001 105.786 71.9017 105.356 71.2729 104.727C70.6442 104.099 70.2135 102.999 69.9997 102Z" fill="black" fill-opacity="0.56"/>
</g></svg>
