<svg viewBox="0 0 24 24" fill="none" xmlns="http://www.w3.org/2000/svg">
  <g transform="translate(2.4 2.4) scale(1.2)">
    <path d="M10.8195 6.0672C13.4837 6.06762 15.6437 8.22799 15.6438 10.8923C15.6437 11.9605 15.295 12.947 14.7072 13.7463L16.4526 15.4918C16.7381 15.7772 16.7379 16.2399 16.4526 16.5254C16.1672 16.8108 15.7044 16.8109 15.419 16.5254L13.6735 14.78C12.8742 15.3678 11.8877 15.7165 10.8195 15.7166C8.15505 15.7166 5.99473 13.5566 5.9944 10.8923C5.99449 8.22773 8.15491 6.0672 10.8195 6.0672ZM5.48541 8.77207C5.31011 9.2337 5.19318 9.72382 5.14417 10.2341H2.19302C1.7893 10.2341 1.46201 10.5614 1.46201 10.9651V13.8891C1.46201 14.2928 1.7893 14.6201 2.19302 14.6201H6.61618C7.20846 15.2627 7.94731 15.7674 8.77993 16.0821H2.19302C0.981848 16.0821 0 15.1003 0 13.8891V10.9651C0 9.75391 0.981848 8.77207 2.19302 8.77207H5.48541ZM10.8195 7.52921C8.96235 7.52921 7.45651 9.03518 7.45641 10.8923C7.45674 12.7492 8.9625 14.2546 10.8195 14.2546C11.7249 14.2544 12.5458 13.8951 13.1503 13.313C13.1638 13.297 13.178 13.281 13.1931 13.2659C13.2082 13.2509 13.2242 13.2365 13.2402 13.2231C13.8223 12.6186 14.1817 11.7976 14.1818 10.8923C14.1817 9.03544 12.6762 7.52964 10.8195 7.52921ZM3.66217 11.6961C4.0659 11.6961 4.39318 12.0234 4.39318 12.4271C4.39318 12.8308 4.0659 13.1581 3.66217 13.1581H3.65503C3.25131 13.1581 2.92403 12.8308 2.92403 12.4271C2.92403 12.0234 3.25131 11.6961 3.65503 11.6961H3.66217ZM13.8891 0C15.1003 0 16.0821 0.981847 16.0821 2.19302V5.11704C16.0821 5.92137 15.6477 6.62215 15.0021 7.0038C14.5906 6.54463 14.1055 6.15348 13.565 5.84804H13.8891C14.2929 5.84804 14.6201 5.52076 14.6201 5.11704V2.19302C14.6201 1.78929 14.2929 1.46201 13.8891 1.46201H2.19302C1.7893 1.46201 1.46201 1.78929 1.46201 2.19302V5.11704C1.46201 5.52076 1.7893 5.84804 2.19302 5.84804H7.99967C7.34281 6.21927 6.76815 6.71767 6.30779 7.31006H2.19302C0.981848 7.31006 0 6.32821 0 5.11704V2.19302C0 0.981847 0.981848 0 2.19302 0H13.8891ZM3.66217 2.92402C4.0659 2.92402 4.39318 3.2513 4.39318 3.65503C4.39318 4.05875 4.0659 4.38603 3.66217 4.38603H3.65503C3.25131 4.38603 2.92403 4.05875 2.92403 3.65503C2.92403 3.2513 3.25131 2.92402 3.65503 2.92402H3.66217Z" fill="currentColor"/>
  </g>
</svg>
