<svg viewBox="0 0 24 24" fill="none" xmlns="http://www.w3.org/2000/svg">
  <g transform="translate(1.548 3.024) scale(1.2)">
    <path d="M15.5536 12.1166C16.4722 13.4507 17.143 14.1139 18.3333 14.9128V14.9528C17.2869 15.6558 16.584 16.2629 15.5536 17.7645H15.5135C14.6268 16.4544 13.9553 15.7916 12.741 14.9528V14.9128C13.9953 14.058 14.6507 13.3949 15.5135 12.1166H15.5536ZM15.5372 13.0114C14.8342 13.938 14.3388 14.4172 13.6039 14.9365C14.3229 15.4477 14.8022 15.9036 15.5372 16.8543C16.2322 15.9195 16.7514 15.4318 17.4705 14.9365C16.7036 14.3933 16.1763 13.9061 15.5372 13.0114ZM8.63602 0C11.0859 3.55771 12.8754 5.32601 16.0496 7.45639V7.56289C13.2588 9.43764 11.3842 11.0569 8.63602 15.0621H8.52952C6.16478 11.5682 4.37505 9.7998 1.13684 7.56289V7.45639C4.48157 5.17687 6.22869 3.40864 8.52952 0H8.63602ZM8.59324 2.38565C6.71855 4.85682 5.39769 6.1354 3.43784 7.52011C5.35519 8.88356 6.63328 10.0985 8.59324 12.6336C10.4467 10.1411 11.8313 8.84095 13.7486 7.52011C11.7036 6.07149 10.2975 4.77161 8.59324 2.38565ZM2.23364 1.49182H3.7282V2.23364H2.23364V3.7282H1.49182V2.23364H0V1.49182H1.49182V0H2.23364V1.49182Z" fill="currentColor"/>
  </g>
</svg>
