<svg viewBox="0 0 24 24" fill="none" xmlns="http://www.w3.org/2000/svg"><g transform="translate(-20 -56)">
<g id="Shapes">
<path id="Vector" d="M39.8741 65.752C39.8741 66.0443 40.11 66.2802 40.4022 66.2802C40.6945 66.2802 40.9304 66.0443 40.9304 65.752V62.4987C40.9304 62.453 40.9233 62.4072 40.9127 62.3614C40.9127 62.3473 40.9022 62.3368 40.8987 62.3262C40.8881 62.2945 40.874 62.2628 40.8564 62.2311C40.8494 62.2171 40.8388 62.203 40.8282 62.1889C40.8106 62.1643 40.793 62.1431 40.7684 62.122C40.7543 62.1079 40.7402 62.0974 40.7261 62.0868C40.7156 62.0798 40.7085 62.0692 40.698 62.0621C40.6839 62.0516 40.6663 62.0481 40.6522 62.0375C40.6416 62.0305 40.6346 62.0234 40.624 62.0199L31.6458 57.9498C31.512 57.8899 31.3606 57.8864 31.2268 57.9427L22.2556 61.6608C22.2556 61.6608 22.2345 61.6749 22.224 61.6784C22.2064 61.6889 22.1852 61.6925 22.1676 61.7065C22.1571 61.7136 22.15 61.7206 22.143 61.7277C22.1289 61.7382 22.1148 61.7523 22.1007 61.7629C22.0796 61.784 22.0585 61.8051 22.0409 61.8262C22.0303 61.8403 22.0197 61.8544 22.0092 61.872C21.9916 61.8967 21.981 61.9248 21.9705 61.953C21.9634 61.9671 21.9564 61.9847 21.9528 61.9988C21.9423 62.0375 21.9352 62.0762 21.9352 62.115C21.9352 62.122 21.9352 62.129 21.9317 62.1361V72.1389C21.9282 72.3466 22.0373 72.5262 22.2134 72.6177L31.2761 77.3392C31.2761 77.3392 31.2867 77.3392 31.2902 77.3463C31.3148 77.3603 31.343 77.3674 31.3712 77.3779C31.3817 77.3779 31.3923 77.385 31.4029 77.3885C31.4416 77.3955 31.4803 77.4026 31.5191 77.4026C31.5648 77.4026 31.6071 77.3955 31.6458 77.385C31.6564 77.385 31.6669 77.3779 31.6775 77.3744C31.7127 77.3639 31.7444 77.3498 31.7761 77.3322C31.7831 77.3322 31.7866 77.3286 31.7937 77.3251C31.7937 77.3251 31.7972 77.3216 31.8007 77.3181C31.8359 77.297 31.8676 77.2723 31.8958 77.2406C31.8993 77.2371 31.9028 77.2301 31.9064 77.2265C31.931 77.2019 31.9486 77.1737 31.9662 77.1456C31.9733 77.135 31.9768 77.1244 31.9838 77.1139C31.9979 77.0857 32.0085 77.0575 32.019 77.0294C32.019 77.0188 32.0261 77.0082 32.0296 76.9977C32.0401 76.959 32.0472 76.9167 32.0472 76.8745V66.502L39.8741 63.2945V65.7591V65.752ZM31.4205 59.0096L39.0713 62.4776L31.5296 65.5689L30.0297 64.907L23.8013 62.1643L31.4205 59.0096ZM22.9845 62.9564L27.1004 64.7697L30.9909 66.4844V75.9978L22.9845 71.829V62.9564Z" fill="black" fill-opacity="0.54"/>
<path id="Vector_2" d="M41.3635 71.1636H38.4235V68.2237C38.4235 67.8364 38.1067 67.5195 37.7194 67.5195C37.3321 67.5195 37.0152 67.8364 37.0152 68.2237V71.1636H34.0753C33.688 71.1636 33.3711 71.4805 33.3711 71.8678C33.3711 72.2551 33.688 72.572 34.0753 72.572H37.0152V75.5119C37.0152 75.8992 37.3321 76.2161 37.7194 76.2161C38.1067 76.2161 38.4235 75.8992 38.4235 75.5119V72.572H41.3635C41.7508 72.572 42.0676 72.2551 42.0676 71.8678C42.0676 71.4805 41.7508 71.1636 41.3635 71.1636Z" fill="black" fill-opacity="0.54"/>
</g>
</g></svg>
