<svg viewBox="0 0 24 24" fill="none" xmlns="http://www.w3.org/2000/svg"><g transform="translate(-276 -56)">
<g id="Shapes_9">
<path id="Vector_16" d="M288.5 59.5C283.539 59.5 279.5 63.5386 279.5 68.5C279.5 73.4614 283.539 77.5 288.5 77.5C293.461 77.5 297.5 73.4614 297.5 68.5C297.5 63.5386 293.466 59.5 288.5 59.5ZM288.5 76.1279C284.294 76.1279 280.876 72.706 280.876 68.5C280.876 64.294 284.298 60.8761 288.5 60.8761C292.702 60.8761 296.128 64.2981 296.128 68.5041C296.128 72.7101 292.706 76.132 288.5 76.132V76.1279Z" fill="black" fill-opacity="0.54"/>
<path id="Vector_17" d="M291.069 65.9315C290.828 65.6906 290.44 65.6906 290.203 65.9315L288.5 67.6344L286.797 65.9315C286.556 65.6906 286.169 65.6906 285.932 65.9315C285.691 66.1725 285.691 66.5604 285.932 66.7972L287.634 68.5001L285.932 70.2029C285.691 70.4438 285.691 70.8317 285.932 71.0686C286.05 71.187 286.209 71.2482 286.365 71.2482C286.52 71.2482 286.679 71.187 286.797 71.0686L288.5 69.3658L290.203 71.0686C290.321 71.187 290.481 71.2482 290.636 71.2482C290.791 71.2482 290.95 71.187 291.069 71.0686C291.31 70.8276 291.31 70.4397 291.069 70.2029L289.366 68.5001L291.069 66.7972C291.31 66.5563 291.31 66.1684 291.069 65.9315Z" fill="black" fill-opacity="0.54"/>
</g>
</g></svg>
