<svg viewBox="0 0 24 24" fill="none" xmlns="http://www.w3.org/2000/svg"><g transform="translate(-212 -56)">
<g id="Shapes_7">
<path id="Vector_13" d="M230.274 59H217.722C216.22 59 215 60.2199 215 61.7223V74.2777C215 75.7801 216.22 77 217.722 77H230.274C231.776 77 232.996 75.7801 232.996 74.2777V61.7223C232.996 60.2199 231.776 59 230.274 59ZM231.768 61.7223V63.9698H224.612V60.2281H230.274C231.096 60.2281 231.768 60.8995 231.768 61.7223ZM217.722 60.2281H223.384V63.9698H216.228V61.7223C216.228 60.8995 216.899 60.2281 217.722 60.2281ZM230.274 75.7678H217.722C216.899 75.7678 216.228 75.0964 216.228 74.2736V65.1979H231.768V74.2777C231.768 75.1005 231.096 75.7719 230.274 75.7719V75.7678Z" fill="black" fill-opacity="0.54"/>
</g>
</g></svg>
