<svg viewBox="0 0 24 24" fill="none" xmlns="http://www.w3.org/2000/svg"><g transform="translate(-116 -88)">
<path id="Union_3" fill-rule="evenodd" clip-rule="evenodd" d="M127.356 90C126.975 90 126.667 90.3088 126.667 90.6897C126.667 91.0705 126.975 91.3793 127.356 91.3793H134.713C135.347 91.3793 135.862 91.8939 135.862 92.5287V101.724C135.862 102.105 136.171 102.414 136.552 102.414C136.933 102.414 137.241 102.105 137.241 101.724V92.5287C137.241 91.1322 136.109 90 134.713 90H127.356ZM122.989 93.4483C122.989 93.0674 123.297 92.7586 123.678 92.7586H131.954C133.351 92.7586 134.483 93.8908 134.483 95.2874V105.402C134.483 105.783 134.174 106.092 133.793 106.092C133.412 106.092 133.103 105.783 133.103 105.402V95.2874C133.103 94.6525 132.589 94.1379 131.954 94.1379H123.678C123.297 94.1379 122.989 93.8292 122.989 93.4483ZM120 97.1264C120 96.1107 120.823 95.2874 121.839 95.2874H130.115C131.131 95.2874 131.954 96.1107 131.954 97.1264V108.161C131.954 109.177 131.131 110 130.115 110H121.839C120.823 110 120 109.177 120 108.161V97.1264Z" fill="black" fill-opacity="0.54"/>
</g></svg>
