<svg viewBox="0 0 24 24" fill="none" xmlns="http://www.w3.org/2000/svg"><g transform="translate(-84 -56)">
<g id="Shapes_3">
<g id="Group_2">
<path id="Vector_5" d="M95.9506 68.4868C96.2718 68.4868 96.5346 68.224 96.5346 67.9029V63.6632L97.6617 64.7786C97.7755 64.8924 97.9245 64.9479 98.0734 64.9479C98.2223 64.9479 98.3741 64.8895 98.488 64.7756C98.7158 64.545 98.7128 64.1771 98.4822 63.9493L96.3594 61.8499C96.3594 61.8499 96.3419 61.8353 96.3331 61.8295C96.3244 61.8207 96.3127 61.812 96.301 61.8061C96.2601 61.7769 96.2192 61.7506 96.1754 61.7302C96.1754 61.7302 96.1725 61.7302 96.1696 61.7273C96.1229 61.7068 96.0703 61.6981 96.0207 61.6893C96.009 61.6893 95.9973 61.6893 95.9827 61.6864C95.9331 61.6835 95.8805 61.6864 95.8338 61.6952C95.7842 61.7039 95.7375 61.7244 95.6937 61.7448C95.682 61.7506 95.6732 61.7565 95.6615 61.7623C95.6177 61.7886 95.5739 61.8178 95.536 61.8558L93.4366 63.9785C93.2088 64.2092 93.2118 64.5771 93.4424 64.8048C93.6731 65.0326 94.041 65.0297 94.2688 64.799L95.3666 63.6865V67.9029C95.3666 68.224 95.6294 68.4868 95.9506 68.4868Z" fill="black" fill-opacity="0.54"/>
<path id="Vector_6" d="M89.8945 57.584H101.857C102.018 57.584 102.149 57.4526 102.149 57.292C102.149 57.1314 102.018 57 101.857 57H89.8945C89.7339 57 89.6025 57.1314 89.6025 57.292C89.6025 57.4526 89.7339 57.584 89.8945 57.584Z" fill="black" fill-opacity="0.54"/>
<path id="Vector_7" d="M89.7637 60.3462H98.8066C98.9672 60.3462 99.0986 60.2148 99.0986 60.0542C99.0986 59.8936 98.9672 59.7622 98.8066 59.7622H89.7637C89.6031 59.7622 89.4717 59.8936 89.4717 60.0542C89.4717 60.2148 89.6031 60.3462 89.7637 60.3462Z" fill="black" fill-opacity="0.54"/>
<path id="Vector_8" d="M103.741 67.5409C103.741 67.5409 103.732 67.5204 103.729 67.5088C103.721 67.4825 103.709 67.4562 103.694 67.4328C103.689 67.4212 103.68 67.4095 103.671 67.3978C103.656 67.3774 103.642 67.3569 103.621 67.3394C103.61 67.3277 103.598 67.319 103.586 67.3102C103.578 67.3044 103.572 67.2956 103.56 67.2898C103.548 67.281 103.534 67.2781 103.519 67.2693C103.51 67.2635 103.505 67.2576 103.496 67.2547L99.8635 65.6079C99.6445 65.5086 99.3847 65.6079 99.2825 65.8269C99.1832 66.0459 99.2825 66.3058 99.5015 66.408L102.208 67.6343L97.8546 69.4184L95.9538 70.198L89.5446 67.3744L92.2952 66.2357C92.5171 66.1422 92.6251 65.8882 92.5317 65.6634C92.4382 65.4415 92.1842 65.3334 91.9594 65.4269L88.2686 66.9569C88.2686 66.9569 88.2511 66.9686 88.2424 66.9715C88.2278 66.9803 88.2102 66.9832 88.1956 66.9949C88.1869 67.0007 88.181 67.0065 88.1752 67.0124C88.1635 67.0211 88.1518 67.0328 88.1402 67.0416C88.1226 67.0591 88.1051 67.0766 88.0905 67.0941C88.0818 67.1058 88.073 67.1175 88.0642 67.1321C88.0496 67.1525 88.0409 67.1759 88.0321 67.1992C88.0263 67.2109 88.0204 67.2255 88.0175 67.2372C88.0088 67.2693 88.0029 67.3014 88.0029 67.3336C88.0029 67.3394 88.0029 67.3452 88 67.3511V75.6465C88 75.81 88.0905 75.9589 88.2365 76.0348L95.7523 79.9504C95.7728 79.9592 95.7903 79.965 95.8107 79.9738C95.8224 79.9767 95.8312 79.9825 95.8428 79.9855C95.8779 79.9942 95.9158 80.0001 95.9538 80.0001C95.9917 80.0001 96.0268 79.9942 96.0647 79.9855C96.0764 79.9825 96.0852 79.9767 96.0969 79.9738C96.1173 79.9679 96.1377 79.9621 96.1553 79.9504L103.522 76.1137C103.668 76.0378 103.759 75.8889 103.759 75.7253V67.646C103.759 67.608 103.753 67.5701 103.744 67.5321L103.741 67.5409ZM88.873 68.0343L95.5129 70.9601V78.8496L88.873 75.3895V68.0314V68.0343ZM102.88 75.4713L96.3889 78.8525V70.9717L102.88 68.3117V75.4742V75.4713Z" fill="black" fill-opacity="0.54"/>
</g>
</g>
</g></svg>
