<svg viewBox="0 0 24 24" fill="none" xmlns="http://www.w3.org/2000/svg"><g transform="translate(-180 -56)">
<g id="Shapes_6">
<path id="Union" d="M194.605 59.0034C194.773 58.9952 194.942 59.0564 195.064 59.1792L200.815 64.9312C200.938 65.0499 200.992 65.2098 200.992 65.3735H201V74.2729C201 75.7753 199.78 76.9956 198.277 76.9956H185.723C184.22 76.9956 183 75.7753 183 74.2729V61.7222C183 60.2198 184.22 58.9995 185.723 58.9995L194.605 59.0034ZM185.723 60.228C184.9 60.228 184.229 60.8993 184.229 61.7222V74.2729C184.229 75.0958 184.9 75.7671 185.723 75.7671H198.277V75.771C199.1 75.771 199.771 75.0997 199.771 74.2769V65.979H196.079C194.945 65.9789 194.021 65.0542 194.021 63.9204V60.228H185.723ZM191.99 72.0171C192.215 72.0173 192.399 72.2023 192.399 72.4272C192.399 72.6521 192.215 72.8362 191.99 72.8364H187.499C187.274 72.8364 187.09 72.6522 187.09 72.4272C187.09 72.2021 187.274 72.0171 187.499 72.0171H191.99ZM196.268 68.145C196.493 68.145 196.677 68.329 196.677 68.5542C196.677 68.7794 196.493 68.9634 196.268 68.9634H187.684C187.458 68.9634 187.273 68.7794 187.273 68.5542C187.273 68.329 187.458 68.145 187.684 68.145H196.268ZM195.244 63.9165C195.244 64.3748 195.617 64.7465 196.075 64.7466H198.9L195.248 61.0952L195.244 61.0913V63.9165Z" fill="black" fill-opacity="0.54"/>
</g>
</g></svg>
