<svg viewBox="0 0 24 24" fill="none" xmlns="http://www.w3.org/2000/svg"><g transform="translate(-148 -56)">
<g id="Shapes_5">
<path id="Vector_12" d="M161.516 61.2891H164.283C164.44 62.651 165.598 63.7124 167 63.7124C168.509 63.7124 169.737 62.4841 169.737 60.9754C169.737 59.4666 168.512 58.2383 167.004 58.2383C165.732 58.2383 164.664 59.1128 164.357 60.2878H161.516C159.864 60.2878 158.522 61.6296 158.522 63.2818V67.531H155.668C155.444 66.2459 154.323 65.2646 152.974 65.2646C151.466 65.2646 150.237 66.4929 150.237 68.0016C150.237 69.5104 151.466 70.7387 152.974 70.7387C154.303 70.7387 155.411 69.7874 155.658 68.5324H158.519V72.2842C158.519 73.9364 159.86 75.2783 161.513 75.2783H164.273C164.403 76.6668 165.575 77.7617 166.997 77.7617C168.506 77.7617 169.734 76.5333 169.734 75.0246C169.734 73.5158 168.506 72.2875 166.997 72.2875C165.745 72.2875 164.69 73.132 164.363 74.2802H161.509C160.411 74.2802 159.517 73.3857 159.517 72.2875V68.5357H164.31C164.56 69.7908 165.668 70.7387 166.994 70.7387C168.502 70.7387 169.731 69.5104 169.731 68.0016C169.731 66.4929 168.502 65.2646 166.994 65.2646C165.645 65.2646 164.52 66.2459 164.3 67.5343H159.517V63.2852C159.517 62.187 160.411 61.2925 161.509 61.2925L161.516 61.2891ZM167.004 59.2397C167.962 59.2397 168.739 60.0174 168.739 60.9754C168.739 61.9333 167.962 62.7111 167.004 62.7111C166.046 62.7111 165.268 61.9333 165.268 60.9754C165.268 60.0174 166.046 59.2397 167.004 59.2397ZM152.974 69.7373C152.016 69.7373 151.239 68.9596 151.239 68.0016C151.239 67.0437 152.016 66.2659 152.974 66.2659C153.932 66.2659 154.71 67.0437 154.71 68.0016C154.71 68.9596 153.932 69.7373 152.974 69.7373ZM167.004 73.2855C167.962 73.2855 168.739 74.0633 168.739 75.0212C168.739 75.9792 167.962 76.7569 167.004 76.7569C166.046 76.7569 165.268 75.9792 165.268 75.0212C165.268 74.0633 166.046 73.2855 167.004 73.2855ZM167.004 66.2626C167.962 66.2626 168.739 67.0403 168.739 67.9983C168.739 68.9563 167.962 69.734 167.004 69.734C166.046 69.734 165.268 68.9563 165.268 67.9983C165.268 67.0403 166.046 66.2626 167.004 66.2626Z" fill="black" fill-opacity="0.54"/>
</g>
</g></svg>
