<svg viewBox="0 0 24 24" fill="none" xmlns="http://www.w3.org/2000/svg"><g transform="translate(-20 -120)">
<path id="Vector_28" d="M34.4971 139.36C34.4964 139.533 34.4273 139.699 34.3049 139.821C34.1826 139.944 34.0168 140.013 33.8437 140.013H23.6534C23.4803 140.013 23.3146 139.944 23.1922 139.821C23.0698 139.699 23.0007 139.533 23 139.36V138.173C23.0007 138 23.0698 137.834 23.1922 137.712C23.3146 137.589 23.4803 137.52 23.6534 137.519H33.8437C34.0169 137.52 34.1829 137.589 34.3053 137.711C34.4278 137.834 34.4967 138 34.4971 138.173V139.36ZM30.6909 135.801C30.5906 135.801 30.4914 135.782 30.3988 135.743C30.3063 135.705 30.2223 135.648 30.1516 135.577L25.7539 131.181C25.6109 131.038 25.5306 130.844 25.5306 130.642C25.5306 130.439 25.6109 130.245 25.7539 130.102C25.8969 129.959 26.0909 129.879 26.2931 129.879C26.4954 129.879 26.6894 129.959 26.8324 130.102L31.2287 134.501C31.3355 134.608 31.4081 134.744 31.4376 134.892C31.4671 135.04 31.452 135.193 31.3942 135.332C31.3365 135.472 31.2387 135.591 31.1133 135.675C30.9878 135.758 30.8403 135.803 30.6895 135.803L30.6909 135.801ZM40.7739 137.166L34.6608 131.052L36.1533 129.561L31.7886 125.196L27.7031 129.281L32.0678 133.645L33.5837 132.13L39.6982 138.244C39.769 138.315 39.8531 138.371 39.9456 138.41C40.0381 138.448 40.1373 138.468 40.2374 138.468C40.3376 138.468 40.4367 138.448 40.5292 138.41C40.6218 138.371 40.7058 138.315 40.7766 138.244C40.8475 138.174 40.9036 138.089 40.9419 137.997C40.9803 137.904 41 137.805 41 137.705C41 137.605 40.9803 137.506 40.9419 137.413C40.9036 137.321 40.8475 137.237 40.7766 137.166H40.7739ZM37.5688 128.922C37.4689 128.922 37.3699 128.903 37.2777 128.864C37.1854 128.826 37.1015 128.77 37.0309 128.699L32.6318 124.302C32.561 124.231 32.5048 124.147 32.4665 124.054C32.4282 123.962 32.4085 123.863 32.4085 123.763C32.4085 123.662 32.4282 123.563 32.4665 123.471C32.5048 123.378 32.561 123.294 32.6318 123.223C32.7026 123.153 32.7867 123.096 32.8792 123.058C32.9717 123.02 33.0709 123 33.1711 123C33.2712 123 33.3704 123.02 33.4629 123.058C33.5554 123.096 33.6395 123.153 33.7103 123.223L38.1066 127.621C38.2133 127.727 38.2859 127.863 38.3155 128.011C38.345 128.159 38.33 128.312 38.2724 128.451C38.2149 128.591 38.1173 128.71 37.992 128.793C37.8668 128.877 37.7195 128.922 37.5688 128.922Z" fill="black" fill-opacity="0.54"/>
</g></svg>
