<svg viewBox="0 0 24 24" fill="none" xmlns="http://www.w3.org/2000/svg"><g transform="translate(-244 -88)">
<g id="Shape_2">
<path d="M262.961 98.5708C262.679 95.4841 260 92.4363 256.216 92.4363C252.475 92.4363 249.436 95.4798 249.436 99.2159C249.436 101.887 251.029 104.324 253.445 105.407V106.099H253.437C253.099 106.099 252.826 106.372 252.826 106.71C252.826 107.047 253.099 107.32 253.437 107.32H253.445V108.034H253.437C253.099 108.034 252.826 108.307 252.826 108.645C252.826 108.983 253.099 109.255 253.437 109.255H253.644C254.051 110.277 255.047 111 256.212 111C257.376 111 258.372 110.277 258.779 109.255H258.991C259.329 109.255 259.601 108.983 259.601 108.645C259.601 108.307 259.329 108.034 258.991 108.034H258.978V107.32H258.991C259.329 107.32 259.601 107.047 259.601 106.71C259.601 106.372 259.329 106.099 258.991 106.099H258.978V105.407C261.61 104.229 263.234 101.48 262.961 98.5708ZM258.155 104.424C257.917 104.515 257.757 104.74 257.757 104.995V108.229C257.757 109.082 257.064 109.775 256.212 109.775C255.359 109.775 254.666 109.082 254.666 108.229V104.995C254.666 104.74 254.506 104.511 254.268 104.424C252.107 103.619 250.653 101.523 250.653 99.2159C250.653 96.1508 253.146 93.6572 256.212 93.6572C259.168 93.6572 261.511 96.1551 261.744 98.6834C261.982 101.19 260.506 103.549 258.155 104.424Z" fill="black" fill-opacity="0.54"/>
<path d="M259.293 96.9678C259.055 96.7253 258.67 96.7253 258.432 96.9634L255.237 100.158L253.981 98.9029C253.743 98.6648 253.358 98.6648 253.116 98.9029C252.878 99.141 252.878 99.5263 253.116 99.7688L254.804 101.457C254.925 101.578 255.081 101.635 255.237 101.635C255.393 101.635 255.549 101.574 255.67 101.457L259.293 97.8336C259.532 97.5955 259.532 97.2102 259.293 96.9678Z" fill="black" fill-opacity="0.54"/>
<path d="M247.866 98.6002H246.61C246.273 98.6002 246 98.8729 246 99.2106C246 99.5483 246.273 99.821 246.61 99.821H247.866C248.204 99.821 248.476 99.5483 248.476 99.2106C248.476 98.8729 248.204 98.6002 247.866 98.6002Z" fill="black" fill-opacity="0.54"/>
<path d="M265.81 98.6002H264.554C264.217 98.6002 263.944 98.8729 263.944 99.2106C263.944 99.5483 264.217 99.821 264.554 99.821H265.81C266.148 99.821 266.42 99.5483 266.42 99.2106C266.42 98.8729 266.148 98.6002 265.81 98.6002Z" fill="black" fill-opacity="0.54"/>
<path d="M256.211 89C255.873 89 255.6 89.2727 255.6 89.6104V90.8659C255.6 91.2036 255.873 91.4763 256.211 91.4763C256.548 91.4763 256.821 91.2036 256.821 90.8659V89.6104C256.821 89.2727 256.548 89 256.211 89Z" fill="black" fill-opacity="0.54"/>
<path d="M250.745 92.8796L249.858 91.9921C249.62 91.754 249.234 91.754 248.992 91.9921C248.754 92.2302 248.754 92.6155 248.992 92.8579L249.88 93.7454C250.122 93.9835 250.507 93.9835 250.745 93.7454C250.984 93.5073 250.984 93.122 250.745 92.8796Z" fill="black" fill-opacity="0.54"/>
<path d="M263.423 91.9883C263.185 91.7545 262.8 91.7545 262.562 91.9926L261.674 92.8801C261.436 93.1182 261.436 93.5035 261.674 93.7459C261.912 93.984 262.298 93.984 262.54 93.7459L263.423 92.8541C263.661 92.616 263.661 92.2307 263.423 91.9883Z" fill="black" fill-opacity="0.54"/>
</g>
</g></svg>
