<svg viewBox="0 0 24 24" fill="none" xmlns="http://www.w3.org/2000/svg"><g transform="translate(-148 -88)">
<path id="Shape" fill-rule="evenodd" clip-rule="evenodd" d="M159.97 90.2197C160.263 89.9268 160.737 89.9268 161.03 90.2197L163.655 92.8447C163.948 93.1376 163.948 93.6124 163.655 93.9053C163.362 94.1982 162.888 94.1982 162.595 93.9053L161.25 92.5607V99.75H168.439L167.095 98.4053C166.802 98.1124 166.802 97.6376 167.095 97.3447C167.388 97.0518 167.862 97.0518 168.155 97.3447L170.78 99.9697C171.073 100.263 171.073 100.737 170.78 101.03L168.155 103.655C167.862 103.948 167.388 103.948 167.095 103.655C166.802 103.362 166.802 102.888 167.095 102.595L168.439 101.25H161.25V108.439L162.595 107.095C162.888 106.802 163.362 106.802 163.655 107.095C163.948 107.388 163.948 107.862 163.655 108.155L161.03 110.78C160.737 111.073 160.263 111.073 159.97 110.78L157.345 108.155C157.052 107.862 157.052 107.388 157.345 107.095C157.638 106.802 158.112 106.802 158.405 107.095L159.75 108.439V101.25H152.561L153.905 102.595C154.198 102.888 154.198 103.362 153.905 103.655C153.612 103.948 153.138 103.948 152.845 103.655L150.22 101.03C149.927 100.737 149.927 100.263 150.22 99.9697L152.845 97.3447C153.138 97.0518 153.612 97.0518 153.905 97.3447C154.198 97.6376 154.198 98.1124 153.905 98.4053L152.561 99.75H159.75V92.5607L158.405 93.9053C158.112 94.1982 157.638 94.1982 157.345 93.9053C157.052 93.6124 157.052 93.1376 157.345 92.8447L159.97 90.2197Z" fill="black" fill-opacity="0.54"/>
</g></svg>
