<svg viewBox="0 0 24 24" fill="none" xmlns="http://www.w3.org/2000/svg"><g transform="translate(-52 -56)">
<g id="Shapes_2">
<g id="Group">
<path id="Vector_3" d="M65.4114 75.6763L63.4544 76.6948V66.8771L72.29 63.2541C72.3373 63.2359 72.3773 63.2104 72.4137 63.1813C72.4246 63.1741 72.4319 63.1668 72.4392 63.1595C72.4719 63.1304 72.501 63.0977 72.5265 63.0649C72.5265 63.0649 72.5301 63.0577 72.5337 63.0577C72.5592 63.0176 72.5774 62.9776 72.5956 62.934C72.5992 62.9231 72.6029 62.9122 72.6065 62.9012C72.621 62.8576 72.6283 62.8103 72.6283 62.763C72.6283 62.7157 72.621 62.6684 72.6101 62.6211C72.6101 62.6102 72.6029 62.5957 72.5992 62.5848C72.5956 62.5702 72.5919 62.5593 72.5883 62.5448C72.5774 62.5193 72.5665 62.5011 72.5519 62.4793C72.5483 62.472 72.5447 62.4647 72.541 62.4575C72.5156 62.4174 72.4865 62.3847 72.4501 62.352C72.4428 62.3447 72.4355 62.3374 72.4246 62.3338C72.3919 62.3083 72.3555 62.2829 72.3191 62.2647C72.3155 62.2647 72.3118 62.2574 72.3046 62.2574L63.0361 58.0487C62.8979 57.9869 62.7414 57.9833 62.6032 58.0415L53.3347 61.8827C53.3347 61.8827 53.3129 61.8973 53.302 61.9009C53.2838 61.9118 53.262 61.9155 53.2438 61.93C53.2329 61.9373 53.2256 61.9446 53.2183 61.9518C53.2038 61.9628 53.1892 61.9773 53.1747 61.9882C53.1529 62.01 53.131 62.0319 53.1128 62.0537C53.1019 62.0682 53.091 62.0828 53.0801 62.101C53.0619 62.1264 53.051 62.1555 53.0401 62.1846C53.0328 62.1992 53.0255 62.2174 53.0219 62.2319C53.011 62.2719 53.0037 62.312 53.0037 62.352C53.0037 62.3592 53.0037 62.3665 53.0001 62.3738V72.7081C52.9964 72.9227 53.1092 73.1082 53.2911 73.2028L62.6541 78.0807C62.676 78.0917 62.7014 78.0989 62.7269 78.1062C62.7414 78.1098 62.756 78.1171 62.7705 78.1208C62.8142 78.1317 62.8615 78.1389 62.9088 78.1389C62.9561 78.1389 62.9997 78.1317 63.047 78.1208C63.0616 78.1171 63.0761 78.1098 63.0907 78.1062C63.1161 78.0989 63.1416 78.0917 63.1634 78.0807L65.9207 76.6439C66.1862 76.5057 66.2917 76.1747 66.1535 75.9091C66.0152 75.6436 65.6842 75.5381 65.4187 75.6763H65.4114ZM62.8033 59.1436L70.7077 62.7266L62.9161 65.9204L61.4392 65.2693L54.9316 62.4029L62.8033 59.1436ZM54.0877 63.2213L58.1654 65.0183L62.3595 66.8662V76.6948L54.0877 72.388V63.2213Z" fill="black" fill-opacity="0.54"/>
<path id="Vector_4" d="M74.9923 68.8268C74.9923 68.8268 74.985 68.8086 74.9814 68.8014C74.9741 68.7795 74.9632 68.7577 74.9523 68.7395C74.945 68.7286 74.9377 68.7213 74.9305 68.7104C74.9196 68.6922 74.905 68.6777 74.8905 68.6631C74.8832 68.6559 74.8723 68.6449 74.8614 68.6377C74.8541 68.6304 74.8468 68.6231 74.8395 68.6195C74.8286 68.6122 74.8177 68.6086 74.8068 68.6013C74.7995 68.5977 74.7959 68.5904 74.7886 68.5904L70.529 66.6588C70.4381 66.6188 70.3326 66.6152 70.238 66.6552L65.9785 68.4194C65.9785 68.4194 65.9639 68.4303 65.9566 68.434C65.9457 68.4412 65.9312 68.4449 65.9166 68.4522C65.9093 68.4558 65.9057 68.4631 65.8984 68.4667C65.8875 68.474 65.8802 68.4813 65.8693 68.4922C65.8548 68.5067 65.8402 68.5213 65.8293 68.5358C65.822 68.5467 65.8148 68.554 65.8075 68.5649C65.7966 68.5831 65.7893 68.6013 65.7784 68.6231C65.7748 68.634 65.7675 68.6449 65.7675 68.6559C65.7602 68.6813 65.7566 68.7104 65.7529 68.7359C65.7529 68.7395 65.7529 68.7468 65.7529 68.7504V73.4974C65.7529 73.632 65.8293 73.7557 65.9494 73.8212L70.2526 76.0619C70.2526 76.0619 70.2817 76.0728 70.2999 76.0801C70.3108 76.0837 70.3181 76.0874 70.329 76.091C70.3581 76.0983 70.3908 76.1019 70.4199 76.1019C70.449 76.1019 70.4817 76.0983 70.5108 76.091C70.5218 76.091 70.5327 76.0837 70.5399 76.0801C70.5545 76.0728 70.5727 76.0692 70.5872 76.0619L74.8032 73.8648C74.9232 73.803 74.9996 73.6793 74.9996 73.5411V68.9178C74.9996 68.885 74.9959 68.8559 74.985 68.8232L74.9923 68.8268ZM70.3763 67.3864L73.7228 68.9032L70.4308 70.2527L67.0515 68.7613L70.3763 67.3827V67.3864ZM66.4877 69.3106L70.0634 70.8857V75.1416L66.4877 73.2792V69.3106ZM70.7909 75.1416V70.893L71.8567 70.4564L74.2794 69.4634V73.3265L70.7909 75.1416Z" fill="black" fill-opacity="0.54"/>
</g>
</g>
</g></svg>
