<svg viewBox="0 0 32 32" fill="none" xmlns="http://www.w3.org/2000/svg"><g transform="translate(-260 -96)">
<g id="Shape_11">
<path fill-rule="evenodd" clip-rule="evenodd" d="M271.948 102.329C271.179 102.329 270.944 102.334 270.77 102.364C269.878 102.52 269.255 103.15 269.11 103.863C269.083 103.998 269.077 104.187 269.077 104.912V110.249C269.077 111.712 269.08 112.683 269.184 113.405C269.283 114.084 269.449 114.37 269.66 114.565C269.883 114.772 270.227 114.942 271 115.039C271.799 115.138 272.866 115.141 274.434 115.141H277.695C279.263 115.141 280.33 115.138 281.129 115.039C281.903 114.942 282.247 114.772 282.47 114.565C282.68 114.37 282.847 114.084 282.946 113.405C283.05 112.683 283.053 111.712 283.053 110.249V108.582C283.053 107.553 283.05 106.898 282.985 106.415C282.925 105.969 282.829 105.833 282.754 105.755C282.724 105.725 282.693 105.696 282.661 105.669C282.56 105.585 282.376 105.483 281.857 105.422C281.317 105.359 280.592 105.357 279.491 105.357H279.186C279.142 105.357 279.098 105.357 279.055 105.357C278.242 105.358 277.627 105.358 277.039 105.203C276.717 105.117 276.406 104.998 276.111 104.845C275.568 104.565 275.124 104.152 274.551 103.619C274.52 103.591 274.489 103.562 274.457 103.532L274.009 103.116C273.771 102.895 273.704 102.834 273.639 102.784M271.841 100C271.876 100 271.912 100 271.948 100C271.962 100 271.977 100 271.991 100C272.264 100 272.47 100 272.673 100.018C273.541 100.093 274.373 100.41 275.06 100.939C275.22 101.062 275.37 101.201 275.561 101.379C275.572 101.389 275.583 101.399 275.593 101.409L276.042 101.825C276.752 102.485 276.956 102.66 277.18 102.776C277.323 102.85 277.475 102.909 277.635 102.951C277.893 103.019 278.184 103.028 279.186 103.028L279.559 103.028C280.574 103.028 281.436 103.028 282.127 103.109C282.856 103.194 283.557 103.383 284.154 103.881C284.249 103.961 284.34 104.046 284.426 104.134C284.978 104.704 285.197 105.39 285.293 106.103C285.382 106.761 285.382 107.575 285.382 108.507V110.334C285.382 111.689 285.382 112.83 285.251 113.739C285.11 114.709 284.8 115.58 284.055 116.272C283.322 116.952 282.42 117.225 281.418 117.35C280.458 117.47 279.244 117.47 277.772 117.47H274.358C272.886 117.47 271.672 117.47 270.712 117.35C269.71 117.225 268.807 116.952 268.075 116.272C267.33 115.58 267.02 114.709 266.879 113.739C266.748 112.83 266.748 111.689 266.748 110.334L266.748 104.912C266.748 104.874 266.748 104.838 266.748 104.801C266.747 104.242 266.747 103.796 266.828 103.399C267.18 101.663 268.621 100.376 270.368 100.07C270.769 99.9996 271.225 99.9998 271.841 100ZM271.948 102.329C272.283 102.329 272.382 102.33 272.471 102.338L271.948 102.329ZM272.471 102.338C272.909 102.376 273.316 102.536 273.639 102.784L272.471 102.338Z" fill="#666666"/>
<path d="M277.228 108.531C276.794 108.531 276.442 108.883 276.442 109.317C276.442 109.752 276.794 110.103 277.228 110.103H280.373C280.807 110.103 281.159 109.752 281.159 109.317C281.159 108.883 280.807 108.531 280.373 108.531H277.228Z" fill="#666666"/>
<path fill-rule="evenodd" clip-rule="evenodd" d="M265.582 120.616C265.261 120.616 265 120.877 265 121.199C265 121.52 265.261 121.781 265.582 121.781H273.321C273.59 123.049 274.715 124 276.063 124C277.411 124 278.536 123.049 278.805 121.781H286.547C286.869 121.781 287.13 121.52 287.13 121.199C287.13 120.877 286.869 120.616 286.547 120.616H278.805C278.577 119.536 277.726 118.685 276.646 118.456V115.956C276.646 115.635 276.385 115.374 276.064 115.374C275.742 115.374 275.481 115.635 275.481 115.956V118.455C274.4 118.684 273.549 119.535 273.321 120.616H265.582ZM274.789 121.198C274.789 120.494 275.359 119.924 276.063 119.924C276.766 119.924 277.337 120.494 277.337 121.198C277.337 121.901 276.766 122.471 276.063 122.471C275.359 122.471 274.789 121.901 274.789 121.198Z" fill="#666666"/>
</g>
</g></svg>
