<svg viewBox="0 0 24 24" fill="none" xmlns="http://www.w3.org/2000/svg"><g transform="translate(-372 -88)">
<g id="Shape_6">
<path fill-rule="evenodd" clip-rule="evenodd" d="M383.8 101C385.733 101 387.3 99.433 387.3 97.5C387.3 95.567 385.733 94 383.8 94C381.867 94 380.3 95.567 380.3 97.5C380.3 99.433 381.867 101 383.8 101ZM383.8 99.2C384.739 99.2 385.5 98.4389 385.5 97.5C385.5 96.5611 384.739 95.8 383.8 95.8C382.861 95.8 382.1 96.5611 382.1 97.5C382.1 98.4389 382.861 99.2 383.8 99.2Z" fill="black" fill-opacity="0.54"/>
<path fill-rule="evenodd" clip-rule="evenodd" d="M383.8 90L375.8 93V99.09C375.8 104.14 379.21 108.85 383.8 110C388.39 108.85 391.8 104.14 391.8 99.09V93L383.8 90ZM387.594 105.249C386.578 106.489 385.271 107.438 383.8 107.92C382.055 107.348 380.54 106.122 379.469 104.53C379.871 104.011 380.376 103.577 380.956 103.256C381.782 102.8 382.723 102.595 383.664 102.666C384.606 102.737 385.505 103.081 386.254 103.656C386.813 104.085 387.269 104.63 387.594 105.249ZM388.605 103.744L388.604 103.743C388.23 103.215 387.778 102.744 387.26 102.346C386.257 101.575 385.05 101.114 383.789 101.018C382.527 100.923 381.265 101.198 380.157 101.81C379.587 102.125 379.07 102.523 378.622 102.987C378.096 101.784 377.8 100.456 377.8 99.09V94.39L383.8 92.14L389.8 94.39V99.09C389.8 100.747 389.362 102.352 388.605 103.744Z" fill="black" fill-opacity="0.54"/>
</g>
</g></svg>
