<svg viewBox="0 0 24 24" fill="none" xmlns="http://www.w3.org/2000/svg"><g transform="translate(-116 -56)">
<g id="Shapes_4">
<g id="Group_3">
<path id="Vector_9" d="M135.852 66.5286C135.852 66.8275 136.093 67.0688 136.392 67.0688C136.691 67.0688 136.932 66.8275 136.932 66.5286V63.201C136.932 63.1542 136.925 63.1074 136.914 63.0606C136.914 63.0462 136.904 63.0354 136.9 63.0246C136.889 62.9922 136.875 62.9598 136.857 62.9274C136.849 62.9129 136.839 62.8985 136.828 62.8841C136.81 62.8589 136.792 62.8373 136.767 62.8157C136.752 62.8013 136.738 62.7905 136.723 62.7797C136.713 62.7725 136.705 62.7617 136.695 62.7545C136.68 62.7437 136.662 62.7401 136.648 62.7293C136.637 62.7221 136.63 62.7149 136.619 62.7113L127.436 58.5483C127.299 58.487 127.144 58.4834 127.007 58.5411L117.831 62.344C117.831 62.344 117.81 62.3584 117.799 62.362C117.781 62.3728 117.759 62.3764 117.741 62.3908C117.731 62.398 117.723 62.4052 117.716 62.4124C117.702 62.4232 117.687 62.4376 117.673 62.4484C117.651 62.47 117.63 62.4916 117.612 62.5132C117.601 62.5276 117.59 62.542 117.579 62.56C117.561 62.5852 117.551 62.614 117.54 62.6429C117.532 62.6573 117.525 62.6753 117.522 62.6897C117.511 62.7293 117.504 62.7689 117.504 62.8085C117.504 62.8157 117.504 62.8229 117.5 62.8301V73.0612C117.496 73.2737 117.608 73.4574 117.788 73.551L127.058 78.3802C127.058 78.3802 127.069 78.3802 127.072 78.3874C127.097 78.4018 127.126 78.409 127.155 78.4198C127.166 78.4198 127.177 78.427 127.187 78.4307C127.227 78.4379 127.267 78.4451 127.306 78.4451C127.353 78.4451 127.396 78.4379 127.436 78.427C127.447 78.427 127.457 78.4198 127.468 78.4162C127.504 78.4054 127.537 78.391 127.569 78.373C127.576 78.373 127.58 78.3694 127.587 78.3658C127.587 78.3658 127.591 78.3622 127.594 78.3586C127.63 78.337 127.663 78.3118 127.692 78.2794C127.695 78.2758 127.699 78.2686 127.702 78.265C127.728 78.2398 127.746 78.211 127.764 78.1822C127.771 78.1714 127.774 78.1606 127.782 78.1498C127.796 78.1209 127.807 78.0921 127.818 78.0633C127.818 78.0525 127.825 78.0417 127.828 78.0309C127.839 77.9913 127.846 77.9481 127.846 77.9049V67.2956L135.852 64.0149V66.5358V66.5286ZM127.205 59.6322L135.031 63.1794L127.317 66.3413L125.855 65.6967L119.412 62.8589L127.205 59.6322ZM118.577 63.6692L122.614 65.4482L126.766 67.2776V77.0082L118.577 72.7443V63.6692Z" fill="black" fill-opacity="0.54"/>
<path id="Vector_10" d="M134.718 69.8994C133.958 69.1395 133.436 67.8071 133.177 66.597C132.917 67.8071 132.399 69.1359 131.635 69.8994C130.875 70.6592 129.543 71.1814 128.333 71.4407C129.543 71.7 130.872 72.2186 131.635 72.982C132.395 73.7419 132.917 75.0743 133.177 76.2844C133.436 75.0743 133.955 73.7455 134.718 72.982C135.478 72.2222 136.81 71.7 138.02 71.4407C136.81 71.1814 135.481 70.6628 134.718 69.8994Z" fill="black" fill-opacity="0.54"/>
<path id="Vector_11" d="M137.901 74.8979C137.534 74.527 137.278 73.8823 137.156 73.299C137.03 73.886 136.778 74.5306 136.41 74.8979C136.043 75.2652 135.395 75.5209 134.812 75.6434C135.399 75.7694 136.043 76.0215 136.41 76.3888C136.778 76.7561 137.033 77.4044 137.156 77.9878C137.282 77.4008 137.534 76.7561 137.901 76.3888C138.269 76.0215 138.917 75.7658 139.5 75.6434C138.913 75.5173 138.269 75.2652 137.901 74.8979Z" fill="black" fill-opacity="0.54"/>
</g>
</g>
</g></svg>
