<svg viewBox="0 0 24 24" fill="none" xmlns="http://www.w3.org/2000/svg"><g transform="translate(-84 -88)">
<path id="Union_2" fill-rule="evenodd" clip-rule="evenodd" d="M92.5783 105.904H101.253C101.519 105.904 101.735 105.688 101.735 105.422V95.3012H97.3976V91.4458H92.5783C92.3122 91.4458 92.0964 91.6615 92.0964 91.9277V105.422C92.0964 105.688 92.3122 105.904 92.5783 105.904ZM97.3976 90H92.5783C91.5137 90 90.6506 90.8631 90.6506 91.9277V105.422C90.6506 106.486 91.5137 107.349 92.5783 107.349H101.253C102.318 107.349 103.181 106.486 103.181 105.422V94.6699C103.181 94.114 102.941 93.5852 102.522 93.2192L99.3885 90.477C99.0371 90.1695 98.586 90 98.1191 90H97.3976ZM99.0843 109.277C99.0843 109.676 98.7607 110 98.3614 110H90.6506C89.1867 110 88 108.813 88 107.349V95.7831C88 95.3839 88.3236 95.0602 88.7229 95.0602C89.1221 95.0602 89.4458 95.3839 89.4458 95.7831V107.349C89.4458 108.015 89.9852 108.554 90.6506 108.554H98.3614C98.7607 108.554 99.0843 108.878 99.0843 109.277ZM94.2651 99.6386C94.2651 99.2393 94.5887 98.9157 94.988 98.9157H98.8434C99.2426 98.9157 99.5663 99.2393 99.5663 99.6386C99.5663 100.038 99.2426 100.361 98.8434 100.361H94.988C94.5887 100.361 94.2651 100.038 94.2651 99.6386ZM94.988 101.807C94.5887 101.807 94.2651 102.131 94.2651 102.53C94.2651 102.929 94.5887 103.253 94.988 103.253H98.8434C99.2426 103.253 99.5663 102.929 99.5663 102.53C99.5663 102.131 99.2426 101.807 98.8434 101.807H94.988Z" fill="black" fill-opacity="0.54"/>
</g></svg>
