<svg viewBox="0 0 24 24" fill="none" xmlns="http://www.w3.org/2000/svg"><g transform="translate(-20 -88)">
<path id="Vector_23" fill-rule="evenodd" clip-rule="evenodd" d="M24.0556 93.1111C24.6385 93.1111 25.1111 92.6385 25.1111 92.0556C25.1111 91.4726 24.6385 91 24.0556 91C23.4726 91 23 91.4726 23 92.0556C23 92.6385 23.4726 93.1111 24.0556 93.1111ZM37.7778 100.5C37.7778 99.917 37.3052 99.4444 36.7222 99.4444C36.1392 99.4444 35.6667 99.917 35.6667 100.5V103.667H32.5C31.917 103.667 31.4444 104.139 31.4444 104.722C31.4444 105.305 31.917 105.778 32.5 105.778H35.6667V108.944C35.6667 109.527 36.1392 110 36.7222 110C37.3052 110 37.7778 109.527 37.7778 108.944V105.778H40.9444C41.5274 105.778 42 105.305 42 104.722C42 104.139 41.5274 103.667 40.9444 103.667H37.7778V100.5ZM29.3333 92.0556C29.3333 92.6385 28.8607 93.1111 28.2778 93.1111C27.6948 93.1111 27.2222 92.6385 27.2222 92.0556C27.2222 91.4726 27.6948 91 28.2778 91C28.8607 91 29.3333 91.4726 29.3333 92.0556ZM32.5 93.1111C33.083 93.1111 33.5556 92.6385 33.5556 92.0556C33.5556 91.4726 33.083 91 32.5 91C31.917 91 31.4444 91.4726 31.4444 92.0556C31.4444 92.6385 31.917 93.1111 32.5 93.1111ZM37.7778 92.0556C37.7778 92.6385 37.3052 93.1111 36.7222 93.1111C36.1392 93.1111 35.6667 92.6385 35.6667 92.0556C35.6667 91.4726 36.1392 91 36.7222 91C37.3052 91 37.7778 91.4726 37.7778 92.0556ZM36.7222 97.3333C37.3052 97.3333 37.7778 96.8607 37.7778 96.2778C37.7778 95.6948 37.3052 95.2222 36.7222 95.2222C36.1392 95.2222 35.6667 95.6948 35.6667 96.2778C35.6667 96.8607 36.1392 97.3333 36.7222 97.3333ZM29.3333 104.722C29.3333 105.305 28.8607 105.778 28.2778 105.778C27.6948 105.778 27.2222 105.305 27.2222 104.722C27.2222 104.139 27.6948 103.667 28.2778 103.667C28.8607 103.667 29.3333 104.139 29.3333 104.722ZM24.0556 105.778C24.6385 105.778 25.1111 105.305 25.1111 104.722C25.1111 104.139 24.6385 103.667 24.0556 103.667C23.4726 103.667 23 104.139 23 104.722C23 105.305 23.4726 105.778 24.0556 105.778ZM25.1111 100.5C25.1111 101.083 24.6385 101.556 24.0556 101.556C23.4726 101.556 23 101.083 23 100.5C23 99.917 23.4726 99.4444 24.0556 99.4444C24.6385 99.4444 25.1111 99.917 25.1111 100.5ZM24.0556 97.3333C24.6385 97.3333 25.1111 96.8607 25.1111 96.2778C25.1111 95.6948 24.6385 95.2222 24.0556 95.2222C23.4726 95.2222 23 95.6948 23 96.2778C23 96.8607 23.4726 97.3333 24.0556 97.3333Z" fill="black" fill-opacity="0.54"/>
</g></svg>
