<svg viewBox="0 0 24 24" fill="none" xmlns="http://www.w3.org/2000/svg"><g transform="translate(-180 -88)">
<path id="Vector_26" d="M192 95.6364C195.101 95.6364 197.866 97.3791 199.216 100.136C197.866 102.894 195.109 104.636 192 104.636C188.891 104.636 186.134 102.894 184.784 100.136C186.134 97.3791 188.899 95.6364 192 95.6364ZM192 94C187.909 94 184.415 96.5445 183 100.136C184.415 103.728 187.909 106.273 192 106.273C196.091 106.273 199.585 103.728 201 100.136C199.585 96.5445 196.091 94 192 94ZM192 98.0909C193.129 98.0909 194.045 99.0073 194.045 100.136C194.045 101.265 193.129 102.182 192 102.182C190.871 102.182 189.955 101.265 189.955 100.136C189.955 99.0073 190.871 98.0909 192 98.0909ZM192 96.4545C189.971 96.4545 188.318 98.1073 188.318 100.136C188.318 102.165 189.971 103.818 192 103.818C194.029 103.818 195.682 102.165 195.682 100.136C195.682 98.1073 194.029 96.4545 192 96.4545Z" fill="black" fill-opacity="0.54"/>
</g></svg>
