<svg viewBox="0 0 24 24" fill="none" xmlns="http://www.w3.org/2000/svg"><g transform="translate(-116 -184)">
<path id="Vector_192" d="M138 196C138 197.326 137.473 198.598 136.536 199.536C135.598 200.473 134.326 201 133 201C131.674 201 130.402 200.473 129.464 199.536C128.527 198.598 128 197.326 128 196C128 194.674 127.473 193.402 126.536 192.464C125.598 191.527 124.326 191 123 191C121.674 191 120.402 191.527 119.464 192.464C118.527 193.402 118 194.674 118 196" stroke="black" stroke-width="2" stroke-linecap="round" stroke-linejoin="round"/>
<path id="Vector_193" d="M123 204.7C121.846 204.037 121.003 202.943 120.656 201.658C120.309 200.374 120.487 199.004 121.15 197.85C121.813 196.696 122.907 195.853 124.192 195.506C125.476 195.159 126.846 195.337 128 196C128.564 196.328 129.188 196.542 129.835 196.629C130.483 196.717 131.141 196.675 131.772 196.508C132.404 196.341 132.996 196.051 133.516 195.655C134.035 195.259 134.471 194.765 134.8 194.2C135.128 193.635 135.342 193.012 135.429 192.364C135.516 191.717 135.475 191.059 135.308 190.427C135.141 189.796 134.851 189.203 134.455 188.684C134.059 188.165 133.564 187.728 133 187.4" stroke="black" stroke-width="2" stroke-linecap="round" stroke-linejoin="round"/>
<path id="Vector_194" d="M123 187.3C124.14 186.637 125.498 186.454 126.773 186.792C128.048 187.129 129.137 187.96 129.8 189.1C130.463 190.24 130.646 191.598 130.308 192.873C129.971 194.148 129.14 195.237 128 195.9C126.86 196.563 126.029 197.652 125.692 198.927C125.354 200.202 125.537 201.56 126.2 202.7C126.863 203.84 127.952 204.671 129.227 205.008C130.502 205.346 131.86 205.163 133 204.5" stroke="black" stroke-width="2" stroke-linecap="round" stroke-linejoin="round"/>
<path id="Vector_195" d="M128 206C133.523 206 138 201.523 138 196C138 190.477 133.523 186 128 186C122.477 186 118 190.477 118 196C118 201.523 122.477 206 128 206Z" stroke="black" stroke-width="2" stroke-linecap="round" stroke-linejoin="round"/>
</g></svg>
