<svg viewBox="0 0 24 24" fill="none" xmlns="http://www.w3.org/2000/svg"><g transform="translate(-84 -88)">
<path id="Vector_61" d="M96 107V110" stroke="black" stroke-width="2" stroke-linecap="round" stroke-linejoin="round"/>
<path id="Vector_62" d="M96 90V93" stroke="black" stroke-width="2" stroke-linecap="round" stroke-linejoin="round"/>
<path id="Vector_63" d="M102.89 101.24C103.09 100.128 103.018 98.9844 102.68 97.9064C102.343 96.8283 101.749 95.8481 100.95 95.0493C100.152 94.2505 99.1713 93.6569 98.0933 93.3191C97.0153 92.9814 95.8715 92.9096 94.7598 93.1099" stroke="black" stroke-width="2" stroke-linecap="round" stroke-linejoin="round"/>
<path id="Vector_64" d="M103 100H106" stroke="black" stroke-width="2" stroke-linecap="round" stroke-linejoin="round"/>
<path id="Vector_65" d="M86 100H89" stroke="black" stroke-width="2" stroke-linecap="round" stroke-linejoin="round"/>
<path id="Vector_66" d="M86 90L106 110" stroke="black" stroke-width="2" stroke-linecap="round" stroke-linejoin="round"/>
<path id="Vector_67" d="M91.0504 95.05C89.7375 96.3629 89 98.1434 89 100C89 101.857 89.7375 103.637 91.0504 104.95C92.3632 106.263 94.1437 107 96.0004 107C97.857 107 99.6375 106.263 100.95 104.95" stroke="black" stroke-width="2" stroke-linecap="round" stroke-linejoin="round"/>
</g></svg>
