<svg viewBox="0 0 24 24" fill="none" xmlns="http://www.w3.org/2000/svg"><g transform="translate(-52 -88)">
<path id="Vector_55" d="M54 100H57" stroke="black" stroke-width="2" stroke-linecap="round" stroke-linejoin="round"/>
<path id="Vector_56" d="M71 100H74" stroke="black" stroke-width="2" stroke-linecap="round" stroke-linejoin="round"/>
<path id="Vector_57" d="M64 90V93" stroke="black" stroke-width="2" stroke-linecap="round" stroke-linejoin="round"/>
<path id="Vector_58" d="M64 107V110" stroke="black" stroke-width="2" stroke-linecap="round" stroke-linejoin="round"/>
<path id="Vector_59" d="M64 107C67.866 107 71 103.866 71 100C71 96.134 67.866 93 64 93C60.134 93 57 96.134 57 100C57 103.866 60.134 107 64 107Z" stroke="black" stroke-width="2" stroke-linecap="round" stroke-linejoin="round"/>
<path id="Vector_60" d="M64 103C65.6569 103 67 101.657 67 100C67 98.3431 65.6569 97 64 97C62.3431 97 61 98.3431 61 100C61 101.657 62.3431 103 64 103Z" stroke="black" stroke-width="2" stroke-linecap="round" stroke-linejoin="round"/>
</g></svg>
