<svg viewBox="0 0 24 24" fill="none" xmlns="http://www.w3.org/2000/svg"><g transform="translate(-244 -56)">
<path id="Vector_34" d="M263 67H249C247.895 67 247 67.8954 247 69V76C247 77.1046 247.895 78 249 78H263C264.105 78 265 77.1046 265 76V69C265 67.8954 264.105 67 263 67Z" stroke="black" stroke-width="2" stroke-linecap="round" stroke-linejoin="round"/>
<path id="Vector_35" d="M251 67V63C251 61.6739 251.527 60.4021 252.464 59.4645C253.402 58.5268 254.674 58 256 58C257.326 58 258.598 58.5268 259.536 59.4645C260.473 60.4021 261 61.6739 261 63V67" stroke="black" stroke-width="2" stroke-linecap="round" stroke-linejoin="round"/>
</g></svg>
