<svg viewBox="0 0 24 24" fill="none" xmlns="http://www.w3.org/2000/svg"><g transform="translate(-276 -56)">
<path id="Vector_36" d="M288 73C288.552 73 289 72.5523 289 72C289 71.4477 288.552 71 288 71C287.448 71 287 71.4477 287 72C287 72.5523 287.448 73 288 73Z" stroke="black" stroke-width="2" stroke-linecap="round" stroke-linejoin="round"/>
<path id="Vector_37" d="M295 66H281C279.895 66 279 66.8954 279 68V76C279 77.1046 279.895 78 281 78H295C296.105 78 297 77.1046 297 76V68C297 66.8954 296.105 66 295 66Z" stroke="black" stroke-width="2" stroke-linecap="round" stroke-linejoin="round"/>
<path id="Vector_38" d="M283 66V63C283 61.6739 283.527 60.4021 284.464 59.4645C285.402 58.5268 286.674 58 288 58C289.326 58 290.598 58.5268 291.536 59.4645C292.473 60.4021 293 61.6739 293 63V66" stroke="black" stroke-width="2" stroke-linecap="round" stroke-linejoin="round"/>
</g></svg>
