<svg viewBox="0 0 24 24" fill="none" xmlns="http://www.w3.org/2000/svg"><g transform="translate(-308 -56)">
<path id="Vector_39" d="M320 73C320.552 73 321 72.5523 321 72C321 71.4477 320.552 71 320 71C319.448 71 319 71.4477 319 72C319 72.5523 319.448 73 320 73Z" stroke="black" stroke-width="2" stroke-linecap="round" stroke-linejoin="round"/>
<path id="Vector_40" d="M327 66H313C311.895 66 311 66.8954 311 68V76C311 77.1046 311.895 78 313 78H327C328.105 78 329 77.1046 329 76V68C329 66.8954 328.105 66 327 66Z" stroke="black" stroke-width="2" stroke-linecap="round" stroke-linejoin="round"/>
<path id="Vector_41" d="M315 66V63C315 61.8994 315.363 60.8295 316.033 59.9564C316.703 59.0832 317.643 58.4555 318.706 58.1706C319.769 57.8858 320.896 57.9596 321.913 58.3808C322.93 58.802 323.78 59.5469 324.33 60.5" stroke="black" stroke-width="2" stroke-linecap="round" stroke-linejoin="round"/>
</g></svg>
