<svg viewBox="0 0 24 24" fill="none" xmlns="http://www.w3.org/2000/svg"><g transform="translate(-20 -56)">
<path id="Vector" d="M38 64H37V62C37 59.24 34.76 57 32 57C29.24 57 27 59.24 27 62V64H26C24.9 64 24 64.9 24 66V76C24 77.1 24.9 78 26 78H38C39.1 78 40 77.1 40 76V66C40 64.9 39.1 64 38 64ZM32 73C30.9 73 30 72.1 30 71C30 69.9 30.9 69 32 69C33.1 69 34 69.9 34 71C34 72.1 33.1 73 32 73ZM35.1 64H28.9V62C28.9 60.29 30.29 58.9 32 58.9C33.71 58.9 35.1 60.29 35.1 62V64Z" fill="black" fill-opacity="0.56"/>
</g></svg>
