<svg viewBox="0 0 24 24" fill="none" xmlns="http://www.w3.org/2000/svg"><g transform="translate(-148 -152)">
<path id="Vector_169" d="M159 171C163.418 171 167 167.418 167 163C167 158.582 163.418 155 159 155C154.582 155 151 158.582 151 163C151 167.418 154.582 171 159 171Z" stroke="black" stroke-width="2" stroke-linecap="round" stroke-linejoin="round"/>
<path id="Vector_170" d="M169 173L164.7 168.7" stroke="black" stroke-width="2" stroke-linecap="round" stroke-linejoin="round"/>
<path id="Vector_171" d="M159 163C159 163.53 159.211 164.039 159.586 164.414C159.961 164.789 160.47 165 161 165C161.53 165 162.039 164.789 162.414 164.414C162.789 164.039 163 163.53 163 163C163 161.939 162.579 160.922 161.828 160.172C161.078 159.421 160.061 159 159 159C157.939 159 156.922 159.421 156.172 160.172C155.421 160.922 155 161.939 155 163C155 164.591 155.632 166.117 156.757 167.243C157.883 168.368 159.409 169 161 169C162.591 169 164.117 168.368 165.243 167.243C166.368 166.117 167 164.591 167 163" stroke="black" stroke-width="2" stroke-linecap="round" stroke-linejoin="round"/>
</g></svg>
