<svg viewBox="0 0 24 24" fill="none" xmlns="http://www.w3.org/2000/svg"><g transform="translate(-180 -88)">
<path id="Vector_102" d="M186 108C185.47 108 184.961 107.789 184.586 107.414C184.211 107.039 184 106.53 184 106V96C184 95.4696 184.211 94.9609 184.586 94.5858C184.961 94.2107 185.47 94 186 94H198C198.53 94 199.039 94.2107 199.414 94.5858C199.789 94.9609 200 95.4696 200 96V106C200 106.53 199.789 107.039 199.414 107.414C199.039 107.789 198.53 108 198 108" stroke="black" stroke-width="2" stroke-linecap="round" stroke-linejoin="round"/>
<path id="Vector_103" d="M188 106V92C188 91.4696 188.211 90.9609 188.586 90.5858C188.961 90.2107 189.47 90 190 90H194C194.53 90 195.039 90.2107 195.414 90.5858C195.789 90.9609 196 91.4696 196 92V106" stroke="black" stroke-width="2" stroke-linecap="round" stroke-linejoin="round"/>
<path id="Vector_104" d="M190 108H194" stroke="black" stroke-width="2" stroke-linecap="round" stroke-linejoin="round"/>
<path id="Vector_105" d="M196 110C197.105 110 198 109.105 198 108C198 106.895 197.105 106 196 106C194.895 106 194 106.895 194 108C194 109.105 194.895 110 196 110Z" stroke="black" stroke-width="2" stroke-linecap="round" stroke-linejoin="round"/>
<path id="Vector_106" d="M188 110C189.105 110 190 109.105 190 108C190 106.895 189.105 106 188 106C186.895 106 186 106.895 186 108C186 109.105 186.895 110 188 110Z" stroke="black" stroke-width="2" stroke-linecap="round" stroke-linejoin="round"/>
</g></svg>
