<svg viewBox="0 0 24 24" fill="none" xmlns="http://www.w3.org/2000/svg"><g transform="translate(-84 -88)">
<path id="Vector_76" d="M96 103L100 107" stroke="black" stroke-width="2" stroke-linecap="round" stroke-linejoin="round"/>
<path id="Vector_77" d="M86.3519 98.648C86.126 98.8739 85.999 99.1804 85.999 99.5C85.999 99.8195 86.126 100.126 86.3519 100.352L88.6479 102.648C88.8739 102.874 89.1803 103.001 89.4999 103.001C89.8195 103.001 90.1259 102.874 90.3519 102.648L96.3809 96.619C96.5779 96.422 96.8117 96.2657 97.0691 96.1591C97.3265 96.0525 97.6023 95.9977 97.8809 95.9977C98.1595 95.9977 98.4353 96.0525 98.6927 96.1591C98.9501 96.2657 99.1839 96.422 99.3809 96.619C99.5779 96.816 99.7341 97.0498 99.8407 97.3072C99.9473 97.5645 100.002 97.8404 100.002 98.119C100.002 98.3975 99.9473 98.6734 99.8407 98.9308C99.7341 99.1881 99.5779 99.422 99.3809 99.619L93.3519 105.648C93.126 105.874 92.999 106.18 92.999 106.5C92.999 106.82 93.126 107.126 93.3519 107.352L95.6479 109.648C95.8739 109.874 96.1803 110.001 96.4999 110.001C96.8195 110.001 97.1259 109.874 97.3519 109.648L103.717 103.281C105.175 101.822 105.995 99.8437 105.995 97.7808C105.994 95.7179 105.175 93.7395 103.716 92.281C102.994 91.5588 102.136 90.9859 101.192 90.5951C100.249 90.2043 99.2371 90.0032 98.2157 90.0033C96.1528 90.0035 94.1745 90.8231 92.7159 92.282L86.3519 98.648Z" stroke="black" stroke-width="2" stroke-linecap="round" stroke-linejoin="round"/>
<path id="Vector_78" d="M89 96L93 100" stroke="black" stroke-width="2" stroke-linecap="round" stroke-linejoin="round"/>
</g></svg>
