<svg viewBox="0 0 24 24" fill="none" xmlns="http://www.w3.org/2000/svg"><g transform="translate(-276 -56)">
<path id="Vector_21" d="M298 69V62C298 61.4696 297.789 60.9609 297.414 60.5858C297.039 60.2107 296.53 60 296 60H280C279.47 60 278.961 60.2107 278.586 60.5858C278.211 60.9609 278 61.4696 278 62V74C278 75.1 278.9 76 280 76H288" stroke="black" stroke-width="2" stroke-linecap="round" stroke-linejoin="round"/>
<path id="Vector_22" d="M298 63L289.03 68.7C288.721 68.8934 288.364 68.996 288 68.996C287.636 68.996 287.279 68.8934 286.97 68.7L278 63" stroke="black" stroke-width="2" stroke-linecap="round" stroke-linejoin="round"/>
<path id="Vector_23" d="M295 72V78" stroke="black" stroke-width="2" stroke-linecap="round" stroke-linejoin="round"/>
<path id="Vector_24" d="M292 75H298" stroke="black" stroke-width="2" stroke-linecap="round" stroke-linejoin="round"/>
</g></svg>
