<svg viewBox="0 0 24 24" fill="none" xmlns="http://www.w3.org/2000/svg"><g transform="translate(-52 -88)">
<path id="Vector_41" d="M74 101V94C74 93.4696 73.7893 92.9609 73.4142 92.5858C73.0391 92.2107 72.5304 92 72 92H56C55.4696 92 54.9609 92.2107 54.5858 92.5858C54.2107 92.9609 54 93.4696 54 94V106C54 107.1 54.9 108 56 108H65" stroke="black" stroke-width="2" stroke-linecap="round" stroke-linejoin="round"/>
<path id="Vector_42" d="M74 95L65.03 100.7C64.7213 100.893 64.3643 100.996 64 100.996C63.6357 100.996 63.2787 100.893 62.97 100.7L54 95" stroke="black" stroke-width="2" stroke-linecap="round" stroke-linejoin="round"/>
<path id="Vector_43" d="M69 105L73 109" stroke="black" stroke-width="2" stroke-linecap="round" stroke-linejoin="round"/>
<path id="Vector_44" d="M73 105L69 109" stroke="black" stroke-width="2" stroke-linecap="round" stroke-linejoin="round"/>
</g></svg>
