<svg viewBox="0 0 24 24" fill="none" xmlns="http://www.w3.org/2000/svg"><g transform="translate(-340 -56)">
<path id="Vector_29" d="M357 74.9999C357 75.5304 356.789 76.0391 356.414 76.4142C356.039 76.7892 355.53 76.9999 355 76.9999H344C343.47 76.9999 342.961 76.7892 342.586 76.4142C342.211 76.0391 342 75.5304 342 74.9999V66.9999C342 66.6489 342.092 66.304 342.268 66C342.443 65.6959 342.696 65.4435 343 65.2679" stroke="black" stroke-width="2" stroke-linecap="round" stroke-linejoin="round"/>
<path id="Vector_30" d="M362 61.5L355.581 65.679C355.259 65.8862 354.883 65.9963 354.5 65.9963C354.117 65.9963 353.741 65.8862 353.419 65.679L347 61.5" stroke="black" stroke-width="2" stroke-linecap="round" stroke-linejoin="round"/>
<path id="Vector_31" d="M360 59H349C347.895 59 347 59.8954 347 61V69C347 70.1046 347.895 71 349 71H360C361.105 71 362 70.1046 362 69V61C362 59.8954 361.105 59 360 59Z" stroke="black" stroke-width="2" stroke-linecap="round" stroke-linejoin="round"/>
</g></svg>
