<svg viewBox="0 0 24 24" fill="none" xmlns="http://www.w3.org/2000/svg"><g transform="translate(-148 -56)">
<path id="Vector_9" d="M170 73C170 73.5304 169.789 74.0391 169.414 74.4142C169.039 74.7893 168.53 75 168 75H152C151.47 75 150.961 74.7893 150.586 74.4142C150.211 74.0391 150 73.5304 150 73V65.5C150 63 152 61 154.5 61H166C168.2 61 170 62.8 170 65V73Z" stroke="black" stroke-width="2" stroke-linecap="round" stroke-linejoin="round"/>
<path id="Vector_10" d="M163 65H166V67" stroke="black" stroke-width="2" stroke-linecap="round" stroke-linejoin="round"/>
<path id="Vector_11" d="M154.5 61C157 61 159 63 159 65.5V73C159 73.5304 158.789 74.0391 158.414 74.4142C158.039 74.7893 157.53 75 157 75" stroke="black" stroke-width="2" stroke-linecap="round" stroke-linejoin="round"/>
<path id="Vector_12" d="M154 66H155" stroke="black" stroke-width="2" stroke-linecap="round" stroke-linejoin="round"/>
</g></svg>
