<svg viewBox="0 0 24 24" fill="none" xmlns="http://www.w3.org/2000/svg"><g transform="translate(-372 -56)">
<path id="Vector_32" d="M394 68.5V62C394 61.4696 393.789 60.9609 393.414 60.5858C393.039 60.2107 392.53 60 392 60H376C375.47 60 374.961 60.2107 374.586 60.5858C374.211 60.9609 374 61.4696 374 62V74C374 75.1 374.9 76 376 76H383.5" stroke="black" stroke-width="2" stroke-linecap="round" stroke-linejoin="round"/>
<path id="Vector_33" d="M394 63L385.03 68.7C384.721 68.8934 384.364 68.996 384 68.996C383.636 68.996 383.279 68.8934 382.97 68.7L374 63" stroke="black" stroke-width="2" stroke-linecap="round" stroke-linejoin="round"/>
<path id="Vector_34" d="M390 77C390.796 77 391.559 76.6839 392.121 76.1213C392.684 75.5587 393 74.7956 393 74C393 73.2044 392.684 72.4413 392.121 71.8787C391.559 71.3161 390.796 71 390 71C389.204 71 388.441 71.3161 387.879 71.8787C387.316 72.4413 387 73.2044 387 74C387 74.7956 387.316 75.5587 387.879 76.1213C388.441 76.6839 389.204 77 390 77Z" stroke="black" stroke-width="2" stroke-linecap="round" stroke-linejoin="round"/>
<path id="Vector_35" d="M390 77C391.657 77 393 75.6569 393 74C393 72.3431 391.657 71 390 71C388.343 71 387 72.3431 387 74C387 75.6569 388.343 77 390 77Z" stroke="black" stroke-width="2" stroke-linecap="round" stroke-linejoin="round"/>
<path id="Vector_36" d="M394 78L392.5 76.5" stroke="black" stroke-width="2" stroke-linecap="round" stroke-linejoin="round"/>
</g></svg>
