<svg viewBox="0 0 24 24" fill="none" xmlns="http://www.w3.org/2000/svg"><g transform="translate(-180 -56)">
<path id="Vector_13" d="M202 69V62C202 61.4696 201.789 60.9609 201.414 60.5858C201.039 60.2107 200.53 60 200 60H184C183.47 60 182.961 60.2107 182.586 60.5858C182.211 60.9609 182 61.4696 182 62V74C182 75.1 182.9 76 184 76H192" stroke="black" stroke-width="2" stroke-linecap="round" stroke-linejoin="round"/>
<path id="Vector_14" d="M202 63L193.03 68.7C192.721 68.8934 192.364 68.996 192 68.996C191.636 68.996 191.279 68.8934 190.97 68.7L182 63" stroke="black" stroke-width="2" stroke-linecap="round" stroke-linejoin="round"/>
<path id="Vector_15" d="M196 75L198 77L202 73" stroke="black" stroke-width="2" stroke-linecap="round" stroke-linejoin="round"/>
</g></svg>
