<svg viewBox="0 0 24 24" fill="none" xmlns="http://www.w3.org/2000/svg"><g transform="translate(-20 -88)">
<path id="Vector_37" d="M42 98.5V94C42 93.4696 41.7893 92.9609 41.4142 92.5858C41.0391 92.2107 40.5304 92 40 92H24C23.4696 92 22.9609 92.2107 22.5858 92.5858C22.2107 92.9609 22 93.4696 22 94V106C22 107.1 22.9 108 24 108H36.5" stroke="black" stroke-width="2" stroke-linecap="round" stroke-linejoin="round"/>
<path id="Vector_38" d="M42 95L33.03 100.7C32.7213 100.893 32.3643 100.996 32 100.996C31.6357 100.996 31.2787 100.893 30.97 100.7L22 95" stroke="black" stroke-width="2" stroke-linecap="round" stroke-linejoin="round"/>
<path id="Vector_39" d="M40 102V106" stroke="black" stroke-width="2" stroke-linecap="round" stroke-linejoin="round"/>
<path id="Vector_40" d="M40 110V110.01" stroke="black" stroke-width="2" stroke-linecap="round" stroke-linejoin="round"/>
</g></svg>
