<svg viewBox="0 0 24 24" fill="none" xmlns="http://www.w3.org/2000/svg"><g transform="translate(-308 -56)">
<path id="Vector_25" d="M330 66.5V62C330 61.4696 329.789 60.9609 329.414 60.5858C329.039 60.2107 328.53 60 328 60H312C311.47 60 310.961 60.2107 310.586 60.5858C310.211 60.9609 310 61.4696 310 62V74C310 75.1 310.9 76 312 76H324.5" stroke="black" stroke-width="2" stroke-linecap="round" stroke-linejoin="round"/>
<path id="Vector_26" d="M330 63L321.03 68.7C320.721 68.8934 320.364 68.996 320 68.996C319.636 68.996 319.279 68.8934 318.97 68.7L310 63" stroke="black" stroke-width="2" stroke-linecap="round" stroke-linejoin="round"/>
<path id="Vector_27" d="M326 71.28C326.2 70.88 326.5 70.48 326.9 70.28C327.314 70.0406 327.798 69.9497 328.27 70.0225C328.743 70.0952 329.177 70.3272 329.5 70.68C329.8 71.08 330 71.48 330 71.98C330 73.28 328 73.98 328 73.98" stroke="black" stroke-width="2" stroke-linecap="round" stroke-linejoin="round"/>
<path id="Vector_28" d="M328 78V78.01" stroke="black" stroke-width="2" stroke-linecap="round" stroke-linejoin="round"/>
</g></svg>
