<svg viewBox="0 0 24 24" fill="none" xmlns="http://www.w3.org/2000/svg"><g transform="translate(-244 -56)">
<path id="Vector_19" d="M265.2 64.4C265.7 64.78 266 65.37 266 66V76C266 76.5304 265.789 77.0391 265.414 77.4142C265.039 77.7893 264.53 78 264 78H248C247.47 78 246.961 77.7893 246.586 77.4142C246.211 77.0391 246 76.5304 246 76V66C246 65.6895 246.072 65.3833 246.211 65.1056C246.35 64.8279 246.552 64.5863 246.8 64.4L254.8 58.4C255.146 58.1404 255.567 58 256 58C256.433 58 256.854 58.1404 257.2 58.4L265.2 64.4Z" stroke="black" stroke-width="2" stroke-linecap="round" stroke-linejoin="round"/>
<path id="Vector_20" d="M266 66L257.03 71.7C256.721 71.8934 256.364 71.996 256 71.996C255.636 71.996 255.279 71.8934 254.97 71.7L246 66" stroke="black" stroke-width="2" stroke-linecap="round" stroke-linejoin="round"/>
</g></svg>
