<svg viewBox="0 0 24 24" fill="none" xmlns="http://www.w3.org/2000/svg"><g transform="translate(-84 -120)">
<path id="Vector_102" d="M103.914 131.105C103.971 130.739 103.999 130.37 104 130C104 127.878 103.157 125.843 101.657 124.343C100.157 122.843 98.1217 122 96 122C93.8783 122 91.8434 122.843 90.3431 124.343C88.8429 125.843 88 127.878 88 130C88 134.993 93.539 140.193 95.399 141.799C95.5723 141.929 95.7832 142 96 142C96.2168 142 96.4277 141.929 96.601 141.799C96.8799 141.558 97.1546 141.312 97.425 141.061" stroke="black" stroke-width="2" stroke-linecap="round" stroke-linejoin="round"/>
<path id="Vector_103" d="M96 133C97.6569 133 99 131.657 99 130C99 128.343 97.6569 127 96 127C94.3431 127 93 128.343 93 130C93 131.657 94.3431 133 96 133Z" stroke="black" stroke-width="2" stroke-linecap="round" stroke-linejoin="round"/>
<path id="Vector_104" d="M100 138H106" stroke="black" stroke-width="2" stroke-linecap="round" stroke-linejoin="round"/>
<path id="Vector_105" d="M103 135V141" stroke="black" stroke-width="2" stroke-linecap="round" stroke-linejoin="round"/>
</g></svg>
