<svg viewBox="0 0 24 24" fill="none" xmlns="http://www.w3.org/2000/svg"><g transform="translate(-308 -88)">
<path id="Vector_86" d="M326.977 102C327.6 100.701 328 99.343 328 98C328 95.8783 327.157 93.8434 325.657 92.3431C324.157 90.8429 322.122 90 320 90C317.878 90 315.843 90.8429 314.343 92.3431C312.843 93.8434 312 95.8783 312 98C312 102.993 317.539 108.193 319.399 109.799C319.572 109.929 319.783 110 320 110C320.217 110 320.428 109.929 320.601 109.799C320.88 109.558 321.155 109.312 321.425 109.061" stroke="black" stroke-width="2" stroke-linecap="round" stroke-linejoin="round"/>
<path id="Vector_87" d="M320 101C321.657 101 323 99.6569 323 98C323 96.3431 321.657 95 320 95C318.343 95 317 96.3431 317 98C317 99.6569 318.343 101 320 101Z" stroke="black" stroke-width="2" stroke-linecap="round" stroke-linejoin="round"/>
<path id="Vector_88" d="M324 106H330" stroke="black" stroke-width="2" stroke-linecap="round" stroke-linejoin="round"/>
</g></svg>
