<svg viewBox="0 0 24 24" fill="none" xmlns="http://www.w3.org/2000/svg"><g transform="translate(-148 -88)">
<path id="Vector_71" d="M159 107L157.894 106.448C157.616 106.309 157.31 106.237 157 106.237C156.69 106.237 156.384 106.309 156.106 106.448L152.447 108.278C152.294 108.354 152.125 108.39 151.954 108.382C151.784 108.375 151.618 108.323 151.473 108.233C151.328 108.144 151.208 108.018 151.126 107.869C151.043 107.72 151 107.552 151 107.381V94.618C151 94.4324 151.052 94.2504 151.15 94.0925C151.247 93.9346 151.387 93.807 151.553 93.724L156.106 91.447C156.384 91.3083 156.69 91.2361 157 91.2361C157.31 91.2361 157.616 91.3083 157.894 91.447L162.106 93.553C162.384 93.6917 162.69 93.7639 163 93.7639C163.31 93.7639 163.616 93.6917 163.894 93.553L167.553 91.723C167.706 91.6468 167.875 91.6108 168.045 91.6186C168.216 91.6263 168.381 91.6776 168.526 91.7673C168.671 91.8571 168.791 91.9825 168.874 92.1316C168.957 92.2807 169 92.4485 169 92.619V102" stroke="black" stroke-width="2" stroke-linecap="round" stroke-linejoin="round"/>
<path id="Vector_72" d="M163 93.7639V102" stroke="black" stroke-width="2" stroke-linecap="round" stroke-linejoin="round"/>
<path id="Vector_73" d="M169 106H163" stroke="black" stroke-width="2" stroke-linecap="round" stroke-linejoin="round"/>
<path id="Vector_74" d="M157 91.2361V106.236" stroke="black" stroke-width="2" stroke-linecap="round" stroke-linejoin="round"/>
</g></svg>
