<svg viewBox="0 0 24 24" fill="none" xmlns="http://www.w3.org/2000/svg"><g transform="translate(-212 -120)">
<path id="Vector_117" d="M224.601 141.799C226.461 140.193 232 134.993 232 130C232 127.878 231.157 125.843 229.657 124.343C228.157 122.843 226.122 122 224 122C221.878 122 219.843 122.843 218.343 124.343C216.843 125.843 216 127.878 216 130C216 134.993 221.539 140.193 223.399 141.799C223.572 141.929 223.783 142 224 142C224.217 142 224.428 141.929 224.601 141.799Z" stroke="black" stroke-width="2" stroke-linecap="round" stroke-linejoin="round"/>
<path id="Vector_118" d="M226.5 127.5L221.5 132.5" stroke="black" stroke-width="2" stroke-linecap="round" stroke-linejoin="round"/>
<path id="Vector_119" d="M221.5 127.5L226.5 132.5" stroke="black" stroke-width="2" stroke-linecap="round" stroke-linejoin="round"/>
</g></svg>
