<svg viewBox="0 0 24 24" fill="none" xmlns="http://www.w3.org/2000/svg"><g transform="translate(-244 -120)">
<path id="Vector_120" d="M255 139L253.894 138.448C253.616 138.309 253.31 138.237 253 138.237C252.69 138.237 252.384 138.309 252.106 138.448L248.447 140.278C248.294 140.354 248.125 140.39 247.954 140.382C247.784 140.375 247.618 140.323 247.473 140.233C247.328 140.144 247.208 140.018 247.126 139.869C247.043 139.72 247 139.552 247 139.381V126.618C247 126.432 247.052 126.25 247.15 126.092C247.247 125.935 247.387 125.807 247.553 125.724L252.106 123.447C252.384 123.308 252.69 123.236 253 123.236C253.31 123.236 253.616 123.308 253.894 123.447L258.106 125.553C258.384 125.692 258.69 125.764 259 125.764C259.31 125.764 259.616 125.692 259.894 125.553L263.553 123.723C263.706 123.647 263.875 123.611 264.045 123.619C264.216 123.626 264.381 123.678 264.526 123.767C264.671 123.857 264.791 123.983 264.874 124.132C264.957 124.281 265 124.448 265 124.619V132" stroke="black" stroke-width="2" stroke-linecap="round" stroke-linejoin="round"/>
<path id="Vector_121" d="M259 125.764V132" stroke="black" stroke-width="2" stroke-linecap="round" stroke-linejoin="round"/>
<path id="Vector_122" d="M262 135V141" stroke="black" stroke-width="2" stroke-linecap="round" stroke-linejoin="round"/>
<path id="Vector_123" d="M265 138H259" stroke="black" stroke-width="2" stroke-linecap="round" stroke-linejoin="round"/>
<path id="Vector_124" d="M253 123.236V138.236" stroke="black" stroke-width="2" stroke-linecap="round" stroke-linejoin="round"/>
</g></svg>
