<svg viewBox="0 0 24 24" fill="none" xmlns="http://www.w3.org/2000/svg"><g transform="translate(-20 -120)">
<path id="Vector_94" d="M32.75 127.09C33.2705 127.224 33.7455 127.495 34.1255 127.875C34.5055 128.255 34.7764 128.73 34.91 129.25" stroke="black" stroke-width="2" stroke-linecap="round" stroke-linejoin="round"/>
<path id="Vector_95" d="M37.072 137.072C35.438 139.242 33.545 140.984 32.601 141.799C32.4277 141.929 32.2168 142 32 142C31.7832 142 31.5723 141.929 31.399 141.799C29.539 140.193 24 134.993 24 130C23.9999 128.367 24.4996 126.773 25.432 125.432" stroke="black" stroke-width="2" stroke-linecap="round" stroke-linejoin="round"/>
<path id="Vector_96" d="M22 122L42 142" stroke="black" stroke-width="2" stroke-linecap="round" stroke-linejoin="round"/>
<path id="Vector_97" d="M28.4746 122.818C29.6943 122.219 31.0464 121.941 32.4034 122.01C33.7604 122.078 35.0775 122.491 36.2306 123.21C37.3838 123.929 38.3349 124.929 38.9943 126.117C39.6537 127.305 39.9997 128.641 39.9996 130C39.9996 131.183 39.6896 132.377 39.1896 133.533" stroke="black" stroke-width="2" stroke-linecap="round" stroke-linejoin="round"/>
<path id="Vector_98" d="M29.1304 129.13C28.9733 129.649 28.96 130.202 29.0922 130.728C29.2243 131.255 29.4968 131.736 29.8806 132.12C30.2645 132.503 30.7453 132.776 31.2718 132.908C31.7983 133.04 32.3508 133.027 32.8704 132.87" stroke="black" stroke-width="2" stroke-linecap="round" stroke-linejoin="round"/>
</g></svg>
