<svg viewBox="0 0 24 24" fill="none" xmlns="http://www.w3.org/2000/svg"><g transform="translate(-372 -88)">
<path id="Vector_91" d="M384.607 104.795C386.131 103.429 390 99.613 390 96C390 94.4087 389.368 92.8826 388.243 91.7574C387.117 90.6321 385.591 90 384 90C382.409 90 380.883 90.6321 379.757 91.7574C378.632 92.8826 378 94.4087 378 96C378 99.613 381.87 103.429 383.393 104.795C383.567 104.928 383.781 105 384 105C384.219 105 384.433 104.928 384.607 104.795Z" stroke="black" stroke-width="2" stroke-linecap="round" stroke-linejoin="round"/>
<path id="Vector_92" d="M384 98C385.105 98 386 97.1046 386 96C386 94.8954 385.105 94 384 94C382.895 94 382 94.8954 382 96C382 97.1046 382.895 98 384 98Z" stroke="black" stroke-width="2" stroke-linecap="round" stroke-linejoin="round"/>
<path id="Vector_93" d="M380.714 102H377.004C376.794 102 376.59 102.066 376.419 102.189C376.249 102.311 376.122 102.484 376.056 102.683L374.052 108.683C374.001 108.833 373.988 108.993 374.011 109.15C374.035 109.307 374.096 109.456 374.188 109.584C374.281 109.713 374.403 109.818 374.544 109.89C374.685 109.962 374.841 110 375 110H393C393.158 110 393.314 109.962 393.455 109.89C393.596 109.818 393.718 109.713 393.81 109.584C393.903 109.456 393.963 109.307 393.987 109.151C394.011 108.994 393.998 108.834 393.948 108.684L391.948 102.684C391.881 102.485 391.754 102.312 391.584 102.189C391.413 102.066 391.209 102 390.999 102H387.287" stroke="black" stroke-width="2" stroke-linecap="round" stroke-linejoin="round"/>
</g></svg>
