<svg viewBox="0 0 24 24" fill="none" xmlns="http://www.w3.org/2000/svg"><g transform="translate(-52 -120)">
<path id="Vector_99" d="M69.97 129.304C69.7916 127.25 68.8268 125.343 67.2769 123.983C65.727 122.623 63.7118 121.914 61.6517 122.004C59.5915 122.093 57.6456 122.975 56.22 124.465C54.7943 125.955 53.999 127.938 54 130C54 134.69 58.887 139.562 61.022 141.468" stroke="black" stroke-width="2" stroke-linecap="round" stroke-linejoin="round"/>
<path id="Vector_100" d="M73.378 136.626C73.7763 136.228 74.0001 135.687 74.0001 135.124C74.0001 134.561 73.7763 134.02 73.378 133.622C72.9796 133.224 72.4393 133 71.876 133C71.3126 133 70.7723 133.224 70.374 133.622L66.364 137.634C66.1262 137.872 65.9522 138.165 65.858 138.488L65.021 141.358C64.9959 141.444 64.9944 141.535 65.0166 141.622C65.0389 141.709 65.084 141.788 65.1474 141.851C65.2108 141.915 65.2901 141.96 65.3769 141.982C65.4637 142.005 65.5549 142.003 65.641 141.978L68.511 141.141C68.8336 141.047 69.1274 140.873 69.365 140.635L73.378 136.626Z" stroke="black" stroke-width="2" stroke-linecap="round" stroke-linejoin="round"/>
<path id="Vector_101" d="M62 133C63.6569 133 65 131.657 65 130C65 128.343 63.6569 127 62 127C60.3431 127 59 128.343 59 130C59 131.657 60.3431 133 62 133Z" stroke="black" stroke-width="2" stroke-linecap="round" stroke-linejoin="round"/>
</g></svg>
