<svg viewBox="0 0 24 24" fill="none" xmlns="http://www.w3.org/2000/svg"><g transform="translate(-148 -120)">
<path id="Vector_109" d="M160.248 141.969C160.103 142.006 159.951 142.01 159.804 141.981C159.657 141.951 159.519 141.889 159.399 141.799C157.539 140.193 152 134.993 152 130C152 127.878 152.843 125.843 154.343 124.343C155.843 122.843 157.878 122 160 122C162.122 122 164.157 122.843 165.657 124.343C167.157 125.843 168 127.878 168 130C168 130.42 167.961 130.841 167.888 131.262" stroke="black" stroke-width="2" stroke-linecap="round" stroke-linejoin="round"/>
<path id="Vector_110" d="M170 142L168.12 140.12" stroke="black" stroke-width="2" stroke-linecap="round" stroke-linejoin="round"/>
<path id="Vector_111" d="M160 133C161.657 133 163 131.657 163 130C163 128.343 161.657 127 160 127C158.343 127 157 128.343 157 130C157 131.657 158.343 133 160 133Z" stroke="black" stroke-width="2" stroke-linecap="round" stroke-linejoin="round"/>
<path id="Vector_112" d="M166 141C167.657 141 169 139.657 169 138C169 136.343 167.657 135 166 135C164.343 135 163 136.343 163 138C163 139.657 164.343 141 166 141Z" stroke="black" stroke-width="2" stroke-linecap="round" stroke-linejoin="round"/>
</g></svg>
