<svg viewBox="0 0 24 24" fill="none" xmlns="http://www.w3.org/2000/svg"><g transform="translate(-180 -88)">
<path id="Vector_75" d="M192.601 109.799C194.461 108.193 200 102.993 200 98C200 95.8783 199.157 93.8434 197.657 92.3431C196.157 90.8429 194.122 90 192 90C189.878 90 187.843 90.8429 186.343 92.3431C184.843 93.8434 184 95.8783 184 98C184 102.993 189.539 108.193 191.399 109.799C191.572 109.929 191.783 110 192 110C192.217 110 192.428 109.929 192.601 109.799Z" stroke="black" stroke-width="2" stroke-linecap="round" stroke-linejoin="round"/>
<path id="Vector_76" d="M192 101C193.657 101 195 99.6569 195 98C195 96.3431 193.657 95 192 95C190.343 95 189 96.3431 189 98C189 99.6569 190.343 101 192 101Z" stroke="black" stroke-width="2" stroke-linecap="round" stroke-linejoin="round"/>
</g></svg>
