<svg viewBox="0 0 24 24" fill="none" xmlns="http://www.w3.org/2000/svg"><g transform="translate(-212 -88)">
<path id="Vector_77" d="M231.43 100.935C231.787 99.968 232 98.98 232 98C232 95.8783 231.157 93.8434 229.657 92.3431C228.157 90.8429 226.122 90 224 90C221.878 90 219.843 90.8429 218.343 92.3431C216.843 93.8434 216 95.8783 216 98C216 102.993 221.539 108.193 223.399 109.799C223.572 109.929 223.783 110 224 110C224.217 110 224.428 109.929 224.601 109.799C224.876 109.561 225.147 109.318 225.414 109.071" stroke="black" stroke-width="2" stroke-linecap="round" stroke-linejoin="round"/>
<path id="Vector_78" d="M224 101C225.657 101 227 99.6569 227 98C227 96.3431 225.657 95 224 95C222.343 95 221 96.3431 221 98C221 99.6569 222.343 101 224 101Z" stroke="black" stroke-width="2" stroke-linecap="round" stroke-linejoin="round"/>
<path id="Vector_79" d="M228 106L230 108L234 104" stroke="black" stroke-width="2" stroke-linecap="round" stroke-linejoin="round"/>
</g></svg>
