<svg viewBox="0 0 24 24" fill="none" xmlns="http://www.w3.org/2000/svg"><g transform="translate(-276 -88)">
<path id="Vector_82" d="M291 110C290.735 110 290.48 109.895 290.293 109.707C290.105 109.519 290 109.265 290 109V105C290 104.835 290.041 104.673 290.118 104.528C290.196 104.383 290.308 104.259 290.445 104.168L293.445 102.168C293.609 102.058 293.802 102 294 102C294.198 102 294.391 102.058 294.555 102.168L297.555 104.168C297.692 104.259 297.804 104.383 297.882 104.528C297.959 104.673 298 104.835 298 105V109C298 109.265 297.895 109.519 297.707 109.707C297.52 109.895 297.265 110 297 110H291Z" stroke="black" stroke-width="2" stroke-linecap="round" stroke-linejoin="round"/>
<path id="Vector_83" d="M294 98C294 95.8783 293.157 93.8434 291.657 92.3431C290.157 90.8429 288.122 90 286 90C283.878 90 281.843 90.8429 280.343 92.3431C278.843 93.8434 278 95.8783 278 98C278 102.993 283.539 108.193 285.399 109.799C285.572 109.929 285.783 109.999 286 109.999" stroke="black" stroke-width="2" stroke-linecap="round" stroke-linejoin="round"/>
<path id="Vector_84" d="M294 110V107" stroke="black" stroke-width="2" stroke-linecap="round" stroke-linejoin="round"/>
<path id="Vector_85" d="M286 101C287.657 101 289 99.6569 289 98C289 96.3431 287.657 95 286 95C284.343 95 283 96.3431 283 98C283 99.6569 284.343 101 286 101Z" stroke="black" stroke-width="2" stroke-linecap="round" stroke-linejoin="round"/>
</g></svg>
