<svg viewBox="0 0 24 24" fill="none" xmlns="http://www.w3.org/2000/svg"><g transform="translate(-180 -120)">
<path id="Vector_113" d="M199.752 131.901C199.913 131.28 199.996 130.641 200 130C200 127.878 199.157 125.843 197.657 124.343C196.157 122.843 194.122 122 192 122C189.878 122 187.843 122.843 186.343 124.343C184.843 125.843 184 127.878 184 130C184 134.993 189.539 140.193 191.399 141.799C191.572 141.929 191.783 142 192 142C192.217 142 192.428 141.929 192.601 141.799C192.631 141.773 192.661 141.748 192.691 141.722" stroke="black" stroke-width="2" stroke-linecap="round" stroke-linejoin="round"/>
<path id="Vector_114" d="M192 133C193.657 133 195 131.657 195 130C195 128.343 193.657 127 192 127C190.343 127 189 128.343 189 130C189 131.657 190.343 133 192 133Z" stroke="black" stroke-width="2" stroke-linecap="round" stroke-linejoin="round"/>
<path id="Vector_115" d="M201.5 135.5L196.5 140.5" stroke="black" stroke-width="2" stroke-linecap="round" stroke-linejoin="round"/>
<path id="Vector_116" d="M201.5 140.5L196.5 135.5" stroke="black" stroke-width="2" stroke-linecap="round" stroke-linejoin="round"/>
</g></svg>
