<svg viewBox="0 0 24 24" fill="none" xmlns="http://www.w3.org/2000/svg"><g transform="translate(-116 -88)">
<path id="Vector_68" d="M130.106 93.553C130.384 93.6917 130.69 93.7639 131 93.7639C131.31 93.7639 131.616 93.6917 131.894 93.553L135.553 91.723C135.706 91.6468 135.875 91.6108 136.045 91.6186C136.216 91.6263 136.381 91.6776 136.526 91.7673C136.671 91.8571 136.791 91.9825 136.874 92.1316C136.957 92.2807 137 92.4485 137 92.619V105.383C137 105.569 136.948 105.751 136.85 105.909C136.753 106.066 136.613 106.194 136.447 106.277L131.894 108.554C131.616 108.693 131.31 108.765 131 108.765C130.69 108.765 130.384 108.693 130.106 108.554L125.894 106.448C125.616 106.309 125.31 106.237 125 106.237C124.69 106.237 124.384 106.309 124.106 106.448L120.447 108.278C120.294 108.354 120.125 108.39 119.954 108.382C119.784 108.375 119.618 108.323 119.473 108.233C119.328 108.144 119.208 108.018 119.126 107.869C119.043 107.72 119 107.552 119 107.381V94.618C119 94.4324 119.052 94.2504 119.15 94.0925C119.247 93.9346 119.387 93.807 119.553 93.724L124.106 91.447C124.384 91.3083 124.69 91.2361 125 91.2361C125.31 91.2361 125.616 91.3083 125.894 91.447L130.106 93.553Z" stroke="black" stroke-width="2" stroke-linecap="round" stroke-linejoin="round"/>
<path id="Vector_69" d="M131 93.7639V108.764" stroke="black" stroke-width="2" stroke-linecap="round" stroke-linejoin="round"/>
<path id="Vector_70" d="M125 91.2361V106.236" stroke="black" stroke-width="2" stroke-linecap="round" stroke-linejoin="round"/>
</g></svg>
