<svg viewBox="0 0 24 24" fill="none" xmlns="http://www.w3.org/2000/svg"><g transform="translate(-180 -152)">
<path id="Vector_172" d="M192 164L184.207 156.207C184.108 156.108 184.041 155.982 184.014 155.845C183.986 155.708 184 155.566 184.054 155.436C184.107 155.307 184.198 155.197 184.314 155.119C184.431 155.041 184.567 155 184.707 155H199.293C199.433 155 199.57 155.041 199.686 155.119C199.802 155.197 199.893 155.307 199.946 155.436C200 155.566 200.014 155.708 199.987 155.845C199.959 155.982 199.892 156.108 199.793 156.207L192 164Z" stroke="black" stroke-width="2" stroke-linecap="round" stroke-linejoin="round"/>
<path id="Vector_173" d="M192 164V174" stroke="black" stroke-width="2" stroke-linecap="round" stroke-linejoin="round"/>
<path id="Vector_174" d="M187 174H197" stroke="black" stroke-width="2" stroke-linecap="round" stroke-linejoin="round"/>
</g></svg>
