<svg viewBox="0 0 24 24" fill="none" xmlns="http://www.w3.org/2000/svg"><g transform="translate(-20 -152)">
<path id="Vector_145" d="M28 155H25C24.4696 155 23.9609 155.211 23.5858 155.586C23.2107 155.961 23 156.47 23 157V160" stroke="black" stroke-width="2" stroke-linecap="round" stroke-linejoin="round"/>
<path id="Vector_146" d="M41 160V157C41 156.47 40.7893 155.961 40.4142 155.586C40.0391 155.211 39.5304 155 39 155H36" stroke="black" stroke-width="2" stroke-linecap="round" stroke-linejoin="round"/>
<path id="Vector_147" d="M23 168V171C23 171.53 23.2107 172.039 23.5858 172.414C23.9609 172.789 24.4696 173 25 173H28" stroke="black" stroke-width="2" stroke-linecap="round" stroke-linejoin="round"/>
<path id="Vector_148" d="M36 173H39C39.5304 173 40.0391 172.789 40.4142 172.414C40.7893 172.039 41 171.53 41 171V168" stroke="black" stroke-width="2" stroke-linecap="round" stroke-linejoin="round"/>
</g></svg>
