<svg viewBox="0 0 24 24" fill="none" xmlns="http://www.w3.org/2000/svg"><g transform="translate(-212 -120)">
<path id="Vector_134" d="M219.21 135L214.66 127.14C214.464 126.801 214.372 126.412 214.395 126.02C214.418 125.629 214.556 125.254 214.79 124.94L216.4 122.8C216.587 122.552 216.828 122.35 217.106 122.211C217.384 122.072 217.69 122 218 122H230C230.311 122 230.617 122.072 230.895 122.211C231.173 122.35 231.414 122.552 231.6 122.8L233.2 124.94C233.437 125.253 233.576 125.628 233.601 126.019C233.626 126.41 233.535 126.8 233.34 127.14L228.79 135" stroke="black" stroke-width="2" stroke-linecap="round" stroke-linejoin="round"/>
<path id="Vector_135" d="M223 132L217.12 122.2" stroke="black" stroke-width="2" stroke-linecap="round" stroke-linejoin="round"/>
<path id="Vector_136" d="M225 132L230.88 122.2" stroke="black" stroke-width="2" stroke-linecap="round" stroke-linejoin="round"/>
<path id="Vector_137" d="M220 127H228" stroke="black" stroke-width="2" stroke-linecap="round" stroke-linejoin="round"/>
<path id="Vector_138" d="M224 142C226.761 142 229 139.761 229 137C229 134.239 226.761 132 224 132C221.239 132 219 134.239 219 137C219 139.761 221.239 142 224 142Z" stroke="black" stroke-width="2" stroke-linecap="round" stroke-linejoin="round"/>
<path id="Vector_139" d="M224 138V136H223.5" stroke="black" stroke-width="2" stroke-linecap="round" stroke-linejoin="round"/>
</g></svg>
