<svg viewBox="0 0 24 24" fill="none" xmlns="http://www.w3.org/2000/svg"><g transform="translate(-116 -88)">
<path id="Vector_48" d="M127.636 94C130.459 93.9348 133.185 92.9519 135.4 91.2C135.548 91.0886 135.725 91.0207 135.91 91.004C136.095 90.9874 136.281 91.0225 136.447 91.1056C136.613 91.1886 136.753 91.3163 136.85 91.4743C136.948 91.6322 137 91.8143 137 92V103.344" stroke="black" stroke-width="2" stroke-linecap="round" stroke-linejoin="round"/>
<path id="Vector_49" d="M130.378 102.357C129.272 102.091 128.137 101.971 127 102H121C120.47 102 119.961 101.789 119.586 101.414C119.211 101.039 119 100.53 119 100V96C119 95.4696 119.211 94.9609 119.586 94.5858C119.961 94.2107 120.47 94 121 94H122" stroke="black" stroke-width="2" stroke-linecap="round" stroke-linejoin="round"/>
<path id="Vector_50" d="M118 90L138 110" stroke="black" stroke-width="2" stroke-linecap="round" stroke-linejoin="round"/>
<path id="Vector_51" d="M122 102C122 104.596 122.842 107.123 124.4 109.2C124.718 109.624 125.192 109.905 125.717 109.98C126.242 110.055 126.776 109.918 127.2 109.6C127.624 109.282 127.905 108.808 127.98 108.283C128.055 107.758 127.918 107.224 127.6 106.8C126.561 105.415 126 103.731 126 102" stroke="black" stroke-width="2" stroke-linecap="round" stroke-linejoin="round"/>
<path id="Vector_52" d="M124 96V102" stroke="black" stroke-width="2" stroke-linecap="round" stroke-linejoin="round"/>
</g></svg>
