<svg viewBox="0 0 24 24" fill="none" xmlns="http://www.w3.org/2000/svg"><g transform="translate(-84 -88)">
<path id="Vector_45" d="M95 94C98.0414 94.0783 101.014 93.0875 103.4 91.2C103.549 91.0886 103.725 91.0207 103.91 91.004C104.095 90.9874 104.281 91.0225 104.447 91.1056C104.613 91.1886 104.753 91.3163 104.851 91.4743C104.948 91.6322 105 91.8143 105 92V104C105 104.186 104.948 104.368 104.851 104.526C104.753 104.684 104.613 104.811 104.447 104.894C104.281 104.977 104.095 105.013 103.91 104.996C103.725 104.979 103.549 104.911 103.4 104.8C101.014 102.912 98.0414 101.922 95 102H89C88.4696 102 87.9609 101.789 87.5858 101.414C87.2107 101.039 87 100.53 87 100V96C87 95.4696 87.2107 94.9609 87.5858 94.5858C87.9609 94.2107 88.4696 94 89 94H95Z" stroke="black" stroke-width="2" stroke-linecap="round" stroke-linejoin="round"/>
<path id="Vector_46" d="M90 102C90 104.596 90.8421 107.123 92.4 109.2C92.7183 109.624 93.1921 109.905 93.7172 109.98C94.2423 110.055 94.7757 109.918 95.2 109.6C95.6243 109.282 95.9049 108.808 95.9799 108.283C96.0549 107.758 95.9183 107.224 95.6 106.8C94.5614 105.415 94 103.731 94 102" stroke="black" stroke-width="2" stroke-linecap="round" stroke-linejoin="round"/>
<path id="Vector_47" d="M92 94V102" stroke="black" stroke-width="2" stroke-linecap="round" stroke-linejoin="round"/>
</g></svg>
