<svg viewBox="0 0 24 24" fill="none" xmlns="http://www.w3.org/2000/svg"><g transform="translate(-340 -88)">
<path id="Vector_73" d="M342 90L362 110" stroke="black" stroke-width="2" stroke-linecap="round" stroke-linejoin="round"/>
<path id="Vector_74" d="M344.93 92.929C343.464 94.3954 342.49 96.2814 342.142 98.326C341.795 100.371 342.092 102.473 342.992 104.341C343.14 104.712 343.172 105.118 343.086 105.508L342.021 108.798C341.987 108.965 341.996 109.138 342.047 109.3C342.098 109.463 342.19 109.609 342.314 109.726C342.438 109.843 342.59 109.927 342.755 109.969C342.92 110.011 343.093 110.01 343.257 109.966L346.67 108.968C347.038 108.895 347.419 108.927 347.769 109.06C349.63 109.929 351.712 110.204 353.734 109.848C355.756 109.492 357.62 108.523 359.071 107.071" stroke="black" stroke-width="2" stroke-linecap="round" stroke-linejoin="round"/>
<path id="Vector_75" d="M348.35 90.69C350.16 89.9828 352.138 89.8187 354.04 90.2177C355.943 90.6166 357.688 91.5614 359.061 92.9364C360.435 94.3114 361.379 96.0571 361.776 97.9598C362.174 99.8626 362.008 101.84 361.3 103.65" stroke="black" stroke-width="2" stroke-linecap="round" stroke-linejoin="round"/>
</g></svg>
