<svg viewBox="0 0 24 24" fill="none" xmlns="http://www.w3.org/2000/svg"><g transform="translate(-148 -152)">
<path id="Vector_131" d="M170 169C170 169.53 169.789 170.039 169.414 170.414C169.039 170.789 168.53 171 168 171H154.828C154.298 171 153.789 171.211 153.414 171.586L151.212 173.788C151.113 173.887 150.986 173.955 150.848 173.982C150.711 174.01 150.568 173.996 150.438 173.942C150.309 173.888 150.198 173.797 150.12 173.68C150.042 173.564 150 173.426 150 173.286V157C150 156.47 150.211 155.961 150.586 155.586C150.961 155.211 151.47 155 152 155H168C168.53 155 169.039 155.211 169.414 155.586C169.789 155.961 170 156.47 170 157V169Z" stroke="black" stroke-width="2" stroke-linecap="round" stroke-linejoin="round"/>
<path id="Vector_132" d="M158 160L155 163L158 166" stroke="black" stroke-width="2" stroke-linecap="round" stroke-linejoin="round"/>
<path id="Vector_133" d="M165 166V165C165 164.47 164.789 163.961 164.414 163.586C164.039 163.211 163.53 163 163 163H155" stroke="black" stroke-width="2" stroke-linecap="round" stroke-linejoin="round"/>
</g></svg>
