<svg viewBox="0 0 24 24" fill="none" xmlns="http://www.w3.org/2000/svg"><g transform="translate(-276 -152)">
<path id="Vector_144" d="M298 169C298 169.53 297.789 170.039 297.414 170.414C297.039 170.789 296.53 171 296 171H282.828C282.298 171 281.789 171.211 281.414 171.586L279.212 173.788C279.113 173.887 278.986 173.955 278.848 173.982C278.711 174.01 278.568 173.996 278.438 173.942C278.309 173.888 278.198 173.797 278.12 173.68C278.042 173.564 278 173.426 278 173.286V157C278 156.47 278.211 155.961 278.586 155.586C278.961 155.211 279.47 155 280 155H296C296.53 155 297.039 155.211 297.414 155.586C297.789 155.961 298 156.47 298 157V169Z" stroke="black" stroke-width="2" stroke-linecap="round" stroke-linejoin="round"/>
<path id="Vector_145" d="M290.5 160.5L285.5 165.5" stroke="black" stroke-width="2" stroke-linecap="round" stroke-linejoin="round"/>
<path id="Vector_146" d="M285.5 160.5L290.5 165.5" stroke="black" stroke-width="2" stroke-linecap="round" stroke-linejoin="round"/>
</g></svg>
