<svg viewBox="0 0 24 24" fill="none" xmlns="http://www.w3.org/2000/svg"><g transform="translate(-116 -120)">
<path id="Vector_88" d="M119.086 137.509C119.171 137.119 119.139 136.713 118.992 136.342C117.968 134.219 117.728 131.803 118.313 129.52C118.897 127.236 120.269 125.233 122.187 123.863C124.105 122.493 126.445 121.845 128.794 122.032C131.143 122.219 133.351 123.23 135.028 124.886C136.704 126.542 137.742 128.738 137.958 131.084C138.174 133.431 137.554 135.779 136.207 137.713C134.861 139.648 132.875 141.044 130.599 141.657C128.323 142.269 125.904 142.058 123.769 141.061C123.418 140.928 123.037 140.896 122.67 140.969L119.257 141.967C119.092 142.011 118.919 142.012 118.754 141.97C118.589 141.928 118.437 141.844 118.313 141.727C118.19 141.61 118.098 141.464 118.046 141.301C117.995 141.139 117.986 140.966 118.021 140.799L119.086 137.509Z" stroke="black" stroke-width="2" stroke-linecap="round" stroke-linejoin="round"/>
<path id="Vector_89" d="M131 129L125 135" stroke="black" stroke-width="2" stroke-linecap="round" stroke-linejoin="round"/>
<path id="Vector_90" d="M125 129L131 135" stroke="black" stroke-width="2" stroke-linecap="round" stroke-linejoin="round"/>
</g></svg>
