<svg viewBox="0 0 24 24" fill="none" xmlns="http://www.w3.org/2000/svg"><g transform="translate(-244 -88)">
<path id="Vector_59" d="M254.1 90.182C255.355 89.9392 256.645 89.9392 257.9 90.182" stroke="black" stroke-width="2" stroke-linecap="round" stroke-linejoin="round"/>
<path id="Vector_60" d="M257.9 109.818C256.645 110.061 255.355 110.061 254.1 109.818" stroke="black" stroke-width="2" stroke-linecap="round" stroke-linejoin="round"/>
<path id="Vector_61" d="M261.609 91.72C262.671 92.4392 263.584 93.3558 264.299 94.42" stroke="black" stroke-width="2" stroke-linecap="round" stroke-linejoin="round"/>
<path id="Vector_62" d="M246.182 101.9C245.939 100.645 245.939 99.355 246.182 98.1" stroke="black" stroke-width="2" stroke-linecap="round" stroke-linejoin="round"/>
<path id="Vector_63" d="M264.28 105.61C263.561 106.671 262.644 107.585 261.58 108.3" stroke="black" stroke-width="2" stroke-linecap="round" stroke-linejoin="round"/>
<path id="Vector_64" d="M265.818 98.1C266.061 99.355 266.061 100.645 265.818 101.9" stroke="black" stroke-width="2" stroke-linecap="round" stroke-linejoin="round"/>
<path id="Vector_65" d="M247.721 94.391C248.44 93.3296 249.357 92.4163 250.421 91.701" stroke="black" stroke-width="2" stroke-linecap="round" stroke-linejoin="round"/>
<path id="Vector_66" d="M250.163 109.117L247.257 109.967C247.092 110.011 246.919 110.012 246.754 109.97C246.588 109.928 246.437 109.844 246.313 109.727C246.189 109.61 246.097 109.463 246.046 109.3C245.995 109.138 245.986 108.965 246.021 108.798L246.986 105.818" stroke="black" stroke-width="2" stroke-linecap="round" stroke-linejoin="round"/>
</g></svg>
