<svg viewBox="0 0 24 24" fill="none" xmlns="http://www.w3.org/2000/svg"><g transform="translate(-84 -152)">
<path id="Vector_125" d="M106 169C106 169.53 105.789 170.039 105.414 170.414C105.039 170.789 104.53 171 104 171H90.828C90.2976 171 89.789 171.211 89.414 171.586L87.212 173.788C87.1127 173.887 86.9862 173.955 86.8485 173.982C86.7108 174.01 86.568 173.996 86.4383 173.942C86.3086 173.888 86.1977 173.797 86.1197 173.68C86.0417 173.564 86 173.426 86 173.286V157C86 156.47 86.2107 155.961 86.5858 155.586C86.9609 155.211 87.4696 155 88 155H104C104.53 155 105.039 155.211 105.414 155.586C105.789 155.961 106 156.47 106 157V169Z" stroke="black" stroke-width="2" stroke-linecap="round" stroke-linejoin="round"/>
<path id="Vector_126" d="M96 160V166" stroke="black" stroke-width="2" stroke-linecap="round" stroke-linejoin="round"/>
<path id="Vector_127" d="M93 163H99" stroke="black" stroke-width="2" stroke-linecap="round" stroke-linejoin="round"/>
</g></svg>
