<svg viewBox="0 0 24 24" fill="none" xmlns="http://www.w3.org/2000/svg"><g transform="translate(-244 -152)">
<path id="Vector_141" d="M266 169C266 169.53 265.789 170.039 265.414 170.414C265.039 170.789 264.53 171 264 171H250.828C250.298 171 249.789 171.211 249.414 171.586L247.212 173.788C247.113 173.887 246.986 173.955 246.848 173.982C246.711 174.01 246.568 173.996 246.438 173.942C246.309 173.888 246.198 173.797 246.12 173.68C246.042 173.564 246 173.426 246 173.286V157C246 156.47 246.211 155.961 246.586 155.586C246.961 155.211 247.47 155 248 155H264C264.53 155 265.039 155.211 265.414 155.586C265.789 155.961 266 156.47 266 157V169Z" stroke="black" stroke-width="2" stroke-linecap="round" stroke-linejoin="round"/>
<path id="Vector_142" d="M256 167H256.01" stroke="black" stroke-width="2" stroke-linecap="round" stroke-linejoin="round"/>
<path id="Vector_143" d="M256 159V163" stroke="black" stroke-width="2" stroke-linecap="round" stroke-linejoin="round"/>
</g></svg>
