<svg viewBox="0 0 24 24" fill="none" xmlns="http://www.w3.org/2000/svg"><g transform="translate(-276 -120)">
<path id="Vector_107" d="M298 137C298 137.53 297.789 138.039 297.414 138.414C297.039 138.789 296.53 139 296 139H282.828C282.298 139 281.789 139.211 281.414 139.586L279.212 141.788C279.113 141.887 278.986 141.955 278.848 141.982C278.711 142.01 278.568 141.996 278.438 141.942C278.309 141.888 278.198 141.797 278.12 141.68C278.042 141.564 278 141.426 278 141.286V125C278 124.47 278.211 123.961 278.586 123.586C278.961 123.211 279.47 123 280 123H296C296.53 123 297.039 123.211 297.414 123.586C297.789 123.961 298 124.47 298 125V137Z" stroke="black" stroke-width="2" stroke-linecap="round" stroke-linejoin="round"/>
<path id="Vector_108" d="M286 135H290" stroke="black" stroke-width="2" stroke-linecap="round" stroke-linejoin="round"/>
<path id="Vector_109" d="M286 129H290" stroke="black" stroke-width="2" stroke-linecap="round" stroke-linejoin="round"/>
<path id="Vector_110" d="M288 127V131" stroke="black" stroke-width="2" stroke-linecap="round" stroke-linejoin="round"/>
</g></svg>
