<svg viewBox="0 0 24 24" fill="none" xmlns="http://www.w3.org/2000/svg"><g transform="translate(-180 -88)">
<path id="Vector_54" d="M183.086 105.509C183.171 105.119 183.139 104.713 182.992 104.342C181.968 102.219 181.728 99.8027 182.313 97.5196C182.897 95.2365 184.269 93.2332 186.187 91.8633C188.105 90.4933 190.445 89.8447 192.794 90.0318C195.143 90.219 197.351 91.2299 199.028 92.8861C200.704 94.5424 201.742 96.7376 201.958 99.0845C202.174 101.431 201.554 103.779 200.207 105.713C198.861 107.648 196.875 109.044 194.599 109.657C192.323 110.269 189.904 110.058 187.769 109.061C187.418 108.928 187.037 108.896 186.67 108.969L183.257 109.967C183.092 110.011 182.919 110.012 182.754 109.97C182.589 109.928 182.437 109.844 182.313 109.727C182.19 109.61 182.098 109.464 182.046 109.301C181.995 109.139 181.986 108.966 182.021 108.799L183.086 105.509Z" stroke="black" stroke-width="2" stroke-linecap="round" stroke-linejoin="round"/>
<path id="Vector_55" d="M189 100L191 102L195 98" stroke="black" stroke-width="2" stroke-linecap="round" stroke-linejoin="round"/>
</g></svg>
