<svg viewBox="0 0 24 24" fill="none" xmlns="http://www.w3.org/2000/svg"><g transform="translate(-340 -120)">
<path id="Vector_113" d="M362 137C362 137.53 361.789 138.039 361.414 138.414C361.039 138.789 360.53 139 360 139H346.828C346.298 139 345.789 139.211 345.414 139.586L343.212 141.788C343.113 141.887 342.986 141.955 342.848 141.982C342.711 142.01 342.568 141.996 342.438 141.942C342.309 141.888 342.198 141.797 342.12 141.68C342.042 141.564 342 141.426 342 141.286V125C342 124.47 342.211 123.961 342.586 123.586C342.961 123.211 343.47 123 344 123H360C360.53 123 361.039 123.211 361.414 123.586C361.789 123.961 362 124.47 362 125V137Z" stroke="black" stroke-width="2" stroke-linecap="round" stroke-linejoin="round"/>
<path id="Vector_114" d="M347.5 129.5C347.5 130.187 347.765 130.883 348.197 131.344L351.206 134.608C351.316 134.742 351.455 134.85 351.613 134.922C351.737 134.974 351.87 135.001 352.005 135C352.139 134.999 352.272 134.971 352.396 134.918C352.55 134.846 352.686 134.74 352.794 134.608L355.802 131.344C356.253 130.836 356.501 130.179 356.5 129.5C356.5 128.975 356.335 128.464 356.028 128.038C355.721 127.613 355.288 127.294 354.791 127.128C354.293 126.962 353.755 126.957 353.255 127.114C352.754 127.27 352.315 127.58 352 128C351.685 127.58 351.246 127.27 350.745 127.114C350.245 126.957 349.707 126.962 349.209 127.128C348.712 127.294 348.279 127.613 347.972 128.038C347.665 128.464 347.5 128.975 347.5 129.5Z" stroke="black" stroke-width="2" stroke-linecap="round" stroke-linejoin="round"/>
</g></svg>
