<svg viewBox="0 0 24 24" fill="none" xmlns="http://www.w3.org/2000/svg"><g transform="translate(-148 -88)">
<path id="Vector_53" d="M151.086 105.509C151.171 105.119 151.139 104.713 150.992 104.342C149.968 102.219 149.728 99.8027 150.313 97.5196C150.897 95.2365 152.269 93.2332 154.187 91.8633C156.105 90.4933 158.445 89.8447 160.794 90.0318C163.143 90.219 165.351 91.2299 167.028 92.8861C168.704 94.5424 169.742 96.7376 169.958 99.0845C170.174 101.431 169.554 103.779 168.207 105.713C166.861 107.648 164.875 109.044 162.599 109.657C160.323 110.269 157.904 110.058 155.769 109.061C155.418 108.928 155.037 108.896 154.67 108.969L151.257 109.967C151.092 110.011 150.919 110.012 150.754 109.97C150.589 109.928 150.437 109.844 150.313 109.727C150.19 109.61 150.098 109.464 150.046 109.301C149.995 109.139 149.986 108.966 150.021 108.799L151.086 105.509Z" stroke="black" stroke-width="2" stroke-linecap="round" stroke-linejoin="round"/>
</g></svg>
