<svg viewBox="0 0 24 24" fill="none" xmlns="http://www.w3.org/2000/svg"><g transform="translate(-180 -152)">
<path id="Vector_134" d="M192 155H184C183.47 155 182.961 155.211 182.586 155.586C182.211 155.961 182 156.47 182 157V173.286C182 173.426 182.042 173.564 182.12 173.68C182.198 173.797 182.309 173.888 182.438 173.942C182.568 173.996 182.711 174.01 182.848 173.982C182.986 173.955 183.113 173.887 183.212 173.788L185.414 171.586C185.789 171.211 186.298 171 186.828 171H200C200.53 171 201.039 170.789 201.414 170.414C201.789 170.039 202 169.53 202 169V165" stroke="black" stroke-width="2" stroke-linecap="round" stroke-linejoin="round"/>
<path id="Vector_135" d="M196 155H202V161" stroke="black" stroke-width="2" stroke-linecap="round" stroke-linejoin="round"/>
<path id="Vector_136" d="M196 161L202 155" stroke="black" stroke-width="2" stroke-linecap="round" stroke-linejoin="round"/>
</g></svg>
