<svg viewBox="0 0 24 24" fill="none" xmlns="http://www.w3.org/2000/svg"><g transform="translate(-308 -120)">
<path id="Vector_111" d="M320.7 123H312C311.47 123 310.961 123.211 310.586 123.586C310.211 123.961 310 124.47 310 125V141.286C310 141.426 310.042 141.564 310.12 141.68C310.198 141.797 310.309 141.888 310.438 141.942C310.568 141.996 310.711 142.01 310.848 141.982C310.986 141.955 311.113 141.887 311.212 141.788L313.414 139.586C313.789 139.211 314.298 139 314.828 139H328C328.53 139 329.039 138.789 329.414 138.414C329.789 138.039 330 137.53 330 137V132.3" stroke="black" stroke-width="2" stroke-linecap="round" stroke-linejoin="round"/>
<path id="Vector_112" d="M327 129C328.657 129 330 127.657 330 126C330 124.343 328.657 123 327 123C325.343 123 324 124.343 324 126C324 127.657 325.343 129 327 129Z" stroke="black" stroke-width="2" stroke-linecap="round" stroke-linejoin="round"/>
</g></svg>
