<svg viewBox="0 0 24 24" fill="none" xmlns="http://www.w3.org/2000/svg"><g transform="translate(-84 -120)">
<path id="Vector_85" d="M87.0857 137.509C87.1715 137.119 87.1387 136.713 86.9917 136.342C85.9685 134.219 85.7279 131.803 86.3126 129.52C86.8972 127.236 88.2694 125.233 90.1871 123.863C92.1048 122.493 94.4448 121.845 96.7941 122.032C99.1434 122.219 101.351 123.23 103.028 124.886C104.704 126.542 105.742 128.738 105.958 131.084C106.174 133.431 105.554 135.779 104.207 137.713C102.861 139.648 100.875 141.044 98.5988 141.657C96.3231 142.269 93.9041 142.058 91.7687 141.061C91.4182 140.928 91.0374 140.896 90.6697 140.969L87.2567 141.967C87.0921 142.011 86.919 142.012 86.7539 141.97C86.5888 141.928 86.4372 141.844 86.3134 141.727C86.1896 141.61 86.0977 141.464 86.0465 141.301C85.9952 141.139 85.9864 140.966 86.0207 140.799L87.0857 137.509Z" stroke="black" stroke-width="2" stroke-linecap="round" stroke-linejoin="round"/>
<path id="Vector_86" d="M96 128V132" stroke="black" stroke-width="2" stroke-linecap="round" stroke-linejoin="round"/>
<path id="Vector_87" d="M96 136H96.01" stroke="black" stroke-width="2" stroke-linecap="round" stroke-linejoin="round"/>
</g></svg>
