<svg viewBox="0 0 24 24" fill="none" xmlns="http://www.w3.org/2000/svg"><g transform="translate(-52 -120)">
<path id="Vector_82" d="M55.0857 137.509C55.1715 137.119 55.1387 136.713 54.9917 136.342C53.9685 134.219 53.7279 131.803 54.3126 129.52C54.8972 127.236 56.2694 125.233 58.1871 123.863C60.1048 122.493 62.4448 121.845 64.7941 122.032C67.1434 122.219 69.3511 123.23 71.0278 124.886C72.7044 126.542 73.7422 128.738 73.958 131.084C74.1738 133.431 73.5538 135.779 72.2074 137.713C70.861 139.648 68.8746 141.044 66.5988 141.657C64.3231 142.269 61.9041 142.058 59.7687 141.061C59.4182 140.928 59.0374 140.896 58.6697 140.969L55.2567 141.967C55.0921 142.011 54.919 142.012 54.7539 141.97C54.5888 141.928 54.4372 141.844 54.3134 141.727C54.1896 141.61 54.0977 141.464 54.0465 141.301C53.9952 141.139 53.9864 140.966 54.0207 140.799L55.0857 137.509Z" stroke="black" stroke-width="2" stroke-linecap="round" stroke-linejoin="round"/>
<path id="Vector_83" d="M62 135L59 132L62 129" stroke="black" stroke-width="2" stroke-linecap="round" stroke-linejoin="round"/>
<path id="Vector_84" d="M59 132H67C67.5304 132 68.0391 132.211 68.4142 132.586C68.7893 132.961 69 133.47 69 134V135" stroke="black" stroke-width="2" stroke-linecap="round" stroke-linejoin="round"/>
</g></svg>
