<svg viewBox="0 0 24 24" fill="none" xmlns="http://www.w3.org/2000/svg"><g transform="translate(-372 -88)">
<path id="Vector_76" d="M375.086 105.509C375.171 105.119 375.139 104.713 374.992 104.342C373.968 102.219 373.728 99.8027 374.313 97.5196C374.897 95.2365 376.269 93.2332 378.187 91.8633C380.105 90.4933 382.445 89.8447 384.794 90.0318C387.143 90.219 389.351 91.2299 391.028 92.8861C392.704 94.5424 393.742 96.7376 393.958 99.0845C394.174 101.431 393.554 103.779 392.207 105.713C390.861 107.648 388.875 109.044 386.599 109.657C384.323 110.269 381.904 110.058 379.769 109.061C379.418 108.928 379.037 108.896 378.67 108.969L375.257 109.967C375.092 110.011 374.919 110.012 374.754 109.97C374.589 109.928 374.437 109.844 374.313 109.727C374.19 109.61 374.098 109.464 374.046 109.301C373.995 109.139 373.986 108.966 374.021 108.799L375.086 105.509Z" stroke="black" stroke-width="2" stroke-linecap="round" stroke-linejoin="round"/>
<path id="Vector_77" d="M380 100H388" stroke="black" stroke-width="2" stroke-linecap="round" stroke-linejoin="round"/>
<path id="Vector_78" d="M384 96V104" stroke="black" stroke-width="2" stroke-linecap="round" stroke-linejoin="round"/>
</g></svg>
