<svg viewBox="0 0 24 24" fill="none" xmlns="http://www.w3.org/2000/svg"><g transform="translate(-20 -152)">
<path id="Vector_118" d="M42 169C42 169.53 41.7893 170.039 41.4142 170.414C41.0391 170.789 40.5304 171 40 171H26.828C26.2976 171 25.789 171.211 25.414 171.586L23.212 173.788C23.1127 173.887 22.9862 173.955 22.8485 173.982C22.7108 174.01 22.568 173.996 22.4383 173.942C22.3086 173.888 22.1977 173.797 22.1197 173.68C22.0417 173.564 22 173.426 22 173.286V157C22 156.47 22.2107 155.961 22.5858 155.586C22.9609 155.211 23.4696 155 24 155H40C40.5304 155 41.0391 155.211 41.4142 155.586C41.7893 155.961 42 156.47 42 157V169Z" stroke="black" stroke-width="2" stroke-linecap="round" stroke-linejoin="round"/>
<path id="Vector_119" d="M32 163H32.01" stroke="black" stroke-width="2" stroke-linecap="round" stroke-linejoin="round"/>
<path id="Vector_120" d="M36 163H36.01" stroke="black" stroke-width="2" stroke-linecap="round" stroke-linejoin="round"/>
<path id="Vector_121" d="M28 163H28.01" stroke="black" stroke-width="2" stroke-linecap="round" stroke-linejoin="round"/>
</g></svg>
