<svg viewBox="0 0 24 24" fill="none" xmlns="http://www.w3.org/2000/svg"><g transform="translate(-212 -88)">
<path id="Vector_56" d="M222 97L219 100L222 103" stroke="black" stroke-width="2" stroke-linecap="round" stroke-linejoin="round"/>
<path id="Vector_57" d="M226 103L229 100L226 97" stroke="black" stroke-width="2" stroke-linecap="round" stroke-linejoin="round"/>
<path id="Vector_58" d="M215.086 105.509C215.171 105.119 215.139 104.713 214.992 104.342C213.968 102.219 213.728 99.8027 214.313 97.5196C214.897 95.2365 216.269 93.2332 218.187 91.8633C220.105 90.4933 222.445 89.8447 224.794 90.0318C227.143 90.219 229.351 91.2299 231.028 92.8861C232.704 94.5424 233.742 96.7376 233.958 99.0845C234.174 101.431 233.554 103.779 232.207 105.713C230.861 107.648 228.875 109.044 226.599 109.657C224.323 110.269 221.904 110.058 219.769 109.061C219.418 108.928 219.037 108.896 218.67 108.969L215.257 109.967C215.092 110.011 214.919 110.012 214.754 109.97C214.589 109.928 214.437 109.844 214.313 109.727C214.19 109.61 214.098 109.464 214.046 109.301C213.995 109.139 213.986 108.966 214.021 108.799L215.086 105.509Z" stroke="black" stroke-width="2" stroke-linecap="round" stroke-linejoin="round"/>
</g></svg>
