<svg viewBox="0 0 24 24" fill="none" xmlns="http://www.w3.org/2000/svg"><g transform="translate(-180 -120)">
<path id="Vector_92" d="M202 137C202 137.53 201.79 138.039 201.415 138.414C201.04 138.789 200.531 139 200 139H186.828C186.298 139 185.789 139.211 185.414 139.586L183.212 141.788C183.115 141.892 182.988 141.965 182.849 141.995C182.709 142.025 182.564 142.012 182.432 141.958C182.3 141.903 182.188 141.81 182.111 141.69C182.034 141.569 181.995 141.429 182 141.286V125C182 124.47 182.211 123.961 182.586 123.586C182.961 123.211 183.47 123 184 123H200C200.531 123 201.04 123.211 201.415 123.586C201.79 123.961 202 124.47 202 125V137Z" stroke="black" stroke-width="2" stroke-linecap="round" stroke-linejoin="round"/>
<path id="Vector_93" d="M189 131L191 133L195 129" stroke="black" stroke-width="2" stroke-linecap="round" stroke-linejoin="round"/>
</g></svg>
