<svg viewBox="0 0 24 24" fill="none" xmlns="http://www.w3.org/2000/svg"><g transform="translate(-212 -120)">
<path id="Vector_94" d="M234 137C234 137.53 233.789 138.039 233.414 138.414C233.039 138.789 232.53 139 232 139H218.828C218.298 139 217.789 139.211 217.414 139.586L215.212 141.788C215.113 141.887 214.986 141.955 214.848 141.982C214.711 142.01 214.568 141.996 214.438 141.942C214.309 141.888 214.198 141.797 214.12 141.68C214.042 141.564 214 141.426 214 141.286V125C214 124.47 214.211 123.961 214.586 123.586C214.961 123.211 215.47 123 216 123H232C232.53 123 233.039 123.211 233.414 123.586C233.789 123.961 234 124.47 234 125V137Z" stroke="black" stroke-width="2" stroke-linecap="round" stroke-linejoin="round"/>
<path id="Vector_95" d="M222 128L219 131L222 134" stroke="black" stroke-width="2" stroke-linecap="round" stroke-linejoin="round"/>
<path id="Vector_96" d="M226 134L229 131L226 128" stroke="black" stroke-width="2" stroke-linecap="round" stroke-linejoin="round"/>
</g></svg>
