<svg viewBox="0 0 24 24" fill="none" xmlns="http://www.w3.org/2000/svg"><g transform="translate(-20 -120)">
<path id="Vector_79" d="M23.0857 137.509C23.1715 137.119 23.1387 136.713 22.9917 136.342C21.9685 134.219 21.7279 131.803 22.3126 129.52C22.8972 127.236 24.2694 125.233 26.1871 123.863C28.1048 122.493 30.4448 121.845 32.7941 122.032C35.1434 122.219 37.3511 123.23 39.0278 124.886C40.7044 126.542 41.7422 128.738 41.958 131.084C42.1738 133.431 41.5538 135.779 40.2074 137.713C38.861 139.648 36.8746 141.044 34.5988 141.657C32.3231 142.269 29.9041 142.058 27.7687 141.061C27.4182 140.928 27.0374 140.896 26.6697 140.969L23.2567 141.967C23.0921 142.011 22.919 142.012 22.7539 141.97C22.5888 141.928 22.4372 141.844 22.3134 141.727C22.1896 141.61 22.0977 141.464 22.0465 141.301C21.9952 141.139 21.9864 140.966 22.0207 140.799L23.0857 137.509Z" stroke="black" stroke-width="2" stroke-linecap="round" stroke-linejoin="round"/>
<path id="Vector_80" d="M29.0898 129C29.3249 128.332 29.789 127.768 30.3998 127.409C31.0106 127.05 31.7287 126.919 32.427 127.039C33.1253 127.158 33.7587 127.521 34.2149 128.063C34.6712 128.605 34.9209 129.291 34.9198 130C34.9198 132 31.9198 133 31.9198 133" stroke="black" stroke-width="2" stroke-linecap="round" stroke-linejoin="round"/>
<path id="Vector_81" d="M32 137H32.01" stroke="black" stroke-width="2" stroke-linecap="round" stroke-linejoin="round"/>
</g></svg>
