<svg viewBox="0 0 24 24" fill="none" xmlns="http://www.w3.org/2000/svg"><g transform="translate(-372 -120)">
<path id="Vector_115" d="M394 128.5V125C394 124.47 393.789 123.961 393.414 123.586C393.039 123.211 392.53 123 392 123H376C375.47 123 374.961 123.211 374.586 123.586C374.211 123.961 374 124.47 374 125V141.286C374 141.426 374.042 141.564 374.12 141.68C374.198 141.797 374.309 141.888 374.438 141.942C374.568 141.996 374.711 142.01 374.848 141.982C374.986 141.955 375.113 141.887 375.212 141.788L377.414 139.586C377.789 139.211 378.298 139 378.828 139H382" stroke="black" stroke-width="2" stroke-linecap="round" stroke-linejoin="round"/>
<path id="Vector_116" d="M392 135V133C392 132.47 391.789 131.961 391.414 131.586C391.039 131.211 390.53 131 390 131C389.47 131 388.961 131.211 388.586 131.586C388.211 131.961 388 132.47 388 133V135" stroke="black" stroke-width="2" stroke-linecap="round" stroke-linejoin="round"/>
<path id="Vector_117" d="M393 135H387C386.448 135 386 135.448 386 136V139C386 139.552 386.448 140 387 140H393C393.552 140 394 139.552 394 139V136C394 135.448 393.552 135 393 135Z" stroke="black" stroke-width="2" stroke-linecap="round" stroke-linejoin="round"/>
</g></svg>
