<svg viewBox="0 0 24 24" fill="none" xmlns="http://www.w3.org/2000/svg"><g transform="translate(-308 -88)">
<path id="Vector_69" d="M311.086 105.509C311.171 105.119 311.139 104.713 310.992 104.342C309.968 102.219 309.728 99.8027 310.313 97.5196C310.897 95.2365 312.269 93.2332 314.187 91.8633C316.105 90.4933 318.445 89.8447 320.794 90.0318C323.143 90.219 325.351 91.2299 327.028 92.8861C328.704 94.5424 329.742 96.7376 329.958 99.0845C330.174 101.431 329.554 103.779 328.207 105.713C326.861 107.648 324.875 109.044 322.599 109.657C320.323 110.269 317.904 110.058 315.769 109.061C315.418 108.928 315.037 108.896 314.67 108.969L311.257 109.967C311.092 110.011 310.919 110.012 310.754 109.97C310.589 109.928 310.437 109.844 310.313 109.727C310.19 109.61 310.098 109.464 310.046 109.301C309.995 109.139 309.986 108.966 310.021 108.799L311.086 105.509Z" stroke="black" stroke-width="2" stroke-linecap="round" stroke-linejoin="round"/>
<path id="Vector_70" d="M316 100H316.01" stroke="black" stroke-width="2" stroke-linecap="round" stroke-linejoin="round"/>
<path id="Vector_71" d="M320 100H320.01" stroke="black" stroke-width="2" stroke-linecap="round" stroke-linejoin="round"/>
<path id="Vector_72" d="M324 100H324.01" stroke="black" stroke-width="2" stroke-linecap="round" stroke-linejoin="round"/>
</g></svg>
