<svg viewBox="0 0 24 24" fill="none" xmlns="http://www.w3.org/2000/svg"><g transform="translate(-148 -120)">
<path id="Vector_91" d="M170 137C170 137.53 169.789 138.039 169.414 138.414C169.039 138.789 168.53 139 168 139H154.828C154.298 139 153.789 139.211 153.414 139.586L151.212 141.788C151.113 141.887 150.986 141.955 150.848 141.982C150.711 142.01 150.568 141.996 150.438 141.942C150.309 141.888 150.198 141.797 150.12 141.68C150.042 141.564 150 141.426 150 141.286V125C150 124.47 150.211 123.961 150.586 123.586C150.961 123.211 151.47 123 152 123H168C168.53 123 169.039 123.211 169.414 123.586C169.789 123.961 170 124.47 170 125V137Z" stroke="black" stroke-width="2" stroke-linecap="round" stroke-linejoin="round"/>
</g></svg>
