<svg viewBox="0 0 24 24" fill="none" xmlns="http://www.w3.org/2000/svg"><g transform="translate(-244 -120)">
<path id="Vector_97" d="M258 123H260" stroke="black" stroke-width="2" stroke-linecap="round" stroke-linejoin="round"/>
<path id="Vector_98" d="M260 139H258" stroke="black" stroke-width="2" stroke-linecap="round" stroke-linejoin="round"/>
<path id="Vector_99" d="M246 132V130" stroke="black" stroke-width="2" stroke-linecap="round" stroke-linejoin="round"/>
<path id="Vector_100" d="M246 136V141.286C246 141.426 246.042 141.564 246.12 141.68C246.198 141.797 246.309 141.888 246.438 141.942C246.568 141.996 246.711 142.01 246.848 141.982C246.986 141.955 247.113 141.887 247.212 141.788L248.361 140.639" stroke="black" stroke-width="2" stroke-linecap="round" stroke-linejoin="round"/>
<path id="Vector_101" d="M264 139C264.53 139 265.039 138.789 265.414 138.414C265.789 138.039 266 137.53 266 137V136" stroke="black" stroke-width="2" stroke-linecap="round" stroke-linejoin="round"/>
<path id="Vector_102" d="M266 130V132" stroke="black" stroke-width="2" stroke-linecap="round" stroke-linejoin="round"/>
<path id="Vector_103" d="M266 126V125C266 124.47 265.789 123.961 265.414 123.586C265.039 123.211 264.53 123 264 123" stroke="black" stroke-width="2" stroke-linecap="round" stroke-linejoin="round"/>
<path id="Vector_104" d="M248 123C247.47 123 246.961 123.211 246.586 123.586C246.211 123.961 246 124.47 246 125V126" stroke="black" stroke-width="2" stroke-linecap="round" stroke-linejoin="round"/>
<path id="Vector_105" d="M252 139H254" stroke="black" stroke-width="2" stroke-linecap="round" stroke-linejoin="round"/>
<path id="Vector_106" d="M252 123H254" stroke="black" stroke-width="2" stroke-linecap="round" stroke-linejoin="round"/>
</g></svg>
