<svg viewBox="0 0 24 24" fill="none" xmlns="http://www.w3.org/2000/svg"><g transform="translate(-276 -88)">
<path id="Vector_67" d="M279.086 105.509C279.171 105.119 279.139 104.713 278.992 104.342C277.968 102.219 277.728 99.8027 278.313 97.5196C278.897 95.2365 280.269 93.2332 282.187 91.8633C284.105 90.4933 286.445 89.8447 288.794 90.0318C291.143 90.219 293.351 91.2299 295.028 92.8861C296.704 94.5424 297.742 96.7376 297.958 99.0845C298.174 101.431 297.554 103.779 296.207 105.713C294.861 107.648 292.875 109.044 290.599 109.657C288.323 110.269 285.904 110.058 283.769 109.061C283.418 108.928 283.037 108.896 282.67 108.969L279.257 109.967C279.092 110.011 278.919 110.012 278.754 109.97C278.589 109.928 278.437 109.844 278.313 109.727C278.19 109.61 278.098 109.464 278.046 109.301C277.995 109.139 277.986 108.966 278.021 108.799L279.086 105.509Z" stroke="black" stroke-width="2" stroke-linecap="round" stroke-linejoin="round"/>
<path id="Vector_68" d="M283.828 101.07C283.292 100.509 282.994 99.7626 282.996 98.9869C282.999 98.2111 283.302 97.4665 283.842 96.9094C284.381 96.3522 285.116 96.0259 285.891 95.9988C286.667 95.9716 287.422 96.2459 288 96.764C288.43 96.3773 288.964 96.1235 289.536 96.0332C290.107 95.9429 290.693 96.0199 291.222 96.255C291.751 96.4901 292.201 96.8732 292.517 97.3582C292.833 97.8431 293.002 98.4091 293.004 98.988C293.006 99.7638 292.708 100.51 292.172 101.071L288.725 104.691C288.631 104.789 288.519 104.867 288.394 104.921C288.269 104.974 288.135 105.002 287.999 105.002C287.864 105.002 287.73 104.974 287.605 104.92C287.48 104.867 287.368 104.788 287.275 104.69L283.828 101.07Z" stroke="black" stroke-width="2" stroke-linecap="round" stroke-linejoin="round"/>
</g></svg>
