<svg viewBox="0 0 24 24" fill="none" xmlns="http://www.w3.org/2000/svg"><g transform="translate(-116 -152)">
<path id="Vector_128" d="M130 166C130.53 166 131.039 165.789 131.414 165.414C131.789 165.039 132 164.53 132 164V160H130" stroke="black" stroke-width="2" stroke-linecap="round" stroke-linejoin="round"/>
<path id="Vector_129" d="M138 169C138 169.53 137.789 170.039 137.414 170.414C137.039 170.789 136.53 171 136 171H122.828C122.298 171 121.789 171.211 121.414 171.586L119.212 173.788C119.113 173.887 118.986 173.955 118.848 173.982C118.711 174.01 118.568 173.996 118.438 173.942C118.309 173.888 118.198 173.797 118.12 173.68C118.042 173.564 118 173.426 118 173.286V157C118 156.47 118.211 155.961 118.586 155.586C118.961 155.211 119.47 155 120 155H136C136.53 155 137.039 155.211 137.414 155.586C137.789 155.961 138 156.47 138 157V169Z" stroke="black" stroke-width="2" stroke-linecap="round" stroke-linejoin="round"/>
<path id="Vector_130" d="M124 166C124.53 166 125.039 165.789 125.414 165.414C125.789 165.039 126 164.53 126 164V160H124" stroke="black" stroke-width="2" stroke-linecap="round" stroke-linejoin="round"/>
</g></svg>
