<svg viewBox="0 0 24 24" fill="none" xmlns="http://www.w3.org/2000/svg"><g transform="translate(-52 -152)">
<path id="Vector_122" d="M71.0005 171H58.8285C58.2981 171 57.7894 171.211 57.4145 171.586L55.2125 173.788C55.1152 173.892 54.9884 173.965 54.8489 173.995C54.7094 174.025 54.564 174.012 54.4321 173.958C54.3003 173.903 54.1882 173.81 54.1111 173.689C54.0339 173.569 53.9953 173.429 54.0005 173.286V157C54.0004 156.614 54.1122 156.236 54.3223 155.912C54.5325 155.588 54.8319 155.332 55.1845 155.174" stroke="black" stroke-width="2" stroke-linecap="round" stroke-linejoin="round"/>
<path id="Vector_123" d="M54 154L74 174" stroke="black" stroke-width="2" stroke-linecap="round" stroke-linejoin="round"/>
<path id="Vector_124" d="M60.6562 155H72.0002C72.5307 155 73.0394 155.211 73.4145 155.586C73.7895 155.961 74.0002 156.47 74.0002 157V168.344" stroke="black" stroke-width="2" stroke-linecap="round" stroke-linejoin="round"/>
</g></svg>
