<svg viewBox="0 0 24 24" fill="none" xmlns="http://www.w3.org/2000/svg"><g transform="translate(-212 -152)">
<path id="Vector_137" d="M234 169C234 169.53 233.789 170.039 233.414 170.414C233.039 170.789 232.53 171 232 171H218.828C218.298 171 217.789 171.211 217.414 171.586L215.212 173.788C215.113 173.887 214.986 173.955 214.848 173.982C214.711 174.01 214.568 173.996 214.438 173.942C214.309 173.888 214.198 173.797 214.12 173.68C214.042 173.564 214 173.426 214 173.286V157C214 156.47 214.211 155.961 214.586 155.586C214.961 155.211 215.47 155 216 155H232C232.53 155 233.039 155.211 233.414 155.586C233.789 155.961 234 156.47 234 157V169Z" stroke="black" stroke-width="2" stroke-linecap="round" stroke-linejoin="round"/>
<path id="Vector_138" d="M219 163H229" stroke="black" stroke-width="2" stroke-linecap="round" stroke-linejoin="round"/>
<path id="Vector_139" d="M219 167H225" stroke="black" stroke-width="2" stroke-linecap="round" stroke-linejoin="round"/>
<path id="Vector_140" d="M219 159H227" stroke="black" stroke-width="2" stroke-linecap="round" stroke-linejoin="round"/>
</g></svg>
