<svg viewBox="0 0 24 24" fill="none" xmlns="http://www.w3.org/2000/svg"><g transform="translate(-308 -152)">
<path id="Vector_147" d="M324 162C324 162.53 323.789 163.039 323.414 163.414C323.039 163.789 322.53 164 322 164H314.828C314.298 164 313.789 164.211 313.414 164.586L311.212 166.788C311.113 166.887 310.986 166.955 310.848 166.982C310.711 167.01 310.568 166.996 310.438 166.942C310.309 166.888 310.198 166.797 310.12 166.68C310.042 166.564 310 166.426 310 166.286V156C310 155.47 310.211 154.961 310.586 154.586C310.961 154.211 311.47 154 312 154H322C322.53 154 323.039 154.211 323.414 154.586C323.789 154.961 324 155.47 324 156V162Z" stroke="black" stroke-width="2" stroke-linecap="round" stroke-linejoin="round"/>
<path id="Vector_148" d="M328 161C328.53 161 329.039 161.211 329.414 161.586C329.789 161.961 330 162.47 330 163V173.286C330 173.426 329.958 173.564 329.88 173.68C329.802 173.797 329.691 173.888 329.562 173.942C329.432 173.996 329.289 174.01 329.152 173.982C329.014 173.955 328.887 173.887 328.788 173.788L326.586 171.586C326.211 171.211 325.702 171 325.172 171H318C317.47 171 316.961 170.789 316.586 170.414C316.211 170.039 316 169.53 316 169V168" stroke="black" stroke-width="2" stroke-linecap="round" stroke-linejoin="round"/>
</g></svg>
