<svg viewBox="0 0 24 24" fill="none" xmlns="http://www.w3.org/2000/svg"><g transform="translate(-212 -120)">
<path id="Vector_112" d="M224 131.4V129.1" stroke="black" stroke-width="2" stroke-linecap="round" stroke-linejoin="round"/>
<path id="Vector_113" d="M224 137L230.59 130.41" stroke="black" stroke-width="2" stroke-linecap="round" stroke-linejoin="round"/>
<path id="Vector_114" d="M227.05 125.7L226.832 125.009C226.626 124.422 226.243 123.913 225.736 123.553C225.229 123.194 224.622 123 224 123C223.378 123 222.772 123.194 222.264 123.553C221.757 123.913 221.374 124.422 221.169 125.009L216.418 139.695C216.37 139.845 216.358 140.004 216.383 140.159C216.408 140.315 216.469 140.462 216.562 140.589C216.655 140.717 216.777 140.82 216.917 140.891C217.057 140.963 217.212 141 217.37 141H230.623C230.781 141 230.936 140.963 231.077 140.891C231.218 140.819 231.339 140.715 231.432 140.587C231.525 140.46 231.586 140.312 231.611 140.156C231.635 140 231.623 139.84 231.574 139.69L230.45 136.2" stroke="black" stroke-width="2" stroke-linecap="round" stroke-linejoin="round"/>
<path id="Vector_115" d="M232 131C233.105 131 234 130.105 234 129C234 127.895 233.105 127 232 127C230.895 127 230 127.895 230 129C230 130.105 230.895 131 232 131Z" stroke="black" stroke-width="2" stroke-linecap="round" stroke-linejoin="round"/>
</g></svg>
