<svg viewBox="0 0 24 24" fill="none" xmlns="http://www.w3.org/2000/svg"><g transform="translate(-20 -152)">
<path id="Vector_146" d="M30.9996 159.601L25.0056 167.791C24.8646 167.984 24.7971 168.221 24.8155 168.459C24.8338 168.697 24.9367 168.92 25.1056 169.089L25.9226 169.907C26.0939 170.078 26.3216 170.181 26.5633 170.197C26.8049 170.213 27.0442 170.141 27.2366 169.994L35.0896 164" stroke="black" stroke-width="2" stroke-linecap="round" stroke-linejoin="round"/>
<path id="Vector_147" d="M36.4998 173.174C35.4998 172.5 34.3718 172 32.9998 172C30.9418 172 29.0718 174.356 26.9998 174C24.9278 173.644 24.2248 170.631 25.4998 169.5" stroke="black" stroke-width="2" stroke-linecap="round" stroke-linejoin="round"/>
<path id="Vector_148" d="M36 164C38.7614 164 41 161.761 41 159C41 156.239 38.7614 154 36 154C33.2386 154 31 156.239 31 159C31 161.761 33.2386 164 36 164Z" stroke="black" stroke-width="2" stroke-linecap="round" stroke-linejoin="round"/>
</g></svg>
