<svg viewBox="0 0 24 24" fill="none" xmlns="http://www.w3.org/2000/svg"><g transform="translate(-276 -120)">
<path id="Vector_119" d="M288 139V142" stroke="black" stroke-width="2" stroke-linecap="round" stroke-linejoin="round"/>
<path id="Vector_120" d="M291 129.34V125C290.996 124.326 290.766 123.674 290.345 123.147C289.925 122.621 289.34 122.251 288.684 122.097C288.028 121.943 287.34 122.015 286.73 122.3C286.119 122.586 285.623 123.068 285.32 123.67" stroke="black" stroke-width="2" stroke-linecap="round" stroke-linejoin="round"/>
<path id="Vector_121" d="M292.95 136.95C291.971 137.929 290.724 138.596 289.366 138.866C288.008 139.136 286.6 138.997 285.321 138.468C284.042 137.938 282.949 137.04 282.18 135.889C281.41 134.738 281 133.385 281 132V130" stroke="black" stroke-width="2" stroke-linecap="round" stroke-linejoin="round"/>
<path id="Vector_122" d="M294.89 133.23C294.962 132.824 294.999 132.412 295 132V130" stroke="black" stroke-width="2" stroke-linecap="round" stroke-linejoin="round"/>
<path id="Vector_123" d="M278 122L298 142" stroke="black" stroke-width="2" stroke-linecap="round" stroke-linejoin="round"/>
<path id="Vector_124" d="M285 129V132C285.001 132.593 285.177 133.172 285.506 133.665C285.836 134.158 286.304 134.542 286.852 134.769C287.4 134.996 288.003 135.055 288.585 134.94C289.166 134.824 289.7 134.539 290.12 134.12" stroke="black" stroke-width="2" stroke-linecap="round" stroke-linejoin="round"/>
</g></svg>
