<svg viewBox="0 0 24 24" fill="none" xmlns="http://www.w3.org/2000/svg"><g transform="translate(-244 -120)">
<path id="Vector_116" d="M256 139V142" stroke="black" stroke-width="2" stroke-linecap="round" stroke-linejoin="round"/>
<path id="Vector_117" d="M263 130V132C263 133.857 262.263 135.637 260.95 136.95C259.637 138.263 257.857 139 256 139C254.143 139 252.363 138.263 251.05 136.95C249.737 135.637 249 133.857 249 132V130" stroke="black" stroke-width="2" stroke-linecap="round" stroke-linejoin="round"/>
<path id="Vector_118" d="M259 125C259 123.343 257.657 122 256 122C254.343 122 253 123.343 253 125V132C253 133.657 254.343 135 256 135C257.657 135 259 133.657 259 132V125Z" stroke="black" stroke-width="2" stroke-linecap="round" stroke-linejoin="round"/>
</g></svg>
