<svg viewBox="0 0 24 24" fill="none" xmlns="http://www.w3.org/2000/svg"><g transform="translate(-340 -120)">
<path id="Vector_135" d="M346 138H354" stroke="black" stroke-width="2" stroke-linecap="round" stroke-linejoin="round"/>
<path id="Vector_136" d="M343 142H361" stroke="black" stroke-width="2" stroke-linecap="round" stroke-linejoin="round"/>
<path id="Vector_137" d="M354 142C355.857 142 357.637 141.263 358.95 139.95C360.263 138.637 361 136.857 361 135C361 133.143 360.263 131.363 358.95 130.05C357.637 128.737 355.857 128 354 128H353" stroke="black" stroke-width="2" stroke-linecap="round" stroke-linejoin="round"/>
<path id="Vector_138" d="M349 134H351" stroke="black" stroke-width="2" stroke-linecap="round" stroke-linejoin="round"/>
<path id="Vector_139" d="M349 132C348.47 132 347.961 131.789 347.586 131.414C347.211 131.039 347 130.53 347 130V126H353V130C353 130.53 352.789 131.039 352.414 131.414C352.039 131.789 351.53 132 351 132H349Z" stroke="black" stroke-width="2" stroke-linecap="round" stroke-linejoin="round"/>
<path id="Vector_140" d="M352 126V123C352 122.735 351.895 122.48 351.707 122.293C351.52 122.105 351.265 122 351 122H349C348.735 122 348.48 122.105 348.293 122.293C348.105 122.48 348 122.735 348 123V126" stroke="black" stroke-width="2" stroke-linecap="round" stroke-linejoin="round"/>
</g></svg>
