<svg viewBox="0 0 24 24" fill="none" xmlns="http://www.w3.org/2000/svg"><g transform="translate(-372 -120)">
<path id="Vector_141" d="M392 124H376C374.895 124 374 124.895 374 126V137C374 138.105 374.895 139 376 139H392C393.105 139 394 138.105 394 137V126C394 124.895 393.105 124 392 124Z" stroke="black" stroke-width="2" stroke-linecap="round" stroke-linejoin="round"/>
<path id="Vector_142" d="M385 128H379C378.448 128 378 128.448 378 129V134C378 134.552 378.448 135 379 135H385C385.552 135 386 134.552 386 134V129C386 128.448 385.552 128 385 128Z" stroke="black" stroke-width="2" stroke-linecap="round" stroke-linejoin="round"/>
<path id="Vector_143" d="M390 128V135" stroke="black" stroke-width="2" stroke-linecap="round" stroke-linejoin="round"/>
<path id="Vector_144" d="M378 139V141" stroke="black" stroke-width="2" stroke-linecap="round" stroke-linejoin="round"/>
<path id="Vector_145" d="M390 139V141" stroke="black" stroke-width="2" stroke-linecap="round" stroke-linejoin="round"/>
</g></svg>
