<svg viewBox="0 0 24 24" fill="none" xmlns="http://www.w3.org/2000/svg"><g transform="translate(-276 -120)">
<path id="Vector_125" d="M288 133V141" stroke="black" stroke-width="2" stroke-linecap="round" stroke-linejoin="round"/>
<path id="Vector_126" d="M288 123V126" stroke="black" stroke-width="2" stroke-linecap="round" stroke-linejoin="round"/>
<path id="Vector_127" d="M294.172 126C294.702 126 295.211 126.211 295.586 126.586L297.646 128.646C297.758 128.758 297.847 128.891 297.908 129.038C297.969 129.184 298 129.341 298 129.5C298 129.659 297.969 129.816 297.908 129.962C297.847 130.109 297.758 130.242 297.646 130.354L295.586 132.414C295.211 132.789 294.702 133 294.172 133H280C279.735 133 279.48 132.895 279.293 132.707C279.105 132.52 279 132.265 279 132V127C279 126.735 279.105 126.48 279.293 126.293C279.48 126.105 279.735 126 280 126H294.172Z" stroke="black" stroke-width="2" stroke-linecap="round" stroke-linejoin="round"/>
</g></svg>
