<svg viewBox="0 0 24 24" fill="none" xmlns="http://www.w3.org/2000/svg"><g transform="translate(-244 -152)">
<path id="Vector_178" d="M252 154H260" stroke="black" stroke-width="2" stroke-linecap="round" stroke-linejoin="round"/>
<path id="Vector_179" d="M253 154V155.343M259 154V156.789C259 157.579 259.234 158.351 259.672 159.008L260.328 159.992C260.766 160.649 261 161.422 261 162.212V163.343M251.8 159.8L251.672 159.992C251.234 160.649 251 161.422 251 162.212V172C251 172.53 251.211 173.039 251.586 173.414C251.961 173.789 252.47 174 253 174H259C259.53 174 260.039 173.789 260.414 173.414C260.789 173.039 261 172.53 261 172V169" stroke="black" stroke-width="2" stroke-linecap="round" stroke-linejoin="round"/>
<path id="Vector_180" d="M251 167C251.792 166.668 252.642 166.497 253.5 166.497C254.358 166.497 255.208 166.668 256 167C257.084 167.454 258.272 167.605 259.435 167.435" stroke="black" stroke-width="2" stroke-linecap="round" stroke-linejoin="round"/>
<path id="Vector_181" d="M246 154L266 174" stroke="black" stroke-width="2" stroke-linecap="round" stroke-linejoin="round"/>
</g></svg>
