<svg viewBox="0 0 24 24" fill="none" xmlns="http://www.w3.org/2000/svg"><g transform="translate(-212 -152)">
<path id="Vector_175" d="M220 154H228" stroke="black" stroke-width="2" stroke-linecap="round" stroke-linejoin="round"/>
<path id="Vector_176" d="M221 154V156.789C221 157.579 220.766 158.351 220.328 159.008L219.672 159.992C219.234 160.649 219 161.422 219 162.212V172C219 172.53 219.211 173.039 219.586 173.414C219.961 173.789 220.47 174 221 174H227C227.53 174 228.039 173.789 228.414 173.414C228.789 173.039 229 172.53 229 172V162.211C229 161.421 228.766 160.649 228.328 159.992L227.672 159.008C227.234 158.351 227 157.578 227 156.788V154" stroke="black" stroke-width="2" stroke-linecap="round" stroke-linejoin="round"/>
<path id="Vector_177" d="M219 167C219.792 166.668 220.642 166.498 221.5 166.498C222.358 166.498 223.208 166.668 224 167C224.792 167.332 225.642 167.503 226.5 167.503C227.358 167.503 228.208 167.332 229 167" stroke="black" stroke-width="2" stroke-linecap="round" stroke-linejoin="round"/>
</g></svg>
