<svg viewBox="0 0 24 24" fill="none" xmlns="http://www.w3.org/2000/svg"><g transform="translate(-84 -152)">
<path id="Vector_152" d="M92 155V158C92 158.53 91.7893 159.039 91.4142 159.414C91.0391 159.789 90.5304 160 90 160H87" stroke="black" stroke-width="2" stroke-linecap="round" stroke-linejoin="round"/>
<path id="Vector_153" d="M105 160H102C101.47 160 100.961 159.789 100.586 159.414C100.211 159.039 100 158.53 100 158V155" stroke="black" stroke-width="2" stroke-linecap="round" stroke-linejoin="round"/>
<path id="Vector_154" d="M87 168H90C90.5304 168 91.0391 168.211 91.4142 168.586C91.7893 168.961 92 169.47 92 170V173" stroke="black" stroke-width="2" stroke-linecap="round" stroke-linejoin="round"/>
<path id="Vector_155" d="M100 173V170C100 169.47 100.211 168.961 100.586 168.586C100.961 168.211 101.47 168 102 168H105" stroke="black" stroke-width="2" stroke-linecap="round" stroke-linejoin="round"/>
</g></svg>
