<svg viewBox="0 0 32 32" fill="none" xmlns="http://www.w3.org/2000/svg"><g transform="translate(-180 -96)">
<g id="Shape_9">
<path d="M200.699 109.755C199.54 104.642 197.124 103.281 196.508 102.319C196.254 101.895 196.029 101.454 195.834 101C195.802 101.454 195.742 101.74 195.356 102.085C194.581 102.776 191.288 105.459 191.011 111.268C190.753 116.685 194.993 120.025 195.553 120.37C195.984 120.582 196.509 120.375 196.765 120.18C198.809 118.777 201.601 115.038 200.701 109.755" fill="#10AA50"/>
<path d="M196.01 117.486C195.903 118.826 195.827 119.605 195.556 120.372C195.556 120.372 195.734 121.648 195.859 123H196.301C196.406 122.048 196.567 121.103 196.783 120.169C196.211 119.888 196.032 118.662 196.01 117.486Z" fill="#B8C4C2"/>
<path d="M196.782 120.17C196.204 119.903 196.037 118.652 196.011 117.486C196.154 115.563 196.196 113.633 196.136 111.706C196.105 110.694 196.15 102.338 195.887 101.115C196.067 101.529 196.275 101.931 196.508 102.318C197.124 103.281 199.541 104.642 200.699 109.755C201.601 115.029 198.824 118.758 196.782 120.17Z" fill="#12924F"/>
</g>
</g></svg>
