<svg viewBox="0 0 24 24" fill="none" xmlns="http://www.w3.org/2000/svg"><g transform="translate(-244 -152)">
<path id="Vector_200" d="M256 169V173" stroke="black" stroke-width="2" stroke-linecap="round" stroke-linejoin="round"/>
<path id="Vector_201" d="M252 173H260" stroke="black" stroke-width="2" stroke-linecap="round" stroke-linejoin="round"/>
<path id="Vector_202" d="M264 155H248C246.895 155 246 155.895 246 157V167C246 168.105 246.895 169 248 169H264C265.105 169 266 168.105 266 167V157C266 155.895 265.105 155 264 155Z" stroke="black" stroke-width="2" stroke-linecap="round" stroke-linejoin="round"/>
<path id="Vector_203" d="M258 159H254C253.448 159 253 159.448 253 160V164C253 164.552 253.448 165 254 165H258C258.552 165 259 164.552 259 164V160C259 159.448 258.552 159 258 159Z" stroke="black" stroke-width="2" stroke-linecap="round" stroke-linejoin="round"/>
</g></svg>
