<svg viewBox="0 0 24 24" fill="none" xmlns="http://www.w3.org/2000/svg"><g transform="translate(-180 -152)">
<path id="Vector_191" d="M198 160V158C198 157.47 197.789 156.961 197.414 156.586C197.039 156.211 196.53 156 196 156H184C183.47 156 182.961 156.211 182.586 156.586C182.211 156.961 182 157.47 182 158V165C182 165.53 182.211 166.039 182.586 166.414C182.961 166.789 183.47 167 184 167H192" stroke="black" stroke-width="2" stroke-linecap="round" stroke-linejoin="round"/>
<path id="Vector_192" d="M190 171V167.04V170.19" stroke="black" stroke-width="2" stroke-linecap="round" stroke-linejoin="round"/>
<path id="Vector_193" d="M187 171H192" stroke="black" stroke-width="2" stroke-linecap="round" stroke-linejoin="round"/>
<path id="Vector_194" d="M200 164H198C196.895 164 196 164.895 196 166V172C196 173.105 196.895 174 198 174H200C201.105 174 202 173.105 202 172V166C202 164.895 201.105 164 200 164Z" stroke="black" stroke-width="2" stroke-linecap="round" stroke-linejoin="round"/>
</g></svg>
