<svg viewBox="0 0 24 24" fill="none" xmlns="http://www.w3.org/2000/svg"><g transform="translate(-372 -120)">
<path id="Vector_156" d="M384 137V141" stroke="black" stroke-width="2" stroke-linecap="round" stroke-linejoin="round"/>
<path id="Vector_157" d="M386.305 127.53L387.228 127.148" stroke="black" stroke-width="2" stroke-linecap="round" stroke-linejoin="round"/>
<path id="Vector_158" d="M387.228 124.852L386.305 124.469" stroke="black" stroke-width="2" stroke-linecap="round" stroke-linejoin="round"/>
<path id="Vector_159" d="M388.852 123.228L388.469 122.304" stroke="black" stroke-width="2" stroke-linecap="round" stroke-linejoin="round"/>
<path id="Vector_160" d="M388.852 128.772L388.469 129.695" stroke="black" stroke-width="2" stroke-linecap="round" stroke-linejoin="round"/>
<path id="Vector_161" d="M391.148 123.228L391.531 122.304" stroke="black" stroke-width="2" stroke-linecap="round" stroke-linejoin="round"/>
<path id="Vector_162" d="M391.53 129.696L391.148 128.772" stroke="black" stroke-width="2" stroke-linecap="round" stroke-linejoin="round"/>
<path id="Vector_163" d="M392.772 124.852L393.696 124.469" stroke="black" stroke-width="2" stroke-linecap="round" stroke-linejoin="round"/>
<path id="Vector_164" d="M392.772 127.148L393.696 127.531" stroke="black" stroke-width="2" stroke-linecap="round" stroke-linejoin="round"/>
<path id="Vector_165" d="M394 133V135C394 135.53 393.789 136.039 393.414 136.414C393.039 136.789 392.53 137 392 137H376C375.47 137 374.961 136.789 374.586 136.414C374.211 136.039 374 135.53 374 135V125C374 124.47 374.211 123.961 374.586 123.586C374.961 123.211 375.47 123 376 123H383" stroke="black" stroke-width="2" stroke-linecap="round" stroke-linejoin="round"/>
<path id="Vector_166" d="M380 141H388" stroke="black" stroke-width="2" stroke-linecap="round" stroke-linejoin="round"/>
<path id="Vector_167" d="M390 129C391.657 129 393 127.657 393 126C393 124.343 391.657 123 390 123C388.343 123 387 124.343 387 126C387 127.657 388.343 129 390 129Z" stroke="black" stroke-width="2" stroke-linecap="round" stroke-linejoin="round"/>
</g></svg>
