<svg viewBox="0 0 24 24" fill="none" xmlns="http://www.w3.org/2000/svg"><g transform="translate(-148 -152)">
<path id="Vector_187" d="M163.033 161.44C163.131 161.497 163.213 161.578 163.269 161.677C163.326 161.775 163.356 161.886 163.356 162C163.356 162.113 163.326 162.225 163.269 162.323C163.213 162.421 163.131 162.503 163.033 162.56L158.968 164.912C158.87 164.969 158.758 164.999 158.645 164.999C158.532 164.999 158.42 164.969 158.322 164.912C158.224 164.855 158.142 164.773 158.086 164.675C158.029 164.577 158 164.465 158 164.352V159.648C158 159.535 158.029 159.423 158.086 159.325C158.142 159.227 158.224 159.145 158.322 159.089C158.42 159.032 158.531 159.002 158.644 159.002C158.758 159.002 158.869 159.031 158.967 159.088L163.033 161.44Z" stroke="black" stroke-width="2" stroke-linecap="round" stroke-linejoin="round"/>
<path id="Vector_188" d="M160 169V173" stroke="black" stroke-width="2" stroke-linecap="round" stroke-linejoin="round"/>
<path id="Vector_189" d="M156 173H164" stroke="black" stroke-width="2" stroke-linecap="round" stroke-linejoin="round"/>
<path id="Vector_190" d="M168 155H152C150.895 155 150 155.895 150 157V167C150 168.105 150.895 169 152 169H168C169.105 169 170 168.105 170 167V157C170 155.895 169.105 155 168 155Z" stroke="black" stroke-width="2" stroke-linecap="round" stroke-linejoin="round"/>
</g></svg>
