<svg viewBox="0 0 24 24" fill="none" xmlns="http://www.w3.org/2000/svg"><g transform="translate(-212 -152)">
<path id="Vector_195" d="M217.5 172H220" stroke="black" stroke-width="2" stroke-linecap="round" stroke-linejoin="round"/>
<path id="Vector_196" d="M229 161H229.01" stroke="black" stroke-width="2" stroke-linecap="round" stroke-linejoin="round"/>
<path id="Vector_197" d="M232 156H226C224.895 156 224 156.895 224 158V170C224 171.105 224.895 172 226 172H232C233.105 172 234 171.105 234 170V158C234 156.895 233.105 156 232 156Z" stroke="black" stroke-width="2" stroke-linecap="round" stroke-linejoin="round"/>
<path id="Vector_198" d="M220 158H216C215.47 158 214.961 158.211 214.586 158.586C214.211 158.961 214 159.47 214 160V166C214 166.53 214.211 167.039 214.586 167.414C214.961 167.789 215.47 168 216 168H220" stroke="black" stroke-width="2" stroke-linecap="round" stroke-linejoin="round"/>
<path id="Vector_199" d="M229 168C229.552 168 230 167.552 230 167C230 166.448 229.552 166 229 166C228.448 166 228 166.448 228 167C228 167.552 228.448 168 229 168Z" stroke="black" stroke-width="2" stroke-linecap="round" stroke-linejoin="round"/>
</g></svg>
