<svg viewBox="0 0 24 24" fill="none" xmlns="http://www.w3.org/2000/svg"><g transform="translate(-340 -120)">
<path id="Vector_152" d="M351 133C350.45 133 349.911 132.848 349.442 132.562C348.972 132.276 348.59 131.867 348.337 131.378C348.085 130.89 347.971 130.341 348.009 129.792C348.047 129.244 348.235 128.716 348.553 128.267C348.871 127.818 349.305 127.465 349.81 127.247C350.315 127.028 350.87 126.953 351.414 127.029C351.959 127.104 352.473 127.328 352.899 127.676C353.325 128.023 353.647 128.482 353.83 129H354C354.531 129 355.04 129.211 355.415 129.586C355.79 129.961 356 130.47 356 131C356 131.53 355.79 132.039 355.415 132.414C355.04 132.789 354.531 133 354 133H351Z" stroke="black" stroke-width="2" stroke-linecap="round" stroke-linejoin="round"/>
<path id="Vector_153" d="M352 137V141" stroke="black" stroke-width="2" stroke-linecap="round" stroke-linejoin="round"/>
<path id="Vector_154" d="M348 141H356" stroke="black" stroke-width="2" stroke-linecap="round" stroke-linejoin="round"/>
<path id="Vector_155" d="M360 123H344C342.895 123 342 123.895 342 125V135C342 136.105 342.895 137 344 137H360C361.105 137 362 136.105 362 135V125C362 123.895 361.105 123 360 123Z" stroke="black" stroke-width="2" stroke-linecap="round" stroke-linejoin="round"/>
</g></svg>
