<svg viewBox="0 0 24 24" fill="none" xmlns="http://www.w3.org/2000/svg"><g transform="translate(-84 -152)">
<path id="Vector_177" d="M96 169V173" stroke="black" stroke-width="2" stroke-linecap="round" stroke-linejoin="round"/>
<path id="Vector_178" d="M101 169H88C87.4696 169 86.9609 168.789 86.5858 168.414C86.2107 168.039 86 167.53 86 167V157C86 156.614 86.1118 156.236 86.3219 155.912C86.532 155.588 86.8314 155.332 87.184 155.174" stroke="black" stroke-width="2" stroke-linecap="round" stroke-linejoin="round"/>
<path id="Vector_179" d="M86 154L106 174" stroke="black" stroke-width="2" stroke-linecap="round" stroke-linejoin="round"/>
<path id="Vector_180" d="M92 173H100" stroke="black" stroke-width="2" stroke-linecap="round" stroke-linejoin="round"/>
<path id="Vector_181" d="M92.6562 155H104C104.531 155 105.039 155.211 105.414 155.586C105.79 155.961 106 156.47 106 157V167C106 167.368 105.899 167.728 105.707 168.042" stroke="black" stroke-width="2" stroke-linecap="round" stroke-linejoin="round"/>
</g></svg>
