<svg viewBox="0 0 24 24" fill="none" xmlns="http://www.w3.org/2000/svg"><g transform="translate(-20 -152)">
<path id="Vector_168" d="M32 169V173" stroke="black" stroke-width="2" stroke-linecap="round" stroke-linejoin="round"/>
<path id="Vector_169" d="M42 164.307V167C42 167.53 41.7893 168.039 41.4142 168.414C41.0391 168.789 40.5304 169 40 169H24C23.4696 169 22.9609 168.789 22.5858 168.414C22.2107 168.039 22 167.53 22 167V157C22 156.47 22.2107 155.961 22.5858 155.586C22.9609 155.211 23.4696 155 24 155H32.693" stroke="black" stroke-width="2" stroke-linecap="round" stroke-linejoin="round"/>
<path id="Vector_170" d="M28 173H36" stroke="black" stroke-width="2" stroke-linecap="round" stroke-linejoin="round"/>
<path id="Vector_171" d="M39 161C40.6569 161 42 159.657 42 158C42 156.343 40.6569 155 39 155C37.3431 155 36 156.343 36 158C36 159.657 37.3431 161 39 161Z" stroke="black" stroke-width="2" stroke-linecap="round" stroke-linejoin="round"/>
</g></svg>
