<svg viewBox="0 0 24 24" fill="none" xmlns="http://www.w3.org/2000/svg"><g transform="translate(-308 -120)">
<path id="Vector_130" d="M326 125H330" stroke="black" stroke-width="2" stroke-linecap="round" stroke-linejoin="round"/>
<path id="Vector_131" d="M328 123V127" stroke="black" stroke-width="2" stroke-linecap="round" stroke-linejoin="round"/>
<path id="Vector_132" d="M328.985 132.486C328.891 134.222 328.297 135.894 327.273 137.299C326.249 138.705 324.841 139.784 323.217 140.405C321.593 141.027 319.824 141.166 318.124 140.803C316.423 140.441 314.864 139.594 313.634 138.365C312.405 137.136 311.558 135.577 311.196 133.876C310.833 132.176 310.971 130.406 311.593 128.783C312.215 127.159 313.293 125.75 314.699 124.726C316.104 123.703 317.776 123.108 319.512 123.014C319.917 122.992 320.129 123.474 319.914 123.817C319.195 124.967 318.887 126.328 319.04 127.676C319.194 129.024 319.8 130.28 320.759 131.24C321.719 132.199 322.975 132.805 324.323 132.958C325.671 133.112 327.031 132.804 328.182 132.085C328.526 131.87 329.007 132.081 328.985 132.486Z" stroke="black" stroke-width="2" stroke-linecap="round" stroke-linejoin="round"/>
</g></svg>
