<svg viewBox="0 0 24 24" fill="none" xmlns="http://www.w3.org/2000/svg"><g transform="translate(-276 -120)">
<path id="Vector_129" d="M296.985 132.486C296.891 134.222 296.297 135.894 295.273 137.299C294.249 138.705 292.841 139.784 291.217 140.405C289.593 141.027 287.824 141.166 286.124 140.803C284.423 140.441 282.864 139.594 281.634 138.365C280.405 137.136 279.558 135.577 279.196 133.876C278.833 132.176 278.971 130.406 279.593 128.783C280.215 127.159 281.293 125.75 282.699 124.726C284.104 123.703 285.776 123.108 287.512 123.014C287.917 122.992 288.129 123.474 287.914 123.817C287.195 124.967 286.887 126.328 287.04 127.676C287.194 129.024 287.8 130.28 288.759 131.24C289.719 132.199 290.975 132.805 292.323 132.958C293.671 133.112 295.031 132.804 296.182 132.085C296.526 131.87 297.007 132.081 296.985 132.486Z" stroke="black" stroke-width="2" stroke-linecap="round" stroke-linejoin="round"/>
</g></svg>
