<svg viewBox="0 0 24 24" fill="none" xmlns="http://www.w3.org/2000/svg"><g transform="translate(-308 -56)">
<path id="Vector_10" d="M314 66C312.9 66 312 66.9 312 68C312 69.1 312.9 70 314 70C315.1 70 316 69.1 316 68C316 66.9 315.1 66 314 66ZM326 66C324.9 66 324 66.9 324 68C324 69.1 324.9 70 326 70C327.1 70 328 69.1 328 68C328 66.9 327.1 66 326 66ZM320 66C318.9 66 318 66.9 318 68C318 69.1 318.9 70 320 70C321.1 70 322 69.1 322 68C322 66.9 321.1 66 320 66Z" fill="black" fill-opacity="0.56"/>
</g></svg>
