<svg viewBox="0 0 24 24" fill="none" xmlns="http://www.w3.org/2000/svg"><g transform="translate(-276 -56)">
<path id="Vector_9" d="M288 64C289.1 64 290 63.1 290 62C290 60.9 289.1 60 288 60C286.9 60 286 60.9 286 62C286 63.1 286.9 64 288 64ZM288 66C286.9 66 286 66.9 286 68C286 69.1 286.9 70 288 70C289.1 70 290 69.1 290 68C290 66.9 289.1 66 288 66ZM288 72C286.9 72 286 72.9 286 74C286 75.1 286.9 76 288 76C289.1 76 290 75.1 290 74C290 72.9 289.1 72 288 72Z" fill="black" fill-opacity="0.56"/>
</g></svg>
