<svg viewBox="0 0 24 24" fill="none" xmlns="http://www.w3.org/2000/svg"><g transform="translate(-212 -88)">
<path id="Vector_107" d="M230 102L229 99" stroke="black" stroke-width="2" stroke-linecap="round" stroke-linejoin="round"/>
<path id="Vector_108" d="M215 97L221 99C221 98.4696 221.211 97.9609 221.586 97.5858C221.961 97.2107 222.47 97 223 97H225C225.497 97.0002 225.977 97.1858 226.345 97.5205C226.713 97.8551 226.943 98.3149 226.99 98.81" stroke="black" stroke-width="2" stroke-linecap="round" stroke-linejoin="round"/>
<path id="Vector_109" d="M220 105H223C223.265 105 223.52 104.895 223.707 104.707C223.895 104.52 224 104.265 224 104C224 102.409 224.632 100.883 225.757 99.7574C226.883 98.6321 228.409 98 230 98C230.265 98 230.52 97.8946 230.707 97.7071C230.895 97.5196 231 97.2652 231 97V96.25C230.789 94.9449 230.07 93.7763 229 93" stroke="black" stroke-width="2" stroke-linecap="round" stroke-linejoin="round"/>
<path id="Vector_110" d="M231 108C232.657 108 234 106.657 234 105C234 103.343 232.657 102 231 102C229.343 102 228 103.343 228 105C228 106.657 229.343 108 231 108Z" stroke="black" stroke-width="2" stroke-linecap="round" stroke-linejoin="round"/>
<path id="Vector_111" d="M217 108C218.657 108 220 106.657 220 105C220 103.343 218.657 102 217 102C215.343 102 214 103.343 214 105C214 106.657 215.343 108 217 108Z" stroke="black" stroke-width="2" stroke-linecap="round" stroke-linejoin="round"/>
</g></svg>
