<svg viewBox="0 0 24 24" fill="none" xmlns="http://www.w3.org/2000/svg"><g transform="translate(-212 -184)">
<path id="Vector_237" d="M224 191.318V194" stroke="black" stroke-width="2" stroke-linecap="round" stroke-linejoin="round"/>
<path id="Vector_238" d="M231 194V199C231 200.857 230.263 202.637 228.95 203.95C227.637 205.263 225.857 206 224 206C222.143 206 220.363 205.263 219.05 203.95C217.737 202.637 217 200.857 217 199V193C217 189.473 219.608 186.485 223 186" stroke="black" stroke-width="2" stroke-linecap="round" stroke-linejoin="round"/>
<path id="Vector_239" d="M229 190C230.105 190 231 189.105 231 188C231 186.895 230.105 186 229 186C227.895 186 227 186.895 227 188C227 189.105 227.895 190 229 190Z" stroke="black" stroke-width="2" stroke-linecap="round" stroke-linejoin="round"/>
</g></svg>
