<svg viewBox="0 0 24 24" fill="none" xmlns="http://www.w3.org/2000/svg"><g transform="translate(-148 -184)">
<path id="Vector_229" d="M150.034 186.681C149.998 186.591 149.99 186.492 150.009 186.396C150.029 186.301 150.076 186.213 150.145 186.145C150.214 186.076 150.301 186.029 150.397 186.009C150.492 185.989 150.591 185.998 150.681 186.034L159.681 189.534C159.778 189.572 159.861 189.638 159.918 189.725C159.975 189.812 160.004 189.914 160.001 190.018C159.997 190.122 159.961 190.222 159.898 190.304C159.835 190.387 159.748 190.447 159.648 190.478L156.204 191.545C156.049 191.593 155.908 191.678 155.793 191.793C155.678 191.908 155.592 192.05 155.544 192.205L154.478 195.648C154.448 195.747 154.387 195.835 154.305 195.898C154.222 195.961 154.122 195.997 154.018 196C153.914 196.004 153.812 195.975 153.725 195.918C153.639 195.861 153.572 195.778 153.534 195.681L150.034 186.681Z" stroke="black" stroke-width="2" stroke-linecap="round" stroke-linejoin="round"/>
<path id="Vector_230" d="M164 206C167.314 206 170 203.314 170 200C170 196.686 167.314 194 164 194C160.686 194 158 196.686 158 200C158 203.314 160.686 206 164 206Z" stroke="black" stroke-width="2" stroke-linecap="round" stroke-linejoin="round"/>
<path id="Vector_231" d="M159.8 195.8L168.2 204.2" stroke="black" stroke-width="2" stroke-linecap="round" stroke-linejoin="round"/>
</g></svg>
