<svg viewBox="0 0 24 24" fill="none" xmlns="http://www.w3.org/2000/svg"><g transform="translate(-52 -184)">
<path id="Vector_223" d="M64.5859 196.586L70.9999 203" stroke="black" stroke-width="2" stroke-linecap="round" stroke-linejoin="round"/>
<path id="Vector_224" d="M55.6881 187.037C55.597 186.999 55.4966 186.988 55.3996 187.007C55.3026 187.026 55.2135 187.074 55.1436 187.144C55.0737 187.213 55.0263 187.303 55.0073 187.4C54.9883 187.497 54.9987 187.597 55.0371 187.688L61.5371 203.687C61.5771 203.784 61.6464 203.866 61.7353 203.921C61.8242 203.976 61.9283 204.002 62.0328 203.996C62.1373 203.989 62.237 203.949 62.318 203.883C62.3989 203.816 62.457 203.726 62.4841 203.625L64.0531 197.542C64.1366 197.187 64.3156 196.861 64.5708 196.601C64.8261 196.34 65.1478 196.154 65.5011 196.063L71.6251 194.484C71.7267 194.458 71.8175 194.4 71.8845 194.319C71.9515 194.238 71.9913 194.138 71.9983 194.033C72.0053 193.928 71.9791 193.824 71.9234 193.735C71.8677 193.646 71.7853 193.577 71.6881 193.537L55.6881 187.037Z" stroke="black" stroke-width="2" stroke-linecap="round" stroke-linejoin="round"/>
</g></svg>
