<svg viewBox="0 0 24 24" fill="none" xmlns="http://www.w3.org/2000/svg"><g transform="translate(-116 -184)">
<path id="Vector_226" d="M131.55 192.45L136.688 194.537C136.785 194.577 136.868 194.646 136.924 194.735C136.979 194.824 137.005 194.928 136.998 195.033C136.991 195.138 136.952 195.238 136.885 195.319C136.818 195.4 136.727 195.458 136.625 195.484L130.501 197.064C130.155 197.153 129.839 197.333 129.586 197.585C129.334 197.838 129.153 198.153 129.063 198.499L127.484 204.625C127.458 204.727 127.4 204.817 127.319 204.884C127.238 204.951 127.138 204.991 127.033 204.998C126.929 205.005 126.824 204.979 126.735 204.923C126.646 204.868 126.577 204.785 126.537 204.688L124.45 199.551" stroke="black" stroke-width="2" stroke-linecap="round" stroke-linejoin="round"/>
<path id="Vector_227" d="M138 186L118 206" stroke="black" stroke-width="2" stroke-linecap="round" stroke-linejoin="round"/>
<path id="Vector_228" d="M122.816 195.528L120.037 188.688C119.997 188.597 119.986 188.496 120.005 188.399C120.023 188.301 120.071 188.211 120.141 188.141C120.211 188.071 120.301 188.024 120.398 188.005C120.496 187.986 120.597 187.998 120.688 188.037L127.528 190.816" stroke="black" stroke-width="2" stroke-linecap="round" stroke-linejoin="round"/>
</g></svg>
