<svg viewBox="0 0 24 24" fill="none" xmlns="http://www.w3.org/2000/svg"><g transform="translate(-372 -152)">
<path id="Vector_216" d="M384 159.318V162" stroke="black" stroke-width="2" stroke-linecap="round" stroke-linejoin="round"/>
<path id="Vector_217" d="M377 162V167C377 168.857 377.737 170.637 379.05 171.95C380.363 173.263 382.143 174 384 174C385.857 174 387.637 173.263 388.95 171.95C390.263 170.637 391 168.857 391 167V161C391 157.473 388.392 154.485 385 154" stroke="black" stroke-width="2" stroke-linecap="round" stroke-linejoin="round"/>
<path id="Vector_218" d="M379 158C380.105 158 381 157.105 381 156C381 154.895 380.105 154 379 154C377.895 154 377 154.895 377 156C377 157.105 377.895 158 379 158Z" stroke="black" stroke-width="2" stroke-linecap="round" stroke-linejoin="round"/>
</g></svg>
