<svg viewBox="0 0 24 24" fill="none" xmlns="http://www.w3.org/2000/svg"><g transform="translate(-180 -184)">
<path id="Vector_232" d="M194 188.1L192 190" stroke="black" stroke-width="2" stroke-linecap="round" stroke-linejoin="round"/>
<path id="Vector_233" d="M185.1 192L182.2 191.2" stroke="black" stroke-width="2" stroke-linecap="round" stroke-linejoin="round"/>
<path id="Vector_234" d="M186 196L184.1 198" stroke="black" stroke-width="2" stroke-linecap="round" stroke-linejoin="round"/>
<path id="Vector_235" d="M187.2 186.2L188 189.1" stroke="black" stroke-width="2" stroke-linecap="round" stroke-linejoin="round"/>
<path id="Vector_236" d="M189.037 193.69C188.998 193.599 188.987 193.498 189.006 193.4C189.025 193.303 189.073 193.213 189.143 193.143C189.213 193.073 189.303 193.026 189.4 193.007C189.497 192.988 189.598 192.998 189.69 193.037L200.69 197.537C200.788 197.577 200.87 197.647 200.926 197.737C200.981 197.828 201.007 197.933 200.998 198.038C200.99 198.144 200.949 198.244 200.88 198.325C200.811 198.405 200.719 198.462 200.616 198.486L196.267 199.527C196.087 199.57 195.923 199.662 195.792 199.792C195.662 199.923 195.57 200.087 195.527 200.266L194.487 204.616C194.462 204.719 194.406 204.812 194.325 204.881C194.245 204.95 194.144 204.992 194.039 205C193.933 205.009 193.827 204.983 193.737 204.927C193.647 204.871 193.577 204.788 193.537 204.69L189.037 193.69Z" stroke="black" stroke-width="2" stroke-linecap="round" stroke-linejoin="round"/>
</g></svg>
