<svg viewBox="0 0 24 24" fill="none" xmlns="http://www.w3.org/2000/svg"><g transform="translate(-84 -184)">
<path id="Vector_225" d="M88.0369 188.688C87.9974 188.597 87.9863 188.496 88.0048 188.399C88.0234 188.301 88.0709 188.211 88.1411 188.141C88.2113 188.071 88.3009 188.024 88.3985 188.005C88.496 187.986 88.5968 187.998 88.6879 188.037L104.688 194.537C104.785 194.577 104.868 194.646 104.923 194.735C104.979 194.824 105.005 194.928 104.998 195.033C104.991 195.138 104.951 195.238 104.884 195.319C104.817 195.4 104.727 195.458 104.625 195.484L98.5009 197.064C98.1549 197.153 97.839 197.333 97.5861 197.585C97.3332 197.838 97.1526 198.153 97.0629 198.499L95.4839 204.625C95.4575 204.727 95.3997 204.817 95.3188 204.884C95.2379 204.951 95.138 204.991 95.0331 204.998C94.9283 205.005 94.824 204.979 94.7349 204.923C94.6458 204.868 94.5765 204.785 94.5369 204.688L88.0369 188.688Z" stroke="black" stroke-width="2" stroke-linecap="round" stroke-linejoin="round"/>
</g></svg>
