<svg viewBox="0 0 24 24" fill="none" xmlns="http://www.w3.org/2000/svg"><g transform="translate(-20 -184)">
<path id="Vector_219" d="M32 190V190.343" stroke="black" stroke-width="2" stroke-linecap="round" stroke-linejoin="round"/>
<path id="Vector_220" d="M38.218 202.218C37.4974 203.612 36.3294 204.723 34.9015 205.373C33.4736 206.024 31.8687 206.175 30.3442 205.804C28.8197 205.433 27.4641 204.561 26.495 203.327C25.5258 202.093 24.9993 200.569 25 199V193C24.9995 191.88 25.2677 190.777 25.782 189.782" stroke="black" stroke-width="2" stroke-linecap="round" stroke-linejoin="round"/>
<path id="Vector_221" d="M38.9996 197.343V193C38.9998 191.777 38.6797 190.575 38.071 189.514C37.4622 188.454 36.5862 187.571 35.5301 186.954C34.474 186.337 33.2748 186.008 32.0518 185.999C30.8288 185.989 29.6247 186.301 28.5596 186.902" stroke="black" stroke-width="2" stroke-linecap="round" stroke-linejoin="round"/>
<path id="Vector_222" d="M42 206L22 186" stroke="black" stroke-width="2" stroke-linecap="round" stroke-linejoin="round"/>
</g></svg>
