<svg viewBox="0 0 24 24" fill="none" xmlns="http://www.w3.org/2000/svg"><g transform="translate(-52 -152)">
<path id="Vector_149" d="M61 170V157L73 155V168" stroke="black" stroke-width="2" stroke-linecap="round" stroke-linejoin="round"/>
<path id="Vector_150" d="M58 173C59.6569 173 61 171.657 61 170C61 168.343 59.6569 167 58 167C56.3431 167 55 168.343 55 170C55 171.657 56.3431 173 58 173Z" stroke="black" stroke-width="2" stroke-linecap="round" stroke-linejoin="round"/>
<path id="Vector_151" d="M70 171C71.6569 171 73 169.657 73 168C73 166.343 71.6569 165 70 165C68.3431 165 67 166.343 67 168C67 169.657 68.3431 171 70 171Z" stroke="black" stroke-width="2" stroke-linecap="round" stroke-linejoin="round"/>
</g></svg>
