<svg viewBox="0 0 24 24" fill="none" xmlns="http://www.w3.org/2000/svg"><g transform="translate(-148 -152)">
<path id="Vector_156" d="M157 170V157L169 155V168" stroke="black" stroke-width="2" stroke-linecap="round" stroke-linejoin="round"/>
<path id="Vector_157" d="M157 161L169 159" stroke="black" stroke-width="2" stroke-linecap="round" stroke-linejoin="round"/>
<path id="Vector_158" d="M154 173C155.657 173 157 171.657 157 170C157 168.343 155.657 167 154 167C152.343 167 151 168.343 151 170C151 171.657 152.343 173 154 173Z" stroke="black" stroke-width="2" stroke-linecap="round" stroke-linejoin="round"/>
<path id="Vector_159" d="M166 171C167.657 171 169 169.657 169 168C169 166.343 167.657 165 166 165C164.343 165 163 166.343 163 168C163 169.657 164.343 171 166 171Z" stroke="black" stroke-width="2" stroke-linecap="round" stroke-linejoin="round"/>
</g></svg>
