<svg viewBox="0 0 32 32" fill="none" xmlns="http://www.w3.org/2000/svg"><g transform="translate(-300 -56)">
<g id="Shape_5">
<path d="M314.373 69.9338C313.896 72.5279 313.271 74.4109 312.49 75.5829C311.882 76.4893 311.216 76.9425 310.49 76.9425C310.297 76.9425 310.058 76.8841 309.776 76.7682V76.1432C309.914 76.1635 310.076 76.1743 310.262 76.1743C310.601 76.1743 310.873 76.0805 311.083 75.8938C311.331 75.6656 311.456 75.4093 311.456 75.1257C311.456 74.9319 311.359 74.5334 311.166 73.9302L309.884 69.9297H311.033L311.955 72.9223C312.162 73.6013 312.249 74.0787 312.213 74.3443C312.717 72.9926 313.073 71.5237 313.268 69.9297H314.378M309.299 75.1022H308.127C308.086 73.1254 307.971 71.258 307.786 69.5156H307.775L305.994 75.1022H305.103L303.329 69.5156H303.319C303.188 71.1877 303.105 73.0551 303.07 75.1022H302C302.069 72.6097 302.241 70.2735 302.517 68.0936H303.971L305.658 73.2426H305.669L307.364 68.0936H308.755C309.059 70.6486 309.239 72.9848 309.293 75.1022" fill="#00758F"/>
<path d="M330 75.1064H326.679V68.0977H327.797V74.2469H330V75.1064ZM321.64 73.7077C321.357 73.2507 321.215 72.5201 321.215 71.5043C321.215 69.7385 321.75 68.8556 322.816 68.8556C323.376 68.8556 323.785 69.0665 324.051 69.4885C324.334 69.9456 324.476 70.6761 324.476 71.6684C324.476 73.4499 323.941 74.3406 322.874 74.3406C322.315 74.3406 321.905 74.1305 321.64 73.7077ZM325.804 75.2775L324.523 74.6422C324.637 74.5485 324.746 74.4469 324.844 74.3289C325.389 73.6859 325.664 72.735 325.664 71.477C325.664 69.1564 324.758 68 322.937 68C322.047 68 321.351 68.2938 320.859 68.8829C320.313 69.5268 320.039 70.4769 320.039 71.727C320.039 72.9616 320.28 73.8601 320.764 74.4383C321.204 74.9571 321.873 75.2173 322.764 75.2173C323.097 75.2173 323.402 75.1762 323.678 75.0939L325.35 76.0705L325.807 75.2814M319.556 73.1717C319.556 73.7663 319.338 74.2578 318.903 74.6329C318.469 75.0134 317.888 75.2032 317.153 75.2032C316.469 75.2032 315.809 74.9837 315.161 74.5485L315.461 73.9461C316.013 74.2227 316.516 74.3609 316.961 74.3609C317.382 74.3609 317.712 74.2672 317.953 74.0812C318.191 73.8945 318.334 73.6335 318.334 73.303C318.334 72.8865 318.044 72.531 317.513 72.2326C317.023 71.963 316.044 71.3965 316.044 71.3965C315.513 71.0082 315.247 70.5917 315.247 69.9041C315.247 69.3361 315.446 68.8806 315.843 68.529C316.241 68.1789 316.749 68.0039 317.382 68.0039C318.031 68.0039 318.624 68.1774 319.156 68.5235L318.885 69.1251C318.431 68.9321 317.979 68.8345 317.541 68.8345C317.183 68.8345 316.906 68.9212 316.713 69.0947C316.519 69.2666 316.4 69.4885 316.4 69.7588C316.4 70.1737 316.696 70.5339 317.244 70.8371C317.74 71.1074 318.744 71.6809 318.744 71.6809C319.29 72.0685 319.564 72.4857 319.564 73.1655" fill="#F29111"/>
</g>
</g></svg>
