<svg viewBox="0 0 24 24" fill="none" xmlns="http://www.w3.org/2000/svg"><g transform="translate(-244 -184)">
<path id="Vector_240" d="M265 200H261C260.448 200 260 200.448 260 201V205C260 205.552 260.448 206 261 206H265C265.552 206 266 205.552 266 205V201C266 200.448 265.552 200 265 200Z" stroke="black" stroke-width="2" stroke-linecap="round" stroke-linejoin="round"/>
<path id="Vector_241" d="M251 200H247C246.448 200 246 200.448 246 201V205C246 205.552 246.448 206 247 206H251C251.552 206 252 205.552 252 205V201C252 200.448 251.552 200 251 200Z" stroke="black" stroke-width="2" stroke-linecap="round" stroke-linejoin="round"/>
<path id="Vector_242" d="M258 186H254C253.448 186 253 186.448 253 187V191C253 191.552 253.448 192 254 192H258C258.552 192 259 191.552 259 191V187C259 186.448 258.552 186 258 186Z" stroke="black" stroke-width="2" stroke-linecap="round" stroke-linejoin="round"/>
<path id="Vector_243" d="M249 200V197C249 196.735 249.105 196.48 249.293 196.293C249.48 196.105 249.735 196 250 196H262C262.265 196 262.52 196.105 262.707 196.293C262.895 196.48 263 196.735 263 197V200" stroke="black" stroke-width="2" stroke-linecap="round" stroke-linejoin="round"/>
<path id="Vector_244" d="M256 196V192" stroke="black" stroke-width="2" stroke-linecap="round" stroke-linejoin="round"/>
</g></svg>
