<svg viewBox="0 0 24 24" fill="none" xmlns="http://www.w3.org/2000/svg"><g transform="translate(-340 -248)">
<path id="Vector_333" d="M355 266H350" stroke="black" stroke-width="2" stroke-linecap="round" stroke-linejoin="round"/>
<path id="Vector_334" d="M358 262H350" stroke="black" stroke-width="2" stroke-linecap="round" stroke-linejoin="round"/>
<path id="Vector_335" d="M344 270H360C360.53 270 361.039 269.789 361.414 269.414C361.789 269.039 362 268.53 362 268V252C362 251.47 361.789 250.961 361.414 250.586C361.039 250.211 360.53 250 360 250H348C347.47 250 346.961 250.211 346.586 250.586C346.211 250.961 346 251.47 346 252V268C346 268.53 345.789 269.039 345.414 269.414C345.039 269.789 344.53 270 344 270ZM344 270C343.47 270 342.961 269.789 342.586 269.414C342.211 269.039 342 268.53 342 268V259C342 258.47 342.211 257.961 342.586 257.586C342.961 257.211 343.47 257 344 257H346" stroke="black" stroke-width="2" stroke-linecap="round" stroke-linejoin="round"/>
<path id="Vector_336" d="M357 254H351C350.448 254 350 254.448 350 255V257C350 257.552 350.448 258 351 258H357C357.552 258 358 257.552 358 257V255C358 254.448 357.552 254 357 254Z" stroke="black" stroke-width="2" stroke-linecap="round" stroke-linejoin="round"/>
</g></svg>
