<svg viewBox="0 0 24 24" fill="none" xmlns="http://www.w3.org/2000/svg"><g transform="translate(-148 -280)">
<path id="Vector_373" d="M156 282V286" stroke="black" stroke-width="2" stroke-linecap="round" stroke-linejoin="round"/>
<path id="Vector_374" d="M160 282V286" stroke="black" stroke-width="2" stroke-linecap="round" stroke-linejoin="round"/>
<path id="Vector_375" d="M164 282V286" stroke="black" stroke-width="2" stroke-linecap="round" stroke-linejoin="round"/>
<path id="Vector_376" d="M164 284H166C166.53 284 167.039 284.211 167.414 284.586C167.789 284.961 168 285.47 168 286V288" stroke="black" stroke-width="2" stroke-linecap="round" stroke-linejoin="round"/>
<path id="Vector_377" d="M168 292V294" stroke="black" stroke-width="2" stroke-linecap="round" stroke-linejoin="round"/>
<path id="Vector_378" d="M168 298V300C168 300.53 167.789 301.039 167.414 301.414C167.039 301.789 166.53 302 166 302H165" stroke="black" stroke-width="2" stroke-linecap="round" stroke-linejoin="round"/>
<path id="Vector_379" d="M161 302H159" stroke="black" stroke-width="2" stroke-linecap="round" stroke-linejoin="round"/>
<path id="Vector_380" d="M155 302H154C153.47 302 152.961 301.789 152.586 301.414C152.211 301.039 152 300.53 152 300V298" stroke="black" stroke-width="2" stroke-linecap="round" stroke-linejoin="round"/>
<path id="Vector_381" d="M152 294V292" stroke="black" stroke-width="2" stroke-linecap="round" stroke-linejoin="round"/>
<path id="Vector_382" d="M152 288V286C152 285.47 152.211 284.961 152.586 284.586C152.961 284.211 153.47 284 154 284H156" stroke="black" stroke-width="2" stroke-linecap="round" stroke-linejoin="round"/>
<path id="Vector_383" d="M156 290H162" stroke="black" stroke-width="2" stroke-linecap="round" stroke-linejoin="round"/>
<path id="Vector_384" d="M156 294H164" stroke="black" stroke-width="2" stroke-linecap="round" stroke-linejoin="round"/>
<path id="Vector_385" d="M156 298H161" stroke="black" stroke-width="2" stroke-linecap="round" stroke-linejoin="round"/>
</g></svg>
