<svg viewBox="0 0 24 24" fill="none" xmlns="http://www.w3.org/2000/svg"><g transform="translate(-20 -280)">
<path id="Vector_343" d="M33.4 282H26C25.4696 282 24.9609 282.211 24.5858 282.586C24.2107 282.961 24 283.47 24 284V300C24 300.53 24.2107 301.039 24.5858 301.414C24.9609 301.789 25.4696 302 26 302H38C38.5304 302 39.0391 301.789 39.4142 301.414C39.7893 301.039 40 300.53 40 300V292.6" stroke="black" stroke-width="2" stroke-linecap="round" stroke-linejoin="round"/>
<path id="Vector_344" d="M22 286H26" stroke="black" stroke-width="2" stroke-linecap="round" stroke-linejoin="round"/>
<path id="Vector_345" d="M22 290H26" stroke="black" stroke-width="2" stroke-linecap="round" stroke-linejoin="round"/>
<path id="Vector_346" d="M22 294H26" stroke="black" stroke-width="2" stroke-linecap="round" stroke-linejoin="round"/>
<path id="Vector_347" d="M22 298H26" stroke="black" stroke-width="2" stroke-linecap="round" stroke-linejoin="round"/>
<path id="Vector_348" d="M41.378 285.626C41.7763 285.228 42.0001 284.687 42.0001 284.124C42.0001 283.561 41.7763 283.02 41.378 282.622C40.9796 282.224 40.4393 282 39.876 282C39.3126 282 38.7723 282.224 38.374 282.622L33.364 287.634C33.1262 287.872 32.9522 288.165 32.858 288.488L32.021 291.358C31.9959 291.444 31.9944 291.535 32.0166 291.622C32.0389 291.709 32.084 291.788 32.1474 291.852C32.2108 291.915 32.2901 291.96 32.3769 291.982C32.4637 292.005 32.5549 292.003 32.641 291.978L35.511 291.141C35.8336 291.047 36.1274 290.873 36.365 290.635L41.378 285.626Z" stroke="black" stroke-width="2" stroke-linecap="round" stroke-linejoin="round"/>
</g></svg>
