<svg viewBox="0 0 24 24" fill="none" xmlns="http://www.w3.org/2000/svg"><g transform="translate(-308 -152)">
<path id="Vector_185" d="M320 156V154" stroke="black" stroke-width="2" stroke-linecap="round" stroke-linejoin="round"/>
<path id="Vector_186" d="M313 162V166C313 167.557 313.519 169.069 314.475 170.298C315.43 171.527 316.768 172.403 318.277 172.787C318.689 172.891 319.079 173.079 319.379 173.379L320 174L320.621 173.379C320.921 173.079 321.311 172.891 321.723 172.787C323.416 172.356 324.887 171.308 325.848 169.848" stroke="black" stroke-width="2" stroke-linecap="round" stroke-linejoin="round"/>
<path id="Vector_187" d="M327 162V165.343" stroke="black" stroke-width="2" stroke-linecap="round" stroke-linejoin="round"/>
<path id="Vector_188" d="M320 164C318.651 163.427 318.095 162.995 317.5 162C316.954 162.902 316.452 163.353 315 164C313.982 163.356 313.54 162.92 313 162C311.972 162.71 311.31 162.918 310 163C311.081 161.952 311.757 160.97 312 160C312.194 159.224 312.84 158.449 313.79 157.79M325.444 163.787C326.331 163.33 326.724 162.896 327 162C328.032 162.916 328.683 163.157 330 163C328.703 161.964 328.242 160.97 328 160C327.5 158 324 156 320 156C319.26 156 318.539 156.068 317.85 156.192" stroke="black" stroke-width="2" stroke-linecap="round" stroke-linejoin="round"/>
<path id="Vector_189" d="M310 154L330 174" stroke="black" stroke-width="2" stroke-linecap="round" stroke-linejoin="round"/>
</g></svg>
