<svg viewBox="0 0 24 24" fill="none" xmlns="http://www.w3.org/2000/svg"><g transform="translate(-276 -152)">
<path id="Vector_182" d="M288 156V154" stroke="black" stroke-width="2" stroke-linecap="round" stroke-linejoin="round"/>
<path id="Vector_183" d="M281 162V166C281 167.557 281.519 169.069 282.475 170.298C283.43 171.527 284.768 172.403 286.277 172.787C286.689 172.891 287.079 173.079 287.379 173.379L288 174L288.621 173.379C288.921 173.079 289.311 172.891 289.723 172.787C291.232 172.403 292.57 171.528 293.526 170.299C294.481 169.069 295 167.557 295 166V162" stroke="black" stroke-width="2" stroke-linecap="round" stroke-linejoin="round"/>
<path id="Vector_184" d="M288 156C284 156 280.5 158 280 160C279.757 160.97 279.081 161.952 278 163C279.31 162.918 279.972 162.71 281 162C281.54 162.92 281.982 163.356 283 164C284.452 163.353 284.954 162.902 285.5 162C286.095 162.995 286.651 163.427 288 164C289.31 163.379 289.862 162.942 290.5 162C291.129 162.977 291.662 163.423 293 164C294.209 163.452 294.68 163.033 295 162C296.032 162.916 296.683 163.157 298 163C296.703 161.964 296.242 160.97 296 160C295.5 158 292 156 288 156Z" stroke="black" stroke-width="2" stroke-linecap="round" stroke-linejoin="round"/>
</g></svg>
