<svg viewBox="0 0 24 24" fill="none" xmlns="http://www.w3.org/2000/svg"><g transform="translate(-244 -184)">
<path id="Vector_159" d="M254 199V193" stroke="black" stroke-width="2" stroke-linecap="round" stroke-linejoin="round"/>
<path id="Vector_160" d="M258 199V193" stroke="black" stroke-width="2" stroke-linecap="round" stroke-linejoin="round"/>
<path id="Vector_161" d="M246.586 200.726C246.211 200.351 246 199.842 246 199.312V192.688C246 192.158 246.211 191.649 246.586 191.274L251.274 186.586C251.649 186.211 252.158 186 252.688 186H259.312C259.842 186 260.351 186.211 260.726 186.586L265.414 191.274C265.789 191.649 266 192.158 266 192.688V199.312C266 199.842 265.789 200.351 265.414 200.726L260.726 205.414C260.351 205.789 259.842 206 259.312 206H252.688C252.158 206 251.649 205.789 251.274 205.414L246.586 200.726Z" stroke="black" stroke-width="2" stroke-linecap="round" stroke-linejoin="round"/>
</g></svg>
