<svg viewBox="0 0 24 24" fill="none" xmlns="http://www.w3.org/2000/svg"><g transform="translate(-180 -184)">
<path id="Vector_154" d="M192 200H192.01" stroke="black" stroke-width="2" stroke-linecap="round" stroke-linejoin="round"/>
<path id="Vector_155" d="M192 192V196" stroke="black" stroke-width="2" stroke-linecap="round" stroke-linejoin="round"/>
<path id="Vector_156" d="M195.312 186C195.842 186 196.351 186.211 196.726 186.586L201.414 191.274C201.789 191.649 202 192.158 202 192.688V199.312C202 199.842 201.789 200.351 201.414 200.726L196.726 205.414C196.351 205.789 195.842 206 195.312 206H188.688C188.158 206 187.649 205.789 187.274 205.414L182.586 200.726C182.211 200.351 182 199.842 182 199.312V192.688C182 192.158 182.211 191.649 182.586 191.274L187.274 186.586C187.649 186.211 188.158 186 188.688 186H195.312Z" stroke="black" stroke-width="2" stroke-linecap="round" stroke-linejoin="round"/>
</g></svg>
