<svg viewBox="0 0 24 24" fill="none" xmlns="http://www.w3.org/2000/svg"><g transform="translate(-276 -184)">
<path id="Vector_162" d="M291 193L285 199" stroke="black" stroke-width="2" stroke-linecap="round" stroke-linejoin="round"/>
<path id="Vector_163" d="M278.586 200.726C278.211 200.351 278 199.842 278 199.312V192.688C278 192.158 278.211 191.649 278.586 191.274L283.274 186.586C283.649 186.211 284.158 186 284.688 186H291.312C291.842 186 292.351 186.211 292.726 186.586L297.414 191.274C297.789 191.649 298 192.158 298 192.688V199.312C298 199.842 297.789 200.351 297.414 200.726L292.726 205.414C292.351 205.789 291.842 206 291.312 206H284.688C284.158 206 283.649 205.789 283.274 205.414L278.586 200.726Z" stroke="black" stroke-width="2" stroke-linecap="round" stroke-linejoin="round"/>
<path id="Vector_164" d="M285 193L291 199" stroke="black" stroke-width="2" stroke-linecap="round" stroke-linejoin="round"/>
</g></svg>
