<svg viewBox="0 0 24 24" fill="none" xmlns="http://www.w3.org/2000/svg"><g transform="translate(-148 -184)">
<path id="Vector_153" d="M150.586 200.726C150.211 200.351 150 199.842 150 199.312V192.688C150 192.158 150.211 191.649 150.586 191.274L155.274 186.586C155.649 186.211 156.158 186 156.688 186H163.312C163.842 186 164.351 186.211 164.726 186.586L169.414 191.274C169.789 191.649 170 192.158 170 192.688V199.312C170 199.842 169.789 200.351 169.414 200.726L164.726 205.414C164.351 205.789 163.842 206 163.312 206H156.688C156.158 206 155.649 205.789 155.274 205.414L150.586 200.726Z" stroke="black" stroke-width="2" stroke-linecap="round" stroke-linejoin="round"/>
</g></svg>
