<svg viewBox="0 0 24 24" fill="none" xmlns="http://www.w3.org/2000/svg"><g transform="translate(-212 -184)">
<path id="Vector_157" d="M214.586 200.726C214.211 200.351 214 199.842 214 199.312V192.688C214 192.158 214.211 191.649 214.586 191.274L219.274 186.586C219.649 186.211 220.158 186 220.688 186H227.312C227.842 186 228.351 186.211 228.726 186.586L233.414 191.274C233.789 191.649 234 192.158 234 192.688V199.312C234 199.842 233.789 200.351 233.414 200.726L228.726 205.414C228.351 205.789 227.842 206 227.312 206H220.688C220.158 206 219.649 205.789 219.274 205.414L214.586 200.726Z" stroke="black" stroke-width="2" stroke-linecap="round" stroke-linejoin="round"/>
<path id="Vector_158" d="M220 196H228" stroke="black" stroke-width="2" stroke-linecap="round" stroke-linejoin="round"/>
</g></svg>
