<svg viewBox="0 0 24 24" fill="none" xmlns="http://www.w3.org/2000/svg"><g transform="translate(-276 -88)">
<path id="Vector_49" d="M279 108H283.5C283.633 108 283.76 107.947 283.854 107.854C283.947 107.76 284 107.633 284 107.5V107.218C283.999 107.13 283.976 107.044 283.933 106.968C283.89 106.891 283.828 106.827 283.753 106.781C282.281 105.859 281.15 104.484 280.528 102.862C279.907 101.241 279.831 99.4613 280.31 97.7923C280.789 96.1234 281.799 94.6557 283.186 93.611C284.573 92.5662 286.262 92.0011 287.998 92.0009C289.735 92.0007 291.424 92.5654 292.811 93.6098C294.198 94.6543 295.208 96.1217 295.688 97.7905C296.168 99.4593 296.091 101.239 295.471 102.861C294.85 104.482 293.718 105.858 292.247 106.78C292.172 106.826 292.11 106.891 292.067 106.967C292.024 107.044 292.001 107.13 292 107.218V107.5C292 107.633 292.053 107.76 292.146 107.854C292.24 107.947 292.367 108 292.5 108H297" stroke="black" stroke-width="2" stroke-linecap="round" stroke-linejoin="round"/>
</g></svg>
