<svg viewBox="0 0 32 32" fill="none" xmlns="http://www.w3.org/2000/svg"><g transform="translate(-260 -56)">
<g id="Shape_4">
<path d="M272.915 68.6253L272.915 68.6244L278.373 71.8936L281.625 70.525C282.286 70.2393 282.998 70.0928 283.718 70.0935C283.838 70.0935 283.957 70.0989 284.075 70.1068C283.684 68.5821 282.858 67.2039 281.699 66.1395C280.539 65.0751 279.096 64.3704 277.543 64.1111C275.991 63.8517 274.396 64.0489 272.954 64.6786C271.511 65.3083 270.283 66.3434 269.417 67.6582C269.445 67.6578 269.472 67.6561 269.5 67.6561C270.706 67.6545 271.889 67.9902 272.915 68.6253Z" fill="#0364B8"/>
<path d="M272.915 68.6244L272.915 68.6253C271.889 67.9902 270.706 67.6545 269.5 67.6561C269.472 67.6561 269.445 67.6578 269.417 67.6582C268.237 67.6728 267.082 68.0089 266.078 68.6302C265.074 69.2516 264.258 70.1348 263.719 71.1849C263.179 72.235 262.935 73.4123 263.015 74.5903C263.094 75.7684 263.492 76.9026 264.168 77.871L278.373 71.8936L272.915 68.6244Z" fill="#0078D4"/>
<path d="M284.075 70.1068C283.957 70.0989 283.838 70.0935 283.718 70.0935C282.998 70.0928 282.287 70.2398 281.626 70.5255L278.373 71.8936L288.368 77.8805C288.787 77.1026 289.005 76.2319 289 75.3483C288.995 74.4648 288.769 73.5964 288.342 72.8229C287.915 72.0494 287.3 71.3955 286.555 70.9209C285.81 70.4464 284.956 70.1665 284.075 70.1068Z" fill="#1490DF"/>
<path d="M278.373 71.8936L264.168 77.871C264.766 78.7309 265.563 79.4327 266.492 79.9176C267.42 80.4025 268.452 80.6554 269.5 80.6549H283.718C284.671 80.6552 285.607 80.3973 286.425 79.9088C287.244 79.4202 287.915 78.7191 288.367 77.8799L278.373 71.8936Z" fill="#28A8EA"/>
</g>
</g></svg>
