<svg viewBox="0 0 24 24" fill="none" xmlns="http://www.w3.org/2000/svg"><g transform="translate(-308 -184)">
<path id="Vector_165" d="M328.341 190.484C329.419 192.115 329.997 194.026 330.001 195.981C330.005 197.936 329.435 199.85 328.363 201.485C327.291 203.12 325.763 204.405 323.969 205.181C322.174 205.957 320.191 206.189 318.266 205.85" stroke="black" stroke-width="2" stroke-linecap="round" stroke-linejoin="round"/>
<path id="Vector_166" d="M311.659 201.516C310.58 199.885 310.004 197.973 310 196.018C309.996 194.062 310.566 192.148 311.639 190.513C312.712 188.878 314.241 187.594 316.036 186.819C317.831 186.043 319.815 185.812 321.74 186.152" stroke="black" stroke-width="2" stroke-linecap="round" stroke-linejoin="round"/>
<path id="Vector_167" d="M320 199C321.657 199 323 197.657 323 196C323 194.343 321.657 193 320 193C318.343 193 317 194.343 317 196C317 197.657 318.343 199 320 199Z" stroke="black" stroke-width="2" stroke-linecap="round" stroke-linejoin="round"/>
<path id="Vector_168" d="M327 191C328.105 191 329 190.105 329 189C329 187.895 328.105 187 327 187C325.895 187 325 187.895 325 189C325 190.105 325.895 191 327 191Z" stroke="black" stroke-width="2" stroke-linecap="round" stroke-linejoin="round"/>
<path id="Vector_169" d="M313 205C314.105 205 315 204.105 315 203C315 201.895 314.105 201 313 201C311.895 201 311 201.895 311 203C311 204.105 311.895 205 313 205Z" stroke="black" stroke-width="2" stroke-linecap="round" stroke-linejoin="round"/>
</g></svg>
