<svg viewBox="0 0 24 24" fill="none" xmlns="http://www.w3.org/2000/svg"><g transform="translate(-244 -120)">
<path id="Vector_140" d="M256 132V124C256 123.735 256.105 123.48 256.293 123.293C256.48 123.105 256.735 123 257 123H263.297C263.501 123 263.701 123.063 263.868 123.179C264.036 123.296 264.164 123.461 264.235 123.653C264.306 123.844 264.316 124.053 264.265 124.251C264.214 124.449 264.103 124.626 263.948 124.759L259.252 128.784" stroke="black" stroke-width="2" stroke-linecap="round" stroke-linejoin="round"/>
<path id="Vector_141" d="M256 141L248.586 133.586C248.211 133.211 248 132.702 248 132.172V126.415C248.001 126.218 248.06 126.025 248.17 125.861C248.28 125.697 248.436 125.57 248.619 125.494C248.801 125.419 249.001 125.399 249.195 125.437C249.389 125.475 249.567 125.569 249.707 125.708L264 140.009" stroke="black" stroke-width="2" stroke-linecap="round" stroke-linejoin="round"/>
<path id="Vector_142" d="M256.214 123.381L264.628 138.347C264.735 138.538 264.776 138.758 264.746 138.975C264.716 139.191 264.616 139.392 264.461 139.546L263.293 140.709C263.105 140.896 262.851 141 262.587 141H250.351C250.123 141 249.903 140.923 249.726 140.781L247.25 138.8C247.087 138.67 246.969 138.493 246.912 138.293C246.855 138.093 246.862 137.881 246.931 137.685C247.001 137.489 247.13 137.32 247.3 137.2C247.47 137.081 247.673 137.018 247.881 137.019L252.046 137.046" stroke="black" stroke-width="2" stroke-linecap="round" stroke-linejoin="round"/>
</g></svg>
