<svg viewBox="0 0 24 24" fill="none" xmlns="http://www.w3.org/2000/svg"><g transform="translate(-52 -88)">
<path id="Vector_64" d="M64 110V100" stroke="black" stroke-width="2" stroke-linecap="round" stroke-linejoin="round"/>
<path id="Vector_65" d="M72.2695 106.27L73.9995 108" stroke="black" stroke-width="2" stroke-linecap="round" stroke-linejoin="round"/>
<path id="Vector_66" d="M73 98.498V96C72.9996 95.6493 72.9071 95.3048 72.7315 95.0012C72.556 94.6975 72.3037 94.4454 72 94.27L65 90.27C64.696 90.0945 64.3511 90.0021 64 90.0021C63.6489 90.0021 63.304 90.0945 63 90.27L56 94.27C55.6963 94.4454 55.444 94.6975 55.2685 95.0012C55.0929 95.3048 55.0004 95.6493 55 96V104C55.0005 104.351 55.0932 104.695 55.2687 104.998C55.4442 105.302 55.6964 105.554 56 105.729L63 109.729C63.304 109.905 63.6488 109.997 63.9999 109.997C64.3509 109.998 64.6959 109.905 65 109.73L65.98 109.171" stroke="black" stroke-width="2" stroke-linecap="round" stroke-linejoin="round"/>
<path id="Vector_67" d="M55.29 95L64 100L72.71 95" stroke="black" stroke-width="2" stroke-linecap="round" stroke-linejoin="round"/>
<path id="Vector_68" d="M59.5 92.27L68.497 97.418" stroke="black" stroke-width="2" stroke-linecap="round" stroke-linejoin="round"/>
<path id="Vector_69" d="M70.5 107C71.8807 107 73 105.881 73 104.5C73 103.119 71.8807 102 70.5 102C69.1193 102 68 103.119 68 104.5C68 105.881 69.1193 107 70.5 107Z" stroke="black" stroke-width="2" stroke-linecap="round" stroke-linejoin="round"/>
</g></svg>
