<svg viewBox="0 0 24 24" fill="none" xmlns="http://www.w3.org/2000/svg"><g transform="translate(-340 -56)">
<path id="Vector_49" d="M352 78V68" stroke="black" stroke-width="2" stroke-linecap="round" stroke-linejoin="round"/>
<path id="Vector_50" d="M356 73H362" stroke="black" stroke-width="2" stroke-linecap="round" stroke-linejoin="round"/>
<path id="Vector_51" d="M361 69V64C361 63.6493 360.907 63.3048 360.732 63.0012C360.556 62.6975 360.304 62.4454 360 62.27L353 58.27C352.696 58.0945 352.351 58.0021 352 58.0021C351.649 58.0021 351.304 58.0945 351 58.27L344 62.27C343.696 62.4454 343.444 62.6975 343.268 63.0012C343.093 63.3048 343 63.6493 343 64V72C343.001 72.3506 343.093 72.6948 343.269 72.9983C343.444 73.3018 343.696 73.5537 344 73.729L351 77.729C351.304 77.9047 351.649 77.9973 352 77.9975C352.351 77.9977 352.696 77.9054 353 77.73L354.675 76.775" stroke="black" stroke-width="2" stroke-linecap="round" stroke-linejoin="round"/>
<path id="Vector_52" d="M343.29 63L352 68L360.71 63" stroke="black" stroke-width="2" stroke-linecap="round" stroke-linejoin="round"/>
<path id="Vector_53" d="M347.5 60.27L356.497 65.418" stroke="black" stroke-width="2" stroke-linecap="round" stroke-linejoin="round"/>
</g></svg>
