<svg viewBox="0 0 24 24" fill="none" xmlns="http://www.w3.org/2000/svg"><g transform="translate(-372 -56)">
<path id="Vector_54" d="M384 78V69" stroke="black" stroke-width="2" stroke-linecap="round" stroke-linejoin="round"/>
<path id="Vector_55" d="M387.17 58.2101C387.419 58.0708 387.699 57.9977 387.985 57.9977C388.27 57.9977 388.55 58.0708 388.8 58.2101L393 60.5701C393.297 60.7383 393.544 60.9824 393.717 61.2776C393.889 61.5727 393.98 61.9083 393.98 62.2501C393.98 62.5918 393.889 62.9274 393.717 63.2225C393.544 63.5177 393.297 63.7619 393 63.9301L380.82 70.7901C380.57 70.9325 380.287 71.0075 380 71.0075C379.712 71.0075 379.429 70.9325 379.18 70.7901L375 68.4301C374.702 68.2619 374.455 68.0177 374.282 67.7225C374.11 67.4274 374.02 67.0918 374.02 66.7501C374.02 66.4083 374.11 66.0727 374.282 65.7776C374.455 65.4824 374.702 65.2383 375 65.0701L387.17 58.2101Z" stroke="black" stroke-width="2" stroke-linecap="round" stroke-linejoin="round"/>
<path id="Vector_56" d="M392 69V72.87C392 73.2474 391.897 73.6178 391.701 73.9405C391.506 74.2632 391.225 74.5259 390.89 74.7L384.89 77.78C384.615 77.9229 384.31 77.9975 384 77.9975C383.69 77.9975 383.385 77.9229 383.11 77.78L377.11 74.7C376.775 74.5259 376.494 74.2632 376.299 73.9405C376.103 73.6178 376 73.2474 376 72.87V69" stroke="black" stroke-width="2" stroke-linecap="round" stroke-linejoin="round"/>
<path id="Vector_57" d="M393 68.43C393.297 68.2618 393.544 68.0176 393.717 67.7225C393.889 67.4273 393.98 67.0917 393.98 66.75C393.98 66.4083 393.889 66.0727 393.717 65.7775C393.544 65.4824 393.297 65.2382 393 65.07L380.83 58.2C380.581 58.0579 380.3 57.9832 380.015 57.9832C379.729 57.9832 379.448 58.0579 379.2 58.2L375 60.57C374.702 60.7382 374.455 60.9824 374.282 61.2775C374.11 61.5727 374.02 61.9083 374.02 62.25C374.02 62.5917 374.11 62.9273 374.282 63.2225C374.455 63.5176 374.702 63.7618 375 63.93L387.18 70.79C387.428 70.9325 387.709 71.0075 387.995 71.0075C388.281 71.0075 388.562 70.9325 388.81 70.79L393 68.43Z" stroke="black" stroke-width="2" stroke-linecap="round" stroke-linejoin="round"/>
</g></svg>
