<svg viewBox="0 0 24 24" fill="none" xmlns="http://www.w3.org/2000/svg"><g transform="translate(-276 -56)">
<path id="Vector_41" d="M288 59V65" stroke="black" stroke-width="2" stroke-linecap="round" stroke-linejoin="round"/>
<path id="Vector_42" d="M292.76 59C293.133 58.9975 293.499 59.0991 293.817 59.2934C294.135 59.4878 294.392 59.7672 294.56 60.1L296.79 64.579C296.928 64.8558 297 65.1608 297 65.47V75C297 75.5305 296.789 76.0392 296.414 76.4143C296.039 76.7893 295.53 77 295 77H281C280.47 77 279.961 76.7893 279.586 76.4143C279.211 76.0392 279 75.5305 279 75V65.472C279 65.1617 279.072 64.8556 279.211 64.578L281.45 60.1C281.617 59.7687 281.873 59.4903 282.189 59.2961C282.505 59.1018 282.869 58.9993 283.24 59H292.76Z" stroke="black" stroke-width="2" stroke-linecap="round" stroke-linejoin="round"/>
<path id="Vector_43" d="M279.054 65.0129H296.947" stroke="black" stroke-width="2" stroke-linecap="round" stroke-linejoin="round"/>
</g></svg>
