<svg viewBox="0 0 24 24" fill="none" xmlns="http://www.w3.org/2000/svg"><g transform="translate(-84 -88)">
<path id="Vector_70" d="M96 110V100" stroke="black" stroke-width="2" stroke-linecap="round" stroke-linejoin="round"/>
<path id="Vector_71" d="M100.5 102.5L105.5 107.5" stroke="black" stroke-width="2" stroke-linecap="round" stroke-linejoin="round"/>
<path id="Vector_72" d="M100.5 107.5L105.5 102.5" stroke="black" stroke-width="2" stroke-linecap="round" stroke-linejoin="round"/>
<path id="Vector_73" d="M105 98.5V96C105 95.6493 104.907 95.3048 104.732 95.0012C104.556 94.6975 104.304 94.4454 104 94.27L97 90.27C96.696 90.0945 96.3511 90.0021 96 90.0021C95.6489 90.0021 95.304 90.0945 95 90.27L88 94.27C87.6963 94.4454 87.444 94.6975 87.2685 95.0012C87.0929 95.3048 87.0004 95.6493 87 96V104C87.0005 104.351 87.0932 104.695 87.2687 104.998C87.4442 105.302 87.6964 105.554 88 105.729L95 109.729C95.304 109.905 95.6488 109.997 95.9999 109.997C96.3509 109.998 96.6959 109.905 97 109.73L97.13 109.656" stroke="black" stroke-width="2" stroke-linecap="round" stroke-linejoin="round"/>
<path id="Vector_74" d="M87.29 95L96 100L104.71 95" stroke="black" stroke-width="2" stroke-linecap="round" stroke-linejoin="round"/>
<path id="Vector_75" d="M91.5 92.27L100.497 97.418" stroke="black" stroke-width="2" stroke-linecap="round" stroke-linejoin="round"/>
</g></svg>
