<svg viewBox="0 0 24 24" fill="none" xmlns="http://www.w3.org/2000/svg"><g transform="translate(-308 -56)">
<path id="Vector_44" d="M320 78V68" stroke="black" stroke-width="2" stroke-linecap="round" stroke-linejoin="round"/>
<path id="Vector_45" d="M324 73L326 75L330 71" stroke="black" stroke-width="2" stroke-linecap="round" stroke-linejoin="round"/>
<path id="Vector_46" d="M329 67.127V64C329 63.6493 328.907 63.3048 328.732 63.0012C328.556 62.6975 328.304 62.4454 328 62.27L321 58.27C320.696 58.0945 320.351 58.0021 320 58.0021C319.649 58.0021 319.304 58.0945 319 58.27L312 62.27C311.696 62.4454 311.444 62.6975 311.268 63.0012C311.093 63.3048 311 63.6493 311 64V72C311.001 72.3506 311.093 72.6948 311.269 72.9983C311.444 73.3018 311.696 73.5537 312 73.729L319 77.729C319.304 77.9047 319.649 77.9973 320 77.9975C320.351 77.9977 320.696 77.9054 321 77.73L322.32 76.977" stroke="black" stroke-width="2" stroke-linecap="round" stroke-linejoin="round"/>
<path id="Vector_47" d="M311.29 63L320 68L328.71 63" stroke="black" stroke-width="2" stroke-linecap="round" stroke-linejoin="round"/>
<path id="Vector_48" d="M315.5 60.27L324.497 65.418" stroke="black" stroke-width="2" stroke-linecap="round" stroke-linejoin="round"/>
</g></svg>
