<svg viewBox="0 0 24 24" fill="none" xmlns="http://www.w3.org/2000/svg"><g transform="translate(-20 -88)">
<path id="Vector_58" d="M32 110V100" stroke="black" stroke-width="2" stroke-linecap="round" stroke-linejoin="round"/>
<path id="Vector_59" d="M36 105H42" stroke="black" stroke-width="2" stroke-linecap="round" stroke-linejoin="round"/>
<path id="Vector_60" d="M39 102V108" stroke="black" stroke-width="2" stroke-linecap="round" stroke-linejoin="round"/>
<path id="Vector_61" d="M41 98.535V96C40.9996 95.6493 40.9071 95.3048 40.7315 95.0012C40.556 94.6975 40.3037 94.4454 40 94.27L33 90.27C32.696 90.0945 32.3511 90.0021 32 90.0021C31.6489 90.0021 31.304 90.0945 31 90.27L24 94.27C23.6963 94.4454 23.444 94.6975 23.2685 95.0012C23.0929 95.3048 23.0004 95.6493 23 96V104C23.0005 104.351 23.0932 104.695 23.2687 104.998C23.4442 105.302 23.6964 105.554 24 105.729L31 109.729C31.304 109.905 31.6488 109.997 31.9999 109.997C32.3509 109.998 32.6959 109.905 33 109.73L34.675 108.775" stroke="black" stroke-width="2" stroke-linecap="round" stroke-linejoin="round"/>
<path id="Vector_62" d="M23.29 95L32 100L40.71 95" stroke="black" stroke-width="2" stroke-linecap="round" stroke-linejoin="round"/>
<path id="Vector_63" d="M27.5 92.27L36.497 97.418" stroke="black" stroke-width="2" stroke-linecap="round" stroke-linejoin="round"/>
</g></svg>
