<svg viewBox="0 0 24 24" fill="none" xmlns="http://www.w3.org/2000/svg"><g transform="translate(-244 -56)">
<path id="Vector_37" d="M255 77.73C255.304 77.9056 255.649 77.998 256 77.998C256.351 77.998 256.696 77.9056 257 77.73L264 73.73C264.304 73.5547 264.556 73.3025 264.732 72.9989C264.907 72.6952 265 72.3508 265 72V64C265 63.6493 264.907 63.3048 264.732 63.0012C264.556 62.6975 264.304 62.4454 264 62.27L257 58.27C256.696 58.0945 256.351 58.0021 256 58.0021C255.649 58.0021 255.304 58.0945 255 58.27L248 62.27C247.696 62.4454 247.444 62.6975 247.268 63.0012C247.093 63.3048 247 63.6493 247 64V72C247 72.3508 247.093 72.6952 247.268 72.9989C247.444 73.3025 247.696 73.5547 248 73.73L255 77.73Z" stroke="black" stroke-width="2" stroke-linecap="round" stroke-linejoin="round"/>
<path id="Vector_38" d="M256 78V68" stroke="black" stroke-width="2" stroke-linecap="round" stroke-linejoin="round"/>
<path id="Vector_39" d="M247.29 63L256 68L264.71 63" stroke="black" stroke-width="2" stroke-linecap="round" stroke-linejoin="round"/>
<path id="Vector_40" d="M251.5 60.27L260.5 65.42" stroke="black" stroke-width="2" stroke-linecap="round" stroke-linejoin="round"/>
</g></svg>
