<svg viewBox="0 0 24 24" fill="none" xmlns="http://www.w3.org/2000/svg"><g transform="translate(-244 -184)">
<path id="Vector_201" d="M255 191L250 186" stroke="black" stroke-width="2" stroke-linecap="round" stroke-linejoin="round"/>
<path id="Vector_202" d="M262.992 196H246.041" stroke="black" stroke-width="2" stroke-linecap="round" stroke-linejoin="round"/>
<path id="Vector_203" d="M264 200.5C264.158 201.238 264.562 201.901 265.145 202.38C265.715 202.845 266 203.395 266 203.975C266.003 204.24 265.954 204.503 265.855 204.748C265.756 204.994 265.609 205.217 265.423 205.405C265.237 205.594 265.016 205.743 264.771 205.845C264.527 205.947 264.265 206 264 206C263.735 206 263.473 205.947 263.229 205.845C262.985 205.743 262.763 205.594 262.577 205.405C262.391 205.217 262.244 204.994 262.145 204.748C262.046 204.503 261.997 204.24 262 203.975C262 203.4 262.28 202.84 262.855 202.38C263.441 201.903 263.845 201.239 264 200.5Z" stroke="black" stroke-width="2" stroke-linecap="round" stroke-linejoin="round"/>
<path id="Vector_204" d="M252.5 188.5L254.648 186.352C254.874 186.126 255.18 185.999 255.5 185.999C255.819 185.999 256.126 186.126 256.352 186.352L263.648 193.648C263.874 193.874 264.001 194.18 264.001 194.5C264.001 194.82 263.874 195.126 263.648 195.352L256.056 202.944C255.378 203.622 254.458 204.003 253.5 204.003C252.541 204.003 251.622 203.622 250.944 202.944L247.056 199.056C246.378 198.378 245.997 197.459 245.997 196.5C245.997 195.541 246.378 194.622 247.056 193.944L249.67 191.33" stroke="black" stroke-width="2" stroke-linecap="round" stroke-linejoin="round"/>
</g></svg>
