<svg viewBox="0 0 24 24" fill="none" xmlns="http://www.w3.org/2000/svg"><g transform="translate(-180 -184)">
<path id="Vector_194" d="M194.622 201.897L183.942 198.984" stroke="black" stroke-width="2" stroke-linecap="round" stroke-linejoin="round"/>
<path id="Vector_195" d="M198.376 186.622C198.574 186.425 198.808 186.269 199.065 186.162C199.323 186.055 199.599 186 199.877 186C200.156 186 200.432 186.055 200.69 186.162C200.947 186.269 201.181 186.425 201.378 186.622C201.576 186.819 201.732 187.053 201.839 187.311C201.945 187.568 202 187.844 202 188.123C202 188.402 201.945 188.678 201.839 188.935C201.732 189.193 201.576 189.427 201.378 189.624L197.36 193.643C197.267 193.737 197.214 193.864 197.214 193.996C197.214 194.129 197.267 194.256 197.36 194.35L198.304 195.294C198.756 195.746 199.01 196.359 199.01 196.998C199.01 197.637 198.756 198.25 198.304 198.702L197.36 199.646C197.267 199.74 197.139 199.792 197.007 199.792C196.874 199.792 196.747 199.74 196.653 199.646L188.354 191.348C188.261 191.254 188.208 191.127 188.208 190.994C188.208 190.862 188.261 190.735 188.354 190.641L189.298 189.697C189.75 189.245 190.363 188.991 191.002 188.991C191.642 188.991 192.254 189.245 192.706 189.697L193.65 190.641C193.744 190.735 193.871 190.787 194.004 190.787C194.136 190.787 194.264 190.735 194.357 190.641L198.376 186.622Z" stroke="black" stroke-width="2" stroke-linecap="round" stroke-linejoin="round"/>
<path id="Vector_196" d="M189 192C187.196 194.71 185.03 195.46 182.417 195.948C182.33 195.964 182.249 196.002 182.182 196.059C182.114 196.115 182.063 196.189 182.032 196.271C182.002 196.354 181.993 196.443 182.008 196.53C182.022 196.617 182.059 196.699 182.115 196.767L189.435 205.65C189.584 205.808 189.78 205.913 189.993 205.95C190.207 205.987 190.427 205.953 190.62 205.854C192.735 204.405 196 200.792 196 199" stroke="black" stroke-width="2" stroke-linecap="round" stroke-linejoin="round"/>
</g></svg>
