<svg viewBox="0 0 24 24" fill="none" xmlns="http://www.w3.org/2000/svg"><g transform="translate(-212 -184)">
<path id="Vector_197" d="M222 186V188" stroke="black" stroke-width="2" stroke-linecap="round" stroke-linejoin="round"/>
<path id="Vector_198" d="M226 186V190" stroke="black" stroke-width="2" stroke-linecap="round" stroke-linejoin="round"/>
<path id="Vector_199" d="M229 186C229.265 186 229.52 186.105 229.707 186.293C229.895 186.48 230 186.735 230 187V196H218V187C218 186.735 218.105 186.48 218.293 186.293C218.48 186.105 218.735 186 219 186H229Z" stroke="black" stroke-width="2" stroke-linecap="round" stroke-linejoin="round"/>
<path id="Vector_200" d="M218 196C217.735 196 217.48 196.105 217.293 196.293C217.105 196.48 217 196.735 217 197V198C217 198.53 217.211 199.039 217.586 199.414C217.961 199.789 218.47 200 219 200H221C221.265 200 221.52 200.105 221.707 200.293C221.895 200.48 222 200.735 222 201V203.9C222 204.43 222.211 204.939 222.586 205.314C222.961 205.689 223.47 205.9 224 205.9C224.53 205.9 225.039 205.689 225.414 205.314C225.789 204.939 226 204.43 226 203.9V201C226 200.735 226.105 200.48 226.293 200.293C226.48 200.105 226.735 200 227 200H229C229.53 200 230.039 199.789 230.414 199.414C230.789 199.039 231 198.53 231 198V197C231 196.735 230.895 196.48 230.707 196.293C230.52 196.105 230.265 196 230 196" stroke="black" stroke-width="2" stroke-linecap="round" stroke-linejoin="round"/>
</g></svg>
