<svg viewBox="0 0 24 24" fill="none" xmlns="http://www.w3.org/2000/svg"><g transform="translate(-276 -184)">
<path id="Vector_205" d="M292 186H280C278.895 186 278 186.895 278 188V190C278 191.105 278.895 192 280 192H292C293.105 192 294 191.105 294 190V188C294 186.895 293.105 186 292 186Z" stroke="black" stroke-width="2" stroke-linecap="round" stroke-linejoin="round"/>
<path id="Vector_206" d="M286 200V198C286 197.47 286.211 196.961 286.586 196.586C286.961 196.211 287.47 196 288 196H296C296.53 196 297.039 195.789 297.414 195.414C297.789 195.039 298 194.53 298 194V191C298 190.47 297.789 189.961 297.414 189.586C297.039 189.211 296.53 189 296 189H294" stroke="black" stroke-width="2" stroke-linecap="round" stroke-linejoin="round"/>
<path id="Vector_207" d="M287 200H285C284.448 200 284 200.448 284 201V205C284 205.552 284.448 206 285 206H287C287.552 206 288 205.552 288 205V201C288 200.448 287.552 200 287 200Z" stroke="black" stroke-width="2" stroke-linecap="round" stroke-linejoin="round"/>
</g></svg>
