<svg viewBox="0 0 24 24" fill="none" xmlns="http://www.w3.org/2000/svg"><g transform="translate(-308 -184)">
<path id="Vector_208" d="M320 206C317.348 206 314.804 204.946 312.929 203.071C311.054 201.196 310 198.652 310 196C310 193.348 311.054 190.804 312.929 188.929C314.804 187.054 317.348 186 320 186C322.652 186 325.196 186.948 327.071 188.636C328.946 190.324 330 192.613 330 195C330 196.326 329.473 197.598 328.536 198.536C327.598 199.473 326.326 200 325 200H322.75C322.425 200 322.106 200.09 321.83 200.261C321.554 200.432 321.33 200.677 321.185 200.967C321.039 201.258 320.978 201.583 321.007 201.907C321.036 202.231 321.155 202.54 321.35 202.8L321.65 203.2C321.845 203.46 321.964 203.769 321.993 204.093C322.022 204.417 321.961 204.742 321.815 205.033C321.67 205.323 321.446 205.568 321.17 205.739C320.894 205.91 320.575 206 320.25 206H320Z" stroke="black" stroke-width="2" stroke-linecap="round" stroke-linejoin="round"/>
<path id="Vector_209" d="M321.5 191C321.776 191 322 190.776 322 190.5C322 190.224 321.776 190 321.5 190C321.224 190 321 190.224 321 190.5C321 190.776 321.224 191 321.5 191Z" fill="black" stroke="black" stroke-width="2" stroke-linecap="round" stroke-linejoin="round"/>
<path id="Vector_210" d="M325.5 195C325.776 195 326 194.776 326 194.5C326 194.224 325.776 194 325.5 194C325.224 194 325 194.224 325 194.5C325 194.776 325.224 195 325.5 195Z" fill="black" stroke="black" stroke-width="2" stroke-linecap="round" stroke-linejoin="round"/>
<path id="Vector_211" d="M314.5 197C314.776 197 315 196.776 315 196.5C315 196.224 314.776 196 314.5 196C314.224 196 314 196.224 314 196.5C314 196.776 314.224 197 314.5 197Z" fill="black" stroke="black" stroke-width="2" stroke-linecap="round" stroke-linejoin="round"/>
<path id="Vector_212" d="M316.5 192C316.776 192 317 191.776 317 191.5C317 191.224 316.776 191 316.5 191C316.224 191 316 191.224 316 191.5C316 191.776 316.224 192 316.5 192Z" fill="black" stroke="black" stroke-width="2" stroke-linecap="round" stroke-linejoin="round"/>
</g></svg>
