<svg viewBox="0 0 24 24" fill="none" xmlns="http://www.w3.org/2000/svg"><g transform="translate(-180 -56)">
<path id="Vector_23" d="M191.25 73.25H192.75L192 74L191.25 73.25Z" stroke="black" stroke-width="2" stroke-linecap="round" stroke-linejoin="round"/>
<path id="Vector_24" d="M195 68L197 70" stroke="black" stroke-width="2" stroke-linecap="round" stroke-linejoin="round"/>
<path id="Vector_25" d="M198 62.5C198 62.3674 197.947 62.2402 197.854 62.1464C197.76 62.0527 197.633 62 197.5 62" stroke="black" stroke-width="2" stroke-linecap="round" stroke-linejoin="round"/>
<path id="Vector_26" d="M200.69 65.67C201.14 65.2193 201.489 64.6781 201.714 64.0823C201.94 63.4866 202.036 62.8497 201.997 62.214C201.958 61.5782 201.784 60.958 201.487 60.3944C201.191 59.8307 200.778 59.3365 200.276 58.9444C199.774 58.5522 199.194 58.2711 198.576 58.1196C197.957 57.9681 197.313 57.9497 196.687 58.0655C196.06 58.1814 195.466 58.4289 194.942 58.7917C194.419 59.1545 193.978 59.6243 193.65 60.17C192.561 59.9505 191.439 59.9505 190.35 60.17C190.021 59.6243 189.581 59.1545 189.057 58.7917C188.534 58.4289 187.939 58.1814 187.313 58.0655C186.686 57.9497 186.043 57.9681 185.424 58.1196C184.805 58.2711 184.226 58.5522 183.724 58.9444C183.222 59.3365 182.809 59.8307 182.512 60.3944C182.215 60.958 182.042 61.5782 182.003 62.214C181.964 62.8497 182.06 63.4866 182.285 64.0823C182.51 64.6781 182.86 65.2193 183.31 65.67C182.49 67.2 182 68.88 182 70.5C182 75.47 186.48 78 192 78C197.52 78 202 75.47 202 70.5C202 68.88 201.52 67.2 200.7 65.67" stroke="black" stroke-width="2" stroke-linecap="round" stroke-linejoin="round"/>
<path id="Vector_27" d="M186 62.5C185.999 62.4342 186.012 62.3689 186.037 62.3079C186.062 62.2469 186.098 62.1915 186.145 62.145C186.192 62.0984 186.247 62.0616 186.308 62.0367C186.369 62.0118 186.434 61.9994 186.5 62" stroke="black" stroke-width="2" stroke-linecap="round" stroke-linejoin="round"/>
<path id="Vector_28" d="M189 68L187 70" stroke="black" stroke-width="2" stroke-linecap="round" stroke-linejoin="round"/>
</g></svg>
