<svg viewBox="0 0 24 24" fill="none" xmlns="http://www.w3.org/2000/svg"><g transform="translate(-116 -88)">
<path id="Vector_76" d="M121.364 91.848C120 94 119 97.652 119 100.652V107C119 107.53 119.211 108.039 119.586 108.414C119.961 108.789 120.47 109 121 109H135C135.53 109 136.039 108.789 136.414 108.414C136.789 108.039 137 107.53 137 107V102C137 99.666 135.184 97.332 134.378 94.998" stroke="black" stroke-width="2" stroke-linecap="round" stroke-linejoin="round"/>
<path id="Vector_77" d="M123 91H134.379C134.751 91 135.115 91.1035 135.431 91.2989C135.747 91.4942 136.002 91.7737 136.168 92.106L136.891 93.553C136.967 93.7054 137.003 93.8748 136.996 94.045C136.988 94.2152 136.937 94.3807 136.847 94.5256C136.758 94.6706 136.633 94.7902 136.484 94.8733C136.335 94.9563 136.168 94.9999 135.997 95H127.472C127.101 95 126.736 94.8965 126.42 94.7012C126.105 94.5058 125.849 94.2263 125.683 93.894L124.79 92.105C124.673 91.87 124.51 91.6605 124.312 91.4883C124.113 91.3161 123.883 91.1847 123.633 91.1016C123.13 90.9338 122.581 90.9728 122.106 91.21C121.632 91.4472 121.271 91.8633 121.103 92.3667C120.935 92.87 120.974 93.4194 121.211 93.894L123.472 98.416C123.819 99.1103 124 99.8758 124 100.652V109" stroke="black" stroke-width="2" stroke-linecap="round" stroke-linejoin="round"/>
</g></svg>
