<svg viewBox="0 0 24 24" fill="none" xmlns="http://www.w3.org/2000/svg"><g transform="translate(-180 -280)">
<path id="Vector_386" d="M196 286L187.586 294.586C187.211 294.961 187 295.47 187 296C187 296.531 187.211 297.04 187.586 297.415C187.961 297.79 188.47 298.001 189.001 298.001C189.531 298.001 190.04 297.79 190.415 297.415L198.829 288.829C199.579 288.079 200.001 287.061 200.001 286C200.001 284.94 199.579 283.922 198.829 283.172C198.079 282.422 197.061 282 196.001 282C194.94 282 193.922 282.422 193.172 283.172L184.793 291.723C184.228 292.278 183.779 292.94 183.472 293.67C183.164 294.4 183.004 295.184 183.001 295.976C182.998 296.768 183.151 297.552 183.453 298.285C183.755 299.017 184.198 299.683 184.758 300.243C185.318 300.803 185.984 301.246 186.716 301.548C187.449 301.85 188.233 302.003 189.025 302C189.817 301.997 190.601 301.837 191.331 301.529C192.061 301.222 192.723 300.773 193.278 300.208L201.657 291.657" stroke="black" stroke-width="2" stroke-linecap="round" stroke-linejoin="round"/>
</g></svg>
