<svg viewBox="0 0 24 24" fill="none" xmlns="http://www.w3.org/2000/svg"><g transform="translate(-244 -88)">
<path id="Vector_112" d="M255 103H257" stroke="black" stroke-width="2" stroke-linecap="round" stroke-linejoin="round"/>
<path id="Vector_113" d="M256 100V103" stroke="black" stroke-width="2" stroke-linecap="round" stroke-linejoin="round"/>
<path id="Vector_114" d="M256 107V110" stroke="black" stroke-width="2" stroke-linecap="round" stroke-linejoin="round"/>
<path id="Vector_115" d="M259.282 107C259.491 107 259.695 106.935 259.865 106.813C260.036 106.691 260.163 106.518 260.23 106.32L262.6 99.332C262.973 98.2762 263.087 97.1463 262.934 96.0372C262.78 94.928 262.362 93.872 261.715 92.9578C261.069 92.0435 260.212 91.2977 259.218 90.783C258.223 90.2683 257.12 89.9996 256 89.9996C254.88 89.9996 253.777 90.2683 252.782 90.783C251.788 91.2977 250.931 92.0435 250.285 92.9578C249.638 93.872 249.22 94.928 249.066 96.0372C248.913 97.1463 249.027 98.2762 249.4 99.332L251.77 106.32C251.837 106.518 251.964 106.691 252.135 106.813C252.305 106.935 252.509 107 252.718 107H259.282Z" stroke="black" stroke-width="2" stroke-linecap="round" stroke-linejoin="round"/>
<path id="Vector_116" d="M253 97C253 96.2044 253.316 95.4413 253.879 94.8787C254.441 94.3161 255.204 94 256 94C256.796 94 257.559 94.3161 258.121 94.8787C258.684 95.4413 259 96.2044 259 97" stroke="black" stroke-width="2" stroke-linecap="round" stroke-linejoin="round"/>
</g></svg>
