<svg viewBox="0 0 24 24" fill="none" xmlns="http://www.w3.org/2000/svg"><g transform="translate(-276 -120)">
<path id="Vector_143" d="M281.8 131.3L278 142L288.7 138.21" stroke="black" stroke-width="2" stroke-linecap="round" stroke-linejoin="round"/>
<path id="Vector_144" d="M280 123H280.01" stroke="black" stroke-width="2" stroke-linecap="round" stroke-linejoin="round"/>
<path id="Vector_145" d="M298 128H298.01" stroke="black" stroke-width="2" stroke-linecap="round" stroke-linejoin="round"/>
<path id="Vector_146" d="M291 122H291.01" stroke="black" stroke-width="2" stroke-linecap="round" stroke-linejoin="round"/>
<path id="Vector_147" d="M298 140H298.01" stroke="black" stroke-width="2" stroke-linecap="round" stroke-linejoin="round"/>
<path id="Vector_148" d="M298 122L295.76 122.75C295.122 122.962 294.578 123.39 294.221 123.959C293.863 124.528 293.715 125.203 293.8 125.87C293.9 126.73 293.23 127.5 292.35 127.5H291.97C291.11 127.5 290.37 128.1 290.21 128.94L290 130" stroke="black" stroke-width="2" stroke-linecap="round" stroke-linejoin="round"/>
<path id="Vector_149" d="M298 133L297.18 132.67C296.32 132.33 295.36 132.87 295.2 133.78C295.09 134.48 294.48 135 293.77 135H293" stroke="black" stroke-width="2" stroke-linecap="round" stroke-linejoin="round"/>
<path id="Vector_150" d="M287 122L287.33 122.82C287.67 123.68 287.13 124.64 286.22 124.8C285.52 124.9 285 125.52 285 126.23V127" stroke="black" stroke-width="2" stroke-linecap="round" stroke-linejoin="round"/>
<path id="Vector_151" d="M287 133C288.93 134.93 289.83 137.17 289 138C288.17 138.83 285.93 137.93 284 136C282.07 134.07 281.17 131.83 282 131C282.83 130.17 285.07 131.07 287 133Z" stroke="black" stroke-width="2" stroke-linecap="round" stroke-linejoin="round"/>
</g></svg>
