<svg viewBox="0 0 24 24" fill="none" xmlns="http://www.w3.org/2000/svg"><g transform="translate(-180 -152)">
<path id="Vector_160" d="M198 155H195C194.448 155 194 155.448 194 156V172C194 172.552 194.448 173 195 173H198C198.552 173 199 172.552 199 172V156C199 155.448 198.552 155 198 155Z" stroke="black" stroke-width="2" stroke-linecap="round" stroke-linejoin="round"/>
<path id="Vector_161" d="M189 155H186C185.448 155 185 155.448 185 156V172C185 172.552 185.448 173 186 173H189C189.552 173 190 172.552 190 172V156C190 155.448 189.552 155 189 155Z" stroke="black" stroke-width="2" stroke-linecap="round" stroke-linejoin="round"/>
</g></svg>
