<svg viewBox="0 0 24 24" fill="none" xmlns="http://www.w3.org/2000/svg"><g transform="translate(-212 -56)">
<path id="Vector_29" d="M223 62C224.105 62 225 61.1046 225 60C225 58.8954 224.105 58 223 58C221.895 58 221 58.8954 221 60C221 61.1046 221.895 62 223 62Z" stroke="black" stroke-width="2" stroke-linecap="round" stroke-linejoin="round"/>
<path id="Vector_30" d="M230 66C231.105 66 232 65.1046 232 64C232 62.8954 231.105 62 230 62C228.895 62 228 62.8954 228 64C228 65.1046 228.895 66 230 66Z" stroke="black" stroke-width="2" stroke-linecap="round" stroke-linejoin="round"/>
<path id="Vector_31" d="M232 74C233.105 74 234 73.1046 234 72C234 70.8954 233.105 70 232 70C230.895 70 230 70.8954 230 72C230 73.1046 230.895 74 232 74Z" stroke="black" stroke-width="2" stroke-linecap="round" stroke-linejoin="round"/>
<path id="Vector_32" d="M221 66C221.656 66 222.307 66.1293 222.913 66.3806C223.52 66.6319 224.071 67.0002 224.535 67.4645C225 67.9288 225.368 68.48 225.619 69.0866C225.87 69.6932 226 70.3434 226 71V74.5C225.999 75.3365 225.7 76.1452 225.155 76.7796C224.609 77.4141 223.855 77.8324 223.028 77.9587C222.201 78.085 221.357 77.9111 220.647 77.4683C219.937 77.0255 219.41 76.3432 219.16 75.545C218.733 74.1683 217.833 73.2667 216.46 72.84C215.662 72.5901 214.98 72.0629 214.537 71.3538C214.094 70.6446 213.92 69.8004 214.046 68.9739C214.171 68.1473 214.589 67.3931 215.222 66.8476C215.856 66.3021 216.664 66.0015 217.5 66H221Z" stroke="black" stroke-width="2" stroke-linecap="round" stroke-linejoin="round"/>
</g></svg>
