<svg viewBox="0 0 32 32" fill="none" xmlns="http://www.w3.org/2000/svg"><g transform="translate(-20 -96)">
<g id="Shape_6">
<path d="M49 116.519C49 115.2 48.3924 114.031 47.4409 113.263C47.0626 114.019 46.4206 114.627 45.6296 114.948C46.7531 114.363 47.5212 113.194 47.5212 111.841C47.5212 109.915 45.9621 108.368 44.0247 108.368C43.8757 108.368 43.7381 108.379 43.6005 108.391C44.082 109.445 44.3571 110.603 44.3571 111.841C44.3571 111.922 44.3571 112.002 44.3457 112.082C44.2081 107.6 40.5282 104 36 104C31.4947 104 27.8148 107.577 27.6658 112.048C27.6658 111.979 27.6543 111.91 27.6543 111.841C27.6543 110.603 27.9295 109.434 28.4109 108.379C25.3616 108.769 23 111.36 23 114.512C23 117.929 25.7743 120.692 29.179 120.692H44.9074V120.68C47.1772 120.646 49 118.8 49 116.519Z" fill="#1BBED0"/>
<path d="M36.0001 105.617C32.2858 105.617 29.2823 108.62 29.2823 112.334C29.2823 116.049 32.2858 119.052 36.0001 119.052C39.7144 119.052 42.7179 116.049 42.7179 112.334C42.7179 108.62 39.7144 105.617 36.0001 105.617ZM36.0001 118.181C32.7673 118.181 30.1421 115.556 30.1421 112.323C30.1421 109.09 32.7673 106.465 36.0001 106.465C39.2329 106.465 41.8581 109.09 41.8581 112.323C41.8581 115.556 39.2329 118.181 36.0001 118.181Z" fill="white"/>
<path d="M34.1771 108.827C33.6268 108.827 33.1912 109.274 33.1912 109.812V115.178C33.1912 115.728 33.6383 116.163 34.1771 116.163C34.7273 116.163 35.163 115.716 35.163 115.178V114.031H37.0774C38.5219 114.031 39.6797 112.862 39.6797 111.429C39.6797 109.996 38.5104 108.827 37.0774 108.827M37.0889 112.197H35.1515V110.661H37.0889C37.5131 110.661 37.857 111.005 37.857 111.429C37.857 111.853 37.5131 112.197 37.0889 112.197Z" fill="white"/>
</g>
</g></svg>
