<svg viewBox="0 0 24 24" fill="none" xmlns="http://www.w3.org/2000/svg"><g transform="translate(-148 -216)">
<path id="Vector_237" d="M161 237H169" stroke="black" stroke-width="2" stroke-linecap="round" stroke-linejoin="round"/>
<path id="Vector_238" d="M169.174 222.812C169.703 222.283 170 221.566 170 220.819C170 220.071 169.703 219.354 169.174 218.826C168.646 218.297 167.929 218 167.181 218C166.434 218 165.717 218.296 165.188 218.825L151.842 232.174C151.61 232.406 151.438 232.691 151.342 233.004L150.021 237.356C149.995 237.442 149.993 237.534 150.015 237.622C150.037 237.709 150.083 237.789 150.147 237.853C150.211 237.917 150.291 237.962 150.378 237.984C150.466 238.006 150.557 238.004 150.644 237.978L154.997 236.658C155.31 236.563 155.595 236.392 155.827 236.161L169.174 222.812Z" stroke="black" stroke-width="2" stroke-linecap="round" stroke-linejoin="round"/>
</g></svg>
