<svg viewBox="0 0 24 24" fill="none" xmlns="http://www.w3.org/2000/svg"><g transform="translate(-212 -216)">
<path id="Vector_242" d="M227.707 237.293C227.519 237.48 227.265 237.586 227 237.586C226.735 237.586 226.48 237.48 226.293 237.293L224.707 235.707C224.519 235.519 224.414 235.265 224.414 235C224.414 234.735 224.519 234.48 224.707 234.293L230.293 228.707C230.48 228.52 230.735 228.414 231 228.414C231.265 228.414 231.519 228.52 231.707 228.707L233.293 230.293C233.48 230.48 233.586 230.735 233.586 231C233.586 231.265 233.48 231.519 233.293 231.707L227.707 237.293Z" stroke="black" stroke-width="2" stroke-linecap="round" stroke-linejoin="round"/>
<path id="Vector_243" d="M230 229L228.625 222.126C228.588 221.939 228.498 221.767 228.365 221.629C228.233 221.492 228.064 221.395 227.879 221.35L215.235 218.028C215.068 217.988 214.894 217.991 214.729 218.037C214.564 218.084 214.414 218.172 214.293 218.293C214.172 218.414 214.084 218.564 214.037 218.729C213.991 218.894 213.988 219.068 214.028 219.235L217.35 231.879C217.395 232.064 217.492 232.233 217.629 232.365C217.767 232.498 217.939 232.588 218.126 232.625L225 234" stroke="black" stroke-width="2" stroke-linecap="round" stroke-linejoin="round"/>
<path id="Vector_244" d="M214.3 218.3L221.586 225.586" stroke="black" stroke-width="2" stroke-linecap="round" stroke-linejoin="round"/>
<path id="Vector_245" d="M223 229C224.105 229 225 228.105 225 227C225 225.895 224.105 225 223 225C221.895 225 221 225.895 221 227C221 228.105 221.895 229 223 229Z" stroke="black" stroke-width="2" stroke-linecap="round" stroke-linejoin="round"/>
</g></svg>
