<svg viewBox="0 0 24 24" fill="none" xmlns="http://www.w3.org/2000/svg"><g transform="translate(-180 -216)">
<path id="Vector_239" d="M190 226L183.843 232.162C183.61 232.394 183.438 232.68 183.343 232.995L182.021 237.355C181.994 237.442 181.992 237.533 182.014 237.621C182.036 237.709 182.081 237.789 182.145 237.853C182.209 237.917 182.289 237.963 182.376 237.985C182.464 238.007 182.556 238.005 182.643 237.979L187.001 236.656C187.314 236.56 187.599 236.388 187.831 236.156L194 229.982" stroke="black" stroke-width="2" stroke-linecap="round" stroke-linejoin="round"/>
<path id="Vector_240" d="M192.829 223.172L197.188 218.826C197.45 218.564 197.761 218.357 198.102 218.215C198.444 218.073 198.811 218 199.181 218C199.551 218 199.918 218.073 200.26 218.215C200.602 218.357 200.912 218.564 201.174 218.826C201.436 219.088 201.643 219.398 201.785 219.74C201.927 220.082 202 220.449 202 220.819C202 221.189 201.927 221.556 201.785 221.898C201.643 222.24 201.436 222.55 201.174 222.812L196.821 227.165" stroke="black" stroke-width="2" stroke-linecap="round" stroke-linejoin="round"/>
<path id="Vector_241" d="M182 218L202 238" stroke="black" stroke-width="2" stroke-linecap="round" stroke-linejoin="round"/>
</g></svg>
