<svg viewBox="0 0 24 24" fill="none" xmlns="http://www.w3.org/2000/svg"><g transform="translate(-340 -184)">
<path id="Vector_213" d="M361.174 190.812C361.703 190.283 362 189.566 362 188.819C362 188.071 361.703 187.354 361.174 186.826C360.646 186.297 359.929 186 359.181 186C358.434 186 357.717 186.296 357.188 186.825L343.842 200.174C343.61 200.406 343.438 200.691 343.342 201.004L342.021 205.356C341.995 205.442 341.993 205.534 342.015 205.622C342.037 205.709 342.083 205.789 342.147 205.853C342.211 205.917 342.291 205.962 342.378 205.984C342.466 206.006 342.557 206.004 342.644 205.978L346.997 204.658C347.31 204.563 347.595 204.392 347.827 204.161L361.174 190.812Z" stroke="black" stroke-width="2" stroke-linecap="round" stroke-linejoin="round"/>
</g></svg>
