<svg viewBox="0 0 24 24" fill="none" xmlns="http://www.w3.org/2000/svg"><g transform="translate(-116 -216)">
<path id="Vector_229" d="M126 219H124" stroke="black" stroke-width="2" stroke-linecap="round" stroke-linejoin="round"/>
<path id="Vector_230" d="M131.007 221.008L134.994 224.994" stroke="black" stroke-width="2" stroke-linecap="round" stroke-linejoin="round"/>
<path id="Vector_231" d="M136 231V235" stroke="black" stroke-width="2" stroke-linecap="round" stroke-linejoin="round"/>
<path id="Vector_232" d="M137.174 222.813C137.678 222.28 137.955 221.57 137.944 220.836C137.934 220.102 137.638 219.401 137.119 218.882C136.6 218.363 135.899 218.066 135.165 218.056C134.431 218.046 133.722 218.322 133.188 218.826L119.842 232.175C119.61 232.407 119.438 232.692 119.342 233.005L118.021 237.357C117.995 237.443 117.993 237.535 118.015 237.623C118.037 237.71 118.083 237.79 118.147 237.854C118.211 237.918 118.291 237.963 118.378 237.985C118.466 238.007 118.557 238.005 118.644 237.979L122.997 236.659C123.31 236.564 123.595 236.393 123.827 236.162L137.174 222.813Z" stroke="black" stroke-width="2" stroke-linecap="round" stroke-linejoin="round"/>
<path id="Vector_233" d="M138 233H134" stroke="black" stroke-width="2" stroke-linecap="round" stroke-linejoin="round"/>
<path id="Vector_234" d="M120 221V225" stroke="black" stroke-width="2" stroke-linecap="round" stroke-linejoin="round"/>
<path id="Vector_235" d="M122 223H118" stroke="black" stroke-width="2" stroke-linecap="round" stroke-linejoin="round"/>
<path id="Vector_236" d="M125 218V220" stroke="black" stroke-width="2" stroke-linecap="round" stroke-linejoin="round"/>
</g></svg>
