<svg viewBox="0 0 24 24" fill="none" xmlns="http://www.w3.org/2000/svg"><g transform="translate(-372 -184)">
<path id="Vector_214" d="M393.174 190.812C393.703 190.283 394 189.566 394 188.819C394 188.071 393.703 187.354 393.174 186.826C392.646 186.297 391.929 186 391.181 186C390.434 186 389.717 186.296 389.188 186.825L375.842 200.174C375.61 200.406 375.438 200.691 375.342 201.004L374.021 205.356C373.995 205.442 373.993 205.534 374.015 205.622C374.037 205.709 374.083 205.789 374.147 205.853C374.211 205.917 374.291 205.962 374.378 205.984C374.466 206.006 374.557 206.004 374.644 205.978L378.997 204.658C379.31 204.563 379.595 204.392 379.827 204.161L393.174 190.812Z" stroke="black" stroke-width="2" stroke-linecap="round" stroke-linejoin="round"/>
<path id="Vector_215" d="M387 189L391 193" stroke="black" stroke-width="2" stroke-linecap="round" stroke-linejoin="round"/>
</g></svg>
