<svg viewBox="0 0 24 24" fill="none" xmlns="http://www.w3.org/2000/svg"><g transform="translate(-20 -216)">
<path id="Vector_216" d="M33 237H41" stroke="black" stroke-width="2" stroke-linecap="round" stroke-linejoin="round"/>
<path id="Vector_217" d="M35 221L39 225" stroke="black" stroke-width="2" stroke-linecap="round" stroke-linejoin="round"/>
<path id="Vector_218" d="M41.1739 222.812C41.7026 222.283 41.9997 221.566 41.9998 220.819C41.9999 220.071 41.703 219.354 41.1744 218.826C40.6459 218.297 39.9289 218 39.1813 218C38.4337 218 37.7166 218.296 37.1879 218.825L23.8419 232.174C23.6098 232.406 23.438 232.691 23.3419 233.004L22.0209 237.356C21.9951 237.442 21.9931 237.534 22.0153 237.622C22.0374 237.709 22.0829 237.789 22.1467 237.853C22.2106 237.917 22.2906 237.962 22.3781 237.984C22.4656 238.006 22.5575 238.004 22.6439 237.978L26.9969 236.658C27.3101 236.563 27.5951 236.392 27.8269 236.161L41.1739 222.812Z" stroke="black" stroke-width="2" stroke-linecap="round" stroke-linejoin="round"/>
</g></svg>
