<svg viewBox="0 0 24 24" fill="none" xmlns="http://www.w3.org/2000/svg"><g transform="translate(-52 -216)">
<path id="Vector_219" d="M61.9995 226L55.8425 232.162C55.6099 232.394 55.4382 232.68 55.3425 232.995L54.0205 237.355C53.9943 237.442 53.992 237.533 54.0139 237.621C54.0358 237.709 54.0811 237.789 54.1449 237.853C54.2087 237.917 54.2887 237.963 54.3763 237.985C54.4639 238.007 54.5559 238.005 54.6425 237.979L59.0005 236.656C59.314 236.56 59.599 236.388 59.8305 236.156L65.9995 229.982" stroke="black" stroke-width="2" stroke-linecap="round" stroke-linejoin="round"/>
<path id="Vector_220" d="M64.8291 223.172L69.1881 218.826C69.4498 218.564 69.7605 218.357 70.1025 218.215C70.4445 218.073 70.811 218 71.1811 218C71.5512 218 71.9177 218.073 72.2597 218.215C72.6017 218.357 72.9124 218.564 73.1741 218.826C73.4358 219.088 73.6434 219.398 73.7851 219.74C73.9267 220.082 73.9996 220.449 73.9996 220.819C73.9996 221.189 73.9267 221.556 73.7851 221.898C73.6434 222.24 73.4358 222.55 73.1741 222.812L68.8211 227.165" stroke="black" stroke-width="2" stroke-linecap="round" stroke-linejoin="round"/>
<path id="Vector_221" d="M67 221L71 225" stroke="black" stroke-width="2" stroke-linecap="round" stroke-linejoin="round"/>
<path id="Vector_222" d="M54 218L74 238" stroke="black" stroke-width="2" stroke-linecap="round" stroke-linejoin="round"/>
</g></svg>
