<svg viewBox="0 0 24 24" fill="none" xmlns="http://www.w3.org/2000/svg"><g transform="translate(-84 -216)">
<path id="Vector_223" d="M96.9998 223L92.6998 218.7C92.2482 218.251 91.637 217.998 90.9998 217.998C90.3627 217.998 89.7514 218.251 89.2998 218.7L86.6998 221.3C86.2504 221.752 85.998 222.363 85.998 223C85.998 223.637 86.2504 224.248 86.6998 224.7L90.9998 229" stroke="black" stroke-width="2" stroke-linecap="round" stroke-linejoin="round"/>
<path id="Vector_224" d="M92 222L94 220" stroke="black" stroke-width="2" stroke-linecap="round" stroke-linejoin="round"/>
<path id="Vector_225" d="M102 232L104 230" stroke="black" stroke-width="2" stroke-linecap="round" stroke-linejoin="round"/>
<path id="Vector_226" d="M101 227L105.3 231.3C106.24 232.24 106.24 233.76 105.3 234.7L102.7 237.3C101.76 238.24 100.24 238.24 99.3 237.3L95 233" stroke="black" stroke-width="2" stroke-linecap="round" stroke-linejoin="round"/>
<path id="Vector_227" d="M105.174 222.812C105.703 222.283 106 221.566 106 220.819C106 220.071 105.703 219.354 105.174 218.826C104.646 218.297 103.929 218 103.181 218C102.434 218 101.717 218.296 101.188 218.825L87.8419 232.174C87.6098 232.406 87.438 232.691 87.3419 233.004L86.0209 237.356C85.9951 237.442 85.9931 237.534 86.0153 237.622C86.0374 237.709 86.0829 237.789 86.1467 237.853C86.2106 237.917 86.2906 237.962 86.3781 237.984C86.4656 238.006 86.5575 238.004 86.6439 237.978L90.9969 236.658C91.3101 236.563 91.5951 236.392 91.8269 236.161L105.174 222.812Z" stroke="black" stroke-width="2" stroke-linecap="round" stroke-linejoin="round"/>
<path id="Vector_228" d="M99 221L103 225" stroke="black" stroke-width="2" stroke-linecap="round" stroke-linejoin="round"/>
</g></svg>
