<svg viewBox="0 0 24 24" fill="none" xmlns="http://www.w3.org/2000/svg"><g transform="translate(-340 -184)">
<path id="Vector_170" d="M350.83 186.38C351.171 186.134 351.58 186.002 352 186.002C352.42 186.002 352.829 186.134 353.17 186.38L361.17 192.12C361.515 192.369 361.772 192.721 361.903 193.126C362.035 193.53 362.033 193.966 361.9 194.37L358.86 203.63C358.727 204.029 358.473 204.376 358.131 204.622C357.79 204.868 357.38 205 356.96 205H347.04C346.619 205 346.209 204.868 345.868 204.622C345.527 204.376 345.272 204.029 345.14 203.63L342.1 194.37C341.967 193.966 341.965 193.53 342.097 193.126C342.228 192.721 342.485 192.369 342.83 192.12L350.83 186.38Z" stroke="black" stroke-width="2" stroke-linecap="round" stroke-linejoin="round"/>
</g></svg>
