<svg viewBox="0 0 24 24" fill="none" xmlns="http://www.w3.org/2000/svg"><g transform="translate(-84 -56)">
<path id="Vector_3" d="M100 67C101.66 67 102.99 65.66 102.99 64C102.99 62.34 101.66 61 100 61C98.34 61 97 62.34 97 64C97 65.66 98.34 67 100 67ZM92 67C93.66 67 94.99 65.66 94.99 64C94.99 62.34 93.66 61 92 61C90.34 61 89 62.34 89 64C89 65.66 90.34 67 92 67ZM92 69C89.67 69 85 70.17 85 72.5V75H99V72.5C99 70.17 94.33 69 92 69ZM100 69C99.71 69 99.38 69.02 99.03 69.05C100.19 69.89 101 71.02 101 72.5V75H107V72.5C107 70.17 102.33 69 100 69Z" fill="black" fill-opacity="0.56"/>
</g></svg>
