<svg viewBox="0 0 24 24" fill="none" xmlns="http://www.w3.org/2000/svg"><g transform="translate(-372 -152)">
<path id="Vector_150" d="M385 154C387.387 154 389.676 154.948 391.364 156.636C393.052 158.324 394 160.613 394 163" stroke="black" stroke-width="2" stroke-linecap="round" stroke-linejoin="round"/>
<path id="Vector_151" d="M385 158C386.326 158 387.598 158.527 388.536 159.464C389.473 160.402 390 161.674 390 163" stroke="black" stroke-width="2" stroke-linecap="round" stroke-linejoin="round"/>
<path id="Vector_152" d="M385.832 168.568C386.039 168.663 386.271 168.685 386.492 168.629C386.712 168.574 386.907 168.446 387.045 168.265L387.4 167.8C387.586 167.552 387.828 167.35 388.106 167.211C388.383 167.072 388.69 167 389 167H392C392.53 167 393.039 167.211 393.414 167.586C393.789 167.961 394 168.47 394 169V172C394 172.53 393.789 173.039 393.414 173.414C393.039 173.789 392.53 174 392 174C387.226 174 382.648 172.104 379.272 168.728C375.896 165.352 374 160.774 374 156C374 155.47 374.211 154.961 374.586 154.586C374.961 154.211 375.47 154 376 154H379C379.53 154 380.039 154.211 380.414 154.586C380.789 154.961 381 155.47 381 156V159C381 159.31 380.928 159.617 380.789 159.894C380.65 160.172 380.448 160.414 380.2 160.6L379.732 160.951C379.548 161.091 379.419 161.291 379.366 161.515C379.313 161.74 379.339 161.976 379.44 162.184C380.807 164.96 383.054 167.205 385.832 168.568Z" stroke="black" stroke-width="2" stroke-linecap="round" stroke-linejoin="round"/>
</g></svg>
