<svg viewBox="0 0 24 24" fill="none" xmlns="http://www.w3.org/2000/svg"><g transform="translate(-340 -152)">
<path id="Vector_149" d="M353.832 168.568C354.039 168.663 354.271 168.685 354.492 168.629C354.712 168.574 354.907 168.446 355.045 168.265L355.4 167.8C355.586 167.552 355.828 167.35 356.106 167.211C356.383 167.072 356.69 167 357 167H360C360.53 167 361.039 167.211 361.414 167.586C361.789 167.961 362 168.47 362 169V172C362 172.53 361.789 173.039 361.414 173.414C361.039 173.789 360.53 174 360 174C355.226 174 350.648 172.104 347.272 168.728C343.896 165.352 342 160.774 342 156C342 155.47 342.211 154.961 342.586 154.586C342.961 154.211 343.47 154 344 154H347C347.53 154 348.039 154.211 348.414 154.586C348.789 154.961 349 155.47 349 156V159C349 159.31 348.928 159.617 348.789 159.894C348.65 160.172 348.448 160.414 348.2 160.6L347.732 160.951C347.548 161.091 347.419 161.291 347.366 161.515C347.313 161.74 347.339 161.976 347.44 162.184C348.807 164.96 351.054 167.205 353.832 168.568Z" stroke="black" stroke-width="2" stroke-linecap="round" stroke-linejoin="round"/>
</g></svg>
