<svg viewBox="0 0 24 24" fill="none" xmlns="http://www.w3.org/2000/svg"><g transform="translate(-148 -184)">
<path id="Vector_165" d="M164 192L170 186" stroke="black" stroke-width="2" stroke-linecap="round" stroke-linejoin="round"/>
<path id="Vector_166" d="M170 192V186H164" stroke="black" stroke-width="2" stroke-linecap="round" stroke-linejoin="round"/>
<path id="Vector_167" d="M161.832 200.568C162.039 200.663 162.271 200.685 162.492 200.629C162.712 200.574 162.907 200.446 163.045 200.265L163.4 199.8C163.586 199.552 163.828 199.35 164.106 199.211C164.383 199.072 164.69 199 165 199H168C168.53 199 169.039 199.211 169.414 199.586C169.789 199.961 170 200.47 170 201V204C170 204.53 169.789 205.039 169.414 205.414C169.039 205.789 168.53 206 168 206C163.226 206 158.648 204.104 155.272 200.728C151.896 197.352 150 192.774 150 188C150 187.47 150.211 186.961 150.586 186.586C150.961 186.211 151.47 186 152 186H155C155.53 186 156.039 186.211 156.414 186.586C156.789 186.961 157 187.47 157 188V191C157 191.31 156.928 191.617 156.789 191.894C156.65 192.172 156.448 192.414 156.2 192.6L155.732 192.951C155.548 193.091 155.419 193.291 155.366 193.515C155.313 193.74 155.339 193.976 155.44 194.184C156.807 196.96 159.054 199.205 161.832 200.568Z" stroke="black" stroke-width="2" stroke-linecap="round" stroke-linejoin="round"/>
</g></svg>
