<svg viewBox="0 0 24 24" fill="none" xmlns="http://www.w3.org/2000/svg"><g transform="translate(-20 -184)">
<path id="Vector_153" d="M34 190H42" stroke="black" stroke-width="2" stroke-linecap="round" stroke-linejoin="round"/>
<path id="Vector_154" d="M38 186L42 190L38 194" stroke="black" stroke-width="2" stroke-linecap="round" stroke-linejoin="round"/>
<path id="Vector_155" d="M33.832 200.568C34.0385 200.663 34.2712 200.685 34.4917 200.629C34.7122 200.574 34.9073 200.446 35.045 200.265L35.4 199.8C35.5863 199.552 35.8279 199.35 36.1056 199.211C36.3833 199.072 36.6895 199 37 199H40C40.5304 199 41.0391 199.211 41.4142 199.586C41.7893 199.961 42 200.47 42 201V204C42 204.53 41.7893 205.039 41.4142 205.414C41.0391 205.789 40.5304 206 40 206C35.2261 206 30.6477 204.104 27.2721 200.728C23.8964 197.352 22 192.774 22 188C22 187.47 22.2107 186.961 22.5858 186.586C22.9609 186.211 23.4696 186 24 186H27C27.5304 186 28.0391 186.211 28.4142 186.586C28.7893 186.961 29 187.47 29 188V191C29 191.31 28.9277 191.617 28.7889 191.894C28.65 192.172 28.4484 192.414 28.2 192.6L27.732 192.951C27.5484 193.091 27.419 193.291 27.3658 193.515C27.3126 193.74 27.3388 193.976 27.44 194.184C28.8067 196.96 31.0544 199.205 33.832 200.568Z" stroke="black" stroke-width="2" stroke-linecap="round" stroke-linejoin="round"/>
</g></svg>
