<svg viewBox="0 0 24 24" fill="none" xmlns="http://www.w3.org/2000/svg"><g transform="translate(-84 -184)">
<path id="Vector_159" d="M100 186L106 192" stroke="black" stroke-width="2" stroke-linecap="round" stroke-linejoin="round"/>
<path id="Vector_160" d="M106 186L100 192" stroke="black" stroke-width="2" stroke-linecap="round" stroke-linejoin="round"/>
<path id="Vector_161" d="M97.832 200.568C98.0385 200.663 98.2712 200.685 98.4917 200.629C98.7122 200.574 98.9073 200.446 99.045 200.265L99.4 199.8C99.5863 199.552 99.8279 199.35 100.106 199.211C100.383 199.072 100.69 199 101 199H104C104.53 199 105.039 199.211 105.414 199.586C105.789 199.961 106 200.47 106 201V204C106 204.53 105.789 205.039 105.414 205.414C105.039 205.789 104.53 206 104 206C99.2261 206 94.6477 204.104 91.2721 200.728C87.8964 197.352 86 192.774 86 188C86 187.47 86.2107 186.961 86.5858 186.586C86.9609 186.211 87.4696 186 88 186H91C91.5304 186 92.0391 186.211 92.4142 186.586C92.7893 186.961 93 187.47 93 188V191C93 191.31 92.9277 191.617 92.7889 191.894C92.65 192.172 92.4484 192.414 92.2 192.6L91.732 192.951C91.5484 193.091 91.419 193.291 91.3658 193.515C91.3126 193.74 91.3388 193.976 91.44 194.184C92.8067 196.96 95.0544 199.205 97.832 200.568Z" stroke="black" stroke-width="2" stroke-linecap="round" stroke-linejoin="round"/>
</g></svg>
