<svg viewBox="0 0 24 24" fill="none" xmlns="http://www.w3.org/2000/svg"><g transform="translate(-52 -184)">
<path id="Vector_156" d="M68 186V192H74" stroke="black" stroke-width="2" stroke-linecap="round" stroke-linejoin="round"/>
<path id="Vector_157" d="M74 186L68 192" stroke="black" stroke-width="2" stroke-linecap="round" stroke-linejoin="round"/>
<path id="Vector_158" d="M65.832 200.568C66.0385 200.663 66.2712 200.685 66.4917 200.629C66.7122 200.574 66.9073 200.446 67.045 200.265L67.4 199.8C67.5863 199.552 67.8279 199.35 68.1056 199.211C68.3833 199.072 68.6895 199 69 199H72C72.5304 199 73.0391 199.211 73.4142 199.586C73.7893 199.961 74 200.47 74 201V204C74 204.53 73.7893 205.039 73.4142 205.414C73.0391 205.789 72.5304 206 72 206C67.2261 206 62.6477 204.104 59.2721 200.728C55.8964 197.352 54 192.774 54 188C54 187.47 54.2107 186.961 54.5858 186.586C54.9609 186.211 55.4696 186 56 186H59C59.5304 186 60.0391 186.211 60.4142 186.586C60.7893 186.961 61 187.47 61 188V191C61 191.31 60.9277 191.617 60.7889 191.894C60.65 192.172 60.4484 192.414 60.2 192.6L59.732 192.951C59.5484 193.091 59.419 193.291 59.3658 193.515C59.3126 193.74 59.3388 193.976 59.44 194.184C60.8067 196.96 63.0544 199.205 65.832 200.568Z" stroke="black" stroke-width="2" stroke-linecap="round" stroke-linejoin="round"/>
</g></svg>
