<svg viewBox="0 0 24 24" fill="none" xmlns="http://www.w3.org/2000/svg"><g transform="translate(-116 -184)">
<path id="Vector_162" d="M126.1 197.9C127.189 198.989 128.45 199.89 129.832 200.568C130.039 200.663 130.272 200.685 130.492 200.629C130.713 200.574 130.908 200.446 131.045 200.265L131.4 199.8C131.587 199.552 131.828 199.35 132.106 199.211C132.384 199.072 132.69 199 133 199H136C136.531 199 137.04 199.211 137.415 199.586C137.79 199.961 138 200.47 138 201V204C138 204.53 137.79 205.039 137.415 205.414C137.04 205.789 136.531 206 136 206C133.637 206 131.296 205.534 129.112 204.63C126.928 203.725 124.944 202.399 123.272 200.728" stroke="black" stroke-width="2" stroke-linecap="round" stroke-linejoin="round"/>
<path id="Vector_163" d="M138 186L118 206" stroke="black" stroke-width="2" stroke-linecap="round" stroke-linejoin="round"/>
<path id="Vector_164" d="M120.76 197.582C118.956 194.712 117.999 191.39 118 188C118 187.47 118.211 186.961 118.586 186.586C118.961 186.211 119.47 186 120 186H123C123.53 186 124.039 186.211 124.414 186.586C124.789 186.961 125 187.47 125 188V191C125 191.31 124.928 191.617 124.789 191.894C124.65 192.172 124.448 192.414 124.2 192.6L123.732 192.951C123.548 193.091 123.419 193.291 123.366 193.515C123.313 193.74 123.339 193.976 123.44 194.184C123.518 194.343 123.6 194.501 123.684 194.657" stroke="black" stroke-width="2" stroke-linecap="round" stroke-linejoin="round"/>
</g></svg>
