<svg viewBox="0 0 24 24" fill="none" xmlns="http://www.w3.org/2000/svg"><g transform="translate(-212 -152)">
<path id="Vector_162" d="M230.5 160C229.1 160 227.9 159.2 227.3 158C226.732 156.425 225.608 155.111 224.139 154.306C222.671 153.501 220.959 153.26 219.325 153.629C217.692 153.997 216.249 154.95 215.268 156.307C214.287 157.664 213.836 159.333 214 161V172C214 172.53 214.21 173.039 214.585 173.414C214.96 173.789 215.469 174 216 174H232C232.53 174 233.039 173.789 233.414 173.414C233.789 173.039 234 172.53 234 172V163.5C234 161.6 232.4 160 230.5 160Z" stroke="black" stroke-width="2" stroke-linecap="round" stroke-linejoin="round"/>
<path id="Vector_163" d="M214 166H234" stroke="black" stroke-width="2" stroke-linecap="round" stroke-linejoin="round"/>
<path id="Vector_164" d="M218 166V170" stroke="black" stroke-width="2" stroke-linecap="round" stroke-linejoin="round"/>
<path id="Vector_165" d="M222 166V170" stroke="black" stroke-width="2" stroke-linecap="round" stroke-linejoin="round"/>
<path id="Vector_166" d="M226 166V170" stroke="black" stroke-width="2" stroke-linecap="round" stroke-linejoin="round"/>
<path id="Vector_167" d="M230 166V170" stroke="black" stroke-width="2" stroke-linecap="round" stroke-linejoin="round"/>
</g></svg>
