<svg viewBox="0 0 24 24" fill="none" xmlns="http://www.w3.org/2000/svg"><g transform="translate(-116 -88)">
<path id="Vector_79" d="M130 101L121.619 109.38C121.422 109.577 121.188 109.733 120.931 109.84C120.674 109.947 120.398 110.002 120.119 110.002C119.556 110.002 119.017 109.778 118.619 109.381C118.221 108.983 117.997 108.443 117.997 107.88C117.997 107.318 118.22 106.778 118.618 106.38L127 97.999" stroke="black" stroke-width="2" stroke-linecap="round" stroke-linejoin="round"/>
<path id="Vector_80" d="M131.973 92.027C130.492 91.0862 128.837 90.4546 127.106 90.1704C125.376 89.8861 123.605 89.9551 121.902 90.373C120.504 90.715 120.81 92.531 122.179 92.974C124.273 93.653 126.241 94.6749 128.001 95.998" stroke="black" stroke-width="2" stroke-linecap="round" stroke-linejoin="round"/>
<path id="Vector_81" d="M132.001 99.999C133.324 101.76 134.346 103.728 135.025 105.823C135.469 107.192 137.285 107.499 137.628 106.101C138.044 104.405 138.115 102.643 137.835 100.919C137.555 99.1957 136.931 97.5461 136 96.069" stroke="black" stroke-width="2" stroke-linecap="round" stroke-linejoin="round"/>
<path id="Vector_82" d="M134.352 91.352C134.126 91.1261 133.819 90.9991 133.5 90.9991C133.18 90.9991 132.874 91.1261 132.648 91.352L127.352 96.648C127.126 96.874 126.999 97.1805 126.999 97.5C126.999 97.8196 127.126 98.126 127.352 98.352L129.648 100.648C129.874 100.874 130.18 101.001 130.5 101.001C130.819 101.001 131.126 100.874 131.352 100.648L136.648 95.352C136.874 95.126 137.001 94.8196 137.001 94.5C137.001 94.1805 136.874 93.874 136.648 93.648L134.352 91.352Z" stroke="black" stroke-width="2" stroke-linecap="round" stroke-linejoin="round"/>
</g></svg>
