<svg viewBox="0 0 24 24" fill="none" xmlns="http://www.w3.org/2000/svg"><g transform="translate(-276 -152)">
<path id="Vector_173" d="M297 161V158C297 157.47 296.789 156.961 296.414 156.586C296.039 156.211 295.53 156 295 156H280C279.47 156 278.961 156.211 278.586 156.586C278.211 156.961 278 157.47 278 158V168C278 169.1 278.9 170 280 170H284" stroke="black" stroke-width="2" stroke-linecap="round" stroke-linejoin="round"/>
<path id="Vector_174" d="M296 165H290C288.895 165 288 165.895 288 167V170C288 171.105 288.895 172 290 172H296C297.105 172 298 171.105 298 170V167C298 165.895 297.105 165 296 165Z" stroke="black" stroke-width="2" stroke-linecap="round" stroke-linejoin="round"/>
</g></svg>
