<svg viewBox="0 0 24 24" fill="none" xmlns="http://www.w3.org/2000/svg"><g transform="translate(-244 -152)">
<path id="Vector_168" d="M246 162H252V156" stroke="black" stroke-width="2" stroke-linecap="round" stroke-linejoin="round"/>
<path id="Vector_169" d="M246 156L252 162" stroke="black" stroke-width="2" stroke-linecap="round" stroke-linejoin="round"/>
<path id="Vector_170" d="M265 162V159C265 158.47 264.789 157.961 264.414 157.586C264.039 157.211 263.53 157 263 157H256" stroke="black" stroke-width="2" stroke-linecap="round" stroke-linejoin="round"/>
<path id="Vector_171" d="M247 166V168C247 168.53 247.211 169.039 247.586 169.414C247.961 169.789 248.47 170 249 170H252" stroke="black" stroke-width="2" stroke-linecap="round" stroke-linejoin="round"/>
<path id="Vector_172" d="M265 166H257C256.448 166 256 166.448 256 167V172C256 172.552 256.448 173 257 173H265C265.552 173 266 172.552 266 172V167C266 166.448 265.552 166 265 166Z" stroke="black" stroke-width="2" stroke-linecap="round" stroke-linejoin="round"/>
</g></svg>
