<svg viewBox="0 0 24 24" fill="none" xmlns="http://www.w3.org/2000/svg"><g transform="translate(-340 -88)">
<path id="Vector_89" d="M351 105H354V107C354 107.265 354.105 107.52 354.293 107.707C354.48 107.895 354.735 108 355 108H357C357.265 108 357.52 107.895 357.707 107.707C357.895 107.52 358 107.265 358 107V104C358.466 103.845 358.889 103.583 359.236 103.236C359.583 102.889 359.845 102.466 360 102H361C361.265 102 361.52 101.895 361.707 101.707C361.895 101.52 362 101.265 362 101V99C362 98.7348 361.895 98.4804 361.707 98.2929C361.52 98.1054 361.265 98 361 98H360C360 97.2238 359.819 96.4582 359.472 95.7639C359.125 95.0697 358.621 94.4657 358 94V91C357.379 91 356.767 91.1446 356.211 91.4223C355.656 91.7 355.173 92.1032 354.8 92.6L354.5 93H351C349.409 93 347.883 93.6321 346.757 94.7574C345.632 95.8826 345 97.4087 345 99V100C345 100.776 345.181 101.542 345.528 102.236C345.875 102.93 346.379 103.534 347 104V107C347 107.265 347.105 107.52 347.293 107.707C347.48 107.895 347.735 108 348 108H350C350.265 108 350.52 107.895 350.707 107.707C350.895 107.52 351 107.265 351 107V105Z" stroke="black" stroke-width="2" stroke-linecap="round" stroke-linejoin="round"/>
<path id="Vector_90" d="M356 98H356.01" stroke="black" stroke-width="2" stroke-linecap="round" stroke-linejoin="round"/>
<path id="Vector_91" d="M342 96V97C342 97.5304 342.211 98.0391 342.586 98.4142C342.961 98.7893 343.47 99 344 99H345" stroke="black" stroke-width="2" stroke-linecap="round" stroke-linejoin="round"/>
</g></svg>
