<svg viewBox="0 0 24 24" fill="none" xmlns="http://www.w3.org/2000/svg"><g transform="translate(-308 -120)">
<path id="Vector_148" d="M318.5 140.5L328.5 130.5C328.967 130.042 329.339 129.496 329.594 128.894C329.849 128.291 329.982 127.644 329.985 126.99C329.989 126.335 329.862 125.687 329.613 125.082C329.364 124.477 328.998 123.927 328.536 123.464C328.073 123.002 327.523 122.636 326.918 122.387C326.313 122.138 325.665 122.011 325.01 122.015C324.356 122.018 323.709 122.151 323.106 122.406C322.504 122.661 321.958 123.033 321.5 123.5L311.5 133.5C311.033 133.958 310.661 134.504 310.406 135.106C310.151 135.709 310.018 136.356 310.015 137.01C310.011 137.665 310.138 138.313 310.387 138.918C310.636 139.523 311.002 140.073 311.464 140.536C311.927 140.998 312.477 141.364 313.082 141.613C313.687 141.862 314.335 141.989 314.99 141.985C315.644 141.982 316.291 141.849 316.894 141.594C317.496 141.339 318.042 140.967 318.5 140.5Z" stroke="black" stroke-width="2" stroke-linecap="round" stroke-linejoin="round"/>
<path id="Vector_149" d="M316.5 128.5L323.5 135.5" stroke="black" stroke-width="2" stroke-linecap="round" stroke-linejoin="round"/>
</g></svg>
