<svg viewBox="0 0 24 24" fill="none" xmlns="http://www.w3.org/2000/svg"><g transform="translate(-340 -120)">
<path id="Vector_150" d="M358 131H354C353.735 131 353.48 131.105 353.293 131.293C353.105 131.48 353 131.735 353 132V137C353 137.265 353.105 137.52 353.293 137.707C353.48 137.895 353.735 138 354 138H358" stroke="black" stroke-width="2" stroke-linecap="round" stroke-linejoin="round"/>
<path id="Vector_151" d="M346 127V140C346 140.53 346.211 141.039 346.586 141.414C346.961 141.789 347.47 142 348 142H356C356.53 142 357.039 141.789 357.414 141.414C357.789 141.039 358 140.53 358 140V127" stroke="black" stroke-width="2" stroke-linecap="round" stroke-linejoin="round"/>
<path id="Vector_152" d="M359 122H345C344.448 122 344 122.448 344 123V126C344 126.552 344.448 127 345 127H359C359.552 127 360 126.552 360 126V123C360 122.448 359.552 122 359 122Z" stroke="black" stroke-width="2" stroke-linecap="round" stroke-linejoin="round"/>
</g></svg>
