<svg viewBox="0 0 24 24" fill="none" xmlns="http://www.w3.org/2000/svg"><g transform="translate(-84 -152)">
<path id="Vector_138" d="M96 169V174" stroke="black" stroke-width="2" stroke-linecap="round" stroke-linejoin="round"/>
<path id="Vector_139" d="M98.9996 161.34V159C98.9996 158.735 99.105 158.48 99.2925 158.293C99.4801 158.105 99.7344 158 99.9996 158C100.53 158 101.039 157.789 101.414 157.414C101.789 157.039 102 156.53 102 156C102 155.47 101.789 154.961 101.414 154.586C101.039 154.211 100.53 154 99.9996 154H91.8896" stroke="black" stroke-width="2" stroke-linecap="round" stroke-linejoin="round"/>
<path id="Vector_140" d="M86 154L106 174" stroke="black" stroke-width="2" stroke-linecap="round" stroke-linejoin="round"/>
<path id="Vector_141" d="M93 161V162.76C92.9998 163.132 92.8958 163.497 92.6997 163.813C92.5036 164.129 92.2232 164.384 91.89 164.55L90.11 165.45C89.7768 165.616 89.4964 165.871 89.3003 166.187C89.1042 166.503 89.0002 166.868 89 167.24V168C89 168.265 89.1054 168.52 89.2929 168.707C89.4804 168.895 89.7348 169 90 169H101" stroke="black" stroke-width="2" stroke-linecap="round" stroke-linejoin="round"/>
</g></svg>
