<svg viewBox="0 0 24 24" fill="none" xmlns="http://www.w3.org/2000/svg"><g transform="translate(-52 -152)">
<path id="Vector_136" d="M64 169V174" stroke="black" stroke-width="2" stroke-linecap="round" stroke-linejoin="round"/>
<path id="Vector_137" d="M61 162.76C60.9998 163.132 60.8958 163.497 60.6997 163.813C60.5036 164.129 60.2232 164.384 59.89 164.55L58.11 165.45C57.7768 165.616 57.4964 165.871 57.3003 166.187C57.1042 166.503 57.0002 166.868 57 167.24V168C57 168.265 57.1054 168.52 57.2929 168.707C57.4804 168.895 57.7348 169 58 169H70C70.2652 169 70.5196 168.895 70.7071 168.707C70.8946 168.52 71 168.265 71 168V167.24C70.9998 166.868 70.8958 166.503 70.6997 166.187C70.5036 165.871 70.2232 165.616 69.89 165.45L68.11 164.55C67.7768 164.384 67.4964 164.129 67.3003 163.813C67.1042 163.497 67.0002 163.132 67 162.76V159C67 158.735 67.1054 158.48 67.2929 158.293C67.4804 158.105 67.7348 158 68 158C68.5304 158 69.0391 157.789 69.4142 157.414C69.7893 157.039 70 156.53 70 156C70 155.47 69.7893 154.961 69.4142 154.586C69.0391 154.211 68.5304 154 68 154H60C59.4696 154 58.9609 154.211 58.5858 154.586C58.2107 154.961 58 155.47 58 156C58 156.53 58.2107 157.039 58.5858 157.414C58.9609 157.789 59.4696 158 60 158C60.2652 158 60.5196 158.105 60.7071 158.293C60.8946 158.48 61 158.735 61 159V162.76Z" stroke="black" stroke-width="2" stroke-linecap="round" stroke-linejoin="round"/>
</g></svg>
