<svg viewBox="0 0 24 24" fill="none" xmlns="http://www.w3.org/2000/svg"><g transform="translate(-244 -216)">
<path id="Vector_246" d="M256 225L247.586 233.414C247.211 233.789 247 234.298 247 234.828V236.172C247 236.702 246.789 237.211 246.414 237.586C246.789 237.211 247.298 237 247.828 237H249.172C249.702 237 250.211 236.789 250.586 236.414L259 228" stroke="black" stroke-width="2" stroke-linecap="round" stroke-linejoin="round"/>
<path id="Vector_247" d="M262 225L262.4 225.4C262.597 225.597 262.753 225.831 262.86 226.088C262.966 226.346 263.021 226.621 263.021 226.9C263.021 227.179 262.966 227.454 262.86 227.712C262.753 227.969 262.597 228.203 262.4 228.4C262.203 228.597 261.969 228.753 261.712 228.86C261.454 228.966 261.178 229.021 260.9 229.021C260.621 229.021 260.345 228.966 260.088 228.86C259.831 228.753 259.597 228.597 259.4 228.4L255.6 224.6C255.202 224.202 254.979 223.663 254.979 223.1C254.979 222.821 255.033 222.546 255.14 222.288C255.247 222.031 255.403 221.797 255.6 221.6C255.797 221.403 256.031 221.247 256.288 221.14C256.545 221.034 256.821 220.979 257.1 220.979C257.662 220.979 258.202 221.202 258.6 221.6L259 222L262.4 218.6C262.798 218.202 263.337 217.979 263.9 217.979C264.462 217.979 265.002 218.202 265.4 218.6C265.798 218.998 266.021 219.537 266.021 220.1C266.021 220.663 265.798 221.202 265.4 221.6L262 225Z" stroke="black" stroke-width="2" stroke-linecap="round" stroke-linejoin="round"/>
<path id="Vector_248" d="M246 238L246.414 237.586" stroke="black" stroke-width="2" stroke-linecap="round" stroke-linejoin="round"/>
</g></svg>
