<svg viewBox="0 0 24 24" fill="none" xmlns="http://www.w3.org/2000/svg"><g transform="translate(-340 -152)">
<path id="Vector_190" d="M352 166L351 167" stroke="black" stroke-width="2" stroke-linecap="round" stroke-linejoin="round"/>
<path id="Vector_191" d="M353.75 170.25L352.5 171.67" stroke="black" stroke-width="2" stroke-linecap="round" stroke-linejoin="round"/>
<path id="Vector_192" d="M357.775 157.654C354.797 158.28 352.064 159.759 349.912 161.911C347.76 164.063 346.28 166.795 345.654 169.774" stroke="black" stroke-width="2" stroke-linecap="round" stroke-linejoin="round"/>
<path id="Vector_193" d="M358.8 161.3C357.779 161.578 356.91 162.251 356.385 163.17C355.86 164.089 355.722 165.179 356 166.2C356.278 167.221 356.951 168.09 357.87 168.615C358.789 169.14 359.879 169.278 360.9 169" stroke="black" stroke-width="2" stroke-linecap="round" stroke-linejoin="round"/>
<path id="Vector_194" d="M361.964 172.732C362.011 172.903 362.013 173.083 361.968 173.255C361.923 173.426 361.833 173.583 361.708 173.708C361.582 173.833 361.426 173.923 361.254 173.968C361.083 174.013 360.903 174.012 360.732 173.964L342.732 168.964C342.605 168.929 342.487 168.869 342.383 168.788C342.28 168.707 342.194 168.606 342.129 168.492C342.064 168.378 342.023 168.252 342.007 168.121C341.991 167.991 342.001 167.859 342.037 167.732C342.945 164.462 344.683 161.483 347.083 159.083C349.483 156.684 352.462 154.945 355.732 154.037C355.858 154.002 355.991 153.992 356.121 154.008C356.251 154.023 356.377 154.065 356.492 154.129C356.606 154.194 356.707 154.28 356.788 154.384C356.869 154.487 356.929 154.605 356.964 154.732L361.964 172.732Z" stroke="black" stroke-width="2" stroke-linecap="round" stroke-linejoin="round"/>
</g></svg>
