<svg viewBox="0 0 24 24" fill="none" xmlns="http://www.w3.org/2000/svg"><g transform="translate(-276 -88)">
<path id="Vector_117" d="M293.8 107.2L292 99L295.5 95.5C297 94 297.5 92 297 91C296 90.5 294 91 292.5 92.5L289 96L280.8 94.2C280.3 94.1 279.9 94.3 279.7 94.7L279.4 95.2C279.2 95.7 279.3 96.2 279.7 96.5L285 100L283 103H280L279 104L282 106L284 109L285 108V105L288 103L291.5 108.3C291.8 108.7 292.3 108.8 292.8 108.6L293.3 108.4C293.7 108.1 293.9 107.7 293.8 107.2Z" stroke="black" stroke-width="2" stroke-linecap="round" stroke-linejoin="round"/>
</g></svg>
