<svg viewBox="0 0 24 24" fill="none" xmlns="http://www.w3.org/2000/svg"><g transform="translate(-340 -88)">
<path id="Vector_120" d="M342 110H362" stroke="black" stroke-width="2" stroke-linecap="round" stroke-linejoin="round"/>
<path id="Vector_121" d="M346.36 105.4L344 105L342 101L343.1 100.45C343.379 100.309 343.687 100.236 344 100.236C344.313 100.236 344.621 100.309 344.9 100.45L345.07 100.55C345.349 100.691 345.657 100.764 345.97 100.764C346.283 100.764 346.591 100.691 346.87 100.55L348 100L345 94L345.9 93.55C346.233 93.3863 346.604 93.3184 346.973 93.3537C347.342 93.389 347.694 93.5262 347.99 93.75L352.01 96.75C352.307 96.9757 352.66 97.114 353.031 97.1494C353.403 97.1847 353.776 97.1157 354.11 96.95L358.3 94.89C358.835 94.6201 359.452 94.5595 360.03 94.72L361 95C361.2 95.0557 361.386 95.1553 361.543 95.2916C361.7 95.4279 361.825 95.5976 361.908 95.7881C361.991 95.9787 362.031 96.1855 362.025 96.3934C362.018 96.6013 361.965 96.8051 361.87 96.99L361.49 97.75C361.26 98.21 360.89 98.59 360.42 98.83L347.58 105.2C347.202 105.387 346.775 105.45 346.36 105.38V105.4Z" stroke="black" stroke-width="2" stroke-linecap="round" stroke-linejoin="round"/>
</g></svg>
