<svg viewBox="0 0 24 24" fill="none" xmlns="http://www.w3.org/2000/svg"><g transform="translate(-308 -88)">
<path id="Vector_118" d="M310 110H330" stroke="black" stroke-width="2" stroke-linecap="round" stroke-linejoin="round"/>
<path id="Vector_119" d="M311.77 98.77L310 97L312 92.5L313.1 93.05C313.65 93.33 314 93.89 314 94.5C314 95.11 314.35 95.67 314.9 95.95L316 96.5L319 90.5L320.05 91.03C320.342 91.1753 320.594 91.3898 320.784 91.6547C320.974 91.9196 321.096 92.227 321.14 92.55L321.86 97.95C321.904 98.273 322.026 98.5804 322.216 98.8453C322.406 99.1102 322.658 99.3247 322.95 99.47L327.35 101.67C327.77 101.89 328.13 102.22 328.36 102.63L328.96 103.66C329.45 104.54 328.9 105.64 327.9 105.76L326.72 105.91C326.25 105.97 325.77 105.89 325.35 105.67L312.29 99.15C312.097 99.0523 311.922 98.9239 311.77 98.77Z" stroke="black" stroke-width="2" stroke-linecap="round" stroke-linejoin="round"/>
</g></svg>
