<svg viewBox="0 0 24 24" fill="none" xmlns="http://www.w3.org/2000/svg"><g transform="translate(-340 -152)">
<path id="Vector_176" d="M350.215 156.56L360.005 162.27C360.308 162.446 360.559 162.698 360.734 163.001C360.909 163.304 361.001 163.648 361.001 163.998C361.001 164.348 360.91 164.692 360.736 164.996C360.561 165.299 360.31 165.552 360.008 165.728L359.615 165.958" stroke="black" stroke-width="2" stroke-linecap="round" stroke-linejoin="round"/>
<path id="Vector_177" d="M356.042 168.042L348.008 172.728C347.704 172.905 347.359 172.999 347.007 173.001C346.655 173.002 346.309 172.91 346.004 172.735C345.699 172.56 345.445 172.307 345.269 172.002C345.093 171.698 345 171.352 345 171V157" stroke="black" stroke-width="2" stroke-linecap="round" stroke-linejoin="round"/>
<path id="Vector_178" d="M342 154L362 174" stroke="black" stroke-width="2" stroke-linecap="round" stroke-linejoin="round"/>
</g></svg>
