<svg viewBox="0 0 24 24" fill="none" xmlns="http://www.w3.org/2000/svg"><g transform="translate(-308 -152)">
<path id="Vector_175" d="M313 157C313 156.648 313.093 156.302 313.269 155.998C313.445 155.693 313.699 155.441 314.004 155.265C314.309 155.09 314.655 154.998 315.007 155C315.359 155.001 315.704 155.095 316.008 155.272L328.005 162.27C328.308 162.446 328.559 162.698 328.734 163.001C328.909 163.304 329.001 163.648 329.001 163.998C329.002 164.348 328.91 164.692 328.736 164.996C328.561 165.299 328.31 165.552 328.008 165.728L316.008 172.728C315.704 172.905 315.359 172.999 315.007 173.001C314.655 173.002 314.309 172.91 314.004 172.735C313.699 172.56 313.445 172.307 313.269 172.002C313.093 171.698 313 171.352 313 171V157Z" stroke="black" stroke-width="2" stroke-linecap="round" stroke-linejoin="round"/>
</g></svg>
