<svg viewBox="0 0 24 24" fill="none" xmlns="http://www.w3.org/2000/svg"><g transform="translate(-340 -184)">
<path id="Vector_253" d="M352 206V201" stroke="black" stroke-width="2" stroke-linecap="round" stroke-linejoin="round"/>
<path id="Vector_254" d="M355 192V186" stroke="black" stroke-width="2" stroke-linecap="round" stroke-linejoin="round"/>
<path id="Vector_255" d="M357 192C357.265 192 357.52 192.105 357.707 192.293C357.895 192.48 358 192.735 358 193V197C358 198.061 357.579 199.078 356.828 199.828C356.078 200.579 355.061 201 354 201H350C348.939 201 347.922 200.579 347.172 199.828C346.421 199.078 346 198.061 346 197V193C346 192.735 346.105 192.48 346.293 192.293C346.48 192.105 346.735 192 347 192H357Z" stroke="black" stroke-width="2" stroke-linecap="round" stroke-linejoin="round"/>
<path id="Vector_256" d="M349 192V186" stroke="black" stroke-width="2" stroke-linecap="round" stroke-linejoin="round"/>
</g></svg>
