<svg viewBox="0 0 24 24" fill="none" xmlns="http://www.w3.org/2000/svg"><g transform="translate(-20 -216)">
<path id="Vector_262" d="M26.3 236.3C26.523 236.524 26.7879 236.701 27.0797 236.822C27.3714 236.944 27.6842 237.006 28 237.006C28.3159 237.006 28.6287 236.944 28.9204 236.822C29.2121 236.701 29.4771 236.524 29.7 236.3L32 234L26 228L23.7 230.3C23.4763 230.523 23.2988 230.788 23.1776 231.08C23.0565 231.371 22.9941 231.684 22.9941 232C22.9941 232.316 23.0565 232.629 23.1776 232.92C23.2988 233.212 23.4763 233.477 23.7 233.7L26.3 236.3Z" stroke="black" stroke-width="2" stroke-linecap="round" stroke-linejoin="round"/>
<path id="Vector_263" d="M22 238L25 235" stroke="black" stroke-width="2" stroke-linecap="round" stroke-linejoin="round"/>
<path id="Vector_264" d="M27.5 229.5L30 227" stroke="black" stroke-width="2" stroke-linecap="round" stroke-linejoin="round"/>
<path id="Vector_265" d="M30.5 232.5L33 230" stroke="black" stroke-width="2" stroke-linecap="round" stroke-linejoin="round"/>
<path id="Vector_266" d="M38 219L34 223H40L36 227" stroke="black" stroke-width="2" stroke-linecap="round" stroke-linejoin="round"/>
</g></svg>
