<svg width="24" height="24" viewBox="0 0 24 24" fill="none" xmlns="http://www.w3.org/2000/svg">
<g id="Iconly">
<path d="M-2564.25 -1804.53C-2564.25 -1817.79 -2553.5 -1828.53 -2540.25 -1828.53H3475.75C3489 -1828.53 3499.75 -1817.79 3499.75 -1804.53V2731.47C3499.75 2744.72 3489 2755.47 3475.75 2755.47H-2540.25C-2553.5 2755.47 -2564.25 2744.72 -2564.25 2731.47V-1804.53Z" fill="white"/>
<path d="M-2540.25 -1827.53H3475.75V-1829.53H-2540.25V-1827.53ZM3498.75 -1804.53V2731.47H3500.75V-1804.53H3498.75ZM3475.75 2754.47H-2540.25V2756.47H3475.75V2754.47ZM-2563.25 2731.47V-1804.53H-2565.25V2731.47H-2563.25ZM-2540.25 2754.47C-2552.95 2754.47 -2563.25 2744.17 -2563.25 2731.47H-2565.25C-2565.25 2745.27 -2554.06 2756.47 -2540.25 2756.47V2754.47ZM3498.75 2731.47C3498.75 2744.17 3488.45 2754.47 3475.75 2754.47V2756.47C3489.56 2756.47 3500.75 2745.27 3500.75 2731.47H3498.75ZM3475.75 -1827.53C3488.45 -1827.53 3498.75 -1817.24 3498.75 -1804.53H3500.75C3500.75 -1818.34 3489.56 -1829.53 3475.75 -1829.53V-1827.53ZM-2540.25 -1829.53C-2554.06 -1829.53 -2565.25 -1818.34 -2565.25 -1804.53H-2563.25C-2563.25 -1817.24 -2552.95 -1827.53 -2540.25 -1827.53V-1829.53Z" fill="#BABCD4"/>
<g id=" ">
<rect width="1688" height="594" transform="translate(-376.25 -276.535)" fill="white"/>
<g id="Iconly/Sharp/Light/Plus">
<path id="Line_185" d="M11.9996 8.32764V15.654" stroke="#110E47" stroke-width="1.5" stroke-linecap="square" stroke-linejoin="round"/>
<path id="Line_186" d="M15.6673 11.9904H8.33398" stroke="#110E47" stroke-width="1.5" stroke-linecap="square" stroke-linejoin="round"/>
</g>
</g>
</g>
</svg>
