<svg viewBox="0 0 24 24" fill="none" xmlns="http://www.w3.org/2000/svg"><g transform="translate(-148 -88)">
<path id="Vector_83" d="M151 90V91C151 92 153 92 153 93C153 94 151 94 151 95C151 96 153 96 153 97C153 98 151 98 151 99C151 100 153 100 153 101" stroke="black" stroke-width="2" stroke-linecap="round" stroke-linejoin="round"/>
<path id="Vector_84" d="M166 94H166.01" stroke="black" stroke-width="2" stroke-linecap="round" stroke-linejoin="round"/>
<path id="Vector_85" d="M154 106H154.01" stroke="black" stroke-width="2" stroke-linecap="round" stroke-linejoin="round"/>
<path id="Vector_86" d="M168.83 96.83C169.202 96.4584 169.497 96.0172 169.698 95.5316C169.899 95.046 170.002 94.5256 170.002 94C170.002 93.4744 169.899 92.954 169.698 92.4684C169.497 91.9829 169.202 91.5417 168.83 91.17C168.459 90.7984 168.017 90.5036 167.532 90.3025C167.046 90.1013 166.526 89.9978 166 89.9978C165.475 89.9978 164.954 90.1013 164.469 90.3025C163.983 90.5036 163.542 90.7984 163.17 91.17L151.17 103.17C150.42 103.921 149.998 104.939 149.998 106C149.998 106.526 150.102 107.046 150.303 107.532C150.504 108.017 150.799 108.458 151.17 108.83C151.542 109.202 151.983 109.496 152.469 109.698C152.954 109.899 153.475 110.002 154 110.002C155.062 110.002 156.08 109.581 156.83 108.83L168.83 96.83Z" stroke="black" stroke-width="2" stroke-linecap="round" stroke-linejoin="round"/>
<path id="Vector_87" d="M166 99.66V110C167.061 110 168.078 109.579 168.828 108.828C169.579 108.078 170 107.061 170 106V94" stroke="black" stroke-width="2" stroke-linecap="round" stroke-linejoin="round"/>
</g></svg>
