<svg viewBox="0 0 24 24" fill="none" xmlns="http://www.w3.org/2000/svg"><g transform="translate(-372 -152)">
<path id="Vector_179" d="M385 169C385 168.735 384.895 168.48 384.707 168.293C384.52 168.105 384.265 168 384 168C383.735 168 383.48 168.105 383.293 168.293C383.105 168.48 383 168.735 383 169L383.5 173.5C383.5 173.633 383.553 173.76 383.646 173.854C383.74 173.947 383.867 174 384 174C384.133 174 384.26 173.947 384.354 173.854C384.447 173.76 384.5 173.633 384.5 173.5L385 169Z" fill="black" stroke="black" stroke-width="2" stroke-linecap="round" stroke-linejoin="round"/>
<path id="Vector_180" d="M388.85 170.58C390.489 169.531 391.745 167.979 392.428 166.157C393.111 164.334 393.184 162.34 392.638 160.472C392.092 158.604 390.955 156.964 389.397 155.796C387.84 154.629 385.946 153.999 384 153.999C382.054 153.999 380.16 154.629 378.603 155.796C377.045 156.964 375.908 158.604 375.362 160.472C374.816 162.34 374.889 164.334 375.572 166.157C376.255 167.979 377.511 169.531 379.15 170.58" stroke="black" stroke-width="2" stroke-linecap="round" stroke-linejoin="round"/>
<path id="Vector_181" d="M380 166C379.443 165.257 379.104 164.374 379.02 163.449C378.937 162.524 379.113 161.594 379.528 160.764C379.943 159.933 380.581 159.235 381.371 158.747C382.161 158.259 383.071 158 384 158C384.929 158 385.839 158.259 386.629 158.747C387.419 159.235 388.057 159.933 388.472 160.764C388.887 161.594 389.063 162.524 388.98 163.449C388.896 164.374 388.557 165.257 388 166" stroke="black" stroke-width="2" stroke-linecap="round" stroke-linejoin="round"/>
<path id="Vector_182" d="M384 164C384.552 164 385 163.552 385 163C385 162.448 384.552 162 384 162C383.448 162 383 162.448 383 163C383 163.552 383.448 164 384 164Z" fill="black" stroke="black" stroke-width="2" stroke-linecap="round" stroke-linejoin="round"/>
</g></svg>
