<svg viewBox="0 0 24 24" fill="none" xmlns="http://www.w3.org/2000/svg"><g transform="translate(-212 -88)">
<path id="Vector_96" d="M224 94V90H223" stroke="black" stroke-width="2" stroke-linecap="round" stroke-linejoin="round"/>
<path id="Vector_97" d="M221 103C221 102.735 220.895 102.48 220.707 102.293C220.52 102.105 220.265 102 220 102H216C215.735 102 215.48 102.105 215.293 102.293C215.105 102.48 215 102.735 215 103V108C215 108.265 215.105 108.52 215.293 108.707C215.48 108.895 215.735 109 216 109H232C232.265 109 232.52 108.895 232.707 108.707C232.895 108.52 233 108.265 233 108V105C233 104.735 232.895 104.48 232.707 104.293C232.52 104.105 232.265 104 232 104H228C227.735 104 227.48 104.105 227.293 104.293C227.105 104.48 227 104.735 227 105" stroke="black" stroke-width="2" stroke-linecap="round" stroke-linejoin="round"/>
<path id="Vector_98" d="M221 109V99C221 98.7348 221.105 98.4804 221.293 98.2929C221.48 98.1054 221.735 98 222 98H226C226.265 98 226.52 98.1054 226.707 98.2929C226.895 98.4804 227 98.7348 227 99V109" stroke="black" stroke-width="2" stroke-linecap="round" stroke-linejoin="round"/>
</g></svg>
