<svg viewBox="0 0 24 24" fill="none" xmlns="http://www.w3.org/2000/svg"><g transform="translate(-180 -184)">
<path id="Vector_199" d="M202 198C202 200.122 201.157 202.157 199.657 203.657C198.157 205.157 196.122 206 194 206" stroke="black" stroke-width="2" stroke-linecap="round" stroke-linejoin="round"/>
<path id="Vector_200" d="M198 195V194C198 193.47 197.789 192.961 197.414 192.586C197.039 192.211 196.53 192 196 192C195.47 192 194.961 192.211 194.586 192.586C194.211 192.961 194 193.47 194 194" stroke="black" stroke-width="2" stroke-linecap="round" stroke-linejoin="round"/>
<path id="Vector_201" d="M194 194V193C194 192.47 193.789 191.961 193.414 191.586C193.039 191.211 192.53 191 192 191C191.47 191 190.961 191.211 190.586 191.586C190.211 191.961 190 192.47 190 193V194" stroke="black" stroke-width="2" stroke-linecap="round" stroke-linejoin="round"/>
<path id="Vector_202" d="M190 193.5V188C190 187.47 189.789 186.961 189.414 186.586C189.039 186.211 188.53 186 188 186C187.47 186 186.961 186.211 186.586 186.586C186.211 186.961 186 187.47 186 188V198" stroke="black" stroke-width="2" stroke-linecap="round" stroke-linejoin="round"/>
<path id="Vector_203" d="M198 195C198 194.47 198.211 193.961 198.586 193.586C198.961 193.211 199.47 193 200 193C200.531 193 201.039 193.211 201.414 193.586C201.789 193.961 202 194.47 202 195V198C202 200.122 201.157 202.157 199.657 203.657C198.157 205.157 196.122 206 194 206H192C189.2 206 187.5 205.14 186.01 203.66L182.41 200.06C182.066 199.679 181.882 199.18 181.895 198.667C181.909 198.154 182.119 197.665 182.483 197.303C182.846 196.941 183.336 196.732 183.849 196.72C184.362 196.708 184.86 196.895 185.24 197.24L187 199" stroke="black" stroke-width="2" stroke-linecap="round" stroke-linejoin="round"/>
</g></svg>
