<svg viewBox="0 0 24 24" fill="none" xmlns="http://www.w3.org/2000/svg"><g transform="translate(-212 -184)">
<path id="Vector_204" d="M222 188.5V188C222 187.703 221.933 187.409 221.805 187.14C221.678 186.872 221.491 186.635 221.261 186.448C221.03 186.26 220.76 186.127 220.471 186.057C220.182 185.987 219.881 185.982 219.59 186.043" stroke="black" stroke-width="2" stroke-linecap="round" stroke-linejoin="round"/>
<path id="Vector_205" d="M225.9 192.4C225.806 192.1 225.643 191.827 225.424 191.602C225.205 191.377 224.937 191.207 224.64 191.105" stroke="black" stroke-width="2" stroke-linecap="round" stroke-linejoin="round"/>
<path id="Vector_206" d="M233.7 200.2C233.902 199.484 234.003 198.744 234 198V195C234 194.47 233.789 193.961 233.414 193.586C233.039 193.211 232.531 193 232 193C231.47 193 230.961 193.211 230.586 193.586C230.211 193.961 230 194.47 230 195V194C230 193.576 229.865 193.163 229.615 192.821C229.364 192.478 229.012 192.224 228.608 192.096C228.204 191.967 227.77 191.97 227.367 192.104C226.965 192.238 226.616 192.496 226.37 192.842" stroke="black" stroke-width="2" stroke-linecap="round" stroke-linejoin="round"/>
<path id="Vector_207" d="M219 199L217.2 197.2C216.815 196.859 216.314 196.679 215.801 196.698C215.287 196.716 214.8 196.932 214.441 197.3C214.083 197.668 213.879 198.16 213.873 198.674C213.867 199.188 214.059 199.684 214.41 200.06L218 203.7C218.777 204.491 219.715 205.105 220.75 205.502C221.785 205.899 222.893 206.069 224 206H226C227.05 206 228.091 205.793 229.061 205.391C230.032 204.989 230.914 204.4 231.657 203.657" stroke="black" stroke-width="2" stroke-linecap="round" stroke-linejoin="round"/>
<path id="Vector_208" d="M218 190V198" stroke="black" stroke-width="2" stroke-linecap="round" stroke-linejoin="round"/>
<path id="Vector_209" d="M214 186L234 206" stroke="black" stroke-width="2" stroke-linecap="round" stroke-linejoin="round"/>
</g></svg>
