<svg viewBox="0 0 24 24" fill="none" xmlns="http://www.w3.org/2000/svg"><g transform="translate(-372 -152)">
<path id="Vector_195" d="M390 160C390.53 160 391.039 159.789 391.414 159.414C391.789 159.039 392 158.53 392 158C392 157.47 391.789 156.961 391.414 156.586C391.039 156.211 390.53 156 390 156C390 155.47 389.789 154.961 389.414 154.586C389.039 154.211 388.53 154 388 154C387.47 154 386.961 154.211 386.586 154.586C386.211 154.961 386 155.47 386 156C386 155.47 385.789 154.961 385.414 154.586C385.039 154.211 384.53 154 384 154C383.47 154 382.961 154.211 382.586 154.586C382.211 154.961 382 155.47 382 156C382 155.47 381.789 154.961 381.414 154.586C381.039 154.211 380.53 154 380 154C379.47 154 378.961 154.211 378.586 154.586C378.211 154.961 378 155.47 378 156C377.47 156 376.961 156.211 376.586 156.586C376.211 156.961 376 157.47 376 158C376 158.53 376.211 159.039 376.586 159.414C376.961 159.789 377.47 160 378 160" stroke="black" stroke-width="2" stroke-linecap="round" stroke-linejoin="round"/>
<path id="Vector_196" d="M382 174L381 160" stroke="black" stroke-width="2" stroke-linecap="round" stroke-linejoin="round"/>
<path id="Vector_197" d="M386 174L387 160" stroke="black" stroke-width="2" stroke-linecap="round" stroke-linejoin="round"/>
<path id="Vector_198" d="M392 160C392.5 160 392.9 160.4 392.8 161L390.2 173C390.1 173.5 389.5 174 389 174H379C378.4 174 377.9 173.6 377.8 173L375.2 161C375.1 160.4 375.5 160 376 160H392Z" stroke="black" stroke-width="2" stroke-linecap="round" stroke-linejoin="round"/>
</g></svg>
