<svg viewBox="0 0 32 32" fill="none" xmlns="http://www.w3.org/2000/svg"><g transform="translate(-340 -56)">
<g id="Shapes_2">
<path id="Vector_26" d="M360.867 76.953C361.005 75.8002 360.964 75.6311 361.822 75.8179L362.04 75.837C362.701 75.8671 363.564 75.7308 364.072 75.4951C365.164 74.9883 365.812 74.1421 364.735 74.3644C362.278 74.8713 362.109 74.0394 362.109 74.0394C364.703 70.1902 365.788 65.3041 364.852 64.108C362.298 60.8457 357.879 62.3884 357.805 62.4284L357.781 62.4328C357.296 62.3321 356.753 62.2719 356.142 62.262C355.03 62.2437 354.187 62.5535 353.547 63.0389C353.547 63.0389 345.662 59.7907 346.029 67.1237C346.107 68.6836 348.265 78.9274 350.839 75.8333C351.78 74.7019 352.689 73.7453 352.689 73.7453C353.141 74.0452 353.681 74.1982 354.248 74.1432L354.292 74.1058C354.278 74.2463 354.284 74.3837 354.309 74.5464C353.646 75.2872 353.841 75.4173 352.515 75.6901C351.174 75.9666 351.962 76.4587 352.476 76.5873C353.1 76.7433 354.543 76.9642 355.518 75.5994L355.479 75.7552C355.739 75.9632 355.722 77.2508 355.759 78.1707C355.796 79.0906 355.857 79.9491 356.045 80.4552C356.232 80.9612 356.454 82.2649 358.196 81.8916C359.652 81.5795 360.765 81.1305 360.867 76.953Z" fill="black" stroke="black" stroke-width="1.82664"/>
<path id="Vector_27" d="M364.735 74.3644C362.278 74.8712 362.109 74.0393 362.109 74.0393C364.704 70.1899 365.788 65.3037 364.852 64.1078C362.299 60.8457 357.879 62.3884 357.805 62.4285L357.781 62.4328C357.296 62.332 356.753 62.272 356.142 62.262C355.03 62.2438 354.187 62.5534 353.547 63.0387C353.547 63.0387 345.662 59.7908 346.029 67.1237C346.107 68.6837 348.265 78.9275 350.839 75.8334C351.78 74.702 352.689 73.7453 352.689 73.7453C353.141 74.0452 353.681 74.1982 354.248 74.1433L354.292 74.1059C354.278 74.2464 354.284 74.3838 354.309 74.5465C353.646 75.2873 353.841 75.4174 352.515 75.6902C351.174 75.9666 351.962 76.4587 352.477 76.5874C353.1 76.7433 354.543 76.9642 355.518 75.5995L355.479 75.7552C355.739 75.9633 355.922 77.1088 355.891 78.1471C355.86 79.1855 355.84 79.8984 356.045 80.4553C356.249 81.0121 356.453 82.265 358.196 81.8916C359.652 81.5796 360.407 80.771 360.512 79.4222C360.586 78.4634 360.755 78.6051 360.765 77.7478L360.901 77.342C361.057 76.0421 360.925 75.6228 361.823 75.8178L362.041 75.837C362.701 75.867 363.565 75.7308 364.072 75.4951C365.164 74.9883 365.812 74.1421 364.735 74.3644H364.735Z" fill="#336791"/>
<path id="Vector_28" d="M355.623 75.1112C355.555 77.5298 355.64 79.9653 355.877 80.5572C356.114 81.1491 356.62 82.3004 358.363 81.9271C359.819 81.615 360.349 81.0109 360.579 79.6777C360.748 78.6968 361.075 75.9726 361.116 75.4144" stroke="white" stroke-width="0.608881" stroke-linecap="round" stroke-linejoin="round"/>
<path id="Vector_29" d="M353.536 62.986C353.536 62.986 345.646 59.7614 346.012 67.0943C346.09 68.6543 348.249 78.8985 350.823 75.8042C351.763 74.6727 352.614 73.7852 352.614 73.7852" stroke="white" stroke-width="0.608881" stroke-linecap="round" stroke-linejoin="round"/>
<path id="Vector_30" d="M357.797 62.3971C357.524 62.4828 362.186 60.693 364.835 64.0783C365.771 65.2742 364.686 70.1604 362.092 74.0099" stroke="white" stroke-width="0.608881" stroke-linecap="round" stroke-linejoin="round"/>
<path id="Vector_31" d="M362.093 74.0094C362.093 74.0094 362.262 74.8416 364.72 74.3344C365.796 74.1121 365.148 74.9584 364.056 75.4654C363.16 75.8813 361.151 75.9879 361.118 75.4132C361.034 73.9305 362.176 74.381 362.093 74.0094ZM362.093 74.0094C362.019 73.6748 361.508 73.3465 361.17 72.5276C360.876 71.8128 357.126 66.3316 362.21 67.1456C362.397 67.1071 360.884 62.3098 356.126 62.2318C351.369 62.1538 351.525 68.0817 351.525 68.0817" stroke="white" stroke-width="0.608881" stroke-linecap="round" stroke-linejoin="bevel"/>
<path id="Vector_32" d="M354.291 74.5175C353.628 75.2582 353.823 75.3883 352.497 75.6613C351.156 75.9377 351.944 76.4298 352.459 76.5583C353.082 76.7144 354.525 76.9353 355.5 75.5702C355.797 75.1546 355.498 74.4914 355.091 74.3224C354.893 74.2407 354.63 74.1385 354.291 74.5175Z" stroke="white" stroke-width="0.608881" stroke-linecap="round" stroke-linejoin="round"/>
<path id="Vector_33" d="M354.25 74.5029C354.183 74.0674 354.393 73.5491 354.618 72.9427C354.956 72.0329 355.736 71.123 355.112 68.237C354.647 66.0864 351.527 67.7894 351.525 68.081C351.523 68.3725 351.666 69.5591 351.473 70.9408C351.221 72.7438 352.62 74.2687 354.232 74.1127" stroke="white" stroke-width="0.608881" stroke-linecap="round" stroke-linejoin="round"/>
<path id="Vector_34" d="M353.508 68.038C353.493 68.1376 353.69 68.4034 353.946 68.4389C354.202 68.4746 354.421 68.2669 354.434 68.1674C354.448 68.0678 354.252 67.9581 353.996 67.9224C353.74 67.8867 353.521 67.9387 353.508 68.038H353.508Z" fill="white" stroke="white" stroke-width="0.202959"/>
<path id="Vector_35" d="M361.294 67.8361C361.308 67.9357 361.112 68.2015 360.856 68.237C360.6 68.2726 360.381 68.0649 360.367 67.9654C360.353 67.8658 360.55 67.7561 360.805 67.7205C361.061 67.6848 361.28 67.7367 361.294 67.8361V67.8361Z" fill="white" stroke="white" stroke-width="0.101479"/>
<path id="Vector_36" d="M362.208 67.1461C362.25 67.9274 362.04 68.4595 362.013 69.2911C361.974 70.4999 362.59 71.8835 361.662 73.2688" stroke="white" stroke-width="0.608881" stroke-linecap="round" stroke-linejoin="round"/>
</g>
</g></svg>
