<svg viewBox="0 0 24 24" fill="none" xmlns="http://www.w3.org/2000/svg"><g transform="translate(-84 -216)">
<path id="Vector_269" d="M102.36 222.64C103.436 223.716 104.221 225.047 104.643 226.509C105.064 227.971 105.108 229.516 104.77 231" stroke="black" stroke-width="2" stroke-linecap="round" stroke-linejoin="round"/>
<path id="Vector_270" d="M90.16 222.16C89.2046 222.962 88.4264 223.955 87.875 225.074C87.3236 226.193 87.0109 227.415 86.9567 228.661C86.9026 229.908 87.1082 231.152 87.5605 232.315C88.0129 233.477 88.702 234.533 89.5843 235.416C90.4665 236.298 91.5225 236.987 92.6853 237.439C93.8481 237.892 95.0922 238.097 96.3387 238.043C97.5852 237.989 98.8069 237.676 99.926 237.125C101.045 236.574 102.038 235.795 102.84 234.84" stroke="black" stroke-width="2" stroke-linecap="round" stroke-linejoin="round"/>
<path id="Vector_271" d="M96 218V222" stroke="black" stroke-width="2" stroke-linecap="round" stroke-linejoin="round"/>
<path id="Vector_272" d="M86 218L106 238" stroke="black" stroke-width="2" stroke-linecap="round" stroke-linejoin="round"/>
</g></svg>
