<svg viewBox="0 0 32 32" fill="none" xmlns="http://www.w3.org/2000/svg"><g transform="translate(-180 -56)">
<g id="Shape_2">
<path id="Rectangle" d="M204.104 60H197.742C197.195 60 196.752 60.4435 196.752 60.9905V83.0095C196.752 83.5565 197.195 84 197.742 84H204.104C204.651 84 205.095 83.5565 205.095 83.0095V60.9905C205.095 60.4435 204.651 60 204.104 60Z" fill="url(#paint1_linear_432_14782)"/>
<g id="Vector_24" filter="url(#filter0_d_432_14782)">
<path d="M200.183 83.01V84.0005H199.192H192.83C192.283 84.0005 191.84 83.557 191.84 83.01V66.9719C191.84 66.4249 192.283 65.9814 192.83 65.9814H199.192C199.739 65.9814 200.183 66.4249 200.183 66.9719V83.01Z" fill="black"/>
</g>
<path id="Vector_25" d="M200.183 83.01V84.0005H199.192H192.83C192.283 84.0005 191.84 83.557 191.84 83.01V66.9719C191.84 66.4249 192.283 65.9814 192.83 65.9814H199.192C199.739 65.9814 200.183 66.4249 200.183 66.9719V83.01Z" fill="url(#paint2_linear_432_14782)"/>
<path id="Combined-Shape" fill-rule="evenodd" clip-rule="evenodd" d="M195.343 83.0095V84H194.352H187.99C187.443 84 187 83.5565 187 83.0095V72.9905C187 72.4435 187.443 72 187.99 72H194.352C194.899 72 195.343 72.4435 195.343 72.9905V83.0095Z" fill="url(#paint3_linear_432_14782)"/>
</g>
</g></svg>
