<svg viewBox="0 0 24 24" fill="none" xmlns="http://www.w3.org/2000/svg"><g transform="translate(-116 -216)">
<path id="Vector_273" d="M122 234H120C119.47 234 118.961 233.789 118.586 233.414C118.211 233.039 118 232.53 118 232V227C118 226.47 118.211 225.961 118.586 225.586C118.961 225.211 119.47 225 120 225H136C136.53 225 137.039 225.211 137.414 225.586C137.789 225.961 138 226.47 138 227V232C138 232.53 137.789 233.039 137.414 233.414C137.039 233.789 136.53 234 136 234H134" stroke="black" stroke-width="2" stroke-linecap="round" stroke-linejoin="round"/>
<path id="Vector_274" d="M122 225V219C122 218.735 122.105 218.48 122.293 218.293C122.48 218.105 122.735 218 123 218H133C133.265 218 133.52 218.105 133.707 218.293C133.895 218.48 134 218.735 134 219V225" stroke="black" stroke-width="2" stroke-linecap="round" stroke-linejoin="round"/>
<path id="Vector_275" d="M133 230H123C122.448 230 122 230.448 122 231V237C122 237.552 122.448 238 123 238H133C133.552 238 134 237.552 134 237V231C134 230.448 133.552 230 133 230Z" stroke="black" stroke-width="2" stroke-linecap="round" stroke-linejoin="round"/>
</g></svg>
