<svg viewBox="0 0 24 24" fill="none" xmlns="http://www.w3.org/2000/svg"><g transform="translate(-148 -216)">
<path id="Vector_276" d="M161.5 238H155C154.735 238 154.48 237.895 154.293 237.707C154.105 237.52 154 237.265 154 237V231C154 230.735 154.105 230.48 154.293 230.293C154.48 230.105 154.735 230 155 230H165C165.265 230 165.52 230.105 165.707 230.293C165.895 230.48 166 230.735 166 231V231.5" stroke="black" stroke-width="2" stroke-linecap="round" stroke-linejoin="round"/>
<path id="Vector_277" d="M164 235L166 237L170 233" stroke="black" stroke-width="2" stroke-linecap="round" stroke-linejoin="round"/>
<path id="Vector_278" d="M154 234H152C151.47 234 150.961 233.789 150.586 233.414C150.211 233.039 150 232.53 150 232V227C150 226.47 150.211 225.961 150.586 225.586C150.961 225.211 151.47 225 152 225H168C168.53 225 169.039 225.211 169.414 225.586C169.789 225.961 170 226.47 170 227V229" stroke="black" stroke-width="2" stroke-linecap="round" stroke-linejoin="round"/>
<path id="Vector_279" d="M154 225V219C154 218.735 154.105 218.48 154.293 218.293C154.48 218.105 154.735 218 155 218H165C165.265 218 165.52 218.105 165.707 218.293C165.895 218.48 166 218.735 166 219V225" stroke="black" stroke-width="2" stroke-linecap="round" stroke-linejoin="round"/>
</g></svg>
