<svg viewBox="0 0 24 24" fill="none" xmlns="http://www.w3.org/2000/svg"><g transform="translate(-180 -216)">
<path id="Vector_280" d="M192.531 238H187C186.735 238 186.48 237.895 186.293 237.707C186.105 237.52 186 237.265 186 237V231C186 230.735 186.105 230.48 186.293 230.293C186.48 230.105 186.735 230 187 230H193.377" stroke="black" stroke-width="2" stroke-linecap="round" stroke-linejoin="round"/>
<path id="Vector_281" d="M196.5 232.5L201.5 237.5" stroke="black" stroke-width="2" stroke-linecap="round" stroke-linejoin="round"/>
<path id="Vector_282" d="M196.5 237.5L201.5 232.5" stroke="black" stroke-width="2" stroke-linecap="round" stroke-linejoin="round"/>
<path id="Vector_283" d="M186 234H184C183.47 234 182.961 233.789 182.586 233.414C182.211 233.039 182 232.53 182 232V227C182 226.47 182.211 225.961 182.586 225.586C182.961 225.211 183.47 225 184 225H200C200.53 225 201.039 225.211 201.414 225.586C201.789 225.961 202 226.47 202 227V228.5" stroke="black" stroke-width="2" stroke-linecap="round" stroke-linejoin="round"/>
<path id="Vector_284" d="M186 225V219C186 218.735 186.105 218.48 186.293 218.293C186.48 218.105 186.735 218 187 218H197C197.265 218 197.52 218.105 197.707 218.293C197.895 218.48 198 218.735 198 219V225" stroke="black" stroke-width="2" stroke-linecap="round" stroke-linejoin="round"/>
</g></svg>
