<svg viewBox="0 0 24 24" fill="none" xmlns="http://www.w3.org/2000/svg"><g transform="translate(-212 -216)">
<path id="Vector_285" d="M217 223L215 221" stroke="black" stroke-width="2" stroke-linecap="round" stroke-linejoin="round"/>
<path id="Vector_286" d="M221 222V219" stroke="black" stroke-width="2" stroke-linecap="round" stroke-linejoin="round"/>
<path id="Vector_287" d="M225 223L227 221" stroke="black" stroke-width="2" stroke-linecap="round" stroke-linejoin="round"/>
<path id="Vector_288" d="M221 232C222.657 232 224 230.657 224 229C224 227.343 222.657 226 221 226C219.343 226 218 227.343 218 229C218 230.657 219.343 232 221 232Z" stroke="black" stroke-width="2" stroke-linecap="round" stroke-linejoin="round"/>
<path id="Vector_289" d="M223.83 228H232C232.53 228 233.039 228.211 233.414 228.586C233.789 228.961 234 229.47 234 230V234C234 234.53 233.789 235.039 233.414 235.414C233.039 235.789 232.53 236 232 236H216C215.47 236 214.961 235.789 214.586 235.414C214.211 235.039 214 234.53 214 234V230C214 229.47 214.211 228.961 214.586 228.586C214.961 228.211 215.47 228 216 228H218.17" stroke="black" stroke-width="2" stroke-linecap="round" stroke-linejoin="round"/>
<path id="Vector_290" d="M228 232H230" stroke="black" stroke-width="2" stroke-linecap="round" stroke-linejoin="round"/>
</g></svg>
