<svg viewBox="0 0 24 24" fill="none" xmlns="http://www.w3.org/2000/svg"><g transform="translate(-308 -120)">
<path id="Vector_152" d="M323.39 124.39C323.516 124.516 323.673 124.606 323.845 124.651C324.017 124.696 324.198 124.694 324.369 124.646C324.54 124.597 324.695 124.504 324.818 124.376C324.942 124.248 325.028 124.089 325.07 123.916C325.174 123.484 325.391 123.087 325.699 122.767C326.007 122.447 326.395 122.214 326.822 122.094C327.25 121.973 327.702 121.969 328.132 122.081C328.562 122.193 328.955 122.418 329.269 122.733C329.583 123.047 329.808 123.439 329.92 123.869C330.032 124.299 330.027 124.751 329.907 125.179C329.786 125.607 329.553 125.994 329.233 126.302C328.913 126.61 328.516 126.827 328.084 126.931C327.911 126.972 327.752 127.059 327.624 127.182C327.496 127.306 327.402 127.461 327.354 127.632C327.306 127.803 327.304 127.984 327.349 128.156C327.394 128.328 327.484 128.485 327.61 128.611L329.293 130.293C329.517 130.517 329.695 130.783 329.816 131.076C329.938 131.369 330 131.683 330 132C330 132.317 329.938 132.631 329.816 132.924C329.695 133.217 329.517 133.483 329.293 133.707L327.61 135.39C327.484 135.516 327.327 135.606 327.155 135.651C326.983 135.696 326.802 135.694 326.631 135.646C326.46 135.597 326.304 135.504 326.181 135.376C326.058 135.248 325.971 135.089 325.93 134.916C325.826 134.484 325.609 134.087 325.301 133.767C324.993 133.447 324.605 133.214 324.177 133.094C323.75 132.973 323.297 132.969 322.867 133.081C322.437 133.193 322.045 133.418 321.731 133.733C321.417 134.047 321.192 134.439 321.08 134.869C320.968 135.299 320.972 135.751 321.093 136.179C321.214 136.607 321.446 136.994 321.767 137.302C322.087 137.61 322.484 137.827 322.916 137.931C323.089 137.972 323.248 138.059 323.376 138.182C323.504 138.306 323.597 138.461 323.646 138.632C323.694 138.803 323.696 138.984 323.651 139.156C323.606 139.328 323.516 139.485 323.39 139.611L321.707 141.293C321.483 141.517 321.217 141.695 320.924 141.816C320.631 141.938 320.317 142 320 142C319.683 142 319.369 141.938 319.076 141.816C318.783 141.695 318.517 141.517 318.293 141.293L316.61 139.61C316.484 139.484 316.327 139.394 316.155 139.349C315.983 139.304 315.802 139.306 315.631 139.354C315.46 139.403 315.304 139.496 315.181 139.624C315.058 139.752 314.971 139.911 314.93 140.084C314.826 140.516 314.609 140.913 314.301 141.233C313.993 141.553 313.605 141.786 313.177 141.906C312.75 142.027 312.297 142.031 311.867 141.919C311.437 141.807 311.045 141.582 310.731 141.268C310.417 140.953 310.192 140.561 310.08 140.131C309.968 139.701 309.972 139.249 310.093 138.821C310.214 138.393 310.446 138.006 310.767 137.698C311.087 137.39 311.484 137.173 311.916 137.069C312.089 137.028 312.248 136.941 312.376 136.818C312.504 136.694 312.597 136.539 312.646 136.368C312.694 136.197 312.696 136.016 312.651 135.844C312.606 135.672 312.516 135.515 312.39 135.389L310.707 133.707C310.483 133.483 310.305 133.217 310.184 132.924C310.062 132.631 310 132.317 310 132C310 131.683 310.062 131.369 310.184 131.076C310.305 130.783 310.483 130.517 310.707 130.293L312.39 128.61C312.516 128.484 312.673 128.394 312.845 128.349C313.017 128.304 313.198 128.306 313.369 128.354C313.54 128.403 313.695 128.496 313.818 128.624C313.942 128.752 314.028 128.911 314.07 129.084C314.174 129.516 314.391 129.913 314.699 130.233C315.007 130.553 315.395 130.786 315.822 130.906C316.25 131.027 316.702 131.031 317.132 130.919C317.562 130.807 317.955 130.582 318.269 130.268C318.583 129.953 318.808 129.561 318.92 129.131C319.032 128.701 319.027 128.249 318.907 127.821C318.786 127.393 318.553 127.006 318.233 126.698C317.913 126.39 317.516 126.173 317.084 126.069C316.911 126.028 316.752 125.941 316.624 125.818C316.496 125.694 316.402 125.539 316.354 125.368C316.306 125.197 316.304 125.016 316.349 124.844C316.394 124.672 316.484 124.515 316.61 124.389L318.293 122.707C318.517 122.483 318.783 122.305 319.076 122.184C319.369 122.062 319.683 122 320 122C320.317 122 320.631 122.062 320.924 122.184C321.217 122.305 321.483 122.483 321.707 122.707L323.39 124.39Z" stroke="black" stroke-width="2" stroke-linecap="round" stroke-linejoin="round"/>
</g></svg>
