<svg viewBox="0 0 24 24" fill="none" xmlns="http://www.w3.org/2000/svg"><g transform="translate(-372 -184)">
<path id="Vector_171" d="M374.5 200.88C374.381 200.811 374.278 200.718 374.197 200.607C374.115 200.495 374.058 200.369 374.028 200.235C373.998 200.101 373.996 199.962 374.022 199.827C374.048 199.691 374.102 199.563 374.18 199.45L383.18 186.43C383.272 186.298 383.395 186.19 383.537 186.116C383.68 186.041 383.839 186.002 384 186.002C384.161 186.002 384.319 186.041 384.462 186.116C384.605 186.19 384.728 186.298 384.82 186.43L393.82 199.44C393.899 199.554 393.954 199.683 393.981 199.819C394.008 199.955 394.007 200.095 393.977 200.23C393.947 200.366 393.889 200.494 393.807 200.605C393.724 200.717 393.62 200.811 393.5 200.88L384.99 205.74C384.688 205.912 384.347 206.002 384 206.002C383.653 206.002 383.311 205.912 383.01 205.74L374.5 200.88Z" stroke="black" stroke-width="2" stroke-linecap="round" stroke-linejoin="round"/>
<path id="Vector_172" d="M384 186V206" stroke="black" stroke-width="2" stroke-linecap="round" stroke-linejoin="round"/>
</g></svg>
