<svg viewBox="0 0 24 24" fill="none" xmlns="http://www.w3.org/2000/svg"><g transform="translate(-244 -216)">
<path id="Vector_291" d="M251 219H248C247.448 219 247 219.448 247 220V223C247 223.552 247.448 224 248 224H251C251.552 224 252 223.552 252 223V220C252 219.448 251.552 219 251 219Z" stroke="black" stroke-width="2" stroke-linecap="round" stroke-linejoin="round"/>
<path id="Vector_292" d="M264 219H261C260.448 219 260 219.448 260 220V223C260 223.552 260.448 224 261 224H264C264.552 224 265 223.552 265 223V220C265 219.448 264.552 219 264 219Z" stroke="black" stroke-width="2" stroke-linecap="round" stroke-linejoin="round"/>
<path id="Vector_293" d="M251 232H248C247.448 232 247 232.448 247 233V236C247 236.552 247.448 237 248 237H251C251.552 237 252 236.552 252 236V233C252 232.448 251.552 232 251 232Z" stroke="black" stroke-width="2" stroke-linecap="round" stroke-linejoin="round"/>
<path id="Vector_294" d="M265 232H262C261.47 232 260.961 232.211 260.586 232.586C260.211 232.961 260 233.47 260 234V237" stroke="black" stroke-width="2" stroke-linecap="round" stroke-linejoin="round"/>
<path id="Vector_295" d="M265 237V237.01" stroke="black" stroke-width="2" stroke-linecap="round" stroke-linejoin="round"/>
<path id="Vector_296" d="M256 223V226C256 226.53 255.789 227.039 255.414 227.414C255.039 227.789 254.53 228 254 228H251" stroke="black" stroke-width="2" stroke-linecap="round" stroke-linejoin="round"/>
<path id="Vector_297" d="M247 228H247.01" stroke="black" stroke-width="2" stroke-linecap="round" stroke-linejoin="round"/>
<path id="Vector_298" d="M256 219H256.01" stroke="black" stroke-width="2" stroke-linecap="round" stroke-linejoin="round"/>
<path id="Vector_299" d="M256 232V232.01" stroke="black" stroke-width="2" stroke-linecap="round" stroke-linejoin="round"/>
<path id="Vector_300" d="M260 228H261" stroke="black" stroke-width="2" stroke-linecap="round" stroke-linejoin="round"/>
<path id="Vector_301" d="M265 228V228.01" stroke="black" stroke-width="2" stroke-linecap="round" stroke-linejoin="round"/>
<path id="Vector_302" d="M256 237V236" stroke="black" stroke-width="2" stroke-linecap="round" stroke-linejoin="round"/>
</g></svg>
