<svg viewBox="0 0 24 24" fill="none" xmlns="http://www.w3.org/2000/svg"><g transform="translate(-244 -88)">
<path id="Vector_78" d="M260 91C259.47 91 258.961 91.2107 258.586 91.5858C258.211 91.9609 258 92.4696 258 93V99C258 99.5304 258.211 100.039 258.586 100.414C258.961 100.789 259.47 101 260 101C260.265 101 260.52 101.105 260.707 101.293C260.895 101.48 261 101.735 261 102V103C261 103.53 260.789 104.039 260.414 104.414C260.039 104.789 259.53 105 259 105C258.735 105 258.48 105.105 258.293 105.293C258.105 105.48 258 105.735 258 106V108C258 108.265 258.105 108.52 258.293 108.707C258.48 108.895 258.735 109 259 109C260.591 109 262.117 108.368 263.243 107.243C264.368 106.117 265 104.591 265 103V93C265 92.4696 264.789 91.9609 264.414 91.5858C264.039 91.2107 263.53 91 263 91H260Z" stroke="black" stroke-width="2" stroke-linecap="round" stroke-linejoin="round"/>
<path id="Vector_79" d="M249 91C248.47 91 247.961 91.2107 247.586 91.5858C247.211 91.9609 247 92.4696 247 93V99C247 99.5304 247.211 100.039 247.586 100.414C247.961 100.789 248.47 101 249 101C249.265 101 249.52 101.105 249.707 101.293C249.895 101.48 250 101.735 250 102V103C250 103.53 249.789 104.039 249.414 104.414C249.039 104.789 248.53 105 248 105C247.735 105 247.48 105.105 247.293 105.293C247.105 105.48 247 105.735 247 106V108C247 108.265 247.105 108.52 247.293 108.707C247.48 108.895 247.735 109 248 109C249.591 109 251.117 108.368 252.243 107.243C253.368 106.117 254 104.591 254 103V93C254 92.4696 253.789 91.9609 253.414 91.5858C253.039 91.2107 252.53 91 252 91H249Z" stroke="black" stroke-width="2" stroke-linecap="round" stroke-linejoin="round"/>
</g></svg>
