<svg viewBox="0 0 24 24" fill="none" xmlns="http://www.w3.org/2000/svg"><g transform="translate(-244 -56)">
<path id="Vector_33" d="M257 72C257.579 71.9992 258.147 72.1663 258.633 72.481C259.12 72.7958 259.505 73.2446 259.742 73.7735C259.979 74.3023 260.057 74.8884 259.968 75.461C259.879 76.0336 259.626 76.5681 259.24 77" stroke="black" stroke-width="2" stroke-linecap="round" stroke-linejoin="round"/>
<path id="Vector_34" d="M262 68H262.01" stroke="black" stroke-width="2" stroke-linecap="round" stroke-linejoin="round"/>
<path id="Vector_35" d="M262 76.9999H254C252.939 76.9999 251.922 76.5785 251.172 75.8283C250.421 75.0782 250 74.0608 250 72.9999C250 71.1434 250.737 69.3629 252.05 68.0502C253.363 66.7374 255.143 65.9999 257 65.9999H257.2L253.6 62.3999C253.416 62.2161 253.27 61.9978 253.171 61.7576C253.071 61.5174 253.02 61.2599 253.02 60.9999C253.02 60.4748 253.229 59.9712 253.6 59.5999C253.971 59.2286 254.475 59.02 255 59.02C255.26 59.02 255.517 59.0712 255.758 59.1707C255.998 59.2702 256.216 59.4161 256.4 59.5999L259.8 62.9999H260C263.3 62.9999 266 65.6999 266 68.9999V69.9999C266 70.5304 265.789 71.0391 265.414 71.4141C265.039 71.7892 264.53 71.9999 264 71.9999H263C262.204 71.9999 261.441 72.316 260.879 72.8786C260.316 73.4412 260 74.2043 260 74.9999" stroke="black" stroke-width="2" stroke-linecap="round" stroke-linejoin="round"/>
<path id="Vector_36" d="M264 64.54V60C264 59.4696 263.789 58.9609 263.414 58.5858C263.039 58.2107 262.53 58 262 58C261.47 58 260.961 58.2107 260.586 58.5858C260.211 58.9609 260 59.4696 260 60V63" stroke="black" stroke-width="2" stroke-linecap="round" stroke-linejoin="round"/>
<path id="Vector_37" d="M251.612 68.524C251.331 68.0263 250.913 67.6193 250.408 67.351C249.904 67.0826 249.333 66.964 248.763 67.0091C248.193 67.0543 247.648 67.2613 247.192 67.6057C246.736 67.9502 246.388 68.4178 246.188 68.9536C245.989 69.4893 245.947 70.0708 246.067 70.6297C246.187 71.1885 246.464 71.7015 246.866 72.1081C247.268 72.5148 247.777 72.7982 248.334 72.925C248.892 73.0518 249.474 73.0168 250.012 72.8239" stroke="black" stroke-width="2" stroke-linecap="round" stroke-linejoin="round"/>
</g></svg>
