<svg viewBox="0 0 24 24" fill="none" xmlns="http://www.w3.org/2000/svg"><g transform="translate(-116 -152)">
<path id="Vector_142" d="M135.07 156.93C133.513 155.371 131.485 154.37 129.3 154.083C127.116 153.795 124.898 154.237 122.99 155.34" stroke="black" stroke-width="2" stroke-linecap="round" stroke-linejoin="round"/>
<path id="Vector_143" d="M120 158H120.01" stroke="black" stroke-width="2" stroke-linecap="round" stroke-linejoin="round"/>
<path id="Vector_144" d="M118.29 161.62C117.915 163.147 117.906 164.741 118.263 166.273C118.619 167.804 119.332 169.23 120.343 170.434C121.354 171.638 122.635 172.587 124.081 173.204C125.528 173.82 127.099 174.087 128.668 173.982C130.237 173.877 131.759 173.404 133.111 172.601C134.463 171.797 135.606 170.687 136.448 169.359C137.29 168.031 137.807 166.523 137.956 164.958C138.106 163.392 137.885 161.814 137.31 160.35" stroke="black" stroke-width="2" stroke-linecap="round" stroke-linejoin="round"/>
<path id="Vector_145" d="M132.24 159.76C131.665 159.181 130.977 158.726 130.22 158.422C129.462 158.118 128.651 157.972 127.835 157.992C127.019 158.013 126.215 158.199 125.474 158.541C124.733 158.883 124.069 159.372 123.523 159.979C122.978 160.586 122.562 161.298 122.3 162.071C122.039 162.845 121.939 163.663 122.005 164.477C122.071 165.29 122.303 166.082 122.685 166.803C123.068 167.524 123.594 168.159 124.23 168.67" stroke="black" stroke-width="2" stroke-linecap="round" stroke-linejoin="round"/>
<path id="Vector_146" d="M128 170H128.01" stroke="black" stroke-width="2" stroke-linecap="round" stroke-linejoin="round"/>
<path id="Vector_147" d="M133.99 163.66C134.044 164.611 133.871 165.562 133.485 166.433C133.099 167.304 132.511 168.071 131.77 168.67" stroke="black" stroke-width="2" stroke-linecap="round" stroke-linejoin="round"/>
<path id="Vector_148" d="M128 166C129.105 166 130 165.105 130 164C130 162.895 129.105 162 128 162C126.895 162 126 162.895 126 164C126 165.105 126.895 166 128 166Z" stroke="black" stroke-width="2" stroke-linecap="round" stroke-linejoin="round"/>
<path id="Vector_149" d="M129.41 162.59L135.07 156.93" stroke="black" stroke-width="2" stroke-linecap="round" stroke-linejoin="round"/>
</g></svg>
