<svg viewBox="0 0 24 24" fill="none" xmlns="http://www.w3.org/2000/svg"><g transform="translate(-372 -120)">
<path id="Vector_153" d="M384 132H384.01" stroke="black" stroke-width="2" stroke-linecap="round" stroke-linejoin="round"/>
<path id="Vector_154" d="M386 135.464C385.392 135.815 384.702 136 384 136C383.298 136 382.608 135.815 382 135.464L379.528 139.746C379.457 139.868 379.413 140.003 379.399 140.143C379.384 140.283 379.4 140.424 379.443 140.558C379.487 140.692 379.559 140.815 379.654 140.919C379.748 141.023 379.864 141.106 379.993 141.162C381.256 141.715 382.621 142 384 142C385.379 142 386.743 141.715 388.007 141.162C388.136 141.106 388.251 141.023 388.346 140.919C388.44 140.815 388.512 140.692 388.556 140.558C388.6 140.424 388.615 140.283 388.6 140.143C388.586 140.003 388.542 139.868 388.472 139.746L386 135.464Z" stroke="black" stroke-width="2" stroke-linecap="round" stroke-linejoin="round"/>
<path id="Vector_155" d="M388 132C388 131.298 387.815 130.608 387.464 130C387.113 129.392 386.608 128.887 386 128.536L388.472 124.254C388.542 124.132 388.638 124.026 388.752 123.944C388.866 123.861 388.996 123.804 389.134 123.775C389.272 123.746 389.414 123.747 389.551 123.777C389.689 123.807 389.819 123.865 389.932 123.949C391.042 124.767 391.971 125.806 392.661 127C393.35 128.195 393.785 129.519 393.938 130.889C393.953 131.024 393.941 131.161 393.901 131.292C393.862 131.422 393.796 131.543 393.708 131.647C393.621 131.751 393.512 131.836 393.391 131.896C393.269 131.957 393.136 131.992 393 132H388Z" stroke="black" stroke-width="2" stroke-linecap="round" stroke-linejoin="round"/>
<path id="Vector_156" d="M380 132C380 131.298 380.185 130.608 380.536 130C380.887 129.392 381.392 128.887 382 128.536L379.528 124.254C379.458 124.132 379.362 124.026 379.248 123.944C379.134 123.861 379.004 123.804 378.866 123.775C378.728 123.746 378.586 123.747 378.449 123.777C378.311 123.807 378.181 123.865 378.068 123.949C376.958 124.767 376.029 125.806 375.339 127C374.65 128.195 374.215 129.519 374.062 130.889C374.047 131.024 374.059 131.161 374.099 131.292C374.138 131.422 374.204 131.543 374.292 131.647C374.379 131.751 374.488 131.836 374.609 131.896C374.731 131.957 374.864 131.992 375 132H380Z" stroke="black" stroke-width="2" stroke-linecap="round" stroke-linejoin="round"/>
</g></svg>
