<svg viewBox="0 0 24 24" fill="none" xmlns="http://www.w3.org/2000/svg"><g transform="translate(-20 -184)">
<path id="Vector_183" d="M36.2471 191.761C37.3701 192.886 38.0008 194.41 38.0008 196C38.0008 197.59 37.3701 199.114 36.2471 200.239" stroke="black" stroke-width="2" stroke-linecap="round" stroke-linejoin="round"/>
<path id="Vector_184" d="M39.0752 188.933C40.9481 190.808 42.0001 193.35 42.0001 196C42.0001 198.65 40.9481 201.192 39.0752 203.067" stroke="black" stroke-width="2" stroke-linecap="round" stroke-linejoin="round"/>
<path id="Vector_185" d="M24.9249 203.067C23.052 201.192 22 198.65 22 196C22 193.35 23.052 190.808 24.9249 188.933" stroke="black" stroke-width="2" stroke-linecap="round" stroke-linejoin="round"/>
<path id="Vector_186" d="M27.7527 200.239C26.6298 199.114 25.999 197.59 25.999 196C25.999 194.41 26.6298 192.886 27.7527 191.761" stroke="black" stroke-width="2" stroke-linecap="round" stroke-linejoin="round"/>
<path id="Vector_187" d="M32 198C33.1046 198 34 197.105 34 196C34 194.895 33.1046 194 32 194C30.8954 194 30 194.895 30 196C30 197.105 30.8954 198 32 198Z" stroke="black" stroke-width="2" stroke-linecap="round" stroke-linejoin="round"/>
</g></svg>
