<svg viewBox="0 0 24 24" fill="none" xmlns="http://www.w3.org/2000/svg"><g transform="translate(-308 -216)">
<path id="Vector_252" d="M328.34 233.52C329.708 231.453 330.26 228.952 329.888 226.501C329.516 224.05 328.247 221.825 326.328 220.257C324.408 218.689 321.975 217.889 319.499 218.014C317.024 218.138 314.683 219.177 312.93 220.93C311.177 222.683 310.138 225.024 310.014 227.499C309.889 229.975 310.689 232.408 312.257 234.328C313.825 236.247 316.05 237.516 318.501 237.888C320.952 238.26 323.453 237.708 325.52 236.34" stroke="black" stroke-width="2" stroke-linecap="round" stroke-linejoin="round"/>
<path id="Vector_253" d="M327 237C328.105 237 329 236.105 329 235C329 233.895 328.105 233 327 233C325.895 233 325 233.895 325 235C325 236.105 325.895 237 327 237Z" stroke="black" stroke-width="2" stroke-linecap="round" stroke-linejoin="round"/>
<path id="Vector_254" d="M321.41 229.41L325.59 233.59" stroke="black" stroke-width="2" stroke-linecap="round" stroke-linejoin="round"/>
<path id="Vector_255" d="M320 230C321.105 230 322 229.105 322 228C322 226.895 321.105 226 320 226C318.895 226 318 226.895 318 228C318 229.105 318.895 230 320 230Z" stroke="black" stroke-width="2" stroke-linecap="round" stroke-linejoin="round"/>
</g></svg>
