<svg viewBox="0 0 24 24" fill="none" xmlns="http://www.w3.org/2000/svg"><g transform="translate(-52 -184)">
<path id="Vector_188" d="M65.4142 197.414C65.2297 197.605 65.009 197.757 64.765 197.862C64.521 197.967 64.2585 198.022 63.993 198.024C63.7274 198.027 63.464 197.976 63.2183 197.876C62.9725 197.775 62.7492 197.627 62.5614 197.439C62.3736 197.251 62.2251 197.028 62.1245 196.782C62.024 196.536 61.9734 196.273 61.9757 196.007C61.978 195.742 62.0331 195.479 62.138 195.235C62.2428 194.991 62.3951 194.77 62.5862 194.586" stroke="black" stroke-width="2" stroke-linecap="round" stroke-linejoin="round"/>
<path id="Vector_189" d="M68.2471 191.761C68.8427 192.358 69.3058 193.073 69.6063 193.861C69.9068 194.649 70.0379 195.491 69.9911 196.333" stroke="black" stroke-width="2" stroke-linecap="round" stroke-linejoin="round"/>
<path id="Vector_190" d="M71.0752 188.933C72.4497 190.309 73.3931 192.056 73.7899 193.96C74.1867 195.864 74.0196 197.843 73.3092 199.653" stroke="black" stroke-width="2" stroke-linecap="round" stroke-linejoin="round"/>
<path id="Vector_191" d="M54 186L74 206" stroke="black" stroke-width="2" stroke-linecap="round" stroke-linejoin="round"/>
<path id="Vector_192" d="M56.9249 203.067C55.052 201.192 54 198.65 54 196C54 193.35 55.052 190.808 56.9249 188.933" stroke="black" stroke-width="2" stroke-linecap="round" stroke-linejoin="round"/>
<path id="Vector_193" d="M59.7527 200.239C58.6298 199.114 57.999 197.59 57.999 196C57.999 194.41 58.6298 192.886 59.7527 191.761" stroke="black" stroke-width="2" stroke-linecap="round" stroke-linejoin="round"/>
</g></svg>
