<svg viewBox="0 0 24 24" fill="none" xmlns="http://www.w3.org/2000/svg"><g transform="translate(-276 -216)">
<path id="Vector_303" d="M280.9 232.1C277 228.2 277 221.8 280.9 217.9" stroke="black" stroke-width="2" stroke-linecap="round" stroke-linejoin="round"/>
<path id="Vector_304" d="M283.8 220.7C282.851 221.683 282.258 222.954 282.113 224.313C281.968 225.671 282.28 227.039 283 228.2" stroke="black" stroke-width="2" stroke-linecap="round" stroke-linejoin="round"/>
<path id="Vector_305" d="M288 227C289.105 227 290 226.105 290 225C290 223.895 289.105 223 288 223C286.895 223 286 223.895 286 225C286 226.105 286.895 227 288 227Z" stroke="black" stroke-width="2" stroke-linecap="round" stroke-linejoin="round"/>
<path id="Vector_306" d="M292.2 220.8C294.2 222.8 294.46 225.91 293 228.27" stroke="black" stroke-width="2" stroke-linecap="round" stroke-linejoin="round"/>
<path id="Vector_307" d="M295.1 217.9C296.027 218.825 296.762 219.924 297.264 221.134C297.766 222.344 298.024 223.64 298.024 224.95C298.024 226.26 297.766 227.557 297.264 228.766C296.762 229.976 296.027 231.075 295.1 232" stroke="black" stroke-width="2" stroke-linecap="round" stroke-linejoin="round"/>
<path id="Vector_308" d="M285.5 234H290.5" stroke="black" stroke-width="2" stroke-linecap="round" stroke-linejoin="round"/>
<path id="Vector_309" d="M284 238L288 227L292 238" stroke="black" stroke-width="2" stroke-linecap="round" stroke-linejoin="round"/>
</g></svg>
