<svg viewBox="0 0 24 24" fill="none" xmlns="http://www.w3.org/2000/svg"><g transform="translate(-52 -152)">
<path id="Vector_139" d="M74 169C74 166.348 72.9464 163.804 71.0711 161.929C69.1957 160.054 66.6522 159 64 159C61.3478 159 58.8043 160.054 56.9289 161.929C55.0536 163.804 54 166.348 54 169" stroke="black" stroke-width="2" stroke-linecap="round" stroke-linejoin="round"/>
<path id="Vector_140" d="M58 169C58 167.409 58.6321 165.883 59.7574 164.757C60.8826 163.632 62.4087 163 64 163C65.5913 163 67.1174 163.632 68.2426 164.757C69.3679 165.883 70 167.409 70 169" stroke="black" stroke-width="2" stroke-linecap="round" stroke-linejoin="round"/>
<path id="Vector_141" d="M62 169C62 168.47 62.2107 167.961 62.5858 167.586C62.9609 167.211 63.4696 167 64 167C64.5304 167 65.0391 167.211 65.4142 167.586C65.7893 167.961 66 168.47 66 169" stroke="black" stroke-width="2" stroke-linecap="round" stroke-linejoin="round"/>
</g></svg>
