<svg viewBox="0 0 24 24" fill="none" xmlns="http://www.w3.org/2000/svg"><g transform="translate(-276 -56)">
<path id="Vector_38" d="M289 78H280C279.47 78 278.961 77.7893 278.586 77.4142C278.211 77.0391 278 76.5304 278 76C278 75.4696 278.211 74.9609 278.586 74.5858C278.961 74.2107 279.47 74 280 74H292" stroke="black" stroke-width="2" stroke-linecap="round" stroke-linejoin="round"/>
<path id="Vector_39" d="M289.236 74C289.62 73.5706 289.873 73.0398 289.963 72.4708C290.054 71.9018 289.978 71.3189 289.746 70.7916C289.514 70.2643 289.135 69.8149 288.655 69.4972C288.174 69.1795 287.612 69.0069 287.036 69" stroke="black" stroke-width="2" stroke-linecap="round" stroke-linejoin="round"/>
<path id="Vector_40" d="M292 65H292.01" stroke="black" stroke-width="2" stroke-linecap="round" stroke-linejoin="round"/>
<path id="Vector_41" d="M292.82 59.94C293.13 59.6118 293.51 59.3579 293.932 59.197C294.354 59.0361 294.806 58.9725 295.256 59.0108C295.706 59.0492 296.141 59.1885 296.529 59.4185C296.918 59.6484 297.249 59.963 297.499 60.3389C297.749 60.7147 297.911 61.1421 297.973 61.5892C298.035 62.0364 297.995 62.4917 297.856 62.9212C297.718 63.3508 297.484 63.7435 297.172 64.0702C296.861 64.3969 296.48 64.6491 296.057 64.808L297.872 67.395C297.977 67.6332 298.019 67.8947 297.992 68.1537C297.965 68.4127 297.872 68.6604 297.721 68.8722C297.569 69.0841 297.365 69.253 297.129 69.3622C296.892 69.4713 296.632 69.5171 296.372 69.495L293.5 69.042C293.067 68.9686 292.622 68.9915 292.198 69.1091C291.774 69.2266 291.382 69.4359 291.048 69.7222C290.714 70.0084 290.447 70.3646 290.266 70.7655C290.085 71.1664 289.994 71.6021 290 72.042" stroke="black" stroke-width="2" stroke-linecap="round" stroke-linejoin="round"/>
<path id="Vector_42" d="M293 60.9881C292.998 60.5 292.877 60.0199 292.647 59.5892C292.418 59.1586 292.087 58.7904 291.683 58.5167C291.279 58.243 290.814 58.072 290.329 58.0185C289.844 57.9651 289.353 58.0308 288.899 58.2099C288.445 58.389 288.041 58.6762 287.724 59.0466C287.406 59.4169 287.183 59.8591 287.075 60.335C286.967 60.8109 286.976 61.306 287.102 61.7774C287.229 62.2487 287.468 62.6822 287.8 63.0401C286.818 62.9271 285.823 63.0234 284.881 63.3226C283.939 63.6219 283.071 64.1173 282.334 64.7762C281.597 65.4351 281.008 66.2427 280.606 67.1456C280.204 68.0486 279.997 69.0265 280 70.0151C280.004 71.0733 280.427 72.0869 281.177 72.8338C281.927 73.5807 282.942 74.0001 284 74.0001" stroke="black" stroke-width="2" stroke-linecap="round" stroke-linejoin="round"/>
</g></svg>
