<svg viewBox="0 0 24 24" fill="none" xmlns="http://www.w3.org/2000/svg"><g transform="translate(-340 -216)">
<path id="Vector_256" d="M356 218H348C346.895 218 346 218.895 346 220V236C346 237.105 346.895 238 348 238H356C357.105 238 358 237.105 358 236V220C358 218.895 357.105 218 356 218Z" stroke="black" stroke-width="2" stroke-linecap="round" stroke-linejoin="round"/>
<path id="Vector_257" d="M360 222H344C342.895 222 342 222.895 342 224V232C342 233.105 342.895 234 344 234H360C361.105 234 362 233.105 362 232V224C362 222.895 361.105 222 360 222Z" stroke="black" stroke-width="2" stroke-linecap="round" stroke-linejoin="round"/>
</g></svg>
