<svg viewBox="0 0 24 24" fill="none" xmlns="http://www.w3.org/2000/svg"><g transform="translate(-84 -120)">
<path id="Vector_102" d="M99.8276 134.829C99.0775 135.579 98.0603 136 96.9996 136C95.939 136 94.9218 135.579 94.1716 134.829C93.8002 134.458 93.5055 134.017 93.3045 133.531C93.1035 133.046 93 132.526 93 132C93 131.475 93.1035 130.955 93.3045 130.47C93.5055 129.984 93.8002 129.543 94.1716 129.172C94.9218 128.422 95.939 128.001 96.9996 128.001C98.0603 128.001 99.0775 128.422 99.8276 129.172" stroke="black" stroke-width="2" stroke-linecap="round" stroke-linejoin="round"/>
<path id="Vector_103" d="M88 123C88 122.735 88.1054 122.48 88.2929 122.293C88.4804 122.105 88.7348 122 89 122C89.2476 121.999 89.4905 122.068 89.7 122.2L90.633 122.8C90.842 122.934 91.0849 123.005 91.333 123.005C91.5811 123.005 91.824 122.934 92.033 122.8L92.967 122.2C93.176 122.066 93.4189 121.995 93.667 121.995C93.9151 121.995 94.158 122.066 94.367 122.2L95.3 122.8C95.509 122.934 95.7519 123.005 96 123.005C96.2481 123.005 96.491 122.934 96.7 122.8L97.633 122.2C97.842 122.066 98.0849 121.995 98.333 121.995C98.5811 121.995 98.824 122.066 99.033 122.2L99.967 122.8C100.176 122.934 100.419 123.005 100.667 123.005C100.915 123.005 101.158 122.934 101.367 122.8L102.3 122.2C102.51 122.068 102.752 121.999 103 122C103.265 122 103.52 122.105 103.707 122.293C103.895 122.48 104 122.735 104 123V141C104 141.265 103.895 141.52 103.707 141.707C103.52 141.895 103.265 142 103 142C102.752 142.001 102.51 141.932 102.3 141.8L101.367 141.2C101.158 141.066 100.915 140.995 100.667 140.995C100.419 140.995 100.176 141.066 99.967 141.2L99.033 141.8C98.824 141.934 98.5811 142.005 98.333 142.005C98.0849 142.005 97.842 141.934 97.633 141.8L96.7 141.2C96.491 141.066 96.2481 140.995 96 140.995C95.7519 140.995 95.509 141.066 95.3 141.2L94.367 141.8C94.158 141.934 93.9151 142.005 93.667 142.005C93.4189 142.005 93.176 141.934 92.967 141.8L92.033 141.2C91.824 141.066 91.5811 140.995 91.333 140.995C91.0849 140.995 90.842 141.066 90.633 141.2L89.7 141.8C89.4905 141.932 89.2476 142.001 89 142C88.7348 142 88.4804 141.895 88.2929 141.707C88.1054 141.52 88 141.265 88 141V123Z" stroke="black" stroke-width="2" stroke-linecap="round" stroke-linejoin="round"/>
<path id="Vector_104" d="M92 132H97" stroke="black" stroke-width="2" stroke-linecap="round" stroke-linejoin="round"/>
</g></svg>
