<svg viewBox="0 0 24 24" fill="none" xmlns="http://www.w3.org/2000/svg"><g transform="translate(-20 -120)">
<path id="Vector_96" d="M32 137V127" stroke="black" stroke-width="2" stroke-linecap="round" stroke-linejoin="round"/>
<path id="Vector_97" d="M36 128H30C29.4696 128 28.9609 128.211 28.5858 128.586C28.2107 128.961 28 129.47 28 130C28 130.53 28.2107 131.039 28.5858 131.414C28.9609 131.789 29.4696 132 30 132H34C34.5304 132 35.0391 132.211 35.4142 132.586C35.7893 132.961 36 133.47 36 134C36 134.53 35.7893 135.039 35.4142 135.414C35.0391 135.789 34.5304 136 34 136H28" stroke="black" stroke-width="2" stroke-linecap="round" stroke-linejoin="round"/>
<path id="Vector_98" d="M24 123C24 122.735 24.1054 122.48 24.2929 122.293C24.4804 122.105 24.7348 122 25 122C25.2476 121.999 25.4905 122.068 25.7 122.2L26.633 122.8C26.842 122.934 27.0849 123.005 27.333 123.005C27.5811 123.005 27.824 122.934 28.033 122.8L28.967 122.2C29.176 122.066 29.4189 121.995 29.667 121.995C29.9151 121.995 30.158 122.066 30.367 122.2L31.3 122.8C31.509 122.934 31.7519 123.005 32 123.005C32.2481 123.005 32.491 122.934 32.7 122.8L33.633 122.2C33.842 122.066 34.0849 121.995 34.333 121.995C34.5811 121.995 34.824 122.066 35.033 122.2L35.967 122.8C36.176 122.934 36.4189 123.005 36.667 123.005C36.9151 123.005 37.158 122.934 37.367 122.8L38.3 122.2C38.5095 122.068 38.7524 121.999 39 122C39.2652 122 39.5196 122.105 39.7071 122.293C39.8946 122.48 40 122.735 40 123V141C40 141.265 39.8946 141.52 39.7071 141.707C39.5196 141.895 39.2652 142 39 142C38.7524 142.001 38.5095 141.932 38.3 141.8L37.367 141.2C37.158 141.066 36.9151 140.995 36.667 140.995C36.4189 140.995 36.176 141.066 35.967 141.2L35.033 141.8C34.824 141.934 34.5811 142.005 34.333 142.005C34.0849 142.005 33.842 141.934 33.633 141.8L32.7 141.2C32.491 141.066 32.2481 140.995 32 140.995C31.7519 140.995 31.509 141.066 31.3 141.2L30.367 141.8C30.158 141.934 29.9151 142.005 29.667 142.005C29.4189 142.005 29.176 141.934 28.967 141.8L28.033 141.2C27.824 141.066 27.5811 140.995 27.333 140.995C27.0849 140.995 26.842 141.066 26.633 141.2L25.7 141.8C25.4905 141.932 25.2476 142.001 25 142C24.7348 142 24.4804 141.895 24.2929 141.707C24.1054 141.52 24 141.265 24 141V123Z" stroke="black" stroke-width="2" stroke-linecap="round" stroke-linejoin="round"/>
</g></svg>
