<svg viewBox="0 0 24 24" fill="none" xmlns="http://www.w3.org/2000/svg"><g transform="translate(-180 -120)">
<path id="Vector_114" d="M190 137V129.5C190 128.837 190.263 128.201 190.732 127.732C191.201 127.263 191.837 127 192.5 127C193.163 127 193.799 127.263 194.268 127.732C194.737 128.201 195 128.837 195 129.5" stroke="black" stroke-width="2" stroke-linecap="round" stroke-linejoin="round"/>
<path id="Vector_115" d="M184 123C184 122.735 184.105 122.48 184.293 122.293C184.48 122.105 184.735 122 185 122C185.248 121.999 185.49 122.068 185.7 122.2L186.633 122.8C186.842 122.934 187.085 123.005 187.333 123.005C187.581 123.005 187.824 122.934 188.033 122.8L188.967 122.2C189.176 122.066 189.419 121.995 189.667 121.995C189.915 121.995 190.158 122.066 190.367 122.2L191.3 122.8C191.509 122.934 191.752 123.005 192 123.005C192.248 123.005 192.491 122.934 192.7 122.8L193.633 122.2C193.842 122.066 194.085 121.995 194.333 121.995C194.581 121.995 194.824 122.066 195.033 122.2L195.967 122.8C196.176 122.934 196.419 123.005 196.667 123.005C196.915 123.005 197.158 122.934 197.367 122.8L198.3 122.2C198.51 122.068 198.752 121.999 199 122C199.265 122 199.52 122.105 199.707 122.293C199.895 122.48 200 122.735 200 123V141C200 141.265 199.895 141.52 199.707 141.707C199.52 141.895 199.265 142 199 142C198.752 142.001 198.51 141.932 198.3 141.8L197.367 141.2C197.158 141.066 196.915 140.995 196.667 140.995C196.419 140.995 196.176 141.066 195.967 141.2L195.033 141.8C194.824 141.934 194.581 142.005 194.333 142.005C194.085 142.005 193.842 141.934 193.633 141.8L192.7 141.2C192.491 141.066 192.248 140.995 192 140.995C191.752 140.995 191.509 141.066 191.3 141.2L190.367 141.8C190.158 141.934 189.915 142.005 189.667 142.005C189.419 142.005 189.176 141.934 188.967 141.8L188.033 141.2C187.824 141.066 187.581 140.995 187.333 140.995C187.085 140.995 186.842 141.066 186.633 141.2L185.7 141.8C185.49 141.932 185.248 142.001 185 142C184.735 142 184.48 141.895 184.293 141.707C184.105 141.52 184 141.265 184 141V123Z" stroke="black" stroke-width="2" stroke-linecap="round" stroke-linejoin="round"/>
<path id="Vector_116" d="M188 133H193" stroke="black" stroke-width="2" stroke-linecap="round" stroke-linejoin="round"/>
<path id="Vector_117" d="M188 137H195" stroke="black" stroke-width="2" stroke-linecap="round" stroke-linejoin="round"/>
</g></svg>
