<svg viewBox="0 0 24 24" fill="none" xmlns="http://www.w3.org/2000/svg"><g transform="translate(-244 -120)">
<path id="Vector_121" d="M254 131H258" stroke="black" stroke-width="2" stroke-linecap="round" stroke-linejoin="round"/>
<path id="Vector_122" d="M254 137V127H259" stroke="black" stroke-width="2" stroke-linecap="round" stroke-linejoin="round"/>
<path id="Vector_123" d="M248 123C248 122.735 248.105 122.48 248.293 122.293C248.48 122.105 248.735 122 249 122C249.248 121.999 249.49 122.068 249.7 122.2L250.633 122.8C250.842 122.934 251.085 123.005 251.333 123.005C251.581 123.005 251.824 122.934 252.033 122.8L252.967 122.2C253.176 122.066 253.419 121.995 253.667 121.995C253.915 121.995 254.158 122.066 254.367 122.2L255.3 122.8C255.509 122.934 255.752 123.005 256 123.005C256.248 123.005 256.491 122.934 256.7 122.8L257.633 122.2C257.842 122.066 258.085 121.995 258.333 121.995C258.581 121.995 258.824 122.066 259.033 122.2L259.967 122.8C260.176 122.934 260.419 123.005 260.667 123.005C260.915 123.005 261.158 122.934 261.367 122.8L262.3 122.2C262.51 122.068 262.752 121.999 263 122C263.265 122 263.52 122.105 263.707 122.293C263.895 122.48 264 122.735 264 123V141C264 141.265 263.895 141.52 263.707 141.707C263.52 141.895 263.265 142 263 142C262.752 142.001 262.51 141.932 262.3 141.8L261.367 141.2C261.158 141.066 260.915 140.995 260.667 140.995C260.419 140.995 260.176 141.066 259.967 141.2L259.033 141.8C258.824 141.934 258.581 142.005 258.333 142.005C258.085 142.005 257.842 141.934 257.633 141.8L256.7 141.2C256.491 141.066 256.248 140.995 256 140.995C255.752 140.995 255.509 141.066 255.3 141.2L254.367 141.8C254.158 141.934 253.915 142.005 253.667 142.005C253.419 142.005 253.176 141.934 252.967 141.8L252.033 141.2C251.824 141.066 251.581 140.995 251.333 140.995C251.085 140.995 250.842 141.066 250.633 141.2L249.7 141.8C249.49 141.932 249.248 142.001 249 142C248.735 142 248.48 141.895 248.293 141.707C248.105 141.52 248 141.265 248 141V123Z" stroke="black" stroke-width="2" stroke-linecap="round" stroke-linejoin="round"/>
<path id="Vector_124" d="M252 135H257" stroke="black" stroke-width="2" stroke-linecap="round" stroke-linejoin="round"/>
</g></svg>
