<svg viewBox="0 0 24 24" fill="none" xmlns="http://www.w3.org/2000/svg"><g transform="translate(-308 -120)">
<path id="Vector_129" d="M318 127V137C319.326 137 320.598 136.473 321.536 135.536C322.473 134.598 323 133.326 323 132" stroke="black" stroke-width="2" stroke-linecap="round" stroke-linejoin="round"/>
<path id="Vector_130" d="M322 128L316 131" stroke="black" stroke-width="2" stroke-linecap="round" stroke-linejoin="round"/>
<path id="Vector_131" d="M312 123C312 122.735 312.105 122.48 312.293 122.293C312.48 122.105 312.735 122 313 122C313.248 121.999 313.49 122.068 313.7 122.2L314.633 122.8C314.842 122.934 315.085 123.005 315.333 123.005C315.581 123.005 315.824 122.934 316.033 122.8L316.967 122.2C317.176 122.066 317.419 121.995 317.667 121.995C317.915 121.995 318.158 122.066 318.367 122.2L319.3 122.8C319.509 122.934 319.752 123.005 320 123.005C320.248 123.005 320.491 122.934 320.7 122.8L321.633 122.2C321.842 122.066 322.085 121.995 322.333 121.995C322.581 121.995 322.824 122.066 323.033 122.2L323.967 122.8C324.176 122.934 324.419 123.005 324.667 123.005C324.915 123.005 325.158 122.934 325.367 122.8L326.3 122.2C326.51 122.068 326.752 121.999 327 122C327.265 122 327.52 122.105 327.707 122.293C327.895 122.48 328 122.735 328 123V141C328 141.265 327.895 141.52 327.707 141.707C327.52 141.895 327.265 142 327 142C326.752 142.001 326.51 141.932 326.3 141.8L325.367 141.2C325.158 141.066 324.915 140.995 324.667 140.995C324.419 140.995 324.176 141.066 323.967 141.2L323.033 141.8C322.824 141.934 322.581 142.005 322.333 142.005C322.085 142.005 321.842 141.934 321.633 141.8L320.7 141.2C320.491 141.066 320.248 140.995 320 140.995C319.752 140.995 319.509 141.066 319.3 141.2L318.367 141.8C318.158 141.934 317.915 142.005 317.667 142.005C317.419 142.005 317.176 141.934 316.967 141.8L316.033 141.2C315.824 141.066 315.581 140.995 315.333 140.995C315.085 140.995 314.842 141.066 314.633 141.2L313.7 141.8C313.49 141.932 313.248 142.001 313 142C312.735 142 312.48 141.895 312.293 141.707C312.105 141.52 312 141.265 312 141V123Z" stroke="black" stroke-width="2" stroke-linecap="round" stroke-linejoin="round"/>
</g></svg>
