<svg viewBox="0 0 24 24" fill="none" xmlns="http://www.w3.org/2000/svg"><g transform="translate(-148 -120)">
<path id="Vector_109" d="M160 130L163 127" stroke="black" stroke-width="2" stroke-linecap="round" stroke-linejoin="round"/>
<path id="Vector_110" d="M152 123C152 122.735 152.105 122.48 152.293 122.293C152.48 122.105 152.735 122 153 122C153.248 121.999 153.49 122.068 153.7 122.2L154.633 122.8C154.842 122.934 155.085 123.005 155.333 123.005C155.581 123.005 155.824 122.934 156.033 122.8L156.967 122.2C157.176 122.066 157.419 121.995 157.667 121.995C157.915 121.995 158.158 122.066 158.367 122.2L159.3 122.8C159.509 122.934 159.752 123.005 160 123.005C160.248 123.005 160.491 122.934 160.7 122.8L161.633 122.2C161.842 122.066 162.085 121.995 162.333 121.995C162.581 121.995 162.824 122.066 163.033 122.2L163.967 122.8C164.176 122.934 164.419 123.005 164.667 123.005C164.915 123.005 165.158 122.934 165.367 122.8L166.3 122.2C166.51 122.068 166.752 121.999 167 122C167.265 122 167.52 122.105 167.707 122.293C167.895 122.48 168 122.735 168 123V141C168 141.265 167.895 141.52 167.707 141.707C167.52 141.895 167.265 142 167 142C166.752 142.001 166.51 141.932 166.3 141.8L165.367 141.2C165.158 141.066 164.915 140.995 164.667 140.995C164.419 140.995 164.176 141.066 163.967 141.2L163.033 141.8C162.824 141.934 162.581 142.005 162.333 142.005C162.085 142.005 161.842 141.934 161.633 141.8L160.7 141.2C160.491 141.066 160.248 140.995 160 140.995C159.752 140.995 159.509 141.066 159.3 141.2L158.367 141.8C158.158 141.934 157.915 142.005 157.667 142.005C157.419 142.005 157.176 141.934 156.967 141.8L156.033 141.2C155.824 141.066 155.581 140.995 155.333 140.995C155.085 140.995 154.842 141.066 154.633 141.2L153.7 141.8C153.49 141.932 153.248 142.001 153 142C152.735 142 152.48 141.895 152.293 141.707C152.105 141.52 152 141.265 152 141V123Z" stroke="black" stroke-width="2" stroke-linecap="round" stroke-linejoin="round"/>
<path id="Vector_111" d="M157 131H163" stroke="black" stroke-width="2" stroke-linecap="round" stroke-linejoin="round"/>
<path id="Vector_112" d="M157 135H163" stroke="black" stroke-width="2" stroke-linecap="round" stroke-linejoin="round"/>
<path id="Vector_113" d="M157 127L160 130V137" stroke="black" stroke-width="2" stroke-linecap="round" stroke-linejoin="round"/>
</g></svg>
