<svg viewBox="0 0 24 24" fill="none" xmlns="http://www.w3.org/2000/svg"><g transform="translate(-116 -120)">
<path id="Vector_105" d="M120 123C120 122.735 120.105 122.48 120.293 122.293C120.48 122.105 120.735 122 121 122C121.248 121.999 121.49 122.068 121.7 122.2L122.633 122.8C122.842 122.934 123.085 123.005 123.333 123.005C123.581 123.005 123.824 122.934 124.033 122.8L124.967 122.2C125.176 122.066 125.419 121.995 125.667 121.995C125.915 121.995 126.158 122.066 126.367 122.2L127.3 122.8C127.509 122.934 127.752 123.005 128 123.005C128.248 123.005 128.491 122.934 128.7 122.8L129.633 122.2C129.842 122.066 130.085 121.995 130.333 121.995C130.581 121.995 130.824 122.066 131.033 122.2L131.967 122.8C132.176 122.934 132.419 123.005 132.667 123.005C132.915 123.005 133.158 122.934 133.367 122.8L134.3 122.2C134.51 122.068 134.752 121.999 135 122C135.265 122 135.52 122.105 135.707 122.293C135.895 122.48 136 122.735 136 123V141C136 141.265 135.895 141.52 135.707 141.707C135.52 141.895 135.265 142 135 142C134.752 142.001 134.51 141.932 134.3 141.8L133.367 141.2C133.158 141.066 132.915 140.995 132.667 140.995C132.419 140.995 132.176 141.066 131.967 141.2L131.033 141.8C130.824 141.934 130.581 142.005 130.333 142.005C130.085 142.005 129.842 141.934 129.633 141.8L128.7 141.2C128.491 141.066 128.248 140.995 128 140.995C127.752 140.995 127.509 141.066 127.3 141.2L126.367 141.8C126.158 141.934 125.915 142.005 125.667 142.005C125.419 142.005 125.176 141.934 124.967 141.8L124.033 141.2C123.824 141.066 123.581 140.995 123.333 140.995C123.085 140.995 122.842 141.066 122.633 141.2L121.7 141.8C121.49 141.932 121.248 142.001 121 142C120.735 142 120.48 141.895 120.293 141.707C120.105 141.52 120 141.265 120 141V123Z" stroke="black" stroke-width="2" stroke-linecap="round" stroke-linejoin="round"/>
<path id="Vector_106" d="M124 131H132" stroke="black" stroke-width="2" stroke-linecap="round" stroke-linejoin="round"/>
<path id="Vector_107" d="M124 127H132" stroke="black" stroke-width="2" stroke-linecap="round" stroke-linejoin="round"/>
<path id="Vector_108" d="M125 127C126.061 127 127.078 127.421 127.828 128.172C128.579 128.922 129 129.939 129 131C129 132.061 128.579 133.078 127.828 133.828C127.078 134.579 126.061 135 125 135H124L127 137" stroke="black" stroke-width="2" stroke-linecap="round" stroke-linejoin="round"/>
</g></svg>
