<svg viewBox="0 0 24 24" fill="none" xmlns="http://www.w3.org/2000/svg"><g transform="translate(-276 -120)">
<path id="Vector_125" d="M289 136H284" stroke="black" stroke-width="2" stroke-linecap="round" stroke-linejoin="round"/>
<path id="Vector_126" d="M290 128H284" stroke="black" stroke-width="2" stroke-linecap="round" stroke-linejoin="round"/>
<path id="Vector_127" d="M292 132H284" stroke="black" stroke-width="2" stroke-linecap="round" stroke-linejoin="round"/>
<path id="Vector_128" d="M280 123C280 122.735 280.105 122.48 280.293 122.293C280.48 122.105 280.735 122 281 122C281.248 121.999 281.49 122.068 281.7 122.2L282.633 122.8C282.842 122.934 283.085 123.005 283.333 123.005C283.581 123.005 283.824 122.934 284.033 122.8L284.967 122.2C285.176 122.066 285.419 121.995 285.667 121.995C285.915 121.995 286.158 122.066 286.367 122.2L287.3 122.8C287.509 122.934 287.752 123.005 288 123.005C288.248 123.005 288.491 122.934 288.7 122.8L289.633 122.2C289.842 122.066 290.085 121.995 290.333 121.995C290.581 121.995 290.824 122.066 291.033 122.2L291.967 122.8C292.176 122.934 292.419 123.005 292.667 123.005C292.915 123.005 293.158 122.934 293.367 122.8L294.3 122.2C294.51 122.068 294.752 121.999 295 122C295.265 122 295.52 122.105 295.707 122.293C295.895 122.48 296 122.735 296 123V141C296 141.265 295.895 141.52 295.707 141.707C295.52 141.895 295.265 142 295 142C294.752 142.001 294.51 141.932 294.3 141.8L293.367 141.2C293.158 141.066 292.915 140.995 292.667 140.995C292.419 140.995 292.176 141.066 291.967 141.2L291.033 141.8C290.824 141.934 290.581 142.005 290.333 142.005C290.085 142.005 289.842 141.934 289.633 141.8L288.7 141.2C288.491 141.066 288.248 140.995 288 140.995C287.752 140.995 287.509 141.066 287.3 141.2L286.367 141.8C286.158 141.934 285.915 142.005 285.667 142.005C285.419 142.005 285.176 141.934 284.967 141.8L284.033 141.2C283.824 141.066 283.581 140.995 283.333 140.995C283.085 140.995 282.842 141.066 282.633 141.2L281.7 141.8C281.49 141.932 281.248 142.001 281 142C280.735 142 280.48 141.895 280.293 141.707C280.105 141.52 280 141.265 280 141V123Z" stroke="black" stroke-width="2" stroke-linecap="round" stroke-linejoin="round"/>
</g></svg>
