<svg viewBox="0 0 24 24" fill="none" xmlns="http://www.w3.org/2000/svg"><g transform="translate(-52 -120)">
<path id="Vector_99" d="M64 127V137" stroke="black" stroke-width="2" stroke-linecap="round" stroke-linejoin="round"/>
<path id="Vector_100" d="M66.8276 134.829C66.0775 135.579 65.0603 136 63.9996 136C62.939 136 61.9218 135.579 61.1716 134.829C60.8002 134.458 60.5055 134.017 60.3045 133.531C60.1035 133.046 60 132.526 60 132C60 131.475 60.1035 130.955 60.3045 130.47C60.5055 129.984 60.8002 129.543 61.1716 129.172C61.9218 128.422 62.939 128.001 63.9996 128.001C65.0603 128.001 66.0775 128.422 66.8276 129.172" stroke="black" stroke-width="2" stroke-linecap="round" stroke-linejoin="round"/>
<path id="Vector_101" d="M56 123C56 122.735 56.1054 122.48 56.2929 122.293C56.4804 122.105 56.7348 122 57 122C57.2476 121.999 57.4905 122.068 57.7 122.2L58.633 122.8C58.842 122.934 59.0849 123.005 59.333 123.005C59.5811 123.005 59.824 122.934 60.033 122.8L60.967 122.2C61.176 122.066 61.4189 121.995 61.667 121.995C61.9151 121.995 62.158 122.066 62.367 122.2L63.3 122.8C63.509 122.934 63.7519 123.005 64 123.005C64.2481 123.005 64.491 122.934 64.7 122.8L65.633 122.2C65.842 122.066 66.0849 121.995 66.333 121.995C66.5811 121.995 66.824 122.066 67.033 122.2L67.967 122.8C68.176 122.934 68.4189 123.005 68.667 123.005C68.9151 123.005 69.158 122.934 69.367 122.8L70.3 122.2C70.5095 122.068 70.7524 121.999 71 122C71.2652 122 71.5196 122.105 71.7071 122.293C71.8946 122.48 72 122.735 72 123V141C72 141.265 71.8946 141.52 71.7071 141.707C71.5196 141.895 71.2652 142 71 142C70.7524 142.001 70.5095 141.932 70.3 141.8L69.367 141.2C69.158 141.066 68.9151 140.995 68.667 140.995C68.4189 140.995 68.176 141.066 67.967 141.2L67.033 141.8C66.824 141.934 66.5811 142.005 66.333 142.005C66.0849 142.005 65.842 141.934 65.633 141.8L64.7 141.2C64.491 141.066 64.2481 140.995 64 140.995C63.7519 140.995 63.509 141.066 63.3 141.2L62.367 141.8C62.158 141.934 61.9151 142.005 61.667 142.005C61.4189 142.005 61.176 141.934 60.967 141.8L60.033 141.2C59.824 141.066 59.5811 140.995 59.333 140.995C59.0849 140.995 58.842 141.066 58.633 141.2L57.7 141.8C57.4905 141.932 57.2476 142.001 57 142C56.7348 142 56.4804 141.895 56.2929 141.707C56.1054 141.52 56 141.265 56 141V123Z" stroke="black" stroke-width="2" stroke-linecap="round" stroke-linejoin="round"/>
</g></svg>
