<svg viewBox="0 0 24 24" fill="none" xmlns="http://www.w3.org/2000/svg"><g transform="translate(-212 -120)">
<path id="Vector_118" d="M216 123C216 122.735 216.105 122.48 216.293 122.293C216.48 122.105 216.735 122 217 122C217.248 121.999 217.49 122.068 217.7 122.2L218.633 122.8C218.842 122.934 219.085 123.005 219.333 123.005C219.581 123.005 219.824 122.934 220.033 122.8L220.967 122.2C221.176 122.066 221.419 121.995 221.667 121.995C221.915 121.995 222.158 122.066 222.367 122.2L223.3 122.8C223.509 122.934 223.752 123.005 224 123.005C224.248 123.005 224.491 122.934 224.7 122.8L225.633 122.2C225.842 122.066 226.085 121.995 226.333 121.995C226.581 121.995 226.824 122.066 227.033 122.2L227.967 122.8C228.176 122.934 228.419 123.005 228.667 123.005C228.915 123.005 229.158 122.934 229.367 122.8L230.3 122.2C230.51 122.068 230.752 121.999 231 122C231.265 122 231.52 122.105 231.707 122.293C231.895 122.48 232 122.735 232 123V141C232 141.265 231.895 141.52 231.707 141.707C231.52 141.895 231.265 142 231 142C230.752 142.001 230.51 141.932 230.3 141.8L229.367 141.2C229.158 141.066 228.915 140.995 228.667 140.995C228.419 140.995 228.176 141.066 227.967 141.2L227.033 141.8C226.824 141.934 226.581 142.005 226.333 142.005C226.085 142.005 225.842 141.934 225.633 141.8L224.7 141.2C224.491 141.066 224.248 140.995 224 140.995C223.752 140.995 223.509 141.066 223.3 141.2L222.367 141.8C222.158 141.934 221.915 142.005 221.667 142.005C221.419 142.005 221.176 141.934 220.967 141.8L220.033 141.2C219.824 141.066 219.581 140.995 219.333 140.995C219.085 140.995 218.842 141.066 218.633 141.2L217.7 141.8C217.49 141.932 217.248 142.001 217 142C216.735 142 216.48 141.895 216.293 141.707C216.105 141.52 216 141.265 216 141V123Z" stroke="black" stroke-width="2" stroke-linecap="round" stroke-linejoin="round"/>
<path id="Vector_119" d="M220 131H225C225.53 131 226.039 130.789 226.414 130.414C226.789 130.039 227 129.53 227 129C227 128.47 226.789 127.961 226.414 127.586C226.039 127.211 225.53 127 225 127H222V137" stroke="black" stroke-width="2" stroke-linecap="round" stroke-linejoin="round"/>
<path id="Vector_120" d="M220 135H225" stroke="black" stroke-width="2" stroke-linecap="round" stroke-linejoin="round"/>
</g></svg>
