<svg viewBox="0 0 24 24" fill="none" xmlns="http://www.w3.org/2000/svg"><g transform="translate(-84 -216)">
<path id="Vector_179" d="M104 222C104.53 222 105.039 222.211 105.414 222.586C105.789 222.961 106 223.47 106 224V232C106 232.53 105.789 233.039 105.414 233.414C105.039 233.789 104.53 234 104 234H100C99.6895 234 99.3833 233.928 99.1056 233.789C98.8279 233.65 98.5863 233.448 98.4 233.2L96.8 231.07C96.7069 230.946 96.5861 230.845 96.4472 230.776C96.3084 230.706 96.1552 230.67 96 230.67C95.8448 230.67 95.6916 230.706 95.5528 230.776C95.4139 230.845 95.2931 230.946 95.2 231.07L93.6 233.2C93.4137 233.448 93.1721 233.65 92.8944 233.789C92.6167 233.928 92.3105 234 92 234H88C87.4696 234 86.9609 233.789 86.5858 233.414C86.2107 233.039 86 232.53 86 232V224C86 223.47 86.2107 222.961 86.5858 222.586C86.9609 222.211 87.4696 222 88 222H104Z" stroke="black" stroke-width="2" stroke-linecap="round" stroke-linejoin="round"/>
</g></svg>
