<svg viewBox="0 0 24 24" fill="none" xmlns="http://www.w3.org/2000/svg"><g transform="translate(-84 -152)">
<path id="Vector_142" d="M90.9998 171H88.8148C88.4993 171.001 88.189 170.92 87.9139 170.766C87.6389 170.612 87.4083 170.389 87.2448 170.119C87.0877 169.848 87.0046 169.541 87.0039 169.228C87.0032 168.914 87.0849 168.607 87.2408 168.335L91.1958 161.5" stroke="black" stroke-width="2" stroke-linecap="round" stroke-linejoin="round"/>
<path id="Vector_143" d="M95 171H103.203C103.517 170.998 103.825 170.915 104.097 170.759C104.37 170.603 104.598 170.379 104.759 170.11C104.914 169.84 104.995 169.534 104.995 169.223C104.995 168.911 104.914 168.605 104.759 168.335L103.533 166.215" stroke="black" stroke-width="2" stroke-linecap="round" stroke-linejoin="round"/>
<path id="Vector_144" d="M98 168L95 171L98 174" stroke="black" stroke-width="2" stroke-linecap="round" stroke-linejoin="round"/>
<path id="Vector_145" d="M92.2926 165.596L91.1956 161.5L87.0996 162.598" stroke="black" stroke-width="2" stroke-linecap="round" stroke-linejoin="round"/>
<path id="Vector_146" d="M93.3438 157.811L94.4368 155.919C94.5937 155.645 94.8187 155.417 95.0899 155.256C95.3612 155.095 95.6694 155.007 95.9847 155C96.2977 154.999 96.6053 155.081 96.8766 155.237C97.148 155.393 97.3736 155.617 97.5308 155.888L101.474 162.731" stroke="black" stroke-width="2" stroke-linecap="round" stroke-linejoin="round"/>
<path id="Vector_147" d="M97.3779 161.633L101.474 162.731L102.571 158.635" stroke="black" stroke-width="2" stroke-linecap="round" stroke-linejoin="round"/>
</g></svg>
