<svg viewBox="0 0 24 24" fill="none" xmlns="http://www.w3.org/2000/svg"><g transform="translate(-372 -280)">
<path id="Vector_401" d="M393 292C393 289.613 392.052 287.324 390.364 285.636C388.676 283.948 386.387 283 384 283C381.484 283.009 379.069 283.991 377.26 285.74L375 288" stroke="black" stroke-width="2" stroke-linecap="round" stroke-linejoin="round"/>
<path id="Vector_402" d="M375 283V288H380" stroke="black" stroke-width="2" stroke-linecap="round" stroke-linejoin="round"/>
<path id="Vector_403" d="M375 292C375 294.387 375.948 296.676 377.636 298.364C379.324 300.052 381.613 301 384 301C386.516 300.991 388.931 300.009 390.74 298.26L393 296" stroke="black" stroke-width="2" stroke-linecap="round" stroke-linejoin="round"/>
<path id="Vector_404" d="M388 296H393V301" stroke="black" stroke-width="2" stroke-linecap="round" stroke-linejoin="round"/>
<path id="Vector_405" d="M384 293C384.552 293 385 292.552 385 292C385 291.448 384.552 291 384 291C383.448 291 383 291.448 383 292C383 292.552 383.448 293 384 293Z" stroke="black" stroke-width="2" stroke-linecap="round" stroke-linejoin="round"/>
</g></svg>
