<svg viewBox="0 0 24 24" fill="none" xmlns="http://www.w3.org/2000/svg"><g transform="translate(-52 -312)">
<path id="Vector_410" d="M72.9999 320L70.7399 317.74C68.9309 315.991 66.5159 315.009 63.9999 315C62.9999 315 62.0299 315.16 61.1299 315.47" stroke="black" stroke-width="2" stroke-linecap="round" stroke-linejoin="round"/>
<path id="Vector_411" d="M60 328H55V333" stroke="black" stroke-width="2" stroke-linecap="round" stroke-linejoin="round"/>
<path id="Vector_412" d="M55 324C55 321.51 56 319.26 57.64 317.64" stroke="black" stroke-width="2" stroke-linecap="round" stroke-linejoin="round"/>
<path id="Vector_413" d="M55 328L57.26 330.26C59.069 332.009 61.484 332.991 64 333C66.49 333 68.74 332 70.36 330.36" stroke="black" stroke-width="2" stroke-linecap="round" stroke-linejoin="round"/>
<path id="Vector_414" d="M73.0003 324C73.0003 325 72.8403 325.97 72.5303 326.87" stroke="black" stroke-width="2" stroke-linecap="round" stroke-linejoin="round"/>
<path id="Vector_415" d="M73 315V320H68" stroke="black" stroke-width="2" stroke-linecap="round" stroke-linejoin="round"/>
<path id="Vector_416" d="M74 334L54 314" stroke="black" stroke-width="2" stroke-linecap="round" stroke-linejoin="round"/>
</g></svg>
