<svg viewBox="0 0 24 24" fill="none" xmlns="http://www.w3.org/2000/svg"><g transform="translate(-212 -88)">
<path id="Vector_78" d="M217 94C217 92.9391 217.421 91.9217 218.172 91.1716C218.922 90.4214 219.939 90 221 90H227C228.061 90 229.078 90.4214 229.828 91.1716C230.579 91.9217 231 92.9391 231 94V108C231 108.53 230.789 109.039 230.414 109.414C230.039 109.789 229.53 110 229 110H219C218.47 110 217.961 109.789 217.586 109.414C217.211 109.039 217 108.53 217 108V94Z" stroke="black" stroke-width="2" stroke-linecap="round" stroke-linejoin="round"/>
<path id="Vector_79" d="M217 98H231" stroke="black" stroke-width="2" stroke-linecap="round" stroke-linejoin="round"/>
<path id="Vector_80" d="M227 95V101" stroke="black" stroke-width="2" stroke-linecap="round" stroke-linejoin="round"/>
</g></svg>
