<svg viewBox="0 0 24 24" fill="none" xmlns="http://www.w3.org/2000/svg"><g transform="translate(-84 -152)">
<path id="Vector_221" d="M101 155V165" stroke="black" stroke-width="2" stroke-linecap="round" stroke-linejoin="round"/>
<path id="Vector_222" d="M96.6699 157.5L105.33 162.5" stroke="black" stroke-width="2" stroke-linecap="round" stroke-linejoin="round"/>
<path id="Vector_223" d="M96.6699 162.5L105.33 157.5" stroke="black" stroke-width="2" stroke-linecap="round" stroke-linejoin="round"/>
<path id="Vector_224" d="M93 169C93 168.47 92.7893 167.961 92.4142 167.586C92.0391 167.211 91.5304 167 91 167H89C88.4696 167 87.9609 167.211 87.5858 167.586C87.2107 167.961 87 168.47 87 169V171C87 171.53 87.2107 172.039 87.5858 172.414C87.9609 172.789 88.4696 173 89 173H91C91.5304 173 92.0391 172.789 92.4142 172.414C92.7893 172.039 93 171.53 93 171V169Z" stroke="black" stroke-width="2" stroke-linecap="round" stroke-linejoin="round"/>
</g></svg>
