<svg viewBox="0 0 24 24" fill="none" xmlns="http://www.w3.org/2000/svg"><g transform="translate(-212 -56)">
<path id="Vector_7" d="M224 60.5C219 60.5 214.73 63.61 213 68C214.73 72.39 219 75.5 224 75.5C229 75.5 233.27 72.39 235 68C233.27 63.61 229 60.5 224 60.5ZM224 73C221.24 73 219 70.76 219 68C219 65.24 221.24 63 224 63C226.76 63 229 65.24 229 68C229 70.76 226.76 73 224 73ZM224 65C222.34 65 221 66.34 221 68C221 69.66 222.34 71 224 71C225.66 71 227 69.66 227 68C227 66.34 225.66 65 224 65Z" fill="black" fill-opacity="0.56"/>
</g></svg>
