<svg viewBox="0 0 24 24" fill="none" xmlns="http://www.w3.org/2000/svg"><g transform="translate(-84 -312)">
<path id="Vector_417" d="M98 316C98 315.735 98.1054 315.48 98.2929 315.293C98.4804 315.105 98.7348 315 99 315" stroke="black" stroke-width="2" stroke-linecap="round" stroke-linejoin="round"/>
<path id="Vector_418" d="M99 322C98.7348 322 98.4804 321.895 98.2929 321.707C98.1054 321.52 98 321.265 98 321" stroke="black" stroke-width="2" stroke-linecap="round" stroke-linejoin="round"/>
<path id="Vector_419" d="M105 316C105 315.735 104.895 315.48 104.707 315.293C104.52 315.105 104.265 315 104 315" stroke="black" stroke-width="2" stroke-linecap="round" stroke-linejoin="round"/>
<path id="Vector_420" d="M105 321C105 321.265 104.895 321.52 104.707 321.707C104.52 321.895 104.265 322 104 322" stroke="black" stroke-width="2" stroke-linecap="round" stroke-linejoin="round"/>
<path id="Vector_421" d="M87 319L90 322L93 319" stroke="black" stroke-width="2" stroke-linecap="round" stroke-linejoin="round"/>
<path id="Vector_422" d="M90 322V317C90 316.47 90.2107 315.961 90.5858 315.586C90.9609 315.211 91.4696 315 92 315H94" stroke="black" stroke-width="2" stroke-linecap="round" stroke-linejoin="round"/>
<path id="Vector_423" d="M93 326H88C87.4477 326 87 326.448 87 327V332C87 332.552 87.4477 333 88 333H93C93.5523 333 94 332.552 94 332V327C94 326.448 93.5523 326 93 326Z" stroke="black" stroke-width="2" stroke-linecap="round" stroke-linejoin="round"/>
</g></svg>
