<svg viewBox="0 0 24 24" fill="none" xmlns="http://www.w3.org/2000/svg"><g transform="translate(-116 -312)">
<path id="Vector_424" d="M130 326C130.265 326 130.52 326.105 130.707 326.293C130.895 326.48 131 326.735 131 327V332C131 332.265 130.895 332.52 130.707 332.707C130.52 332.895 130.265 333 130 333" stroke="black" stroke-width="2" stroke-linecap="round" stroke-linejoin="round"/>
<path id="Vector_425" d="M130 316C130 315.735 130.105 315.48 130.293 315.293C130.48 315.105 130.735 315 131 315" stroke="black" stroke-width="2" stroke-linecap="round" stroke-linejoin="round"/>
<path id="Vector_426" d="M131 322C130.735 322 130.48 321.895 130.293 321.707C130.105 321.52 130 321.265 130 321" stroke="black" stroke-width="2" stroke-linecap="round" stroke-linejoin="round"/>
<path id="Vector_427" d="M135 326C135.265 326 135.52 326.105 135.707 326.293C135.895 326.48 136 326.735 136 327V332C136 332.265 135.895 332.52 135.707 332.707C135.52 332.895 135.265 333 135 333" stroke="black" stroke-width="2" stroke-linecap="round" stroke-linejoin="round"/>
<path id="Vector_428" d="M137 316C137 315.735 136.895 315.48 136.707 315.293C136.52 315.105 136.265 315 136 315" stroke="black" stroke-width="2" stroke-linecap="round" stroke-linejoin="round"/>
<path id="Vector_429" d="M137 321C137 321.265 136.895 321.52 136.707 321.707C136.52 321.895 136.265 322 136 322" stroke="black" stroke-width="2" stroke-linecap="round" stroke-linejoin="round"/>
<path id="Vector_430" d="M119 319L122 322L125 319" stroke="black" stroke-width="2" stroke-linecap="round" stroke-linejoin="round"/>
<path id="Vector_431" d="M122 322V317C122 316.47 122.211 315.961 122.586 315.586C122.961 315.211 123.47 315 124 315H126" stroke="black" stroke-width="2" stroke-linecap="round" stroke-linejoin="round"/>
<path id="Vector_432" d="M125 326H120C119.448 326 119 326.448 119 327V332C119 332.552 119.448 333 120 333H125C125.552 333 126 332.552 126 332V327C126 326.448 125.552 326 125 326Z" stroke="black" stroke-width="2" stroke-linecap="round" stroke-linejoin="round"/>
</g></svg>
