<svg viewBox="0 0 24 24" fill="none" xmlns="http://www.w3.org/2000/svg"><g transform="translate(-276 -56)">
<path id="Union" fill-rule="evenodd" clip-rule="evenodd" d="M288.01 60C285.8 60 283.81 60.9 282.36 62.35L280.01 60V67H287.01L283.79 63.78C284.87 62.69 286.35 62 288.01 62C291.32 62 294.01 64.69 294.01 68C294.01 71.31 291.32 74 288.01 74C285.4 74 283.18 72.33 282.36 70H280.28C281.17 73.45 284.28 76 288.01 76C292.43 76 296 72.42 296 68C296 63.58 292.43 60 288.01 60ZM288.5 70C289.328 70 290 69.3284 290 68.5C290 67.6716 289.328 67 288.5 67C287.671 67 287 67.6716 287 68.5C287 69.3284 287.671 70 288.5 70Z" fill="black" fill-opacity="0.54"/>
</g></svg>
