<svg viewBox="0 0 24 24" fill="none" xmlns="http://www.w3.org/2000/svg"><g transform="translate(-244 -184)">
<path id="Vector_218" d="M256 190C255.999 189.605 255.882 189.218 255.662 188.889C255.443 188.56 255.13 188.304 254.765 188.153C254.399 188.001 253.997 187.962 253.61 188.039C253.222 188.116 252.865 188.306 252.586 188.586L246.586 194.586C246.211 194.961 246 195.47 246 196C246 196.53 246.211 197.039 246.586 197.414L252.586 203.414C252.865 203.694 253.222 203.884 253.61 203.961C253.997 204.038 254.399 203.999 254.765 203.847C255.13 203.696 255.443 203.44 255.662 203.111C255.882 202.782 255.999 202.396 256 202V190Z" stroke="black" stroke-width="2" stroke-linecap="round" stroke-linejoin="round"/>
<path id="Vector_219" d="M266 190C265.999 189.605 265.882 189.218 265.662 188.889C265.443 188.56 265.13 188.304 264.765 188.153C264.399 188.001 263.997 187.962 263.61 188.039C263.222 188.116 262.865 188.306 262.586 188.586L256.586 194.586C256.211 194.961 256 195.47 256 196C256 196.53 256.211 197.039 256.586 197.414L262.586 203.414C262.865 203.694 263.222 203.884 263.61 203.961C263.997 204.038 264.399 203.999 264.765 203.847C265.13 203.696 265.443 203.44 265.662 203.111C265.882 202.782 265.999 202.396 266 202V190Z" stroke="black" stroke-width="2" stroke-linecap="round" stroke-linejoin="round"/>
</g></svg>
