<svg viewBox="0 0 24 24" fill="none" xmlns="http://www.w3.org/2000/svg"><g transform="translate(-20 -88)">
<path id="Vector_48" d="M32 99.22C31 97.997 30 97 30 96C30 95.4696 30.2107 94.9609 30.5858 94.5858C30.9609 94.2107 31.4696 94 32 94C32.5304 94 33.0391 94.2107 33.4142 94.5858C33.7893 94.9609 34 95.4696 34 96C34 97 33.002 98.002 31.99 99.22" stroke="black" stroke-width="2" stroke-linecap="round" stroke-linejoin="round"/>
<path id="Vector_49" d="M32 106L34.57 102.5" stroke="black" stroke-width="2" stroke-linecap="round" stroke-linejoin="round"/>
<path id="Vector_50" d="M26.2432 97.016C26.8867 96.0859 27.746 95.3255 28.7476 94.8C29.7492 94.2745 30.8632 93.9995 31.9943 93.9987C33.1254 93.9978 34.2398 94.271 35.2422 94.7949C36.2447 95.3188 37.1052 96.0779 37.7502 97.007" stroke="black" stroke-width="2" stroke-linecap="round" stroke-linejoin="round"/>
<path id="Vector_51" d="M29.3496 102.53L31.9996 99.22" stroke="black" stroke-width="2" stroke-linecap="round" stroke-linejoin="round"/>
<path id="Vector_52" d="M29.35 102.53C27.728 100.246 26 98.221 26 95C26 93.6739 26.6321 92.4021 27.7573 91.4645C28.8826 90.5268 30.4087 90 32 90C33.5913 90 35.1174 90.5268 36.2426 91.4645C37.3678 92.4021 38 93.6739 38 95C37.995 98.22 36.222 100.235 34.57 102.5L38.127 107.027C38.2103 107.133 38.2714 107.255 38.3064 107.385C38.3414 107.516 38.3497 107.652 38.3307 107.785C38.3117 107.919 38.2659 108.047 38.196 108.163C38.1261 108.278 38.0336 108.378 37.924 108.457L36.03 109.817C35.8171 109.97 35.5528 110.032 35.2941 109.992C35.0353 109.952 34.8026 109.812 34.646 109.602L32 106L29.321 109.593C29.164 109.804 28.93 109.945 28.6697 109.985C28.4095 110.025 28.1441 109.961 27.931 109.806L26.066 108.453C25.9575 108.374 25.866 108.275 25.7969 108.16C25.7277 108.045 25.6823 107.918 25.6634 107.785C25.6444 107.652 25.6523 107.517 25.6866 107.388C25.7209 107.258 25.7809 107.137 25.863 107.031L29.35 102.53Z" stroke="black" stroke-width="2" stroke-linecap="round" stroke-linejoin="round"/>
</g></svg>
