<svg viewBox="0 0 24 24" fill="none" xmlns="http://www.w3.org/2000/svg"><g transform="translate(-372 -88)">
<path id="Vector_122" d="M384 105V109" stroke="black" stroke-width="2" stroke-linecap="round" stroke-linejoin="round"/>
<path id="Vector_123" d="M384 93V91" stroke="black" stroke-width="2" stroke-linecap="round" stroke-linejoin="round"/>
<path id="Vector_124" d="M384 97V100" stroke="black" stroke-width="2" stroke-linecap="round" stroke-linejoin="round"/>
<path id="Vector_125" d="M374.077 106.449C373.992 106.747 373.977 107.06 374.034 107.365C374.09 107.669 374.216 107.957 374.403 108.204C374.589 108.451 374.831 108.652 375.108 108.79C375.385 108.928 375.691 109 376 109H392C392.31 109 392.616 108.928 392.893 108.79C393.17 108.652 393.412 108.452 393.598 108.205C393.785 107.957 393.911 107.67 393.968 107.366C394.024 107.061 394.01 106.748 393.924 106.45L389.924 92.45C389.805 92.032 389.552 91.6644 389.205 91.4028C388.858 91.1412 388.435 90.9998 388 91H380C379.566 90.9998 379.143 91.1412 378.796 91.4028C378.448 91.6644 378.196 92.032 378.076 92.45L374.077 106.449Z" stroke="black" stroke-width="2" stroke-linecap="round" stroke-linejoin="round"/>
</g></svg>
