<svg viewBox="0 0 24 24" fill="none" xmlns="http://www.w3.org/2000/svg"><g transform="translate(-20 -120)">
<path id="Vector_126" d="M32 135V140C32 140 35.03 139.45 36 138C37.08 136.38 36 133 36 133" stroke="black" stroke-width="2" stroke-linecap="round" stroke-linejoin="round"/>
<path id="Vector_127" d="M22.5 141.5C22.5 141.5 23 137.76 24.5 136.5C24.9109 136.154 25.4352 135.971 25.9722 135.988C26.5093 136.005 27.0213 136.219 27.41 136.59C28.2 137.37 28.21 138.66 27.5 139.5C26.24 141 22.5 141.5 22.5 141.5Z" stroke="black" stroke-width="2" stroke-linecap="round" stroke-linejoin="round"/>
<path id="Vector_128" d="M29 132C29.5321 130.619 30.2022 129.296 31 128.05C32.1652 126.187 33.7876 124.653 35.713 123.594C37.6384 122.535 39.8027 121.986 42 122C42 124.72 41.22 129.5 36 133C34.7367 133.798 33.3967 134.468 32 135L29 132Z" stroke="black" stroke-width="2" stroke-linecap="round" stroke-linejoin="round"/>
<path id="Vector_129" d="M29 132H24C24 132 24.55 128.97 26 128C27.62 126.92 31 128.05 31 128.05" stroke="black" stroke-width="2" stroke-linecap="round" stroke-linejoin="round"/>
</g></svg>
