<svg viewBox="0 0 24 24" fill="none" xmlns="http://www.w3.org/2000/svg"><g transform="translate(-244 -88)">
<path id="Vector_99" d="M250 107V93" stroke="black" stroke-width="2" stroke-linecap="round" stroke-linejoin="round"/>
<path id="Vector_100" d="M254 107V94.8" stroke="black" stroke-width="2" stroke-linecap="round" stroke-linejoin="round"/>
<path id="Vector_101" d="M258 107V99.2" stroke="black" stroke-width="2" stroke-linecap="round" stroke-linejoin="round"/>
<path id="Vector_102" d="M262 93V97" stroke="black" stroke-width="2" stroke-linecap="round" stroke-linejoin="round"/>
<path id="Vector_103" d="M262 107V101" stroke="black" stroke-width="2" stroke-linecap="round" stroke-linejoin="round"/>
<path id="Vector_104" d="M266 107V97" stroke="black" stroke-width="2" stroke-linecap="round" stroke-linejoin="round"/>
<path id="Vector_105" d="M246 107V97C246 95.9391 246.421 94.9217 247.172 94.1716C247.922 93.4214 248.939 93 250 93C252 93 254 94.33 256 97C258 99.67 260 101 262 101C262.668 100.999 263.325 100.831 263.912 100.512C264.498 100.192 264.995 99.73 265.357 99.1687C265.719 98.6074 265.935 97.9644 265.985 97.2982C266.035 96.6321 265.917 95.964 265.642 95.3551C265.368 94.7462 264.945 94.2158 264.413 93.8123C263.88 93.4087 263.255 93.145 262.595 93.045C261.934 92.9451 261.259 93.0121 260.631 93.2401C260.003 93.468 259.443 93.8496 259 94.35" stroke="black" stroke-width="2" stroke-linecap="round" stroke-linejoin="round"/>
</g></svg>
