<svg viewBox="0 0 24 24" fill="none" xmlns="http://www.w3.org/2000/svg"><g transform="translate(-116 -152)">
<path id="Vector_148" d="M133 162H132C131.209 162 130.436 161.765 129.778 161.326C129.12 160.886 128.607 160.262 128.304 159.531C128.002 158.8 127.923 157.996 128.077 157.22C128.231 156.444 128.612 155.731 129.172 155.172C129.731 154.612 130.444 154.231 131.22 154.077C131.996 153.923 132.8 154.002 133.531 154.304C134.262 154.607 134.886 155.12 135.326 155.778C135.765 156.436 136 157.209 136 158V158.534" stroke="black" stroke-width="2" stroke-linecap="round" stroke-linejoin="round"/>
<path id="Vector_149" d="M133 158H134C134.936 158 135.843 158.328 136.562 158.927C137.281 159.526 137.767 160.358 137.936 161.278C138.105 162.199 137.946 163.149 137.486 163.965C137.026 164.78 136.295 165.408 135.42 165.74L133.13 166.61C131.74 167.139 130.202 167.133 128.816 166.593C127.43 166.052 126.295 165.016 125.629 163.685C124.964 162.355 124.817 160.824 125.216 159.391C125.616 157.958 126.534 156.725 127.791 155.93L129.86 154.62" stroke="black" stroke-width="2" stroke-linecap="round" stroke-linejoin="round"/>
<path id="Vector_150" d="M126 169.8C124.9 169 123.3 168.5 120.5 169C121.2 171.3 122.3 172.6 123.5 173.2C124.8 173.9 126.3 173.9 128.3 173.5C127.8 172 127.1 170.6 126 169.8Z" stroke="black" stroke-width="2" stroke-linecap="round" stroke-linejoin="round"/>
<path id="Vector_151" d="M125.77 164C120 167 118 174 118 174" stroke="black" stroke-width="2" stroke-linecap="round" stroke-linejoin="round"/>
<path id="Vector_152" d="M133 162C134.105 162 135 161.105 135 160C135 158.895 134.105 158 133 158C131.895 158 131 158.895 131 160C131 161.105 131.895 162 133 162Z" stroke="black" stroke-width="2" stroke-linecap="round" stroke-linejoin="round"/>
</g></svg>
