<svg viewBox="0 0 24 24" fill="none" xmlns="http://www.w3.org/2000/svg"><g transform="translate(-148 -248)">
<path id="Vector_273" d="M160 253H154C153.47 253 152.961 253.211 152.586 253.586C152.211 253.961 152 254.47 152 255V258" stroke="black" stroke-width="2" stroke-linecap="round" stroke-linejoin="round"/>
<path id="Vector_274" d="M157 256L160 253L157 250" stroke="black" stroke-width="2" stroke-linecap="round" stroke-linejoin="round"/>
<path id="Vector_275" d="M152 262V266C152 266.53 152.211 267.039 152.586 267.414C152.961 267.789 153.47 268 154 268H166C166.53 268 167.039 267.789 167.414 267.414C167.789 267.039 168 266.53 168 266V255C168 254.47 167.789 253.961 167.414 253.586C167.039 253.211 166.53 253 166 253H164" stroke="black" stroke-width="2" stroke-linecap="round" stroke-linejoin="round"/>
</g></svg>
