<svg viewBox="0 0 24 24" fill="none" xmlns="http://www.w3.org/2000/svg"><g transform="translate(-52 -248)">
<path id="Vector_263" d="M64 255V261" stroke="black" stroke-width="2" stroke-linecap="round" stroke-linejoin="round"/>
<path id="Vector_264" d="M64 257H66" stroke="black" stroke-width="2" stroke-linecap="round" stroke-linejoin="round"/>
<path id="Vector_265" d="M55 260C55 261.78 55.5278 263.52 56.5168 265C57.5057 266.48 58.9113 267.634 60.5558 268.315C62.2004 268.996 64.01 269.174 65.7558 268.827C67.5016 268.48 69.1053 267.623 70.364 266.364C71.6226 265.105 72.4798 263.502 72.8271 261.756C73.1743 260.01 72.9961 258.2 72.3149 256.556C71.6337 254.911 70.4802 253.506 69.0001 252.517C67.5201 251.528 65.78 251 64 251C61.4837 251.008 59.0684 251.99 57.26 253.74L55 256" stroke="black" stroke-width="2" stroke-linecap="round" stroke-linejoin="round"/>
<path id="Vector_266" d="M55 251V256H60" stroke="black" stroke-width="2" stroke-linecap="round" stroke-linejoin="round"/>
<path id="Vector_267" d="M64 265C65.1046 265 66 264.105 66 263C66 261.895 65.1046 261 64 261C62.8954 261 62 261.895 62 263C62 264.105 62.8954 265 64 265Z" stroke="black" stroke-width="2" stroke-linecap="round" stroke-linejoin="round"/>
</g></svg>
