<svg viewBox="0 0 24 24" fill="none" xmlns="http://www.w3.org/2000/svg"><g transform="translate(-20 -248)">
<path id="Vector_261" d="M23 260C23 261.78 23.5278 263.52 24.5168 265C25.5057 266.48 26.9113 267.634 28.5558 268.315C30.2004 268.996 32.01 269.174 33.7558 268.827C35.5016 268.48 37.1053 267.623 38.364 266.364C39.6226 265.105 40.4798 263.502 40.8271 261.756C41.1743 260.01 40.9961 258.2 40.3149 256.556C39.6337 254.911 38.4802 253.506 37.0001 252.517C35.5201 251.528 33.78 251 32 251C29.484 251.009 27.069 251.991 25.26 253.74L23 256" stroke="black" stroke-width="2" stroke-linecap="round" stroke-linejoin="round"/>
<path id="Vector_262" d="M23 251V256H28" stroke="black" stroke-width="2" stroke-linecap="round" stroke-linejoin="round"/>
</g></svg>
