<svg viewBox="0 0 24 24" fill="none" xmlns="http://www.w3.org/2000/svg"><g transform="translate(-84 -248)">
<path id="Vector_268" d="M104 257V255C104 254.47 103.789 253.961 103.414 253.586C103.039 253.211 102.53 253 102 253H96" stroke="black" stroke-width="2" stroke-linecap="round" stroke-linejoin="round"/>
<path id="Vector_269" d="M99 250L96 253L99 256" stroke="black" stroke-width="2" stroke-linecap="round" stroke-linejoin="round"/>
<path id="Vector_270" d="M104 261V266C104 266.53 103.789 267.039 103.414 267.414C103.039 267.789 102.53 268 102 268H90C89.4696 268 88.9609 267.789 88.5858 267.414C88.2107 267.039 88 266.53 88 266V255C88 254.47 88.2107 253.961 88.5858 253.586C88.9609 253.211 89.4696 253 90 253H92" stroke="black" stroke-width="2" stroke-linecap="round" stroke-linejoin="round"/>
</g></svg>
