<svg viewBox="0 0 24 24" fill="none" xmlns="http://www.w3.org/2000/svg"><g transform="translate(-116 -248)">
<path id="Vector_271" d="M137 260C137 261.78 136.472 263.52 135.483 265C134.494 266.48 133.089 267.634 131.444 268.315C129.8 268.996 127.99 269.174 126.244 268.827C124.498 268.48 122.895 267.623 121.636 266.364C120.377 265.105 119.52 263.502 119.173 261.756C118.826 260.01 119.004 258.2 119.685 256.556C120.366 254.911 121.52 253.506 123 252.517C124.48 251.528 126.22 251 128 251C130.52 251 132.93 252 134.74 253.74L137 256" stroke="black" stroke-width="2" stroke-linecap="round" stroke-linejoin="round"/>
<path id="Vector_272" d="M137 251V256H132" stroke="black" stroke-width="2" stroke-linecap="round" stroke-linejoin="round"/>
</g></svg>
