<svg viewBox="0 0 24 24" fill="none" xmlns="http://www.w3.org/2000/svg"><g transform="translate(-372 -216)">
<path id="Vector_258" d="M387.194 229.707L391.008 231.567L389.148 235.381" stroke="black" stroke-width="2" stroke-linecap="round" stroke-linejoin="round"/>
<path id="Vector_259" d="M388.472 223.528C388.055 221.859 387.412 220.456 386.617 219.479C385.822 218.503 384.906 217.99 383.973 218C383.04 218.01 382.127 218.542 381.337 219.536C380.547 220.53 379.912 221.946 379.504 223.624C379.096 225.302 378.93 227.176 379.027 229.032C379.123 230.888 379.477 232.653 380.049 234.128C380.621 235.603 381.388 236.728 382.262 237.377C383.137 238.025 384.086 238.171 385 237.798" stroke="black" stroke-width="2" stroke-linecap="round" stroke-linejoin="round"/>
<path id="Vector_260" d="M393.798 227C393.353 225.911 392.196 224.927 390.508 224.204C388.82 223.48 386.699 223.059 384.478 223.006C382.258 222.953 380.065 223.271 378.247 223.91C376.429 224.55 375.088 225.474 374.438 226.537C373.787 227.599 373.863 228.74 374.654 229.779C375.445 230.818 376.906 231.695 378.805 232.273C380.705 232.85 382.935 233.094 385.143 232.967C387.352 232.84 389.413 232.349 391 231.571" stroke="black" stroke-width="2" stroke-linecap="round" stroke-linejoin="round"/>
</g></svg>
