<svg viewBox="0 0 24 24" fill="none" xmlns="http://www.w3.org/2000/svg"><g transform="translate(-212 -152)">
<path id="Vector_160" d="M232 166H216C214.895 166 214 166.895 214 168V172C214 173.105 214.895 174 216 174H232C233.105 174 234 173.105 234 172V168C234 166.895 233.105 166 232 166Z" stroke="black" stroke-width="2" stroke-linecap="round" stroke-linejoin="round"/>
<path id="Vector_161" d="M218.01 170H218" stroke="black" stroke-width="2" stroke-linecap="round" stroke-linejoin="round"/>
<path id="Vector_162" d="M222.01 170H222" stroke="black" stroke-width="2" stroke-linecap="round" stroke-linejoin="round"/>
<path id="Vector_163" d="M227 162V166" stroke="black" stroke-width="2" stroke-linecap="round" stroke-linejoin="round"/>
<path id="Vector_164" d="M229.84 159.17C229.468 158.798 229.027 158.503 228.541 158.302C228.056 158.1 227.535 157.997 227.01 157.997C226.484 157.997 225.964 158.1 225.478 158.302C224.992 158.503 224.551 158.798 224.18 159.17" stroke="black" stroke-width="2" stroke-linecap="round" stroke-linejoin="round"/>
<path id="Vector_165" d="M232.66 156.34C231.159 154.841 229.125 153.999 227.005 153.999C224.884 153.999 222.85 154.841 221.35 156.34" stroke="black" stroke-width="2" stroke-linecap="round" stroke-linejoin="round"/>
</g></svg>
