<svg viewBox="0 0 24 24" fill="none" xmlns="http://www.w3.org/2000/svg"><g transform="translate(-148 -152)">
<path id="Vector_150" d="M154 174C155.657 174 157 172.657 157 171C157 169.343 155.657 168 154 168C152.343 168 151 169.343 151 171C151 172.657 152.343 174 154 174Z" stroke="black" stroke-width="2" stroke-linecap="round" stroke-linejoin="round"/>
<path id="Vector_151" d="M157 171H165.5C166.428 171 167.318 170.631 167.975 169.975C168.631 169.318 169 168.428 169 167.5C169 166.572 168.631 165.682 167.975 165.025C167.318 164.369 166.428 164 165.5 164H154.5C153.572 164 152.682 163.631 152.025 162.975C151.369 162.318 151 161.428 151 160.5C151 159.572 151.369 158.682 152.025 158.025C152.682 157.369 153.572 157 154.5 157H163" stroke="black" stroke-width="2" stroke-linecap="round" stroke-linejoin="round"/>
<path id="Vector_152" d="M166 160C167.657 160 169 158.657 169 157C169 155.343 167.657 154 166 154C164.343 154 163 155.343 163 157C163 158.657 164.343 160 166 160Z" stroke="black" stroke-width="2" stroke-linecap="round" stroke-linejoin="round"/>
</g></svg>
