<svg viewBox="0 0 24 24" fill="none" xmlns="http://www.w3.org/2000/svg"><g transform="translate(-180 -152)">
<path id="Vector_153" d="M186 174C187.657 174 189 172.657 189 171C189 169.343 187.657 168 186 168C184.343 168 183 169.343 183 171C183 172.657 184.343 174 186 174Z" stroke="black" stroke-width="2" stroke-linecap="round" stroke-linejoin="round"/>
<path id="Vector_154" d="M189 171H197.5C197.9 171 198.4 170.9 198.8 170.8" stroke="black" stroke-width="2" stroke-linecap="round" stroke-linejoin="round"/>
<path id="Vector_155" d="M185.2 157.2C184.45 157.508 183.828 158.068 183.442 158.787C183.056 159.505 182.928 160.336 183.082 161.138C183.235 161.941 183.66 162.664 184.283 163.186C184.907 163.708 185.69 163.996 186.5 164H192" stroke="black" stroke-width="2" stroke-linecap="round" stroke-linejoin="round"/>
<path id="Vector_156" d="M182 154L202 174" stroke="black" stroke-width="2" stroke-linecap="round" stroke-linejoin="round"/>
<path id="Vector_157" d="M201 167.3C200.952 166.44 200.589 165.629 199.98 165.02C199.372 164.411 198.56 164.048 197.7 164" stroke="black" stroke-width="2" stroke-linecap="round" stroke-linejoin="round"/>
<path id="Vector_158" d="M195 157H190.7" stroke="black" stroke-width="2" stroke-linecap="round" stroke-linejoin="round"/>
<path id="Vector_159" d="M198 160C199.657 160 201 158.657 201 157C201 155.343 199.657 154 198 154C196.343 154 195 155.343 195 157C195 158.657 196.343 160 198 160Z" stroke="black" stroke-width="2" stroke-linecap="round" stroke-linejoin="round"/>
</g></svg>
