<svg viewBox="0 0 24 24" fill="none" xmlns="http://www.w3.org/2000/svg"><g transform="translate(-180 -88)">
<path id="Vector_88" d="M201.3 103.3C201.524 103.523 201.701 103.788 201.822 104.08C201.943 104.371 202.006 104.684 202.006 105C202.006 105.316 201.943 105.629 201.822 105.92C201.701 106.212 201.524 106.477 201.3 106.7L198.7 109.3C198.477 109.524 198.212 109.701 197.92 109.822C197.628 109.944 197.316 110.006 197 110.006C196.684 110.006 196.371 109.944 196.079 109.822C195.788 109.701 195.523 109.524 195.3 109.3L182.7 96.7C182.25 96.2484 181.998 95.6372 181.998 95C181.998 94.3629 182.25 93.7517 182.7 93.3L185.3 90.7C185.751 90.2506 186.363 89.9983 187 89.9983C187.637 89.9983 188.248 90.2506 188.7 90.7L201.3 103.3Z" stroke="black" stroke-width="2" stroke-linecap="round" stroke-linejoin="round"/>
<path id="Vector_89" d="M194.5 100.5L196.5 98.5" stroke="black" stroke-width="2" stroke-linecap="round" stroke-linejoin="round"/>
<path id="Vector_90" d="M191.5 97.5L193.5 95.5" stroke="black" stroke-width="2" stroke-linecap="round" stroke-linejoin="round"/>
<path id="Vector_91" d="M188.5 94.5L190.5 92.5" stroke="black" stroke-width="2" stroke-linecap="round" stroke-linejoin="round"/>
<path id="Vector_92" d="M197.5 103.5L199.5 101.5" stroke="black" stroke-width="2" stroke-linecap="round" stroke-linejoin="round"/>
</g></svg>
