<svg viewBox="0 0 24 24" fill="none" xmlns="http://www.w3.org/2000/svg"><g transform="translate(-52 -120)">
<path id="Vector_130" d="M62 122V137" stroke="black" stroke-width="2" stroke-linecap="round" stroke-linejoin="round"/>
<path id="Vector_131" d="M59 142C57.9391 142 56.9217 141.579 56.1716 140.828C55.4214 140.078 55 139.061 55 138C55 137.735 55.1054 137.48 55.2929 137.293C55.4804 137.105 55.7348 137 56 137H72C72.2652 137 72.5196 137.105 72.7071 137.293C72.8946 137.48 73 137.735 73 138C73 139.061 72.5786 140.078 71.8284 140.828C71.0783 141.579 70.0609 142 69 142H59Z" stroke="black" stroke-width="2" stroke-linecap="round" stroke-linejoin="round"/>
<path id="Vector_132" d="M61.1593 122.46C61.2383 122.337 61.3433 122.233 61.4669 122.155C61.5905 122.077 61.7297 122.027 61.8747 122.008C62.0197 121.99 62.167 122.004 62.3062 122.048C62.4454 122.093 62.5731 122.168 62.6803 122.267L72.6573 131.247C72.8105 131.381 72.9192 131.558 72.9689 131.755C73.0186 131.953 73.007 132.16 72.9357 132.351C72.8643 132.541 72.7365 132.706 72.5694 132.822C72.4022 132.938 72.2037 133 72.0003 133H56.0003C55.818 133 55.6392 132.95 55.4831 132.856C55.3271 132.762 55.1997 132.627 55.1149 132.465C55.0301 132.304 54.9909 132.123 55.0018 131.941C55.0126 131.759 55.0729 131.583 55.1763 131.433L61.1593 122.46Z" stroke="black" stroke-width="2" stroke-linecap="round" stroke-linejoin="round"/>
</g></svg>
