<svg viewBox="0 0 24 24" fill="none" xmlns="http://www.w3.org/2000/svg"><g transform="translate(-52 -184)">
<path id="Vector_201" d="M59 205H69" stroke="black" stroke-width="2" stroke-linecap="round" stroke-linejoin="round"/>
<path id="Vector_202" d="M64 205C66.3869 205 68.6761 204.052 70.364 202.364C72.0518 200.676 73 198.387 73 196H55C55 198.387 55.9482 200.676 57.636 202.364C59.3239 204.052 61.6131 205 64 205Z" stroke="black" stroke-width="2" stroke-linecap="round" stroke-linejoin="round"/>
<path id="Vector_203" d="M63.3804 196C62.7747 196.006 62.1894 195.782 61.7417 195.374C61.294 194.966 61.017 194.404 60.9664 193.801C60.9158 193.197 61.0952 192.597 61.4688 192.12C61.8423 191.643 62.3823 191.325 62.9804 191.23C62.8846 190.806 62.9057 190.364 63.0413 189.952C63.177 189.539 63.4221 189.171 63.7506 188.886C64.0791 188.602 64.4786 188.412 64.9065 188.337C65.3344 188.262 65.7747 188.305 66.1804 188.46C66.358 188.18 66.5916 187.941 66.8665 187.756C67.1413 187.571 67.4515 187.445 67.7775 187.385C68.1034 187.326 68.4381 187.335 68.7605 187.412C69.0828 187.488 69.3858 187.631 69.6504 187.83C70.1119 187.467 70.6905 187.286 71.2765 187.321C71.8625 187.356 72.4154 187.605 72.8305 188.02C73.2456 188.435 73.4942 188.988 73.5292 189.574C73.5642 190.16 73.3832 190.738 73.0204 191.2C73.2462 191.5 73.3985 191.849 73.465 192.218C73.5315 192.588 73.5105 192.968 73.4035 193.327C73.2965 193.687 73.1066 194.017 72.849 194.29C72.5914 194.563 72.2734 194.772 71.9204 194.9C72.0116 195.26 72.0219 195.636 71.9504 196" stroke="black" stroke-width="2" stroke-linecap="round" stroke-linejoin="round"/>
<path id="Vector_204" d="M65 196L69 192" stroke="black" stroke-width="2" stroke-linecap="round" stroke-linejoin="round"/>
<path id="Vector_205" d="M62.9001 191.25C62.3515 190.665 61.6396 190.259 60.857 190.085C60.0745 189.911 59.2575 189.977 58.5128 190.273C57.768 190.57 57.13 191.084 56.6817 191.749C56.2335 192.414 55.996 193.198 56.0001 194C56.0001 194.73 56.2001 195.41 56.5401 196" stroke="black" stroke-width="2" stroke-linecap="round" stroke-linejoin="round"/>
</g></svg>
