<svg viewBox="0 0 24 24" fill="none" xmlns="http://www.w3.org/2000/svg"><g transform="translate(-84 -184)">
<path id="Vector_206" d="M86.3701 195.223L94.7421 188.446C95.0981 188.158 95.5422 188.001 96.0001 188.001C96.4581 188.001 96.9021 188.158 97.2581 188.446L105.629 195.223" stroke="black" stroke-width="2" stroke-linecap="round" stroke-linejoin="round"/>
<path id="Vector_207" d="M105 199C105.265 199 105.52 199.105 105.707 199.293C105.895 199.48 106 199.735 106 200V202C106 202.265 105.895 202.52 105.707 202.707C105.52 202.895 105.265 203 105 203H99.75" stroke="black" stroke-width="2" stroke-linecap="round" stroke-linejoin="round"/>
<path id="Vector_208" d="M87 199C86.7348 199 86.4804 199.105 86.2929 199.293C86.1054 199.48 86 199.735 86 200V202C86 202.265 86.1054 202.52 86.2929 202.707C86.4804 202.895 86.7348 203 87 203H96" stroke="black" stroke-width="2" stroke-linecap="round" stroke-linejoin="round"/>
<path id="Vector_209" d="M90.6699 199L96.7999 203.6C97.01 203.758 97.2491 203.872 97.5036 203.937C97.758 204.003 98.0228 204.017 98.2828 203.98C98.5428 203.943 98.7929 203.855 99.0189 203.721C99.2449 203.587 99.4423 203.41 99.5999 203.2L102.75 199" stroke="black" stroke-width="2" stroke-linecap="round" stroke-linejoin="round"/>
<path id="Vector_210" d="M105 195H87C86.4477 195 86 195.448 86 196V198C86 198.552 86.4477 199 87 199H105C105.552 199 106 198.552 106 198V196C106 195.448 105.552 195 105 195Z" stroke="black" stroke-width="2" stroke-linecap="round" stroke-linejoin="round"/>
</g></svg>
