<svg viewBox="0 0 24 24" fill="none" xmlns="http://www.w3.org/2000/svg"><g transform="translate(-340 -216)">
<path id="Vector_315" d="M344 226C343.185 227.395 342.854 229.021 343.061 230.624C343.268 232.226 343.999 233.716 345.142 234.858C346.285 236.001 347.774 236.733 349.376 236.939C350.979 237.146 352.605 236.816 354 236L344 226Z" stroke="black" stroke-width="2" stroke-linecap="round" stroke-linejoin="round"/>
<path id="Vector_316" d="M349 231L352 228" stroke="black" stroke-width="2" stroke-linecap="round" stroke-linejoin="round"/>
<path id="Vector_317" d="M357 229C357 227.409 356.368 225.883 355.243 224.757C354.117 223.632 352.591 223 351 223" stroke="black" stroke-width="2" stroke-linecap="round" stroke-linejoin="round"/>
<path id="Vector_318" d="M361 229C361 226.348 359.946 223.804 358.071 221.929C356.196 220.054 353.652 219 351 219" stroke="black" stroke-width="2" stroke-linecap="round" stroke-linejoin="round"/>
</g></svg>
