<svg viewBox="0 0 24 24" fill="none" xmlns="http://www.w3.org/2000/svg"><g transform="translate(-308 -216)">
<path id="Vector_310" d="M321.5 222.5L318.352 219.352C318.126 219.126 317.819 218.999 317.5 218.999C317.18 218.999 316.874 219.126 316.648 219.352L314.352 221.648C314.126 221.874 313.999 222.18 313.999 222.5C313.999 222.82 314.126 223.126 314.352 223.352L317.5 226.5" stroke="black" stroke-width="2" stroke-linecap="round" stroke-linejoin="round"/>
<path id="Vector_311" d="M324.5 223.5L327 221" stroke="black" stroke-width="2" stroke-linecap="round" stroke-linejoin="round"/>
<path id="Vector_312" d="M325.5 226.5L328.648 229.648C328.874 229.874 329.001 230.18 329.001 230.5C329.001 230.82 328.874 231.126 328.648 231.352L326.352 233.648C326.126 233.874 325.82 234.001 325.5 234.001C325.18 234.001 324.874 233.874 324.648 233.648L321.5 230.5" stroke="black" stroke-width="2" stroke-linecap="round" stroke-linejoin="round"/>
<path id="Vector_313" d="M317 237C317 235.409 316.368 233.883 315.243 232.757C314.117 231.632 312.591 231 311 231" stroke="black" stroke-width="2" stroke-linecap="round" stroke-linejoin="round"/>
<path id="Vector_314" d="M317.352 226.648C317.126 226.874 316.999 227.18 316.999 227.5C316.999 227.82 317.126 228.126 317.352 228.352L319.648 230.648C319.874 230.874 320.18 231.001 320.5 231.001C320.819 231.001 321.126 230.874 321.352 230.648L325.648 226.352C325.874 226.126 326.001 225.82 326.001 225.5C326.001 225.18 325.874 224.874 325.648 224.648L323.352 222.352C323.126 222.126 322.819 221.999 322.5 221.999C322.18 221.999 321.874 222.126 321.648 222.352L317.352 226.648Z" stroke="black" stroke-width="2" stroke-linecap="round" stroke-linejoin="round"/>
</g></svg>
