<svg viewBox="0 0 24 24" fill="none" xmlns="http://www.w3.org/2000/svg"><g transform="translate(-180 -312)">
<path id="Vector_436" d="M190 314V317C190 317.265 190.105 317.52 190.293 317.707C190.48 317.895 190.735 318 191 318H196" stroke="black" stroke-width="2" stroke-linecap="round" stroke-linejoin="round"/>
<path id="Vector_437" d="M198 330V324C198 323.735 197.895 323.48 197.707 323.293C197.52 323.105 197.265 323 197 323H191C190.735 323 190.48 323.105 190.293 323.293C190.105 323.48 190 323.735 190 324V330" stroke="black" stroke-width="2" stroke-linecap="round" stroke-linejoin="round"/>
<path id="Vector_438" d="M198 334H184C183.47 334 182.961 333.789 182.586 333.414C182.211 333.039 182 332.53 182 332V318" stroke="black" stroke-width="2" stroke-linecap="round" stroke-linejoin="round"/>
<path id="Vector_439" d="M188 330C187.47 330 186.961 329.789 186.586 329.414C186.211 329.039 186 328.53 186 328V316C186 315.47 186.211 314.961 186.586 314.586C186.961 314.211 187.47 314 188 314H197.172C197.702 314 198.211 314.211 198.586 314.586L201.414 317.414C201.789 317.789 202 318.298 202 318.828V328C202 328.263 201.948 328.524 201.847 328.768C201.746 329.011 201.597 329.232 201.411 329.418C201.224 329.604 201.002 329.751 200.758 329.851C200.515 329.951 200.253 330.001 199.99 330H188Z" stroke="black" stroke-width="2" stroke-linecap="round" stroke-linejoin="round"/>
</g></svg>
