<svg viewBox="0 0 24 24" fill="none" xmlns="http://www.w3.org/2000/svg"><g transform="translate(-148 -312)">
<path id="Vector_433" d="M163.2 315C163.728 315.008 164.231 315.223 164.6 315.6L168.4 319.4C168.777 319.769 168.992 320.272 169 320.8V331C169 331.53 168.789 332.039 168.414 332.414C168.039 332.789 167.53 333 167 333H153C152.47 333 151.961 332.789 151.586 332.414C151.211 332.039 151 331.53 151 331V317C151 316.47 151.211 315.961 151.586 315.586C151.961 315.211 152.47 315 153 315H163.2Z" stroke="black" stroke-width="2" stroke-linecap="round" stroke-linejoin="round"/>
<path id="Vector_434" d="M165 333V326C165 325.735 164.895 325.48 164.707 325.293C164.52 325.105 164.265 325 164 325H156C155.735 325 155.48 325.105 155.293 325.293C155.105 325.48 155 325.735 155 326V333" stroke="black" stroke-width="2" stroke-linecap="round" stroke-linejoin="round"/>
<path id="Vector_435" d="M155 315V319C155 319.265 155.105 319.52 155.293 319.707C155.48 319.895 155.735 320 156 320H163" stroke="black" stroke-width="2" stroke-linecap="round" stroke-linejoin="round"/>
</g></svg>
