<svg viewBox="0 0 24 24" fill="none" xmlns="http://www.w3.org/2000/svg"><g transform="translate(-276 -312)">
<path id="Vector_450" d="M289.33 325H284C283.735 325 283.48 325.105 283.293 325.293C283.105 325.48 283 325.735 283 326V333" stroke="black" stroke-width="2" stroke-linecap="round" stroke-linejoin="round"/>
<path id="Vector_451" d="M290.363 329.634C290.125 329.872 289.951 330.165 289.857 330.488L289.02 333.358C288.995 333.444 288.993 333.535 289.016 333.622C289.038 333.709 289.083 333.788 289.146 333.852C289.21 333.915 289.289 333.96 289.376 333.982C289.463 334.005 289.554 334.003 289.64 333.978L292.51 333.141C292.833 333.047 293.126 332.873 293.364 332.635L297.377 328.626C297.775 328.228 297.999 327.687 297.999 327.124C297.999 326.561 297.775 326.02 297.377 325.622C296.979 325.224 296.438 325 295.875 325C295.312 325 294.771 325.224 294.373 325.622L290.363 329.634Z" stroke="black" stroke-width="2" stroke-linecap="round" stroke-linejoin="round"/>
<path id="Vector_452" d="M283 315V319C283 319.265 283.105 319.52 283.293 319.707C283.48 319.895 283.735 320 284 320H291" stroke="black" stroke-width="2" stroke-linecap="round" stroke-linejoin="round"/>
<path id="Vector_453" d="M285 333H281C280.47 333 279.961 332.789 279.586 332.414C279.211 332.039 279 331.53 279 331V317C279 316.47 279.211 315.961 279.586 315.586C279.961 315.211 280.47 315 281 315H291.2C291.728 315.008 292.231 315.223 292.6 315.6L296.4 319.4C296.777 319.769 296.992 320.272 297 320.8V321.1" stroke="black" stroke-width="2" stroke-linecap="round" stroke-linejoin="round"/>
</g></svg>
