<svg viewBox="0 0 24 24" fill="none" xmlns="http://www.w3.org/2000/svg"><g transform="translate(-308 -312)">
<path id="Vector_454" d="M320.5 333H313C312.47 333 311.961 332.789 311.586 332.414C311.211 332.039 311 331.53 311 331V317C311 316.47 311.211 315.961 311.586 315.586C311.961 315.211 312.47 315 313 315H323.2C323.728 315.008 324.231 315.223 324.6 315.6L328.4 319.4C328.777 319.769 328.992 320.272 329 320.8V324" stroke="black" stroke-width="2" stroke-linecap="round" stroke-linejoin="round"/>
<path id="Vector_455" d="M324 325H316C315.735 325 315.48 325.105 315.293 325.293C315.105 325.48 315 325.735 315 326V333" stroke="black" stroke-width="2" stroke-linecap="round" stroke-linejoin="round"/>
<path id="Vector_456" d="M327 334V328" stroke="black" stroke-width="2" stroke-linecap="round" stroke-linejoin="round"/>
<path id="Vector_457" d="M330 331H324" stroke="black" stroke-width="2" stroke-linecap="round" stroke-linejoin="round"/>
<path id="Vector_458" d="M315 315V319C315 319.265 315.105 319.52 315.293 319.707C315.48 319.895 315.735 320 316 320H323" stroke="black" stroke-width="2" stroke-linecap="round" stroke-linejoin="round"/>
</g></svg>
