<svg viewBox="0 0 24 24" fill="none" xmlns="http://www.w3.org/2000/svg"><g transform="translate(-244 -312)">
<path id="Vector_444" d="M257 325H252C251.735 325 251.48 325.105 251.293 325.293C251.105 325.48 251 325.735 251 326V333" stroke="black" stroke-width="2" stroke-linecap="round" stroke-linejoin="round"/>
<path id="Vector_445" d="M258 320H259" stroke="black" stroke-width="2" stroke-linecap="round" stroke-linejoin="round"/>
<path id="Vector_446" d="M261 333V329" stroke="black" stroke-width="2" stroke-linecap="round" stroke-linejoin="round"/>
<path id="Vector_447" d="M246 314L266 334" stroke="black" stroke-width="2" stroke-linecap="round" stroke-linejoin="round"/>
<path id="Vector_448" d="M264.41 332.41C264.037 332.786 263.53 332.998 263 333H249C248.47 333 247.961 332.789 247.586 332.414C247.211 332.039 247 331.53 247 331V317C247.002 316.47 247.214 315.963 247.59 315.59" stroke="black" stroke-width="2" stroke-linecap="round" stroke-linejoin="round"/>
<path id="Vector_449" d="M253 315H259.2C259.728 315.008 260.231 315.223 260.6 315.6L264.4 319.4C264.777 319.769 264.992 320.272 265 320.8V327" stroke="black" stroke-width="2" stroke-linecap="round" stroke-linejoin="round"/>
</g></svg>
