<svg viewBox="0 0 24 24" fill="none" xmlns="http://www.w3.org/2000/svg"><g transform="translate(-212 -312)">
<path id="Vector_440" d="M224.5 333H217C216.47 333 215.961 332.789 215.586 332.414C215.211 332.039 215 331.53 215 331V317C215 316.47 215.211 315.961 215.586 315.586C215.961 315.211 216.47 315 217 315H227.2C227.728 315.008 228.231 315.223 228.6 315.6L232.4 319.4C232.777 319.769 232.992 320.272 233 320.8V325.15" stroke="black" stroke-width="2" stroke-linecap="round" stroke-linejoin="round"/>
<path id="Vector_441" d="M228 331L230 333L234 329" stroke="black" stroke-width="2" stroke-linecap="round" stroke-linejoin="round"/>
<path id="Vector_442" d="M229 327.13V326C229 325.735 228.895 325.48 228.707 325.293C228.52 325.105 228.265 325 228 325H220C219.735 325 219.48 325.105 219.293 325.293C219.105 325.48 219 325.735 219 326V333" stroke="black" stroke-width="2" stroke-linecap="round" stroke-linejoin="round"/>
<path id="Vector_443" d="M219 315V319C219 319.265 219.105 319.52 219.293 319.707C219.48 319.895 219.735 320 220 320H227" stroke="black" stroke-width="2" stroke-linecap="round" stroke-linejoin="round"/>
</g></svg>
