<svg viewBox="0 0 24 24" fill="none" xmlns="http://www.w3.org/2000/svg"><g transform="translate(-180 -248)">
<path id="Vector_276" d="M192 251V269" stroke="black" stroke-width="2" stroke-linecap="round" stroke-linejoin="round"/>
<path id="Vector_277" d="M199 256L202 264C201.135 264.649 200.082 265 199 265C197.918 265 196.865 264.649 196 264L199 256ZM199 256V255" stroke="black" stroke-width="2" stroke-linecap="round" stroke-linejoin="round"/>
<path id="Vector_278" d="M183 255H184C186.79 255 189.538 254.313 192 253C194.462 254.313 197.21 255 200 255H201" stroke="black" stroke-width="2" stroke-linecap="round" stroke-linejoin="round"/>
<path id="Vector_279" d="M185 256L188 264C187.135 264.649 186.082 265 185 265C183.918 265 182.865 264.649 182 264L185 256ZM185 256V255" stroke="black" stroke-width="2" stroke-linecap="round" stroke-linejoin="round"/>
<path id="Vector_280" d="M187 269H197" stroke="black" stroke-width="2" stroke-linecap="round" stroke-linejoin="round"/>
</g></svg>
