<svg viewBox="0 0 24 24" fill="none" xmlns="http://www.w3.org/2000/svg"><g transform="translate(-212 -248)">
<path id="Vector_281" d="M217 255V266C217 266.265 217.105 266.52 217.293 266.707C217.48 266.895 217.735 267 218 267H229" stroke="black" stroke-width="2" stroke-linecap="round" stroke-linejoin="round"/>
<path id="Vector_282" d="M217.293 266.707L223 261" stroke="black" stroke-width="2" stroke-linecap="round" stroke-linejoin="round"/>
<path id="Vector_283" d="M231 269C232.105 269 233 268.105 233 267C233 265.895 232.105 265 231 265C229.895 265 229 265.895 229 267C229 268.105 229.895 269 231 269Z" stroke="black" stroke-width="2" stroke-linecap="round" stroke-linejoin="round"/>
<path id="Vector_284" d="M217 255C218.105 255 219 254.105 219 253C219 251.895 218.105 251 217 251C215.895 251 215 251.895 215 253C215 254.105 215.895 255 217 255Z" stroke="black" stroke-width="2" stroke-linecap="round" stroke-linejoin="round"/>
</g></svg>
