<svg viewBox="0 0 24 24" fill="none" xmlns="http://www.w3.org/2000/svg"><g transform="translate(-84 -88)">
<path id="Vector_54" d="M87 95V93C87 92.4696 87.2107 91.9609 87.5858 91.5858C87.9609 91.2107 88.4696 91 89 91H91" stroke="black" stroke-width="2" stroke-linecap="round" stroke-linejoin="round"/>
<path id="Vector_55" d="M101 91H103C103.53 91 104.039 91.2107 104.414 91.5858C104.789 91.9609 105 92.4696 105 93V95" stroke="black" stroke-width="2" stroke-linecap="round" stroke-linejoin="round"/>
<path id="Vector_56" d="M105 105V107C105 107.53 104.789 108.039 104.414 108.414C104.039 108.789 103.53 109 103 109H101" stroke="black" stroke-width="2" stroke-linecap="round" stroke-linejoin="round"/>
<path id="Vector_57" d="M91 109H89C88.4696 109 87.9609 108.789 87.5858 108.414C87.2107 108.039 87 107.53 87 107V105" stroke="black" stroke-width="2" stroke-linecap="round" stroke-linejoin="round"/>
<path id="Vector_58" d="M92 95V105" stroke="black" stroke-width="2" stroke-linecap="round" stroke-linejoin="round"/>
<path id="Vector_59" d="M96 95V105" stroke="black" stroke-width="2" stroke-linecap="round" stroke-linejoin="round"/>
<path id="Vector_60" d="M101 95V105" stroke="black" stroke-width="2" stroke-linecap="round" stroke-linejoin="round"/>
</g></svg>
