<svg viewBox="0 0 24 24" fill="none" xmlns="http://www.w3.org/2000/svg"><g transform="translate(-212 -88)">
<path id="Vector_79" d="M229 100V104C229 104.265 228.895 104.52 228.707 104.707C228.52 104.895 228.265 105 228 105H224" stroke="black" stroke-width="2" stroke-linecap="round" stroke-linejoin="round"/>
<path id="Vector_80" d="M229 91H231C231.53 91 232.039 91.2107 232.414 91.5858C232.789 91.9609 233 92.4696 233 93V95" stroke="black" stroke-width="2" stroke-linecap="round" stroke-linejoin="round"/>
<path id="Vector_81" d="M229 96V95" stroke="black" stroke-width="2" stroke-linecap="round" stroke-linejoin="round"/>
<path id="Vector_82" d="M233 105V107C233 107.53 232.789 108.039 232.414 108.414C232.039 108.789 231.53 109 231 109H229" stroke="black" stroke-width="2" stroke-linecap="round" stroke-linejoin="round"/>
<path id="Vector_83" d="M215 95V93C215 92.4696 215.211 91.9609 215.586 91.5858C215.961 91.2107 216.47 91 217 91H219" stroke="black" stroke-width="2" stroke-linecap="round" stroke-linejoin="round"/>
<path id="Vector_84" d="M219 105H219.01" stroke="black" stroke-width="2" stroke-linecap="round" stroke-linejoin="round"/>
<path id="Vector_85" d="M219 109H217C216.47 109 215.961 108.789 215.586 108.414C215.211 108.039 215 107.53 215 107V105" stroke="black" stroke-width="2" stroke-linecap="round" stroke-linejoin="round"/>
<path id="Vector_86" d="M223 95H220C219.448 95 219 95.4477 219 96V99C219 99.5523 219.448 100 220 100H223C223.552 100 224 99.5523 224 99V96C224 95.4477 223.552 95 223 95Z" stroke="black" stroke-width="2" stroke-linecap="round" stroke-linejoin="round"/>
</g></svg>
