<svg viewBox="0 0 24 24" fill="none" xmlns="http://www.w3.org/2000/svg"><g transform="translate(-52 -88)">
<path id="Vector_50" d="M55 95V93C55 92.4696 55.2107 91.9609 55.5858 91.5858C55.9609 91.2107 56.4696 91 57 91H59" stroke="black" stroke-width="2" stroke-linecap="round" stroke-linejoin="round"/>
<path id="Vector_51" d="M69 91H71C71.5304 91 72.0391 91.2107 72.4142 91.5858C72.7893 91.9609 73 92.4696 73 93V95" stroke="black" stroke-width="2" stroke-linecap="round" stroke-linejoin="round"/>
<path id="Vector_52" d="M73 105V107C73 107.53 72.7893 108.039 72.4142 108.414C72.0391 108.789 71.5304 109 71 109H69" stroke="black" stroke-width="2" stroke-linecap="round" stroke-linejoin="round"/>
<path id="Vector_53" d="M59 109H57C56.4696 109 55.9609 108.789 55.5858 108.414C55.2107 108.039 55 107.53 55 107V105" stroke="black" stroke-width="2" stroke-linecap="round" stroke-linejoin="round"/>
</g></svg>
