<svg viewBox="0 0 24 24" fill="none" xmlns="http://www.w3.org/2000/svg"><g transform="translate(-180 -88)">
<path id="Vector_74" d="M183 95V93C183 92.4696 183.211 91.9609 183.586 91.5858C183.961 91.2107 184.47 91 185 91H187" stroke="black" stroke-width="2" stroke-linecap="round" stroke-linejoin="round"/>
<path id="Vector_75" d="M197 91H199C199.53 91 200.039 91.2107 200.414 91.5858C200.789 91.9609 201 92.4696 201 93V95" stroke="black" stroke-width="2" stroke-linecap="round" stroke-linejoin="round"/>
<path id="Vector_76" d="M201 105V107C201 107.53 200.789 108.039 200.414 108.414C200.039 108.789 199.53 109 199 109H197" stroke="black" stroke-width="2" stroke-linecap="round" stroke-linejoin="round"/>
<path id="Vector_77" d="M187 109H185C184.47 109 183.961 108.789 183.586 108.414C183.211 108.039 183 107.53 183 107V105" stroke="black" stroke-width="2" stroke-linecap="round" stroke-linejoin="round"/>
<path id="Vector_78" d="M187 100H197" stroke="black" stroke-width="2" stroke-linecap="round" stroke-linejoin="round"/>
</g></svg>
