<svg viewBox="0 0 24 24" fill="none" xmlns="http://www.w3.org/2000/svg"><g transform="translate(-116 -88)">
<path id="Vector_61" d="M119 95V93C119 92.4696 119.211 91.9609 119.586 91.5858C119.961 91.2107 120.47 91 121 91H123" stroke="black" stroke-width="2" stroke-linecap="round" stroke-linejoin="round"/>
<path id="Vector_62" d="M133 91H135C135.53 91 136.039 91.2107 136.414 91.5858C136.789 91.9609 137 92.4696 137 93V95" stroke="black" stroke-width="2" stroke-linecap="round" stroke-linejoin="round"/>
<path id="Vector_63" d="M137 105V107C137 107.53 136.789 108.039 136.414 108.414C136.039 108.789 135.53 109 135 109H133" stroke="black" stroke-width="2" stroke-linecap="round" stroke-linejoin="round"/>
<path id="Vector_64" d="M123 109H121C120.47 109 119.961 108.789 119.586 108.414C119.211 108.039 119 107.53 119 107V105" stroke="black" stroke-width="2" stroke-linecap="round" stroke-linejoin="round"/>
<path id="Vector_65" d="M128 101C128.552 101 129 100.552 129 100C129 99.4477 128.552 99 128 99C127.448 99 127 99.4477 127 100C127 100.552 127.448 101 128 101Z" stroke="black" stroke-width="2" stroke-linecap="round" stroke-linejoin="round"/>
<path id="Vector_66" d="M134.944 99.67C135.019 99.8837 135.019 100.116 134.944 100.33C134.381 101.71 133.42 102.89 132.183 103.721C130.946 104.552 129.49 104.996 128 104.996C126.51 104.996 125.054 104.552 123.817 103.721C122.58 102.89 121.619 101.71 121.056 100.33C120.981 100.116 120.981 99.8837 121.056 99.67C121.619 98.2905 122.58 97.1098 123.817 96.2788C125.054 95.4477 126.51 95.0039 128 95.0039C129.49 95.0039 130.946 95.4477 132.183 96.2788C133.42 97.1098 134.381 98.2905 134.944 99.67Z" stroke="black" stroke-width="2" stroke-linecap="round" stroke-linejoin="round"/>
</g></svg>
