<svg viewBox="0 0 24 24" fill="none" xmlns="http://www.w3.org/2000/svg"><g transform="translate(-20 -152)">
<path id="Vector_157" d="M37 155H39C39.5304 155 40.0391 155.211 40.4142 155.586C40.7893 155.961 41 156.47 41 157V159" stroke="black" stroke-width="2" stroke-linecap="round" stroke-linejoin="round"/>
<path id="Vector_158" d="M41 169V171C41 171.53 40.7893 172.039 40.4142 172.414C40.0391 172.789 39.5304 173 39 173H37" stroke="black" stroke-width="2" stroke-linecap="round" stroke-linejoin="round"/>
<path id="Vector_159" d="M23 159V157C23 156.47 23.2107 155.961 23.5858 155.586C23.9609 155.211 24.4696 155 25 155H27" stroke="black" stroke-width="2" stroke-linecap="round" stroke-linejoin="round"/>
<path id="Vector_160" d="M27 173H25C24.4696 173 23.9609 172.789 23.5858 172.414C23.2107 172.039 23 171.53 23 171V169" stroke="black" stroke-width="2" stroke-linecap="round" stroke-linejoin="round"/>
<path id="Vector_161" d="M27.8276 165.07C27.2915 164.509 26.9935 163.763 26.9961 162.987C26.9987 162.211 27.3017 161.466 27.8415 160.909C28.3813 160.352 29.116 160.026 29.8913 159.999C30.6665 159.972 31.4222 160.246 31.9996 160.764C32.577 160.246 33.3327 159.972 34.1079 159.999C34.8832 160.026 35.6179 160.352 36.1577 160.909C36.6975 161.466 37.0005 162.211 37.0031 162.987C37.0057 163.763 36.7077 164.509 36.1716 165.07L32.7246 168.69C32.6312 168.788 32.5188 168.866 32.3943 168.92C32.2697 168.973 32.1356 169.001 32.0001 169.001C31.8646 169.001 31.7305 168.973 31.6059 168.92C31.4814 168.866 31.369 168.788 31.2756 168.69L27.8276 165.07Z" stroke="black" stroke-width="2" stroke-linecap="round" stroke-linejoin="round"/>
</g></svg>
