<svg viewBox="0 0 24 24" fill="none" xmlns="http://www.w3.org/2000/svg"><g transform="translate(-276 -88)">
<path id="Vector_93" d="M279 95V93C279 92.4696 279.211 91.9609 279.586 91.5858C279.961 91.2107 280.47 91 281 91H283" stroke="black" stroke-width="2" stroke-linecap="round" stroke-linejoin="round"/>
<path id="Vector_94" d="M293 91H295C295.53 91 296.039 91.2107 296.414 91.5858C296.789 91.9609 297 92.4696 297 93V95" stroke="black" stroke-width="2" stroke-linecap="round" stroke-linejoin="round"/>
<path id="Vector_95" d="M297 105V107C297 107.53 296.789 108.039 296.414 108.414C296.039 108.789 295.53 109 295 109H293" stroke="black" stroke-width="2" stroke-linecap="round" stroke-linejoin="round"/>
<path id="Vector_96" d="M283 109H281C280.47 109 279.961 108.789 279.586 108.414C279.211 108.039 279 107.53 279 107V105" stroke="black" stroke-width="2" stroke-linecap="round" stroke-linejoin="round"/>
<path id="Vector_97" d="M283 96H291" stroke="black" stroke-width="2" stroke-linecap="round" stroke-linejoin="round"/>
<path id="Vector_98" d="M283 100H293" stroke="black" stroke-width="2" stroke-linecap="round" stroke-linejoin="round"/>
<path id="Vector_99" d="M283 104H289" stroke="black" stroke-width="2" stroke-linecap="round" stroke-linejoin="round"/>
</g></svg>
