<svg viewBox="0 0 24 24" fill="none" xmlns="http://www.w3.org/2000/svg"><g transform="translate(-148 -88)">
<path id="Vector_67" d="M151 95V93C151 92.4696 151.211 91.9609 151.586 91.5858C151.961 91.2107 152.47 91 153 91H155" stroke="black" stroke-width="2" stroke-linecap="round" stroke-linejoin="round"/>
<path id="Vector_68" d="M165 91H167C167.53 91 168.039 91.2107 168.414 91.5858C168.789 91.9609 169 92.4696 169 93V95" stroke="black" stroke-width="2" stroke-linecap="round" stroke-linejoin="round"/>
<path id="Vector_69" d="M169 105V107C169 107.53 168.789 108.039 168.414 108.414C168.039 108.789 167.53 109 167 109H165" stroke="black" stroke-width="2" stroke-linecap="round" stroke-linejoin="round"/>
<path id="Vector_70" d="M155 109H153C152.47 109 151.961 108.789 151.586 108.414C151.211 108.039 151 107.53 151 107V105" stroke="black" stroke-width="2" stroke-linecap="round" stroke-linejoin="round"/>
<path id="Vector_71" d="M156 102C156 102 157.5 104 160 104C162.5 104 164 102 164 102" stroke="black" stroke-width="2" stroke-linecap="round" stroke-linejoin="round"/>
<path id="Vector_72" d="M157 97H157.01" stroke="black" stroke-width="2" stroke-linecap="round" stroke-linejoin="round"/>
<path id="Vector_73" d="M163 97H163.01" stroke="black" stroke-width="2" stroke-linecap="round" stroke-linejoin="round"/>
</g></svg>
