<svg viewBox="0 0 24 24" fill="none" xmlns="http://www.w3.org/2000/svg"><g transform="translate(-244 -88)">
<path id="Vector_87" d="M247 95V93C247 92.4696 247.211 91.9609 247.586 91.5858C247.961 91.2107 248.47 91 249 91H251" stroke="black" stroke-width="2" stroke-linecap="round" stroke-linejoin="round"/>
<path id="Vector_88" d="M261 91H263C263.53 91 264.039 91.2107 264.414 91.5858C264.789 91.9609 265 92.4696 265 93V95" stroke="black" stroke-width="2" stroke-linecap="round" stroke-linejoin="round"/>
<path id="Vector_89" d="M265 105V107C265 107.53 264.789 108.039 264.414 108.414C264.039 108.789 263.53 109 263 109H261" stroke="black" stroke-width="2" stroke-linecap="round" stroke-linejoin="round"/>
<path id="Vector_90" d="M251 109H249C248.47 109 247.961 108.789 247.586 108.414C247.211 108.039 247 107.53 247 107V105" stroke="black" stroke-width="2" stroke-linecap="round" stroke-linejoin="round"/>
<path id="Vector_91" d="M256 103C257.657 103 259 101.657 259 100C259 98.3431 257.657 97 256 97C254.343 97 253 98.3431 253 100C253 101.657 254.343 103 256 103Z" stroke="black" stroke-width="2" stroke-linecap="round" stroke-linejoin="round"/>
<path id="Vector_92" d="M260 104L258.1 102.1" stroke="black" stroke-width="2" stroke-linecap="round" stroke-linejoin="round"/>
</g></svg>
