<svg viewBox="0 0 24 24" fill="none" xmlns="http://www.w3.org/2000/svg"><g transform="translate(-276 -88)">
<path id="Vector_106" d="M290 109V106C290 105.47 289.789 104.961 289.414 104.586C289.039 104.211 288.53 104 288 104C287.47 104 286.961 104.211 286.586 104.586C286.211 104.961 286 105.47 286 106V109" stroke="black" stroke-width="2" stroke-linecap="round" stroke-linejoin="round"/>
<path id="Vector_107" d="M294 92.9331V109" stroke="black" stroke-width="2" stroke-linecap="round" stroke-linejoin="round"/>
<path id="Vector_108" d="M280 94L287.106 90.21C287.384 90.0712 287.69 89.999 288 89.999C288.31 89.999 288.616 90.0712 288.894 90.21L296 94" stroke="black" stroke-width="2" stroke-linecap="round" stroke-linejoin="round"/>
<path id="Vector_109" d="M282 99L278.48 101.147C278.333 101.236 278.212 101.362 278.128 101.511C278.044 101.661 278 101.829 278 102.001V107C278 107.53 278.211 108.039 278.586 108.414C278.961 108.789 279.47 109 280 109H296C296.53 109 297.039 108.789 297.414 108.414C297.789 108.039 298 107.53 298 107V102C298 101.829 297.956 101.66 297.871 101.511C297.787 101.361 297.666 101.236 297.52 101.147L294 99" stroke="black" stroke-width="2" stroke-linecap="round" stroke-linejoin="round"/>
<path id="Vector_110" d="M282 92.9331V109" stroke="black" stroke-width="2" stroke-linecap="round" stroke-linejoin="round"/>
<path id="Vector_111" d="M288 99C289.105 99 290 98.1046 290 97C290 95.8954 289.105 95 288 95C286.895 95 286 95.8954 286 97C286 98.1046 286.895 99 288 99Z" stroke="black" stroke-width="2" stroke-linecap="round" stroke-linejoin="round"/>
</g></svg>
