<svg viewBox="0 0 24 24" fill="none" xmlns="http://www.w3.org/2000/svg"><g transform="translate(-244 -88)">
<path id="Vector_101" d="M250 97C251.657 97 253 95.6569 253 94C253 92.3431 251.657 91 250 91C248.343 91 247 92.3431 247 94C247 95.6569 248.343 97 250 97Z" stroke="black" stroke-width="2" stroke-linecap="round" stroke-linejoin="round"/>
<path id="Vector_102" d="M252.12 96.12L256 100" stroke="black" stroke-width="2" stroke-linecap="round" stroke-linejoin="round"/>
<path id="Vector_103" d="M264 92L252.12 103.88" stroke="black" stroke-width="2" stroke-linecap="round" stroke-linejoin="round"/>
<path id="Vector_104" d="M250 109C251.657 109 253 107.657 253 106C253 104.343 251.657 103 250 103C248.343 103 247 104.343 247 106C247 107.657 248.343 109 250 109Z" stroke="black" stroke-width="2" stroke-linecap="round" stroke-linejoin="round"/>
<path id="Vector_105" d="M258.8 102.8L264 108" stroke="black" stroke-width="2" stroke-linecap="round" stroke-linejoin="round"/>
</g></svg>
