<svg viewBox="0 0 24 24" fill="none" xmlns="http://www.w3.org/2000/svg"><g transform="translate(-84 -120)">
<path id="Vector_133" d="M105 124H101.5L103.5 135.05" stroke="black" stroke-width="2" stroke-linecap="round" stroke-linejoin="round"/>
<path id="Vector_134" d="M90.9502 137H96.0922C96.6152 137 97.0422 136.594 97.1552 136.084C97.4394 134.809 98.1014 133.648 99.0549 132.755C100.008 131.861 101.209 131.276 102.5 131.075" stroke="black" stroke-width="2" stroke-linecap="round" stroke-linejoin="round"/>
<path id="Vector_135" d="M103.5 140C104.881 140 106 138.881 106 137.5C106 136.119 104.881 135 103.5 135C102.119 135 101 136.119 101 137.5C101 138.881 102.119 140 103.5 140Z" stroke="black" stroke-width="2" stroke-linecap="round" stroke-linejoin="round"/>
<path id="Vector_136" d="M88.5 140C89.8807 140 91 138.881 91 137.5C91 136.119 89.8807 135 88.5 135C87.1193 135 86 136.119 86 137.5C86 138.881 87.1193 140 88.5 140Z" stroke="black" stroke-width="2" stroke-linecap="round" stroke-linejoin="round"/>
</g></svg>
