<svg viewBox="0 0 24 24" fill="none" xmlns="http://www.w3.org/2000/svg"><g transform="translate(-340 -312)">
<path id="Vector_459" d="M359 329V317C359 316.47 358.789 315.961 358.414 315.586C358.039 315.211 357.53 315 357 315H344" stroke="black" stroke-width="2" stroke-linecap="round" stroke-linejoin="round"/>
<path id="Vector_460" d="M348 333H360C360.53 333 361.039 332.789 361.414 332.414C361.789 332.039 362 331.53 362 331V330C362 329.735 361.895 329.48 361.707 329.293C361.52 329.105 361.265 329 361 329H351C350.735 329 350.48 329.105 350.293 329.293C350.105 329.48 350 329.735 350 330V331C350 331.53 349.789 332.039 349.414 332.414C349.039 332.789 348.53 333 348 333ZM348 333C347.47 333 346.961 332.789 346.586 332.414C346.211 332.039 346 331.53 346 331V317C346 316.47 345.789 315.961 345.414 315.586C345.039 315.211 344.53 315 344 315C343.47 315 342.961 315.211 342.586 315.586C342.211 315.961 342 316.47 342 317V319C342 319.265 342.105 319.52 342.293 319.707C342.48 319.895 342.735 320 343 320H346" stroke="black" stroke-width="2" stroke-linecap="round" stroke-linejoin="round"/>
</g></svg>
