<svg viewBox="0 0 24 24" fill="none" xmlns="http://www.w3.org/2000/svg"><g transform="translate(-372 -312)">
<path id="Vector_461" d="M387 324H382" stroke="black" stroke-width="2" stroke-linecap="round" stroke-linejoin="round"/>
<path id="Vector_462" d="M387 320H382" stroke="black" stroke-width="2" stroke-linecap="round" stroke-linejoin="round"/>
<path id="Vector_463" d="M391 329V317C391 316.47 390.789 315.961 390.414 315.586C390.039 315.211 389.53 315 389 315H376" stroke="black" stroke-width="2" stroke-linecap="round" stroke-linejoin="round"/>
<path id="Vector_464" d="M380 333H392C392.53 333 393.039 332.789 393.414 332.414C393.789 332.039 394 331.53 394 331V330C394 329.735 393.895 329.48 393.707 329.293C393.52 329.105 393.265 329 393 329H383C382.735 329 382.48 329.105 382.293 329.293C382.105 329.48 382 329.735 382 330V331C382 331.53 381.789 332.039 381.414 332.414C381.039 332.789 380.53 333 380 333ZM380 333C379.47 333 378.961 332.789 378.586 332.414C378.211 332.039 378 331.53 378 331V317C378 316.47 377.789 315.961 377.414 315.586C377.039 315.211 376.53 315 376 315C375.47 315 374.961 315.211 374.586 315.586C374.211 315.961 374 316.47 374 317V319C374 319.265 374.105 319.52 374.293 319.707C374.48 319.895 374.735 320 375 320H378" stroke="black" stroke-width="2" stroke-linecap="round" stroke-linejoin="round"/>
</g></svg>
