<svg viewBox="0 0 24 24" fill="none" xmlns="http://www.w3.org/2000/svg"><g transform="translate(-20 -56)">
<path id="Vector" d="M35.7549 70.2549H34.9649L34.6849 69.9849C35.6649 68.8449 36.2549 67.3649 36.2549 65.7549C36.2549 62.1649 33.3449 59.2549 29.7549 59.2549C26.1649 59.2549 23.2549 62.1649 23.2549 65.7549C23.2549 69.3449 26.1649 72.2549 29.7549 72.2549C31.3649 72.2549 32.8449 71.6649 33.9849 70.6849L34.2549 70.9649V71.7549L39.2549 76.7449L40.7449 75.2549L35.7549 70.2549ZM29.7549 70.2549C27.2649 70.2549 25.2549 68.2449 25.2549 65.7549C25.2549 63.2649 27.2649 61.2549 29.7549 61.2549C32.2449 61.2549 34.2549 63.2649 34.2549 65.7549C34.2549 68.2449 32.2449 70.2549 29.7549 70.2549Z" fill="black" fill-opacity="0.56"/>
</g></svg>
