<svg viewBox="0 0 24 24" fill="none" xmlns="http://www.w3.org/2000/svg"><g transform="translate(-308 -88)">
<path id="Vector_85" d="M324 93C324 92.2044 323.579 91.4413 322.828 90.8787C322.078 90.3161 321.061 90 320 90C318.939 90 317.922 90.3161 317.172 90.8787C316.421 91.4413 316 92.2044 316 93C316 97 324 96 324 100C324 100.796 323.579 101.559 322.828 102.121C322.078 102.684 321.061 103 320 103C318.939 103 317.922 102.684 317.172 102.121C316.421 101.559 316 100.796 316 100" stroke="black" stroke-width="2" stroke-linecap="round" stroke-linejoin="round"/>
<path id="Vector_86" d="M316 107C316 107.796 316.421 108.559 317.172 109.121C317.922 109.684 318.939 110 320 110C321.061 110 322.078 109.684 322.828 109.121C323.579 108.559 324 107.796 324 107C324 103 316 104 316 100C316 99.2044 316.421 98.4413 317.172 97.8787C317.922 97.3161 318.939 97 320 97C321.061 97 322.078 97.3161 322.828 97.8787C323.579 98.4413 324 99.2044 324 100" stroke="black" stroke-width="2" stroke-linecap="round" stroke-linejoin="round"/>
</g></svg>
