<svg viewBox="0 0 24 24" fill="none" xmlns="http://www.w3.org/2000/svg"><g transform="translate(-276 -184)">
<path id="Vector_176" d="M290.536 205.686C290.574 205.781 290.64 205.862 290.725 205.918C290.81 205.974 290.911 206.002 291.013 206C291.115 205.997 291.213 205.963 291.296 205.903C291.378 205.843 291.44 205.759 291.473 205.662L297.973 186.662C298.005 186.573 298.011 186.478 297.99 186.386C297.97 186.294 297.924 186.209 297.857 186.143C297.79 186.076 297.706 186.03 297.614 186.009C297.522 185.989 297.426 185.995 297.338 186.027L278.338 192.527C278.241 192.56 278.157 192.622 278.097 192.704C278.037 192.786 278.003 192.885 278 192.987C277.998 193.089 278.026 193.19 278.082 193.275C278.138 193.36 278.219 193.426 278.314 193.464L286.244 196.644C286.494 196.744 286.722 196.895 286.913 197.085C287.104 197.276 287.255 197.504 287.356 197.754L290.536 205.686Z" stroke="black" stroke-width="2" stroke-linecap="round" stroke-linejoin="round"/>
<path id="Vector_177" d="M297.854 186.147L286.914 197.086" stroke="black" stroke-width="2" stroke-linecap="round" stroke-linejoin="round"/>
</g></svg>
