<svg viewBox="0 0 24 24" fill="none" xmlns="http://www.w3.org/2000/svg"><g transform="translate(-308 -184)">
<path id="Vector_178" d="M311.714 187.048C311.624 187.004 311.523 186.988 311.423 187.003C311.324 187.017 311.232 187.061 311.158 187.129C311.085 187.196 311.033 187.285 311.01 187.382C310.987 187.48 310.994 187.582 311.031 187.675L313.874 195.302C314.041 195.752 314.041 196.248 313.874 196.698L311.032 204.325C310.996 204.418 310.989 204.52 311.011 204.617C311.034 204.715 311.086 204.803 311.159 204.871C311.233 204.938 311.325 204.982 311.424 204.997C311.523 205.011 311.624 204.996 311.714 204.952L329.714 196.452C329.799 196.412 329.872 196.348 329.922 196.268C329.973 196.188 330 196.095 330 196C330 195.905 329.973 195.813 329.922 195.733C329.872 195.653 329.799 195.589 329.714 195.548L311.714 187.048Z" stroke="black" stroke-width="2" stroke-linecap="round" stroke-linejoin="round"/>
<path id="Vector_179" d="M314 196H330" stroke="black" stroke-width="2" stroke-linecap="round" stroke-linejoin="round"/>
</g></svg>
