<svg viewBox="0 0 24 24" fill="none" xmlns="http://www.w3.org/2000/svg"><g transform="translate(-244 -184)">
<path id="Vector_230" d="M264 198H260C258.895 198 258 198.895 258 200V204C258 205.105 258.895 206 260 206H264C265.105 206 266 205.105 266 204V200C266 198.895 265.105 198 264 198Z" stroke="black" stroke-width="2" stroke-linecap="round" stroke-linejoin="round"/>
<path id="Vector_231" d="M252 186H248C246.895 186 246 186.895 246 188V192C246 193.105 246.895 194 248 194H252C253.105 194 254 193.105 254 192V188C254 186.895 253.105 186 252 186Z" stroke="black" stroke-width="2" stroke-linecap="round" stroke-linejoin="round"/>
<path id="Vector_232" d="M251 198V199C251 199.53 251.211 200.039 251.586 200.414C251.961 200.789 252.47 201 253 201H254" stroke="black" stroke-width="2" stroke-linecap="round" stroke-linejoin="round"/>
<path id="Vector_233" d="M258 191H259C259.53 191 260.039 191.211 260.414 191.586C260.789 191.961 261 192.47 261 193V194" stroke="black" stroke-width="2" stroke-linecap="round" stroke-linejoin="round"/>
</g></svg>
