<svg viewBox="0 0 24 24" fill="none" xmlns="http://www.w3.org/2000/svg"><g transform="translate(-84 -88)">
<path id="Vector_67" d="M94.8518 102.772L94.4688 103.695" stroke="black" stroke-width="2" stroke-linecap="round" stroke-linejoin="round"/>
<path id="Vector_68" d="M97.1477 102.772C97.5118 102.621 97.8425 102.4 98.1212 102.122C98.3998 101.843 98.6208 101.512 98.7716 101.148C98.9224 100.784 99 100.394 99.0001 100C99.0001 99.6062 98.9225 99.2161 98.7718 98.8521C98.621 98.488 98.4 98.1573 98.1214 97.8786C97.8428 97.6 97.5121 97.379 97.1481 97.2282C96.7841 97.0774 96.3939 96.9998 95.9999 96.9997C95.6059 96.9997 95.2158 97.0773 94.8518 97.2281L94.4688 96.3051" stroke="black" stroke-width="2" stroke-linecap="round" stroke-linejoin="round"/>
<path id="Vector_69" d="M97.1484 97.2281L97.5314 96.3051" stroke="black" stroke-width="2" stroke-linecap="round" stroke-linejoin="round"/>
<path id="Vector_70" d="M97.5303 103.696L97.1483 102.772C96.7843 102.923 96.3941 103 96.0001 103C95.6061 103 95.216 102.923 94.852 102.772C94.488 102.621 94.1572 102.4 93.8786 102.121C93.6001 101.843 93.3791 101.512 93.2283 101.148C93.0776 100.784 93 100.394 93 99.9998C93 99.6058 93.0777 99.2157 93.2285 98.8517C93.3793 98.4877 93.6003 98.1569 93.8789 97.8784C94.1575 97.5998 94.4883 97.3788 94.8523 97.228" stroke="black" stroke-width="2" stroke-linecap="round" stroke-linejoin="round"/>
<path id="Vector_71" d="M98.7725 98.852L99.6955 98.469" stroke="black" stroke-width="2" stroke-linecap="round" stroke-linejoin="round"/>
<path id="Vector_72" d="M98.7725 101.148L99.6955 101.531" stroke="black" stroke-width="2" stroke-linecap="round" stroke-linejoin="round"/>
<path id="Vector_73" d="M88.5 98H88C87.4696 98 86.9609 97.7893 86.5858 97.4142C86.2107 97.0391 86 96.5304 86 96V92C86 91.4696 86.2107 90.9609 86.5858 90.5858C86.9609 90.2107 87.4696 90 88 90H104C104.53 90 105.039 90.2107 105.414 90.5858C105.789 90.9609 106 91.4696 106 92V96C106 96.5304 105.789 97.0391 105.414 97.4142C105.039 97.7893 104.53 98 104 98H103.5" stroke="black" stroke-width="2" stroke-linecap="round" stroke-linejoin="round"/>
<path id="Vector_74" d="M88.5 102H88C87.4696 102 86.9609 102.211 86.5858 102.586C86.2107 102.961 86 103.47 86 104V108C86 108.53 86.2107 109.039 86.5858 109.414C86.9609 109.789 87.4696 110 88 110H104C104.53 110 105.039 109.789 105.414 109.414C105.789 109.039 106 108.53 106 108V104C106 103.47 105.789 102.961 105.414 102.586C105.039 102.211 104.53 102 104 102H103.5" stroke="black" stroke-width="2" stroke-linecap="round" stroke-linejoin="round"/>
<path id="Vector_75" d="M90 106H90.01" stroke="black" stroke-width="2" stroke-linecap="round" stroke-linejoin="round"/>
<path id="Vector_76" d="M90 94H90.01" stroke="black" stroke-width="2" stroke-linecap="round" stroke-linejoin="round"/>
<path id="Vector_77" d="M93.2277 98.852L92.3047 98.469" stroke="black" stroke-width="2" stroke-linecap="round" stroke-linejoin="round"/>
<path id="Vector_78" d="M93.2277 101.148L92.3047 101.531" stroke="black" stroke-width="2" stroke-linecap="round" stroke-linejoin="round"/>
</g></svg>
