<svg viewBox="0 0 24 24" fill="none" xmlns="http://www.w3.org/2000/svg"><g transform="translate(-116 -88)">
<path id="Vector_79" d="M122 98H120C119.47 98 118.961 97.7893 118.586 97.4142C118.211 97.0391 118 96.5304 118 96V92C118 91.4696 118.211 90.9609 118.586 90.5858C118.961 90.2107 119.47 90 120 90H136C136.53 90 137.039 90.2107 137.414 90.5858C137.789 90.9609 138 91.4696 138 92V96C138 96.5304 137.789 97.0391 137.414 97.4142C137.039 97.7893 136.53 98 136 98H134" stroke="black" stroke-width="2" stroke-linecap="round" stroke-linejoin="round"/>
<path id="Vector_80" d="M122 102H120C119.47 102 118.961 102.211 118.586 102.586C118.211 102.961 118 103.47 118 104V108C118 108.53 118.211 109.039 118.586 109.414C118.961 109.789 119.47 110 120 110H136C136.53 110 137.039 109.789 137.414 109.414C137.789 109.039 138 108.53 138 108V104C138 103.47 137.789 102.961 137.414 102.586C137.039 102.211 136.53 102 136 102H134" stroke="black" stroke-width="2" stroke-linecap="round" stroke-linejoin="round"/>
<path id="Vector_81" d="M122 94H122.01" stroke="black" stroke-width="2" stroke-linecap="round" stroke-linejoin="round"/>
<path id="Vector_82" d="M122 106H122.01" stroke="black" stroke-width="2" stroke-linecap="round" stroke-linejoin="round"/>
<path id="Vector_83" d="M129 94L125 100H131L127 106" stroke="black" stroke-width="2" stroke-linecap="round" stroke-linejoin="round"/>
</g></svg>
