<svg viewBox="0 0 24 24" fill="none" xmlns="http://www.w3.org/2000/svg"><g transform="translate(-52 -88)">
<path id="Vector_63" d="M72 90H56C54.8954 90 54 90.8954 54 92V96C54 97.1046 54.8954 98 56 98H72C73.1046 98 74 97.1046 74 96V92C74 90.8954 73.1046 90 72 90Z" stroke="black" stroke-width="2" stroke-linecap="round" stroke-linejoin="round"/>
<path id="Vector_64" d="M72 102H56C54.8954 102 54 102.895 54 104V108C54 109.105 54.8954 110 56 110H72C73.1046 110 74 109.105 74 108V104C74 102.895 73.1046 102 72 102Z" stroke="black" stroke-width="2" stroke-linecap="round" stroke-linejoin="round"/>
<path id="Vector_65" d="M58 94H58.01" stroke="black" stroke-width="2" stroke-linecap="round" stroke-linejoin="round"/>
<path id="Vector_66" d="M58 106H58.01" stroke="black" stroke-width="2" stroke-linecap="round" stroke-linejoin="round"/>
</g></svg>
