<svg viewBox="0 0 24 24" fill="none" xmlns="http://www.w3.org/2000/svg"><g transform="translate(-148 -88)">
<path id="Vector_84" d="M155 90H168C168.53 90 169.039 90.2107 169.414 90.5858C169.789 90.9609 170 91.4696 170 92V96C170 96.5304 169.789 97.0391 169.414 97.4142C169.039 97.7893 168.53 98 168 98H163" stroke="black" stroke-width="2" stroke-linecap="round" stroke-linejoin="round"/>
<path id="Vector_85" d="M158 98L150.5 90.5C150 90 150 90.5 150 93V96C150 96.5305 150.211 97.0392 150.586 97.4143C150.961 97.7893 151.47 98 152 98H158Z" stroke="black" stroke-width="2" stroke-linecap="round" stroke-linejoin="round"/>
<path id="Vector_86" d="M170 105V104C170 103.47 169.789 102.961 169.414 102.586C169.039 102.211 168.53 102 168 102H167" stroke="black" stroke-width="2" stroke-linecap="round" stroke-linejoin="round"/>
<path id="Vector_87" d="M152 102C151.47 102 150.961 102.211 150.586 102.586C150.211 102.961 150 103.47 150 104V108C150 108.53 150.211 109.039 150.586 109.414C150.961 109.789 151.47 110 152 110H168.5L169.5 109.5L170 110L162 102H152Z" stroke="black" stroke-width="2" stroke-linecap="round" stroke-linejoin="round"/>
<path id="Vector_88" d="M154 106H154.01" stroke="black" stroke-width="2" stroke-linecap="round" stroke-linejoin="round"/>
<path id="Vector_89" d="M150 90L170 110" stroke="black" stroke-width="2" stroke-linecap="round" stroke-linejoin="round"/>
</g></svg>
