<svg viewBox="0 0 24 24" fill="none" xmlns="http://www.w3.org/2000/svg"><g transform="translate(-84 -216)">
<path id="Vector_232" d="M98 233H89" stroke="black" stroke-width="2" stroke-linecap="round" stroke-linejoin="round"/>
<path id="Vector_233" d="M103 223H94" stroke="black" stroke-width="2" stroke-linecap="round" stroke-linejoin="round"/>
<path id="Vector_234" d="M101 236C102.657 236 104 234.657 104 233C104 231.343 102.657 230 101 230C99.3431 230 98 231.343 98 233C98 234.657 99.3431 236 101 236Z" stroke="black" stroke-width="2" stroke-linecap="round" stroke-linejoin="round"/>
<path id="Vector_235" d="M91 226C92.6569 226 94 224.657 94 223C94 221.343 92.6569 220 91 220C89.3431 220 88 221.343 88 223C88 224.657 89.3431 226 91 226Z" stroke="black" stroke-width="2" stroke-linecap="round" stroke-linejoin="round"/>
</g></svg>
