<svg viewBox="0 0 24 24" fill="none" xmlns="http://www.w3.org/2000/svg"><g transform="translate(-52 -216)">
<path id="Vector_230" d="M61.6713 220.136C61.7264 219.556 61.9956 219.018 62.4264 218.626C62.8572 218.235 63.4185 218.017 64.0008 218.017C64.5831 218.017 65.1444 218.235 65.5752 218.626C66.006 219.018 66.2752 219.556 66.3303 220.136C66.3634 220.51 66.4863 220.871 66.6884 221.188C66.8906 221.505 67.1662 221.769 67.4918 221.957C67.8174 222.145 68.1834 222.251 68.559 222.268C68.9346 222.284 69.3085 222.21 69.6493 222.051C70.1784 221.811 70.778 221.776 71.3313 221.954C71.8846 222.131 72.3521 222.508 72.6428 223.011C72.9335 223.514 73.0266 224.108 72.9039 224.676C72.7813 225.244 72.4517 225.746 71.9793 226.084C71.6717 226.3 71.4206 226.587 71.2472 226.92C71.0739 227.253 70.9833 227.624 70.9833 228C70.9833 228.375 71.0739 228.746 71.2472 229.079C71.4206 229.412 71.6717 229.699 71.9793 229.915C72.4517 230.253 72.7813 230.755 72.9039 231.323C73.0266 231.891 72.9335 232.485 72.6428 232.988C72.3521 233.491 71.8846 233.868 71.3313 234.046C70.778 234.223 70.1784 234.188 69.6493 233.948C69.3085 233.789 68.9346 233.715 68.559 233.731C68.1834 233.748 67.8174 233.854 67.4918 234.042C67.1662 234.23 66.8906 234.494 66.6884 234.811C66.4863 235.128 66.3634 235.489 66.3303 235.863C66.2752 236.443 66.006 236.981 65.5752 237.373C65.1444 237.765 64.5831 237.982 64.0008 237.982C63.4185 237.982 62.8572 237.765 62.4264 237.373C61.9956 236.981 61.7264 236.443 61.6713 235.863C61.6382 235.488 61.5154 235.127 61.3132 234.81C61.1109 234.493 60.8353 234.23 60.5095 234.042C60.1838 233.854 59.8176 233.747 59.4419 233.731C59.0662 233.715 58.6921 233.789 58.3513 233.948C57.8222 234.188 57.2226 234.223 56.6693 234.046C56.116 233.868 55.6485 233.491 55.3578 232.988C55.0671 232.485 54.974 231.891 55.0967 231.323C55.2193 230.755 55.5489 230.253 56.0213 229.915C56.3289 229.699 56.58 229.412 56.7534 229.079C56.9268 228.746 57.0173 228.375 57.0173 228C57.0173 227.624 56.9268 227.253 56.7534 226.92C56.58 226.587 56.3289 226.3 56.0213 226.084C55.5496 225.745 55.2206 225.244 55.0982 224.676C54.9759 224.108 55.0689 223.516 55.3593 223.013C55.6497 222.51 56.1166 222.133 56.6694 221.955C57.2222 221.778 57.8213 221.812 58.3503 222.051C58.6911 222.21 59.065 222.284 59.4406 222.268C59.8162 222.251 60.1822 222.145 60.5078 221.957C60.8334 221.769 61.109 221.505 61.3112 221.188C61.5133 220.871 61.6362 220.51 61.6693 220.136" stroke="black" stroke-width="2" stroke-linecap="round" stroke-linejoin="round"/>
<path id="Vector_231" d="M64 231C65.6569 231 67 229.657 67 228C67 226.343 65.6569 225 64 225C62.3431 225 61 226.343 61 228C61 229.657 62.3431 231 64 231Z" stroke="black" stroke-width="2" stroke-linecap="round" stroke-linejoin="round"/>
</g></svg>
