<svg viewBox="0 0 24 24" fill="none" xmlns="http://www.w3.org/2000/svg"><g transform="translate(-244 -88)">
<path id="Vector_20" d="M263.14 100.94C263.18 100.64 263.2 100.33 263.2 99.9999C263.2 99.6799 263.18 99.3599 263.13 99.0599L265.16 97.4799C265.34 97.3399 265.39 97.0699 265.28 96.8699L263.36 93.5499C263.24 93.3299 262.99 93.2599 262.77 93.3299L260.38 94.2899C259.88 93.9099 259.35 93.5899 258.76 93.3499L258.4 90.8099C258.36 90.5699 258.16 90.3999 257.92 90.3999H254.08C253.84 90.3999 253.65 90.5699 253.61 90.8099L253.25 93.3499C252.66 93.5899 252.12 93.9199 251.63 94.2899L249.24 93.3299C249.02 93.2499 248.77 93.3299 248.65 93.5499L246.74 96.8699C246.62 97.0799 246.66 97.3399 246.86 97.4799L248.89 99.0599C248.84 99.3599 248.8 99.6899 248.8 99.9999C248.8 100.31 248.82 100.64 248.87 100.94L246.84 102.52C246.66 102.66 246.61 102.93 246.72 103.13L248.64 106.45C248.76 106.67 249.01 106.74 249.23 106.67L251.62 105.71C252.12 106.09 252.65 106.41 253.24 106.65L253.6 109.19C253.65 109.43 253.84 109.6 254.08 109.6H257.92C258.16 109.6 258.36 109.43 258.39 109.19L258.75 106.65C259.34 106.41 259.88 106.09 260.37 105.71L262.76 106.67C262.98 106.75 263.23 106.67 263.35 106.45L265.27 103.13C265.39 102.91 265.34 102.66 265.15 102.52L263.14 100.94ZM256 103.6C254.02 103.6 252.4 101.98 252.4 99.9999C252.4 98.0199 254.02 96.3999 256 96.3999C257.98 96.3999 259.6 98.0199 259.6 99.9999C259.6 101.98 257.98 103.6 256 103.6Z" fill="black" fill-opacity="0.56"/>
</g></svg>
