<svg viewBox="0 0 24 24" fill="none" xmlns="http://www.w3.org/2000/svg"><g transform="translate(-180 -216)">
<path id="Vector_182" d="M188.3 226C188.171 226.007 188.042 225.978 187.929 225.917C187.815 225.856 187.721 225.764 187.656 225.652C187.591 225.541 187.559 225.413 187.562 225.284C187.565 225.155 187.604 225.029 187.674 224.921L191.4 219C191.458 218.895 191.543 218.806 191.646 218.743C191.749 218.68 191.866 218.645 191.987 218.64C192.107 218.636 192.227 218.663 192.334 218.718C192.441 218.774 192.532 218.856 192.598 218.957L196.3 224.9C196.373 225.005 196.416 225.128 196.424 225.255C196.432 225.382 196.405 225.51 196.346 225.623C196.287 225.736 196.199 225.831 196.09 225.898C195.981 225.964 195.855 226 195.728 226H188.3Z" stroke="black" stroke-width="2" stroke-linecap="round" stroke-linejoin="round"/>
<path id="Vector_183" d="M189 230H184C183.448 230 183 230.448 183 231V236C183 236.552 183.448 237 184 237H189C189.552 237 190 236.552 190 236V231C190 230.448 189.552 230 189 230Z" stroke="black" stroke-width="2" stroke-linecap="round" stroke-linejoin="round"/>
<path id="Vector_184" d="M197.5 237C199.433 237 201 235.433 201 233.5C201 231.567 199.433 230 197.5 230C195.567 230 194 231.567 194 233.5C194 235.433 195.567 237 197.5 237Z" stroke="black" stroke-width="2" stroke-linecap="round" stroke-linejoin="round"/>
</g></svg>
