<svg viewBox="0 0 24 24" fill="none" xmlns="http://www.w3.org/2000/svg"><g transform="translate(-84 -88)">
<path id="Vector_56" d="M102 96C103.657 96 105 94.6569 105 93C105 91.3431 103.657 90 102 90C100.343 90 99 91.3431 99 93C99 94.6569 100.343 96 102 96Z" stroke="black" stroke-width="2" stroke-linecap="round" stroke-linejoin="round"/>
<path id="Vector_57" d="M90 103C91.6569 103 93 101.657 93 100C93 98.3431 91.6569 97 90 97C88.3431 97 87 98.3431 87 100C87 101.657 88.3431 103 90 103Z" stroke="black" stroke-width="2" stroke-linecap="round" stroke-linejoin="round"/>
<path id="Vector_58" d="M102 110C103.657 110 105 108.657 105 107C105 105.343 103.657 104 102 104C100.343 104 99 105.343 99 107C99 108.657 100.343 110 102 110Z" stroke="black" stroke-width="2" stroke-linecap="round" stroke-linejoin="round"/>
<path id="Vector_59" d="M92.5898 101.51L99.4198 105.49" stroke="black" stroke-width="2" stroke-linecap="round" stroke-linejoin="round"/>
<path id="Vector_60" d="M99.4098 94.51L92.5898 98.49" stroke="black" stroke-width="2" stroke-linecap="round" stroke-linejoin="round"/>
</g></svg>
