<svg viewBox="0 0 32 32" fill="none" xmlns="http://www.w3.org/2000/svg"><g transform="translate(-100 -56)">
<g id="Group 1">
<path id="Vector_15" d="M116.113 74.0233C119.812 74.0233 122.81 71.0246 122.81 67.3256C122.81 63.6266 119.812 60.6279 116.113 60.6279C112.414 60.6279 109.415 63.6266 109.415 67.3256C109.415 71.0246 112.414 74.0233 116.113 74.0233Z" fill="#036C70"/>
<path id="Vector_16" d="M121.694 79.6046C125.085 79.6046 127.834 76.8559 127.834 73.4651C127.834 70.0743 125.085 67.3256 121.694 67.3256C118.303 67.3256 115.555 70.0743 115.555 73.4651C115.555 76.8559 118.303 79.6046 121.694 79.6046Z" fill="#1A9BA1"/>
<path id="Vector_17" d="M116.95 84.0698C119.57 84.0698 121.694 81.9457 121.694 79.3256C121.694 76.7055 119.57 74.5814 116.95 74.5814C114.33 74.5814 112.206 76.7055 112.206 79.3256C112.206 81.9457 114.33 84.0698 116.95 84.0698Z" fill="#37C6D0"/>
<path id="Vector_18" opacity="0.1" d="M117.229 66.6726V78.5833C117.226 78.9972 116.975 79.369 116.593 79.5266C116.471 79.5781 116.34 79.6047 116.208 79.6047H112.211C112.206 79.5098 112.206 79.4205 112.206 79.3256C112.204 79.2325 112.208 79.1393 112.217 79.0466C112.319 77.2625 113.418 75.6883 115.058 74.9777V73.9396C111.409 73.3613 108.919 69.9343 109.497 66.2851C109.502 66.2599 109.506 66.2346 109.51 66.2094C109.538 66.0211 109.577 65.8348 109.627 65.6512H116.208C116.771 65.6534 117.227 66.1094 117.229 66.6726Z" fill="black"/>
<path id="Vector_19" opacity="0.2" d="M115.65 66.2094H109.51C108.89 69.8519 111.34 73.3076 114.983 73.9278C115.093 73.9466 115.204 73.9626 115.315 73.9759C113.584 74.7963 112.324 77.1266 112.216 79.0465C112.207 79.1393 112.203 79.2325 112.205 79.3256C112.205 79.4205 112.205 79.5098 112.211 79.6047C112.221 79.7923 112.245 79.9789 112.283 80.1628H115.649C116.063 80.1601 116.435 79.9093 116.592 79.5265C116.644 79.4047 116.67 79.2737 116.67 79.1414V67.2307C116.668 66.6678 116.213 66.2118 115.65 66.2094Z" fill="black"/>
<path id="Vector_20" opacity="0.2" d="M115.65 66.2094H109.51C108.89 69.8523 111.34 73.3081 114.983 73.9282C115.058 73.9409 115.133 73.9523 115.207 73.9625C113.533 74.8421 112.322 77.1667 112.217 79.0466H115.65C116.212 79.0423 116.667 78.5875 116.671 78.0252V67.2307C116.669 66.6675 116.213 66.2115 115.65 66.2094Z" fill="black"/>
<path id="Vector_21" opacity="0.2" d="M115.091 66.2094H109.51C108.924 69.6483 111.079 72.9601 114.461 73.8179C113.18 75.2807 112.395 77.1107 112.217 79.0466H115.091C115.654 79.0444 116.11 78.5884 116.113 78.0252V67.2307C116.112 66.6668 115.655 66.2097 115.091 66.2094Z" fill="black"/>
<path id="Vector_22" d="M104.857 66.2094H115.09C115.655 66.2094 116.113 66.6674 116.113 67.2324V77.4653C116.113 78.0304 115.655 78.4884 115.09 78.4884H104.857C104.292 78.4884 103.834 78.0304 103.834 77.4653V67.2324C103.834 66.6674 104.292 66.2094 104.857 66.2094Z" fill="url(#paint0_linear_432_14782)"/>
<path id="Vector_23" d="M108.403 72.2238C108.164 72.0648 107.963 71.8531 107.818 71.6049C107.677 71.3454 107.607 71.0534 107.614 70.7582C107.602 70.3585 107.736 69.9681 107.993 69.6614C108.263 69.3544 108.611 69.127 109.001 69.0039C109.445 68.8577 109.91 68.7857 110.378 68.7907C110.993 68.7683 111.607 68.8542 112.192 69.0447V70.3284C111.938 70.1744 111.661 70.0614 111.371 69.9935C111.057 69.9165 110.735 69.8779 110.412 69.8785C110.071 69.866 109.732 69.9377 109.426 70.0873C109.189 70.1894 109.036 70.4223 109.035 70.68C109.034 70.8364 109.094 70.987 109.203 71.0998C109.33 71.2327 109.482 71.3409 109.649 71.419C109.835 71.5117 110.114 71.6348 110.486 71.7885C110.527 71.8015 110.567 71.8175 110.606 71.8365C110.972 71.9796 111.325 72.1539 111.662 72.3573C111.917 72.5144 112.13 72.7298 112.286 72.9857C112.445 73.2759 112.522 73.6039 112.509 73.9346C112.527 74.3449 112.402 74.7488 112.154 75.0765C111.907 75.3778 111.577 75.5999 111.205 75.715C110.768 75.8522 110.311 75.9185 109.852 75.9115C109.441 75.9133 109.03 75.8797 108.624 75.811C108.282 75.755 107.948 75.6567 107.629 75.5185V74.1651C107.933 74.3824 108.273 74.5449 108.634 74.6451C108.993 74.757 109.366 74.8167 109.742 74.8226C110.09 74.8446 110.438 74.7709 110.747 74.6094C110.963 74.4872 111.095 74.2557 111.09 74.0071C111.091 73.8341 111.023 73.6679 110.9 73.5461C110.747 73.3962 110.57 73.273 110.377 73.1816C110.154 73.07 109.825 72.9228 109.391 72.7401C109.045 72.6013 108.714 72.4283 108.403 72.2238Z" fill="white"/>
</g>
</g></svg>
