<svg viewBox="0 0 24 24" fill="none" xmlns="http://www.w3.org/2000/svg"><g transform="translate(-276 -88)">
<path id="Vector_85" d="M288 100V97C288 96.7348 287.895 96.4804 287.707 96.2929C287.52 96.1054 287.265 96 287 96H285C284.735 96 284.48 96.1054 284.293 96.2929C284.105 96.4804 284 96.7348 284 97V100" stroke="black" stroke-width="2" stroke-linecap="round" stroke-linejoin="round"/>
<path id="Vector_86" d="M292 108V105C292 104.735 291.895 104.48 291.707 104.293C291.52 104.105 291.265 104 291 104H289C288.735 104 288.48 104.105 288.293 104.293C288.105 104.48 288 104.735 288 105V108" stroke="black" stroke-width="2" stroke-linecap="round" stroke-linejoin="round"/>
<path id="Vector_87" d="M296 110V90" stroke="black" stroke-width="2" stroke-linecap="round" stroke-linejoin="round"/>
<path id="Vector_88" d="M280 100H296" stroke="black" stroke-width="2" stroke-linecap="round" stroke-linejoin="round"/>
<path id="Vector_89" d="M280 108H296" stroke="black" stroke-width="2" stroke-linecap="round" stroke-linejoin="round"/>
<path id="Vector_90" d="M280 90V110" stroke="black" stroke-width="2" stroke-linecap="round" stroke-linejoin="round"/>
<path id="Vector_91" d="M280 92H296" stroke="black" stroke-width="2" stroke-linecap="round" stroke-linejoin="round"/>
</g></svg>
