<svg viewBox="0 0 24 24" fill="none" xmlns="http://www.w3.org/2000/svg"><g transform="translate(-148 -152)">
<path id="Vector_153" d="M162 163C162 163.53 161.789 164.039 161.414 164.414C161.039 164.789 160.53 165 160 165C159.47 165 158.961 164.789 158.586 164.414C158.211 164.039 158 163.53 158 163C158 161.939 158.421 160.922 159.172 160.171C159.922 159.421 160.939 159 162 159C163.061 159 164.078 159.421 164.828 160.171C165.579 160.922 166 161.939 166 163C166 164.591 165.368 166.117 164.243 167.243C163.117 168.368 161.591 169 160 169C158.409 169 156.883 168.368 155.757 167.243C154.632 166.117 154 164.591 154 163C154 160.878 154.843 158.843 156.343 157.343C157.843 155.843 159.878 155 162 155C164.122 155 166.157 155.843 167.657 157.343C169.157 158.843 170 160.878 170 163C170 165.652 168.946 168.196 167.071 170.071C165.196 171.946 162.652 173 160 173C157.348 173 154.804 171.946 152.929 170.071C151.054 168.196 150 165.652 150 163C149.996 160.394 150.846 157.858 152.42 155.78C152.573 155.554 152.771 155.362 153.001 155.215C153.232 155.069 153.49 154.971 153.759 154.927C154.029 154.884 154.304 154.897 154.569 154.964C154.834 155.032 155.082 155.152 155.298 155.319C155.514 155.486 155.693 155.696 155.826 155.934C155.958 156.173 156.04 156.437 156.066 156.709C156.092 156.98 156.063 157.255 155.979 157.515C155.896 157.774 155.76 158.015 155.58 158.22" stroke="black" stroke-width="2" stroke-linecap="round" stroke-linejoin="round"/>
</g></svg>
