<svg viewBox="0 0 24 24" fill="none" xmlns="http://www.w3.org/2000/svg"><g transform="translate(-276 -120)">
<path id="Vector_142" d="M296 133C296 138 292.5 140.5 288.34 141.95C288.122 142.024 287.886 142.02 287.67 141.94C283.5 140.5 280 138 280 133V126C280 125.735 280.105 125.48 280.293 125.293C280.48 125.105 280.735 125 281 125C283 125 285.5 123.8 287.24 122.28C287.452 122.099 287.721 122 288 122C288.279 122 288.548 122.099 288.76 122.28C290.51 123.81 293 125 295 125C295.265 125 295.52 125.105 295.707 125.293C295.895 125.48 296 125.735 296 126V133Z" stroke="black" stroke-width="2" stroke-linecap="round" stroke-linejoin="round"/>
<path id="Vector_143" d="M285.1 129C285.34 128.339 285.804 127.783 286.413 127.429C287.021 127.076 287.734 126.948 288.428 127.067C289.121 127.186 289.751 127.545 290.206 128.081C290.662 128.617 290.914 129.297 290.92 130C290.92 132 287.92 133 287.92 133" stroke="black" stroke-width="2" stroke-linecap="round" stroke-linejoin="round"/>
<path id="Vector_144" d="M288 137H288.01" stroke="black" stroke-width="2" stroke-linecap="round" stroke-linejoin="round"/>
</g></svg>
