<svg viewBox="0 0 24 24" fill="none" xmlns="http://www.w3.org/2000/svg"><g transform="translate(-52 -120)">
<path id="Vector_108" d="M62.9289 134.467L62.5459 135.391" stroke="black" stroke-width="2" stroke-linecap="round" stroke-linejoin="round"/>
<path id="Vector_109" d="M62.9289 128.923L62.5459 128" stroke="black" stroke-width="2" stroke-linecap="round" stroke-linejoin="round"/>
<path id="Vector_110" d="M65.2246 128.923L65.6076 128" stroke="black" stroke-width="2" stroke-linecap="round" stroke-linejoin="round"/>
<path id="Vector_111" d="M65.6066 135.391L65.2246 134.467" stroke="black" stroke-width="2" stroke-linecap="round" stroke-linejoin="round"/>
<path id="Vector_112" d="M66.8486 130.547L67.7716 130.164" stroke="black" stroke-width="2" stroke-linecap="round" stroke-linejoin="round"/>
<path id="Vector_113" d="M66.8486 132.843L67.7716 133.226" stroke="black" stroke-width="2" stroke-linecap="round" stroke-linejoin="round"/>
<path id="Vector_114" d="M72 133C72 138 68.5 140.5 64.34 141.95C64.1222 142.024 63.8855 142.02 63.67 141.94C59.5 140.5 56 138 56 133V126C56 125.735 56.1054 125.48 56.2929 125.293C56.4804 125.105 56.7348 125 57 125C59 125 61.5 123.8 63.24 122.28C63.4519 122.099 63.7214 122 64 122C64.2786 122 64.5481 122.099 64.76 122.28C66.51 123.81 69 125 71 125C71.2652 125 71.5196 125.105 71.7071 125.293C71.8946 125.48 72 125.735 72 126V133Z" stroke="black" stroke-width="2" stroke-linecap="round" stroke-linejoin="round"/>
<path id="Vector_115" d="M61.3048 130.547L60.3818 130.164" stroke="black" stroke-width="2" stroke-linecap="round" stroke-linejoin="round"/>
<path id="Vector_116" d="M61.3048 132.843L60.3818 133.226" stroke="black" stroke-width="2" stroke-linecap="round" stroke-linejoin="round"/>
<path id="Vector_117" d="M64.0771 134.695C65.734 134.695 67.0771 133.352 67.0771 131.695C67.0771 130.038 65.734 128.695 64.0771 128.695C62.4203 128.695 61.0771 130.038 61.0771 131.695C61.0771 133.352 62.4203 134.695 64.0771 134.695Z" stroke="black" stroke-width="2" stroke-linecap="round" stroke-linejoin="round"/>
</g></svg>
