<svg viewBox="0 0 24 24" fill="none" xmlns="http://www.w3.org/2000/svg"><g transform="translate(-244 -120)">
<path id="Vector_139" d="M264 133C264 138 260.5 140.5 256.34 141.95C256.122 142.024 255.886 142.02 255.67 141.94C251.5 140.5 248 138 248 133V126C248 125.735 248.105 125.48 248.293 125.293C248.48 125.105 248.735 125 249 125C251 125 253.5 123.8 255.24 122.28C255.452 122.099 255.721 122 256 122C256.279 122 256.548 122.099 256.76 122.28C258.51 123.81 261 125 263 125C263.265 125 263.52 125.105 263.707 125.293C263.895 125.48 264 125.735 264 126V133Z" stroke="black" stroke-width="2" stroke-linecap="round" stroke-linejoin="round"/>
<path id="Vector_140" d="M253 132H259" stroke="black" stroke-width="2" stroke-linecap="round" stroke-linejoin="round"/>
<path id="Vector_141" d="M256 129V135" stroke="black" stroke-width="2" stroke-linecap="round" stroke-linejoin="round"/>
</g></svg>
