<svg viewBox="0 0 24 24" fill="none" xmlns="http://www.w3.org/2000/svg"><g transform="translate(-20 -120)">
<path id="Vector_106" d="M40 133C40 138 36.5 140.5 32.34 141.95C32.1222 142.024 31.8855 142.02 31.67 141.94C27.5 140.5 24 138 24 133V126C24 125.735 24.1054 125.48 24.2929 125.293C24.4804 125.105 24.7348 125 25 125C27 125 29.5 123.8 31.24 122.28C31.4519 122.099 31.7214 122 32 122C32.2786 122 32.5481 122.099 32.76 122.28C34.51 123.81 37 125 39 125C39.2652 125 39.5196 125.105 39.7071 125.293C39.8946 125.48 40 125.735 40 126V133Z" stroke="black" stroke-width="2" stroke-linecap="round" stroke-linejoin="round"/>
<path id="Vector_107" d="M29 132L31 134L35 130" stroke="black" stroke-width="2" stroke-linecap="round" stroke-linejoin="round"/>
</g></svg>
