<svg viewBox="0 0 24 24" fill="none" xmlns="http://www.w3.org/2000/svg"><g transform="translate(-212 -120)">
<path id="Vector_136" d="M214 122L234 142" stroke="black" stroke-width="2" stroke-linecap="round" stroke-linejoin="round"/>
<path id="Vector_137" d="M217 125C216.735 125 216.48 125.105 216.293 125.293C216.105 125.48 216 125.735 216 126V133C216 138 219.5 140.5 223.67 141.94C223.886 142.02 224.122 142.024 224.34 141.95C226.69 141.13 228.82 139.98 230.24 138.24" stroke="black" stroke-width="2" stroke-linecap="round" stroke-linejoin="round"/>
<path id="Vector_138" d="M221.309 123.652C221.995 123.258 222.642 122.799 223.24 122.28C223.451 122.099 223.721 122 224 122C224.278 122 224.548 122.099 224.76 122.28C226.51 123.81 229 125 231 125C231.265 125 231.519 125.105 231.707 125.293C231.894 125.48 232 125.735 232 126V133C232 133.423 231.974 133.845 231.92 134.264" stroke="black" stroke-width="2" stroke-linecap="round" stroke-linejoin="round"/>
</g></svg>
