<svg viewBox="0 0 24 24" fill="none" xmlns="http://www.w3.org/2000/svg"><g transform="translate(-84 -120)">
<path id="Vector_118" d="M95 142C91.194 140.55 88 138.034 88 133V126C88 125.735 88.1054 125.48 88.2929 125.293C88.4804 125.105 88.7348 125 89 125C91 125 93.5 123.8 95.24 122.28C95.4519 122.099 95.7214 122 96 122C96.2786 122 96.5481 122.099 96.76 122.28C98.51 123.81 101 125 103 125C103.265 125 103.52 125.105 103.707 125.293C103.895 125.48 104 125.735 104 126V130" stroke="black" stroke-width="2" stroke-linecap="round" stroke-linejoin="round"/>
<path id="Vector_119" d="M98.923 136.547L98 136.164" stroke="black" stroke-width="2" stroke-linecap="round" stroke-linejoin="round"/>
<path id="Vector_120" d="M98.923 138.843L98 139.226" stroke="black" stroke-width="2" stroke-linecap="round" stroke-linejoin="round"/>
<path id="Vector_121" d="M100.547 134.923L100.164 134" stroke="black" stroke-width="2" stroke-linecap="round" stroke-linejoin="round"/>
<path id="Vector_122" d="M100.547 140.467L100.164 141.391" stroke="black" stroke-width="2" stroke-linecap="round" stroke-linejoin="round"/>
<path id="Vector_123" d="M102.843 134.923L103.226 134" stroke="black" stroke-width="2" stroke-linecap="round" stroke-linejoin="round"/>
<path id="Vector_124" d="M103.225 141.391L102.843 140.467" stroke="black" stroke-width="2" stroke-linecap="round" stroke-linejoin="round"/>
<path id="Vector_125" d="M104.467 136.547L105.39 136.164" stroke="black" stroke-width="2" stroke-linecap="round" stroke-linejoin="round"/>
<path id="Vector_126" d="M104.467 138.843L105.39 139.226" stroke="black" stroke-width="2" stroke-linecap="round" stroke-linejoin="round"/>
<path id="Vector_127" d="M101.695 140.695C103.352 140.695 104.695 139.352 104.695 137.695C104.695 136.038 103.352 134.695 101.695 134.695C100.038 134.695 98.6953 136.038 98.6953 137.695C98.6953 139.352 100.038 140.695 101.695 140.695Z" stroke="black" stroke-width="2" stroke-linecap="round" stroke-linejoin="round"/>
</g></svg>
