<svg viewBox="0 0 24 24" fill="none" xmlns="http://www.w3.org/2000/svg"><g transform="translate(-340 -88)">
<path id="Vector_101" d="M360 101C360 106 356.5 108.5 352.34 109.95C352.122 110.024 351.886 110.02 351.67 109.94C347.5 108.5 344 106 344 101V94C344 93.7347 344.105 93.4804 344.293 93.2929C344.48 93.1053 344.735 93 345 93C347 93 349.5 91.8 351.24 90.28C351.452 90.099 351.721 89.9995 352 89.9995C352.279 89.9995 352.548 90.099 352.76 90.28C354.51 91.81 357 93 359 93C359.265 93 359.52 93.1053 359.707 93.2929C359.895 93.4804 360 93.7347 360 94V101Z" stroke="black" stroke-width="2" stroke-linecap="round" stroke-linejoin="round"/>
<path id="Vector_102" d="M352 96V100" stroke="black" stroke-width="2" stroke-linecap="round" stroke-linejoin="round"/>
<path id="Vector_103" d="M352 104H352.01" stroke="black" stroke-width="2" stroke-linecap="round" stroke-linejoin="round"/>
</g></svg>
