<svg viewBox="0 0 24 24" fill="none" xmlns="http://www.w3.org/2000/svg"><g transform="translate(-372 -88)">
<path id="Vector_104" d="M392 101C392 106 388.5 108.5 384.34 109.95C384.122 110.024 383.886 110.02 383.67 109.94C379.5 108.5 376 106 376 101V94C376 93.7347 376.105 93.4804 376.293 93.2929C376.48 93.1053 376.735 93 377 93C379 93 381.5 91.8 383.24 90.28C383.452 90.099 383.721 89.9995 384 89.9995C384.279 89.9995 384.548 90.099 384.76 90.28C386.51 91.81 389 93 391 93C391.265 93 391.52 93.1053 391.707 93.2929C391.895 93.4804 392 93.7347 392 94V101Z" stroke="black" stroke-width="2" stroke-linecap="round" stroke-linejoin="round"/>
<path id="Vector_105" d="M376.243 93.21L390.633 105.682" stroke="black" stroke-width="2" stroke-linecap="round" stroke-linejoin="round"/>
</g></svg>
