<svg viewBox="0 0 24 24" fill="none" xmlns="http://www.w3.org/2000/svg"><g transform="translate(-308 -88)">
<path id="Vector_100" d="M328 101C328 106 324.5 108.5 320.34 109.95C320.122 110.024 319.886 110.02 319.67 109.94C315.5 108.5 312 106 312 101V94C312 93.7347 312.105 93.4804 312.293 93.2929C312.48 93.1053 312.735 93 313 93C315 93 317.5 91.8 319.24 90.28C319.452 90.099 319.721 89.9995 320 89.9995C320.279 89.9995 320.548 90.099 320.76 90.28C322.51 91.81 325 93 327 93C327.265 93 327.52 93.1053 327.707 93.2929C327.895 93.4804 328 93.7347 328 94V101Z" stroke="black" stroke-width="2" stroke-linecap="round" stroke-linejoin="round"/>
</g></svg>
