<svg viewBox="0 0 24 24" fill="none" xmlns="http://www.w3.org/2000/svg"><g transform="translate(-340 -120)">
<path id="Vector_148" d="M360 133C360 138 356.5 140.5 352.34 141.95C352.122 142.024 351.886 142.02 351.67 141.94C347.5 140.5 344 138 344 133V126C344 125.735 344.105 125.48 344.293 125.293C344.48 125.105 344.735 125 345 125C347 125 349.5 123.8 351.24 122.28C351.452 122.099 351.721 122 352 122C352.279 122 352.548 122.099 352.76 122.28C354.51 123.81 357 125 359 125C359.265 125 359.52 125.105 359.707 125.293C359.895 125.48 360 125.735 360 126V133Z" stroke="black" stroke-width="2" stroke-linecap="round" stroke-linejoin="round"/>
<path id="Vector_149" d="M354.5 129.5L349.5 134.5" stroke="black" stroke-width="2" stroke-linecap="round" stroke-linejoin="round"/>
<path id="Vector_150" d="M349.5 129.5L354.5 134.5" stroke="black" stroke-width="2" stroke-linecap="round" stroke-linejoin="round"/>
</g></svg>
