<svg viewBox="0 0 24 24" fill="none" xmlns="http://www.w3.org/2000/svg"><g transform="translate(-148 -120)">
<path id="Vector_132" d="M168 133C168 138 164.5 140.5 160.34 141.95C160.122 142.024 159.886 142.02 159.67 141.94C155.5 140.5 152 138 152 133V126C152 125.735 152.105 125.48 152.293 125.293C152.48 125.105 152.735 125 153 125C155 125 157.5 123.8 159.24 122.28C159.452 122.099 159.721 122 160 122C160.279 122 160.548 122.099 160.76 122.28C162.51 123.81 165 125 167 125C167.265 125 167.52 125.105 167.707 125.293C167.895 125.48 168 125.735 168 126V133Z" stroke="black" stroke-width="2" stroke-linecap="round" stroke-linejoin="round"/>
<path id="Vector_133" d="M160 142V122" stroke="black" stroke-width="2" stroke-linecap="round" stroke-linejoin="round"/>
</g></svg>
