<svg viewBox="0 0 24 24" fill="none" xmlns="http://www.w3.org/2000/svg"><g transform="translate(-180 -120)">
<path id="Vector_134" d="M200 133C200 138 196.5 140.5 192.34 141.95C192.122 142.024 191.886 142.02 191.67 141.94C187.5 140.5 184 138 184 133V126C184 125.735 184.105 125.48 184.293 125.293C184.48 125.105 184.735 125 185 125C187 125 189.5 123.8 191.24 122.28C191.452 122.099 191.721 122 192 122C192.279 122 192.548 122.099 192.76 122.28C194.51 123.81 197 125 199 125C199.265 125 199.52 125.105 199.707 125.293C199.895 125.48 200 125.735 200 126V133Z" stroke="black" stroke-width="2" stroke-linecap="round" stroke-linejoin="round"/>
<path id="Vector_135" d="M189 132H195" stroke="black" stroke-width="2" stroke-linecap="round" stroke-linejoin="round"/>
</g></svg>
