<svg viewBox="0 0 24 24" fill="none" xmlns="http://www.w3.org/2000/svg"><g transform="translate(-308 -120)">
<path id="Vector_145" d="M328 133C328 138 324.5 140.5 320.34 141.95C320.122 142.024 319.886 142.02 319.67 141.94C315.5 140.5 312 138 312 133V126C312 125.735 312.105 125.48 312.293 125.293C312.48 125.105 312.735 125 313 125C315 125 317.5 123.8 319.24 122.28C319.452 122.099 319.721 122 320 122C320.279 122 320.548 122.099 320.76 122.28C322.51 123.81 325 125 327 125C327.265 125 327.52 125.105 327.707 125.293C327.895 125.48 328 125.735 328 126V133Z" stroke="black" stroke-width="2" stroke-linecap="round" stroke-linejoin="round"/>
<path id="Vector_146" d="M314.376 138.91C314.803 137.762 315.57 136.772 316.576 136.074C317.582 135.375 318.777 135 320.002 135.001C321.226 135.001 322.421 135.376 323.426 136.075C324.432 136.775 325.199 137.765 325.625 138.913" stroke="black" stroke-width="2" stroke-linecap="round" stroke-linejoin="round"/>
<path id="Vector_147" d="M320 135C322.209 135 324 133.209 324 131C324 128.791 322.209 127 320 127C317.791 127 316 128.791 316 131C316 133.209 317.791 135 320 135Z" stroke="black" stroke-width="2" stroke-linecap="round" stroke-linejoin="round"/>
</g></svg>
