<svg viewBox="0 0 24 24" fill="none" xmlns="http://www.w3.org/2000/svg"><g transform="translate(-116 -120)">
<path id="Vector_128" d="M136 133C136 138 132.5 140.5 128.34 141.95C128.122 142.024 127.886 142.02 127.67 141.94C123.5 140.5 120 138 120 133V126C120 125.735 120.105 125.48 120.293 125.293C120.48 125.105 120.735 125 121 125C123 125 125.5 123.8 127.24 122.28C127.452 122.099 127.721 122 128 122C128.279 122 128.548 122.099 128.76 122.28C130.51 123.81 133 125 135 125C135.265 125 135.52 125.105 135.707 125.293C135.895 125.48 136 125.735 136 126V133Z" stroke="black" stroke-width="2" stroke-linecap="round" stroke-linejoin="round"/>
<path id="Vector_129" d="M124 132H124.01" stroke="black" stroke-width="2" stroke-linecap="round" stroke-linejoin="round"/>
<path id="Vector_130" d="M128 132H128.01" stroke="black" stroke-width="2" stroke-linecap="round" stroke-linejoin="round"/>
<path id="Vector_131" d="M132 132H132.01" stroke="black" stroke-width="2" stroke-linecap="round" stroke-linejoin="round"/>
</g></svg>
