<svg viewBox="0 0 24 24" fill="none" xmlns="http://www.w3.org/2000/svg"><g transform="translate(-116 -120)">
<path id="Vector_137" d="M128 130.189V134" stroke="black" stroke-width="2" stroke-linecap="round" stroke-linejoin="round"/>
<path id="Vector_138" d="M128 122V125" stroke="black" stroke-width="2" stroke-linecap="round" stroke-linejoin="round"/>
<path id="Vector_139" d="M135 133V127C135 126.47 134.789 125.961 134.414 125.586C134.039 125.211 133.53 125 133 125H123C122.47 125 121.961 125.211 121.586 125.586C121.211 125.961 121 126.47 121 127V133" stroke="black" stroke-width="2" stroke-linecap="round" stroke-linejoin="round"/>
<path id="Vector_140" d="M135.38 140C136.455 138.185 137.015 136.11 137 134L128.812 130.361C128.556 130.247 128.279 130.189 128 130.189C127.72 130.189 127.443 130.247 127.188 130.361L119 134C118.953 136.844 119.953 139.605 121.81 141.76" stroke="black" stroke-width="2" stroke-linecap="round" stroke-linejoin="round"/>
<path id="Vector_141" d="M118 141C118.6 141.5 119.2 142 120.5 142C123 142 123 140 125.5 140C126.8 140 127.4 140.5 128 141C128.6 141.5 129.2 142 130.5 142C133 142 133 140 135.5 140C136.8 140 137.4 140.5 138 141" stroke="black" stroke-width="2" stroke-linecap="round" stroke-linejoin="round"/>
</g></svg>
