<svg viewBox="0 0 24 24" fill="none" xmlns="http://www.w3.org/2000/svg"><g transform="translate(-372 -56)">
<path id="Vector_55" d="M392.38 59.46L388 58C388 59.0609 387.578 60.0783 386.828 60.8284C386.078 61.5786 385.061 62 384 62C382.939 62 381.922 61.5786 381.171 60.8284C380.421 60.0783 380 59.0609 380 58L375.62 59.46C375.167 59.6108 374.783 59.9184 374.538 60.3273C374.292 60.7363 374.2 61.2196 374.28 61.69L374.86 65.16C374.898 65.3949 375.018 65.6085 375.2 65.7625C375.381 65.9165 375.612 66.0007 375.85 66H378V76C378 77.1 378.9 78 380 78H388C388.53 78 389.039 77.7893 389.414 77.4142C389.789 77.0391 390 76.5304 390 76V66H392.15C392.388 66.0007 392.618 65.9165 392.8 65.7625C392.981 65.6085 393.102 65.3949 393.14 65.16L393.72 61.69C393.799 61.2196 393.708 60.7363 393.462 60.3273C393.216 59.9184 392.832 59.6108 392.38 59.46Z" stroke="black" stroke-width="2" stroke-linecap="round" stroke-linejoin="round"/>
</g></svg>
