<svg viewBox="0 0 24 24" fill="none" xmlns="http://www.w3.org/2000/svg"><g transform="translate(-148 -88)">
<path id="Vector_78" d="M164 98C164 99.0609 163.579 100.078 162.828 100.828C162.078 101.579 161.061 102 160 102C158.939 102 157.922 101.579 157.172 100.828C156.421 100.078 156 99.0609 156 98" stroke="black" stroke-width="2" stroke-linecap="round" stroke-linejoin="round"/>
<path id="Vector_79" d="M151.103 94.0341H168.897" stroke="black" stroke-width="2" stroke-linecap="round" stroke-linejoin="round"/>
<path id="Vector_80" d="M151.4 93.467C151.14 93.8132 151 94.2343 151 94.667V108C151 108.53 151.211 109.039 151.586 109.414C151.961 109.789 152.47 110 153 110H167C167.53 110 168.039 109.789 168.414 109.414C168.789 109.039 169 108.53 169 108V94.667C169 94.2343 168.86 93.8132 168.6 93.467L166.6 90.8C166.414 90.5516 166.172 90.35 165.894 90.2111C165.617 90.0723 165.31 90 165 90H155C154.69 90 154.383 90.0723 154.106 90.2111C153.828 90.35 153.586 90.5516 153.4 90.8L151.4 93.467Z" stroke="black" stroke-width="2" stroke-linecap="round" stroke-linejoin="round"/>
</g></svg>
