<svg viewBox="0 0 24 24" fill="none" xmlns="http://www.w3.org/2000/svg"><g transform="translate(-84 -56)">
<path id="Vector_3" d="M92 74C90.9 74 90.01 74.9 90.01 76C90.01 77.1 90.9 78 92 78C93.1 78 94 77.1 94 76C94 74.9 93.1 74 92 74ZM86 58V60H88L91.6 67.59L90.25 70.04C90.09 70.32 90 70.65 90 71C90 72.1 90.9 73 92 73H104V71H92.42C92.28 71 92.17 70.89 92.17 70.75L92.2 70.63L93.1 69H100.55C101.3 69 101.96 68.59 102.3 67.97L105.88 61.48C105.96 61.34 106 61.17 106 61C106 60.45 105.55 60 105 60H90.21L89.27 58H86ZM102 74C100.9 74 100.01 74.9 100.01 76C100.01 77.1 100.9 78 102 78C103.1 78 104 77.1 104 76C104 74.9 103.1 74 102 74Z" fill="black" fill-opacity="0.56"/>
</g></svg>
