<svg viewBox="0 0 24 24" fill="none" xmlns="http://www.w3.org/2000/svg"><g transform="translate(-212 -88)">
<path id="Vector_88" d="M220 110C220.552 110 221 109.552 221 109C221 108.448 220.552 108 220 108C219.448 108 219 108.448 219 109C219 109.552 219.448 110 220 110Z" stroke="black" stroke-width="2" stroke-linecap="round" stroke-linejoin="round"/>
<path id="Vector_89" d="M231 110C231.552 110 232 109.552 232 109C232 108.448 231.552 108 231 108C230.448 108 230 108.448 230 109C230 109.552 230.448 110 231 110Z" stroke="black" stroke-width="2" stroke-linecap="round" stroke-linejoin="round"/>
<path id="Vector_90" d="M214.05 90.05H216.05L218.71 102.47C218.807 102.925 219.06 103.332 219.426 103.62C219.791 103.908 220.245 104.06 220.71 104.05H230.49C230.945 104.049 231.386 103.893 231.741 103.608C232.095 103.322 232.342 102.925 232.44 102.48L234.09 95.05H217.12" stroke="black" stroke-width="2" stroke-linecap="round" stroke-linejoin="round"/>
</g></svg>
