<svg viewBox="0 0 24 24" fill="none" xmlns="http://www.w3.org/2000/svg"><g transform="translate(-308 -88)">
<path id="Vector_113" d="M329.56 92.5601C329.699 92.6994 329.81 92.8648 329.885 93.0468C329.961 93.2289 330 93.424 330 93.6211C330 93.8181 329.961 94.0133 329.885 94.1953C329.81 94.3774 329.699 94.5428 329.56 94.6821L329.09 95.1521C328.525 95.7014 327.766 96.0062 326.978 96.0006C326.19 95.9949 325.435 95.6794 324.878 95.1221C324.599 94.8435 324.378 94.5127 324.227 94.1487C324.077 93.7847 323.999 93.3946 323.999 93.0006C323.999 92.6065 324.077 92.2164 324.227 91.8524C324.378 91.4884 324.599 91.1576 324.878 90.8791L325.318 90.4391C325.599 90.1579 325.981 89.9999 326.378 89.9999C326.776 89.9999 327.158 90.1579 327.439 90.4391L329.56 92.5601Z" stroke="black" stroke-width="2" stroke-linecap="round" stroke-linejoin="round"/>
<path id="Vector_114" d="M311 110C310.735 110 310.48 109.895 310.293 109.707C310.105 109.52 310 109.265 310 109V105.414C310 105.149 310.105 104.895 310.293 104.707L313.648 101.352C313.874 101.126 314.18 100.999 314.5 100.999C314.82 100.999 315.126 101.126 315.352 101.352L318.648 104.648C318.874 104.874 319.001 105.18 319.001 105.5C319.001 105.82 318.874 106.126 318.648 106.352L315.293 109.707C315.106 109.895 314.851 110 314.586 110H311Z" stroke="black" stroke-width="2" stroke-linecap="round" stroke-linejoin="round"/>
<path id="Vector_115" d="M317 103L324.879 95.1219" stroke="black" stroke-width="2" stroke-linecap="round" stroke-linejoin="round"/>
</g></svg>
