<svg viewBox="0 0 24 24" fill="none" xmlns="http://www.w3.org/2000/svg"><g transform="translate(-340 -88)">
<path id="Vector_116" d="M344 101V92C344 91.4696 344.211 90.9609 344.586 90.5858C344.961 90.2107 345.47 90 346 90H354C354.317 89.9992 354.631 90.0612 354.924 90.1824C355.216 90.3036 355.482 90.4815 355.706 90.706L359.294 94.294C359.518 94.5177 359.696 94.7836 359.818 95.0764C359.939 95.3692 360.001 95.6831 360 96V101" stroke="black" stroke-width="2" stroke-linecap="round" stroke-linejoin="round"/>
<path id="Vector_117" d="M354 90V95C354 95.2652 354.105 95.5196 354.293 95.7071C354.48 95.8946 354.735 96 355 96H360" stroke="black" stroke-width="2" stroke-linecap="round" stroke-linejoin="round"/>
<path id="Vector_118" d="M350 110V105" stroke="black" stroke-width="2" stroke-linecap="round" stroke-linejoin="round"/>
<path id="Vector_119" d="M354 107V105" stroke="black" stroke-width="2" stroke-linecap="round" stroke-linejoin="round"/>
<path id="Vector_120" d="M358 108V105" stroke="black" stroke-width="2" stroke-linecap="round" stroke-linejoin="round"/>
<path id="Vector_121" d="M342 101H362" stroke="black" stroke-width="2" stroke-linecap="round" stroke-linejoin="round"/>
<path id="Vector_122" d="M346 108V105" stroke="black" stroke-width="2" stroke-linecap="round" stroke-linejoin="round"/>
</g></svg>
