<svg viewBox="0 0 24 24" fill="none" xmlns="http://www.w3.org/2000/svg"><g transform="translate(-116 -184)">
<path id="Vector_211" d="M127 196H127.01" stroke="black" stroke-width="2" stroke-linecap="round" stroke-linejoin="round"/>
<path id="Vector_212" d="M129 206C129.5 205.5 130.12 205 131.5 205C130.12 205 129.5 204.5 129 204" stroke="black" stroke-width="2" stroke-linecap="round" stroke-linejoin="round"/>
<path id="Vector_213" d="M130 186C129.705 186.589 129.239 187.076 128.664 187.396C128.088 187.717 127.429 187.857 126.773 187.798L120.603 187.237C120.281 187.206 119.956 187.241 119.647 187.339C119.339 187.438 119.054 187.598 118.81 187.81C118.565 188.022 118.367 188.282 118.226 188.573C118.085 188.865 118.004 189.182 117.99 189.505C117.975 189.828 118.026 190.151 118.14 190.454C118.254 190.757 118.429 191.033 118.653 191.267C118.877 191.5 119.147 191.685 119.445 191.812C119.743 191.938 120.063 192.002 120.387 192H131.5C133.224 192 134.877 192.685 136.096 193.904C137.315 195.123 138 196.776 138 198.5C138 200.224 137.315 201.877 136.096 203.096C134.877 204.315 133.224 205 131.5 205C132.163 205 132.799 204.737 133.268 204.268C133.736 203.799 134 203.163 134 202.5C134 201.837 133.736 201.201 133.268 200.732C132.799 200.263 132.163 200 131.5 200H128C126.143 200 124.363 199.263 123.05 197.95C121.737 196.637 121 194.857 121 193V192" stroke="black" stroke-width="2" stroke-linecap="round" stroke-linejoin="round"/>
<path id="Vector_214" d="M130 192C130.657 193.231 131 194.605 131 196C131 197.395 130.657 198.769 130 200" stroke="black" stroke-width="2" stroke-linecap="round" stroke-linejoin="round"/>
<path id="Vector_215" d="M132 200C134 200 136.5 196 136 194" stroke="black" stroke-width="2" stroke-linecap="round" stroke-linejoin="round"/>
</g></svg>
