<svg viewBox="0 0 24 24" fill="none" xmlns="http://www.w3.org/2000/svg"><g transform="translate(-180 -152)">
<path id="Vector_154" d="M192 174V168.828C192 168.298 191.789 167.789 191.414 167.414L189.5 165.5" stroke="black" stroke-width="2" stroke-linecap="round" stroke-linejoin="round"/>
<path id="Vector_155" d="M194.5 166.5L192 169" stroke="black" stroke-width="2" stroke-linecap="round" stroke-linejoin="round"/>
<path id="Vector_156" d="M197 160.8C198.163 161.467 199.068 162.505 199.573 163.746C200.077 164.988 200.151 166.363 199.783 167.652C199.414 168.941 198.625 170.069 197.541 170.857C196.457 171.645 195.14 172.048 193.8 172H190C188.629 171.907 187.323 171.382 186.269 170.5C185.215 169.618 184.468 168.425 184.135 167.091C183.801 165.758 183.899 164.354 184.414 163.08C184.929 161.805 185.834 160.727 187 160C187 158.674 187.527 157.402 188.465 156.464C189.402 155.527 190.674 155 192 155C193.326 155 194.598 155.527 195.536 156.464C196.473 157.402 197 158.674 197 160V160.8Z" stroke="black" stroke-width="2" stroke-linecap="round" stroke-linejoin="round"/>
</g></svg>
