<svg viewBox="0 0 24 24" fill="none" xmlns="http://www.w3.org/2000/svg"><g transform="translate(-276 -184)">
<path id="Vector_220" d="M294 198L298 202L294 206" stroke="black" stroke-width="2" stroke-linecap="round" stroke-linejoin="round"/>
<path id="Vector_221" d="M294 186L298 190L294 194" stroke="black" stroke-width="2" stroke-linecap="round" stroke-linejoin="round"/>
<path id="Vector_222" d="M278 202H279.973C280.619 202.005 281.257 201.852 281.832 201.556C282.407 201.26 282.901 200.829 283.273 200.3L288.727 191.7C289.099 191.171 289.593 190.74 290.168 190.444C290.743 190.148 291.381 189.996 292.027 190H298" stroke="black" stroke-width="2" stroke-linecap="round" stroke-linejoin="round"/>
<path id="Vector_223" d="M278 190H279.972C280.717 189.995 281.45 190.198 282.086 190.587C282.722 190.976 283.237 191.534 283.572 192.2" stroke="black" stroke-width="2" stroke-linecap="round" stroke-linejoin="round"/>
<path id="Vector_224" d="M298 202H291.959C291.303 201.993 290.66 201.826 290.084 201.512C289.509 201.198 289.019 200.747 288.659 200.2L288.3 199.75" stroke="black" stroke-width="2" stroke-linecap="round" stroke-linejoin="round"/>
</g></svg>
