<svg viewBox="0 0 24 24" fill="none" xmlns="http://www.w3.org/2000/svg"><g transform="translate(-116 -120)">
<path id="Vector_63" d="M134 127V125C134 124.735 133.895 124.48 133.707 124.293C133.52 124.105 133.265 124 133 124H122.5C122.407 124 122.316 124.026 122.237 124.075C122.158 124.123 122.094 124.193 122.053 124.276C122.011 124.359 121.994 124.452 122.002 124.545C122.01 124.637 122.044 124.726 122.1 124.8L126.6 130.8C126.86 131.146 127 131.567 127 132C127 132.433 126.86 132.854 126.6 133.2L122.1 139.2C122.044 139.274 122.01 139.363 122.002 139.455C121.994 139.548 122.011 139.641 122.053 139.724C122.094 139.807 122.158 139.877 122.237 139.925C122.316 139.974 122.407 140 122.5 140H133C133.265 140 133.52 139.895 133.707 139.707C133.895 139.52 134 139.265 134 139V137" stroke="black" stroke-width="2" stroke-linecap="round" stroke-linejoin="round"/>
</g></svg>
