<svg viewBox="0 0 24 24" fill="none" xmlns="http://www.w3.org/2000/svg"><g transform="translate(-244 -152)">
<path id="Vector_166" d="M256 165V173" stroke="black" stroke-width="2" stroke-linecap="round" stroke-linejoin="round"/>
<path id="Vector_167" d="M256 155V158" stroke="black" stroke-width="2" stroke-linecap="round" stroke-linejoin="round"/>
<path id="Vector_168" d="M246.354 162.354C246.242 162.242 246.153 162.109 246.092 161.962C246.031 161.816 246 161.659 246 161.5C246 161.341 246.031 161.184 246.092 161.038C246.153 160.891 246.242 160.758 246.354 160.646L248.414 158.586C248.789 158.211 249.298 158 249.828 158H262.172C262.702 158 263.211 158.211 263.586 158.586L265.646 160.646C265.758 160.758 265.847 160.891 265.908 161.038C265.969 161.184 266 161.341 266 161.5C266 161.659 265.969 161.816 265.908 161.962C265.847 162.109 265.758 162.242 265.646 162.354L263.586 164.414C263.211 164.789 262.702 165 262.172 165H249.828C249.298 165 248.789 164.789 248.414 164.414L246.354 162.354Z" stroke="black" stroke-width="2" stroke-linecap="round" stroke-linejoin="round"/>
</g></svg>
