<svg viewBox="0 0 24 24" fill="none" xmlns="http://www.w3.org/2000/svg"><g transform="translate(-20 -344)">
<path id="Vector_465" d="M41 361L38.844 359.132C38.7727 359.064 38.6832 359.019 38.5864 359.002C38.4897 358.985 38.3901 358.997 38.3001 359.037C38.2101 359.076 38.1337 359.141 38.0803 359.223C38.0269 359.306 37.999 359.402 38 359.5V360C38 360.265 37.8946 360.52 37.7071 360.707C37.5196 360.895 37.2652 361 37 361H35C34.7348 361 34.4804 360.895 34.2929 360.707C34.1054 360.52 34 360.265 34 360C34 357.455 30.009 356.03 25.5 356C24.837 356 24.2011 356.263 23.7322 356.732C23.2634 357.201 23 357.837 23 358.5C23 359.163 23.2634 359.799 23.7322 360.268C24.2011 360.737 24.837 361 25.5 361C29.653 361 30.245 349.705 31.208 347.5C31.3707 347.128 31.6216 346.801 31.9391 346.547C32.2565 346.294 32.6309 346.122 33.0299 346.046C33.4289 345.969 33.8405 345.992 34.229 346.11C34.6175 346.229 34.9712 346.44 35.2595 346.726C35.5479 347.013 35.7622 347.365 35.8839 347.752C36.0056 348.14 36.0311 348.551 35.958 348.951C35.885 349.35 35.7157 349.726 35.4648 350.045C35.2139 350.365 34.8889 350.618 34.518 350.784" stroke="black" stroke-width="2" stroke-linecap="round" stroke-linejoin="round"/>
<path id="Vector_466" d="M23 365H41" stroke="black" stroke-width="2" stroke-linecap="round" stroke-linejoin="round"/>
</g></svg>
