<svg viewBox="0 0 24 24" fill="none" xmlns="http://www.w3.org/2000/svg"><g transform="translate(-52 -152)">
<path id="Vector_162" d="M59 170V164C59 162.674 59.5268 161.402 60.4645 160.464C61.4021 159.527 62.6739 159 64 159C65.3261 159 66.5979 159.527 67.5355 160.464C68.4732 161.402 69 162.674 69 164V170" stroke="black" stroke-width="2" stroke-linecap="round" stroke-linejoin="round"/>
<path id="Vector_163" d="M57 173C57 173.265 57.1054 173.52 57.2929 173.707C57.4804 173.895 57.7348 174 58 174H70C70.2652 174 70.5196 173.895 70.7071 173.707C70.8946 173.52 71 173.265 71 173V172C71 171.47 70.7893 170.961 70.4142 170.586C70.0391 170.211 69.5304 170 69 170H59C58.4696 170 57.9609 170.211 57.5858 170.586C57.2107 170.961 57 171.47 57 172V173Z" stroke="black" stroke-width="2" stroke-linecap="round" stroke-linejoin="round"/>
<path id="Vector_164" d="M73 164H74" stroke="black" stroke-width="2" stroke-linecap="round" stroke-linejoin="round"/>
<path id="Vector_165" d="M70.5 156.5L70 157" stroke="black" stroke-width="2" stroke-linecap="round" stroke-linejoin="round"/>
<path id="Vector_166" d="M54 164H55" stroke="black" stroke-width="2" stroke-linecap="round" stroke-linejoin="round"/>
<path id="Vector_167" d="M64 154V155" stroke="black" stroke-width="2" stroke-linecap="round" stroke-linejoin="round"/>
<path id="Vector_168" d="M56.9287 156.929L57.6357 157.636" stroke="black" stroke-width="2" stroke-linecap="round" stroke-linejoin="round"/>
<path id="Vector_169" d="M64 164V170" stroke="black" stroke-width="2" stroke-linecap="round" stroke-linejoin="round"/>
</g></svg>
