<svg viewBox="0 0 24 24" fill="none" xmlns="http://www.w3.org/2000/svg"><g transform="translate(-308 -184)">
<path id="Vector_225" d="M325.971 188.285C326.275 188.103 326.621 188.005 326.975 188C327.329 187.996 327.678 188.085 327.986 188.26C328.294 188.434 328.55 188.687 328.728 188.993C328.906 189.299 329 189.646 329 190V202C329 202.354 328.906 202.702 328.728 203.007C328.55 203.313 328.294 203.566 327.986 203.74C327.678 203.915 327.329 204.004 326.975 204C326.621 203.995 326.275 203.897 325.971 203.715L315.974 197.717C315.677 197.54 315.432 197.288 315.261 196.988C315.09 196.687 315 196.348 315 196.002C315 195.656 315.089 195.316 315.259 195.015C315.429 194.714 315.675 194.463 315.971 194.285L325.971 188.285Z" stroke="black" stroke-width="2" stroke-linecap="round" stroke-linejoin="round"/>
<path id="Vector_226" d="M311 204V188" stroke="black" stroke-width="2" stroke-linecap="round" stroke-linejoin="round"/>
</g></svg>
