<svg viewBox="0 0 24 24" fill="none" xmlns="http://www.w3.org/2000/svg"><g transform="translate(-340 -184)">
<path id="Vector_227" d="M361 188V204" stroke="black" stroke-width="2" stroke-linecap="round" stroke-linejoin="round"/>
<path id="Vector_228" d="M346.029 188.285C345.726 188.103 345.379 188.005 345.025 188C344.671 187.996 344.323 188.085 344.015 188.26C343.707 188.434 343.45 188.687 343.272 188.993C343.094 189.299 343 189.646 343 190V202C343 202.354 343.094 202.702 343.272 203.007C343.45 203.313 343.707 203.566 344.015 203.74C344.323 203.915 344.671 204.004 345.025 204C345.379 203.995 345.726 203.897 346.029 203.715L356.026 197.717C356.323 197.54 356.569 197.288 356.739 196.988C356.91 196.687 357 196.348 357 196.002C357.001 195.656 356.911 195.316 356.741 195.015C356.571 194.714 356.325 194.463 356.029 194.285L346.029 188.285Z" stroke="black" stroke-width="2" stroke-linecap="round" stroke-linejoin="round"/>
</g></svg>
