<svg viewBox="0 0 24 24" fill="none" xmlns="http://www.w3.org/2000/svg"><g transform="translate(-340 -120)">
<path id="Vector_153" d="M352.5 137L352 136L351.5 137H352.5Z" stroke="black" stroke-width="2" stroke-linecap="round" stroke-linejoin="round"/>
<path id="Vector_154" d="M355 142C355.265 142 355.52 141.895 355.707 141.707C355.895 141.52 356 141.265 356 141V140C356.377 140 356.746 139.893 357.064 139.692C357.383 139.492 357.639 139.205 357.802 138.865C357.965 138.526 358.029 138.147 357.986 137.773C357.943 137.399 357.795 137.044 357.56 136.75C358.706 135.642 359.495 134.218 359.826 132.658C360.157 131.099 360.014 129.477 359.417 127.999C358.819 126.522 357.794 125.256 356.473 124.365C355.151 123.474 353.594 122.998 352 122.998C350.406 122.998 348.849 123.474 347.527 124.365C346.206 125.256 345.181 126.522 344.583 127.999C343.986 129.477 343.843 131.099 344.174 132.658C344.505 134.218 345.294 135.642 346.44 136.75C346.205 137.044 346.057 137.399 346.014 137.773C345.971 138.147 346.035 138.526 346.198 138.865C346.361 139.205 346.617 139.492 346.936 139.692C347.254 139.893 347.623 140 348 140V141C348 141.265 348.105 141.52 348.293 141.707C348.48 141.895 348.735 142 349 142H355Z" stroke="black" stroke-width="2" stroke-linecap="round" stroke-linejoin="round"/>
<path id="Vector_155" d="M355 133C355.552 133 356 132.552 356 132C356 131.448 355.552 131 355 131C354.448 131 354 131.448 354 132C354 132.552 354.448 133 355 133Z" stroke="black" stroke-width="2" stroke-linecap="round" stroke-linejoin="round"/>
<path id="Vector_156" d="M349 133C349.552 133 350 132.552 350 132C350 131.448 349.552 131 349 131C348.448 131 348 131.448 348 132C348 132.552 348.448 133 349 133Z" stroke="black" stroke-width="2" stroke-linecap="round" stroke-linejoin="round"/>
</g></svg>
