<svg viewBox="0 0 24 24" fill="none" xmlns="http://www.w3.org/2000/svg"><g transform="translate(-308 -248)">
<path id="Vector_293" d="M319 264.586V267C319 267.265 318.895 267.52 318.707 267.707C318.52 267.895 318.265 268 318 268H310L326.37 251.63C326.768 251.232 327.307 251.009 327.87 251.009C328.433 251.009 328.972 251.232 329.37 251.63C329.768 252.028 329.991 252.567 329.991 253.13C329.991 253.693 329.768 254.232 329.37 254.63L319.707 264.293C319.519 264.48 319.265 264.586 319 264.586ZM319 264.586C318.735 264.586 318.481 264.48 318.293 264.293L316 262" stroke="black" stroke-width="2" stroke-linecap="round" stroke-linejoin="round"/>
</g></svg>
