<svg viewBox="0 0 24 24" fill="none" xmlns="http://www.w3.org/2000/svg"><g transform="translate(-276 -248)">
<path id="Vector_348" d="M284 254H279C278.448 254 278 254.448 278 255V265C278 265.552 278.448 266 279 266H284C284.552 266 285 265.552 285 265V255C285 254.448 284.552 254 284 254Z" stroke="black" stroke-width="2" stroke-linecap="round" stroke-linejoin="round"/>
<path id="Vector_349" d="M289 256.32C289.639 257.441 289.975 258.709 289.975 260C289.975 261.291 289.639 262.559 289 263.68" stroke="black" stroke-width="2" stroke-linecap="round" stroke-linejoin="round"/>
<path id="Vector_350" d="M292.46 254.21C293.459 255.976 293.984 257.971 293.984 260C293.984 262.029 293.459 264.024 292.46 265.79" stroke="black" stroke-width="2" stroke-linecap="round" stroke-linejoin="round"/>
<path id="Vector_351" d="M295.91 252.1C297.288 254.505 298.013 257.227 298.015 259.999C298.017 262.77 297.295 265.494 295.92 267.9" stroke="black" stroke-width="2" stroke-linecap="round" stroke-linejoin="round"/>
</g></svg>
