<svg viewBox="0 0 24 24" fill="none" xmlns="http://www.w3.org/2000/svg"><g transform="translate(-148 -88)">
<path id="Vector_65" d="M170 99V100C169.99 102.018 169.369 103.986 168.22 105.645C167.07 107.304 165.445 108.577 163.559 109.295C161.673 110.013 159.614 110.144 157.652 109.67C155.69 109.196 153.917 108.14 152.567 106.639C151.217 105.139 150.352 103.266 150.087 101.265C149.821 99.2639 150.168 97.2296 151.08 95.4293C151.993 93.6289 153.428 92.1468 155.199 91.1778C156.969 90.2087 158.992 89.7981 161 89.9999" stroke="black" stroke-width="2" stroke-linecap="round" stroke-linejoin="round"/>
<path id="Vector_66" d="M156 102C156 102 157.5 104 160 104C162.5 104 164 102 164 102" stroke="black" stroke-width="2" stroke-linecap="round" stroke-linejoin="round"/>
<path id="Vector_67" d="M157 97H157.01" stroke="black" stroke-width="2" stroke-linecap="round" stroke-linejoin="round"/>
<path id="Vector_68" d="M163 97H163.01" stroke="black" stroke-width="2" stroke-linecap="round" stroke-linejoin="round"/>
<path id="Vector_69" d="M164 93H170" stroke="black" stroke-width="2" stroke-linecap="round" stroke-linejoin="round"/>
<path id="Vector_70" d="M167 90V96" stroke="black" stroke-width="2" stroke-linecap="round" stroke-linejoin="round"/>
</g></svg>
