<svg viewBox="0 0 24 24" fill="none" xmlns="http://www.w3.org/2000/svg"><g transform="translate(-308 -56)">
<path id="Vector_43" d="M310 69C310 69.7879 310.155 70.5681 310.457 71.2961C310.758 72.0241 311.2 72.6855 311.757 73.2426C312.315 73.7998 312.976 74.2417 313.704 74.5433C314.432 74.8448 315.212 75 316 75C316.788 75 317.568 74.8448 318.296 74.5433C319.024 74.2417 319.685 73.7998 320.243 73.2426C320.8 72.6855 321.242 72.0241 321.543 71.2961C321.845 70.5681 322 69.7879 322 69C322 67.9391 321.579 66.9217 320.828 66.1716C320.078 65.4214 319.061 65 318 65C316.939 65 315.922 65.4214 315.172 66.1716C314.421 66.9217 314 67.9391 314 69C314 69.5304 314.211 70.0391 314.586 70.4142C314.961 70.7893 315.47 71 316 71C316.53 71 317.039 70.7893 317.414 70.4142C317.789 70.0391 318 69.5304 318 69" stroke="black" stroke-width="2" stroke-linecap="round" stroke-linejoin="round"/>
<path id="Vector_44" d="M318 77C322.418 77 326 73.4183 326 69C326 64.5817 322.418 61 318 61C313.582 61 310 64.5817 310 69C310 73.4183 313.582 77 318 77Z" stroke="black" stroke-width="2" stroke-linecap="round" stroke-linejoin="round"/>
<path id="Vector_45" d="M310 77H322C326.4 77 330 73.4 330 69V63C330 62.4696 329.789 61.9609 329.414 61.5858C329.039 61.2107 328.53 61 328 61C327.47 61 326.961 61.2107 326.586 61.5858C326.211 61.9609 326 62.4696 326 63V69" stroke="black" stroke-width="2" stroke-linecap="round" stroke-linejoin="round"/>
<path id="Vector_46" d="M326 59L327.1 61.2" stroke="black" stroke-width="2" stroke-linecap="round" stroke-linejoin="round"/>
<path id="Vector_47" d="M330 59L328.9 61.2" stroke="black" stroke-width="2" stroke-linecap="round" stroke-linejoin="round"/>
</g></svg>
