<svg viewBox="0 0 24 24" fill="none" xmlns="http://www.w3.org/2000/svg"><g transform="translate(-340 -88)">
<path id="Vector_102" d="M350.5 90V94" stroke="black" stroke-width="2" stroke-linecap="round" stroke-linejoin="round"/>
<path id="Vector_103" d="M354 90H347C346.47 90 345.961 90.2107 345.586 90.5858C345.211 90.9609 345 91.4696 345 92" stroke="black" stroke-width="2" stroke-linecap="round" stroke-linejoin="round"/>
<path id="Vector_104" d="M359.29 102.76C358.123 101.802 357.316 100.476 357 99C356.689 100.478 355.881 101.806 354.71 102.76C353.56 103.68 353 104.8 353 105.95C353 108.17 354.8 110 357 110C359.2 110 361 108.17 361 105.95C361 104.79 360.43 103.69 359.29 102.76Z" stroke="black" stroke-width="2" stroke-linecap="round" stroke-linejoin="round"/>
<path id="Vector_105" d="M349.607 109H346C345.47 109 344.961 108.789 344.586 108.414C344.211 108.039 344 107.53 344 107V100C344 99.4696 344.211 98.9609 344.586 98.5858C344.961 98.2107 345.47 98 346 98H353V95C353 94.7348 352.895 94.4804 352.707 94.2929C352.52 94.1054 352.265 94 352 94H349C348.735 94 348.48 94.1054 348.293 94.2929C348.105 94.4804 348 94.7348 348 95V98" stroke="black" stroke-width="2" stroke-linecap="round" stroke-linejoin="round"/>
</g></svg>
