<svg viewBox="0 0 24 24" fill="none" xmlns="http://www.w3.org/2000/svg"><g transform="translate(-372 -88)">
<path id="Vector_106" d="M392 97V94C392 93.4696 391.789 92.9609 391.414 92.5858C391.039 92.2107 390.53 92 390 92H378C377.47 92 376.961 92.2107 376.586 92.5858C376.211 92.9609 376 93.4696 376 94V97" stroke="black" stroke-width="2" stroke-linecap="round" stroke-linejoin="round"/>
<path id="Vector_107" d="M374 104C374 104.53 374.211 105.039 374.586 105.414C374.961 105.789 375.47 106 376 106H392C392.53 106 393.039 105.789 393.414 105.414C393.789 105.039 394 104.53 394 104V99C394 98.4696 393.789 97.9609 393.414 97.5858C393.039 97.2107 392.53 97 392 97C391.47 97 390.961 97.2107 390.586 97.5858C390.211 97.9609 390 98.4696 390 99V100.5C390 100.633 389.947 100.76 389.854 100.854C389.76 100.947 389.633 101 389.5 101H378.5C378.367 101 378.24 100.947 378.146 100.854C378.053 100.76 378 100.633 378 100.5V99C378 98.4696 377.789 97.9609 377.414 97.5858C377.039 97.2107 376.53 97 376 97C375.47 97 374.961 97.2107 374.586 97.5858C374.211 97.9609 374 98.4696 374 99V104Z" stroke="black" stroke-width="2" stroke-linecap="round" stroke-linejoin="round"/>
<path id="Vector_108" d="M376 106V108" stroke="black" stroke-width="2" stroke-linecap="round" stroke-linejoin="round"/>
<path id="Vector_109" d="M392 106V108" stroke="black" stroke-width="2" stroke-linecap="round" stroke-linejoin="round"/>
<path id="Vector_110" d="M384 92V101" stroke="black" stroke-width="2" stroke-linecap="round" stroke-linejoin="round"/>
</g></svg>
