<svg viewBox="0 0 24 24" fill="none" xmlns="http://www.w3.org/2000/svg"><g transform="translate(-308 -248)">
<path id="Vector_352" d="M319 250H321" stroke="black" stroke-width="2" stroke-linecap="round" stroke-linejoin="round"/>
<path id="Vector_353" d="M322.28 262L317.72 270" stroke="black" stroke-width="2" stroke-linecap="round" stroke-linejoin="round"/>
<path id="Vector_354" d="M329 270L327.442 266H312.558" stroke="black" stroke-width="2" stroke-linecap="round" stroke-linejoin="round"/>
<path id="Vector_355" d="M311 258V260" stroke="black" stroke-width="2" stroke-linecap="round" stroke-linejoin="round"/>
<path id="Vector_356" d="M314.245 263.04C314.418 262.725 314.672 262.462 314.98 262.279C315.289 262.096 315.642 262 316 262H328C328.177 262 328.35 262.046 328.502 262.134C328.654 262.223 328.781 262.349 328.869 262.502C328.956 262.655 329.002 262.828 329.001 263.004C329.001 263.18 328.953 263.353 328.864 263.505L325.754 268.962C325.582 269.276 325.328 269.539 325.02 269.721C324.711 269.904 324.359 270 324 270H312C311.824 270 311.651 269.954 311.499 269.865C311.346 269.777 311.22 269.65 311.132 269.497C311.045 269.344 310.999 269.171 311 268.995C311.001 268.819 311.048 268.646 311.137 268.494L314.245 263.04Z" stroke="black" stroke-width="2" stroke-linecap="round" stroke-linejoin="round"/>
<path id="Vector_357" d="M315 250C315 251.061 314.579 252.078 313.828 252.828C313.078 253.579 312.061 254 311 254" stroke="black" stroke-width="2" stroke-linecap="round" stroke-linejoin="round"/>
<path id="Vector_358" d="M316.66 255.66L318.07 257.07" stroke="black" stroke-width="2" stroke-linecap="round" stroke-linejoin="round"/>
</g></svg>
