<svg viewBox="0 0 24 24" fill="none" xmlns="http://www.w3.org/2000/svg"><g transform="translate(-148 -184)">
<path id="Vector_216" d="M160 205C162.387 205 164.676 204.052 166.364 202.364C168.052 200.676 169 198.387 169 196H151C151 198.387 151.948 200.676 153.636 202.364C155.324 204.052 157.613 205 160 205Z" stroke="black" stroke-width="2" stroke-linecap="round" stroke-linejoin="round"/>
<path id="Vector_217" d="M155 205H165" stroke="black" stroke-width="2" stroke-linecap="round" stroke-linejoin="round"/>
<path id="Vector_218" d="M167.5 196L170 190" stroke="black" stroke-width="2" stroke-linecap="round" stroke-linejoin="round"/>
<path id="Vector_219" d="M164.25 187C164.52 187.1 165.05 187.53 165 188.36C164.94 189.19 164.07 189.56 164 190.38C163.95 191.16 164.34 191.62 164.73 192" stroke="black" stroke-width="2" stroke-linecap="round" stroke-linejoin="round"/>
<path id="Vector_220" d="M159.25 187C159.52 187.1 160.05 187.53 159.99 188.36C159.94 189.19 159.06 189.56 159.01 190.38C158.95 191.16 159.34 191.62 159.73 192" stroke="black" stroke-width="2" stroke-linecap="round" stroke-linejoin="round"/>
<path id="Vector_221" d="M154.25 187C154.52 187.1 155.05 187.53 155 188.36C154.94 189.19 154.07 189.56 154 190.38C153.95 191.16 154.34 191.62 154.74 192" stroke="black" stroke-width="2" stroke-linecap="round" stroke-linejoin="round"/>
</g></svg>
