<svg viewBox="0 0 24 24" fill="none" xmlns="http://www.w3.org/2000/svg"><g transform="translate(-372 -120)">
<path id="Vector_157" d="M384 138V142" stroke="black" stroke-width="2" stroke-linecap="round" stroke-linejoin="round"/>
<path id="Vector_158" d="M374 134.499C374 135.612 374.338 136.698 374.969 137.615C375.599 138.532 376.493 139.236 377.532 139.634C378.571 140.032 379.706 140.106 380.788 139.845C381.87 139.584 382.847 139.002 383.591 138.174C383.702 138.071 383.848 138.013 384 138.013C384.152 138.014 384.298 138.071 384.409 138.175C385.153 139.003 386.13 139.585 387.212 139.846C388.294 140.107 389.429 140.033 390.468 139.635C391.507 139.237 392.401 138.533 393.031 137.616C393.662 136.699 394 135.613 394 134.5C394 132.21 392.5 130.5 391 129L385.508 123.688C385.322 123.474 385.092 123.302 384.834 123.183C384.576 123.065 384.296 123.003 384.013 123.001C383.729 122.999 383.448 123.057 383.188 123.172C382.929 123.288 382.697 123.456 382.508 123.668L377 128.999C375.5 130.499 374 132.199 374 134.499Z" stroke="black" stroke-width="2" stroke-linecap="round" stroke-linejoin="round"/>
</g></svg>
