<svg viewBox="0 0 24 24" fill="none" xmlns="http://www.w3.org/2000/svg"><g transform="translate(-52 -152)">
<path id="Vector_160" d="M63.0174 154.814C63.0603 154.585 63.182 154.377 63.3615 154.228C63.5411 154.079 63.7671 153.998 64.0004 153.998C64.2338 153.998 64.4598 154.079 64.6393 154.228C64.8189 154.377 64.9406 154.585 64.9834 154.814L66.0344 160.372C66.1091 160.767 66.3011 161.131 66.5855 161.415C66.8698 161.699 67.2333 161.891 67.6284 161.966L73.1864 163.017C73.4158 163.06 73.623 163.182 73.7721 163.361C73.9212 163.541 74.0028 163.767 74.0028 164C74.0028 164.233 73.9212 164.459 73.7721 164.639C73.623 164.818 73.4158 164.94 73.1864 164.983L67.6284 166.034C67.2333 166.109 66.8698 166.301 66.5855 166.585C66.3011 166.869 66.1091 167.233 66.0344 167.628L64.9834 173.186C64.9406 173.415 64.8189 173.623 64.6393 173.772C64.4598 173.921 64.2338 174.002 64.0004 174.002C63.7671 174.002 63.5411 173.921 63.3615 173.772C63.182 173.623 63.0603 173.415 63.0174 173.186L61.9664 167.628C61.8918 167.233 61.6998 166.869 61.4154 166.585C61.1311 166.301 60.7676 166.109 60.3724 166.034L54.8144 164.983C54.585 164.94 54.3779 164.818 54.2288 164.639C54.0797 164.459 53.998 164.233 53.998 164C53.998 163.767 54.0797 163.541 54.2288 163.361C54.3779 163.182 54.585 163.06 54.8144 163.017L60.3724 161.966C60.7676 161.891 61.1311 161.699 61.4154 161.415C61.6998 161.131 61.8918 160.767 61.9664 160.372L63.0174 154.814Z" stroke="black" stroke-width="2" stroke-linecap="round" stroke-linejoin="round"/>
<path id="Vector_161" d="M72 154V158" stroke="black" stroke-width="2" stroke-linecap="round" stroke-linejoin="round"/>
<path id="Vector_162" d="M74 156H70" stroke="black" stroke-width="2" stroke-linecap="round" stroke-linejoin="round"/>
<path id="Vector_163" d="M56 174C57.1046 174 58 173.105 58 172C58 170.895 57.1046 170 56 170C54.8954 170 54 170.895 54 172C54 173.105 54.8954 174 56 174Z" stroke="black" stroke-width="2" stroke-linecap="round" stroke-linejoin="round"/>
</g></svg>
