<svg viewBox="0 0 24 24" fill="none" xmlns="http://www.w3.org/2000/svg"><g transform="translate(-20 -152)">
<path id="Vector_159" d="M31.0174 154.814C31.0603 154.585 31.182 154.377 31.3615 154.228C31.5411 154.079 31.7671 153.998 32.0004 153.998C32.2338 153.998 32.4598 154.079 32.6393 154.228C32.8189 154.377 32.9406 154.585 32.9834 154.814L34.0344 160.372C34.1091 160.767 34.3011 161.131 34.5855 161.415C34.8698 161.699 35.2333 161.891 35.6284 161.966L41.1864 163.017C41.4158 163.06 41.623 163.182 41.7721 163.361C41.9212 163.541 42.0028 163.767 42.0028 164C42.0028 164.233 41.9212 164.459 41.7721 164.639C41.623 164.818 41.4158 164.94 41.1864 164.983L35.6284 166.034C35.2333 166.109 34.8698 166.301 34.5855 166.585C34.3011 166.869 34.1091 167.233 34.0344 167.628L32.9834 173.186C32.9406 173.415 32.8189 173.623 32.6393 173.772C32.4598 173.921 32.2338 174.002 32.0004 174.002C31.7671 174.002 31.5411 173.921 31.3615 173.772C31.182 173.623 31.0603 173.415 31.0174 173.186L29.9664 167.628C29.8918 167.233 29.6998 166.869 29.4154 166.585C29.1311 166.301 28.7676 166.109 28.3724 166.034L22.8144 164.983C22.585 164.94 22.3779 164.818 22.2288 164.639C22.0797 164.459 21.998 164.233 21.998 164C21.998 163.767 22.0797 163.541 22.2288 163.361C22.3779 163.182 22.585 163.06 22.8144 163.017L28.3724 161.966C28.7676 161.891 29.1311 161.699 29.4154 161.415C29.6998 161.131 29.8918 160.767 29.9664 160.372L31.0174 154.814Z" stroke="black" stroke-width="2" stroke-linecap="round" stroke-linejoin="round"/>
</g></svg>
