<svg viewBox="0 0 24 24" fill="none" xmlns="http://www.w3.org/2000/svg"><g transform="translate(-372 -184)">
<path id="Vector_229" d="M390 186H378C376.895 186 376 186.895 376 188V204C376 205.105 376.895 206 378 206H390C391.105 206 392 205.105 392 204V188C392 186.895 391.105 186 390 186Z" stroke="black" stroke-width="2" stroke-linecap="round" stroke-linejoin="round"/>
<path id="Vector_230" d="M384 190H384.01" stroke="black" stroke-width="2" stroke-linecap="round" stroke-linejoin="round"/>
<path id="Vector_231" d="M384 202C386.209 202 388 200.209 388 198C388 195.791 386.209 194 384 194C381.791 194 380 195.791 380 198C380 200.209 381.791 202 384 202Z" stroke="black" stroke-width="2" stroke-linecap="round" stroke-linejoin="round"/>
<path id="Vector_232" d="M384 198H384.01" stroke="black" stroke-width="2" stroke-linecap="round" stroke-linejoin="round"/>
</g></svg>
