<svg viewBox="0 0 24 24" fill="none" xmlns="http://www.w3.org/2000/svg"><g transform="translate(-340 -184)">
<path id="Vector_180" d="M348.8 204V199.9L350.7 200.1C351.253 200.069 351.777 199.84 352.174 199.454C352.572 199.068 352.817 198.552 352.864 198V192.3C352.871 190.859 352.305 189.475 351.291 188.452C350.277 187.428 348.898 186.85 347.457 186.843C346.016 186.836 344.632 187.402 343.609 188.416C342.585 189.43 342.007 190.809 342 192.25C342 195.05 342.656 195.304 343 196.8C343.232 197.703 343.242 198.65 343.029 199.558L342 204" stroke="black" stroke-width="2" stroke-linecap="round" stroke-linejoin="round"/>
<path id="Vector_181" d="M359.8 201.8C361.206 200.394 361.996 198.487 361.996 196.499C361.997 194.511 361.208 192.604 359.803 191.197" stroke="black" stroke-width="2" stroke-linecap="round" stroke-linejoin="round"/>
<path id="Vector_182" d="M357 199C357.327 198.673 357.586 198.284 357.762 197.856C357.938 197.428 358.027 196.97 358.025 196.507C358.023 196.045 357.929 195.587 357.748 195.161C357.568 194.735 357.305 194.349 356.975 194.025" stroke="black" stroke-width="2" stroke-linecap="round" stroke-linejoin="round"/>
</g></svg>
