<svg viewBox="0 0 24 24" fill="none" xmlns="http://www.w3.org/2000/svg"><g transform="translate(-340 -248)">
<path id="Vector_294" d="M359 255C360.105 255 361 254.105 361 253C361 251.895 360.105 251 359 251C357.895 251 357 251.895 357 253C357 254.105 357.895 255 359 255Z" stroke="black" stroke-width="2" stroke-linecap="round" stroke-linejoin="round"/>
<path id="Vector_295" d="M345 269C346.105 269 347 268.105 347 267C347 265.895 346.105 265 345 265C343.895 265 343 265.895 343 267C343 268.105 343.895 269 345 269Z" stroke="black" stroke-width="2" stroke-linecap="round" stroke-linejoin="round"/>
<path id="Vector_296" d="M345 265C345 261.817 346.264 258.765 348.515 256.515C350.765 254.264 353.817 253 357 253" stroke="black" stroke-width="2" stroke-linecap="round" stroke-linejoin="round"/>
</g></svg>
