<svg viewBox="0 0 24 24" fill="none" xmlns="http://www.w3.org/2000/svg"><g transform="translate(-372 -248)">
<path id="Vector_297" d="M384.034 260.681C383.998 260.591 383.99 260.492 384.009 260.396C384.029 260.301 384.076 260.213 384.145 260.145C384.214 260.076 384.301 260.029 384.397 260.009C384.492 259.989 384.591 259.998 384.681 260.034L393.681 263.534C393.778 263.572 393.86 263.639 393.917 263.725C393.974 263.812 394.003 263.914 393.999 264.017C393.996 264.121 393.96 264.221 393.897 264.303C393.834 264.385 393.747 264.446 393.648 264.477L390.204 265.545C390.049 265.593 389.908 265.678 389.793 265.793C389.678 265.908 389.592 266.05 389.544 266.205L388.477 269.648C388.447 269.747 388.386 269.834 388.303 269.897C388.221 269.959 388.121 269.995 388.018 269.999C387.914 270.002 387.812 269.974 387.725 269.917C387.639 269.86 387.572 269.778 387.534 269.681L384.034 260.681Z" stroke="black" stroke-width="2" stroke-linecap="round" stroke-linejoin="round"/>
<path id="Vector_298" d="M377 265C377 261.817 378.264 258.765 380.515 256.515C382.765 254.264 385.817 253 389 253" stroke="black" stroke-width="2" stroke-linecap="round" stroke-linejoin="round"/>
<path id="Vector_299" d="M391 255C392.105 255 393 254.105 393 253C393 251.895 392.105 251 391 251C389.895 251 389 251.895 389 253C389 254.105 389.895 255 391 255Z" stroke="black" stroke-width="2" stroke-linecap="round" stroke-linejoin="round"/>
<path id="Vector_300" d="M377 269C378.105 269 379 268.105 379 267C379 265.895 378.105 265 377 265C375.895 265 375 265.895 375 267C375 268.105 375.895 269 377 269Z" stroke="black" stroke-width="2" stroke-linecap="round" stroke-linejoin="round"/>
</g></svg>
