<svg viewBox="0 0 24 24" fill="none" xmlns="http://www.w3.org/2000/svg"><g transform="translate(-372 -88)">
<path id="Vector_123" d="M389 101.44L376.442 105.082C375.983 105.218 375.587 105.513 375.328 105.915C375.068 106.317 374.961 106.799 375.027 107.273C375.092 107.747 375.325 108.182 375.684 108.499C376.043 108.816 376.503 108.994 376.982 109H391C391.481 109 391.947 108.827 392.311 108.511C392.675 108.195 392.913 107.759 392.981 107.282C393.049 106.805 392.942 106.319 392.681 105.915C392.419 105.51 392.02 105.213 391.558 105.079L390.443 104.759C390.026 104.638 389.66 104.386 389.4 104.039C389.14 103.692 388.999 103.271 389 102.837V95.66" stroke="black" stroke-width="2" stroke-linecap="round" stroke-linejoin="round"/>
<path id="Vector_124" d="M379 98.56L391.558 94.918C392.018 94.7825 392.413 94.4869 392.672 94.0848C392.932 93.6827 393.039 93.2009 392.974 92.7268C392.908 92.2526 392.675 91.8176 392.316 91.5008C391.957 91.184 391.497 91.0063 391.018 91H377C376.519 90.9997 376.053 91.1733 375.689 91.489C375.325 91.8047 375.087 92.2412 375.019 92.7182C374.951 93.1953 375.058 93.6808 375.319 94.0855C375.581 94.4902 375.98 94.7869 376.442 94.921L377.557 95.241C377.974 95.3617 378.34 95.6144 378.6 95.9611C378.86 96.3077 379.001 96.7295 379 97.163V104.341" stroke="black" stroke-width="2" stroke-linecap="round" stroke-linejoin="round"/>
</g></svg>
