<svg viewBox="0 0 24 24" fill="none" xmlns="http://www.w3.org/2000/svg"><g transform="translate(-84 -152)">
<path id="Vector_164" d="M99 162.42L103.8 157.35" stroke="black" stroke-width="2" stroke-linecap="round" stroke-linejoin="round"/>
<path id="Vector_165" d="M103 170H106" stroke="black" stroke-width="2" stroke-linecap="round" stroke-linejoin="round"/>
<path id="Vector_166" d="M93.5 174L105.414 161.415C105.617 161.212 105.774 160.969 105.874 160.7C105.974 160.432 106.016 160.145 105.995 159.859C105.975 159.573 105.893 159.294 105.756 159.043C105.619 158.791 105.429 158.572 105.2 158.4L99.59 154.192C99.4409 154.083 99.2645 154.017 99.0804 154.003C98.8963 153.988 98.7116 154.024 98.547 154.108C98.3823 154.192 98.244 154.319 98.1475 154.477C98.0509 154.634 97.9999 154.815 98 155V157C98 157.425 97.8649 157.838 97.6143 158.181C97.3637 158.523 97.0106 158.777 96.606 158.906L92.677 160.053C92.4794 160.12 92.3079 160.248 92.1865 160.418C92.0651 160.588 91.9999 160.791 92 161C91.845 167.393 89.918 170 88 170C87.4696 170 86.9609 170.211 86.5858 170.586C86.2107 170.961 86 171.47 86 172C86 172.53 86.2107 173.039 86.5858 173.414C86.9609 173.789 87.4696 174 88 174H102" stroke="black" stroke-width="2" stroke-linecap="round" stroke-linejoin="round"/>
</g></svg>
