<svg viewBox="0 0 24 24" fill="none" xmlns="http://www.w3.org/2000/svg"><g transform="translate(-20 -280)">
<path id="Vector_301" d="M35.2949 299.562L35.9999 302" stroke="black" stroke-width="2" stroke-linecap="round" stroke-linejoin="round"/>
<path id="Vector_302" d="M37 296L40.758 298.098" stroke="black" stroke-width="2" stroke-linecap="round" stroke-linejoin="round"/>
<path id="Vector_303" d="M39 292.5L42.026 291.902" stroke="black" stroke-width="2" stroke-linecap="round" stroke-linejoin="round"/>
<path id="Vector_304" d="M27.61 286.3C26.9144 285.973 26.12 285.926 25.3907 286.168C24.6613 286.41 24.0526 286.923 23.69 287.6L22.31 290.39C21.9864 291.085 21.9408 291.876 22.1825 292.604C22.4242 293.331 22.935 293.938 23.61 294.3L30.5 297.897C30.6174 297.956 30.7453 297.991 30.8763 298C31.0074 298.01 31.139 297.993 31.2636 297.952C31.3882 297.91 31.5034 297.844 31.6027 297.758C31.7019 297.672 31.7832 297.568 31.842 297.45L34.948 291.239C35.0664 291.002 35.0858 290.727 35.002 290.476C34.9182 290.225 34.738 290.017 34.501 289.898L27.61 286.3Z" stroke="black" stroke-width="2" stroke-linecap="round" stroke-linejoin="round"/>
<path id="Vector_305" d="M28 289V282" stroke="black" stroke-width="2" stroke-linecap="round" stroke-linejoin="round"/>
</g></svg>
