<svg viewBox="0 0 24 24" fill="none" xmlns="http://www.w3.org/2000/svg"><g transform="translate(-244 -152)">
<path id="Vector_169" d="M258 161.536V159C258 157.939 258.421 156.922 259.172 156.172C259.922 155.421 260.939 155 262 155H263.5C263.633 155 263.76 155.053 263.854 155.146C263.947 155.24 264 155.367 264 155.5V157C264 158.061 263.579 159.078 262.828 159.828C262.078 160.579 261.061 161 260 161C258.939 161 257.922 161.421 257.172 162.172C256.421 162.922 256 163.939 256 165C256 167 257 168 257 170C257 171.082 256.649 172.135 256 173" stroke="black" stroke-width="2" stroke-linecap="round" stroke-linejoin="round"/>
<path id="Vector_170" d="M250.551 160.02C249.626 160.104 248.743 160.443 248 161C248 161.929 248.259 162.839 248.747 163.629C249.235 164.419 249.933 165.057 250.764 165.472C251.594 165.887 252.524 166.063 253.449 165.98C254.374 165.896 255.257 165.557 256 165C256 164.071 255.741 163.161 255.253 162.371C254.765 161.581 254.067 160.943 253.236 160.528C252.406 160.113 251.476 159.937 250.551 160.02Z" stroke="black" stroke-width="2" stroke-linecap="round" stroke-linejoin="round"/>
<path id="Vector_171" d="M249 173H263" stroke="black" stroke-width="2" stroke-linecap="round" stroke-linejoin="round"/>
</g></svg>
