<svg viewBox="0 0 32 32" fill="none" xmlns="http://www.w3.org/2000/svg"><g transform="translate(-220 -96)">
<g id="Shape_10">
<path d="M239.151 111.072L233.542 112.902L228.666 115.055L227.3 115.416C226.953 115.746 226.586 116.08 226.194 116.421C225.764 116.795 225.359 117.134 225.052 117.38C224.709 117.653 224.2 118.158 223.939 118.482C223.552 118.965 223.249 119.479 223.119 119.874C222.884 120.586 222.998 121.306 223.45 121.971C224.028 122.821 225.177 123.684 226.514 124.272C227.195 124.571 228.346 124.958 229.209 125.176C230.646 125.539 233.425 125.933 234.955 125.992C235.266 126.004 235.679 126.002 235.698 125.99C235.731 125.968 235.97 125.517 236.246 124.952C237.187 123.031 237.867 121.23 238.233 119.691C238.455 118.76 238.628 117.518 238.74 116.045C238.771 115.633 238.782 114.257 238.758 113.79C238.719 113.029 238.652 112.408 238.545 111.8C238.529 111.711 238.523 111.632 238.531 111.625C238.547 111.612 238.6 111.595 239.289 111.394L239.151 111.072ZM237.869 111.825C237.92 111.825 238.056 113.125 238.091 113.949C238.099 114.124 238.097 114.237 238.087 114.237C238.053 114.237 237.368 113.834 236.883 113.53C236.459 113.263 235.654 112.729 235.527 112.628C235.486 112.597 235.49 112.595 235.837 112.476C236.427 112.273 237.825 111.825 237.869 111.825ZM235.012 112.762C235.048 112.762 235.147 112.817 235.38 112.963C236.255 113.511 237.44 114.17 237.947 114.392C238.105 114.461 238.123 114.434 237.76 114.68C236.987 115.205 236.027 115.721 234.847 116.245C234.641 116.336 234.467 116.411 234.46 116.411C234.453 116.411 234.476 116.307 234.511 116.179C234.797 115.121 234.958 114.054 234.962 113.199C234.965 112.776 234.965 112.773 235.005 112.763C235.007 112.763 235.01 112.762 235.012 112.762ZM234.424 112.987C234.449 113.012 234.431 113.96 234.4 114.219C234.326 114.839 234.204 115.412 234.01 116.064C233.964 116.22 233.921 116.354 233.914 116.362C233.897 116.382 233.317 115.817 233.124 115.593C232.795 115.211 232.534 114.831 232.345 114.458C232.248 114.267 232.094 113.892 232.109 113.882C232.174 113.834 234.408 112.971 234.424 112.987ZM231.653 114.079C231.659 114.079 231.663 114.081 231.665 114.083C231.673 114.092 231.703 114.161 231.731 114.237C231.866 114.604 232.169 115.149 232.433 115.497C232.721 115.878 233.097 116.283 233.411 116.553C233.512 116.639 233.606 116.72 233.619 116.732C233.646 116.756 233.655 116.752 232.964 117.014C232.162 117.318 231.289 117.623 230.287 117.947C229.905 118.07 229.582 118.174 229.57 118.179C229.531 118.193 229.543 118.17 229.655 117.995C230.153 117.218 230.907 115.697 231.329 114.622C231.402 114.435 231.472 114.248 231.484 114.206C231.502 114.145 231.52 114.124 231.578 114.098C231.61 114.084 231.638 114.077 231.653 114.079ZM230.804 114.429C230.816 114.439 230.601 114.893 230.389 115.306C229.979 116.106 229.527 116.893 228.926 117.854C228.823 118.02 228.727 118.172 228.714 118.19C228.693 118.221 228.684 118.211 228.619 118.08C228.475 117.795 228.354 117.434 228.292 117.098C228.231 116.766 228.241 116.192 228.315 115.835C228.37 115.57 228.368 115.576 228.493 115.512C229.032 115.236 230.787 114.414 230.804 114.429ZM238.117 114.726V114.906C238.116 115.852 238.015 117.147 237.869 118.092C237.843 118.258 237.821 118.395 237.819 118.396C237.817 118.398 237.698 118.363 237.554 118.318C236.917 118.121 236.227 117.825 235.605 117.484C235.192 117.258 234.596 116.892 234.613 116.876C234.617 116.871 234.793 116.778 235.003 116.669C235.836 116.237 236.631 115.771 237.322 115.309C237.581 115.136 237.97 114.855 238.056 114.78L238.117 114.726ZM227.603 115.98C227.62 115.979 227.616 116.012 227.589 116.168C227.57 116.276 227.549 116.481 227.541 116.623C227.507 117.243 227.607 117.7 227.915 118.326C228.001 118.5 228.068 118.645 228.064 118.648C228.033 118.674 225.23 119.494 224.348 119.736C224.087 119.807 223.858 119.87 223.84 119.876C223.809 119.885 223.806 119.879 223.818 119.807C223.914 119.185 224.389 118.368 225.052 117.683C225.492 117.227 225.845 116.958 226.445 116.615C226.876 116.369 227.545 116 227.594 115.982C227.597 115.98 227.6 115.98 227.603 115.98ZM234.216 117.164C234.219 117.161 234.323 117.217 234.447 117.288C235.353 117.812 236.616 118.303 237.694 118.55L237.791 118.572L237.657 118.646C237.095 118.959 235.241 119.73 233.348 120.44C233.071 120.544 232.802 120.645 232.749 120.666C232.696 120.687 232.653 120.702 232.653 120.697C232.653 120.693 232.731 120.543 232.827 120.364C233.359 119.37 233.889 118.163 234.161 117.325C234.189 117.239 234.214 117.167 234.216 117.164ZM233.542 117.385C233.545 117.388 233.512 117.477 233.468 117.582C233.099 118.475 232.615 119.45 231.998 120.545C231.841 120.823 231.708 121.051 231.703 121.051C231.698 121.05 231.57 120.974 231.419 120.882C230.52 120.332 229.725 119.654 229.202 118.995L229.128 118.902L229.516 118.795C230.898 118.417 232.071 118.012 233.237 117.509C233.402 117.438 233.539 117.382 233.542 117.385ZM237.73 118.847C237.732 118.847 237.733 118.85 237.733 118.85C237.733 118.945 237.519 119.817 237.341 120.448C237.191 120.978 237.066 121.392 236.833 122.126C236.731 122.45 236.642 122.714 236.637 122.713C236.632 122.712 236.607 122.707 236.582 122.702C235.323 122.474 234.194 122.156 233.138 121.732C232.842 121.613 232.415 121.424 232.392 121.402C232.385 121.394 232.64 121.274 232.959 121.135C234.889 120.293 236.889 119.334 237.573 118.922C237.655 118.873 237.716 118.844 237.73 118.847ZM228.062 119.178C228.073 119.188 227.533 119.961 226.779 121.016C226.517 121.383 226.209 121.815 226.095 121.977C225.981 122.138 225.808 122.394 225.711 122.545L225.532 122.82L225.343 122.661C225.12 122.474 224.73 122.076 224.553 121.856C224.189 121.402 223.942 120.925 223.845 120.486C223.8 120.284 223.799 120.181 223.842 120.168C223.903 120.149 225.036 119.883 226.097 119.636C226.687 119.5 227.369 119.34 227.614 119.281C227.858 119.222 228.06 119.176 228.062 119.178ZM228.605 119.385L228.742 119.538C229.353 120.218 229.974 120.726 230.732 121.164C230.866 121.241 230.968 121.309 230.959 121.314C230.927 121.333 228.338 122.254 227.141 122.671C226.465 122.907 225.911 123.098 225.908 123.098C225.905 123.098 225.866 123.072 225.823 123.042L225.745 122.986L225.868 122.81C226.265 122.234 226.764 121.601 227.857 120.287L228.605 119.385ZM231.989 121.804C231.992 121.8 232.181 121.867 232.41 121.953C232.962 122.159 233.396 122.294 233.982 122.441C234.702 122.621 235.743 122.801 236.36 122.853C236.454 122.861 236.502 122.872 236.487 122.881C236.459 122.9 235.835 123.108 235.376 123.252C234.647 123.481 232.422 124.139 230.607 124.661C230.27 124.758 229.982 124.84 229.967 124.843C229.926 124.851 229.784 124.814 229.784 124.795C229.784 124.786 229.886 124.657 230.01 124.509C230.62 123.78 231.226 122.965 231.732 122.194C231.87 121.983 231.986 121.807 231.989 121.804ZM231.239 121.825C231.245 121.83 230.944 122.312 230.415 123.145C230.192 123.497 229.939 123.897 229.852 124.035C229.765 124.172 229.638 124.382 229.57 124.5L229.445 124.717L229.382 124.7C229.23 124.659 228.158 124.28 227.875 124.168C227.524 124.028 227.159 123.86 226.889 123.714C226.552 123.532 226.124 123.262 226.158 123.251C226.167 123.248 226.747 123.09 227.446 122.899C229.304 122.393 230.332 122.102 231.006 121.891C231.132 121.852 231.237 121.823 231.239 121.825ZM236.517 123.062C236.521 123.062 236.523 123.062 236.523 123.062C236.54 123.106 235.853 125.012 235.601 125.616C235.545 125.751 235.524 125.784 235.495 125.782C235.423 125.779 234.426 125.64 233.822 125.548C232.766 125.388 230.996 125.079 230.549 124.977L230.445 124.954L231.079 124.811C232.436 124.505 233.088 124.341 233.75 124.139C234.584 123.883 235.41 123.565 236.244 123.177C236.376 123.116 236.489 123.069 236.517 123.062Z" fill="url(#paint4_linear_432_14782)"/>
<path d="M233.371 98.0002C233.277 97.9892 231.771 98.5316 230.804 98.9245C229.494 99.457 228.476 99.9671 227.848 100.408C227.615 100.572 227.321 100.867 227.278 100.98C227.262 101.022 227.254 101.072 227.254 101.123L227.824 101.66L229.175 102.092L232.393 102.666L236.072 103.299L236.109 102.983C236.098 102.981 236.087 102.979 236.076 102.978L235.592 102.901L235.493 102.728C234.993 101.846 234.441 100.754 234.12 100.016C233.872 99.4435 233.633 98.7844 233.501 98.3071C233.422 98.0236 233.414 98.0053 233.371 98.0002ZM233.3 98.2184C233.303 98.2177 233.306 98.2184 233.306 98.2184C233.309 98.2219 233.326 98.3403 233.343 98.481C233.416 99.0735 233.548 99.6482 233.756 100.267C233.912 100.733 233.914 100.705 233.728 100.654C233.296 100.533 231.357 100.2 229.955 100.006C229.729 99.9746 229.541 99.9468 229.538 99.9438C229.521 99.926 230.549 99.3869 231.006 99.1747C231.591 98.9025 233.184 98.2393 233.3 98.2184ZM229.215 100.116L229.379 100.172C230.279 100.478 232.535 100.909 233.782 101.013C233.923 101.024 234.041 101.037 234.045 101.04C234.048 101.044 233.929 101.107 233.78 101.182C233.178 101.484 232.516 101.851 232.058 102.138C231.923 102.222 231.8 102.29 231.784 102.288C231.767 102.287 231.679 102.273 231.586 102.257L231.416 102.23L230.991 101.817C230.243 101.093 229.659 100.533 229.434 100.322L229.215 100.116ZM229.048 100.249L229.644 100.993C229.972 101.403 230.301 101.809 230.374 101.896C230.447 101.984 230.503 102.058 230.5 102.06C230.483 102.073 229.636 101.908 229.187 101.805C228.726 101.699 228.536 101.649 228.25 101.557L228.018 101.483L228.019 101.425C228.022 101.139 228.382 100.718 228.994 100.286L229.048 100.249ZM234.125 101.263C234.143 101.264 234.161 101.301 234.214 101.416C234.359 101.733 234.809 102.592 234.918 102.758C234.954 102.812 235.01 102.816 234.413 102.72C232.977 102.488 232.513 102.41 232.513 102.401C232.513 102.396 232.556 102.367 232.609 102.338C233.053 102.091 233.502 101.78 233.901 101.443C233.997 101.363 234.088 101.286 234.105 101.272C234.112 101.266 234.119 101.262 234.125 101.263Z" fill="url(#paint5_linear_432_14782)"/>
<path d="M227.303 100.923C227.303 100.923 227.21 101.07 227.298 101.29C227.352 101.426 227.516 101.589 227.696 101.762C227.696 101.762 229.58 103.6 229.81 103.866C230.854 105.071 231.308 106.257 231.35 107.894C231.376 108.945 231.174 109.869 230.682 110.943C229.799 112.867 227.941 114.989 225.07 117.348L225.491 117.209C225.762 117.006 226.13 116.789 226.997 116.315C228.996 115.222 231.239 114.217 233.996 113.181C237.961 111.69 244.485 109.942 248.197 109.373L248.583 109.314L248.524 109.221C248.185 108.693 247.953 108.368 247.674 108.023C246.86 107.016 245.874 106.195 244.667 105.519C243.007 104.59 240.855 103.868 238.134 103.327C237.62 103.224 236.493 103.031 235.577 102.888C233.635 102.586 232.382 102.382 230.999 102.141C230.503 102.055 229.763 101.93 229.271 101.824C229.015 101.769 228.528 101.653 228.15 101.523C227.837 101.4 227.398 101.281 227.303 100.923ZM228.395 101.983C228.398 101.98 228.469 102.002 228.555 102.032C228.714 102.086 228.924 102.149 229.168 102.217C229.339 102.265 229.527 102.315 229.727 102.366C229.982 102.431 230.193 102.487 230.195 102.49C230.224 102.522 230.652 103.888 230.798 104.413C230.853 104.613 230.896 104.779 230.892 104.783C230.888 104.787 230.84 104.714 230.787 104.62C230.292 103.749 229.507 102.863 228.6 102.15C228.487 102.062 228.395 101.986 228.395 101.983ZM230.483 102.559C230.505 102.558 230.599 102.574 230.711 102.598C231.433 102.758 232.723 103.007 233.552 103.147C233.69 103.17 233.804 103.195 233.804 103.203C233.804 103.21 233.753 103.243 233.69 103.274C233.551 103.344 232.987 103.681 232.799 103.808C232.329 104.122 231.906 104.459 231.598 104.766C231.474 104.889 231.371 104.989 231.367 104.989C231.364 104.989 231.342 104.917 231.319 104.829C231.165 104.239 230.847 103.368 230.562 102.755C230.516 102.656 230.478 102.569 230.478 102.561C230.478 102.561 230.48 102.56 230.483 102.559ZM234.155 103.258C234.179 103.266 234.224 103.408 234.305 103.729C234.46 104.342 234.533 105.031 234.509 105.669C234.502 105.846 234.491 106.011 234.484 106.035L234.47 106.079L234.251 106.008C233.8 105.864 233.062 105.647 232.429 105.472C232.07 105.372 231.775 105.284 231.775 105.275C231.775 105.249 232.3 104.724 232.525 104.525C232.955 104.145 234.114 103.244 234.155 103.258ZM234.446 103.299C234.46 103.287 236.201 103.589 236.992 103.74C237.582 103.853 238.436 104.032 238.487 104.053C238.512 104.064 238.424 104.112 238.14 104.24C237.019 104.745 236.189 105.196 235.364 105.749C235.146 105.894 234.966 106.013 234.962 106.013C234.958 106.013 234.955 105.891 234.955 105.743C234.954 104.938 234.793 104.126 234.499 103.439C234.467 103.366 234.443 103.302 234.446 103.299ZM238.949 104.19C238.963 104.203 238.906 104.547 238.856 104.75C238.702 105.381 238.294 106.318 237.79 107.199C237.701 107.354 237.622 107.484 237.613 107.486C237.603 107.489 237.489 107.429 237.358 107.352C236.865 107.064 236.307 106.792 235.695 106.539C235.524 106.468 235.378 106.406 235.371 106.399C235.343 106.373 236.704 105.471 237.426 105.038C238.004 104.691 238.933 104.174 238.949 104.19ZM239.271 104.24C239.311 104.24 240.083 104.451 240.482 104.57C241.477 104.868 242.625 105.287 243.369 105.625L243.679 105.765L243.46 105.816C241.639 106.234 240.078 106.717 238.574 107.328C238.449 107.378 238.34 107.42 238.333 107.42C238.325 107.42 238.365 107.323 238.421 107.205C238.873 106.245 239.165 105.237 239.24 104.381C239.247 104.304 239.261 104.24 239.271 104.24ZM231.594 106.005C231.607 105.993 232.195 106.13 232.515 106.22C232.997 106.356 234.023 106.699 234.023 106.725C234.023 106.73 233.91 106.829 233.772 106.944C233.218 107.408 232.683 107.893 232.042 108.512C231.852 108.695 231.691 108.845 231.683 108.845C231.675 108.845 231.672 108.818 231.676 108.785C231.772 108.073 231.752 107.158 231.617 106.228C231.6 106.11 231.59 106.009 231.594 106.005ZM243.973 106.016C243.982 106.025 243.7 106.465 243.525 106.716C243.269 107.083 242.899 107.564 242.054 108.625C241.611 109.183 241.11 109.814 240.942 110.028C240.773 110.242 240.632 110.416 240.628 110.416C240.624 110.416 240.569 110.34 240.507 110.247C240.031 109.536 239.466 108.911 238.792 108.35C238.667 108.246 238.525 108.131 238.477 108.096C238.43 108.061 238.392 108.028 238.391 108.023C238.391 108.011 239.111 107.703 239.66 107.479C240.616 107.09 241.923 106.624 242.901 106.324C243.417 106.166 243.965 106.009 243.973 106.016ZM244.298 106.102C244.313 106.098 244.416 106.148 244.539 106.219C245.569 106.809 246.579 107.567 247.372 108.346C247.598 108.568 248.151 109.142 248.142 109.147C248.14 109.148 247.95 109.163 247.718 109.181C245.933 109.315 243.651 109.695 241.454 110.223C241.304 110.259 241.175 110.289 241.167 110.289C241.159 110.289 241.322 110.125 241.53 109.925C242.82 108.684 243.409 107.901 244.102 106.502C244.205 106.293 244.292 106.113 244.296 106.102L244.298 106.102ZM234.862 107.069C234.921 107.082 235.472 107.338 235.887 107.546C236.267 107.736 236.842 108.042 236.871 108.069C236.874 108.073 236.672 108.178 236.42 108.304C235.624 108.703 234.941 109.079 234.229 109.514C234.026 109.638 233.856 109.741 233.85 109.741C233.833 109.741 233.84 109.725 233.953 109.517C234.333 108.822 234.639 107.993 234.815 107.182C234.83 107.11 234.849 107.066 234.862 107.069ZM234.308 107.168C234.32 107.179 234.177 107.704 234.086 107.984C233.913 108.521 233.619 109.197 233.338 109.705C233.271 109.824 233.17 109.999 233.112 110.094L233.008 110.265L232.77 110.035C232.494 109.767 232.268 109.601 231.981 109.453C231.868 109.395 231.776 109.341 231.776 109.333C231.776 109.298 232.499 108.641 233.057 108.169C233.457 107.831 234.298 107.158 234.308 107.168ZM237.677 108.554L237.884 108.688C238.358 108.995 238.92 109.41 239.348 109.766C239.588 109.966 240.054 110.384 240.15 110.485L240.201 110.539L239.858 110.635C237.916 111.173 236.416 111.653 234.666 112.296C234.471 112.368 234.304 112.427 234.292 112.427C234.268 112.427 234.244 112.449 234.681 112.047C235.8 111.017 236.789 109.882 237.528 108.777L237.677 108.554ZM236.792 108.775C236.802 108.785 236.218 109.603 235.871 110.065C235.456 110.618 234.717 111.541 234.208 112.143C233.995 112.394 233.813 112.603 233.803 112.606C233.792 112.61 233.786 112.548 233.786 112.451C233.785 111.938 233.655 111.389 233.425 110.925C233.328 110.729 233.312 110.681 233.332 110.663C233.412 110.591 234.647 109.886 235.426 109.469C235.961 109.182 236.782 108.765 236.792 108.775ZM231.437 110.087C231.448 110.087 231.547 110.137 231.657 110.198C231.928 110.348 232.171 110.513 232.385 110.691C232.393 110.698 232.282 110.789 232.138 110.893C231.736 111.183 231.125 111.644 230.77 111.926C230.396 112.224 230.384 112.233 230.426 112.169C230.706 111.74 230.847 111.498 230.994 111.188C231.124 110.913 231.255 110.586 231.348 110.302C231.386 110.184 231.427 110.087 231.437 110.087ZM232.864 111.207C232.883 111.205 232.911 111.24 233.025 111.412C233.267 111.773 233.452 112.255 233.5 112.647L233.51 112.731L232.93 112.955C231.891 113.359 230.933 113.757 230.287 114.053C230.106 114.136 229.787 114.288 229.578 114.393C229.369 114.497 229.199 114.579 229.199 114.574C229.199 114.57 229.33 114.471 229.49 114.355C230.759 113.434 231.853 112.425 232.678 111.417C232.766 111.309 232.846 111.216 232.856 111.21C232.859 111.208 232.861 111.207 232.864 111.207ZM232.206 111.37C232.222 111.387 231.737 111.935 231.411 112.269C230.593 113.103 229.783 113.757 228.779 114.394C228.653 114.474 228.538 114.546 228.523 114.555C228.496 114.571 228.532 114.53 228.973 114.049C229.251 113.747 229.463 113.495 229.705 113.182C229.864 112.975 229.894 112.946 230.127 112.778C230.754 112.325 232.189 111.353 232.206 111.37Z" fill="url(#paint6_radial_432_14782)"/>
</g>
</g></svg>
