<svg viewBox="0 0 24 24" fill="none" xmlns="http://www.w3.org/2000/svg"><g transform="translate(-52 -408)">
<path id="Vector_450" d="M56 424C55.4696 424 54.9609 423.789 54.5858 423.414C54.2107 423.039 54 422.53 54 422V412C54 411.47 54.2107 410.961 54.5858 410.586C54.9609 410.211 55.4696 410 56 410H66C66.5304 410 67.0391 410.211 67.4142 410.586C67.7893 410.961 68 411.47 68 412V415C68 415.265 68.1054 415.52 68.2929 415.707C68.4804 415.895 68.7348 416 69 416H72C72.5304 416 73.0391 416.211 73.4142 416.586C73.7893 416.961 74 417.47 74 418V428C74 428.53 73.7893 429.039 73.4142 429.414C73.0391 429.789 72.5304 430 72 430H62C61.4696 430 60.9609 429.789 60.5858 429.414C60.2107 429.039 60 428.53 60 428V425C60 424.735 59.8946 424.48 59.7071 424.293C59.5196 424.105 59.2652 424 59 424H56Z" stroke="black" stroke-width="2" stroke-linecap="round" stroke-linejoin="round"/>
</g></svg>
