<svg viewBox="0 0 24 24" fill="none" xmlns="http://www.w3.org/2000/svg"><g transform="translate(-52 -312)">
<path id="Vector_311" d="M64.0344 324.681C63.9984 324.591 63.9896 324.492 64.0093 324.396C64.0289 324.301 64.076 324.213 64.1449 324.145C64.2137 324.076 64.3012 324.029 64.3966 324.009C64.492 323.989 64.591 323.998 64.6814 324.034L73.6814 327.534C73.7779 327.572 73.8603 327.639 73.9172 327.725C73.9741 327.812 74.0028 327.914 73.9991 328.017C73.9955 328.121 73.9598 328.221 73.897 328.303C73.8342 328.385 73.7473 328.446 73.6484 328.477L70.2044 329.545C70.049 329.593 69.9077 329.678 69.7927 329.793C69.6777 329.908 69.5925 330.05 69.5444 330.205L68.4774 333.648C68.4466 333.747 68.3857 333.834 68.3034 333.897C68.221 333.959 68.1211 333.995 68.0176 333.999C67.9141 334.002 67.812 333.974 67.7254 333.917C67.6389 333.86 67.5721 333.778 67.5344 333.681L64.0344 324.681Z" stroke="black" stroke-width="2" stroke-linecap="round" stroke-linejoin="round"/>
<path id="Vector_312" d="M57 315C56.4696 315 55.9609 315.211 55.5858 315.586C55.2107 315.961 55 316.47 55 317" stroke="black" stroke-width="2" stroke-linecap="round" stroke-linejoin="round"/>
<path id="Vector_313" d="M71 315C71.5304 315 72.0391 315.211 72.4142 315.586C72.7893 315.961 73 316.47 73 317" stroke="black" stroke-width="2" stroke-linecap="round" stroke-linejoin="round"/>
<path id="Vector_314" d="M57 333C56.4696 333 55.9609 332.789 55.5858 332.414C55.2107 332.039 55 331.53 55 331" stroke="black" stroke-width="2" stroke-linecap="round" stroke-linejoin="round"/>
<path id="Vector_315" d="M61 315H62" stroke="black" stroke-width="2" stroke-linecap="round" stroke-linejoin="round"/>
<path id="Vector_316" d="M61 333H63" stroke="black" stroke-width="2" stroke-linecap="round" stroke-linejoin="round"/>
<path id="Vector_317" d="M66 315H67" stroke="black" stroke-width="2" stroke-linecap="round" stroke-linejoin="round"/>
<path id="Vector_318" d="M55 321V322" stroke="black" stroke-width="2" stroke-linecap="round" stroke-linejoin="round"/>
<path id="Vector_319" d="M73 321V323" stroke="black" stroke-width="2" stroke-linecap="round" stroke-linejoin="round"/>
<path id="Vector_320" d="M55 326V327" stroke="black" stroke-width="2" stroke-linecap="round" stroke-linejoin="round"/>
</g></svg>
