<svg viewBox="0 0 24 24" fill="none" xmlns="http://www.w3.org/2000/svg"><g transform="translate(-52 -280)">
<path id="Vector_254" d="M73 288V285C73 284.47 72.7893 283.961 72.4142 283.586C72.0391 283.211 71.5304 283 71 283H57C56.4696 283 55.9609 283.211 55.5858 283.586C55.2107 283.961 55 284.47 55 285V288" stroke="black" stroke-width="2" stroke-linecap="round" stroke-linejoin="round"/>
<path id="Vector_255" d="M73 296V299C73 299.53 72.7893 300.039 72.4142 300.414C72.0391 300.789 71.5304 301 71 301H57C56.4696 301 55.9609 300.789 55.5858 300.414C55.2107 300.039 55 299.53 55 299V296" stroke="black" stroke-width="2" stroke-linecap="round" stroke-linejoin="round"/>
<path id="Vector_256" d="M56 292H54" stroke="black" stroke-width="2" stroke-linecap="round" stroke-linejoin="round"/>
<path id="Vector_257" d="M62 292H60" stroke="black" stroke-width="2" stroke-linecap="round" stroke-linejoin="round"/>
<path id="Vector_258" d="M68 292H66" stroke="black" stroke-width="2" stroke-linecap="round" stroke-linejoin="round"/>
<path id="Vector_259" d="M74 292H72" stroke="black" stroke-width="2" stroke-linecap="round" stroke-linejoin="round"/>
</g></svg>
