<svg viewBox="0 0 24 24" fill="none" xmlns="http://www.w3.org/2000/svg"><g transform="translate(-212 -248)">
<path id="Vector_218" d="M222 260H233" stroke="black" stroke-width="2" stroke-linecap="round" stroke-linejoin="round"/>
<path id="Vector_219" d="M229 264L233 260L229 256" stroke="black" stroke-width="2" stroke-linecap="round" stroke-linejoin="round"/>
<path id="Vector_220" d="M233 254.344V253C233 252.47 232.789 251.961 232.414 251.586C232.039 251.211 231.53 251 231 251H217C216.47 251 215.961 251.211 215.586 251.586C215.211 251.961 215 252.47 215 253V267C215 267.53 215.211 268.039 215.586 268.414C215.961 268.789 216.47 269 217 269H231C231.53 269 232.039 268.789 232.414 268.414C232.789 268.039 233 267.53 233 267V265.656" stroke="black" stroke-width="2" stroke-linecap="round" stroke-linejoin="round"/>
</g></svg>
