<svg viewBox="0 0 24 24" fill="none" xmlns="http://www.w3.org/2000/svg"><g transform="translate(-372 -280)">
<path id="Vector_291" d="M382 289.5L380 292L382 294.5" stroke="black" stroke-width="2" stroke-linecap="round" stroke-linejoin="round"/>
<path id="Vector_292" d="M386 301H387" stroke="black" stroke-width="2" stroke-linecap="round" stroke-linejoin="round"/>
<path id="Vector_293" d="M386 289.5L388 292L386 294.5" stroke="black" stroke-width="2" stroke-linecap="round" stroke-linejoin="round"/>
<path id="Vector_294" d="M377 301C376.47 301 375.961 300.789 375.586 300.414C375.211 300.039 375 299.53 375 299V285C375 284.47 375.211 283.961 375.586 283.586C375.961 283.211 376.47 283 377 283H391C391.53 283 392.039 283.211 392.414 283.586C392.789 283.961 393 284.47 393 285V299C393 299.53 392.789 300.039 392.414 300.414C392.039 300.789 391.53 301 391 301" stroke="black" stroke-width="2" stroke-linecap="round" stroke-linejoin="round"/>
<path id="Vector_295" d="M381 301H382" stroke="black" stroke-width="2" stroke-linecap="round" stroke-linejoin="round"/>
</g></svg>
