<svg viewBox="0 0 24 24" fill="none" xmlns="http://www.w3.org/2000/svg"><g transform="translate(-180 -248)">
<path id="Vector_215" d="M190 264L194 260L190 256" stroke="black" stroke-width="2" stroke-linecap="round" stroke-linejoin="round"/>
<path id="Vector_216" d="M183 260H194" stroke="black" stroke-width="2" stroke-linecap="round" stroke-linejoin="round"/>
<path id="Vector_217" d="M183 256V253C183 252.47 183.211 251.961 183.586 251.586C183.961 251.211 184.47 251 185 251H199C199.53 251 200.039 251.211 200.414 251.586C200.789 251.961 201 252.47 201 253V267C201 267.53 200.789 268.039 200.414 268.414C200.039 268.789 199.53 269 199 269H185C184.47 269 183.961 268.789 183.586 268.414C183.211 268.039 183 267.53 183 267V264" stroke="black" stroke-width="2" stroke-linecap="round" stroke-linejoin="round"/>
</g></svg>
