<svg viewBox="0 0 24 24" fill="none" xmlns="http://www.w3.org/2000/svg"><g transform="translate(-148 -376)">
<path id="Vector_416" d="M158 398C157.47 398 156.961 397.789 156.586 397.414C156.211 397.039 156 396.53 156 396" stroke="black" stroke-width="2" stroke-linecap="round" stroke-linejoin="round"/>
<path id="Vector_417" d="M162 378C162.53 378 163.039 378.211 163.414 378.586C163.789 378.961 164 379.47 164 380" stroke="black" stroke-width="2" stroke-linecap="round" stroke-linejoin="round"/>
<path id="Vector_418" d="M164 398H162" stroke="black" stroke-width="2" stroke-linecap="round" stroke-linejoin="round"/>
<path id="Vector_419" d="M150 386V384" stroke="black" stroke-width="2" stroke-linecap="round" stroke-linejoin="round"/>
<path id="Vector_420" d="M150 380C150 379.47 150.211 378.961 150.586 378.586C150.961 378.211 151.47 378 152 378" stroke="black" stroke-width="2" stroke-linecap="round" stroke-linejoin="round"/>
<path id="Vector_421" d="M168 384C168.53 384 169.039 384.211 169.414 384.586C169.789 384.961 170 385.47 170 386" stroke="black" stroke-width="2" stroke-linecap="round" stroke-linejoin="round"/>
<path id="Vector_422" d="M170 390V392" stroke="black" stroke-width="2" stroke-linecap="round" stroke-linejoin="round"/>
<path id="Vector_423" d="M170 396C170 396.53 169.789 397.039 169.414 397.414C169.039 397.789 168.53 398 168 398" stroke="black" stroke-width="2" stroke-linecap="round" stroke-linejoin="round"/>
<path id="Vector_424" d="M152 392C151.47 392 150.961 391.789 150.586 391.414C150.211 391.039 150 390.53 150 390" stroke="black" stroke-width="2" stroke-linecap="round" stroke-linejoin="round"/>
<path id="Vector_425" d="M156 386C156 385.47 156.211 384.961 156.586 384.586C156.961 384.211 157.47 384 158 384H163C163.265 384 163.52 384.105 163.707 384.293C163.895 384.48 164 384.735 164 385V390C164 390.53 163.789 391.039 163.414 391.414C163.039 391.789 162.53 392 162 392H157C156.735 392 156.48 391.895 156.293 391.707C156.105 391.52 156 391.265 156 391V386Z" stroke="black" stroke-width="2" stroke-linecap="round" stroke-linejoin="round"/>
<path id="Vector_426" d="M156 378H158" stroke="black" stroke-width="2" stroke-linecap="round" stroke-linejoin="round"/>
</g></svg>
