<svg viewBox="0 0 24 24" fill="none" xmlns="http://www.w3.org/2000/svg"><g transform="translate(-276 -376)">
<path id="Vector_435" d="M295 379H281C279.895 379 279 379.895 279 381V395C279 396.105 279.895 397 281 397H295C296.105 397 297 396.105 297 395V381C297 379.895 296.105 379 295 379Z" stroke="black" stroke-width="2" stroke-linecap="round" stroke-linejoin="round"/>
<path id="Vector_436" d="M291 384H285C284.448 384 284 384.448 284 385V391C284 391.552 284.448 392 285 392H291C291.552 392 292 391.552 292 391V385C292 384.448 291.552 384 291 384Z" stroke="black" stroke-width="2" stroke-linecap="round" stroke-linejoin="round"/>
</g></svg>
