<svg viewBox="0 0 24 24" fill="none" xmlns="http://www.w3.org/2000/svg"><g transform="translate(-20 -408)">
<path id="Vector_448" d="M39 411H25C23.8954 411 23 411.895 23 413V427C23 428.105 23.8954 429 25 429H39C40.1046 429 41 428.105 41 427V413C41 411.895 40.1046 411 39 411Z" stroke="black" stroke-width="2" stroke-linecap="round" stroke-linejoin="round"/>
<path id="Vector_449" d="M34 417H30C29.4477 417 29 417.448 29 418V422C29 422.552 29.4477 423 30 423H34C34.5523 423 35 422.552 35 422V418C35 417.448 34.5523 417 34 417Z" stroke="black" stroke-width="2" stroke-linecap="round" stroke-linejoin="round"/>
</g></svg>
