<svg viewBox="0 0 24 24" fill="none" xmlns="http://www.w3.org/2000/svg"><g transform="translate(-244 -344)">
<path id="Vector_390" d="M263 347H249C247.895 347 247 347.895 247 349V363C247 364.105 247.895 365 249 365H263C264.105 365 265 364.105 265 363V349C265 347.895 264.105 347 263 347Z" stroke="black" stroke-width="2" stroke-linecap="round" stroke-linejoin="round"/>
<path id="Vector_391" d="M256 356H253.5C252.837 356 252.201 355.737 251.732 355.268C251.263 354.799 251 354.163 251 353.5C251 352.837 251.263 352.201 251.732 351.732C252.201 351.263 252.837 351 253.5 351H261" stroke="black" stroke-width="2" stroke-linecap="round" stroke-linejoin="round"/>
<path id="Vector_392" d="M256 351V361" stroke="black" stroke-width="2" stroke-linecap="round" stroke-linejoin="round"/>
<path id="Vector_393" d="M260 351V361" stroke="black" stroke-width="2" stroke-linecap="round" stroke-linejoin="round"/>
</g></svg>
