<svg viewBox="0 0 24 24" fill="none" xmlns="http://www.w3.org/2000/svg"><g transform="translate(-308 -280)">
<path id="Vector_276" d="M313 283C312.47 283 311.961 283.211 311.586 283.586C311.211 283.961 311 284.47 311 285" stroke="black" stroke-width="2" stroke-linecap="round" stroke-linejoin="round"/>
<path id="Vector_277" d="M327 283C327.53 283 328.039 283.211 328.414 283.586C328.789 283.961 329 284.47 329 285" stroke="black" stroke-width="2" stroke-linecap="round" stroke-linejoin="round"/>
<path id="Vector_278" d="M329 299C329 299.53 328.789 300.039 328.414 300.414C328.039 300.789 327.53 301 327 301" stroke="black" stroke-width="2" stroke-linecap="round" stroke-linejoin="round"/>
<path id="Vector_279" d="M313 301C312.47 301 311.961 300.789 311.586 300.414C311.211 300.039 311 299.53 311 299" stroke="black" stroke-width="2" stroke-linecap="round" stroke-linejoin="round"/>
<path id="Vector_280" d="M317 283H318" stroke="black" stroke-width="2" stroke-linecap="round" stroke-linejoin="round"/>
<path id="Vector_281" d="M317 301H318" stroke="black" stroke-width="2" stroke-linecap="round" stroke-linejoin="round"/>
<path id="Vector_282" d="M322 283H323" stroke="black" stroke-width="2" stroke-linecap="round" stroke-linejoin="round"/>
<path id="Vector_283" d="M322 301H323" stroke="black" stroke-width="2" stroke-linecap="round" stroke-linejoin="round"/>
<path id="Vector_284" d="M311 289V290" stroke="black" stroke-width="2" stroke-linecap="round" stroke-linejoin="round"/>
<path id="Vector_285" d="M329 289V290" stroke="black" stroke-width="2" stroke-linecap="round" stroke-linejoin="round"/>
<path id="Vector_286" d="M311 294V295" stroke="black" stroke-width="2" stroke-linecap="round" stroke-linejoin="round"/>
<path id="Vector_287" d="M329 294V295" stroke="black" stroke-width="2" stroke-linecap="round" stroke-linejoin="round"/>
</g></svg>
