<svg viewBox="0 0 24 24" fill="none" xmlns="http://www.w3.org/2000/svg"><g transform="translate(-52 -344)">
<path id="Vector_370" d="M71 347H57C55.8954 347 55 347.895 55 349V363C55 364.105 55.8954 365 57 365H71C72.1046 365 73 364.105 73 363V349C73 347.895 72.1046 347 71 347Z" stroke="black" stroke-width="2" stroke-linecap="round" stroke-linejoin="round"/>
<path id="Vector_371" d="M61 361V351H65C65.7956 351 66.5587 351.316 67.1213 351.879C67.6839 352.441 68 353.204 68 354C68 354.796 67.6839 355.559 67.1213 356.121C66.5587 356.684 65.7956 357 65 357H61" stroke="black" stroke-width="2" stroke-linecap="round" stroke-linejoin="round"/>
</g></svg>
