<svg viewBox="0 0 24 24" fill="none" xmlns="http://www.w3.org/2000/svg"><g transform="translate(-116 -312)">
<path id="Vector_336" d="M130 333H131" stroke="black" stroke-width="2" stroke-linecap="round" stroke-linejoin="round"/>
<path id="Vector_337" d="M137 326V327" stroke="black" stroke-width="2" stroke-linecap="round" stroke-linejoin="round"/>
<path id="Vector_338" d="M137 331C137 331.53 136.789 332.039 136.414 332.414C136.039 332.789 135.53 333 135 333" stroke="black" stroke-width="2" stroke-linecap="round" stroke-linejoin="round"/>
<path id="Vector_339" d="M137 321V322" stroke="black" stroke-width="2" stroke-linecap="round" stroke-linejoin="round"/>
<path id="Vector_340" d="M119 326V327" stroke="black" stroke-width="2" stroke-linecap="round" stroke-linejoin="round"/>
<path id="Vector_341" d="M119 317C119 316.47 119.211 315.961 119.586 315.586C119.961 315.211 120.47 315 121 315H135C135.53 315 136.039 315.211 136.414 315.586C136.789 315.961 137 316.47 137 317" stroke="black" stroke-width="2" stroke-linecap="round" stroke-linejoin="round"/>
<path id="Vector_342" d="M119 321V322" stroke="black" stroke-width="2" stroke-linecap="round" stroke-linejoin="round"/>
<path id="Vector_343" d="M121 333C120.47 333 119.961 332.789 119.586 332.414C119.211 332.039 119 331.53 119 331" stroke="black" stroke-width="2" stroke-linecap="round" stroke-linejoin="round"/>
<path id="Vector_344" d="M125 333H126" stroke="black" stroke-width="2" stroke-linecap="round" stroke-linejoin="round"/>
</g></svg>
