<svg viewBox="0 0 24 24" fill="none" xmlns="http://www.w3.org/2000/svg"><g transform="translate(-276 -344)">
<path id="Vector_394" d="M295 347H281C279.895 347 279 347.895 279 349V363C279 364.105 279.895 365 281 365H295C296.105 365 297 364.105 297 363V349C297 347.895 296.105 347 295 347Z" stroke="black" stroke-width="2" stroke-linecap="round" stroke-linejoin="round"/>
<path id="Vector_395" d="M285 353.003C284.999 352.826 285.046 352.651 285.135 352.498C285.224 352.344 285.353 352.217 285.507 352.13C285.662 352.042 285.837 351.998 286.014 352C286.192 352.003 286.365 352.052 286.517 352.144L291.514 355.141C291.663 355.23 291.786 355.355 291.872 355.506C291.957 355.657 292.002 355.827 292.002 356C292.002 356.173 291.957 356.343 291.872 356.494C291.786 356.645 291.663 356.77 291.514 356.859L286.517 359.856C286.365 359.948 286.191 359.997 286.014 360C285.836 360.002 285.661 359.958 285.507 359.87C285.352 359.782 285.224 359.655 285.135 359.502C285.046 359.348 284.999 359.174 285 358.996V353.003Z" stroke="black" stroke-width="2" stroke-linecap="round" stroke-linejoin="round"/>
</g></svg>
