<svg viewBox="0 0 24 24" fill="none" xmlns="http://www.w3.org/2000/svg"><g transform="translate(-308 -312)">
<path id="Vector_360" d="M316 328V320.5C316 320.395 316.033 320.293 316.094 320.208C316.156 320.123 316.242 320.059 316.342 320.026C316.441 319.992 316.549 319.991 316.649 320.023C316.749 320.054 316.837 320.116 316.9 320.2L319.6 323.799C319.647 323.861 319.707 323.912 319.776 323.946C319.846 323.981 319.922 323.999 320 323.999C320.078 323.999 320.154 323.981 320.224 323.946C320.293 323.912 320.353 323.861 320.4 323.799L323.1 320.199C323.163 320.115 323.251 320.053 323.351 320.022C323.451 319.99 323.559 319.991 323.658 320.025C323.758 320.058 323.844 320.122 323.906 320.207C323.967 320.292 324 320.394 324 320.499V328" stroke="black" stroke-width="2" stroke-linecap="round" stroke-linejoin="round"/>
<path id="Vector_361" d="M327 315H313C311.895 315 311 315.895 311 317V331C311 332.105 311.895 333 313 333H327C328.105 333 329 332.105 329 331V317C329 315.895 328.105 315 327 315Z" stroke="black" stroke-width="2" stroke-linecap="round" stroke-linejoin="round"/>
</g></svg>
