<svg viewBox="0 0 24 24" fill="none" xmlns="http://www.w3.org/2000/svg"><g transform="translate(-308 -376)">
<path id="Vector_437" d="M318 398C317.47 398 316.961 397.789 316.586 397.414C316.211 397.039 316 396.53 316 396" stroke="black" stroke-width="2" stroke-linecap="round" stroke-linejoin="round"/>
<path id="Vector_438" d="M324 398H322" stroke="black" stroke-width="2" stroke-linecap="round" stroke-linejoin="round"/>
<path id="Vector_439" d="M324 380C324 379.47 323.789 378.961 323.414 378.586C323.039 378.211 322.53 378 322 378H312C311.47 378 310.961 378.211 310.586 378.586C310.211 378.961 310 379.47 310 380V390C310 390.53 310.211 391.039 310.586 391.414C310.961 391.789 311.47 392 312 392H315C315.265 392 315.52 391.895 315.707 391.707C315.895 391.52 316 391.265 316 391V386C316 385.47 316.211 384.961 316.586 384.586C316.961 384.211 317.47 384 318 384H323C323.265 384 323.52 383.895 323.707 383.707C323.895 383.52 324 383.265 324 383V380Z" stroke="black" stroke-width="2" stroke-linecap="round" stroke-linejoin="round"/>
<path id="Vector_440" d="M328 384C328.53 384 329.039 384.211 329.414 384.586C329.789 384.961 330 385.47 330 386" stroke="black" stroke-width="2" stroke-linecap="round" stroke-linejoin="round"/>
<path id="Vector_441" d="M330 390V392" stroke="black" stroke-width="2" stroke-linecap="round" stroke-linejoin="round"/>
<path id="Vector_442" d="M330 396C330 396.53 329.789 397.039 329.414 397.414C329.039 397.789 328.53 398 328 398" stroke="black" stroke-width="2" stroke-linecap="round" stroke-linejoin="round"/>
</g></svg>
