<svg viewBox="0 0 24 24" fill="none" xmlns="http://www.w3.org/2000/svg"><g transform="translate(-20 -344)">
<path id="Vector_368" d="M32.0344 356.681C31.9984 356.591 31.9896 356.492 32.0093 356.396C32.0289 356.301 32.076 356.213 32.1449 356.145C32.2137 356.076 32.3012 356.029 32.3966 356.009C32.492 355.989 32.591 355.998 32.6814 356.034L41.6814 359.534C41.7779 359.572 41.8603 359.639 41.9172 359.725C41.9741 359.812 42.0028 359.914 41.9991 360.017C41.9955 360.121 41.9598 360.221 41.897 360.303C41.8342 360.385 41.7473 360.446 41.6484 360.477L38.2044 361.545C38.049 361.593 37.9077 361.678 37.7927 361.793C37.6777 361.908 37.5925 362.05 37.5444 362.205L36.4774 365.648C36.4466 365.747 36.3857 365.834 36.3034 365.897C36.221 365.959 36.1211 365.995 36.0176 365.999C35.9141 366.002 35.812 365.974 35.7254 365.917C35.6389 365.86 35.5721 365.778 35.5344 365.681L32.0344 356.681Z" stroke="black" stroke-width="2" stroke-linecap="round" stroke-linejoin="round"/>
<path id="Vector_369" d="M41 355V349C41 348.47 40.7893 347.961 40.4142 347.586C40.0391 347.211 39.5304 347 39 347H25C24.4696 347 23.9609 347.211 23.5858 347.586C23.2107 347.961 23 348.47 23 349V363C23 363.53 23.2107 364.039 23.5858 364.414C23.9609 364.789 24.4696 365 25 365H31" stroke="black" stroke-width="2" stroke-linecap="round" stroke-linejoin="round"/>
</g></svg>
