<svg viewBox="0 0 24 24" fill="none" xmlns="http://www.w3.org/2000/svg"><g transform="translate(-340 -376)">
<path id="Vector_443" d="M344 386C342.9 386 342 385.1 342 384V380C342 378.9 342.9 378 344 378H348C349.1 378 350 378.9 350 380" stroke="black" stroke-width="2" stroke-linecap="round" stroke-linejoin="round"/>
<path id="Vector_444" d="M350 392C348.9 392 348 391.1 348 390V386C348 384.9 348.9 384 350 384H354C355.1 384 356 384.9 356 386" stroke="black" stroke-width="2" stroke-linecap="round" stroke-linejoin="round"/>
<path id="Vector_445" d="M360 390H356C354.895 390 354 390.895 354 392V396C354 397.105 354.895 398 356 398H360C361.105 398 362 397.105 362 396V392C362 390.895 361.105 390 360 390Z" stroke="black" stroke-width="2" stroke-linecap="round" stroke-linejoin="round"/>
</g></svg>
