<svg viewBox="0 0 24 24" fill="none" xmlns="http://www.w3.org/2000/svg"><g transform="translate(-84 -344)">
<path id="Vector_372" d="M87.5996 347.6C87.9689 347.223 88.4721 347.008 88.9996 347H103C103.53 347 104.039 347.211 104.414 347.586C104.789 347.961 105 348.47 105 349V363C104.997 363.53 104.785 364.037 104.41 364.41" stroke="black" stroke-width="2" stroke-linecap="round" stroke-linejoin="round"/>
<path id="Vector_373" d="M87 352.7V363C87 363.53 87.2107 364.039 87.5858 364.414C87.9609 364.789 88.4696 365 89 365H99.3" stroke="black" stroke-width="2" stroke-linecap="round" stroke-linejoin="round"/>
<path id="Vector_374" d="M86 346L106 366" stroke="black" stroke-width="2" stroke-linecap="round" stroke-linejoin="round"/>
<path id="Vector_375" d="M97 357C97.7956 357 98.5587 356.684 99.1213 356.121C99.6839 355.559 100 354.796 100 354C100 353.204 99.6839 352.441 99.1213 351.879C98.5587 351.316 97.7956 351 97 351H93V353" stroke="black" stroke-width="2" stroke-linecap="round" stroke-linejoin="round"/>
<path id="Vector_376" d="M93 361V358.7" stroke="black" stroke-width="2" stroke-linecap="round" stroke-linejoin="round"/>
</g></svg>
