<svg viewBox="0 0 24 24" fill="none" xmlns="http://www.w3.org/2000/svg"><g transform="translate(-20 -280)">
<path id="Vector_248" d="M28 283H25C24.4696 283 23.9609 283.211 23.5858 283.586C23.2107 283.961 23 284.47 23 285V299C23 300.1 23.9 301 25 301H28" stroke="black" stroke-width="2" stroke-linecap="round" stroke-linejoin="round"/>
<path id="Vector_249" d="M36 283H39C39.5304 283 40.0391 283.211 40.4142 283.586C40.7893 283.961 41 284.47 41 285V299C41 299.53 40.7893 300.039 40.4142 300.414C40.0391 300.789 39.5304 301 39 301H36" stroke="black" stroke-width="2" stroke-linecap="round" stroke-linejoin="round"/>
<path id="Vector_250" d="M32 300V302" stroke="black" stroke-width="2" stroke-linecap="round" stroke-linejoin="round"/>
<path id="Vector_251" d="M32 294V296" stroke="black" stroke-width="2" stroke-linecap="round" stroke-linejoin="round"/>
<path id="Vector_252" d="M32 288V290" stroke="black" stroke-width="2" stroke-linecap="round" stroke-linejoin="round"/>
<path id="Vector_253" d="M32 282V284" stroke="black" stroke-width="2" stroke-linecap="round" stroke-linejoin="round"/>
</g></svg>
