<svg viewBox="0 0 24 24" fill="none" xmlns="http://www.w3.org/2000/svg"><g transform="translate(-340 -344)">
<path id="Vector_399" d="M352 351V355" stroke="black" stroke-width="2" stroke-linecap="round" stroke-linejoin="round"/>
<path id="Vector_400" d="M347.998 353.003C347.441 353.746 347.103 354.63 347.02 355.555C346.937 356.479 347.113 357.409 347.529 358.239C347.945 359.07 348.584 359.768 349.374 360.255C350.164 360.743 351.075 361.001 352.003 361.001C352.932 361 353.842 360.741 354.631 360.252C355.421 359.763 356.059 359.065 356.474 358.234C356.888 357.403 357.063 356.473 356.98 355.548C356.896 354.624 356.556 353.741 355.998 352.998" stroke="black" stroke-width="2" stroke-linecap="round" stroke-linejoin="round"/>
<path id="Vector_401" d="M359 347H345C343.895 347 343 347.895 343 349V363C343 364.105 343.895 365 345 365H359C360.105 365 361 364.105 361 363V349C361 347.895 360.105 347 359 347Z" stroke="black" stroke-width="2" stroke-linecap="round" stroke-linejoin="round"/>
</g></svg>
