<svg viewBox="0 0 24 24" fill="none" xmlns="http://www.w3.org/2000/svg"><g transform="translate(-340 -280)">
<path id="Vector_288" d="M345 301C344.47 301 343.961 300.789 343.586 300.414C343.211 300.039 343 299.53 343 299V285C343 284.47 343.211 283.961 343.586 283.586C343.961 283.211 344.47 283 345 283H359C359.53 283 360.039 283.211 360.414 283.586C360.789 283.961 361 284.47 361 285V299C361 299.53 360.789 300.039 360.414 300.414C360.039 300.789 359.53 301 359 301" stroke="black" stroke-width="2" stroke-linecap="round" stroke-linejoin="round"/>
<path id="Vector_289" d="M349 301H350" stroke="black" stroke-width="2" stroke-linecap="round" stroke-linejoin="round"/>
<path id="Vector_290" d="M354 301H355" stroke="black" stroke-width="2" stroke-linecap="round" stroke-linejoin="round"/>
</g></svg>
