<svg viewBox="0 0 24 24" fill="none" xmlns="http://www.w3.org/2000/svg"><g transform="translate(-84 -408)">
<path id="Vector_451" d="M103 411H89C87.8954 411 87 411.895 87 413V427C87 428.105 87.8954 429 89 429H103C104.105 429 105 428.105 105 427V413C105 411.895 104.105 411 103 411Z" stroke="black" stroke-width="2" stroke-linecap="round" stroke-linejoin="round"/>
<path id="Vector_452" d="M96 421C97.6569 421 99 419.657 99 418C99 416.343 97.6569 415 96 415C94.3431 415 93 416.343 93 418C93 419.657 94.3431 421 96 421Z" stroke="black" stroke-width="2" stroke-linecap="round" stroke-linejoin="round"/>
<path id="Vector_453" d="M91 429V427C91 426.47 91.2107 425.961 91.5858 425.586C91.9609 425.211 92.4696 425 93 425H99C99.5304 425 100.039 425.211 100.414 425.586C100.789 425.961 101 426.47 101 427V429" stroke="black" stroke-width="2" stroke-linecap="round" stroke-linejoin="round"/>
</g></svg>
