<svg viewBox="0 0 24 24" fill="none" xmlns="http://www.w3.org/2000/svg"><g transform="translate(-148 -344)">
<path id="Vector_380" d="M160 347H153C152.47 347 151.961 347.211 151.586 347.586C151.211 347.961 151 348.47 151 349V363C151 363.53 151.211 364.039 151.586 364.414C151.961 364.789 152.47 365 153 365H167C167.53 365 168.039 364.789 168.414 364.414C168.789 364.039 169 363.53 169 363V356" stroke="black" stroke-width="2" stroke-linecap="round" stroke-linejoin="round"/>
<path id="Vector_381" d="M166.375 346.625C166.773 346.227 167.312 346.004 167.875 346.004C168.438 346.004 168.977 346.227 169.375 346.625C169.773 347.023 169.996 347.562 169.996 348.125C169.996 348.688 169.773 349.227 169.375 349.625L160.362 358.639C160.125 358.876 159.831 359.05 159.509 359.144L156.636 359.984C156.55 360.009 156.459 360.011 156.372 359.988C156.285 359.966 156.206 359.921 156.143 359.858C156.079 359.794 156.034 359.715 156.012 359.628C155.989 359.541 155.991 359.45 156.016 359.364L156.856 356.491C156.951 356.169 157.125 355.876 157.362 355.639L166.375 346.625Z" stroke="black" stroke-width="2" stroke-linecap="round" stroke-linejoin="round"/>
</g></svg>
