<svg viewBox="0 0 24 24" fill="none" xmlns="http://www.w3.org/2000/svg"><g transform="translate(-84 -376)">
<path id="Vector_412" d="M100 388V390C100 390.53 99.7893 391.039 99.4142 391.414C99.0391 391.789 98.5304 392 98 392H93C92.7348 392 92.4804 392.105 92.2929 392.293C92.1054 392.48 92 392.735 92 393V396C92 396.53 92.2107 397.039 92.5858 397.414C92.9609 397.789 93.4696 398 94 398H104C104.53 398 105.039 397.789 105.414 397.414C105.789 397.039 106 396.53 106 396V386C106 385.47 105.789 384.961 105.414 384.586C105.039 384.211 104.53 384 104 384" stroke="black" stroke-width="2" stroke-linecap="round" stroke-linejoin="round"/>
<path id="Vector_413" d="M88 392C87.4696 392 86.9609 391.789 86.5858 391.414C86.2107 391.039 86 390.53 86 390V380C86 379.47 86.2107 378.961 86.5858 378.586C86.9609 378.211 87.4696 378 88 378H98C98.5304 378 99.0391 378.211 99.4142 378.586C99.7893 378.961 100 379.47 100 380V383C100 383.265 99.8946 383.52 99.7071 383.707C99.5196 383.895 99.2652 384 99 384H94C93.4696 384 92.9609 384.211 92.5858 384.586C92.2107 384.961 92 385.47 92 386V388" stroke="black" stroke-width="2" stroke-linecap="round" stroke-linejoin="round"/>
</g></svg>
