<svg viewBox="0 0 24 24" fill="none" xmlns="http://www.w3.org/2000/svg"><g transform="translate(-116 -408)">
<path id="Vector_454" d="M134 429C134 427.409 133.368 425.883 132.243 424.757C131.117 423.632 129.591 423 128 423C126.409 423 124.883 423.632 123.757 424.757C122.632 425.883 122 427.409 122 429" stroke="black" stroke-width="2" stroke-linecap="round" stroke-linejoin="round"/>
<path id="Vector_455" d="M128 423C130.209 423 132 421.209 132 419C132 416.791 130.209 415 128 415C125.791 415 124 416.791 124 419C124 421.209 125.791 423 128 423Z" stroke="black" stroke-width="2" stroke-linecap="round" stroke-linejoin="round"/>
<path id="Vector_456" d="M135 411H121C119.895 411 119 411.895 119 413V427C119 428.105 119.895 429 121 429H135C136.105 429 137 428.105 137 427V413C137 411.895 136.105 411 135 411Z" stroke="black" stroke-width="2" stroke-linecap="round" stroke-linejoin="round"/>
</g></svg>
