<svg viewBox="0 0 24 24" fill="none" xmlns="http://www.w3.org/2000/svg"><g transform="translate(-372 -376)">
<path id="Vector_446" d="M383.035 383.69C383.101 383.487 383.23 383.311 383.403 383.187C383.576 383.063 383.785 382.997 383.998 383C384.211 383.003 384.418 383.073 384.588 383.202C384.758 383.33 384.883 383.51 384.944 383.714L385.681 385.166C385.752 385.307 385.857 385.429 385.985 385.522C386.113 385.615 386.261 385.677 386.418 385.701L388.052 385.957C388.262 385.958 388.467 386.025 388.637 386.149C388.807 386.273 388.933 386.447 388.999 386.647C389.064 386.848 389.064 387.063 389 387.263C388.935 387.464 388.809 387.639 388.64 387.763L387.468 388.931C387.355 389.043 387.271 389.18 387.222 389.33C387.173 389.481 387.161 389.641 387.186 389.797L387.445 391.41C387.516 391.612 387.52 391.832 387.457 392.037C387.394 392.242 387.267 392.421 387.094 392.548C386.922 392.675 386.713 392.743 386.498 392.742C386.284 392.742 386.075 392.672 385.904 392.544L384.439 391.794C384.297 391.722 384.141 391.684 383.983 391.684C383.824 391.684 383.668 391.722 383.527 391.794L382.062 392.544C381.89 392.671 381.682 392.74 381.468 392.74C381.254 392.74 381.046 392.672 380.874 392.545C380.702 392.419 380.575 392.24 380.512 392.036C380.448 391.832 380.452 391.613 380.523 391.411L380.781 389.798C380.806 389.642 380.793 389.482 380.744 389.331C380.695 389.181 380.611 389.044 380.499 388.932L379.343 387.779C379.167 387.658 379.035 387.483 378.966 387.281C378.897 387.08 378.894 386.861 378.958 386.658C379.022 386.454 379.149 386.276 379.321 386.15C379.493 386.024 379.701 385.957 379.915 385.957L381.548 385.701C381.704 385.677 381.852 385.615 381.981 385.522C382.109 385.429 382.213 385.307 382.285 385.166L383.035 383.69Z" stroke="black" stroke-width="2" stroke-linecap="round" stroke-linejoin="round"/>
<path id="Vector_447" d="M391 379H377C375.895 379 375 379.895 375 381V395C375 396.105 375.895 397 377 397H391C392.105 397 393 396.105 393 395V381C393 379.895 392.105 379 391 379Z" stroke="black" stroke-width="2" stroke-linecap="round" stroke-linejoin="round"/>
</g></svg>
