<svg viewBox="0 0 24 24" fill="none" xmlns="http://www.w3.org/2000/svg"><g transform="translate(-372 -248)">
<path id="Vector_234" d="M377 251H391" stroke="black" stroke-width="2" stroke-linecap="round" stroke-linejoin="round"/>
<path id="Vector_235" d="M375 253V267" stroke="black" stroke-width="2" stroke-linecap="round" stroke-linejoin="round"/>
<path id="Vector_236" d="M393 253V267" stroke="black" stroke-width="2" stroke-linecap="round" stroke-linejoin="round"/>
<path id="Vector_237" d="M381 269H382" stroke="black" stroke-width="2" stroke-linecap="round" stroke-linejoin="round"/>
<path id="Vector_238" d="M386 269H387" stroke="black" stroke-width="2" stroke-linecap="round" stroke-linejoin="round"/>
<path id="Vector_239" d="M375 253C375 252.47 375.211 251.961 375.586 251.586C375.961 251.211 376.47 251 377 251" stroke="black" stroke-width="2" stroke-linecap="round" stroke-linejoin="round"/>
<path id="Vector_240" d="M391 251C391.53 251 392.039 251.211 392.414 251.586C392.789 251.961 393 252.47 393 253" stroke="black" stroke-width="2" stroke-linecap="round" stroke-linejoin="round"/>
<path id="Vector_241" d="M377 269C376.47 269 375.961 268.789 375.586 268.414C375.211 268.039 375 267.53 375 267" stroke="black" stroke-width="2" stroke-linecap="round" stroke-linejoin="round"/>
<path id="Vector_242" d="M393 267C393 267.53 392.789 268.039 392.414 268.414C392.039 268.789 391.53 269 391 269" stroke="black" stroke-width="2" stroke-linecap="round" stroke-linejoin="round"/>
<path id="Vector_243" d="M380.5 258C381.328 258 382 257.328 382 256.5C382 255.672 381.328 255 380.5 255C379.672 255 379 255.672 379 256.5C379 257.328 379.672 258 380.5 258Z" stroke="black" stroke-width="2" stroke-linecap="round" stroke-linejoin="round"/>
<path id="Vector_244" d="M381.561 257.561L384 260" stroke="black" stroke-width="2" stroke-linecap="round" stroke-linejoin="round"/>
<path id="Vector_245" d="M389 265L386.82 262.82" stroke="black" stroke-width="2" stroke-linecap="round" stroke-linejoin="round"/>
<path id="Vector_246" d="M380.5 265C381.328 265 382 264.328 382 263.5C382 262.672 381.328 262 380.5 262C379.672 262 379 262.672 379 263.5C379 264.328 379.672 265 380.5 265Z" stroke="black" stroke-width="2" stroke-linecap="round" stroke-linejoin="round"/>
<path id="Vector_247" d="M381.561 262.439L389 255" stroke="black" stroke-width="2" stroke-linecap="round" stroke-linejoin="round"/>
</g></svg>
