<svg viewBox="0 0 24 24" fill="none" xmlns="http://www.w3.org/2000/svg"><g transform="translate(-52 -376)">
<path id="Vector_406" d="M71 379H57C55.8954 379 55 379.895 55 381V395C55 396.105 55.8954 397 57 397H71C72.1046 397 73 396.105 73 395V381C73 379.895 72.1046 379 71 379Z" stroke="black" stroke-width="2" stroke-linecap="round" stroke-linejoin="round"/>
<path id="Vector_407" d="M60.5 386C61.3284 386 62 385.328 62 384.5C62 383.672 61.3284 383 60.5 383C59.6716 383 59 383.672 59 384.5C59 385.328 59.6716 386 60.5 386Z" stroke="black" stroke-width="2" stroke-linecap="round" stroke-linejoin="round"/>
<path id="Vector_408" d="M61.5605 385.561L63.9999 388" stroke="black" stroke-width="2" stroke-linecap="round" stroke-linejoin="round"/>
<path id="Vector_409" d="M69.0003 393L66.8203 390.82" stroke="black" stroke-width="2" stroke-linecap="round" stroke-linejoin="round"/>
<path id="Vector_410" d="M60.5 393C61.3284 393 62 392.328 62 391.5C62 390.672 61.3284 390 60.5 390C59.6716 390 59 390.672 59 391.5C59 392.328 59.6716 393 60.5 393Z" stroke="black" stroke-width="2" stroke-linecap="round" stroke-linejoin="round"/>
<path id="Vector_411" d="M61.5605 390.439L68.9999 383" stroke="black" stroke-width="2" stroke-linecap="round" stroke-linejoin="round"/>
</g></svg>
