<svg viewBox="0 0 24 24" fill="none" xmlns="http://www.w3.org/2000/svg"><g transform="translate(-212 -408)">
<path id="Vector_461" d="M225.77 411.043C224.591 410.982 223.41 410.982 222.23 411.043" stroke="black" stroke-width="2" stroke-linecap="round" stroke-linejoin="round"/>
<path id="Vector_462" d="M225.771 428.956C224.592 429.02 223.41 429.02 222.23 428.957" stroke="black" stroke-width="2" stroke-linecap="round" stroke-linejoin="round"/>
<path id="Vector_463" d="M232.18 425.74C231.67 426.89 230.89 427.67 229.741 428.18" stroke="black" stroke-width="2" stroke-linecap="round" stroke-linejoin="round"/>
<path id="Vector_464" d="M232.18 414.259C231.67 413.111 230.889 412.33 229.74 411.821" stroke="black" stroke-width="2" stroke-linecap="round" stroke-linejoin="round"/>
<path id="Vector_465" d="M232.957 418.23C233.02 419.409 233.02 420.591 232.957 421.77" stroke="black" stroke-width="2" stroke-linecap="round" stroke-linejoin="round"/>
<path id="Vector_466" d="M215.043 418.23C214.982 419.41 214.982 420.591 215.044 421.771" stroke="black" stroke-width="2" stroke-linecap="round" stroke-linejoin="round"/>
<path id="Vector_467" d="M218.26 428.179C217.11 427.671 216.33 426.889 215.82 425.741" stroke="black" stroke-width="2" stroke-linecap="round" stroke-linejoin="round"/>
<path id="Vector_468" d="M218.26 411.82C217.111 412.33 216.33 413.111 215.82 414.26" stroke="black" stroke-width="2" stroke-linecap="round" stroke-linejoin="round"/>
</g></svg>
