<svg viewBox="0 0 24 24" fill="none" xmlns="http://www.w3.org/2000/svg"><g transform="translate(-340 -56)">
<path id="Vector_48" d="M355.236 78C355.62 77.5706 355.873 77.0398 355.963 76.4708C356.054 75.9018 355.978 75.3189 355.746 74.7916C355.514 74.2643 355.135 73.8149 354.655 73.4972C354.174 73.1795 353.612 73.0069 353.036 73" stroke="black" stroke-width="2" stroke-linecap="round" stroke-linejoin="round"/>
<path id="Vector_49" d="M356 76C356 75.2044 356.316 74.4413 356.879 73.8787C357.441 73.3161 358.204 73 359 73H360C360.53 73 361.039 72.7893 361.414 72.4142C361.789 72.0391 362 71.5304 362 71V69C362 67.9391 361.579 66.9217 360.828 66.1716C360.078 65.4214 359.061 65 358 65V60" stroke="black" stroke-width="2" stroke-linecap="round" stroke-linejoin="round"/>
<path id="Vector_50" d="M358 69H358.01" stroke="black" stroke-width="2" stroke-linecap="round" stroke-linejoin="round"/>
<path id="Vector_51" d="M358 62C356.939 62 355.922 62.4214 355.172 63.1716C354.421 63.9217 354 64.9391 354 66C352.143 66 350.363 66.7375 349.05 68.0503C347.737 69.363 347 71.1435 347 73C347 68 351 68 351 62.5C351 61.9091 350.884 61.3239 350.657 60.7779C350.431 60.232 350.1 59.7359 349.682 59.318C349.264 58.9002 348.768 58.5687 348.222 58.3425C347.676 58.1164 347.091 58 346.5 58C345.909 58 345.324 58.1164 344.778 58.3425C344.232 58.5687 343.736 58.9002 343.318 59.318C342.9 59.7359 342.569 60.232 342.343 60.7779C342.116 61.3239 342 61.9091 342 62.5C342 63.163 342.263 63.7989 342.732 64.2678C343.201 64.7366 343.837 65 344.5 65C345.163 65 345.799 64.7366 346.268 64.2678C346.737 63.7989 347 63.163 347 62.5C347 66 343 67 343 73C343 75.8 345.2 78 348 78H358" stroke="black" stroke-width="2" stroke-linecap="round" stroke-linejoin="round"/>
</g></svg>
