<svg viewBox="0 0 24 24" fill="none" xmlns="http://www.w3.org/2000/svg"><g transform="translate(-52 -344)">
<path id="Vector_467" d="M66 357V352.5C66 351 67 351 67 349C67 348.204 66.6839 347.441 66.1213 346.879C65.5587 346.316 64.7956 346 64 346C63.2044 346 62.4413 346.316 61.8787 346.879C61.3161 347.441 61 348.204 61 349C61 351 62 351 62 352.5V357" stroke="black" stroke-width="2" stroke-linecap="round" stroke-linejoin="round"/>
<path id="Vector_468" d="M72 359.5C72 358.837 71.7366 358.201 71.2678 357.732C70.7989 357.263 70.163 357 69.5 357H58.5C57.837 357 57.2011 357.263 56.7322 357.732C56.2634 358.201 56 358.837 56 359.5V361C56 361.265 56.1054 361.52 56.2929 361.707C56.4804 361.895 56.7348 362 57 362H71C71.2652 362 71.5196 361.895 71.7071 361.707C71.8946 361.52 72 361.265 72 361V359.5Z" stroke="black" stroke-width="2" stroke-linecap="round" stroke-linejoin="round"/>
<path id="Vector_469" d="M57 366H71" stroke="black" stroke-width="2" stroke-linecap="round" stroke-linejoin="round"/>
</g></svg>
