<svg viewBox="0 0 24 24" fill="none" xmlns="http://www.w3.org/2000/svg"><g transform="translate(-276 -88)">
<path id="Vector_75" d="M291 106H297" stroke="black" stroke-width="2" stroke-linecap="round" stroke-linejoin="round"/>
<path id="Vector_76" d="M293.688 102C293.794 101.789 293.934 101.597 294.104 101.432L297.84 97.794C297.911 97.725 297.961 97.6375 297.985 97.5413C298.009 97.4451 298.005 97.3442 297.975 97.2499C297.944 97.1557 297.888 97.0719 297.812 97.0081C297.736 96.9443 297.644 96.9031 297.546 96.889L292.38 96.134C292.039 96.086 291.716 95.9552 291.438 95.7529C291.16 95.5507 290.935 95.2832 290.785 94.974L288.475 90.294C288.431 90.2055 288.363 90.1311 288.279 90.0791C288.195 90.027 288.098 89.9995 288 89.9996C287.901 89.9997 287.804 90.0275 287.72 90.0796C287.636 90.1318 287.569 90.2064 287.525 90.295L285.216 94.974C285.065 95.2834 284.841 95.5511 284.562 95.7534C284.284 95.9556 283.96 96.0864 283.619 96.134L278.454 96.889C278.356 96.9029 278.263 96.9442 278.187 97.008C278.111 97.0719 278.055 97.1558 278.024 97.2502C277.993 97.3446 277.99 97.4458 278.014 97.5421C278.038 97.6384 278.088 97.7261 278.16 97.795L281.896 101.432C282.144 101.671 282.33 101.967 282.436 102.295C282.543 102.623 282.567 102.972 282.507 103.311L281.627 108.45C281.61 108.548 281.621 108.648 281.658 108.74C281.695 108.832 281.757 108.911 281.837 108.969C281.917 109.028 282.012 109.062 282.111 109.07C282.209 109.077 282.308 109.056 282.396 109.01L287.013 106.582L287.04 106.568" stroke="black" stroke-width="2" stroke-linecap="round" stroke-linejoin="round"/>
</g></svg>
