<svg viewBox="0 0 24 24" fill="none" xmlns="http://www.w3.org/2000/svg"><g transform="translate(-340 -88)">
<path id="Vector_80" d="M351.013 106.582L346.396 109.01C346.308 109.056 346.209 109.077 346.11 109.07C346.011 109.063 345.916 109.029 345.836 108.97C345.756 108.912 345.694 108.832 345.657 108.74C345.619 108.648 345.609 108.548 345.626 108.45L346.507 103.311C346.565 102.972 346.54 102.623 346.434 102.296C346.327 101.969 346.143 101.672 345.896 101.432L342.16 97.795C342.088 97.726 342.038 97.6384 342.014 97.5421C341.99 97.4458 341.993 97.3446 342.024 97.2502C342.055 97.1558 342.111 97.0719 342.187 97.008C342.263 96.9441 342.356 96.9029 342.454 96.889L347.619 96.134C347.959 96.0847 348.282 95.9533 348.561 95.7512C348.839 95.5491 349.064 95.2824 349.216 94.974L351.525 90.295C351.569 90.2065 351.636 90.1319 351.72 90.0798C351.804 90.0277 351.901 90.0001 352 90.0001C352.099 90.0001 352.195 90.0277 352.279 90.0798C352.363 90.1319 352.431 90.2065 352.475 90.295L354.785 94.974C354.937 95.2821 355.161 95.5487 355.439 95.7508C355.717 95.9529 356.04 96.0844 356.38 96.134L361.546 96.89C361.644 96.9042 361.736 96.9455 361.811 97.0092C361.887 97.0729 361.943 97.1566 361.974 97.2506C362.004 97.3447 362.008 97.4454 361.984 97.5415C361.961 97.6375 361.911 97.725 361.84 97.794L360 99.5" stroke="black" stroke-width="2" stroke-linecap="round" stroke-linejoin="round"/>
<path id="Vector_81" d="M355 106H361" stroke="black" stroke-width="2" stroke-linecap="round" stroke-linejoin="round"/>
<path id="Vector_82" d="M358 103V109" stroke="black" stroke-width="2" stroke-linecap="round" stroke-linejoin="round"/>
</g></svg>
