<svg viewBox="0 0 24 24" fill="none" xmlns="http://www.w3.org/2000/svg"><g transform="translate(-308 -88)">
<path id="Vector_77" d="M318.344 92.688L319.525 90.295C319.569 90.2065 319.636 90.1319 319.72 90.0798C319.804 90.0277 319.901 90.0001 320 90.0001C320.099 90.0001 320.195 90.0277 320.279 90.0798C320.363 90.1319 320.431 90.2065 320.475 90.295L322.785 94.974C322.937 95.2821 323.161 95.5487 323.439 95.7508C323.717 95.9529 324.04 96.0844 324.38 96.134L329.546 96.89C329.644 96.9042 329.736 96.9455 329.811 97.0092C329.887 97.0729 329.943 97.1566 329.974 97.2506C330.004 97.3447 330.008 97.4454 329.984 97.5415C329.961 97.6375 329.911 97.725 329.84 97.794L326.603 100.946" stroke="black" stroke-width="2" stroke-linecap="round" stroke-linejoin="round"/>
<path id="Vector_78" d="M325.945 105.945L326.375 108.45C326.392 108.548 326.382 108.649 326.344 108.741C326.307 108.833 326.245 108.913 326.164 108.971C326.084 109.029 325.989 109.064 325.89 109.071C325.791 109.078 325.692 109.057 325.604 109.01L320.986 106.582C320.682 106.422 320.343 106.339 319.999 106.339C319.656 106.339 319.317 106.422 319.013 106.582L314.396 109.01C314.308 109.056 314.209 109.077 314.11 109.07C314.011 109.063 313.916 109.029 313.836 108.97C313.756 108.912 313.694 108.832 313.657 108.74C313.619 108.648 313.609 108.548 313.626 108.45L314.507 103.311C314.565 102.972 314.54 102.623 314.434 102.296C314.327 101.969 314.143 101.672 313.896 101.432L310.16 97.795C310.088 97.7261 310.038 97.6384 310.014 97.5421C309.99 97.4458 309.993 97.3447 310.024 97.2502C310.055 97.1558 310.111 97.0719 310.187 97.008C310.263 96.9442 310.356 96.9029 310.454 96.889L315.619 96.134C315.753 96.1045 315.886 96.0715 316.019 96.035" stroke="black" stroke-width="2" stroke-linecap="round" stroke-linejoin="round"/>
<path id="Vector_79" d="M310 90L330 110" stroke="black" stroke-width="2" stroke-linecap="round" stroke-linejoin="round"/>
</g></svg>
