<svg viewBox="0 0 24 24" fill="none" xmlns="http://www.w3.org/2000/svg"><g transform="translate(-212 -88)">
<path id="Vector_72" d="M231.06 100.501L233.84 97.794C233.911 97.725 233.961 97.6375 233.985 97.5413C234.009 97.4451 234.005 97.3442 233.975 97.2499C233.944 97.1557 233.888 97.0719 233.812 97.0081C233.736 96.9443 233.644 96.9031 233.546 96.889L228.38 96.134C228.039 96.086 227.716 95.9552 227.438 95.7529C227.16 95.5507 226.935 95.2832 226.785 94.974L224.475 90.294C224.431 90.2055 224.363 90.1311 224.279 90.0791C224.195 90.027 224.098 89.9995 224 89.9996C223.901 89.9997 223.804 90.0275 223.72 90.0796C223.636 90.1318 223.569 90.2064 223.525 90.295L221.216 94.974C221.065 95.2834 220.841 95.5511 220.562 95.7534C220.284 95.9556 219.96 96.0864 219.619 96.134L214.454 96.889C214.356 96.9029 214.263 96.9442 214.187 97.008C214.111 97.0719 214.055 97.1558 214.024 97.2502C213.993 97.3446 213.99 97.4458 214.014 97.5421C214.038 97.6384 214.088 97.7261 214.16 97.795L217.896 101.432C218.144 101.671 218.33 101.967 218.436 102.295C218.543 102.623 218.567 102.972 218.507 103.311L217.627 108.45C217.61 108.548 217.621 108.648 217.658 108.74C217.695 108.832 217.757 108.911 217.837 108.969C217.917 109.028 218.012 109.062 218.111 109.07C218.209 109.077 218.308 109.056 218.396 109.01L223.013 106.582L223.04 106.568" stroke="black" stroke-width="2" stroke-linecap="round" stroke-linejoin="round"/>
<path id="Vector_73" d="M227 106L229 108L233 104" stroke="black" stroke-width="2" stroke-linecap="round" stroke-linejoin="round"/>
</g></svg>
