<svg viewBox="0 0 24 24" fill="none" xmlns="http://www.w3.org/2000/svg"><g transform="translate(-372 -88)">
<path id="Vector_83" d="M387.5 103.5L392.5 108.5" stroke="black" stroke-width="2" stroke-linecap="round" stroke-linejoin="round"/>
<path id="Vector_84" d="M392.063 99.525L393.84 97.794C393.911 97.725 393.961 97.6375 393.985 97.5413C394.009 97.4451 394.005 97.3442 393.975 97.2499C393.944 97.1557 393.888 97.0719 393.812 97.0081C393.736 96.9443 393.644 96.9031 393.546 96.889L388.38 96.134C388.039 96.086 387.716 95.9552 387.438 95.7529C387.16 95.5507 386.935 95.2832 386.785 94.974L384.475 90.294C384.431 90.2055 384.363 90.1311 384.279 90.0791C384.195 90.027 384.098 89.9995 384 89.9996C383.901 89.9997 383.804 90.0275 383.72 90.0796C383.636 90.1318 383.569 90.2064 383.525 90.295L381.216 94.974C381.065 95.2834 380.841 95.5511 380.562 95.7534C380.284 95.9556 379.96 96.0864 379.619 96.134L374.454 96.889C374.356 96.9029 374.263 96.9442 374.187 97.008C374.111 97.0719 374.055 97.1558 374.024 97.2502C373.993 97.3446 373.99 97.4458 374.014 97.5421C374.038 97.6384 374.088 97.7261 374.16 97.795L377.896 101.432C378.144 101.671 378.33 101.967 378.436 102.295C378.543 102.623 378.567 102.972 378.507 103.311L377.627 108.45C377.61 108.548 377.621 108.648 377.658 108.74C377.695 108.832 377.757 108.911 377.837 108.969C377.917 109.028 378.012 109.062 378.111 109.07C378.209 109.077 378.308 109.056 378.396 109.01L383.013 106.582C383.317 106.421 383.656 106.338 384 106.339C384.044 106.339 384.088 106.34 384.132 106.343" stroke="black" stroke-width="2" stroke-linecap="round" stroke-linejoin="round"/>
<path id="Vector_85" d="M392.5 103.5L387.5 108.5" stroke="black" stroke-width="2" stroke-linecap="round" stroke-linejoin="round"/>
</g></svg>
