<svg viewBox="0 0 24 24" fill="none" xmlns="http://www.w3.org/2000/svg"><g transform="translate(-180 -88)">
<path id="Vector_71" d="M191.525 90.295C191.569 90.2065 191.636 90.1319 191.72 90.0798C191.804 90.0277 191.901 90.0001 192 90.0001C192.099 90.0001 192.195 90.0277 192.279 90.0798C192.363 90.1319 192.431 90.2065 192.475 90.295L194.785 94.974C194.937 95.282 195.162 95.5484 195.439 95.7505C195.717 95.9525 196.04 96.0841 196.38 96.134L201.546 96.89C201.644 96.9042 201.736 96.9455 201.811 97.0092C201.887 97.0729 201.943 97.1566 201.974 97.2506C202.004 97.3447 202.008 97.4454 201.984 97.5415C201.961 97.6375 201.911 97.725 201.84 97.794L198.104 101.432C197.857 101.672 197.673 101.968 197.567 102.296C197.46 102.623 197.435 102.971 197.493 103.31L198.375 108.45C198.392 108.548 198.382 108.649 198.344 108.741C198.307 108.833 198.245 108.913 198.164 108.971C198.084 109.029 197.989 109.064 197.89 109.071C197.791 109.078 197.692 109.057 197.604 109.01L192.986 106.582C192.682 106.422 192.343 106.339 191.999 106.339C191.656 106.339 191.317 106.422 191.013 106.582L186.396 109.01C186.308 109.056 186.209 109.077 186.11 109.07C186.011 109.063 185.916 109.029 185.836 108.97C185.756 108.912 185.694 108.832 185.657 108.74C185.619 108.648 185.609 108.548 185.626 108.45L186.507 103.311C186.565 102.972 186.54 102.623 186.433 102.296C186.327 101.969 186.142 101.672 185.896 101.432L182.16 97.795C182.088 97.726 182.038 97.6384 182.014 97.5421C181.99 97.4458 181.993 97.3446 182.024 97.2502C182.055 97.1558 182.111 97.0719 182.187 97.008C182.263 96.9441 182.356 96.9029 182.454 96.889L187.619 96.134C187.959 96.0845 188.282 95.9531 188.56 95.751C188.839 95.5489 189.064 95.2823 189.216 94.974L191.525 90.295Z" stroke="black" stroke-width="2" stroke-linecap="round" stroke-linejoin="round"/>
</g></svg>
