<svg viewBox="0 0 24 24" fill="none" xmlns="http://www.w3.org/2000/svg"><g transform="translate(-244 -88)">
<path id="Vector_74" d="M256 106.338C255.656 106.337 255.317 106.421 255.013 106.582L250.396 109.01C250.308 109.056 250.209 109.077 250.11 109.07C250.011 109.063 249.916 109.029 249.836 108.97C249.756 108.912 249.694 108.832 249.657 108.74C249.619 108.648 249.609 108.548 249.626 108.45L250.507 103.311C250.565 102.972 250.54 102.623 250.434 102.296C250.327 101.969 250.143 101.672 249.896 101.432L246.16 97.795C246.088 97.726 246.038 97.6384 246.014 97.5421C245.99 97.4458 245.993 97.3446 246.024 97.2502C246.055 97.1558 246.111 97.0718 246.187 97.008C246.263 96.9441 246.356 96.9029 246.454 96.889L251.619 96.134C251.959 96.0847 252.282 95.9533 252.561 95.7512C252.839 95.5491 253.064 95.2824 253.216 94.974L255.525 90.295C255.569 90.2064 255.636 90.1319 255.72 90.0798C255.804 90.0276 255.901 90 256 90" stroke="black" stroke-width="2" stroke-linecap="round" stroke-linejoin="round"/>
</g></svg>
