<svg viewBox="0 0 24 24" fill="none" xmlns="http://www.w3.org/2000/svg"><g transform="translate(-52 -216)">
<path id="Vector_235" d="M62.029 220.285C61.7255 220.103 61.3791 220.005 61.0252 220C60.6713 219.996 60.3226 220.085 60.0146 220.26C59.7066 220.434 59.4504 220.687 59.2722 220.993C59.0939 221.299 59 221.646 59 222V234C59 234.354 59.0939 234.702 59.2722 235.007C59.4504 235.313 59.7066 235.566 60.0146 235.74C60.3226 235.915 60.6713 236.004 61.0252 236C61.3791 235.995 61.7255 235.897 62.029 235.715L72.026 229.717C72.3228 229.54 72.5685 229.288 72.7393 228.988C72.91 228.687 72.9999 228.348 73.0002 228.002C73.0005 227.656 72.9112 227.316 72.741 227.015C72.5708 226.714 72.3255 226.463 72.029 226.285L62.029 220.285Z" stroke="black" stroke-width="2" stroke-linecap="round" stroke-linejoin="round"/>
<path id="Vector_236" d="M55 220V236" stroke="black" stroke-width="2" stroke-linecap="round" stroke-linejoin="round"/>
</g></svg>
