<svg viewBox="0 0 24 24" fill="none" xmlns="http://www.w3.org/2000/svg"><g transform="translate(-20 -216)">
<path id="Vector_233" d="M33.9712 220.285C34.2747 220.103 34.6211 220.005 34.975 220C35.3289 219.996 35.6776 220.085 35.9856 220.26C36.2936 220.434 36.5498 220.687 36.728 220.993C36.9063 221.299 37.0002 221.646 37.0002 222V234C37.0002 234.354 36.9063 234.702 36.728 235.007C36.5498 235.313 36.2936 235.566 35.9856 235.74C35.6776 235.915 35.3289 236.004 34.975 236C34.6211 235.995 34.2747 235.897 33.9712 235.715L23.9742 229.717C23.6774 229.54 23.4317 229.288 23.2609 228.988C23.0902 228.687 23.0003 228.348 23 228.002C22.9997 227.656 23.089 227.316 23.2592 227.015C23.4294 226.714 23.6747 226.463 23.9712 226.285L33.9712 220.285Z" stroke="black" stroke-width="2" stroke-linecap="round" stroke-linejoin="round"/>
<path id="Vector_234" d="M41 236V220" stroke="black" stroke-width="2" stroke-linecap="round" stroke-linejoin="round"/>
</g></svg>
