<svg viewBox="0 0 24 24" fill="none" xmlns="http://www.w3.org/2000/svg"><g transform="translate(-84 -152)">
<path id="Vector_170" d="M95 154V156" stroke="black" stroke-width="2" stroke-linecap="round" stroke-linejoin="round"/>
<path id="Vector_171" d="M89 154V156" stroke="black" stroke-width="2" stroke-linecap="round" stroke-linejoin="round"/>
<path id="Vector_172" d="M89 155H88C87.4696 155 86.9609 155.211 86.5858 155.586C86.2107 155.961 86 156.47 86 157V161C86 162.591 86.6321 164.117 87.7574 165.243C88.8826 166.368 90.4087 167 92 167C93.5913 167 95.1174 166.368 96.2426 165.243C97.3679 164.117 98 162.591 98 161V157C98 156.47 97.7893 155.961 97.4142 155.586C97.0391 155.211 96.5304 155 96 155H95" stroke="black" stroke-width="2" stroke-linecap="round" stroke-linejoin="round"/>
<path id="Vector_173" d="M92 167C92 168.591 92.6321 170.117 93.7574 171.243C94.8826 172.368 96.4087 173 98 173C99.5913 173 101.117 172.368 102.243 171.243C103.368 170.117 104 168.591 104 167V164" stroke="black" stroke-width="2" stroke-linecap="round" stroke-linejoin="round"/>
<path id="Vector_174" d="M104 164C105.105 164 106 163.105 106 162C106 160.895 105.105 160 104 160C102.895 160 102 160.895 102 162C102 163.105 102.895 164 104 164Z" stroke="black" stroke-width="2" stroke-linecap="round" stroke-linejoin="round"/>
</g></svg>
