<svg viewBox="0 0 24 24" fill="none" xmlns="http://www.w3.org/2000/svg"><g transform="translate(-212 -344)">
<path id="Vector_482" d="M227 347V352C227 352.265 227.105 352.52 227.293 352.707C227.48 352.895 227.735 353 228 353H233" stroke="black" stroke-width="2" stroke-linecap="round" stroke-linejoin="round"/>
<path id="Vector_483" d="M230 359V365" stroke="black" stroke-width="2" stroke-linecap="round" stroke-linejoin="round"/>
<path id="Vector_484" d="M233 356.356V353C233.001 352.683 232.939 352.369 232.818 352.076C232.696 351.784 232.518 351.518 232.294 351.294L228.706 347.706C228.482 347.482 228.216 347.304 227.924 347.182C227.631 347.061 227.317 346.999 227 347H217C216.47 347 215.961 347.211 215.586 347.586C215.211 347.961 215 348.47 215 349V363C215 363.53 215.211 364.039 215.586 364.414C215.961 364.789 216.47 365 217 365H224.355" stroke="black" stroke-width="2" stroke-linecap="round" stroke-linejoin="round"/>
<path id="Vector_485" d="M233 362H227" stroke="black" stroke-width="2" stroke-linecap="round" stroke-linejoin="round"/>
</g></svg>
