<svg viewBox="0 0 24 24" fill="none" xmlns="http://www.w3.org/2000/svg"><g transform="translate(-84 -344)">
<path id="Vector_470" d="M105 353C105.001 352.683 104.939 352.369 104.818 352.076C104.696 351.784 104.518 351.518 104.294 351.294L100.706 347.706C100.482 347.482 100.216 347.304 99.9236 347.182C99.6308 347.061 99.3169 346.999 99 347H89C88.4696 347 87.9609 347.211 87.5858 347.586C87.2107 347.961 87 348.47 87 349V363C87 363.53 87.2107 364.039 87.5858 364.414C87.9609 364.789 88.4696 365 89 365H103C103.53 365 104.039 364.789 104.414 364.414C104.789 364.039 105 363.53 105 363V353Z" stroke="black" stroke-width="2" stroke-linecap="round" stroke-linejoin="round"/>
<path id="Vector_471" d="M99 347V352C99 352.265 99.1054 352.52 99.2929 352.707C99.4804 352.895 99.7348 353 100 353H105" stroke="black" stroke-width="2" stroke-linecap="round" stroke-linejoin="round"/>
</g></svg>
