<svg viewBox="0 0 24 24" fill="none" xmlns="http://www.w3.org/2000/svg"><g transform="translate(-116 -344)">
<path id="Vector_472" d="M131 363L133 365L137 361" stroke="black" stroke-width="2" stroke-linecap="round" stroke-linejoin="round"/>
<path id="Vector_473" d="M131 347V352C131 352.265 131.105 352.52 131.293 352.707C131.48 352.895 131.735 353 132 353H137" stroke="black" stroke-width="2" stroke-linecap="round" stroke-linejoin="round"/>
<path id="Vector_474" d="M137 357V353C137.001 352.683 136.939 352.369 136.818 352.076C136.696 351.784 136.518 351.518 136.294 351.294L132.706 347.706C132.482 347.482 132.216 347.304 131.924 347.182C131.631 347.061 131.317 346.999 131 347H121C120.47 347 119.961 347.211 119.586 347.586C119.211 347.961 119 348.47 119 349V363C119 363.53 119.211 364.039 119.586 364.414C119.961 364.789 120.47 365 121 365H127.5" stroke="black" stroke-width="2" stroke-linecap="round" stroke-linejoin="round"/>
</g></svg>
