<svg viewBox="0 0 24 24" fill="none" xmlns="http://www.w3.org/2000/svg"><g transform="translate(-180 -344)">
<path id="Vector_478" d="M195 347V352C195 352.265 195.105 352.52 195.293 352.707C195.48 352.895 195.735 353 196 353H201" stroke="black" stroke-width="2" stroke-linecap="round" stroke-linejoin="round"/>
<path id="Vector_479" d="M182 346L202 366" stroke="black" stroke-width="2" stroke-linecap="round" stroke-linejoin="round"/>
<path id="Vector_480" d="M183.586 347.586C183.211 347.961 183 348.47 183 349V363C183 363.53 183.211 364.039 183.586 364.414C183.961 364.789 184.47 365 185 365H199C199.53 365 200.039 364.789 200.414 364.414" stroke="black" stroke-width="2" stroke-linecap="round" stroke-linejoin="round"/>
<path id="Vector_481" d="M188.656 347H195C195.317 346.999 195.631 347.061 195.924 347.182C196.217 347.304 196.483 347.482 196.706 347.706L200.294 351.294C200.519 351.518 200.697 351.784 200.818 352.076C200.939 352.369 201.001 352.683 201 353V359.344" stroke="black" stroke-width="2" stroke-linecap="round" stroke-linejoin="round"/>
</g></svg>
