<svg viewBox="0 0 24 24" fill="none" xmlns="http://www.w3.org/2000/svg"><g transform="translate(-148 -344)">
<path id="Vector_475" d="M163 347V352C163 352.265 163.105 352.52 163.293 352.707C163.48 352.895 163.735 353 164 353H169" stroke="black" stroke-width="2" stroke-linecap="round" stroke-linejoin="round"/>
<path id="Vector_476" d="M169 358V353C169.001 352.683 168.939 352.369 168.818 352.076C168.696 351.784 168.518 351.518 168.294 351.294L164.706 347.706C164.482 347.482 164.216 347.304 163.924 347.182C163.631 347.061 163.317 346.999 163 347H153C152.47 347 151.961 347.211 151.586 347.586C151.211 347.961 151 348.47 151 349V363C151 363.53 151.211 364.039 151.586 364.414C151.961 364.789 152.47 365 153 365H160.35" stroke="black" stroke-width="2" stroke-linecap="round" stroke-linejoin="round"/>
<path id="Vector_477" d="M169 362H163" stroke="black" stroke-width="2" stroke-linecap="round" stroke-linejoin="round"/>
</g></svg>
