<svg viewBox="0 0 24 24" fill="none" xmlns="http://www.w3.org/2000/svg"><g transform="translate(-276 -344)">
<path id="Vector_490" d="M291 347V352C291 352.265 291.105 352.52 291.293 352.707C291.48 352.895 291.735 353 292 353H297" stroke="black" stroke-width="2" stroke-linecap="round" stroke-linejoin="round"/>
<path id="Vector_491" d="M292 360L297 365" stroke="black" stroke-width="2" stroke-linecap="round" stroke-linejoin="round"/>
<path id="Vector_492" d="M297 356V353C297.001 352.683 296.939 352.369 296.818 352.076C296.696 351.784 296.518 351.518 296.294 351.294L292.706 347.706C292.482 347.482 292.216 347.304 291.924 347.182C291.631 347.061 291.317 346.999 291 347H281C280.47 347 279.961 347.211 279.586 347.586C279.211 347.961 279 348.47 279 349V363C279 363.53 279.211 364.039 279.586 364.414C279.961 364.789 280.47 365 281 365H288" stroke="black" stroke-width="2" stroke-linecap="round" stroke-linejoin="round"/>
<path id="Vector_493" d="M297 360L292 365" stroke="black" stroke-width="2" stroke-linecap="round" stroke-linejoin="round"/>
</g></svg>
