<svg viewBox="0 0 24 24" fill="none" xmlns="http://www.w3.org/2000/svg"><g transform="translate(-116 -152)">
<path id="Vector_167" d="M137 161C137.001 160.683 136.939 160.369 136.818 160.076C136.696 159.784 136.518 159.518 136.294 159.294L132.706 155.706C132.482 155.482 132.216 155.304 131.924 155.182C131.631 155.061 131.317 154.999 131 155H121C120.47 155 119.961 155.211 119.586 155.586C119.211 155.961 119 156.47 119 157V171C119 171.53 119.211 172.039 119.586 172.414C119.961 172.789 120.47 173 121 173H135C135.53 173 136.039 172.789 136.414 172.414C136.789 172.039 137 171.53 137 171V161Z" stroke="black" stroke-width="2" stroke-linecap="round" stroke-linejoin="round"/>
<path id="Vector_168" d="M131 155V160C131 160.265 131.105 160.52 131.293 160.707C131.48 160.895 131.735 161 132 161H137" stroke="black" stroke-width="2" stroke-linecap="round" stroke-linejoin="round"/>
<path id="Vector_169" d="M124 165H124.01" stroke="black" stroke-width="2" stroke-linecap="round" stroke-linejoin="round"/>
<path id="Vector_170" d="M132 165H132.01" stroke="black" stroke-width="2" stroke-linecap="round" stroke-linejoin="round"/>
<path id="Vector_171" d="M126 168C126 168 126.8 169 128 169C129.3 169 130 168 130 168" stroke="black" stroke-width="2" stroke-linecap="round" stroke-linejoin="round"/>
</g></svg>
