<svg viewBox="0 0 24 24" fill="none" xmlns="http://www.w3.org/2000/svg"><g transform="translate(-244 -344)">
<path id="Vector_486" d="M254 352C254.317 351.999 254.631 352.061 254.924 352.182C255.216 352.304 255.482 352.482 255.706 352.706L259.294 356.294C259.518 356.518 259.696 356.784 259.818 357.076C259.939 357.369 260.001 357.683 260 358V364C260 364.53 259.789 365.039 259.414 365.414C259.039 365.789 258.53 366 258 366H248C247.47 366 246.961 365.789 246.586 365.414C246.211 365.039 246 364.53 246 364V354C246 353.47 246.211 352.961 246.586 352.586C246.961 352.211 247.47 352 248 352H254Z" stroke="black" stroke-width="2" stroke-linecap="round" stroke-linejoin="round"/>
<path id="Vector_487" d="M254 352V357C254 357.265 254.105 357.52 254.293 357.707C254.48 357.895 254.735 358 255 358H260" stroke="black" stroke-width="2" stroke-linecap="round" stroke-linejoin="round"/>
<path id="Vector_488" d="M252 348C252 347.47 252.211 346.961 252.586 346.586C252.961 346.211 253.47 346 254 346H260C260.317 345.999 260.631 346.061 260.924 346.182C261.216 346.304 261.482 346.482 261.706 346.706L265.294 350.294C265.518 350.518 265.696 350.784 265.818 351.076C265.939 351.369 266.001 351.683 266 352V358C266 358.53 265.789 359.039 265.414 359.414C265.039 359.789 264.53 360 264 360" stroke="black" stroke-width="2" stroke-linecap="round" stroke-linejoin="round"/>
<path id="Vector_489" d="M260 346V351C260 351.265 260.105 351.52 260.293 351.707C260.48 351.895 260.735 352 261 352H266" stroke="black" stroke-width="2" stroke-linecap="round" stroke-linejoin="round"/>
</g></svg>
