<svg viewBox="0 0 24 24" fill="none" xmlns="http://www.w3.org/2000/svg"><g transform="translate(-276 -152)">
<path id="Vector_172" d="M287.264 154.205C286.351 153.9 285.358 153.935 284.468 154.304C283.578 154.672 282.851 155.349 282.42 156.211L278.42 164.211C277.984 165.083 277.882 166.084 278.132 167.026C278.382 167.969 278.968 168.787 279.779 169.328L285.779 173.328C286.436 173.766 287.209 174 287.998 174C288.788 174 289.56 173.766 290.217 173.328L296.217 169.328C296.947 168.841 297.497 168.128 297.782 167.298C298.066 166.469 298.071 165.568 297.793 164.736L295.793 158.736C295.597 158.147 295.266 157.611 294.827 157.172C294.388 156.733 293.852 156.402 293.263 156.206L287.264 154.205Z" stroke="black" stroke-width="2" stroke-linecap="round" stroke-linejoin="round"/>
<path id="Vector_173" d="M287.99 174L290 164L297.822 167.184" stroke="black" stroke-width="2" stroke-linecap="round" stroke-linejoin="round"/>
<path id="Vector_174" d="M290 164L284.47 154.302" stroke="black" stroke-width="2" stroke-linecap="round" stroke-linejoin="round"/>
</g></svg>
