<svg viewBox="0 0 24 24" fill="none" xmlns="http://www.w3.org/2000/svg"><g transform="translate(-244 -88)">
<path id="Vector_91" d="M259 109V104C259 103.735 258.895 103.48 258.707 103.293C258.52 103.105 258.265 103 258 103H254C253.735 103 253.48 103.105 253.293 103.293C253.105 103.48 253 103.735 253 104V109" stroke="black" stroke-width="2" stroke-linecap="round" stroke-linejoin="round"/>
<path id="Vector_92" d="M261.774 98.31C261.565 98.1104 261.288 97.999 260.999 97.999C260.711 97.999 260.433 98.1104 260.225 98.31C259.76 98.7535 259.142 99.001 258.499 99.001C257.857 99.001 257.239 98.7535 256.774 98.31C256.566 98.1107 256.288 97.9995 256 97.9995C255.712 97.9995 255.434 98.1107 255.226 98.31C254.761 98.7538 254.143 99.0014 253.5 99.0014C252.857 99.0014 252.239 98.7538 251.774 98.31C251.565 98.1104 251.288 97.999 250.999 97.999C250.711 97.999 250.433 98.1104 250.225 98.31C249.776 98.7386 249.183 98.9848 248.563 99.0005C247.942 99.0163 247.338 98.8006 246.867 98.3954C246.397 97.9901 246.094 97.4244 246.018 96.8082C245.942 96.1921 246.098 95.5696 246.455 95.062L249.344 90.878C249.527 90.6075 249.774 90.3861 250.063 90.233C250.351 90.0799 250.673 89.9999 251 90H261C261.326 89.9999 261.647 90.0793 261.935 90.2315C262.223 90.3836 262.469 90.6039 262.653 90.873L265.548 95.065C265.905 95.573 266.061 96.196 265.984 96.8124C265.908 97.4289 265.604 97.9947 265.133 98.3997C264.662 98.8046 264.057 99.0197 263.436 99.0029C262.815 98.9861 262.223 98.7388 261.774 98.309" stroke="black" stroke-width="2" stroke-linecap="round" stroke-linejoin="round"/>
<path id="Vector_93" d="M248 98.95V107C248 107.53 248.211 108.039 248.586 108.414C248.961 108.789 249.47 109 250 109H262C262.53 109 263.039 108.789 263.414 108.414C263.789 108.039 264 107.53 264 107V98.95" stroke="black" stroke-width="2" stroke-linecap="round" stroke-linejoin="round"/>
</g></svg>
