<svg viewBox="0 0 24 24" fill="none" xmlns="http://www.w3.org/2000/svg"><g transform="translate(-20 -216)">
<path id="Vector_246" d="M28 218H26C24.8954 218 24 218.895 24 220V236C24 237.105 24.8954 238 26 238H28C29.1046 238 30 237.105 30 236V220C30 218.895 29.1046 218 28 218Z" stroke="black" stroke-width="2" stroke-linecap="round" stroke-linejoin="round"/>
<path id="Vector_247" d="M38 218H36C34.8954 218 34 218.895 34 220V236C34 237.105 34.8954 238 36 238H38C39.1046 238 40 237.105 40 236V220C40 218.895 39.1046 218 38 218Z" stroke="black" stroke-width="2" stroke-linecap="round" stroke-linejoin="round"/>
</g></svg>
