<svg viewBox="0 0 24 24" fill="none" xmlns="http://www.w3.org/2000/svg"><g transform="translate(-372 -184)">
<path id="Vector_244" d="M392 188H376C374.895 188 374 188.895 374 190V192C374 193.105 374.895 194 376 194H392C393.105 194 394 193.105 394 192V190C394 188.895 393.105 188 392 188Z" stroke="black" stroke-width="2" stroke-linecap="round" stroke-linejoin="round"/>
<path id="Vector_245" d="M392 198H376C374.895 198 374 198.895 374 200V202C374 203.105 374.895 204 376 204H392C393.105 204 394 203.105 394 202V200C394 198.895 393.105 198 392 198Z" stroke="black" stroke-width="2" stroke-linecap="round" stroke-linejoin="round"/>
</g></svg>
