<svg viewBox="0 0 24 24" fill="none" xmlns="http://www.w3.org/2000/svg"><g transform="translate(-116 -184)">
<path id="Vector_223" d="M126 205V204" stroke="black" stroke-width="2" stroke-linecap="round" stroke-linejoin="round"/>
<path id="Vector_224" d="M126 188V187" stroke="black" stroke-width="2" stroke-linecap="round" stroke-linejoin="round"/>
<path id="Vector_225" d="M126 193C125.204 193 124.441 193.316 123.879 193.879C123.316 194.441 123 195.204 123 196C123 196.796 123.316 197.559 123.879 198.121C124.441 198.684 125.204 199 126 199" stroke="black" stroke-width="2" stroke-linecap="round" stroke-linejoin="round"/>
<path id="Vector_226" d="M130 204L131.25 201.5L134 202" stroke="black" stroke-width="2" stroke-linecap="round" stroke-linejoin="round"/>
<path id="Vector_227" d="M130 188L131.25 190.5L134 190" stroke="black" stroke-width="2" stroke-linecap="round" stroke-linejoin="round"/>
<path id="Vector_228" d="M133 205L130 199L131.5 196H138" stroke="black" stroke-width="2" stroke-linecap="round" stroke-linejoin="round"/>
<path id="Vector_229" d="M133 187L130 193L131.5 196" stroke="black" stroke-width="2" stroke-linecap="round" stroke-linejoin="round"/>
<path id="Vector_230" d="M118 196H119" stroke="black" stroke-width="2" stroke-linecap="round" stroke-linejoin="round"/>
<path id="Vector_231" d="M136 194L134.5 196L136 198" stroke="black" stroke-width="2" stroke-linecap="round" stroke-linejoin="round"/>
<path id="Vector_232" d="M119.64 202.36L120.34 201.66" stroke="black" stroke-width="2" stroke-linecap="round" stroke-linejoin="round"/>
<path id="Vector_233" d="M120.34 190.34L119.64 189.64" stroke="black" stroke-width="2" stroke-linecap="round" stroke-linejoin="round"/>
</g></svg>
