<svg viewBox="0 0 24 24" fill="none" xmlns="http://www.w3.org/2000/svg"><g transform="translate(-20 -184)">
<path id="Vector_202" d="M32 186V188" stroke="black" stroke-width="2" stroke-linecap="round" stroke-linejoin="round"/>
<path id="Vector_203" d="M34.8372 200.385C34.5909 201.424 34.0716 202.379 33.3331 203.15C32.5946 203.922 31.6636 204.482 30.6361 204.773C29.6087 205.065 28.5221 205.077 27.4885 204.808C26.455 204.539 25.5119 203.999 24.7567 203.244C24.0015 202.489 23.4615 201.546 23.1925 200.512C22.9235 199.479 22.9352 198.392 23.2265 197.365C23.5177 196.337 24.0779 195.406 24.8493 194.668C25.6206 193.929 26.5751 193.41 27.6142 193.163C28.2382 193.016 28.5842 193.823 28.3292 194.411C28.0109 195.147 27.9211 195.962 28.0714 196.749C28.2218 197.537 28.6053 198.261 29.1723 198.828C29.7393 199.395 30.4636 199.778 31.2512 199.928C32.0388 200.079 32.8534 199.989 33.5892 199.67C34.1782 199.415 34.9852 199.76 34.8372 200.385Z" stroke="black" stroke-width="2" stroke-linecap="round" stroke-linejoin="round"/>
<path id="Vector_204" d="M36 196C36 194.939 35.5786 193.922 34.8284 193.172C34.0783 192.421 33.0609 192 32 192" stroke="black" stroke-width="2" stroke-linecap="round" stroke-linejoin="round"/>
<path id="Vector_205" d="M39.0001 189L37.7441 190.256" stroke="black" stroke-width="2" stroke-linecap="round" stroke-linejoin="round"/>
<path id="Vector_206" d="M40 196H42" stroke="black" stroke-width="2" stroke-linecap="round" stroke-linejoin="round"/>
</g></svg>
