<svg viewBox="0 0 24 24" fill="none" xmlns="http://www.w3.org/2000/svg"><g transform="translate(-52 -280)">
<path id="Vector_306" d="M63 297C63 298.061 62.5786 299.078 61.8284 299.828C61.0783 300.579 60.0609 301 59 301C57.9391 301 56.9217 300.579 56.1716 299.828C55.4214 299.078 55 298.061 55 297V285C55 284.47 55.2107 283.961 55.5858 283.586C55.9609 283.211 56.4696 283 57 283H61C61.5304 283 62.0391 283.211 62.4142 283.586C62.7893 283.961 63 284.47 63 285V297Z" stroke="black" stroke-width="2" stroke-linecap="round" stroke-linejoin="round"/>
<path id="Vector_307" d="M68.7 293H71C71.5304 293 72.0391 293.211 72.4142 293.586C72.7893 293.961 73 294.47 73 295V299C73 299.53 72.7893 300.039 72.4142 300.414C72.0391 300.789 71.5304 301 71 301H59" stroke="black" stroke-width="2" stroke-linecap="round" stroke-linejoin="round"/>
<path id="Vector_308" d="M59 297H59.01" stroke="black" stroke-width="2" stroke-linecap="round" stroke-linejoin="round"/>
<path id="Vector_309" d="M63.0004 288L65.3004 285.7C65.5237 285.476 65.7891 285.298 66.0813 285.177C66.3736 285.056 66.6869 284.994 67.0032 284.994C67.3196 284.995 67.6327 285.057 67.9247 285.179C68.2166 285.301 68.4816 285.479 68.7044 285.704L70.6004 287.6C70.831 287.822 71.0149 288.088 71.1413 288.381C71.2677 288.675 71.3341 288.992 71.3365 289.312C71.339 289.632 71.2774 289.949 71.1554 290.245C71.0335 290.54 70.8536 290.809 70.6264 291.034L61.9004 299.8" stroke="black" stroke-width="2" stroke-linecap="round" stroke-linejoin="round"/>
</g></svg>
