<svg viewBox="0 0 24 24" fill="none" xmlns="http://www.w3.org/2000/svg"><g transform="translate(-84 -216)">
<path id="Vector_237" d="M95 235H88C87.4696 235 86.9609 234.789 86.5858 234.414C86.2107 234.039 86 233.53 86 233V223C86 222.47 86.2107 221.961 86.5858 221.586C86.9609 221.211 87.4696 221 88 221H93" stroke="black" stroke-width="2" stroke-linecap="round" stroke-linejoin="round"/>
<path id="Vector_238" d="M97 221H104C104.53 221 105.039 221.211 105.414 221.586C105.789 221.961 106 222.47 106 223V233C106 233.53 105.789 234.039 105.414 234.414C105.039 234.789 104.53 235 104 235H99" stroke="black" stroke-width="2" stroke-linecap="round" stroke-linejoin="round"/>
<path id="Vector_239" d="M96 231C97.6569 231 99 229.657 99 228C99 226.343 97.6569 225 96 225C94.3431 225 93 226.343 93 228C93 229.657 94.3431 231 96 231Z" stroke="black" stroke-width="2" stroke-linecap="round" stroke-linejoin="round"/>
<path id="Vector_240" d="M102 238L99 235L102 232" stroke="black" stroke-width="2" stroke-linecap="round" stroke-linejoin="round"/>
<path id="Vector_241" d="M90 218L93 221L90 224" stroke="black" stroke-width="2" stroke-linecap="round" stroke-linejoin="round"/>
</g></svg>
