<svg viewBox="0 0 24 24" fill="none" xmlns="http://www.w3.org/2000/svg"><g transform="translate(-20 -88)">
<path id="Vector_56" d="M31 96H25C23.8954 96 23 96.8954 23 98V108C23 109.105 23.8954 110 25 110H31C32.1046 110 33 109.105 33 108V98C33 96.8954 32.1046 96 31 96Z" stroke="black" stroke-width="2" stroke-linecap="round" stroke-linejoin="round"/>
<path id="Vector_57" d="M25 92C25 91.4696 25.2107 90.9609 25.5858 90.5858C25.9609 90.2107 26.4696 90 27 90H39C39.5304 90 40.0391 90.2107 40.4142 90.5858C40.7893 90.9609 41 91.4696 41 92V108C41 108.53 40.7893 109.039 40.4142 109.414C40.0391 109.789 39.5304 110 39 110H36.6" stroke="black" stroke-width="2" stroke-linecap="round" stroke-linejoin="round"/>
<path id="Vector_58" d="M28 106H28.01" stroke="black" stroke-width="2" stroke-linecap="round" stroke-linejoin="round"/>
</g></svg>
