<svg viewBox="0 0 24 24" fill="none" xmlns="http://www.w3.org/2000/svg"><g transform="translate(-244 -88)">
<path id="Vector_99" d="M253 91H249C248.47 91 247.961 91.2107 247.586 91.5858C247.211 91.9609 247 92.4696 247 93V97M253 91H263C263.53 91 264.039 91.2107 264.414 91.5858C264.789 91.9609 265 92.4696 265 93V97M253 91V109M247 97V107C247 107.53 247.211 108.039 247.586 108.414C247.961 108.789 248.47 109 249 109H253M247 97H265M265 97V107C265 107.53 264.789 108.039 264.414 108.414C264.039 108.789 263.53 109 263 109H253" stroke="black" stroke-width="2" stroke-linecap="round" stroke-linejoin="round"/>
</g></svg>
