<svg viewBox="0 0 24 24" fill="none" xmlns="http://www.w3.org/2000/svg"><g transform="translate(-52 -120)">
<path id="Vector_130" d="M66 130H68" stroke="black" stroke-width="2" stroke-linecap="round" stroke-linejoin="round"/>
<path id="Vector_131" d="M67 142V134" stroke="black" stroke-width="2" stroke-linecap="round" stroke-linejoin="round"/>
<path id="Vector_132" d="M67 122V126" stroke="black" stroke-width="2" stroke-linecap="round" stroke-linejoin="round"/>
<path id="Vector_133" d="M54 130H56" stroke="black" stroke-width="2" stroke-linecap="round" stroke-linejoin="round"/>
<path id="Vector_134" d="M72 130H74" stroke="black" stroke-width="2" stroke-linecap="round" stroke-linejoin="round"/>
<path id="Vector_135" d="M55 139H73" stroke="black" stroke-width="2" stroke-linecap="round" stroke-linejoin="round"/>
<path id="Vector_136" d="M55 142V136C55 135.737 55.0517 135.477 55.1522 135.235C55.2528 134.992 55.4001 134.772 55.5858 134.586C55.7715 134.4 55.992 134.253 56.2346 134.152C56.4773 134.052 56.7374 134 57 134H71C71.2626 134 71.5227 134.052 71.7654 134.152C72.008 134.253 72.2285 134.4 72.4142 134.586C72.5999 134.772 72.7472 134.992 72.8478 135.235C72.9483 135.477 73 135.737 73 136V142" stroke="black" stroke-width="2" stroke-linecap="round" stroke-linejoin="round"/>
<path id="Vector_137" d="M55 122V124C55 124.53 55.2107 125.039 55.5858 125.414C55.9609 125.789 56.4696 126 57 126H71C71.5304 126 72.0391 125.789 72.4142 125.414C72.7893 125.039 73 124.53 73 124V122" stroke="black" stroke-width="2" stroke-linecap="round" stroke-linejoin="round"/>
<path id="Vector_138" d="M60 130H62" stroke="black" stroke-width="2" stroke-linecap="round" stroke-linejoin="round"/>
<path id="Vector_139" d="M61 142V134" stroke="black" stroke-width="2" stroke-linecap="round" stroke-linejoin="round"/>
<path id="Vector_140" d="M61 122V126" stroke="black" stroke-width="2" stroke-linecap="round" stroke-linejoin="round"/>
</g></svg>
