<svg viewBox="0 0 24 24" fill="none" xmlns="http://www.w3.org/2000/svg"><g transform="translate(-148 -152)">
<path id="Vector_181" d="M155 164C157.761 164 160 161.761 160 159C160 156.239 157.761 154 155 154C152.239 154 150 156.239 150 159C150 161.761 152.239 164 155 164Z" stroke="black" stroke-width="2" stroke-linecap="round" stroke-linejoin="round"/>
<path id="Vector_182" d="M165 174C167.761 174 170 171.761 170 169C170 166.239 167.761 164 165 164C162.239 164 160 166.239 160 169C160 171.761 162.239 174 165 174Z" stroke="black" stroke-width="2" stroke-linecap="round" stroke-linejoin="round"/>
<path id="Vector_183" d="M160 169H170" stroke="black" stroke-width="2" stroke-linecap="round" stroke-linejoin="round"/>
<path id="Vector_184" d="M151.46 162.54L158.54 155.46" stroke="black" stroke-width="2" stroke-linecap="round" stroke-linejoin="round"/>
</g></svg>
