<svg viewBox="0 0 24 24" fill="none" xmlns="http://www.w3.org/2000/svg"><g transform="translate(-372 -88)">
<path id="Vector_103" d="M388.5 94.5L384.586 90.586C384.211 90.2109 383.702 90.0001 383.172 90H376C375.47 90 374.961 90.2107 374.586 90.5858C374.211 90.9609 374 91.4696 374 92V99.172C374 99.7024 374.211 100.211 374.586 100.586L383.29 109.29C383.745 109.741 384.36 109.993 385 109.993C385.64 109.993 386.255 109.741 386.71 109.29L388.5 107.5" stroke="black" stroke-width="2" stroke-linecap="round" stroke-linejoin="round"/>
<path id="Vector_104" d="M388.5 98.5L393.5 103.5" stroke="black" stroke-width="2" stroke-linecap="round" stroke-linejoin="round"/>
<path id="Vector_105" d="M393.5 98.5L388.5 103.5" stroke="black" stroke-width="2" stroke-linecap="round" stroke-linejoin="round"/>
<path id="Vector_106" d="M379.5 96C379.776 96 380 95.7761 380 95.5C380 95.2239 379.776 95 379.5 95C379.224 95 379 95.2239 379 95.5C379 95.7761 379.224 96 379.5 96Z" fill="black" stroke="black" stroke-width="2" stroke-linecap="round" stroke-linejoin="round"/>
</g></svg>
