<svg viewBox="0 0 24 24" fill="none" xmlns="http://www.w3.org/2000/svg"><g transform="translate(-308 -88)">
<path id="Vector_96" d="M324 101H330" stroke="black" stroke-width="2" stroke-linecap="round" stroke-linejoin="round"/>
<path id="Vector_97" d="M324.5 94.5L320.586 90.586C320.211 90.2109 319.702 90.0001 319.172 90H312C311.47 90 310.961 90.2107 310.586 90.5858C310.211 90.9609 310 91.4696 310 92V99.172C310 99.7024 310.211 100.211 310.586 100.586L319.29 109.29C319.745 109.742 320.359 109.995 321 109.995C321.641 109.995 322.255 109.742 322.71 109.29L324.5 107.5" stroke="black" stroke-width="2" stroke-linecap="round" stroke-linejoin="round"/>
<path id="Vector_98" d="M327 98V104" stroke="black" stroke-width="2" stroke-linecap="round" stroke-linejoin="round"/>
<path id="Vector_99" d="M315.5 96C315.776 96 316 95.7761 316 95.5C316 95.2239 315.776 95 315.5 95C315.224 95 315 95.2239 315 95.5C315 95.7761 315.224 96 315.5 96Z" fill="black" stroke="black" stroke-width="2" stroke-linecap="round" stroke-linejoin="round"/>
</g></svg>
