<svg viewBox="0 0 24 24" fill="none" xmlns="http://www.w3.org/2000/svg"><g transform="translate(-276 -88)">
<path id="Vector_94" d="M288.586 90.586C288.211 90.2109 287.702 90.0001 287.172 90H280C279.47 90 278.961 90.2107 278.586 90.5858C278.211 90.9609 278 91.4696 278 92V99.172C278 99.7024 278.211 100.211 278.586 100.586L287.29 109.29C287.745 109.742 288.359 109.995 289 109.995C289.641 109.995 290.255 109.742 290.71 109.29L297.29 102.71C297.742 102.255 297.995 101.641 297.995 101C297.995 100.359 297.742 99.7445 297.29 99.29L288.586 90.586Z" stroke="black" stroke-width="2" stroke-linecap="round" stroke-linejoin="round"/>
<path id="Vector_95" d="M283.5 96C283.776 96 284 95.7761 284 95.5C284 95.2239 283.776 95 283.5 95C283.224 95 283 95.2239 283 95.5C283 95.7761 283.224 96 283.5 96Z" fill="black" stroke="black" stroke-width="2" stroke-linecap="round" stroke-linejoin="round"/>
</g></svg>
