<svg viewBox="0 0 24 24" fill="none" xmlns="http://www.w3.org/2000/svg"><g transform="translate(-340 -88)">
<path id="Vector_100" d="M353.172 90C353.702 90.0001 354.211 90.2109 354.586 90.586L361.296 97.296C361.521 97.5191 361.699 97.7846 361.821 98.077C361.943 98.3695 362.006 98.6832 362.006 99C362.006 99.3168 361.943 99.6305 361.821 99.923C361.699 100.215 361.521 100.481 361.296 100.704L356.704 105.296C356.481 105.521 356.215 105.699 355.923 105.821C355.631 105.943 355.317 106.006 355 106.006C354.683 106.006 354.369 105.943 354.077 105.821C353.785 105.699 353.519 105.521 353.296 105.296L346.586 98.586C346.211 98.211 346 97.7024 346 97.172V91C346 90.7348 346.105 90.4804 346.293 90.2929C346.48 90.1054 346.735 90 347 90H353.172Z" stroke="black" stroke-width="2" stroke-linecap="round" stroke-linejoin="round"/>
<path id="Vector_101" d="M342 95V101.172C342 101.702 342.211 102.211 342.586 102.586L349.296 109.296C349.711 109.715 350.266 109.966 350.855 110.001C351.443 110.037 352.024 109.854 352.487 109.489" stroke="black" stroke-width="2" stroke-linecap="round" stroke-linejoin="round"/>
<path id="Vector_102" d="M350.5 95C350.776 95 351 94.7761 351 94.5C351 94.2239 350.776 94 350.5 94C350.224 94 350 94.2239 350 94.5C350 94.7761 350.224 95 350.5 95Z" fill="black" stroke="black" stroke-width="2" stroke-linecap="round" stroke-linejoin="round"/>
</g></svg>
