<svg viewBox="0 0 24 24" fill="none" xmlns="http://www.w3.org/2000/svg"><g transform="translate(-84 -280)">
<path id="Vector_310" d="M101 286C102.105 286 103 285.105 103 284C103 282.895 102.105 282 101 282C99.8954 282 99 282.895 99 284C99 285.105 99.8954 286 101 286Z" stroke="black" stroke-width="2" stroke-linecap="round" stroke-linejoin="round"/>
<path id="Vector_311" d="M99.5902 285.41L89.4102 295.59" stroke="black" stroke-width="2" stroke-linecap="round" stroke-linejoin="round"/>
<path id="Vector_312" d="M88 299C89.1046 299 90 298.105 90 297C90 295.895 89.1046 295 88 295C86.8954 295 86 295.895 86 297C86 298.105 86.8954 299 88 299Z" stroke="black" stroke-width="2" stroke-linecap="round" stroke-linejoin="round"/>
<path id="Vector_313" d="M95.9997 302C95.9997 302 91.9997 293 94.4997 290.5C96.9997 288 106 292 106 292" stroke="black" stroke-width="2" stroke-linecap="round" stroke-linejoin="round"/>
</g></svg>
