<svg viewBox="0 0 24 24" fill="none" xmlns="http://www.w3.org/2000/svg"><g transform="translate(-308 -152)">
<path id="Vector_173" d="M320 174C325.523 174 330 169.523 330 164C330 158.477 325.523 154 320 154C314.477 154 310 158.477 310 164C310 169.523 314.477 174 320 174Z" stroke="black" stroke-width="2" stroke-linecap="round" stroke-linejoin="round"/>
<path id="Vector_174" d="M320 170C323.314 170 326 167.314 326 164C326 160.686 323.314 158 320 158C316.686 158 314 160.686 314 164C314 167.314 316.686 170 320 170Z" stroke="black" stroke-width="2" stroke-linecap="round" stroke-linejoin="round"/>
<path id="Vector_175" d="M320 166C321.105 166 322 165.105 322 164C322 162.895 321.105 162 320 162C318.895 162 318 162.895 318 164C318 165.105 318.895 166 320 166Z" stroke="black" stroke-width="2" stroke-linecap="round" stroke-linejoin="round"/>
</g></svg>
