<svg viewBox="0 0 24 24" fill="none" xmlns="http://www.w3.org/2000/svg"><g transform="translate(-340 -152)">
<path id="Vector_176" d="M350.065 164.493L343.885 165.811C343.646 165.863 343.395 165.818 343.187 165.687C342.98 165.556 342.833 165.348 342.777 165.109L342.24 162.959C342.177 162.7 342.213 162.427 342.341 162.193C342.469 161.959 342.679 161.781 342.931 161.694L356.435 157.254" stroke="black" stroke-width="2" stroke-linecap="round" stroke-linejoin="round"/>
<path id="Vector_177" d="M353.56 163.747L357.892 162.823" stroke="black" stroke-width="2" stroke-linecap="round" stroke-linejoin="round"/>
<path id="Vector_178" d="M356 173L352.895 166.79" stroke="black" stroke-width="2" stroke-linecap="round" stroke-linejoin="round"/>
<path id="Vector_179" d="M356.485 157.94C356.357 157.426 356.438 156.881 356.711 156.426C356.984 155.972 357.426 155.644 357.94 155.515L359.03 155.243C359.288 155.179 359.56 155.22 359.787 155.356C360.014 155.492 360.178 155.713 360.242 155.97L361.757 162.03C361.822 162.287 361.781 162.56 361.645 162.787C361.509 163.015 361.288 163.179 361.03 163.243L359.94 163.515C359.426 163.644 358.881 163.563 358.427 163.29C357.972 163.017 357.644 162.575 357.515 162.06L356.485 157.94Z" stroke="black" stroke-width="2" stroke-linecap="round" stroke-linejoin="round"/>
<path id="Vector_180" d="M346.158 160.633L347.272 165.089" stroke="black" stroke-width="2" stroke-linecap="round" stroke-linejoin="round"/>
<path id="Vector_181" d="M348 173L351.105 166.79" stroke="black" stroke-width="2" stroke-linecap="round" stroke-linejoin="round"/>
<path id="Vector_182" d="M352 167C353.105 167 354 166.105 354 165C354 163.895 353.105 163 352 163C350.895 163 350 163.895 350 165C350 166.105 350.895 167 352 167Z" stroke="black" stroke-width="2" stroke-linecap="round" stroke-linejoin="round"/>
</g></svg>
