<svg viewBox="0 0 24 24" fill="none" xmlns="http://www.w3.org/2000/svg"><g transform="translate(-372 -88)">
<path id="Vector_123" d="M374 98C374 98 377 95 377 90" stroke="black" stroke-width="2" stroke-linecap="round" stroke-linejoin="round"/>
<path id="Vector_124" d="M394 98C394 98 391 95 391 90" stroke="black" stroke-width="2" stroke-linecap="round" stroke-linejoin="round"/>
<path id="Vector_125" d="M382 90C382 94.4 378.4 98 374 98" stroke="black" stroke-width="2" stroke-linecap="round" stroke-linejoin="round"/>
<path id="Vector_126" d="M386 90C386 94.4 389.6 98 394 98" stroke="black" stroke-width="2" stroke-linecap="round" stroke-linejoin="round"/>
<path id="Vector_127" d="M374 98C374 98 376 100 376 103" stroke="black" stroke-width="2" stroke-linecap="round" stroke-linejoin="round"/>
<path id="Vector_128" d="M394 98C394 98 392 100 392 103" stroke="black" stroke-width="2" stroke-linecap="round" stroke-linejoin="round"/>
<path id="Vector_129" d="M380 103H388" stroke="black" stroke-width="2" stroke-linecap="round" stroke-linejoin="round"/>
<path id="Vector_130" d="M374 110V109C374 108.47 374.211 107.961 374.586 107.586C374.961 107.211 375.47 107 376 107H380C380.53 107 381.039 107.211 381.414 107.586C381.789 107.961 382 108.47 382 109V110" stroke="black" stroke-width="2" stroke-linecap="round" stroke-linejoin="round"/>
<path id="Vector_131" d="M386 110V109C386 108.47 386.211 107.961 386.586 107.586C386.961 107.211 387.47 107 388 107H392C392.53 107 393.039 107.211 393.414 107.586C393.789 107.961 394 108.47 394 109V110" stroke="black" stroke-width="2" stroke-linecap="round" stroke-linejoin="round"/>
</g></svg>
