<svg viewBox="0 0 24 24" fill="none" xmlns="http://www.w3.org/2000/svg"><g transform="translate(-212 -184)">
<path id="Vector_243" d="M224 186V188" stroke="black" stroke-width="2" stroke-linecap="round" stroke-linejoin="round"/>
<path id="Vector_244" d="M224 192C223.085 192 222.197 192.313 221.485 192.888C220.773 193.463 220.28 194.264 220.088 195.159C219.895 196.053 220.015 196.987 220.428 197.804C220.84 198.621 221.521 199.271 222.355 199.647" stroke="black" stroke-width="2" stroke-linecap="round" stroke-linejoin="round"/>
<path id="Vector_245" d="M214 196H216" stroke="black" stroke-width="2" stroke-linecap="round" stroke-linejoin="round"/>
<path id="Vector_246" d="M232 198.54C232.763 198.98 233.359 199.66 233.696 200.473C234.032 201.287 234.092 202.189 233.864 203.039C233.636 203.89 233.134 204.641 232.435 205.178C231.736 205.714 230.881 206.004 230 206.004C229.119 206.004 228.264 205.714 227.565 205.178C226.866 204.641 226.364 203.89 226.136 203.039C225.908 202.189 225.968 201.287 226.304 200.473C226.641 199.66 227.237 198.98 228 198.54V188C228 187.47 228.211 186.961 228.586 186.586C228.961 186.211 229.47 186 230 186C230.53 186 231.039 186.211 231.414 186.586C231.789 186.961 232 187.47 232 188V198.54Z" stroke="black" stroke-width="2" stroke-linecap="round" stroke-linejoin="round"/>
<path id="Vector_247" d="M216.93 188.93L218.34 190.34" stroke="black" stroke-width="2" stroke-linecap="round" stroke-linejoin="round"/>
<path id="Vector_248" d="M218.34 201.66L216.93 203.07" stroke="black" stroke-width="2" stroke-linecap="round" stroke-linejoin="round"/>
</g></svg>
