<svg viewBox="0 0 24 24" fill="none" xmlns="http://www.w3.org/2000/svg"><g transform="translate(-180 -184)">
<path id="Vector_235" d="M190 204L188.75 201.5L186 202" stroke="black" stroke-width="2" stroke-linecap="round" stroke-linejoin="round"/>
<path id="Vector_236" d="M190 188L188.75 190.5L186 190" stroke="black" stroke-width="2" stroke-linecap="round" stroke-linejoin="round"/>
<path id="Vector_237" d="M190.585 199H190" stroke="black" stroke-width="2" stroke-linecap="round" stroke-linejoin="round"/>
<path id="Vector_238" d="M182 196H188.5L190 193" stroke="black" stroke-width="2" stroke-linecap="round" stroke-linejoin="round"/>
<path id="Vector_239" d="M200 198.54C200.763 198.98 201.359 199.66 201.696 200.473C202.032 201.287 202.092 202.189 201.864 203.039C201.636 203.89 201.134 204.641 200.435 205.178C199.736 205.714 198.881 206.004 198 206.004C197.119 206.004 196.264 205.714 195.565 205.178C194.866 204.641 194.364 203.89 194.136 203.039C193.908 202.189 193.968 201.287 194.304 200.473C194.641 199.66 195.237 198.98 196 198.54V188C196 187.47 196.211 186.961 196.586 186.586C196.961 186.211 197.47 186 198 186C198.53 186 199.039 186.211 199.414 186.586C199.789 186.961 200 187.47 200 188V198.54Z" stroke="black" stroke-width="2" stroke-linecap="round" stroke-linejoin="round"/>
<path id="Vector_240" d="M184 194L185.5 196L184 198" stroke="black" stroke-width="2" stroke-linecap="round" stroke-linejoin="round"/>
<path id="Vector_241" d="M187 205L190 199L188.5 196" stroke="black" stroke-width="2" stroke-linecap="round" stroke-linejoin="round"/>
<path id="Vector_242" d="M187 187L190 193H192" stroke="black" stroke-width="2" stroke-linecap="round" stroke-linejoin="round"/>
</g></svg>
