<svg viewBox="0 0 24 24" fill="none" xmlns="http://www.w3.org/2000/svg"><g transform="translate(-148 -184)">
<path id="Vector_234" d="M162 188V198.54C162.763 198.98 163.359 199.66 163.696 200.473C164.032 201.287 164.092 202.189 163.864 203.039C163.636 203.89 163.134 204.641 162.435 205.178C161.736 205.714 160.881 206.004 160 206.004C159.119 206.004 158.264 205.714 157.565 205.178C156.866 204.641 156.364 203.89 156.136 203.039C155.908 202.189 155.968 201.287 156.304 200.473C156.641 199.66 157.237 198.98 158 198.54V188C158 187.47 158.211 186.961 158.586 186.586C158.961 186.211 159.47 186 160 186C160.53 186 161.039 186.211 161.414 186.586C161.789 186.961 162 187.47 162 188Z" stroke="black" stroke-width="2" stroke-linecap="round" stroke-linejoin="round"/>
</g></svg>
