<svg viewBox="0 0 24 24" fill="none" xmlns="http://www.w3.org/2000/svg"><g transform="translate(-52 -120)">
<path id="Vector_88" d="M67 125.88L66 130H71.83C72.1405 130 72.4467 130.072 72.7244 130.211C73.0021 130.35 73.2437 130.552 73.43 130.8C73.6163 131.048 73.7422 131.337 73.7977 131.642C73.8533 131.948 73.8369 132.262 73.75 132.56L71.42 140.56C71.2988 140.975 71.0462 141.34 70.7 141.6C70.3538 141.86 69.9327 142 69.5 142H56C55.4696 142 54.9609 141.789 54.5858 141.414C54.2107 141.039 54 140.53 54 140V132C54 131.47 54.2107 130.961 54.5858 130.586C54.9609 130.211 55.4696 130 56 130H58.76C59.1321 130 59.4967 129.896 59.813 129.7C60.1292 129.504 60.3844 129.223 60.55 128.89L64 122C64.4716 122.006 64.9357 122.118 65.3578 122.329C65.7799 122.539 66.1489 122.842 66.4374 123.215C66.7259 123.588 66.9263 124.022 67.0237 124.483C67.1212 124.945 67.113 125.422 67 125.88Z" stroke="black" stroke-width="2" stroke-linecap="round" stroke-linejoin="round"/>
<path id="Vector_89" d="M59 130V142" stroke="black" stroke-width="2" stroke-linecap="round" stroke-linejoin="round"/>
</g></svg>
