<svg viewBox="0 0 24 24" fill="none" xmlns="http://www.w3.org/2000/svg"><g transform="translate(-20 -120)">
<path id="Vector_86" d="M28.9999 138.12L29.9999 134H24.1699C23.8594 134 23.5532 133.928 23.2755 133.789C22.9978 133.65 22.7562 133.448 22.5699 133.2C22.3836 132.952 22.2577 132.663 22.2022 132.358C22.1466 132.052 22.163 131.738 22.2499 131.44L24.5799 123.44C24.7011 123.025 24.9537 122.66 25.2999 122.4C25.6461 122.14 26.0672 122 26.4999 122H39.9999C40.5304 122 41.0391 122.211 41.4141 122.586C41.7892 122.961 41.9999 123.47 41.9999 124V132C41.9999 132.53 41.7892 133.039 41.4141 133.414C41.0391 133.789 40.5304 134 39.9999 134H37.2399C36.8678 134 36.5032 134.104 36.187 134.3C35.8707 134.496 35.6155 134.777 35.4499 135.11L31.9999 142C31.5283 141.994 31.0642 141.882 30.6421 141.671C30.2201 141.461 29.851 141.158 29.5625 140.785C29.274 140.412 29.0736 139.978 28.9762 139.517C28.8788 139.055 28.8869 138.578 28.9999 138.12Z" stroke="black" stroke-width="2" stroke-linecap="round" stroke-linejoin="round"/>
<path id="Vector_87" d="M37 134V122" stroke="black" stroke-width="2" stroke-linecap="round" stroke-linejoin="round"/>
</g></svg>
