<svg viewBox="0 0 24 24" fill="none" xmlns="http://www.w3.org/2000/svg"><g transform="translate(-244 -120)">
<path id="Vector_129" d="M254.5 137H255.727C256.224 137 256.704 136.815 257.072 136.48L262 132" stroke="black" stroke-width="2" stroke-linecap="round" stroke-linejoin="round"/>
<path id="Vector_130" d="M256 133.5L259.794 134.006" stroke="black" stroke-width="2" stroke-linecap="round" stroke-linejoin="round"/>
<path id="Vector_131" d="M247.173 128.18L258.173 123.18C258.656 122.961 259.206 122.942 259.702 123.129C260.198 123.315 260.6 123.69 260.82 124.173L262.56 128" stroke="black" stroke-width="2" stroke-linecap="round" stroke-linejoin="round"/>
<path id="Vector_132" d="M250 130V128" stroke="black" stroke-width="2" stroke-linecap="round" stroke-linejoin="round"/>
<path id="Vector_133" d="M250 134V135" stroke="black" stroke-width="2" stroke-linecap="round" stroke-linejoin="round"/>
<path id="Vector_134" d="M250 139V141" stroke="black" stroke-width="2" stroke-linecap="round" stroke-linejoin="round"/>
<path id="Vector_135" d="M264 128H248C246.895 128 246 128.895 246 130V139C246 140.105 246.895 141 248 141H264C265.105 141 266 140.105 266 139V130C266 128.895 265.105 128 264 128Z" stroke="black" stroke-width="2" stroke-linecap="round" stroke-linejoin="round"/>
</g></svg>
