<svg viewBox="0 0 24 24" fill="none" xmlns="http://www.w3.org/2000/svg"><g transform="translate(-276 -120)">
<path id="Vector_136" d="M278 129C278.796 129 279.559 129.316 280.121 129.879C280.684 130.441 281 131.204 281 132C281 132.796 280.684 133.559 280.121 134.121C279.559 134.684 278.796 135 278 135V137C278 137.53 278.211 138.039 278.586 138.414C278.961 138.789 279.47 139 280 139H296C296.53 139 297.039 138.789 297.414 138.414C297.789 138.039 298 137.53 298 137V135C297.204 135 296.441 134.684 295.879 134.121C295.316 133.559 295 132.796 295 132C295 131.204 295.316 130.441 295.879 129.879C296.441 129.316 297.204 129 298 129V127C298 126.47 297.789 125.961 297.414 125.586C297.039 125.211 296.53 125 296 125H280C279.47 125 278.961 125.211 278.586 125.586C278.211 125.961 278 126.47 278 127V129Z" stroke="black" stroke-width="2" stroke-linecap="round" stroke-linejoin="round"/>
<path id="Vector_137" d="M285.5 134.5L290.5 129.5" stroke="black" stroke-width="2" stroke-linecap="round" stroke-linejoin="round"/>
<path id="Vector_138" d="M285.5 129.5L290.5 134.5" stroke="black" stroke-width="2" stroke-linecap="round" stroke-linejoin="round"/>
</g></svg>
