<svg viewBox="0 0 24 24" fill="none" xmlns="http://www.w3.org/2000/svg"><g transform="translate(-212 -120)">
<path id="Vector_127" d="M214 129C214.796 129 215.559 129.316 216.121 129.879C216.684 130.441 217 131.204 217 132C217 132.796 216.684 133.559 216.121 134.121C215.559 134.684 214.796 135 214 135V137C214 137.53 214.211 138.039 214.586 138.414C214.961 138.789 215.47 139 216 139H232C232.53 139 233.039 138.789 233.414 138.414C233.789 138.039 234 137.53 234 137V135C233.204 135 232.441 134.684 231.879 134.121C231.316 133.559 231 132.796 231 132C231 131.204 231.316 130.441 231.879 129.879C232.441 129.316 233.204 129 234 129V127C234 126.47 233.789 125.961 233.414 125.586C233.039 125.211 232.53 125 232 125H216C215.47 125 214.961 125.211 214.586 125.586C214.211 125.961 214 126.47 214 127V129Z" stroke="black" stroke-width="2" stroke-linecap="round" stroke-linejoin="round"/>
<path id="Vector_128" d="M221.5 134.5L226.5 129.5" stroke="black" stroke-width="2" stroke-linecap="round" stroke-linejoin="round"/>
</g></svg>
