<svg viewBox="0 0 24 24" fill="none" xmlns="http://www.w3.org/2000/svg"><g transform="translate(-84 -120)">
<path id="Vector_113" d="M86 129C86.7956 129 87.5587 129.316 88.1213 129.879C88.6839 130.441 89 131.204 89 132C89 132.796 88.6839 133.559 88.1213 134.121C87.5587 134.684 86.7956 135 86 135V137C86 137.53 86.2107 138.039 86.5858 138.414C86.9609 138.789 87.4696 139 88 139H104C104.53 139 105.039 138.789 105.414 138.414C105.789 138.039 106 137.53 106 137V135C105.204 135 104.441 134.684 103.879 134.121C103.316 133.559 103 132.796 103 132C103 131.204 103.316 130.441 103.879 129.879C104.441 129.316 105.204 129 106 129V127C106 126.47 105.789 125.961 105.414 125.586C105.039 125.211 104.53 125 104 125H88C87.4696 125 86.9609 125.211 86.5858 125.586C86.2107 125.961 86 126.47 86 127V129Z" stroke="black" stroke-width="2" stroke-linecap="round" stroke-linejoin="round"/>
<path id="Vector_114" d="M93 132H99" stroke="black" stroke-width="2" stroke-linecap="round" stroke-linejoin="round"/>
</g></svg>
