<svg viewBox="0 0 24 24" fill="none" xmlns="http://www.w3.org/2000/svg"><g transform="translate(-116 -120)">
<path id="Vector_115" d="M118 129C118.796 129 119.559 129.316 120.121 129.879C120.684 130.441 121 131.204 121 132C121 132.796 120.684 133.559 120.121 134.121C119.559 134.684 118.796 135 118 135V137C118 137.53 118.211 138.039 118.586 138.414C118.961 138.789 119.47 139 120 139H136C136.53 139 137.039 138.789 137.414 138.414C137.789 138.039 138 137.53 138 137V135C137.204 135 136.441 134.684 135.879 134.121C135.316 133.559 135 132.796 135 132C135 131.204 135.316 130.441 135.879 129.879C136.441 129.316 137.204 129 138 129V127C138 126.47 137.789 125.961 137.414 125.586C137.039 125.211 136.53 125 136 125H120C119.47 125 118.961 125.211 118.586 125.586C118.211 125.961 118 126.47 118 127V129Z" stroke="black" stroke-width="2" stroke-linecap="round" stroke-linejoin="round"/>
<path id="Vector_116" d="M125 129H125.01" stroke="black" stroke-width="2" stroke-linecap="round" stroke-linejoin="round"/>
<path id="Vector_117" d="M131 129L125 135" stroke="black" stroke-width="2" stroke-linecap="round" stroke-linejoin="round"/>
<path id="Vector_118" d="M131 135H131.01" stroke="black" stroke-width="2" stroke-linecap="round" stroke-linejoin="round"/>
</g></svg>
