<svg viewBox="0 0 24 24" fill="none" xmlns="http://www.w3.org/2000/svg"><g transform="translate(-20 -120)">
<path id="Vector_107" d="M22 129C22.7956 129 23.5587 129.316 24.1213 129.879C24.6839 130.441 25 131.204 25 132C25 132.796 24.6839 133.559 24.1213 134.121C23.5587 134.684 22.7956 135 22 135V137C22 137.53 22.2107 138.039 22.5858 138.414C22.9609 138.789 23.4696 139 24 139H40C40.5304 139 41.0391 138.789 41.4142 138.414C41.7893 138.039 42 137.53 42 137V135C41.2044 135 40.4413 134.684 39.8787 134.121C39.3161 133.559 39 132.796 39 132C39 131.204 39.3161 130.441 39.8787 129.879C40.4413 129.316 41.2044 129 42 129V127C42 126.47 41.7893 125.961 41.4142 125.586C41.0391 125.211 40.5304 125 40 125H24C23.4696 125 22.9609 125.211 22.5858 125.586C22.2107 125.961 22 126.47 22 127V129Z" stroke="black" stroke-width="2" stroke-linecap="round" stroke-linejoin="round"/>
<path id="Vector_108" d="M33 125V127" stroke="black" stroke-width="2" stroke-linecap="round" stroke-linejoin="round"/>
<path id="Vector_109" d="M33 137V139" stroke="black" stroke-width="2" stroke-linecap="round" stroke-linejoin="round"/>
<path id="Vector_110" d="M33 131V133" stroke="black" stroke-width="2" stroke-linecap="round" stroke-linejoin="round"/>
</g></svg>
