<svg viewBox="0 0 24 24" fill="none" xmlns="http://www.w3.org/2000/svg"><g transform="translate(-52 -120)">
<path id="Vector_111" d="M54 129C54.7956 129 55.5587 129.316 56.1213 129.879C56.6839 130.441 57 131.204 57 132C57 132.796 56.6839 133.559 56.1213 134.121C55.5587 134.684 54.7956 135 54 135V137C54 137.53 54.2107 138.039 54.5858 138.414C54.9609 138.789 55.4696 139 56 139H72C72.5304 139 73.0391 138.789 73.4142 138.414C73.7893 138.039 74 137.53 74 137V135C73.2044 135 72.4413 134.684 71.8787 134.121C71.3161 133.559 71 132.796 71 132C71 131.204 71.3161 130.441 71.8787 129.879C72.4413 129.316 73.2044 129 74 129V127C74 126.47 73.7893 125.961 73.4142 125.586C73.0391 125.211 72.5304 125 72 125H56C55.4696 125 54.9609 125.211 54.5858 125.586C54.2107 125.961 54 126.47 54 127V129Z" stroke="black" stroke-width="2" stroke-linecap="round" stroke-linejoin="round"/>
<path id="Vector_112" d="M61 132L63 134L67 130" stroke="black" stroke-width="2" stroke-linecap="round" stroke-linejoin="round"/>
</g></svg>
