<svg viewBox="0 0 24 24" fill="none" xmlns="http://www.w3.org/2000/svg"><g transform="translate(-148 -120)">
<path id="Vector_119" d="M150 129C150.796 129 151.559 129.316 152.121 129.879C152.684 130.441 153 131.204 153 132C153 132.796 152.684 133.559 152.121 134.121C151.559 134.684 150.796 135 150 135V137C150 137.53 150.211 138.039 150.586 138.414C150.961 138.789 151.47 139 152 139H168C168.53 139 169.039 138.789 169.414 138.414C169.789 138.039 170 137.53 170 137V135C169.204 135 168.441 134.684 167.879 134.121C167.316 133.559 167 132.796 167 132C167 131.204 167.316 130.441 167.879 129.879C168.441 129.316 169.204 129 170 129V127C170 126.47 169.789 125.961 169.414 125.586C169.039 125.211 168.53 125 168 125H152C151.47 125 150.961 125.211 150.586 125.586C150.211 125.961 150 126.47 150 127V129Z" stroke="black" stroke-width="2" stroke-linecap="round" stroke-linejoin="round"/>
<path id="Vector_120" d="M157 132H163" stroke="black" stroke-width="2" stroke-linecap="round" stroke-linejoin="round"/>
<path id="Vector_121" d="M160 129V135" stroke="black" stroke-width="2" stroke-linecap="round" stroke-linejoin="round"/>
</g></svg>
