<svg viewBox="0 0 24 24" fill="none" xmlns="http://www.w3.org/2000/svg"><g transform="translate(-84 -120)">
<path id="Vector_141" d="M88 132H88.01" stroke="black" stroke-width="2" stroke-linecap="round" stroke-linejoin="round"/>
<path id="Vector_142" d="M88 136H88.01" stroke="black" stroke-width="2" stroke-linecap="round" stroke-linejoin="round"/>
<path id="Vector_143" d="M88 140H88.01" stroke="black" stroke-width="2" stroke-linecap="round" stroke-linejoin="round"/>
<path id="Vector_144" d="M88 124H88.01" stroke="black" stroke-width="2" stroke-linecap="round" stroke-linejoin="round"/>
<path id="Vector_145" d="M88 128H88.01" stroke="black" stroke-width="2" stroke-linecap="round" stroke-linejoin="round"/>
<path id="Vector_146" d="M93.414 133.414C93.789 133.789 94.2976 134 94.828 134H103C103.265 134 103.52 133.895 103.707 133.707C103.895 133.52 104 133.265 104 133V131C104 130.735 103.895 130.48 103.707 130.293C103.52 130.105 103.265 130 103 130H94.828C94.2976 130 93.789 130.211 93.414 130.586L92 132L93.414 133.414Z" stroke="black" stroke-width="2" stroke-linecap="round" stroke-linejoin="round"/>
<path id="Vector_147" d="M93.414 141.414C93.789 141.789 94.2976 142 94.828 142H103C103.265 142 103.52 141.895 103.707 141.707C103.895 141.52 104 141.265 104 141V139C104 138.735 103.895 138.48 103.707 138.293C103.52 138.105 103.265 138 103 138H94.828C94.2976 138 93.789 138.211 93.414 138.586L92 140L93.414 141.414Z" stroke="black" stroke-width="2" stroke-linecap="round" stroke-linejoin="round"/>
<path id="Vector_148" d="M93.414 125.414C93.789 125.789 94.2976 126 94.828 126H103C103.265 126 103.52 125.895 103.707 125.707C103.895 125.52 104 125.265 104 125V123C104 122.735 103.895 122.48 103.707 122.293C103.52 122.105 103.265 122 103 122H94.828C94.2976 122 93.789 122.211 93.414 122.586L92 124L93.414 125.414Z" stroke="black" stroke-width="2" stroke-linecap="round" stroke-linejoin="round"/>
</g></svg>
