<svg viewBox="0 0 24 24" fill="none" xmlns="http://www.w3.org/2000/svg"><g transform="translate(-148 -184)">
<path id="Vector_246" d="M158 186H162" stroke="black" stroke-width="2" stroke-linecap="round" stroke-linejoin="round"/>
<path id="Vector_247" d="M160 198V194" stroke="black" stroke-width="2" stroke-linecap="round" stroke-linejoin="round"/>
<path id="Vector_248" d="M152 197C152.245 195.056 153.195 193.269 154.669 191.979C156.144 190.689 158.041 189.985 160 190C161.294 190.001 162.568 190.317 163.714 190.919C164.859 191.521 165.842 192.392 166.576 193.457C167.311 194.522 167.777 195.75 167.933 197.034C168.089 198.319 167.931 199.622 167.473 200.832C167.015 202.043 166.27 203.124 165.303 203.983C164.335 204.842 163.173 205.453 161.917 205.765C160.661 206.076 159.348 206.078 158.091 205.771C156.834 205.464 155.671 204.856 154.7 204L152 201.6" stroke="black" stroke-width="2" stroke-linecap="round" stroke-linejoin="round"/>
<path id="Vector_249" d="M157 201H152V206" stroke="black" stroke-width="2" stroke-linecap="round" stroke-linejoin="round"/>
</g></svg>
