<svg viewBox="0 0 24 24" fill="none" xmlns="http://www.w3.org/2000/svg"><g transform="translate(-116 -184)">
<path id="Vector_241" d="M126 186H130" stroke="black" stroke-width="2" stroke-linecap="round" stroke-linejoin="round"/>
<path id="Vector_242" d="M120.6 195C119.994 196.456 119.832 198.059 120.135 199.607C120.437 201.155 121.191 202.579 122.3 203.7C123.421 204.809 124.845 205.563 126.393 205.865C127.941 206.168 129.544 206.006 131 205.4" stroke="black" stroke-width="2" stroke-linecap="round" stroke-linejoin="round"/>
<path id="Vector_243" d="M123.4 191.4C124.957 190.32 126.848 189.827 128.734 190.01C130.62 190.193 132.38 191.04 133.7 192.4C135.019 193.727 135.832 195.474 135.996 197.337C136.16 199.201 135.667 201.063 134.6 202.6" stroke="black" stroke-width="2" stroke-linecap="round" stroke-linejoin="round"/>
<path id="Vector_244" d="M118 186L138 206" stroke="black" stroke-width="2" stroke-linecap="round" stroke-linejoin="round"/>
<path id="Vector_245" d="M128 196V194" stroke="black" stroke-width="2" stroke-linecap="round" stroke-linejoin="round"/>
</g></svg>
