<svg viewBox="0 0 24 24" fill="none" xmlns="http://www.w3.org/2000/svg"><g transform="translate(-20 -120)">
<path id="Vector_111" d="M27.0003 132H40.0003C40.2656 132 40.5199 132.105 40.7075 132.293C40.895 132.48 41.0003 132.735 41.0003 133C41.0003 134.326 40.4736 135.598 39.5359 136.536C38.5982 137.473 37.3264 138 36.0003 138H35.4023C35.3131 138 35.2255 138.024 35.1486 138.069C35.0717 138.114 35.0083 138.18 34.965 138.258C34.9218 138.336 34.9002 138.424 34.9025 138.513C34.9049 138.602 34.931 138.689 34.9783 138.765L36.5223 141.235C36.5696 141.311 36.5958 141.398 36.5982 141.487C36.6005 141.576 36.5789 141.664 36.5357 141.742C36.4924 141.82 36.429 141.886 36.3521 141.931C36.2752 141.976 36.1876 142 36.0983 142H25.4023C25.3131 142 25.2255 141.976 25.1486 141.931C25.0717 141.886 25.0083 141.82 24.965 141.742C24.9218 141.664 24.9002 141.576 24.9025 141.487C24.9049 141.398 24.931 141.311 24.9783 141.235L27.0003 138" stroke="black" stroke-width="2" stroke-linecap="round" stroke-linejoin="round"/>
<path id="Vector_112" d="M28 138C26.6739 138 25.4021 137.473 24.4645 136.536C23.5268 135.598 23 134.326 23 133V124C23 123.47 23.2107 122.961 23.5858 122.586C23.9609 122.211 24.4696 122 25 122H33C33.5304 122 34.0391 122.211 34.4142 122.586C34.7893 122.961 35 123.47 35 124V132" stroke="black" stroke-width="2" stroke-linecap="round" stroke-linejoin="round"/>
</g></svg>
