<svg viewBox="0 0 24 24" fill="none" xmlns="http://www.w3.org/2000/svg"><g transform="translate(-52 -120)">
<path id="Vector_135" d="M68 132V136" stroke="black" stroke-width="2" stroke-linecap="round" stroke-linejoin="round"/>
<path id="Vector_136" d="M68 126C68.5304 126 69.039 126.211 69.414 126.586L73.414 130.586C73.7891 130.961 73.9999 131.47 74 132V139C74 139.53 73.7893 140.039 73.4142 140.414C73.0391 140.789 72.5304 141 72 141H56C55.4696 141 54.9609 140.789 54.5858 140.414C54.2107 140.039 54 139.53 54 139V132C54.0001 131.47 54.2109 130.961 54.586 130.586L58.586 126.586C58.961 126.211 59.4696 126 60 126H68Z" stroke="black" stroke-width="2" stroke-linecap="round" stroke-linejoin="round"/>
<path id="Vector_137" d="M68 126V124C68 123.47 67.7893 122.961 67.4142 122.586C67.0391 122.211 66.5304 122 66 122H62C61.4696 122 60.9609 122.211 60.5858 122.586C60.2107 122.961 60 123.47 60 124V126" stroke="black" stroke-width="2" stroke-linecap="round" stroke-linejoin="round"/>
<path id="Vector_138" d="M54 134H74" stroke="black" stroke-width="2" stroke-linecap="round" stroke-linejoin="round"/>
<path id="Vector_139" d="M60 132V136" stroke="black" stroke-width="2" stroke-linecap="round" stroke-linejoin="round"/>
</g></svg>
