<svg viewBox="0 0 24 24" fill="none" xmlns="http://www.w3.org/2000/svg"><g transform="translate(-84 -120)">
<path id="Vector_140" d="M94 135H98" stroke="black" stroke-width="2" stroke-linecap="round" stroke-linejoin="round"/>
<path id="Vector_141" d="M98.8166 130.995L97.8456 129.545L98.8796 128.313C99.1576 127.989 99.325 127.586 99.3572 127.16C99.3894 126.735 99.2847 126.31 99.0586 125.949C98.8324 125.587 98.4966 125.307 98.1 125.15C97.7035 124.993 97.2671 124.967 96.8546 125.075L95.0346 125.439L93.9096 123.885C93.688 123.556 93.3735 123.3 93.0061 123.15C92.6386 123 92.2348 122.963 91.8462 123.043C91.4575 123.123 91.1015 123.317 90.8234 123.6C90.5453 123.883 90.3578 124.243 90.2846 124.633L90.1406 126.55L88.4156 126.976C88.0227 127.096 87.6763 127.335 87.4236 127.659C87.171 127.983 87.0243 128.377 87.0035 128.787C86.9828 129.198 87.0889 129.605 87.3076 129.953C87.5263 130.301 87.8468 130.573 88.2256 130.732L88.8826 131.002" stroke="black" stroke-width="2" stroke-linecap="round" stroke-linejoin="round"/>
<path id="Vector_142" d="M102.822 130.995L105.082 125.615C105.134 125.492 105.16 125.36 105.16 125.227C105.16 125.093 105.133 124.961 105.081 124.839C105.029 124.716 104.953 124.605 104.858 124.512C104.762 124.419 104.649 124.346 104.525 124.297L100.954 122.9C100.713 122.806 100.445 122.809 100.206 122.908C99.9672 123.008 99.7761 123.196 99.673 123.433L98.749 125.555" stroke="black" stroke-width="2" stroke-linecap="round" stroke-linejoin="round"/>
<path id="Vector_143" d="M88 132.006C87.9992 131.875 88.0243 131.744 88.0738 131.623C88.1234 131.501 88.1964 131.391 88.2887 131.297C88.381 131.204 88.4908 131.129 88.6118 131.078C88.7328 131.027 88.8627 131.001 88.994 131H103C103.265 131 103.52 131.105 103.707 131.293C103.895 131.48 104 131.735 104 132V139C104 139.53 103.789 140.039 103.414 140.414C103.039 140.789 102.53 141 102 141H90C89.4696 141 88.9609 140.789 88.5858 140.414C88.2107 140.039 88 139.53 88 139V132.006Z" stroke="black" stroke-width="2" stroke-linecap="round" stroke-linejoin="round"/>
</g></svg>
