<svg viewBox="0 0 24 24" fill="none" xmlns="http://www.w3.org/2000/svg"><g transform="translate(-52 -120)">
<path id="Vector_113" d="M74 127H72" stroke="black" stroke-width="2" stroke-linecap="round" stroke-linejoin="round"/>
<path id="Vector_114" d="M58.5 123H69.5C70.163 123 70.7989 123.263 71.2678 123.732C71.7366 124.201 72 124.837 72 125.5V140C72 140.265 71.8946 140.52 71.7071 140.707C71.5196 140.895 71.2652 141 71 141H62C61.7348 141 61.4804 140.895 61.2929 140.707C61.1054 140.52 61 140.265 61 140V125.5C61 124.837 60.7366 124.201 60.2678 123.732C59.7989 123.263 59.163 123 58.5 123ZM58.5 123C57.837 123 57.2011 123.263 56.7322 123.732C56.2634 124.201 56 124.837 56 125.5V137C56 137.265 56.1054 137.52 56.2929 137.707C56.4804 137.895 56.7348 138 57 138H61" stroke="black" stroke-width="2" stroke-linecap="round" stroke-linejoin="round"/>
<path id="Vector_115" d="M61 127H54" stroke="black" stroke-width="2" stroke-linecap="round" stroke-linejoin="round"/>
</g></svg>
