<svg viewBox="0 0 24 24" fill="none" xmlns="http://www.w3.org/2000/svg"><g transform="translate(-212 -152)">
<path id="Vector_184" d="M232 160H216C215.448 160 215 160.448 215 161V171C215 171.552 215.448 172 216 172H232C232.552 172 233 171.552 233 171V161C233 160.448 232.552 160 232 160Z" stroke="black" stroke-width="2" stroke-linecap="round" stroke-linejoin="round"/>
<path id="Vector_185" d="M222 160V157C222 156.4 221.6 156 221 156H218C217.735 156 217.48 156.105 217.293 156.293C217.105 156.48 217 156.735 217 157V160" stroke="black" stroke-width="2" stroke-linecap="round" stroke-linejoin="round"/>
<path id="Vector_186" d="M231 160V157C231 156.4 230.6 156 230 156H227C226.735 156 226.48 156.105 226.293 156.293C226.105 156.48 226 156.735 226 157V160" stroke="black" stroke-width="2" stroke-linecap="round" stroke-linejoin="round"/>
</g></svg>
