<svg viewBox="0 0 24 24" fill="none" xmlns="http://www.w3.org/2000/svg"><g transform="translate(-180 -120)">
<path id="Vector_152" d="M190 131L201 131.9C201.247 131.949 201.467 132.089 201.616 132.293C201.764 132.497 201.83 132.75 201.8 133L201.135 137.158C201.097 137.393 200.977 137.607 200.796 137.761C200.615 137.915 200.385 138 200.147 138H200" stroke="black" stroke-width="2" stroke-linecap="round" stroke-linejoin="round"/>
<path id="Vector_153" d="M196 138H191" stroke="black" stroke-width="2" stroke-linecap="round" stroke-linejoin="round"/>
<path id="Vector_154" d="M198 125C197.735 125 197.48 125.105 197.293 125.293C197.105 125.48 197 125.735 197 126V131.573" stroke="black" stroke-width="2" stroke-linecap="round" stroke-linejoin="round"/>
<path id="Vector_155" d="M183 124H191.129C191.37 124 191.604 124.088 191.786 124.246C191.967 124.405 192.086 124.624 192.119 124.863L193 131.246" stroke="black" stroke-width="2" stroke-linecap="round" stroke-linejoin="round"/>
<path id="Vector_156" d="M184 131V124" stroke="black" stroke-width="2" stroke-linecap="round" stroke-linejoin="round"/>
<path id="Vector_157" d="M187 135H187.01" stroke="black" stroke-width="2" stroke-linecap="round" stroke-linejoin="round"/>
<path id="Vector_158" d="M188 130.1V124" stroke="black" stroke-width="2" stroke-linecap="round" stroke-linejoin="round"/>
<path id="Vector_159" d="M198 140C199.105 140 200 139.105 200 138C200 136.895 199.105 136 198 136C196.895 136 196 136.895 196 138C196 139.105 196.895 140 198 140Z" stroke="black" stroke-width="2" stroke-linecap="round" stroke-linejoin="round"/>
<path id="Vector_160" d="M187 140C189.761 140 192 137.761 192 135C192 132.239 189.761 130 187 130C184.239 130 182 132.239 182 135C182 137.761 184.239 140 187 140Z" stroke="black" stroke-width="2" stroke-linecap="round" stroke-linejoin="round"/>
</g></svg>
