<svg viewBox="0 0 24 24" fill="none" xmlns="http://www.w3.org/2000/svg"><g transform="translate(-212 -120)">
<path id="Vector_161" d="M228.05 130.966C227.587 131.286 226.978 131.547 226.274 131.726C225.57 131.906 224.791 132 224 132C223.21 132 222.431 131.906 221.727 131.726C221.023 131.547 220.414 131.286 219.95 130.966" stroke="black" stroke-width="2" stroke-linecap="round" stroke-linejoin="round"/>
<path id="Vector_162" d="M228.923 134.049L233.403 136.089C233.58 136.167 233.732 136.295 233.838 136.458C233.944 136.62 234.001 136.81 234.001 137.004C234.001 137.198 233.944 137.388 233.838 137.551C233.732 137.714 233.581 137.842 233.404 137.92L224.83 141.82C224.569 141.939 224.286 142 224 142C223.713 142 223.43 141.939 223.17 141.82L214.596 137.91C214.418 137.832 214.267 137.704 214.161 137.541C214.055 137.379 213.999 137.189 213.999 136.995C213.999 136.801 214.055 136.611 214.161 136.449C214.267 136.286 214.418 136.158 214.596 136.08L219.08 134.04" stroke="black" stroke-width="2" stroke-linecap="round" stroke-linejoin="round"/>
<path id="Vector_163" d="M228.949 134.14C229.05 134.495 228.998 134.856 228.795 135.199C228.593 135.543 228.245 135.861 227.776 136.131C227.306 136.402 226.726 136.618 226.075 136.767C225.423 136.916 224.715 136.993 223.999 136.993C223.283 136.993 222.575 136.916 221.923 136.767C221.272 136.618 220.692 136.402 220.222 136.131C219.753 135.861 219.405 135.543 219.203 135.199C219 134.856 218.948 134.495 219.049 134.14L222.063 123.5C222.174 123.07 222.424 122.689 222.774 122.418C223.125 122.146 223.556 121.998 224 121.998C224.444 121.998 224.875 122.146 225.226 122.418C225.576 122.689 225.827 123.07 225.937 123.5L228.949 134.14Z" stroke="black" stroke-width="2" stroke-linecap="round" stroke-linejoin="round"/>
<path id="Vector_164" d="M221.194 126.57C222.022 126.85 222.999 127 223.999 127C224.999 127 225.976 126.85 226.804 126.57" stroke="black" stroke-width="2" stroke-linecap="round" stroke-linejoin="round"/>
</g></svg>
