<svg viewBox="0 0 24 24" fill="none" xmlns="http://www.w3.org/2000/svg"><g transform="translate(-276 -120)">
<path id="Vector_171" d="M278 142V132C278 129.348 279.054 126.804 280.929 124.929C282.804 123.054 285.348 122 288 122C290.652 122 293.196 123.054 295.071 124.929C296.946 126.804 298 129.348 298 132V142" stroke="black" stroke-width="2" stroke-linecap="round" stroke-linejoin="round"/>
<path id="Vector_172" d="M291 126.8V128.2C291 128.943 290.684 129.655 290.121 130.18C289.559 130.705 288.796 131 288 131C287.204 131 286.441 130.705 285.879 130.18C285.316 129.655 285 128.943 285 128.2V126.8" stroke="black" stroke-width="2" stroke-linecap="round" stroke-linejoin="round"/>
<path id="Vector_173" d="M286 135H286.01" stroke="black" stroke-width="2" stroke-linecap="round" stroke-linejoin="round"/>
<path id="Vector_174" d="M290 135H290.01" stroke="black" stroke-width="2" stroke-linecap="round" stroke-linejoin="round"/>
<path id="Vector_175" d="M286 139C284.939 139 283.922 138.579 283.172 137.828C282.421 137.078 282 136.061 282 135V132C282 130.409 282.632 128.883 283.757 127.757C284.883 126.632 286.409 126 288 126C289.591 126 291.117 126.632 292.243 127.757C293.368 128.883 294 130.409 294 132V135C294 136.061 293.579 137.078 292.828 137.828C292.078 138.579 291.061 139 290 139H286Z" stroke="black" stroke-width="2" stroke-linecap="round" stroke-linejoin="round"/>
<path id="Vector_176" d="M285 139L283 142" stroke="black" stroke-width="2" stroke-linecap="round" stroke-linejoin="round"/>
<path id="Vector_177" d="M291 139L293 142" stroke="black" stroke-width="2" stroke-linecap="round" stroke-linejoin="round"/>
</g></svg>
