<svg viewBox="0 0 24 24" fill="none" xmlns="http://www.w3.org/2000/svg"><g transform="translate(-244 -120)">
<path id="Vector_165" d="M252 123.1V127C252 128.061 252.421 129.078 253.172 129.828C253.922 130.579 254.939 131 256 131C257.061 131 258.078 130.579 258.828 129.828C259.579 129.078 260 128.061 260 127V123.1" stroke="black" stroke-width="2" stroke-linecap="round" stroke-linejoin="round"/>
<path id="Vector_166" d="M253 135L252 134" stroke="black" stroke-width="2" stroke-linecap="round" stroke-linejoin="round"/>
<path id="Vector_167" d="M259 135L260 134" stroke="black" stroke-width="2" stroke-linecap="round" stroke-linejoin="round"/>
<path id="Vector_168" d="M253 139C250.2 139 248 136.8 248 134V130C248 127.878 248.843 125.843 250.343 124.343C251.843 122.843 253.878 122 256 122C258.122 122 260.157 122.843 261.657 124.343C263.157 125.843 264 127.878 264 130V134C264 136.8 261.8 139 259 139H253Z" stroke="black" stroke-width="2" stroke-linecap="round" stroke-linejoin="round"/>
<path id="Vector_169" d="M252 139L250 142" stroke="black" stroke-width="2" stroke-linecap="round" stroke-linejoin="round"/>
<path id="Vector_170" d="M260 139L262 142" stroke="black" stroke-width="2" stroke-linecap="round" stroke-linejoin="round"/>
</g></svg>
