<svg viewBox="0 0 24 24" fill="none" xmlns="http://www.w3.org/2000/svg"><g transform="translate(-340 -344)">
<path id="Vector_499" d="M359 350V364C359 364.53 358.789 365.039 358.414 365.414C358.039 365.789 357.53 366 357 366H347C346.47 366 345.961 365.789 345.586 365.414C345.211 365.039 345 364.53 345 364V350" stroke="black" stroke-width="2" stroke-linecap="round" stroke-linejoin="round"/>
<path id="Vector_500" d="M343 350H361" stroke="black" stroke-width="2" stroke-linecap="round" stroke-linejoin="round"/>
<path id="Vector_501" d="M348 350V348C348 347.47 348.211 346.961 348.586 346.586C348.961 346.211 349.47 346 350 346H354C354.53 346 355.039 346.211 355.414 346.586C355.789 346.961 356 347.47 356 348V350" stroke="black" stroke-width="2" stroke-linecap="round" stroke-linejoin="round"/>
</g></svg>
