<svg viewBox="0 0 24 24" fill="none" xmlns="http://www.w3.org/2000/svg"><g transform="translate(-372 -344)">
<path id="Vector_502" d="M382 355V361" stroke="black" stroke-width="2" stroke-linecap="round" stroke-linejoin="round"/>
<path id="Vector_503" d="M386 355V361" stroke="black" stroke-width="2" stroke-linecap="round" stroke-linejoin="round"/>
<path id="Vector_504" d="M391 350V364C391 364.53 390.789 365.039 390.414 365.414C390.039 365.789 389.53 366 389 366H379C378.47 366 377.961 365.789 377.586 365.414C377.211 365.039 377 364.53 377 364V350" stroke="black" stroke-width="2" stroke-linecap="round" stroke-linejoin="round"/>
<path id="Vector_505" d="M375 350H393" stroke="black" stroke-width="2" stroke-linecap="round" stroke-linejoin="round"/>
<path id="Vector_506" d="M380 350V348C380 347.47 380.211 346.961 380.586 346.586C380.961 346.211 381.47 346 382 346H386C386.53 346 387.039 346.211 387.414 346.586C387.789 346.961 388 347.47 388 348V350" stroke="black" stroke-width="2" stroke-linecap="round" stroke-linejoin="round"/>
</g></svg>
