<svg viewBox="0 0 24 24" fill="none" xmlns="http://www.w3.org/2000/svg"><g transform="translate(-372 -184)">
<path id="Vector_262" d="M382 194V194.2C382.655 194.452 383.202 194.927 383.544 195.54C383.886 196.154 384.001 196.869 383.87 197.559C383.739 198.249 383.37 198.872 382.827 199.318C382.284 199.764 381.602 200.005 380.9 200H377C376.305 199.983 375.639 199.725 375.113 199.271C374.588 198.817 374.236 198.195 374.118 197.511C374 196.826 374.123 196.122 374.466 195.518C374.809 194.915 375.351 194.449 376 194.2V194C376 193.204 376.316 192.441 376.878 191.879C377.441 191.316 378.204 191 379 191C379.795 191 380.558 191.316 381.121 191.879C381.684 192.441 382 193.204 382 194Z" stroke="black" stroke-width="2" stroke-linecap="round" stroke-linejoin="round"/>
<path id="Vector_263" d="M379 200V206" stroke="black" stroke-width="2" stroke-linecap="round" stroke-linejoin="round"/>
<path id="Vector_264" d="M385 203V206" stroke="black" stroke-width="2" stroke-linecap="round" stroke-linejoin="round"/>
<path id="Vector_265" d="M384 203H392.3C392.495 202.997 392.686 202.937 392.848 202.827C393.01 202.717 393.136 202.562 393.21 202.381C393.285 202.2 393.305 202.001 393.267 201.809C393.23 201.617 393.137 201.44 393 201.3L390 198H390.3C390.495 197.997 390.686 197.937 390.848 197.827C391.01 197.717 391.136 197.562 391.21 197.381C391.285 197.2 391.305 197.001 391.267 196.809C391.23 196.617 391.137 196.44 391 196.3L388 193H388.2C388.404 193.018 388.609 192.974 388.787 192.872C388.965 192.77 389.107 192.615 389.194 192.43C389.282 192.244 389.31 192.036 389.275 191.834C389.24 191.632 389.144 191.446 389 191.3L385 187L383.6 188.5" stroke="black" stroke-width="2" stroke-linecap="round" stroke-linejoin="round"/>
</g></svg>
