<svg viewBox="0 0 24 24" fill="none" xmlns="http://www.w3.org/2000/svg"><g transform="translate(-308 -184)">
<path id="Vector_256" d="M321 192C321 189.24 318.54 187 315.5 187C312.46 187 310 189.24 310 192H312L313 191L314 192H318" stroke="black" stroke-width="2" stroke-linecap="round" stroke-linejoin="round"/>
<path id="Vector_257" d="M321 191.14C322.013 190.391 323.241 189.991 324.5 190C327.54 190 330 192.24 330 195H327L326 194L325 195H322" stroke="black" stroke-width="2" stroke-linecap="round" stroke-linejoin="round"/>
<path id="Vector_258" d="M313.54 201.14C311.59 199.18 311.74 195.86 313.89 193.71C316.04 191.56 319.36 191.4 321.31 193.36L319.19 195.48L318.48 196.19L317.78 196.89L313.54 201.14Z" stroke="black" stroke-width="2" stroke-linecap="round" stroke-linejoin="round"/>
<path id="Vector_259" d="M319 199.5C319.5 202 318.83 204 318 206H322C324 200.5 321.5 194 321 192" stroke="black" stroke-width="2" stroke-linecap="round" stroke-linejoin="round"/>
</g></svg>
