<svg viewBox="0 0 24 24" fill="none" xmlns="http://www.w3.org/2000/svg"><g transform="translate(-340 -184)">
<path id="Vector_260" d="M357 198L360 201.3C360.137 201.44 360.23 201.617 360.267 201.809C360.305 202.001 360.285 202.2 360.21 202.381C360.136 202.562 360.01 202.717 359.848 202.827C359.686 202.937 359.496 202.997 359.3 203H344.7C344.504 202.997 344.313 202.937 344.152 202.827C343.99 202.717 343.864 202.562 343.789 202.381C343.715 202.2 343.695 202.001 343.732 201.809C343.77 201.617 343.863 201.44 344 201.3L347 198H346.7C346.504 197.997 346.313 197.937 346.152 197.827C345.99 197.717 345.864 197.562 345.789 197.381C345.715 197.2 345.695 197.001 345.732 196.809C345.77 196.617 345.863 196.44 346 196.3L349 193H348.8C348.596 193.018 348.391 192.974 348.213 192.872C348.035 192.77 347.892 192.615 347.805 192.43C347.718 192.244 347.69 192.036 347.724 191.834C347.759 191.632 347.855 191.446 348 191.3L352 187L356 191.3C356.144 191.446 356.24 191.632 356.275 191.834C356.31 192.036 356.282 192.244 356.194 192.43C356.107 192.615 355.965 192.77 355.787 192.872C355.609 192.974 355.404 193.018 355.2 193H355L358 196.3C358.137 196.44 358.23 196.617 358.267 196.809C358.305 197.001 358.285 197.2 358.21 197.381C358.136 197.562 358.01 197.717 357.848 197.827C357.686 197.937 357.496 197.997 357.3 198H357Z" stroke="black" stroke-width="2" stroke-linecap="round" stroke-linejoin="round"/>
<path id="Vector_261" d="M352 206V203" stroke="black" stroke-width="2" stroke-linecap="round" stroke-linejoin="round"/>
</g></svg>
