<svg viewBox="0 0 24 24" fill="none" xmlns="http://www.w3.org/2000/svg"><g transform="translate(-276 -184)">
<path id="Vector_254" d="M284 203C283.142 203.002 282.306 202.728 281.616 202.218C280.926 201.709 280.417 200.991 280.166 200.17C279.915 199.35 279.935 198.471 280.222 197.662C280.509 196.853 281.048 196.159 281.76 195.68C281.321 195.131 281.057 194.463 281.003 193.763C280.949 193.062 281.107 192.361 281.457 191.752C281.806 191.142 282.331 190.652 282.963 190.345C283.595 190.038 284.305 189.928 285 190.03V190C285 189.204 285.316 188.441 285.879 187.879C286.441 187.316 287.205 187 288 187C288.796 187 289.559 187.316 290.121 187.879C290.684 188.441 291 189.204 291 190V190.04C291.695 189.938 292.405 190.048 293.037 190.355C293.669 190.662 294.194 191.152 294.544 191.762C294.893 192.371 295.051 193.072 294.997 193.773C294.943 194.473 294.679 195.141 294.24 195.69C294.948 196.17 295.483 196.865 295.767 197.671C296.051 198.478 296.069 199.354 295.819 200.172C295.568 200.99 295.062 201.705 294.375 202.214C293.688 202.723 292.855 202.999 292 203H284Z" stroke="black" stroke-width="2" stroke-linecap="round" stroke-linejoin="round"/>
<path id="Vector_255" d="M288 203V206" stroke="black" stroke-width="2" stroke-linecap="round" stroke-linejoin="round"/>
</g></svg>
