<svg viewBox="0 0 24 24" fill="none" xmlns="http://www.w3.org/2000/svg"><g transform="translate(-308 -408)">
<path id="Vector_472" d="M329.73 426L321.73 412C321.556 411.692 321.303 411.436 320.997 411.258C320.692 411.08 320.344 410.986 319.99 410.986C319.637 410.986 319.289 411.08 318.983 411.258C318.678 411.436 318.425 411.692 318.25 412L310.25 426C310.074 426.305 309.982 426.652 309.982 427.004C309.983 427.357 310.077 427.703 310.255 428.008C310.433 428.312 310.688 428.565 310.994 428.739C311.301 428.913 311.648 429.003 312 429H328C328.351 429 328.696 428.907 329 428.731C329.303 428.556 329.556 428.303 329.731 427.999C329.906 427.695 329.998 427.35 329.998 426.999C329.998 426.649 329.906 426.304 329.73 426Z" stroke="black" stroke-width="2" stroke-linecap="round" stroke-linejoin="round"/>
<path id="Vector_473" d="M320 417V421" stroke="black" stroke-width="2" stroke-linecap="round" stroke-linejoin="round"/>
<path id="Vector_474" d="M320 425H320.01" stroke="black" stroke-width="2" stroke-linecap="round" stroke-linejoin="round"/>
</g></svg>
