<svg viewBox="0 0 24 24" fill="none" xmlns="http://www.w3.org/2000/svg"><g transform="translate(-340 -408)">
<path id="Vector_475" d="M350.17 412.193C350.327 411.837 350.584 411.534 350.911 411.322C351.237 411.11 351.618 410.998 352.007 411C352.396 411.001 352.777 411.116 353.101 411.33C353.426 411.544 353.682 411.849 353.836 412.206" stroke="black" stroke-width="2" stroke-linecap="round" stroke-linejoin="round"/>
<path id="Vector_476" d="M354 429H356" stroke="black" stroke-width="2" stroke-linecap="round" stroke-linejoin="round"/>
<path id="Vector_477" d="M355.874 415.743L356.874 417.475" stroke="black" stroke-width="2" stroke-linecap="round" stroke-linejoin="round"/>
<path id="Vector_478" d="M358.849 420.952L359.849 422.684" stroke="black" stroke-width="2" stroke-linecap="round" stroke-linejoin="round"/>
<path id="Vector_479" d="M361.824 426.18C361.962 426.486 362.022 426.821 361.996 427.156C361.971 427.49 361.862 427.813 361.679 428.094C361.496 428.375 361.246 428.606 360.95 428.765C360.655 428.924 360.325 429.006 359.989 429.004" stroke="black" stroke-width="2" stroke-linecap="round" stroke-linejoin="round"/>
<path id="Vector_480" d="M344.024 429C343.686 429.004 343.353 428.922 343.055 428.763C342.757 428.603 342.505 428.371 342.321 428.087C342.138 427.804 342.029 427.479 342.005 427.142C341.981 426.805 342.043 426.468 342.185 426.161" stroke="black" stroke-width="2" stroke-linecap="round" stroke-linejoin="round"/>
<path id="Vector_481" d="M345.136 420.952L344.136 422.684" stroke="black" stroke-width="2" stroke-linecap="round" stroke-linejoin="round"/>
<path id="Vector_482" d="M348 429H350" stroke="black" stroke-width="2" stroke-linecap="round" stroke-linejoin="round"/>
<path id="Vector_483" d="M348.102 415.743L347.102 417.475" stroke="black" stroke-width="2" stroke-linecap="round" stroke-linejoin="round"/>
</g></svg>
