<svg viewBox="0 0 24 24" fill="none" xmlns="http://www.w3.org/2000/svg"><g transform="translate(-276 -408)">
<path id="Vector_471" d="M289.73 412C289.554 411.697 289.302 411.445 288.998 411.27C288.695 411.096 288.35 411.004 288 411.004C287.65 411.004 287.305 411.096 287.002 411.27C286.698 411.445 286.446 411.697 286.27 412L278.27 426C278.094 426.304 278.002 426.649 278.002 426.999C278.002 427.35 278.094 427.695 278.269 427.999C278.445 428.303 278.697 428.556 279.001 428.731C279.304 428.907 279.649 429 280 429H296C296.351 429 296.695 428.907 296.999 428.731C297.303 428.556 297.555 428.303 297.73 427.999C297.906 427.695 297.998 427.35 297.998 426.999C297.998 426.649 297.905 426.304 297.73 426L289.73 412Z" stroke="black" stroke-width="2" stroke-linecap="round" stroke-linejoin="round"/>
</g></svg>
