<svg viewBox="0 0 24 24" fill="none" xmlns="http://www.w3.org/2000/svg"><g transform="translate(-20 -152)">
<path id="Vector_197" d="M34 171V159C34 158.47 33.7893 157.961 33.4142 157.586C33.0391 157.211 32.5304 157 32 157H29" stroke="black" stroke-width="2" stroke-linecap="round" stroke-linejoin="round"/>
<path id="Vector_198" d="M35 171H29" stroke="black" stroke-width="2" stroke-linecap="round" stroke-linejoin="round"/>
<path id="Vector_199" d="M39 171H41C41.2652 171 41.5196 170.895 41.7071 170.707C41.8946 170.52 42 170.265 42 170V166.35C41.9987 166.124 41.9212 165.906 41.78 165.73L38.3 161.38C38.2069 161.262 38.0884 161.167 37.9534 161.101C37.8183 161.035 37.6702 161.001 37.52 161H34" stroke="black" stroke-width="2" stroke-linecap="round" stroke-linejoin="round"/>
<path id="Vector_200" d="M22 165V170C22 170.265 22.1054 170.52 22.2929 170.707C22.4804 170.895 22.7348 171 23 171H25" stroke="black" stroke-width="2" stroke-linecap="round" stroke-linejoin="round"/>
<path id="Vector_201" d="M24.0002 155L22.1502 157.15C22.0755 157.218 22.0236 157.308 22.0014 157.406C21.9791 157.505 21.9876 157.608 22.0258 157.702C22.0639 157.796 22.1298 157.875 22.2146 157.93C22.2994 157.985 22.3991 158.013 22.5002 158.01H24.6502C24.7592 157.984 24.8737 157.999 24.9731 158.05C25.0726 158.102 25.1504 158.187 25.1926 158.29C25.2348 158.394 25.2386 158.509 25.2033 158.616C25.168 158.722 25.096 158.812 25.0002 158.87L23.0002 161.02" stroke="black" stroke-width="2" stroke-linecap="round" stroke-linejoin="round"/>
<path id="Vector_202" d="M37 173C38.1046 173 39 172.105 39 171C39 169.895 38.1046 169 37 169C35.8954 169 35 169.895 35 171C35 172.105 35.8954 173 37 173Z" stroke="black" stroke-width="2" stroke-linecap="round" stroke-linejoin="round"/>
<path id="Vector_203" d="M27 173C28.1046 173 29 172.105 29 171C29 169.895 28.1046 169 27 169C25.8954 169 25 169.895 25 171C25 172.105 25.8954 173 27 173Z" stroke="black" stroke-width="2" stroke-linecap="round" stroke-linejoin="round"/>
</g></svg>
