<svg viewBox="0 0 24 24" fill="none" xmlns="http://www.w3.org/2000/svg"><g transform="translate(-372 -120)">
<path id="Vector_192" d="M386 138V126C386 125.47 385.789 124.961 385.414 124.586C385.039 124.211 384.53 124 384 124H376C375.47 124 374.961 124.211 374.586 124.586C374.211 124.961 374 125.47 374 126V137C374 137.265 374.105 137.52 374.293 137.707C374.48 137.895 374.735 138 375 138H377" stroke="black" stroke-width="2" stroke-linecap="round" stroke-linejoin="round"/>
<path id="Vector_193" d="M387 138H381" stroke="black" stroke-width="2" stroke-linecap="round" stroke-linejoin="round"/>
<path id="Vector_194" d="M391 138H393C393.265 138 393.52 137.895 393.707 137.707C393.895 137.52 394 137.265 394 137V133.35C394 133.123 393.922 132.903 393.78 132.726L390.3 128.376C390.206 128.259 390.088 128.164 389.953 128.099C389.818 128.034 389.67 128 389.52 128H386" stroke="black" stroke-width="2" stroke-linecap="round" stroke-linejoin="round"/>
<path id="Vector_195" d="M389 140C390.105 140 391 139.105 391 138C391 136.895 390.105 136 389 136C387.895 136 387 136.895 387 138C387 139.105 387.895 140 389 140Z" stroke="black" stroke-width="2" stroke-linecap="round" stroke-linejoin="round"/>
<path id="Vector_196" d="M379 140C380.105 140 381 139.105 381 138C381 136.895 380.105 136 379 136C377.895 136 377 136.895 377 138C377 139.105 377.895 140 379 140Z" stroke="black" stroke-width="2" stroke-linecap="round" stroke-linejoin="round"/>
</g></svg>
