<svg viewBox="0 0 24 24" fill="none" xmlns="http://www.w3.org/2000/svg"><g transform="translate(-116 -216)">
<path id="Vector_242" d="M126 228.01H126.01" stroke="black" stroke-width="2" stroke-linecap="round" stroke-linejoin="round"/>
<path id="Vector_243" d="M134 224V228C134 229.404 133.631 230.784 132.93 232" stroke="black" stroke-width="2" stroke-linecap="round" stroke-linejoin="round"/>
<path id="Vector_244" d="M126 232C128.209 232 130 230.209 130 228C130 225.791 128.209 224 126 224C123.791 224 122 225.791 122 228C122 230.209 123.791 232 126 232Z" stroke="black" stroke-width="2" stroke-linecap="round" stroke-linejoin="round"/>
<path id="Vector_245" d="M136 220H120C118.895 220 118 220.895 118 222V234C118 235.105 118.895 236 120 236H136C137.105 236 138 235.105 138 234V222C138 220.895 137.105 220 136 220Z" stroke="black" stroke-width="2" stroke-linecap="round" stroke-linejoin="round"/>
</g></svg>
