<svg viewBox="0 0 24 24" fill="none" xmlns="http://www.w3.org/2000/svg"><g transform="translate(-372 -56)">
<path id="Vector_52" d="M384 66L386 70V73C386 73.2652 386.105 73.5196 386.293 73.7071C386.48 73.8946 386.735 74 387 74H389C389.265 74 389.52 73.8946 389.707 73.7071C389.895 73.5196 390 73.2652 390 73V70C390 67.8783 389.157 65.8434 387.657 64.3431C386.157 62.8429 384.122 62 382 62C379.878 62 377.843 62.8429 376.343 64.3431C374.843 65.8434 374 67.8783 374 70V73C374 73.2652 374.105 73.5196 374.293 73.7071C374.48 73.8946 374.735 74 375 74H377C377.265 74 377.52 73.8946 377.707 73.7071C377.895 73.5196 378 73.2652 378 73V70L380 66H384Z" stroke="black" stroke-width="2" stroke-linecap="round" stroke-linejoin="round"/>
<path id="Vector_53" d="M376.82 63.8999L380 65.9999" stroke="black" stroke-width="2" stroke-linecap="round" stroke-linejoin="round"/>
<path id="Vector_54" d="M387.18 63.8999L384 65.9999" stroke="black" stroke-width="2" stroke-linecap="round" stroke-linejoin="round"/>
<path id="Vector_55" d="M388.93 66H392C392.53 66 393.039 66.2107 393.414 66.5858C393.789 66.9609 394 67.4696 394 68C394 68.5304 393.789 69.0391 393.414 69.4142C393.039 69.7893 392.53 70 392 70H374" stroke="black" stroke-width="2" stroke-linecap="round" stroke-linejoin="round"/>
</g></svg>
