<svg viewBox="0 0 24 24" fill="none" xmlns="http://www.w3.org/2000/svg"><g transform="translate(-212 -216)">
<path id="Vector_250" d="M227.033 225.44C227.131 225.497 227.213 225.579 227.269 225.677C227.326 225.775 227.356 225.887 227.356 226C227.356 226.114 227.326 226.225 227.269 226.323C227.213 226.422 227.131 226.503 227.033 226.56L222.968 228.912C222.87 228.969 222.758 228.999 222.645 228.999C222.532 228.999 222.42 228.969 222.322 228.912C222.224 228.855 222.142 228.774 222.086 228.675C222.029 228.577 222 228.465 222 228.352V223.648C222 223.535 222.029 223.423 222.086 223.325C222.142 223.227 222.224 223.146 222.322 223.089C222.42 223.032 222.531 223.002 222.644 223.002C222.758 223.002 222.869 223.032 222.967 223.088L227.033 225.44Z" stroke="black" stroke-width="2" stroke-linecap="round" stroke-linejoin="round"/>
<path id="Vector_251" d="M219 237H229" stroke="black" stroke-width="2" stroke-linecap="round" stroke-linejoin="round"/>
<path id="Vector_252" d="M232 219H216C214.895 219 214 219.895 214 221V231C214 232.105 214.895 233 216 233H232C233.105 233 234 232.105 234 231V221C234 219.895 233.105 219 232 219Z" stroke="black" stroke-width="2" stroke-linecap="round" stroke-linejoin="round"/>
</g></svg>
