<svg viewBox="0 0 24 24" fill="none" xmlns="http://www.w3.org/2000/svg"><g transform="translate(-84 -152)">
<path id="Vector_143" d="M98 168.5C98 168.633 98.0527 168.76 98.1464 168.854C98.2402 168.947 98.3674 169 98.5 169H99C99.5304 169 100.039 169.211 100.414 169.586C100.789 169.961 101 170.47 101 171C101 171.53 100.789 172.039 100.414 172.414C100.039 172.789 99.5304 173 99 173H93C92.4696 173 91.9609 172.789 91.5858 172.414C91.2107 172.039 91 171.53 91 171C91 170.47 91.2107 169.961 91.5858 169.586C91.9609 169.211 92.4696 169 93 169H93.5C93.6326 169 93.7598 168.947 93.8536 168.854C93.9473 168.76 94 168.633 94 168.5V159.5C94 159.367 93.9473 159.24 93.8536 159.146C93.7598 159.053 93.6326 159 93.5 159H90.5C90.3674 159 90.2402 159.053 90.1464 159.146C90.0527 159.24 90 159.367 90 159.5V160C90 160.53 89.7893 161.039 89.4142 161.414C89.0391 161.789 88.5304 162 88 162C87.4696 162 86.9609 161.789 86.5858 161.414C86.2107 161.039 86 160.53 86 160V157C86 156.47 86.2107 155.961 86.5858 155.586C86.9609 155.211 87.4696 155 88 155H104C104.53 155 105.039 155.211 105.414 155.586C105.789 155.961 106 156.47 106 157V160C106 160.53 105.789 161.039 105.414 161.414C105.039 161.789 104.53 162 104 162C103.47 162 102.961 161.789 102.586 161.414C102.211 161.039 102 160.53 102 160V159.5C102 159.367 101.947 159.24 101.854 159.146C101.76 159.053 101.633 159 101.5 159H98.5C98.3674 159 98.2402 159.053 98.1464 159.146C98.0527 159.24 98 159.367 98 159.5V168.5Z" stroke="black" stroke-width="2" stroke-linecap="round" stroke-linejoin="round"/>
</g></svg>
