<svg viewBox="0 0 24 24" fill="none" xmlns="http://www.w3.org/2000/svg"><g transform="translate(-52 -216)">
<path id="Vector_269" d="M64 229V236C64 236.53 64.2107 237.039 64.5858 237.414C64.9609 237.789 65.4696 238 66 238C66.5304 238 67.0391 237.789 67.4142 237.414C67.7893 237.039 68 236.53 68 236" stroke="black" stroke-width="2" stroke-linecap="round" stroke-linejoin="round"/>
<path id="Vector_270" d="M64 218V220" stroke="black" stroke-width="2" stroke-linecap="round" stroke-linejoin="round"/>
<path id="Vector_271" d="M70.6556 229H72.9916C73.147 229.001 73.3006 228.966 73.4401 228.898C73.5797 228.83 73.7014 228.73 73.7955 228.606C73.8897 228.482 73.9537 228.338 73.9825 228.186C74.0114 228.033 74.0042 227.876 73.9616 227.726C73.3036 225.161 71.6815 222.949 69.4331 221.55C67.1847 220.151 64.4834 219.673 61.8916 220.216" stroke="black" stroke-width="2" stroke-linecap="round" stroke-linejoin="round"/>
<path id="Vector_272" d="M54 218L74 238" stroke="black" stroke-width="2" stroke-linecap="round" stroke-linejoin="round"/>
<path id="Vector_273" d="M57.9612 221.957C56.0215 223.364 54.6342 225.405 54.0392 227.726C53.9969 227.875 53.9896 228.031 54.0179 228.183C54.0463 228.335 54.1095 228.479 54.2026 228.602C54.2958 228.726 54.4163 228.826 54.5547 228.895C54.6931 228.964 54.8456 229 55.0002 229H65.0002" stroke="black" stroke-width="2" stroke-linecap="round" stroke-linejoin="round"/>
</g></svg>
