<svg viewBox="0 0 24 24" fill="none" xmlns="http://www.w3.org/2000/svg"><g transform="translate(-20 -216)">
<path id="Vector_266" d="M32 229V236C32 236.53 32.2107 237.039 32.5858 237.414C32.9609 237.789 33.4696 238 34 238C34.5304 238 35.0391 237.789 35.4142 237.414C35.7893 237.039 36 236.53 36 236" stroke="black" stroke-width="2" stroke-linecap="round" stroke-linejoin="round"/>
<path id="Vector_267" d="M32 218V220" stroke="black" stroke-width="2" stroke-linecap="round" stroke-linejoin="round"/>
<path id="Vector_268" d="M40.9922 229C41.1477 229.001 41.3012 228.966 41.4408 228.898C41.5803 228.83 41.702 228.73 41.7962 228.606C41.8903 228.482 41.9543 228.338 41.9832 228.186C42.012 228.033 42.0048 227.876 41.9622 227.726C41.3951 225.515 40.1084 223.555 38.3048 222.156C36.5013 220.757 34.2835 219.997 32.0007 219.997C29.718 219.997 27.5002 220.757 25.6967 222.156C23.8931 223.555 22.6064 225.515 22.0392 227.726C21.9969 227.875 21.9896 228.031 22.0179 228.183C22.0463 228.335 22.1095 228.479 22.2026 228.602C22.2958 228.726 22.4163 228.826 22.5547 228.895C22.6931 228.964 22.8456 229 23.0002 229H40.9922Z" stroke="black" stroke-width="2" stroke-linecap="round" stroke-linejoin="round"/>
</g></svg>
