<svg viewBox="0 0 24 24" fill="none" xmlns="http://www.w3.org/2000/svg"><g transform="translate(-84 -376)">
<path id="Vector_511" d="M105 393C104.998 391.263 104.494 389.564 103.549 388.108C102.603 386.651 101.256 385.499 99.6705 384.791C98.0848 384.082 96.3281 383.848 94.6121 384.116C92.8962 384.384 91.2944 385.142 90 386.3L87 389" stroke="black" stroke-width="2" stroke-linecap="round" stroke-linejoin="round"/>
<path id="Vector_512" d="M87 383V389H93" stroke="black" stroke-width="2" stroke-linecap="round" stroke-linejoin="round"/>
<path id="Vector_513" d="M96 394C96.5523 394 97 393.552 97 393C97 392.448 96.5523 392 96 392C95.4477 392 95 392.448 95 393C95 393.552 95.4477 394 96 394Z" stroke="black" stroke-width="2" stroke-linecap="round" stroke-linejoin="round"/>
</g></svg>
