<svg viewBox="0 0 24 24" fill="none" xmlns="http://www.w3.org/2000/svg"><g transform="translate(-52 -376)">
<path id="Vector_509" d="M61 390L56 385L61 380" stroke="black" stroke-width="2" stroke-linecap="round" stroke-linejoin="round"/>
<path id="Vector_510" d="M56 385H66.5C67.2223 385 67.9375 385.142 68.6048 385.419C69.272 385.695 69.8784 386.1 70.3891 386.611C70.8998 387.122 71.3049 387.728 71.5813 388.395C71.8577 389.063 72 389.778 72 390.5C72 391.222 71.8577 391.937 71.5813 392.605C71.3049 393.272 70.8998 393.878 70.3891 394.389C69.8784 394.9 69.272 395.305 68.6048 395.581C67.9375 395.858 67.2223 396 66.5 396H63" stroke="black" stroke-width="2" stroke-linecap="round" stroke-linejoin="round"/>
</g></svg>
