<svg viewBox="0 0 24 24" fill="none" xmlns="http://www.w3.org/2000/svg"><g transform="translate(-116 -216)">
<path id="Vector_264" d="M135 230H129C127.895 230 127 230.895 127 232V235C127 236.105 127.895 237 129 237H135C136.105 237 137 236.105 137 235V232C137 230.895 136.105 230 135 230Z" stroke="black" stroke-width="2" stroke-linecap="round" stroke-linejoin="round"/>
<path id="Vector_265" d="M127 219H121C119.895 219 119 219.895 119 221V224C119 225.105 119.895 226 121 226H127C128.105 226 129 225.105 129 224V221C129 219.895 128.105 219 127 219Z" stroke="black" stroke-width="2" stroke-linecap="round" stroke-linejoin="round"/>
</g></svg>
