<svg viewBox="0 0 24 24" fill="none" xmlns="http://www.w3.org/2000/svg"><g transform="translate(-52 -120)">
<path id="Vector_139" d="M66 141V138C66 137.47 65.7893 136.961 65.4142 136.586C65.0391 136.211 64.5304 136 64 136C63.4696 136 62.9609 136.211 62.5858 136.586C62.2107 136.961 62 137.47 62 138V141" stroke="black" stroke-width="2" stroke-linecap="round" stroke-linejoin="round"/>
<path id="Vector_140" d="M70 132H70.01" stroke="black" stroke-width="2" stroke-linecap="round" stroke-linejoin="round"/>
<path id="Vector_141" d="M70 136H70.01" stroke="black" stroke-width="2" stroke-linecap="round" stroke-linejoin="round"/>
<path id="Vector_142" d="M74 127C74 126.735 73.8946 126.48 73.7071 126.293C73.5196 126.105 73.2652 126 73 126H71C70.5913 126 70.1924 125.875 69.857 125.641L65.143 122.36C64.8077 122.126 64.4089 122.001 64.0002 122.001C63.5914 122.001 63.1925 122.126 62.857 122.359L58.143 125.64C57.8078 125.874 57.4088 126 57 126H55C54.7348 126 54.4804 126.105 54.2929 126.293C54.1054 126.48 54 126.735 54 127V139C54 139.53 54.2107 140.039 54.5858 140.414C54.9609 140.789 55.4696 141 56 141H72C72.5304 141 73.0391 140.789 73.4142 140.414C73.7893 140.039 74 139.53 74 139V127Z" stroke="black" stroke-width="2" stroke-linecap="round" stroke-linejoin="round"/>
<path id="Vector_143" d="M58 132H58.01" stroke="black" stroke-width="2" stroke-linecap="round" stroke-linejoin="round"/>
<path id="Vector_144" d="M58 136H58.01" stroke="black" stroke-width="2" stroke-linecap="round" stroke-linejoin="round"/>
<path id="Vector_145" d="M64 132C65.1046 132 66 131.105 66 130C66 128.895 65.1046 128 64 128C62.8954 128 62 128.895 62 130C62 131.105 62.8954 132 64 132Z" stroke="black" stroke-width="2" stroke-linecap="round" stroke-linejoin="round"/>
</g></svg>
