<svg viewBox="0 0 24 24" fill="none" xmlns="http://www.w3.org/2000/svg"><g transform="translate(-84 -120)">
<path id="Vector_90" d="M102.84 132.25L104.56 130.54H104.54C105.461 129.586 105.965 128.306 105.943 126.98C105.92 125.655 105.372 124.392 104.42 123.47C103.487 122.57 102.241 122.067 100.945 122.067C99.6488 122.067 98.4031 122.57 97.47 123.47L95.75 125.18" stroke="black" stroke-width="2" stroke-linecap="round" stroke-linejoin="round"/>
<path id="Vector_91" d="M89.1699 131.75L87.4599 133.46C86.5393 134.414 86.0349 135.694 86.0574 137.02C86.0799 138.345 86.6275 139.608 87.5799 140.53C88.513 141.43 89.7587 141.933 91.0549 141.933C92.3512 141.933 93.5969 141.43 94.5299 140.53L96.2399 138.82" stroke="black" stroke-width="2" stroke-linecap="round" stroke-linejoin="round"/>
<path id="Vector_92" d="M92 122V125" stroke="black" stroke-width="2" stroke-linecap="round" stroke-linejoin="round"/>
<path id="Vector_93" d="M86 128H89" stroke="black" stroke-width="2" stroke-linecap="round" stroke-linejoin="round"/>
<path id="Vector_94" d="M100 139V142" stroke="black" stroke-width="2" stroke-linecap="round" stroke-linejoin="round"/>
<path id="Vector_95" d="M103 136H106" stroke="black" stroke-width="2" stroke-linecap="round" stroke-linejoin="round"/>
</g></svg>
