<svg viewBox="0 0 24 24" fill="none" xmlns="http://www.w3.org/2000/svg"><g transform="translate(-52 -88)">
<path id="Vector_59" d="M71 93L74 90" stroke="black" stroke-width="2" stroke-linecap="round" stroke-linejoin="round"/>
<path id="Vector_60" d="M54 110L57 107" stroke="black" stroke-width="2" stroke-linecap="round" stroke-linejoin="round"/>
<path id="Vector_61" d="M58.3 108.3C58.523 108.524 58.7879 108.701 59.0797 108.822C59.3714 108.944 59.6842 109.006 60 109.006C60.3159 109.006 60.6287 108.944 60.9204 108.822C61.2121 108.701 61.4771 108.524 61.7 108.3L64 106L58 100L55.7 102.3C55.4763 102.523 55.2988 102.788 55.1776 103.08C55.0565 103.371 54.9941 103.684 54.9941 104C54.9941 104.316 55.0565 104.629 55.1776 104.92C55.2988 105.212 55.4763 105.477 55.7 105.7L58.3 108.3Z" stroke="black" stroke-width="2" stroke-linecap="round" stroke-linejoin="round"/>
<path id="Vector_62" d="M59.5 101.5L62 99" stroke="black" stroke-width="2" stroke-linecap="round" stroke-linejoin="round"/>
<path id="Vector_63" d="M62.5 104.5L65 102" stroke="black" stroke-width="2" stroke-linecap="round" stroke-linejoin="round"/>
<path id="Vector_64" d="M64 94L70 100L72.3 97.7C72.5237 97.4771 72.7013 97.2121 72.8224 96.9204C72.9435 96.6287 73.0059 96.3159 73.0059 96C73.0059 95.6842 72.9435 95.3714 72.8224 95.0797C72.7013 94.7879 72.5237 94.523 72.3 94.3L69.7 91.7C69.477 91.4763 69.2121 91.2988 68.9204 91.1776C68.6286 91.0565 68.3159 90.9941 68 90.9941C67.6841 90.9941 67.3714 91.0565 67.0796 91.1776C66.7879 91.2988 66.523 91.4763 66.3 91.7L64 94Z" stroke="black" stroke-width="2" stroke-linecap="round" stroke-linejoin="round"/>
</g></svg>
