<svg viewBox="0 0 24 24" fill="none" xmlns="http://www.w3.org/2000/svg"><g transform="translate(-52 -280)">
<path id="Vector_370" d="M62 288C62.5523 288 63 287.552 63 287C63 286.448 62.5523 286 62 286C61.4477 286 61 286.448 61 287C61 287.552 61.4477 288 62 288Z" stroke="black" stroke-width="2" stroke-linecap="round" stroke-linejoin="round"/>
<path id="Vector_371" d="M56 301C56.5523 301 57 300.552 57 300C57 299.448 56.5523 299 56 299C55.4477 299 55 299.448 55 300C55 300.552 55.4477 301 56 301Z" stroke="black" stroke-width="2" stroke-linecap="round" stroke-linejoin="round"/>
<path id="Vector_372" d="M56.7002 299.3L71.0002 285" stroke="black" stroke-width="2" stroke-linecap="round" stroke-linejoin="round"/>
<path id="Vector_373" d="M73 283L70 284L72 286L73 283Z" stroke="black" stroke-width="2" stroke-linecap="round" stroke-linejoin="round"/>
<path id="Vector_374" d="M61.26 287.68L57 292L59 297" stroke="black" stroke-width="2" stroke-linecap="round" stroke-linejoin="round"/>
<path id="Vector_375" d="M62 294L67 296L70.5 292.5" stroke="black" stroke-width="2" stroke-linecap="round" stroke-linejoin="round"/>
<path id="Vector_376" d="M70 292L71 291L72 292L71 293L70 292Z" stroke="black" stroke-width="2" stroke-linecap="round" stroke-linejoin="round"/>
</g></svg>
