<svg viewBox="0 0 24 24" fill="none" xmlns="http://www.w3.org/2000/svg"><g transform="translate(-212 -120)">
<path id="Vector_132" d="M223.5 135H219C217.939 135 216.922 135.421 216.172 136.172C215.421 136.922 215 137.939 215 139V141" stroke="black" stroke-width="2" stroke-linecap="round" stroke-linejoin="round"/>
<path id="Vector_133" d="M233.378 136.626C233.776 136.228 234 135.687 234 135.124C234 134.561 233.776 134.02 233.378 133.622C232.98 133.224 232.439 133 231.876 133C231.313 133 230.772 133.224 230.374 133.622L226.364 137.634C226.126 137.872 225.952 138.165 225.858 138.488L225.021 141.358C224.996 141.444 224.994 141.535 225.017 141.622C225.039 141.709 225.084 141.788 225.147 141.852C225.211 141.915 225.29 141.96 225.377 141.982C225.464 142.005 225.555 142.003 225.641 141.978L228.511 141.141C228.834 141.047 229.127 140.873 229.365 140.635L233.378 136.626Z" stroke="black" stroke-width="2" stroke-linecap="round" stroke-linejoin="round"/>
<path id="Vector_134" d="M222 131C224.209 131 226 129.209 226 127C226 124.791 224.209 123 222 123C219.791 123 218 124.791 218 127C218 129.209 219.791 131 222 131Z" stroke="black" stroke-width="2" stroke-linecap="round" stroke-linejoin="round"/>
</g></svg>
