<svg viewBox="0 0 24 24" fill="none" xmlns="http://www.w3.org/2000/svg"><g transform="translate(-308 -120)">
<path id="Vector_141" d="M327 136L324 139" stroke="black" stroke-width="2" stroke-linecap="round" stroke-linejoin="round"/>
<path id="Vector_142" d="M310 141C310 139.529 310.406 138.086 311.173 136.83C311.94 135.574 313.038 134.554 314.347 133.883C315.656 133.211 317.125 132.913 318.592 133.022C320.06 133.131 321.469 133.642 322.664 134.5" stroke="black" stroke-width="2" stroke-linecap="round" stroke-linejoin="round"/>
<path id="Vector_143" d="M330 139H324L327 142" stroke="black" stroke-width="2" stroke-linecap="round" stroke-linejoin="round"/>
<path id="Vector_144" d="M318 133C320.761 133 323 130.761 323 128C323 125.239 320.761 123 318 123C315.239 123 313 125.239 313 128C313 130.761 315.239 133 318 133Z" stroke="black" stroke-width="2" stroke-linecap="round" stroke-linejoin="round"/>
</g></svg>
