<svg viewBox="0 0 24 24" fill="none" xmlns="http://www.w3.org/2000/svg"><g transform="translate(-180 -120)">
<path id="Vector_129" d="M196 141V139C196 137.939 195.579 136.922 194.828 136.172C194.078 135.421 193.061 135 192 135H186C184.939 135 183.922 135.421 183.172 136.172C182.421 136.922 182 137.939 182 139V141" stroke="black" stroke-width="2" stroke-linecap="round" stroke-linejoin="round"/>
<path id="Vector_130" d="M189 131C191.209 131 193 129.209 193 127C193 124.791 191.209 123 189 123C186.791 123 185 124.791 185 127C185 129.209 186.791 131 189 131Z" stroke="black" stroke-width="2" stroke-linecap="round" stroke-linejoin="round"/>
<path id="Vector_131" d="M202 131H196" stroke="black" stroke-width="2" stroke-linecap="round" stroke-linejoin="round"/>
</g></svg>
