<svg viewBox="0 0 24 24" fill="none" xmlns="http://www.w3.org/2000/svg"><g transform="translate(-20 -152)">
<path id="Vector_159" d="M39 163V169" stroke="black" stroke-width="2" stroke-linecap="round" stroke-linejoin="round"/>
<path id="Vector_160" d="M39 165H41" stroke="black" stroke-width="2" stroke-linecap="round" stroke-linejoin="round"/>
<path id="Vector_161" d="M22 173C21.9999 171.507 22.4176 170.044 23.2058 168.776C23.994 167.508 25.1214 166.486 26.4603 165.825C27.7991 165.165 29.2962 164.892 30.782 165.038C32.2679 165.184 33.6832 165.743 34.868 166.651" stroke="black" stroke-width="2" stroke-linecap="round" stroke-linejoin="round"/>
<path id="Vector_162" d="M30 165C32.7614 165 35 162.761 35 160C35 157.239 32.7614 155 30 155C27.2386 155 25 157.239 25 160C25 162.761 27.2386 165 30 165Z" stroke="black" stroke-width="2" stroke-linecap="round" stroke-linejoin="round"/>
<path id="Vector_163" d="M39 173C40.1046 173 41 172.105 41 171C41 169.895 40.1046 169 39 169C37.8954 169 37 169.895 37 171C37 172.105 37.8954 173 39 173Z" stroke="black" stroke-width="2" stroke-linecap="round" stroke-linejoin="round"/>
</g></svg>
