<svg viewBox="0 0 24 24" fill="none" xmlns="http://www.w3.org/2000/svg"><g transform="translate(-180 -152)">
<path id="Vector_178" d="M182 173C182 171.608 182.363 170.24 183.054 169.032C183.744 167.823 184.738 166.815 185.937 166.109C187.136 165.402 188.499 165.02 189.891 165.001C191.282 164.982 192.655 165.326 193.873 166" stroke="black" stroke-width="2" stroke-linecap="round" stroke-linejoin="round"/>
<path id="Vector_179" d="M190 165C192.761 165 195 162.761 195 160C195 157.239 192.761 155 190 155C187.239 155 185 157.239 185 160C185 162.761 187.239 165 190 165Z" stroke="black" stroke-width="2" stroke-linecap="round" stroke-linejoin="round"/>
<path id="Vector_180" d="M197 169L202 174" stroke="black" stroke-width="2" stroke-linecap="round" stroke-linejoin="round"/>
<path id="Vector_181" d="M202 169L197 174" stroke="black" stroke-width="2" stroke-linecap="round" stroke-linejoin="round"/>
</g></svg>
