<svg viewBox="0 0 24 24" fill="none" xmlns="http://www.w3.org/2000/svg"><g transform="translate(-52 -120)">
<path id="Vector_106" d="M68 131L70 133L74 129" stroke="black" stroke-width="2" stroke-linecap="round" stroke-linejoin="round"/>
<path id="Vector_107" d="M68 141V139C68 137.939 67.5786 136.922 66.8284 136.172C66.0783 135.421 65.0609 135 64 135H58C56.9391 135 55.9217 135.421 55.1716 136.172C54.4214 136.922 54 137.939 54 139V141" stroke="black" stroke-width="2" stroke-linecap="round" stroke-linejoin="round"/>
<path id="Vector_108" d="M61 131C63.2091 131 65 129.209 65 127C65 124.791 63.2091 123 61 123C58.7909 123 57 124.791 57 127C57 129.209 58.7909 131 61 131Z" stroke="black" stroke-width="2" stroke-linecap="round" stroke-linejoin="round"/>
</g></svg>
