<svg viewBox="0 0 24 24" fill="none" xmlns="http://www.w3.org/2000/svg"><g transform="translate(-244 -152)">
<path id="Vector_186" d="M254 163C256.209 163 258 161.209 258 159C258 156.791 256.209 155 254 155C251.791 155 250 156.791 250 159C250 161.209 251.791 163 254 163Z" stroke="black" stroke-width="2" stroke-linecap="round" stroke-linejoin="round"/>
<path id="Vector_187" d="M254.3 167H251C249.939 167 248.922 167.421 248.172 168.172C247.421 168.922 247 169.939 247 171V173" stroke="black" stroke-width="2" stroke-linecap="round" stroke-linejoin="round"/>
<path id="Vector_188" d="M261 172C262.657 172 264 170.657 264 169C264 167.343 262.657 166 261 166C259.343 166 258 167.343 258 169C258 170.657 259.343 172 261 172Z" stroke="black" stroke-width="2" stroke-linecap="round" stroke-linejoin="round"/>
<path id="Vector_189" d="M265 173L263.1 171.1" stroke="black" stroke-width="2" stroke-linecap="round" stroke-linejoin="round"/>
</g></svg>
