<svg viewBox="0 0 24 24" fill="none" xmlns="http://www.w3.org/2000/svg"><g transform="translate(-276 -152)">
<path id="Vector_190" d="M294 173C294 170.878 293.157 168.843 291.657 167.343C290.157 165.843 288.122 165 286 165C283.878 165 281.843 165.843 280.343 167.343C278.843 168.843 278 170.878 278 173" stroke="black" stroke-width="2" stroke-linecap="round" stroke-linejoin="round"/>
<path id="Vector_191" d="M286 165C288.761 165 291 162.761 291 160C291 157.239 288.761 155 286 155C283.239 155 281 157.239 281 160C281 162.761 283.239 165 286 165Z" stroke="black" stroke-width="2" stroke-linecap="round" stroke-linejoin="round"/>
<path id="Vector_192" d="M298 172C298 168.63 296 165.5 294 164C294.657 163.507 295.183 162.859 295.53 162.114C295.878 161.369 296.036 160.55 295.992 159.73C295.947 158.909 295.701 158.112 295.275 157.409C294.849 156.706 294.257 156.119 293.55 155.7" stroke="black" stroke-width="2" stroke-linecap="round" stroke-linejoin="round"/>
</g></svg>
