<svg viewBox="0 0 24 24" fill="none" xmlns="http://www.w3.org/2000/svg"><g transform="translate(-148 -120)">
<path id="Vector_125" d="M167 136V134C167 133.47 166.789 132.961 166.414 132.586C166.039 132.211 165.53 132 165 132C164.47 132 163.961 132.211 163.586 132.586C163.211 132.961 163 133.47 163 134V136" stroke="black" stroke-width="2" stroke-linecap="round" stroke-linejoin="round"/>
<path id="Vector_126" d="M157.5 135H155C153.939 135 152.922 135.421 152.172 136.172C151.421 136.922 151 137.939 151 139V141" stroke="black" stroke-width="2" stroke-linecap="round" stroke-linejoin="round"/>
<path id="Vector_127" d="M158 131C160.209 131 162 129.209 162 127C162 124.791 160.209 123 158 123C155.791 123 154 124.791 154 127C154 129.209 155.791 131 158 131Z" stroke="black" stroke-width="2" stroke-linecap="round" stroke-linejoin="round"/>
<path id="Vector_128" d="M168.101 136H161.899C161.402 136 161 136.402 161 136.899V140.101C161 140.598 161.402 141 161.899 141H168.101C168.598 141 169 140.598 169 140.101V136.899C169 136.402 168.598 136 168.101 136Z" stroke="black" stroke-width="2" stroke-linecap="round" stroke-linejoin="round"/>
</g></svg>
