<svg viewBox="0 0 24 24" fill="none" xmlns="http://www.w3.org/2000/svg"><g transform="translate(-308 -152)">
<path id="Vector_193" d="M324.051 164.616C324.117 164.413 324.246 164.237 324.42 164.113C324.593 163.989 324.801 163.923 325.015 163.926C325.228 163.929 325.434 163.999 325.605 164.128C325.775 164.256 325.899 164.436 325.96 164.64L326.697 166.092C326.769 166.233 326.873 166.355 327.001 166.448C327.129 166.541 327.278 166.603 327.434 166.627L329.068 166.883C329.279 166.884 329.483 166.951 329.653 167.075C329.823 167.199 329.95 167.373 330.015 167.573C330.08 167.773 330.081 167.989 330.016 168.189C329.952 168.39 329.826 168.564 329.656 168.689L328.484 169.857C328.372 169.969 328.288 170.105 328.239 170.256C328.19 170.407 328.177 170.567 328.202 170.723L328.461 172.336C328.532 172.538 328.537 172.758 328.474 172.963C328.411 173.168 328.283 173.347 328.111 173.474C327.938 173.601 327.729 173.669 327.515 173.668C327.301 173.668 327.092 173.598 326.92 173.47L325.455 172.72C325.314 172.648 325.158 172.61 324.999 172.61C324.841 172.61 324.684 172.648 324.543 172.72L323.078 173.47C322.906 173.597 322.698 173.666 322.485 173.666C322.271 173.666 322.063 173.598 321.891 173.471C321.719 173.345 321.592 173.166 321.528 172.962C321.465 172.758 321.469 172.539 321.539 172.337L321.797 170.724C321.822 170.568 321.81 170.408 321.761 170.257C321.712 170.106 321.627 169.97 321.515 169.858L320.359 168.705C320.184 168.584 320.052 168.409 319.983 168.207C319.914 168.006 319.911 167.787 319.975 167.583C320.039 167.38 320.166 167.202 320.338 167.076C320.51 166.95 320.718 166.882 320.931 166.883L322.564 166.627C322.721 166.603 322.869 166.541 322.997 166.448C323.125 166.355 323.23 166.233 323.301 166.092L324.051 164.616Z" stroke="black" stroke-width="2" stroke-linecap="round" stroke-linejoin="round"/>
<path id="Vector_194" d="M316 167H315C313.939 167 312.922 167.421 312.172 168.172C311.421 168.922 311 169.939 311 171V173" stroke="black" stroke-width="2" stroke-linecap="round" stroke-linejoin="round"/>
<path id="Vector_195" d="M318 163C320.209 163 322 161.209 322 159C322 156.791 320.209 155 318 155C315.791 155 314 156.791 314 159C314 161.209 315.791 163 318 163Z" stroke="black" stroke-width="2" stroke-linecap="round" stroke-linejoin="round"/>
</g></svg>
