<svg viewBox="0 0 24 24" fill="none" xmlns="http://www.w3.org/2000/svg"><g transform="translate(-116 -152)">
<path id="Vector_170" d="M118 173C118 171.46 118.444 169.953 119.279 168.66C120.115 167.366 121.305 166.341 122.709 165.708C124.112 165.075 125.668 164.86 127.191 165.089C128.713 165.318 130.137 165.982 131.292 167" stroke="black" stroke-width="2" stroke-linecap="round" stroke-linejoin="round"/>
<path id="Vector_171" d="M126 165C128.761 165 131 162.761 131 160C131 157.239 128.761 155 126 155C123.239 155 121 157.239 121 160C121 162.761 123.239 165 126 165Z" stroke="black" stroke-width="2" stroke-linecap="round" stroke-linejoin="round"/>
<path id="Vector_172" d="M135 168V174" stroke="black" stroke-width="2" stroke-linecap="round" stroke-linejoin="round"/>
<path id="Vector_173" d="M138 171H132" stroke="black" stroke-width="2" stroke-linecap="round" stroke-linejoin="round"/>
</g></svg>
