<svg viewBox="0 0 24 24" fill="none" xmlns="http://www.w3.org/2000/svg"><g transform="translate(-340 -152)">
<path id="Vector_196" d="M356 173V171C356 169.939 355.579 168.922 354.828 168.172C354.078 167.421 353.061 167 352 167H346C344.939 167 343.922 167.421 343.172 168.172C342.421 168.922 342 169.939 342 171V173" stroke="black" stroke-width="2" stroke-linecap="round" stroke-linejoin="round"/>
<path id="Vector_197" d="M349 163C351.209 163 353 161.209 353 159C353 156.791 351.209 155 349 155C346.791 155 345 156.791 345 159C345 161.209 346.791 163 349 163Z" stroke="black" stroke-width="2" stroke-linecap="round" stroke-linejoin="round"/>
<path id="Vector_198" d="M357 160L362 165" stroke="black" stroke-width="2" stroke-linecap="round" stroke-linejoin="round"/>
<path id="Vector_199" d="M362 160L357 165" stroke="black" stroke-width="2" stroke-linecap="round" stroke-linejoin="round"/>
</g></svg>
