<svg viewBox="0 0 24 24" fill="none" xmlns="http://www.w3.org/2000/svg"><g transform="translate(-372 -120)">
<path id="Vector_148" d="M386.305 139.53L387.228 139.148" stroke="black" stroke-width="2" stroke-linecap="round" stroke-linejoin="round"/>
<path id="Vector_149" d="M387.228 136.852L386.305 136.469" stroke="black" stroke-width="2" stroke-linecap="round" stroke-linejoin="round"/>
<path id="Vector_150" d="M388.852 135.228L388.469 134.305" stroke="black" stroke-width="2" stroke-linecap="round" stroke-linejoin="round"/>
<path id="Vector_151" d="M388.852 140.772L388.469 141.696" stroke="black" stroke-width="2" stroke-linecap="round" stroke-linejoin="round"/>
<path id="Vector_152" d="M391.148 135.228L391.531 134.305" stroke="black" stroke-width="2" stroke-linecap="round" stroke-linejoin="round"/>
<path id="Vector_153" d="M391.53 141.696L391.148 140.772" stroke="black" stroke-width="2" stroke-linecap="round" stroke-linejoin="round"/>
<path id="Vector_154" d="M374 141C374 139.741 374.297 138.5 374.868 137.377C375.438 136.255 376.265 135.283 377.282 134.54C378.299 133.798 379.476 133.306 380.719 133.104C381.962 132.902 383.235 132.997 384.434 133.38" stroke="black" stroke-width="2" stroke-linecap="round" stroke-linejoin="round"/>
<path id="Vector_155" d="M392.772 136.852L393.696 136.469" stroke="black" stroke-width="2" stroke-linecap="round" stroke-linejoin="round"/>
<path id="Vector_156" d="M392.772 139.148L393.696 139.531" stroke="black" stroke-width="2" stroke-linecap="round" stroke-linejoin="round"/>
<path id="Vector_157" d="M382 133C384.761 133 387 130.761 387 128C387 125.239 384.761 123 382 123C379.239 123 377 125.239 377 128C377 130.761 379.239 133 382 133Z" stroke="black" stroke-width="2" stroke-linecap="round" stroke-linejoin="round"/>
<path id="Vector_158" d="M390 141C391.657 141 393 139.657 393 138C393 136.343 391.657 135 390 135C388.343 135 387 136.343 387 138C387 139.657 388.343 141 390 141Z" stroke="black" stroke-width="2" stroke-linecap="round" stroke-linejoin="round"/>
</g></svg>
