<svg viewBox="0 0 24 24" fill="none" xmlns="http://www.w3.org/2000/svg"><g transform="translate(-244 -120)">
<path id="Vector_135" d="M260 141V139C260 137.939 259.579 136.922 258.828 136.172C258.078 135.421 257.061 135 256 135H250C248.939 135 247.922 135.421 247.172 136.172C246.421 136.922 246 137.939 246 139V141" stroke="black" stroke-width="2" stroke-linecap="round" stroke-linejoin="round"/>
<path id="Vector_136" d="M253 131C255.209 131 257 129.209 257 127C257 124.791 255.209 123 253 123C250.791 123 249 124.791 249 127C249 129.209 250.791 131 253 131Z" stroke="black" stroke-width="2" stroke-linecap="round" stroke-linejoin="round"/>
<path id="Vector_137" d="M263 128V134" stroke="black" stroke-width="2" stroke-linecap="round" stroke-linejoin="round"/>
<path id="Vector_138" d="M266 131H260" stroke="black" stroke-width="2" stroke-linecap="round" stroke-linejoin="round"/>
</g></svg>
