<svg viewBox="0 0 24 24" fill="none" xmlns="http://www.w3.org/2000/svg"><g transform="translate(-84 -152)">
<path id="Vector_167" d="M86 173C85.9999 171.706 86.3135 170.432 86.9141 169.286C87.5146 168.14 88.3842 167.156 89.4482 166.42C90.5121 165.684 91.7388 165.217 93.0229 165.059C94.307 164.901 95.6103 165.057 96.821 165.513" stroke="black" stroke-width="2" stroke-linecap="round" stroke-linejoin="round"/>
<path id="Vector_168" d="M105.378 168.626C105.776 168.228 106 167.687 106 167.124C106 166.561 105.776 166.02 105.378 165.622C104.98 165.224 104.439 165 103.876 165C103.313 165 102.772 165.224 102.374 165.622L98.364 169.634C98.1262 169.872 97.9522 170.165 97.858 170.488L97.021 173.358C96.9959 173.444 96.9944 173.535 97.0166 173.622C97.0389 173.709 97.084 173.788 97.1474 173.852C97.2108 173.915 97.2901 173.96 97.3769 173.982C97.4637 174.005 97.5549 174.003 97.641 173.978L100.511 173.141C100.834 173.047 101.127 172.873 101.365 172.635L105.378 168.626Z" stroke="black" stroke-width="2" stroke-linecap="round" stroke-linejoin="round"/>
<path id="Vector_169" d="M94 165C96.7614 165 99 162.761 99 160C99 157.239 96.7614 155 94 155C91.2386 155 89 157.239 89 160C89 162.761 91.2386 165 94 165Z" stroke="black" stroke-width="2" stroke-linecap="round" stroke-linejoin="round"/>
</g></svg>
