<svg viewBox="0 0 24 24" fill="none" xmlns="http://www.w3.org/2000/svg"><g transform="translate(-84 -120)">
<path id="Vector_109" d="M94 135H90C88.9391 135 87.9217 135.421 87.1716 136.172C86.4214 136.922 86 137.939 86 139V141" stroke="black" stroke-width="2" stroke-linecap="round" stroke-linejoin="round"/>
<path id="Vector_110" d="M98.3047 136.53L99.2277 136.148" stroke="black" stroke-width="2" stroke-linecap="round" stroke-linejoin="round"/>
<path id="Vector_111" d="M99.2277 133.852L98.3047 133.469" stroke="black" stroke-width="2" stroke-linecap="round" stroke-linejoin="round"/>
<path id="Vector_112" d="M100.852 132.228L100.469 131.305" stroke="black" stroke-width="2" stroke-linecap="round" stroke-linejoin="round"/>
<path id="Vector_113" d="M100.852 137.772L100.469 138.696" stroke="black" stroke-width="2" stroke-linecap="round" stroke-linejoin="round"/>
<path id="Vector_114" d="M103.148 132.228L103.531 131.305" stroke="black" stroke-width="2" stroke-linecap="round" stroke-linejoin="round"/>
<path id="Vector_115" d="M103.53 138.696L103.148 137.772" stroke="black" stroke-width="2" stroke-linecap="round" stroke-linejoin="round"/>
<path id="Vector_116" d="M104.772 133.852L105.696 133.469" stroke="black" stroke-width="2" stroke-linecap="round" stroke-linejoin="round"/>
<path id="Vector_117" d="M104.772 136.148L105.696 136.531" stroke="black" stroke-width="2" stroke-linecap="round" stroke-linejoin="round"/>
<path id="Vector_118" d="M102 138C103.657 138 105 136.657 105 135C105 133.343 103.657 132 102 132C100.343 132 99 133.343 99 135C99 136.657 100.343 138 102 138Z" stroke="black" stroke-width="2" stroke-linecap="round" stroke-linejoin="round"/>
<path id="Vector_119" d="M93 131C95.2091 131 97 129.209 97 127C97 124.791 95.2091 123 93 123C90.7909 123 89 124.791 89 127C89 129.209 90.7909 131 93 131Z" stroke="black" stroke-width="2" stroke-linecap="round" stroke-linejoin="round"/>
</g></svg>
