<svg viewBox="0 0 24 24" fill="none" xmlns="http://www.w3.org/2000/svg"><g transform="translate(-340 -120)">
<path id="Vector_145" d="M342 141C342 139.46 342.444 137.953 343.279 136.66C344.115 135.366 345.305 134.341 346.709 133.708C348.112 133.075 349.668 132.86 351.191 133.089C352.713 133.318 354.137 133.982 355.292 135" stroke="black" stroke-width="2" stroke-linecap="round" stroke-linejoin="round"/>
<path id="Vector_146" d="M350 133C352.761 133 355 130.761 355 128C355 125.239 352.761 123 350 123C347.239 123 345 125.239 345 128C345 130.761 347.239 133 350 133Z" stroke="black" stroke-width="2" stroke-linecap="round" stroke-linejoin="round"/>
<path id="Vector_147" d="M356 139L358 141L362 137" stroke="black" stroke-width="2" stroke-linecap="round" stroke-linejoin="round"/>
</g></svg>
