<svg viewBox="0 0 24 24" fill="none" xmlns="http://www.w3.org/2000/svg"><g transform="translate(-116 -120)">
<path id="Vector_120" d="M136 131V137" stroke="black" stroke-width="2" stroke-linecap="round" stroke-linejoin="round"/>
<path id="Vector_121" d="M136 133H138" stroke="black" stroke-width="2" stroke-linecap="round" stroke-linejoin="round"/>
<path id="Vector_122" d="M119 141V139C119 137.939 119.421 136.922 120.172 136.172C120.922 135.421 121.939 135 123 135H129C129.73 135 130.447 135.2 131.072 135.578" stroke="black" stroke-width="2" stroke-linecap="round" stroke-linejoin="round"/>
<path id="Vector_123" d="M126 131C128.209 131 130 129.209 130 127C130 124.791 128.209 123 126 123C123.791 123 122 124.791 122 127C122 129.209 123.791 131 126 131Z" stroke="black" stroke-width="2" stroke-linecap="round" stroke-linejoin="round"/>
<path id="Vector_124" d="M136 141C137.105 141 138 140.105 138 139C138 137.895 137.105 137 136 137C134.895 137 134 137.895 134 139C134 140.105 134.895 141 136 141Z" stroke="black" stroke-width="2" stroke-linecap="round" stroke-linejoin="round"/>
</g></svg>
