<svg viewBox="0 0 24 24" fill="none" xmlns="http://www.w3.org/2000/svg"><g transform="translate(-148 -152)">
<path id="Vector_174" d="M158 165C160.761 165 163 162.761 163 160C163 157.239 160.761 155 158 155C155.239 155 153 157.239 153 160C153 162.761 155.239 165 158 165Z" stroke="black" stroke-width="2" stroke-linecap="round" stroke-linejoin="round"/>
<path id="Vector_175" d="M150 173C150 171.741 150.297 170.5 150.868 169.377C151.438 168.255 152.265 167.283 153.282 166.54C154.299 165.798 155.476 165.306 156.719 165.104C157.962 164.902 159.235 164.997 160.434 165.38" stroke="black" stroke-width="2" stroke-linecap="round" stroke-linejoin="round"/>
<path id="Vector_176" d="M166 173C167.657 173 169 171.657 169 170C169 168.343 167.657 167 166 167C164.343 167 163 168.343 163 170C163 171.657 164.343 173 166 173Z" stroke="black" stroke-width="2" stroke-linecap="round" stroke-linejoin="round"/>
<path id="Vector_177" d="M170 174L168.1 172.1" stroke="black" stroke-width="2" stroke-linecap="round" stroke-linejoin="round"/>
</g></svg>
