<svg viewBox="0 0 24 24" fill="none" xmlns="http://www.w3.org/2000/svg"><g transform="translate(-212 -152)">
<path id="Vector_182" d="M228 173V171C228 169.939 227.579 168.922 226.828 168.172C226.078 167.421 225.061 167 224 167H218C216.939 167 215.922 167.421 215.172 168.172C214.421 168.922 214 169.939 214 171V173" stroke="black" stroke-width="2" stroke-linecap="round" stroke-linejoin="round"/>
<path id="Vector_183" d="M228 155.128C228.858 155.35 229.617 155.851 230.16 156.552C230.702 157.253 230.996 158.114 230.996 159C230.996 159.886 230.702 160.747 230.16 161.448C229.617 162.149 228.858 162.65 228 162.872" stroke="black" stroke-width="2" stroke-linecap="round" stroke-linejoin="round"/>
<path id="Vector_184" d="M234 173V171C233.999 170.114 233.704 169.253 233.161 168.552C232.618 167.852 231.858 167.352 231 167.13" stroke="black" stroke-width="2" stroke-linecap="round" stroke-linejoin="round"/>
<path id="Vector_185" d="M221 163C223.209 163 225 161.209 225 159C225 156.791 223.209 155 221 155C218.791 155 217 156.791 217 159C217 161.209 218.791 163 221 163Z" stroke="black" stroke-width="2" stroke-linecap="round" stroke-linejoin="round"/>
</g></svg>
