<svg viewBox="0 0 24 24" fill="none" xmlns="http://www.w3.org/2000/svg"><g transform="translate(-212 -184)">
<path id="Vector_225" d="M228 186L225.7 188.3C225.151 188.861 224.843 189.615 224.843 190.4C224.843 191.185 225.151 191.939 225.7 192.5L227.5 194.3C228.061 194.85 228.815 195.158 229.6 195.158C230.386 195.158 231.14 194.85 231.7 194.3L234 192" stroke="black" stroke-width="2" stroke-linecap="round" stroke-linejoin="round"/>
<path id="Vector_226" d="M227 199L215.3 187.3C214.901 187.691 214.583 188.158 214.367 188.673C214.151 189.188 214.039 189.741 214.039 190.3C214.039 190.859 214.151 191.412 214.367 191.927C214.583 192.442 214.901 192.909 215.3 193.3L222.6 200.6C223.3 201.3 224.6 201.3 225.4 200.6L227 199ZM227 199L234 206" stroke="black" stroke-width="2" stroke-linecap="round" stroke-linejoin="round"/>
<path id="Vector_227" d="M214.1 205.8L220.5 199.5" stroke="black" stroke-width="2" stroke-linecap="round" stroke-linejoin="round"/>
<path id="Vector_228" d="M231 189L224 196" stroke="black" stroke-width="2" stroke-linecap="round" stroke-linejoin="round"/>
</g></svg>
