<svg viewBox="0 0 24 24" fill="none" xmlns="http://www.w3.org/2000/svg"><g transform="translate(-52 -152)">
<path id="Vector_204" d="M65 158V163C65 163.265 65.1054 163.52 65.2929 163.707C65.4804 163.895 65.7348 164 66 164H72.102C72.2345 164 72.3657 164.026 72.4879 164.078C72.6101 164.129 72.721 164.204 72.814 164.298L73.712 165.208C73.8965 165.395 74 165.647 74 165.91V169C74 169.265 73.8946 169.52 73.7071 169.707C73.5196 169.895 73.2652 170 73 170H70" stroke="black" stroke-width="2" stroke-linecap="round" stroke-linejoin="round"/>
<path id="Vector_205" d="M57 170H55C54.7348 170 54.4804 169.895 54.2929 169.707C54.1054 169.52 54 169.265 54 169V160C54 159.47 54.2107 158.961 54.5858 158.586C54.9609 158.211 55.4696 158 56 158H68C69.1 158 70.1 158.8 70.4 159.8L71.576 164" stroke="black" stroke-width="2" stroke-linecap="round" stroke-linejoin="round"/>
<path id="Vector_206" d="M61 170H66" stroke="black" stroke-width="2" stroke-linecap="round" stroke-linejoin="round"/>
<path id="Vector_207" d="M68 172C69.1046 172 70 171.105 70 170C70 168.895 69.1046 168 68 168C66.8954 168 66 168.895 66 170C66 171.105 66.8954 172 68 172Z" stroke="black" stroke-width="2" stroke-linecap="round" stroke-linejoin="round"/>
<path id="Vector_208" d="M59 172C60.1046 172 61 171.105 61 170C61 168.895 60.1046 168 59 168C57.8954 168 57 168.895 57 170C57 171.105 57.8954 172 59 172Z" stroke="black" stroke-width="2" stroke-linecap="round" stroke-linejoin="round"/>
</g></svg>
