<svg viewBox="0 0 24 24" fill="none" xmlns="http://www.w3.org/2000/svg"><g transform="translate(-372 -120)">
<path id="Vector_151" d="M391 123H377C375.895 123 375 123.895 375 125V139C375 140.105 375.895 141 377 141H391C392.105 141 393 140.105 393 139V125C393 123.895 392.105 123 391 123Z" stroke="black" stroke-width="2" stroke-linecap="round" stroke-linejoin="round"/>
<path id="Vector_152" d="M379.5 128C379.776 128 380 127.776 380 127.5C380 127.224 379.776 127 379.5 127C379.224 127 379 127.224 379 127.5C379 127.776 379.224 128 379.5 128Z" fill="black" stroke="black" stroke-width="2" stroke-linecap="round" stroke-linejoin="round"/>
<path id="Vector_153" d="M379.9 127.9L382.6 130.6" stroke="black" stroke-width="2" stroke-linecap="round" stroke-linejoin="round"/>
<path id="Vector_154" d="M388.5 128C388.776 128 389 127.776 389 127.5C389 127.224 388.776 127 388.5 127C388.224 127 388 127.224 388 127.5C388 127.776 388.224 128 388.5 128Z" fill="black" stroke="black" stroke-width="2" stroke-linecap="round" stroke-linejoin="round"/>
<path id="Vector_155" d="M385.4 130.6L388.1 127.9" stroke="black" stroke-width="2" stroke-linecap="round" stroke-linejoin="round"/>
<path id="Vector_156" d="M379.5 137C379.776 137 380 136.776 380 136.5C380 136.224 379.776 136 379.5 136C379.224 136 379 136.224 379 136.5C379 136.776 379.224 137 379.5 137Z" fill="black" stroke="black" stroke-width="2" stroke-linecap="round" stroke-linejoin="round"/>
<path id="Vector_157" d="M379.9 136.1L382.6 133.4" stroke="black" stroke-width="2" stroke-linecap="round" stroke-linejoin="round"/>
<path id="Vector_158" d="M388.5 137C388.776 137 389 136.776 389 136.5C389 136.224 388.776 136 388.5 136C388.224 136 388 136.224 388 136.5C388 136.776 388.224 137 388.5 137Z" fill="black" stroke="black" stroke-width="2" stroke-linecap="round" stroke-linejoin="round"/>
<path id="Vector_159" d="M385.4 133.4L388.1 136.1" stroke="black" stroke-width="2" stroke-linecap="round" stroke-linejoin="round"/>
<path id="Vector_160" d="M384 134C385.105 134 386 133.105 386 132C386 130.895 385.105 130 384 130C382.895 130 382 130.895 382 132C382 133.105 382.895 134 384 134Z" stroke="black" stroke-width="2" stroke-linecap="round" stroke-linejoin="round"/>
</g></svg>
