<svg viewBox="0 0 24 24" fill="none" xmlns="http://www.w3.org/2000/svg"><g transform="translate(-116 -280)">
<path id="Vector_314" d="M135.5 287C136.202 290.296 136.202 293.704 135.5 297" stroke="black" stroke-width="2" stroke-linecap="round" stroke-linejoin="round"/>
<path id="Vector_315" d="M120.5 287C119.798 290.296 119.798 293.704 120.5 297" stroke="black" stroke-width="2" stroke-linecap="round" stroke-linejoin="round"/>
<path id="Vector_316" d="M123 299.5C126.296 300.202 129.704 300.202 133 299.5" stroke="black" stroke-width="2" stroke-linecap="round" stroke-linejoin="round"/>
<path id="Vector_317" d="M123 284.5C126.296 283.798 129.704 283.798 133 284.5" stroke="black" stroke-width="2" stroke-linecap="round" stroke-linejoin="round"/>
<path id="Vector_318" d="M137 297H134C133.448 297 133 297.448 133 298V301C133 301.552 133.448 302 134 302H137C137.552 302 138 301.552 138 301V298C138 297.448 137.552 297 137 297Z" stroke="black" stroke-width="2" stroke-linecap="round" stroke-linejoin="round"/>
<path id="Vector_319" d="M137 282H134C133.448 282 133 282.448 133 283V286C133 286.552 133.448 287 134 287H137C137.552 287 138 286.552 138 286V283C138 282.448 137.552 282 137 282Z" stroke="black" stroke-width="2" stroke-linecap="round" stroke-linejoin="round"/>
<path id="Vector_320" d="M122 297H119C118.448 297 118 297.448 118 298V301C118 301.552 118.448 302 119 302H122C122.552 302 123 301.552 123 301V298C123 297.448 122.552 297 122 297Z" stroke="black" stroke-width="2" stroke-linecap="round" stroke-linejoin="round"/>
<path id="Vector_321" d="M122 282H119C118.448 282 118 282.448 118 283V286C118 286.552 118.448 287 119 287H122C122.552 287 123 286.552 123 286V283C123 282.448 122.552 282 122 282Z" stroke="black" stroke-width="2" stroke-linecap="round" stroke-linejoin="round"/>
</g></svg>
