<svg viewBox="0 0 24 24" fill="none" xmlns="http://www.w3.org/2000/svg"><g transform="translate(-244 -184)">
<path id="Vector_229" d="M260 192C264 192 266 190 266 186C262 186 260 188 260 192Z" stroke="black" stroke-width="2" stroke-linecap="round" stroke-linejoin="round"/>
<path id="Vector_230" d="M261.41 187.59C259.335 186.255 256.84 185.734 254.404 186.128C251.968 186.522 249.764 187.803 248.215 189.724C246.666 191.645 245.882 194.07 246.014 196.534C246.146 198.998 247.184 201.326 248.929 203.071C250.674 204.816 253.002 205.854 255.466 205.986C257.93 206.118 260.355 205.334 262.276 203.785C264.197 202.236 265.478 200.032 265.872 197.596C266.266 195.161 265.745 192.665 264.41 190.59" stroke="black" stroke-width="2" stroke-linecap="round" stroke-linejoin="round"/>
<path id="Vector_231" d="M246 186C249.019 188.408 251.477 191.444 253.204 194.898C254.931 198.352 255.885 202.14 256 206C256.9 199.18 257.5 196.5 260 192" stroke="black" stroke-width="2" stroke-linecap="round" stroke-linejoin="round"/>
</g></svg>
