<svg viewBox="0 0 24 24" fill="none" xmlns="http://www.w3.org/2000/svg"><g transform="translate(-276 -152)">
<path id="Vector_193" d="M294 163C292.5 163 291.5 163.5 291 165" stroke="black" stroke-width="2" stroke-linecap="round" stroke-linejoin="round"/>
<path id="Vector_194" d="M280 158C279.47 158 278.961 158.211 278.586 158.586C278.211 158.961 278 159.47 278 160V164C278 165.326 278.527 166.598 279.464 167.536C280.402 168.473 281.674 169 283 169C284.848 169.069 286.615 169.776 288 171C289.385 169.776 291.152 169.069 293 169C294.326 169 295.598 168.473 296.536 167.536C297.473 166.598 298 165.326 298 164V160C298 159.47 297.789 158.961 297.414 158.586C297.039 158.211 296.53 158 296 158H293C291.152 158.069 289.385 158.776 288 160C286.615 158.776 284.848 158.069 283 158H280Z" stroke="black" stroke-width="2" stroke-linecap="round" stroke-linejoin="round"/>
<path id="Vector_195" d="M282 163C283.5 163 284.5 163.5 285 165" stroke="black" stroke-width="2" stroke-linecap="round" stroke-linejoin="round"/>
</g></svg>
