<svg viewBox="0 0 24 24" fill="none" xmlns="http://www.w3.org/2000/svg"><g transform="translate(-276 -216)">
<path id="Vector_255" d="M286.66 222H290C290.531 222 291.039 222.211 291.414 222.586C291.789 222.961 292 223.47 292 224V226.5L297.248 223.438C297.324 223.394 297.41 223.37 297.498 223.37C297.586 223.37 297.673 223.392 297.749 223.436C297.826 223.48 297.889 223.543 297.933 223.619C297.977 223.696 298 223.782 298 223.87V232.066" stroke="black" stroke-width="2" stroke-linecap="round" stroke-linejoin="round"/>
<path id="Vector_256" d="M292 232C292 232.53 291.789 233.039 291.414 233.414C291.039 233.789 290.53 234 290 234H280C279.47 234 278.961 233.789 278.586 233.414C278.211 233.039 278 232.53 278 232V224C278 223.47 278.211 222.961 278.586 222.586C278.961 222.211 279.47 222 280 222H282" stroke="black" stroke-width="2" stroke-linecap="round" stroke-linejoin="round"/>
<path id="Vector_257" d="M278 218L298 238" stroke="black" stroke-width="2" stroke-linecap="round" stroke-linejoin="round"/>
</g></svg>
