<svg viewBox="0 0 24 24" fill="none" xmlns="http://www.w3.org/2000/svg"><g transform="translate(-308 -216)">
<path id="Vector_258" d="M328 220H312C310.895 220 310 220.895 310 222V234C310 235.105 310.895 236 312 236H328C329.105 236 330 235.105 330 234V222C330 220.895 329.105 220 328 220Z" stroke="black" stroke-width="2" stroke-linecap="round" stroke-linejoin="round"/>
<path id="Vector_259" d="M310 224H330" stroke="black" stroke-width="2" stroke-linecap="round" stroke-linejoin="round"/>
<path id="Vector_260" d="M316 232C317.105 232 318 231.105 318 230C318 228.895 317.105 228 316 228C314.895 228 314 228.895 314 230C314 231.105 314.895 232 316 232Z" stroke="black" stroke-width="2" stroke-linecap="round" stroke-linejoin="round"/>
<path id="Vector_261" d="M316 228H324" stroke="black" stroke-width="2" stroke-linecap="round" stroke-linejoin="round"/>
<path id="Vector_262" d="M324 232C325.105 232 326 231.105 326 230C326 228.895 325.105 228 324 228C322.895 228 322 228.895 322 230C322 231.105 322.895 232 324 232Z" stroke="black" stroke-width="2" stroke-linecap="round" stroke-linejoin="round"/>
</g></svg>
