<svg viewBox="0 0 24 24" fill="none" xmlns="http://www.w3.org/2000/svg"><g transform="translate(-244 -216)">
<path id="Vector_253" d="M260 229L265.223 232.482C265.298 232.532 265.386 232.561 265.476 232.565C265.566 232.57 265.656 232.549 265.736 232.507C265.816 232.464 265.882 232.4 265.929 232.323C265.975 232.245 266 232.156 266 232.066V223.87C266 223.782 265.977 223.696 265.933 223.619C265.889 223.543 265.825 223.48 265.749 223.436C265.673 223.392 265.586 223.37 265.498 223.37C265.41 223.37 265.324 223.394 265.248 223.438L260 226.5" stroke="black" stroke-width="2" stroke-linecap="round" stroke-linejoin="round"/>
<path id="Vector_254" d="M258 222H248C246.895 222 246 222.895 246 224V232C246 233.105 246.895 234 248 234H258C259.105 234 260 233.105 260 232V224C260 222.895 259.105 222 258 222Z" stroke="black" stroke-width="2" stroke-linecap="round" stroke-linejoin="round"/>
</g></svg>
