<svg viewBox="0 0 24 24" fill="none" xmlns="http://www.w3.org/2000/svg"><g transform="translate(-148 -280)">
<path id="Vector_322" d="M169 297V299C169 299.53 168.789 300.039 168.414 300.414C168.039 300.789 167.53 301 167 301H153C152.47 301 151.961 300.789 151.586 300.414C151.211 300.039 151 299.53 151 299V297" stroke="black" stroke-width="2" stroke-linecap="round" stroke-linejoin="round"/>
<path id="Vector_323" d="M169 287V285C169 284.47 168.789 283.961 168.414 283.586C168.039 283.211 167.53 283 167 283H153C152.47 283 151.961 283.211 151.586 283.586C151.211 283.961 151 284.47 151 285V287" stroke="black" stroke-width="2" stroke-linecap="round" stroke-linejoin="round"/>
<path id="Vector_324" d="M160 293C160.552 293 161 292.552 161 292C161 291.448 160.552 291 160 291C159.448 291 159 291.448 159 292C159 292.552 159.448 293 160 293Z" stroke="black" stroke-width="2" stroke-linecap="round" stroke-linejoin="round"/>
<path id="Vector_325" d="M166.944 291.67C167.019 291.884 167.019 292.116 166.944 292.33C166.381 293.71 165.42 294.89 164.183 295.721C162.946 296.552 161.49 296.996 160 296.996C158.51 296.996 157.054 296.552 155.817 295.721C154.58 294.89 153.619 293.71 153.056 292.33C152.981 292.116 152.981 291.884 153.056 291.67C153.619 290.29 154.58 289.11 155.817 288.279C157.054 287.448 158.51 287.004 160 287.004C161.49 287.004 162.946 287.448 164.183 288.279C165.42 289.11 166.381 290.29 166.944 291.67Z" stroke="black" stroke-width="2" stroke-linecap="round" stroke-linejoin="round"/>
</g></svg>
