<svg viewBox="0 0 24 24" fill="none" xmlns="http://www.w3.org/2000/svg"><g transform="translate(-308 -152)">
<path id="Vector_196" d="M319 159C323.082 159 327.011 160.56 329.98 163.362" stroke="black" stroke-width="2" stroke-linecap="round" stroke-linejoin="round"/>
<path id="Vector_197" d="M320 164C318.958 165.364 317.656 166.508 316.17 167.366C314.683 168.224 313.042 168.78 311.34 169" stroke="black" stroke-width="2" stroke-linecap="round" stroke-linejoin="round"/>
<path id="Vector_198" d="M324.83 165.634C322.789 169.169 319.474 171.791 315.563 172.962" stroke="black" stroke-width="2" stroke-linecap="round" stroke-linejoin="round"/>
<path id="Vector_199" d="M328.66 169C327.618 167.636 326.316 166.492 324.83 165.634C323.344 164.776 321.702 164.22 320 164C319.34 162.416 319 160.716 319 159C319 157.284 319.34 155.584 320 154" stroke="black" stroke-width="2" stroke-linecap="round" stroke-linejoin="round"/>
<path id="Vector_200" d="M316.17 167.366C314.128 163.831 313.515 159.649 314.457 155.676" stroke="black" stroke-width="2" stroke-linecap="round" stroke-linejoin="round"/>
<path id="Vector_201" d="M320 174C325.523 174 330 169.523 330 164C330 158.477 325.523 154 320 154C314.477 154 310 158.477 310 164C310 169.523 314.477 174 320 174Z" stroke="black" stroke-width="2" stroke-linecap="round" stroke-linejoin="round"/>
</g></svg>
