<svg viewBox="0 0 24 24" fill="none" xmlns="http://www.w3.org/2000/svg"><g transform="translate(-84 -248)">
<path id="Vector_272" d="M100 257C100.504 257.672 100.831 258.461 100.95 259.293" stroke="black" stroke-width="2" stroke-linecap="round" stroke-linejoin="round"/>
<path id="Vector_273" d="M103.364 253.636C104.643 254.914 105.508 256.548 105.844 258.325C106.181 260.101 105.975 261.938 105.253 263.596" stroke="black" stroke-width="2" stroke-linecap="round" stroke-linejoin="round"/>
<path id="Vector_274" d="M86 250L106 270" stroke="black" stroke-width="2" stroke-linecap="round" stroke-linejoin="round"/>
<path id="Vector_275" d="M91 255L90.413 255.587C90.2824 255.718 90.127 255.823 89.9559 255.893C89.7848 255.964 89.6012 256.001 89.416 256H87C86.7348 256 86.4804 256.105 86.2929 256.293C86.1054 256.48 86 256.735 86 257V263C86 263.265 86.1054 263.52 86.2929 263.707C86.4804 263.895 86.7348 264 87 264H89.416C89.6012 263.999 89.7848 264.036 89.9559 264.107C90.127 264.177 90.2824 264.282 90.413 264.413L93.796 267.797C93.8946 267.896 94.0203 267.963 94.1572 267.99C94.2941 268.018 94.436 268.004 94.5649 267.95C94.6939 267.897 94.804 267.806 94.8815 267.69C94.959 267.574 95.0002 267.438 95 267.298V259" stroke="black" stroke-width="2" stroke-linecap="round" stroke-linejoin="round"/>
<path id="Vector_276" d="M93.8281 252.172C93.924 252.076 94.0463 252.01 94.1795 251.984C94.3128 251.957 94.4509 251.97 94.5764 252.022C94.702 252.074 94.8093 252.162 94.8847 252.275C94.9601 252.388 95.0003 252.521 95.0001 252.657V253.343" stroke="black" stroke-width="2" stroke-linecap="round" stroke-linejoin="round"/>
</g></svg>
