<svg viewBox="0 0 24 24" fill="none" xmlns="http://www.w3.org/2000/svg"><g transform="translate(-52 -248)">
<path id="Vector_269" d="M63 252.702C62.9998 252.563 62.9583 252.427 62.8809 252.311C62.8034 252.195 62.6934 252.105 62.5647 252.052C62.436 251.998 62.2944 251.984 62.1577 252.012C62.0211 252.039 61.8956 252.106 61.797 252.204L58.413 255.587C58.2824 255.718 58.127 255.823 57.9559 255.893C57.7848 255.964 57.6012 256.001 57.416 256H55C54.7348 256 54.4804 256.105 54.2929 256.293C54.1054 256.48 54 256.735 54 257V263C54 263.265 54.1054 263.52 54.2929 263.707C54.4804 263.895 54.7348 264 55 264H57.416C57.6012 263.999 57.7848 264.036 57.9559 264.107C58.127 264.177 58.2824 264.282 58.413 264.413L61.796 267.797C61.8946 267.896 62.0203 267.963 62.1572 267.99C62.2941 268.018 62.436 268.004 62.5649 267.95C62.6939 267.897 62.804 267.806 62.8815 267.69C62.959 267.574 63.0002 267.438 63 267.298V252.702Z" stroke="black" stroke-width="2" stroke-linecap="round" stroke-linejoin="round"/>
<path id="Vector_270" d="M68 257C68.6491 257.865 69 258.918 69 260C69 261.082 68.6491 262.135 68 263" stroke="black" stroke-width="2" stroke-linecap="round" stroke-linejoin="round"/>
<path id="Vector_271" d="M71.3643 266.364C72.2 265.528 72.8629 264.536 73.3152 263.444C73.7675 262.352 74.0003 261.182 74.0003 260C74.0003 258.818 73.7675 257.648 73.3152 256.556C72.8629 255.464 72.2 254.472 71.3643 253.636" stroke="black" stroke-width="2" stroke-linecap="round" stroke-linejoin="round"/>
</g></svg>
