<svg viewBox="0 0 24 24" fill="none" xmlns="http://www.w3.org/2000/svg"><g transform="translate(-372 -216)">
<path id="Vector_266" d="M383 220.702C383 220.563 382.958 220.427 382.881 220.311C382.803 220.195 382.693 220.105 382.565 220.052C382.436 219.998 382.294 219.984 382.158 220.012C382.021 220.039 381.896 220.106 381.797 220.204L378.413 223.587C378.282 223.718 378.127 223.823 377.956 223.893C377.785 223.964 377.601 224.001 377.416 224H375C374.735 224 374.48 224.105 374.293 224.293C374.105 224.48 374 224.735 374 225V231C374 231.265 374.105 231.52 374.293 231.707C374.48 231.895 374.735 232 375 232H377.416C377.601 231.999 377.785 232.036 377.956 232.107C378.127 232.177 378.282 232.282 378.413 232.413L381.796 235.797C381.895 235.896 382.02 235.963 382.157 235.99C382.294 236.018 382.436 236.004 382.565 235.95C382.694 235.897 382.804 235.806 382.881 235.69C382.959 235.574 383 235.438 383 235.298V220.702Z" stroke="black" stroke-width="2" stroke-linecap="round" stroke-linejoin="round"/>
</g></svg>
