<svg viewBox="0 0 24 24" fill="none" xmlns="http://www.w3.org/2000/svg"><g transform="translate(-20 -248)">
<path id="Vector_267" d="M31 252.702C30.9998 252.563 30.9583 252.427 30.8809 252.311C30.8034 252.195 30.6934 252.105 30.5647 252.052C30.436 251.998 30.2944 251.984 30.1577 252.012C30.0211 252.039 29.8956 252.106 29.797 252.204L26.413 255.587C26.2824 255.718 26.127 255.823 25.9559 255.893C25.7848 255.964 25.6012 256.001 25.416 256H23C22.7348 256 22.4804 256.105 22.2929 256.293C22.1054 256.48 22 256.735 22 257V263C22 263.265 22.1054 263.52 22.2929 263.707C22.4804 263.895 22.7348 264 23 264H25.416C25.6012 263.999 25.7848 264.036 25.9559 264.107C26.127 264.177 26.2824 264.282 26.413 264.413L29.796 267.797C29.8946 267.896 30.0203 267.963 30.1572 267.99C30.2941 268.018 30.436 268.004 30.5649 267.95C30.6939 267.897 30.804 267.806 30.8815 267.69C30.959 267.574 31.0002 267.438 31 267.298V252.702Z" stroke="black" stroke-width="2" stroke-linecap="round" stroke-linejoin="round"/>
<path id="Vector_268" d="M36 257C36.6491 257.865 37 258.918 37 260C37 261.082 36.6491 262.135 36 263" stroke="black" stroke-width="2" stroke-linecap="round" stroke-linejoin="round"/>
</g></svg>
