<svg viewBox="0 0 24 24" fill="none" xmlns="http://www.w3.org/2000/svg"><g transform="translate(-116 -248)">
<path id="Vector_277" d="M127 252.702C127 252.563 126.958 252.427 126.881 252.311C126.803 252.195 126.693 252.105 126.565 252.052C126.436 251.998 126.294 251.984 126.158 252.012C126.021 252.039 125.896 252.106 125.797 252.204L122.413 255.587C122.282 255.718 122.127 255.823 121.956 255.893C121.785 255.964 121.601 256.001 121.416 256H119C118.735 256 118.48 256.105 118.293 256.293C118.105 256.48 118 256.735 118 257V263C118 263.265 118.105 263.52 118.293 263.707C118.48 263.895 118.735 264 119 264H121.416C121.601 263.999 121.785 264.036 121.956 264.107C122.127 264.177 122.282 264.282 122.413 264.413L125.796 267.797C125.895 267.896 126.02 267.963 126.157 267.99C126.294 268.018 126.436 268.004 126.565 267.95C126.694 267.897 126.804 267.806 126.881 267.69C126.959 267.574 127 267.438 127 267.298V252.702Z" stroke="black" stroke-width="2" stroke-linecap="round" stroke-linejoin="round"/>
<path id="Vector_278" d="M138 257L132 263" stroke="black" stroke-width="2" stroke-linecap="round" stroke-linejoin="round"/>
<path id="Vector_279" d="M132 257L138 263" stroke="black" stroke-width="2" stroke-linecap="round" stroke-linejoin="round"/>
</g></svg>
