<svg viewBox="0 0 24 24" fill="none" xmlns="http://www.w3.org/2000/svg"><g transform="translate(-116 -152)">
<path id="Vector_146" d="M119 163H122.75C123.06 163 123.367 163.072 123.644 163.211C123.922 163.35 124.164 163.552 124.35 163.8L124.8 164.4C125.173 164.897 125.656 165.3 126.211 165.578C126.767 165.855 127.379 166 128 166C128.621 166 129.233 165.855 129.789 165.578C130.344 165.3 130.827 164.897 131.2 164.4L131.65 163.8C131.836 163.552 132.078 163.35 132.356 163.211C132.633 163.072 132.94 163 133.25 163H137" stroke="black" stroke-width="2" stroke-linecap="round" stroke-linejoin="round"/>
<path id="Vector_147" d="M119 159H137" stroke="black" stroke-width="2" stroke-linecap="round" stroke-linejoin="round"/>
<path id="Vector_148" d="M135 155H121C119.895 155 119 155.895 119 157V171C119 172.105 119.895 173 121 173H135C136.105 173 137 172.105 137 171V157C137 155.895 136.105 155 135 155Z" stroke="black" stroke-width="2" stroke-linecap="round" stroke-linejoin="round"/>
</g></svg>
