<svg viewBox="0 0 24 24" fill="none" xmlns="http://www.w3.org/2000/svg"><g transform="translate(-84 -152)">
<path id="Vector_144" d="M103 159V156C103 155.735 102.895 155.48 102.707 155.293C102.52 155.105 102.265 155 102 155H89C88.4696 155 87.9609 155.211 87.5858 155.586C87.2107 155.961 87 156.47 87 157C87 157.53 87.2107 158.039 87.5858 158.414C87.9609 158.789 88.4696 159 89 159H104C104.265 159 104.52 159.105 104.707 159.293C104.895 159.48 105 159.735 105 160V164M105 164H102C101.47 164 100.961 164.211 100.586 164.586C100.211 164.961 100 165.47 100 166C100 166.53 100.211 167.039 100.586 167.414C100.961 167.789 101.47 168 102 168H105C105.265 168 105.52 167.895 105.707 167.707C105.895 167.52 106 167.265 106 167V165C106 164.735 105.895 164.48 105.707 164.293C105.52 164.105 105.265 164 105 164Z" stroke="black" stroke-width="2" stroke-linecap="round" stroke-linejoin="round"/>
<path id="Vector_145" d="M87 157V171C87 171.53 87.2107 172.039 87.5858 172.414C87.9609 172.789 88.4696 173 89 173H104C104.265 173 104.52 172.895 104.707 172.707C104.895 172.52 105 172.265 105 172V168" stroke="black" stroke-width="2" stroke-linecap="round" stroke-linejoin="round"/>
</g></svg>
