<svg viewBox="0 0 24 24" fill="none" xmlns="http://www.w3.org/2000/svg"><g transform="translate(-180 -280)">
<path id="Vector_326" d="M192 297V301" stroke="black" stroke-width="2" stroke-linecap="round" stroke-linejoin="round"/>
<path id="Vector_327" d="M188 301H196" stroke="black" stroke-width="2" stroke-linecap="round" stroke-linejoin="round"/>
<path id="Vector_328" d="M189 297L195.1 290.9C195.476 290.532 195.981 290.327 196.507 290.328C197.033 290.33 197.537 290.539 197.91 290.91L202 295" stroke="black" stroke-width="2" stroke-linecap="round" stroke-linejoin="round"/>
<path id="Vector_329" d="M188 291C189.105 291 190 290.105 190 289C190 287.895 189.105 287 188 287C186.895 287 186 287.895 186 289C186 290.105 186.895 291 188 291Z" stroke="black" stroke-width="2" stroke-linecap="round" stroke-linejoin="round"/>
<path id="Vector_330" d="M200 283H184C182.895 283 182 283.895 182 285V295C182 296.105 182.895 297 184 297H200C201.105 297 202 296.105 202 295V285C202 283.895 201.105 283 200 283Z" stroke="black" stroke-width="2" stroke-linecap="round" stroke-linejoin="round"/>
</g></svg>
