<svg viewBox="0 0 24 24" fill="none" xmlns="http://www.w3.org/2000/svg"><g transform="translate(-148 -152)">
<path id="Vector_149" d="M165 166H165.01" stroke="black" stroke-width="2" stroke-linecap="round" stroke-linejoin="round"/>
<path id="Vector_150" d="M155 159H167C167.53 159 168.039 159.211 168.414 159.586C168.789 159.961 169 160.47 169 161V171C169 171.53 168.789 172.039 168.414 172.414C168.039 172.789 167.53 173 167 173H153C152.47 173 151.961 172.789 151.586 172.414C151.211 172.039 151 171.53 151 171V157C151 156.47 151.211 155.961 151.586 155.586C151.961 155.211 152.47 155 153 155H167" stroke="black" stroke-width="2" stroke-linecap="round" stroke-linejoin="round"/>
</g></svg>
