<svg viewBox="0 0 24 24" fill="none" xmlns="http://www.w3.org/2000/svg"><g transform="translate(-372 -152)">
<path id="Vector_211" d="M392.36 154.36L393.64 155.64C393.755 155.752 393.846 155.886 393.908 156.033C393.971 156.181 394.003 156.34 394.003 156.5C394.003 156.66 393.971 156.819 393.908 156.967C393.846 157.114 393.755 157.248 393.64 157.36L377.36 173.64C377.248 173.755 377.114 173.846 376.967 173.909C376.819 173.971 376.66 174.003 376.5 174.003C376.339 174.003 376.181 173.971 376.033 173.909C375.885 173.846 375.752 173.755 375.64 173.64L374.36 172.36C374.246 172.247 374.156 172.114 374.094 171.966C374.033 171.818 374.001 171.66 374.001 171.5C374.001 171.34 374.033 171.182 374.094 171.034C374.156 170.886 374.246 170.753 374.36 170.64L390.64 154.36C390.752 154.246 390.886 154.156 391.034 154.094C391.181 154.033 391.34 154.001 391.5 154.001C391.66 154.001 391.818 154.033 391.966 154.094C392.113 154.156 392.247 154.246 392.36 154.36Z" stroke="black" stroke-width="2" stroke-linecap="round" stroke-linejoin="round"/>
<path id="Vector_212" d="M386 159L389 162" stroke="black" stroke-width="2" stroke-linecap="round" stroke-linejoin="round"/>
<path id="Vector_213" d="M377 158V162" stroke="black" stroke-width="2" stroke-linecap="round" stroke-linejoin="round"/>
<path id="Vector_214" d="M391 166V170" stroke="black" stroke-width="2" stroke-linecap="round" stroke-linejoin="round"/>
<path id="Vector_215" d="M382 154V156" stroke="black" stroke-width="2" stroke-linecap="round" stroke-linejoin="round"/>
<path id="Vector_216" d="M379 160H375" stroke="black" stroke-width="2" stroke-linecap="round" stroke-linejoin="round"/>
<path id="Vector_217" d="M393 168H389" stroke="black" stroke-width="2" stroke-linecap="round" stroke-linejoin="round"/>
<path id="Vector_218" d="M383 155H381" stroke="black" stroke-width="2" stroke-linecap="round" stroke-linejoin="round"/>
</g></svg>
