<svg viewBox="0 0 24 24" fill="none" xmlns="http://www.w3.org/2000/svg"><g transform="translate(-308 -120)">
<path id="Vector_139" d="M326 141V130C326 129.735 325.895 129.48 325.707 129.293C325.52 129.105 325.265 129 325 129H315C314.735 129 314.48 129.105 314.293 129.293C314.105 129.48 314 129.735 314 130V141" stroke="black" stroke-width="2" stroke-linecap="round" stroke-linejoin="round"/>
<path id="Vector_140" d="M330 139C330 139.53 329.789 140.039 329.414 140.414C329.039 140.789 328.53 141 328 141H312C311.47 141 310.961 140.789 310.586 140.414C310.211 140.039 310 139.53 310 139V128C310 127.623 310.106 127.254 310.306 126.935C310.506 126.616 310.793 126.36 311.132 126.197L319.082 122.223C319.366 122.076 319.681 122 320 122C320.32 122 320.635 122.076 320.919 122.223L328.867 126.197C329.206 126.36 329.493 126.616 329.693 126.935C329.894 127.254 330 127.623 330 128V139Z" stroke="black" stroke-width="2" stroke-linecap="round" stroke-linejoin="round"/>
<path id="Vector_141" d="M314 133H326" stroke="black" stroke-width="2" stroke-linecap="round" stroke-linejoin="round"/>
<path id="Vector_142" d="M314 137H326" stroke="black" stroke-width="2" stroke-linecap="round" stroke-linejoin="round"/>
</g></svg>
