<svg viewBox="0 0 24 24" fill="none" xmlns="http://www.w3.org/2000/svg"><g transform="translate(-84 -120)">
<path id="Vector_116" d="M87 126H90" stroke="black" stroke-width="2" stroke-linecap="round" stroke-linejoin="round"/>
<path id="Vector_117" d="M101 126H101.01" stroke="black" stroke-width="2" stroke-linecap="round" stroke-linejoin="round"/>
<path id="Vector_118" d="M103 122H89C87.8954 122 87 122.895 87 124V140C87 141.105 87.8954 142 89 142H103C104.105 142 105 141.105 105 140V124C105 122.895 104.105 122 103 122Z" stroke="black" stroke-width="2" stroke-linecap="round" stroke-linejoin="round"/>
<path id="Vector_119" d="M96 138C98.7614 138 101 135.761 101 133C101 130.239 98.7614 128 96 128C93.2386 128 91 130.239 91 133C91 135.761 93.2386 138 96 138Z" stroke="black" stroke-width="2" stroke-linecap="round" stroke-linejoin="round"/>
<path id="Vector_120" d="M96 138C96.663 138 97.2989 137.737 97.7678 137.268C98.2366 136.799 98.5 136.163 98.5 135.5C98.5 134.837 98.2366 134.201 97.7678 133.732C97.2989 133.263 96.663 133 96 133C95.337 133 94.7011 132.737 94.2322 132.268C93.7634 131.799 93.5 131.163 93.5 130.5C93.5 129.837 93.7634 129.201 94.2322 128.732C94.7011 128.263 95.337 128 96 128" stroke="black" stroke-width="2" stroke-linecap="round" stroke-linejoin="round"/>
</g></svg>
