<svg viewBox="0 0 24 24" fill="none" xmlns="http://www.w3.org/2000/svg"><g transform="translate(-180 -184)">
<path id="Vector_250" d="M192 194V196.2L193.6 197.2" stroke="black" stroke-width="2" stroke-linecap="round" stroke-linejoin="round"/>
<path id="Vector_251" d="M196.13 191.66L195.32 187.61C195.229 187.149 194.978 186.736 194.613 186.442C194.247 186.147 193.79 185.991 193.32 186H190.64C190.171 185.991 189.714 186.147 189.348 186.442C188.982 186.736 188.732 187.149 188.64 187.61L187.86 191.66" stroke="black" stroke-width="2" stroke-linecap="round" stroke-linejoin="round"/>
<path id="Vector_252" d="M187.88 200.36L188.68 204.36C188.771 204.82 189.022 205.234 189.387 205.528C189.753 205.823 190.211 205.979 190.68 205.97H193.4C193.869 205.979 194.327 205.823 194.692 205.528C195.058 205.234 195.308 204.82 195.4 204.36L196.21 200.31" stroke="black" stroke-width="2" stroke-linecap="round" stroke-linejoin="round"/>
<path id="Vector_253" d="M192 202C195.314 202 198 199.314 198 196C198 192.686 195.314 190 192 190C188.686 190 186 192.686 186 196C186 199.314 188.686 202 192 202Z" stroke="black" stroke-width="2" stroke-linecap="round" stroke-linejoin="round"/>
</g></svg>
