<svg viewBox="0 0 24 24" fill="none" xmlns="http://www.w3.org/2000/svg"><g transform="translate(-84 -216)">
<path id="Vector_274" d="M96 226V218" stroke="black" stroke-width="2" stroke-linecap="round" stroke-linejoin="round"/>
<path id="Vector_275" d="M100 222L96 226L92 222" stroke="black" stroke-width="2" stroke-linecap="round" stroke-linejoin="round"/>
<path id="Vector_276" d="M86 231C86.6 231.5 87.2 232 88.5 232C91 232 91 230 93.5 230C96.1 230 95.9 232 98.5 232C101 232 101 230 103.5 230C104.8 230 105.4 230.5 106 231" stroke="black" stroke-width="2" stroke-linecap="round" stroke-linejoin="round"/>
<path id="Vector_277" d="M86 237C86.6 237.5 87.2 238 88.5 238C91 238 91 236 93.5 236C96.1 236 95.9 238 98.5 238C101 238 101 236 103.5 236C104.8 236 105.4 236.5 106 237" stroke="black" stroke-width="2" stroke-linecap="round" stroke-linejoin="round"/>
</g></svg>
