<svg viewBox="0 0 24 24" fill="none" xmlns="http://www.w3.org/2000/svg"><g transform="translate(-212 -216)">
<path id="Vector_290" d="M224 218C225.333 219.667 225.333 221.333 224 223C222.667 224.667 222.667 226.333 224 228C225.333 229.667 225.333 231.333 224 233C222.667 234.667 222.667 236.333 224 238" stroke="black" stroke-width="2" stroke-linecap="round" stroke-linejoin="round"/>
<path id="Vector_291" d="M231 218C232.333 219.667 232.333 221.333 231 223C229.667 224.667 229.667 226.333 231 228C232.333 229.667 232.333 231.333 231 233C229.667 234.667 229.667 236.333 231 238" stroke="black" stroke-width="2" stroke-linecap="round" stroke-linejoin="round"/>
<path id="Vector_292" d="M217 218C218.333 219.667 218.333 221.333 217 223C215.667 224.667 215.667 226.333 217 228C218.333 229.667 218.333 231.333 217 233C215.667 234.667 215.667 236.333 217 238" stroke="black" stroke-width="2" stroke-linecap="round" stroke-linejoin="round"/>
</g></svg>
