<svg viewBox="0 0 24 24" fill="none" xmlns="http://www.w3.org/2000/svg"><g transform="translate(-116 -216)">
<path id="Vector_278" d="M128 218V226" stroke="black" stroke-width="2" stroke-linecap="round" stroke-linejoin="round"/>
<path id="Vector_279" d="M118 231C118.6 231.5 119.2 232 120.5 232C123 232 123 230 125.5 230C128.1 230 127.9 232 130.5 232C133 232 133 230 135.5 230C136.8 230 137.4 230.5 138 231" stroke="black" stroke-width="2" stroke-linecap="round" stroke-linejoin="round"/>
<path id="Vector_280" d="M118 237C118.6 237.5 119.2 238 120.5 238C123 238 123 236 125.5 236C128.1 236 127.9 238 130.5 238C133 238 133 236 135.5 236C136.8 236 137.4 236.5 138 237" stroke="black" stroke-width="2" stroke-linecap="round" stroke-linejoin="round"/>
<path id="Vector_281" d="M124 222L128 218L132 222" stroke="black" stroke-width="2" stroke-linecap="round" stroke-linejoin="round"/>
</g></svg>
