<svg viewBox="0 0 24 24" fill="none" xmlns="http://www.w3.org/2000/svg"><g transform="translate(-148 -216)">
<path id="Vector_282" d="M150 228C151.667 229.333 153.333 229.333 155 228C156.667 226.667 158.333 226.667 160 228C161.667 229.333 163.333 229.333 165 228C166.667 226.667 168.333 226.667 170 228" stroke="black" stroke-width="2" stroke-linecap="round" stroke-linejoin="round"/>
<path id="Vector_283" d="M150 235C151.667 236.333 153.333 236.333 155 235C156.667 233.667 158.333 233.667 160 235C161.667 236.333 163.333 236.333 165 235C166.667 233.667 168.333 233.667 170 235" stroke="black" stroke-width="2" stroke-linecap="round" stroke-linejoin="round"/>
<path id="Vector_284" d="M150 221C151.667 222.333 153.333 222.333 155 221C156.667 219.667 158.333 219.667 160 221C161.667 222.333 163.333 222.333 165 221C166.667 219.667 168.333 219.667 170 221" stroke="black" stroke-width="2" stroke-linecap="round" stroke-linejoin="round"/>
</g></svg>
