<svg viewBox="0 0 24 24" fill="none" xmlns="http://www.w3.org/2000/svg"><g transform="translate(-180 -216)">
<path id="Vector_285" d="M199 221C198.47 221 197.961 221.211 197.586 221.586C197.211 221.961 197 222.47 197 223V234" stroke="black" stroke-width="2" stroke-linecap="round" stroke-linejoin="round"/>
<path id="Vector_286" d="M182 234C182.6 234.5 183.2 235 184.5 235C187 235 187 233 189.5 233C192.1 233 191.9 235 194.5 235C197 235 197 233 199.5 233C200.8 233 201.4 233.5 202 234" stroke="black" stroke-width="2" stroke-linecap="round" stroke-linejoin="round"/>
<path id="Vector_287" d="M187 229H197" stroke="black" stroke-width="2" stroke-linecap="round" stroke-linejoin="round"/>
<path id="Vector_288" d="M187 225H197" stroke="black" stroke-width="2" stroke-linecap="round" stroke-linejoin="round"/>
<path id="Vector_289" d="M189 221C188.47 221 187.961 221.211 187.586 221.586C187.211 221.961 187 222.47 187 223V234" stroke="black" stroke-width="2" stroke-linecap="round" stroke-linejoin="round"/>
</g></svg>
