<svg viewBox="0 0 24 24" fill="none" xmlns="http://www.w3.org/2000/svg"><g transform="translate(-372 -152)">
<path id="Vector_183" d="M382.586 157.414L377.414 162.586" stroke="black" stroke-width="2" stroke-linecap="round" stroke-linejoin="round"/>
<path id="Vector_184" d="M390.586 165.414L385.414 170.586" stroke="black" stroke-width="2" stroke-linecap="round" stroke-linejoin="round"/>
<path id="Vector_185" d="M378 164H390" stroke="black" stroke-width="2" stroke-linecap="round" stroke-linejoin="round"/>
<path id="Vector_186" d="M384 174C385.105 174 386 173.105 386 172C386 170.895 385.105 170 384 170C382.895 170 382 170.895 382 172C382 173.105 382.895 174 384 174Z" stroke="black" stroke-width="2" stroke-linecap="round" stroke-linejoin="round"/>
<path id="Vector_187" d="M384 158C385.105 158 386 157.105 386 156C386 154.895 385.105 154 384 154C382.895 154 382 154.895 382 156C382 157.105 382.895 158 384 158Z" stroke="black" stroke-width="2" stroke-linecap="round" stroke-linejoin="round"/>
<path id="Vector_188" d="M392 166C393.105 166 394 165.105 394 164C394 162.895 393.105 162 392 162C390.895 162 390 162.895 390 164C390 165.105 390.895 166 392 166Z" stroke="black" stroke-width="2" stroke-linecap="round" stroke-linejoin="round"/>
<path id="Vector_189" d="M376 166C377.105 166 378 165.105 378 164C378 162.895 377.105 162 376 162C374.895 162 374 162.895 374 164C374 165.105 374.895 166 376 166Z" stroke="black" stroke-width="2" stroke-linecap="round" stroke-linejoin="round"/>
</g></svg>
