<svg viewBox="0 0 24 24" fill="none" xmlns="http://www.w3.org/2000/svg"><g transform="translate(-212 -280)">
<path id="Vector_396" d="M224 302V298" stroke="black" stroke-width="2" stroke-linecap="round" stroke-linejoin="round"/>
<path id="Vector_397" d="M224.754 287.096C225.271 287.23 225.743 287.5 226.121 287.878C226.499 288.256 226.77 288.729 226.904 289.246" stroke="black" stroke-width="2" stroke-linecap="round" stroke-linejoin="round"/>
<path id="Vector_398" d="M224.863 292.873C224.345 293.029 223.793 293.041 223.268 292.909C222.743 292.776 222.263 292.504 221.88 292.121C221.497 291.738 221.225 291.259 221.092 290.733C220.96 290.208 220.972 289.657 221.127 289.138" stroke="black" stroke-width="2" stroke-linecap="round" stroke-linejoin="round"/>
<path id="Vector_399" d="M228.566 296.57C227.025 297.642 225.157 298.139 223.287 297.973C221.417 297.807 219.665 296.988 218.338 295.661C217.011 294.333 216.193 292.582 216.026 290.712C215.86 288.842 216.357 286.973 217.43 285.433" stroke="black" stroke-width="2" stroke-linecap="round" stroke-linejoin="round"/>
<path id="Vector_400" d="M214 282L234 302" stroke="black" stroke-width="2" stroke-linecap="round" stroke-linejoin="round"/>
<path id="Vector_401" d="M219 302H229" stroke="black" stroke-width="2" stroke-linecap="round" stroke-linejoin="round"/>
<path id="Vector_402" d="M220.478 282.817C221.976 282.082 223.666 281.835 225.312 282.108C226.958 282.382 228.477 283.163 229.656 284.343C230.836 285.523 231.618 287.042 231.891 288.688C232.165 290.334 231.917 292.024 231.183 293.522" stroke="black" stroke-width="2" stroke-linecap="round" stroke-linejoin="round"/>
</g></svg>
