<svg viewBox="0 0 24 24" fill="none" xmlns="http://www.w3.org/2000/svg"><g transform="translate(-180 -280)">
<path id="Vector_392" d="M192 298C196.418 298 200 294.418 200 290C200 285.582 196.418 282 192 282C187.582 282 184 285.582 184 290C184 294.418 187.582 298 192 298Z" stroke="black" stroke-width="2" stroke-linecap="round" stroke-linejoin="round"/>
<path id="Vector_393" d="M192 293C193.657 293 195 291.657 195 290C195 288.343 193.657 287 192 287C190.343 287 189 288.343 189 290C189 291.657 190.343 293 192 293Z" stroke="black" stroke-width="2" stroke-linecap="round" stroke-linejoin="round"/>
<path id="Vector_394" d="M187 302H197" stroke="black" stroke-width="2" stroke-linecap="round" stroke-linejoin="round"/>
<path id="Vector_395" d="M192 302V298" stroke="black" stroke-width="2" stroke-linecap="round" stroke-linejoin="round"/>
</g></svg>
