<svg viewBox="0 0 24 24" fill="none" xmlns="http://www.w3.org/2000/svg"><g transform="translate(-276 -152)">
<path id="Vector_240" d="M294 168.98H288.01C286.91 168.98 286.06 169.92 285.53 170.88C285.11 171.667 284.44 172.292 283.625 172.654C282.809 173.016 281.897 173.096 281.031 172.88C280.166 172.664 279.397 172.164 278.848 171.461C278.299 170.758 278 169.892 278 169C278.01 168.3 278.2 167.6 278.57 167" stroke="black" stroke-width="2" stroke-linecap="round" stroke-linejoin="round"/>
<path id="Vector_241" d="M282 169L285.13 163.22C285.66 162.25 285.23 161.04 284.63 160.12C284.347 159.667 284.157 159.162 284.072 158.635C283.988 158.107 284.009 157.568 284.136 157.05C284.263 156.531 284.492 156.042 284.811 155.614C285.129 155.185 285.531 154.824 285.991 154.553C286.451 154.282 286.961 154.106 287.49 154.035C288.02 153.964 288.558 154 289.073 154.14C289.589 154.281 290.071 154.523 290.491 154.853C290.911 155.182 291.261 155.593 291.52 156.06" stroke="black" stroke-width="2" stroke-linecap="round" stroke-linejoin="round"/>
<path id="Vector_242" d="M288 158L291.13 163.73C291.66 164.7 292.9 165 294 165C295.061 165 296.078 165.421 296.828 166.172C297.579 166.922 298 167.939 298 169C298 170.061 297.579 171.078 296.828 171.828C296.078 172.579 295.061 173 294 173" stroke="black" stroke-width="2" stroke-linecap="round" stroke-linejoin="round"/>
</g></svg>
