<svg viewBox="0 0 24 24" fill="none" xmlns="http://www.w3.org/2000/svg"><g transform="translate(-308 -152)">
<path id="Vector_243" d="M325 169H320C318.91 168.98 318.06 169.92 317.5 170.9C317.244 171.355 316.9 171.755 316.49 172.078C316.079 172.4 315.609 172.638 315.106 172.779C314.603 172.92 314.077 172.96 313.559 172.897C313.041 172.835 312.54 172.671 312.085 172.415C311.63 172.159 311.229 171.816 310.907 171.405C310.585 170.994 310.346 170.524 310.206 170.021C310.065 169.518 310.025 168.993 310.087 168.474C310.15 167.956 310.314 167.455 310.57 167" stroke="black" stroke-width="2" stroke-linecap="round" stroke-linejoin="round"/>
<path id="Vector_244" d="M317 155.4C317.42 154.913 317.951 154.535 318.549 154.297C319.146 154.059 319.792 153.968 320.432 154.033C321.072 154.098 321.686 154.316 322.224 154.669C322.762 155.021 323.206 155.499 323.52 156.06" stroke="black" stroke-width="2" stroke-linecap="round" stroke-linejoin="round"/>
<path id="Vector_245" d="M314 169L317.1 163.2C317.254 162.882 317.339 162.535 317.348 162.181C317.358 161.828 317.293 161.476 317.157 161.15" stroke="black" stroke-width="2" stroke-linecap="round" stroke-linejoin="round"/>
<path id="Vector_246" d="M328.3 172.3C327.623 172.764 326.82 173.008 326 173" stroke="black" stroke-width="2" stroke-linecap="round" stroke-linejoin="round"/>
<path id="Vector_247" d="M326.6 165C327.453 165.131 328.24 165.534 328.845 166.149C329.45 166.765 329.84 167.559 329.957 168.414" stroke="black" stroke-width="2" stroke-linecap="round" stroke-linejoin="round"/>
<path id="Vector_248" d="M320 158L320.6 159" stroke="black" stroke-width="2" stroke-linecap="round" stroke-linejoin="round"/>
<path id="Vector_249" d="M310 154L330 174" stroke="black" stroke-width="2" stroke-linecap="round" stroke-linejoin="round"/>
</g></svg>
