<svg viewBox="0 0 24 24" fill="none" xmlns="http://www.w3.org/2000/svg"><g transform="translate(-52 -152)">
<path id="Vector_86" d="M58.4997 160C58.0668 160.004 57.647 160.149 57.3033 160.412C56.9596 160.675 56.7106 161.043 56.5937 161.46L54.0997 170.5C54.0241 170.793 54.0158 171.098 54.0754 171.395C54.135 171.691 54.261 171.97 54.4438 172.21C54.6267 172.451 54.8617 172.647 55.1311 172.784C55.4006 172.921 55.6976 172.994 55.9997 173H71.9997C72.3084 173 72.6129 172.928 72.8893 172.791C73.1657 172.654 73.4065 172.454 73.593 172.208C73.7794 171.962 73.9064 171.676 73.9639 171.373C74.0215 171.07 74.0081 170.757 73.9247 170.46L71.3997 161.5C71.2896 161.073 71.0417 160.695 70.6945 160.424C70.3473 160.153 69.9203 160.004 69.4797 160H58.4997Z" stroke="black" stroke-width="2" stroke-linecap="round" stroke-linejoin="round"/>
<path id="Vector_87" d="M59.999 167C60.2319 166.69 60.5339 166.438 60.881 166.264C61.2281 166.09 61.6109 166 61.999 166C62.3871 166 62.7699 166.09 63.1171 166.264C63.4642 166.438 63.7662 166.69 63.999 167C64.2319 167.31 64.5339 167.562 64.881 167.736C65.2281 167.91 65.6109 168 65.999 168C66.3871 168 66.7699 167.91 67.1171 167.736C67.4642 167.562 67.7662 167.31 67.999 167" stroke="black" stroke-width="2" stroke-linecap="round" stroke-linejoin="round"/>
<path id="Vector_88" d="M64 160C65.6569 160 67 158.657 67 157C67 155.343 65.6569 154 64 154C62.3431 154 61 155.343 61 157C61 158.657 62.3431 160 64 160Z" stroke="black" stroke-width="2" stroke-linecap="round" stroke-linejoin="round"/>
</g></svg>
