<svg viewBox="0 0 24 24" fill="none" xmlns="http://www.w3.org/2000/svg"><g transform="translate(-20 -152)">
<path id="Vector_84" d="M32 160C33.6569 160 35 158.657 35 157C35 155.343 33.6569 154 32 154C30.3431 154 29 155.343 29 157C29 158.657 30.3431 160 32 160Z" stroke="black" stroke-width="2" stroke-linecap="round" stroke-linejoin="round"/>
<path id="Vector_85" d="M26.4997 160C26.067 160.004 25.6474 160.149 25.3039 160.412C24.9604 160.676 24.7116 161.043 24.5947 161.46L22.0997 170.5C22.0241 170.793 22.0158 171.098 22.0754 171.395C22.135 171.691 22.261 171.97 22.4438 172.21C22.6267 172.451 22.8617 172.647 23.1311 172.784C23.4006 172.921 23.6976 172.994 23.9997 173H39.9997C40.3084 173 40.6129 172.928 40.8893 172.791C41.1657 172.654 41.4065 172.454 41.593 172.208C41.7794 171.962 41.9064 171.676 41.9639 171.373C42.0215 171.07 42.0081 170.757 41.9247 170.46L39.3997 161.5C39.2896 161.073 39.0417 160.695 38.6945 160.424C38.3473 160.153 37.9203 160.004 37.4797 160H26.4997Z" stroke="black" stroke-width="2" stroke-linecap="round" stroke-linejoin="round"/>
</g></svg>
