<svg viewBox="0 0 24 24" fill="none" xmlns="http://www.w3.org/2000/svg"><g transform="translate(-276 -184)">
<path id="Vector_232" d="M278 206L292 192" stroke="black" stroke-width="2" stroke-linecap="round" stroke-linejoin="round"/>
<path id="Vector_233" d="M279.47 196.53L281 195L282.53 196.53C283.184 197.186 283.551 198.074 283.551 199C283.551 199.926 283.184 200.814 282.53 201.47L281 203L279.47 201.47C278.817 200.814 278.45 199.926 278.45 199C278.45 198.074 278.817 197.186 279.47 196.53Z" stroke="black" stroke-width="2" stroke-linecap="round" stroke-linejoin="round"/>
<path id="Vector_234" d="M283.47 192.53L285 191L286.53 192.53C287.184 193.186 287.551 194.074 287.551 195C287.551 195.926 287.184 196.814 286.53 197.47L285 199L283.47 197.47C282.817 196.814 282.45 195.926 282.45 195C282.45 194.074 282.817 193.186 283.47 192.53Z" stroke="black" stroke-width="2" stroke-linecap="round" stroke-linejoin="round"/>
<path id="Vector_235" d="M287.47 188.53L289 187L290.53 188.53C291.184 189.186 291.551 190.074 291.551 191C291.551 191.926 291.184 192.814 290.53 193.47L289 195L287.47 193.47C286.817 192.814 286.45 191.926 286.45 191C286.45 190.074 286.817 189.186 287.47 188.53Z" stroke="black" stroke-width="2" stroke-linecap="round" stroke-linejoin="round"/>
<path id="Vector_236" d="M296 186H298V188C298 189.061 297.579 190.078 296.828 190.828C296.078 191.579 295.061 192 294 192H292V190C292 188.939 292.421 187.922 293.172 187.172C293.922 186.421 294.939 186 296 186Z" stroke="black" stroke-width="2" stroke-linecap="round" stroke-linejoin="round"/>
<path id="Vector_237" d="M287.47 201.47L289 203L287.47 204.53C286.814 205.183 285.926 205.55 285 205.55C284.074 205.55 283.186 205.183 282.53 204.53L281 203L282.53 201.47C283.186 200.817 284.074 200.45 285 200.45C285.926 200.45 286.814 200.817 287.47 201.47Z" stroke="black" stroke-width="2" stroke-linecap="round" stroke-linejoin="round"/>
<path id="Vector_238" d="M291.47 197.47L293 199L291.47 200.53C290.814 201.183 289.926 201.55 289 201.55C288.074 201.55 287.186 201.183 286.53 200.53L285 199L286.53 197.47C287.186 196.817 288.074 196.45 289 196.45C289.926 196.45 290.814 196.817 291.47 197.47Z" stroke="black" stroke-width="2" stroke-linecap="round" stroke-linejoin="round"/>
<path id="Vector_239" d="M295.47 193.47L297 195L295.47 196.53C294.814 197.183 293.926 197.55 293 197.55C292.074 197.55 291.186 197.183 290.53 196.53L289 195L290.53 193.47C291.186 192.817 292.074 192.45 293 192.45C293.926 192.45 294.814 192.817 295.47 193.47Z" stroke="black" stroke-width="2" stroke-linecap="round" stroke-linejoin="round"/>
</g></svg>
