<svg viewBox="0 0 24 24" fill="none" xmlns="http://www.w3.org/2000/svg"><g transform="translate(-308 -184)">
<path id="Vector_240" d="M310 206L320 196" stroke="black" stroke-width="2" stroke-linecap="round" stroke-linejoin="round"/>
<path id="Vector_241" d="M324 192L322.83 193.17" stroke="black" stroke-width="2" stroke-linecap="round" stroke-linejoin="round"/>
<path id="Vector_242" d="M311.47 196.53L313 195L314.53 196.53C315.184 197.186 315.551 198.074 315.551 199C315.551 199.926 315.184 200.814 314.53 201.47L313 203L311.47 201.47C310.817 200.814 310.45 199.926 310.45 199C310.45 198.074 310.817 197.186 311.47 196.53Z" stroke="black" stroke-width="2" stroke-linecap="round" stroke-linejoin="round"/>
<path id="Vector_243" d="M316 192L315.47 192.53C314.817 193.186 314.45 194.074 314.45 195C314.45 195.926 314.817 196.814 315.47 197.47L317 199L318.53 197.47C319.08 196.92 319.41 196.22 319.51 195.5" stroke="black" stroke-width="2" stroke-linecap="round" stroke-linejoin="round"/>
<path id="Vector_244" d="M318.91 189.26C319.06 189 319.25 188.75 319.47 188.53L321 187L322.53 188.53C323.131 189.134 323.491 189.937 323.543 190.787C323.594 191.638 323.334 192.478 322.81 193.15" stroke="black" stroke-width="2" stroke-linecap="round" stroke-linejoin="round"/>
<path id="Vector_245" d="M328 186H330V188C330 189.061 329.579 190.078 328.828 190.828C328.078 191.579 327.061 192 326 192H324V190C324 188.939 324.421 187.922 325.172 187.172C325.922 186.421 326.939 186 328 186Z" stroke="black" stroke-width="2" stroke-linecap="round" stroke-linejoin="round"/>
<path id="Vector_246" d="M319.47 201.47L321 203L319.47 204.53C318.814 205.183 317.926 205.55 317 205.55C316.074 205.55 315.186 205.183 314.53 204.53L313 203L314.53 201.47C315.186 200.817 316.074 200.45 317 200.45C317.926 200.45 318.814 200.817 319.47 201.47Z" stroke="black" stroke-width="2" stroke-linecap="round" stroke-linejoin="round"/>
<path id="Vector_247" d="M324 200L323.47 200.53C322.814 201.183 321.926 201.55 321 201.55C320.074 201.55 319.186 201.183 318.53 200.53L317 199L318.53 197.47C319.064 196.939 319.755 196.596 320.5 196.49" stroke="black" stroke-width="2" stroke-linecap="round" stroke-linejoin="round"/>
<path id="Vector_248" d="M326.74 197.09C327 196.94 327.25 196.75 327.47 196.53L329 195L327.47 193.47C326.866 192.869 326.063 192.509 325.212 192.457C324.362 192.406 323.522 192.666 322.85 193.19" stroke="black" stroke-width="2" stroke-linecap="round" stroke-linejoin="round"/>
<path id="Vector_249" d="M310 186L330 206" stroke="black" stroke-width="2" stroke-linecap="round" stroke-linejoin="round"/>
</g></svg>
