<svg viewBox="0 0 24 24" fill="none" xmlns="http://www.w3.org/2000/svg"><g transform="translate(-148 -152)">
<path id="Vector_146" d="M155 167C156.657 167 158 165.657 158 164C158 162.343 156.657 161 155 161C153.343 161 152 162.343 152 164C152 165.657 153.343 167 155 167Z" stroke="black" stroke-width="2" stroke-linecap="round" stroke-linejoin="round"/>
<path id="Vector_147" d="M158 161V167" stroke="black" stroke-width="2" stroke-linecap="round" stroke-linejoin="round"/>
<path id="Vector_148" d="M165 167C166.657 167 168 165.657 168 164C168 162.343 166.657 161 165 161C163.343 161 162 162.343 162 164C162 165.657 163.343 167 165 167Z" stroke="black" stroke-width="2" stroke-linecap="round" stroke-linejoin="round"/>
<path id="Vector_149" d="M162 159V167" stroke="black" stroke-width="2" stroke-linecap="round" stroke-linejoin="round"/>
<path id="Vector_150" d="M170 169V170C170 170.5 169.5 171 169 171H151C150.5 171 150 170.5 150 170V169" stroke="black" stroke-width="2" stroke-linecap="round" stroke-linejoin="round"/>
</g></svg>
