<svg viewBox="0 0 24 24" fill="none" xmlns="http://www.w3.org/2000/svg"><g transform="translate(-372 -280)">
<path id="Vector_424" d="M384 300H384.01" stroke="black" stroke-width="2" stroke-linecap="round" stroke-linejoin="round"/>
<path id="Vector_425" d="M380.5 296.429C381.435 295.513 382.691 295 384 295C385.309 295 386.565 295.513 387.5 296.429" stroke="black" stroke-width="2" stroke-linecap="round" stroke-linejoin="round"/>
<path id="Vector_426" d="M377 292.859C378.418 291.469 380.218 290.532 382.17 290.169" stroke="black" stroke-width="2" stroke-linecap="round" stroke-linejoin="round"/>
<path id="Vector_427" d="M391 292.859C390.398 292.269 389.724 291.757 388.993 291.336" stroke="black" stroke-width="2" stroke-linecap="round" stroke-linejoin="round"/>
<path id="Vector_428" d="M374 288.82C375.237 287.714 376.648 286.821 378.177 286.177" stroke="black" stroke-width="2" stroke-linecap="round" stroke-linejoin="round"/>
<path id="Vector_429" d="M394 288.82C392.475 287.456 390.686 286.418 388.745 285.771C386.804 285.124 384.751 284.88 382.712 285.056" stroke="black" stroke-width="2" stroke-linecap="round" stroke-linejoin="round"/>
<path id="Vector_430" d="M374 282L394 302" stroke="black" stroke-width="2" stroke-linecap="round" stroke-linejoin="round"/>
</g></svg>
