<svg viewBox="0 0 24 24" fill="none" xmlns="http://www.w3.org/2000/svg"><g transform="translate(-276 -280)">
<path id="Vector_407" d="M290.305 299.53L291.228 299.148" stroke="black" stroke-width="2" stroke-linecap="round" stroke-linejoin="round"/>
<path id="Vector_408" d="M291.228 296.852L290.305 296.469" stroke="black" stroke-width="2" stroke-linecap="round" stroke-linejoin="round"/>
<path id="Vector_409" d="M292.852 295.228L292.469 294.305" stroke="black" stroke-width="2" stroke-linecap="round" stroke-linejoin="round"/>
<path id="Vector_410" d="M292.852 300.772L292.469 301.696" stroke="black" stroke-width="2" stroke-linecap="round" stroke-linejoin="round"/>
<path id="Vector_411" d="M295.148 295.228L295.531 294.305" stroke="black" stroke-width="2" stroke-linecap="round" stroke-linejoin="round"/>
<path id="Vector_412" d="M295.53 301.696L295.148 300.772" stroke="black" stroke-width="2" stroke-linecap="round" stroke-linejoin="round"/>
<path id="Vector_413" d="M278 287.82C280.75 285.36 284.31 284 288 284C291.69 284 295.25 285.36 298 287.82" stroke="black" stroke-width="2" stroke-linecap="round" stroke-linejoin="round"/>
<path id="Vector_414" d="M296.772 296.852L297.696 296.469" stroke="black" stroke-width="2" stroke-linecap="round" stroke-linejoin="round"/>
<path id="Vector_415" d="M296.772 299.148L297.696 299.531" stroke="black" stroke-width="2" stroke-linecap="round" stroke-linejoin="round"/>
<path id="Vector_416" d="M281 291.858C282.491 290.398 284.401 289.44 286.464 289.12C288.526 288.8 290.637 289.133 292.5 290.073" stroke="black" stroke-width="2" stroke-linecap="round" stroke-linejoin="round"/>
<path id="Vector_417" d="M284.5 295.429C285.166 294.776 286.002 294.322 286.913 294.119" stroke="black" stroke-width="2" stroke-linecap="round" stroke-linejoin="round"/>
<path id="Vector_418" d="M294 301C295.657 301 297 299.657 297 298C297 296.343 295.657 295 294 295C292.343 295 291 296.343 291 298C291 299.657 292.343 301 294 301Z" stroke="black" stroke-width="2" stroke-linecap="round" stroke-linejoin="round"/>
</g></svg>
