<svg viewBox="0 0 24 24" fill="none" xmlns="http://www.w3.org/2000/svg"><g transform="translate(-52 -312)">
<path id="Vector_435" d="M63.9648 322.105V326.105L65.4998 324.5C66.0739 323.948 66.7714 323.542 67.5343 323.314C68.2972 323.086 69.1034 323.044 69.886 323.191C70.6685 323.337 71.4047 323.669 72.0333 324.157C72.6619 324.646 73.1647 325.278 73.4998 326" stroke="black" stroke-width="2" stroke-linecap="round" stroke-linejoin="round"/>
<path id="Vector_436" d="M63.9648 326.105H67.9648" stroke="black" stroke-width="2" stroke-linecap="round" stroke-linejoin="round"/>
<path id="Vector_437" d="M69.9647 330.105H73.9647L72.4297 331.71C71.8556 332.262 71.1582 332.668 70.3953 332.896C69.6324 333.124 68.8261 333.166 68.0436 333.019C67.261 332.873 66.5248 332.541 65.8963 332.053C65.2677 331.564 64.7649 330.932 64.4297 330.21" stroke="black" stroke-width="2" stroke-linecap="round" stroke-linejoin="round"/>
<path id="Vector_438" d="M54 320.82C56.7501 318.36 60.3103 317 64 317C67.6897 317 71.2499 318.36 74 320.82" stroke="black" stroke-width="2" stroke-linecap="round" stroke-linejoin="round"/>
<path id="Vector_439" d="M73.9648 334.105V330.105" stroke="black" stroke-width="2" stroke-linecap="round" stroke-linejoin="round"/>
<path id="Vector_440" d="M57 324.86C57.8679 324.006 58.8846 323.317 60 322.828" stroke="black" stroke-width="2" stroke-linecap="round" stroke-linejoin="round"/>
<path id="Vector_441" d="M60.5 328.429H60.51" stroke="black" stroke-width="2" stroke-linecap="round" stroke-linejoin="round"/>
</g></svg>
