<svg viewBox="0 0 24 24" fill="none" xmlns="http://www.w3.org/2000/svg"><g transform="translate(-20 -312)">
<path id="Vector_431" d="M22 320.82C24.7501 318.36 28.3103 317 32 317C35.6897 317 39.2499 318.36 42 320.82" stroke="black" stroke-width="2" stroke-linecap="round" stroke-linejoin="round"/>
<path id="Vector_432" d="M41.378 328.626C41.7763 328.228 42.0001 327.687 42.0001 327.124C42.0001 326.561 41.7763 326.02 41.378 325.622C40.9796 325.224 40.4393 325 39.876 325C39.3126 325 38.7723 325.224 38.374 325.622L34.364 329.634C34.1262 329.872 33.9522 330.165 33.858 330.488L33.021 333.358C32.9959 333.444 32.9944 333.535 33.0166 333.622C33.0389 333.709 33.084 333.788 33.1474 333.852C33.2108 333.915 33.2901 333.96 33.3769 333.982C33.4637 334.005 33.5549 334.003 33.641 333.978L36.511 333.141C36.8336 333.047 37.1274 332.873 37.365 332.635L41.378 328.626Z" stroke="black" stroke-width="2" stroke-linecap="round" stroke-linejoin="round"/>
<path id="Vector_433" d="M25 324.859C26.358 323.529 28.067 322.614 29.9267 322.22C31.7863 321.827 33.7196 321.971 35.5 322.637" stroke="black" stroke-width="2" stroke-linecap="round" stroke-linejoin="round"/>
<path id="Vector_434" d="M28.5 328.429C29.3112 327.633 30.3693 327.137 31.5 327.023" stroke="black" stroke-width="2" stroke-linecap="round" stroke-linejoin="round"/>
</g></svg>
