<svg viewBox="0 0 24 24" fill="none" xmlns="http://www.w3.org/2000/svg"><g transform="translate(-244 -216)">
<path id="Vector_293" d="M256.8 235.6C257.054 235.79 257.349 235.917 257.661 235.971C257.973 236.025 258.294 236.004 258.596 235.909C258.899 235.815 259.175 235.65 259.401 235.428C259.627 235.206 259.797 234.933 259.897 234.632C259.998 234.332 260.025 234.012 259.977 233.698C259.929 233.385 259.808 233.088 259.622 232.831C259.437 232.573 259.193 232.364 258.911 232.22C258.629 232.075 258.317 232 258 232H246" stroke="black" stroke-width="2" stroke-linecap="round" stroke-linejoin="round"/>
<path id="Vector_294" d="M261.5 224C261.756 223.659 262.094 223.389 262.484 223.216C262.873 223.043 263.3 222.972 263.725 223.01C264.149 223.048 264.557 223.194 264.909 223.435C265.261 223.675 265.545 224.001 265.736 224.382C265.927 224.763 266.017 225.187 265.997 225.612C265.978 226.038 265.851 226.452 265.627 226.814C265.403 227.177 265.09 227.476 264.717 227.684C264.345 227.891 263.926 228 263.5 228H246" stroke="black" stroke-width="2" stroke-linecap="round" stroke-linejoin="round"/>
<path id="Vector_295" d="M253.8 220.4C254.054 220.21 254.349 220.083 254.661 220.029C254.973 219.975 255.294 219.996 255.596 220.091C255.899 220.185 256.175 220.35 256.401 220.572C256.627 220.794 256.797 221.067 256.897 221.368C256.998 221.668 257.025 221.988 256.977 222.302C256.929 222.615 256.808 222.912 256.622 223.169C256.437 223.427 256.193 223.636 255.911 223.78C255.629 223.925 255.317 224 255 224H246" stroke="black" stroke-width="2" stroke-linecap="round" stroke-linejoin="round"/>
</g></svg>
