<svg viewBox="0 0 24 24" fill="none" xmlns="http://www.w3.org/2000/svg"><g transform="translate(-276 -216)">
<path id="Vector_296" d="M286 218V226" stroke="black" stroke-width="2" stroke-linecap="round" stroke-linejoin="round"/>
<path id="Vector_297" d="M288.8 237.6C289.054 237.79 289.349 237.917 289.661 237.971C289.973 238.025 290.294 238.004 290.596 237.909C290.899 237.815 291.175 237.65 291.401 237.428C291.627 237.206 291.797 236.933 291.897 236.632C291.998 236.332 292.025 236.012 291.977 235.698C291.929 235.385 291.808 235.088 291.622 234.831C291.437 234.573 291.193 234.364 290.911 234.22C290.629 234.075 290.317 234 290 234H278" stroke="black" stroke-width="2" stroke-linecap="round" stroke-linejoin="round"/>
<path id="Vector_298" d="M293.5 226C293.756 225.659 294.094 225.389 294.484 225.216C294.873 225.043 295.3 224.972 295.725 225.01C296.149 225.048 296.557 225.194 296.909 225.435C297.261 225.675 297.545 226.001 297.736 226.382C297.927 226.763 298.017 227.187 297.997 227.612C297.978 228.038 297.851 228.452 297.627 228.814C297.403 229.177 297.09 229.476 296.717 229.684C296.345 229.891 295.926 230 295.5 230H278" stroke="black" stroke-width="2" stroke-linecap="round" stroke-linejoin="round"/>
<path id="Vector_299" d="M282 222L286 226L290 222" stroke="black" stroke-width="2" stroke-linecap="round" stroke-linejoin="round"/>
</g></svg>
