<svg viewBox="0 0 24 24" fill="none" xmlns="http://www.w3.org/2000/svg"><g transform="translate(-372 -184)">
<path id="Vector_254" d="M380 206H388" stroke="black" stroke-width="2" stroke-linecap="round" stroke-linejoin="round"/>
<path id="Vector_255" d="M379 194H382M389 194H387.657" stroke="black" stroke-width="2" stroke-linecap="round" stroke-linejoin="round"/>
<path id="Vector_256" d="M384 199V206" stroke="black" stroke-width="2" stroke-linecap="round" stroke-linejoin="round"/>
<path id="Vector_257" d="M379.307 191.307C379.106 192.191 379.003 193.094 379 194C379 194.867 379.226 195.719 379.654 196.473C380.083 197.226 380.701 197.855 381.446 198.298C382.192 198.741 383.039 198.983 383.906 198.999C384.773 199.015 385.629 198.806 386.391 198.391M380.638 186.981C380.75 186.668 380.872 186.34 381 186H387C388.5 190 389 192 389 194C389 194.407 388.95 194.809 388.855 195.198" stroke="black" stroke-width="2" stroke-linecap="round" stroke-linejoin="round"/>
<path id="Vector_258" d="M374 186L394 206" stroke="black" stroke-width="2" stroke-linecap="round" stroke-linejoin="round"/>
</g></svg>
