<svg viewBox="0 0 24 24" fill="none" xmlns="http://www.w3.org/2000/svg"><g transform="translate(-340 -152)">
<path id="Vector_250" d="M349 155H345C343.895 155 343 155.895 343 157V161C343 162.105 343.895 163 345 163H349C350.105 163 351 162.105 351 161V157C351 155.895 350.105 155 349 155Z" stroke="black" stroke-width="2" stroke-linecap="round" stroke-linejoin="round"/>
<path id="Vector_251" d="M347 163V167C347 167.53 347.211 168.039 347.586 168.414C347.961 168.789 348.47 169 349 169H353" stroke="black" stroke-width="2" stroke-linecap="round" stroke-linejoin="round"/>
<path id="Vector_252" d="M359 165H355C353.895 165 353 165.895 353 167V171C353 172.105 353.895 173 355 173H359C360.105 173 361 172.105 361 171V167C361 165.895 360.105 165 359 165Z" stroke="black" stroke-width="2" stroke-linecap="round" stroke-linejoin="round"/>
</g></svg>
