<svg viewBox="0 0 24 24" fill="none" xmlns="http://www.w3.org/2000/svg"><g transform="translate(-20 -88)">
<path id="Vector_56" d="M39 100L37.5 103" stroke="black" stroke-width="2" stroke-linecap="round" stroke-linejoin="round"/>
<path id="Vector_57" d="M39.6299 106.81L41.9999 108" stroke="black" stroke-width="2" stroke-linecap="round" stroke-linejoin="round"/>
<path id="Vector_58" d="M26.4699 96.2299C26.7605 96.0658 27.0935 95.9919 27.4263 96.0177C27.7591 96.0436 28.0766 96.168 28.3384 96.375C28.6002 96.5821 28.7944 96.8625 28.8962 97.1804C28.998 97.4983 29.0027 97.8393 28.9099 98.1599L28.2699 100.24C27.8539 101.57 27.8592 102.996 28.285 104.323C28.7109 105.65 29.5364 106.813 30.6487 107.653C31.7611 108.493 33.1057 108.968 34.4986 109.014C35.8915 109.06 37.2646 108.674 38.4299 107.91L38.8499 107.64C39.1263 107.461 39.3648 107.229 39.5515 106.957C39.7383 106.686 39.8698 106.38 39.9386 106.058C40.0073 105.736 40.0119 105.403 39.952 105.079C39.8922 104.755 39.7692 104.446 39.5899 104.17C39.4106 103.893 39.1787 103.655 38.9073 103.468C38.6359 103.281 38.3304 103.15 38.0082 103.081C37.6859 103.013 37.3533 103.008 37.0294 103.068C36.7054 103.128 36.3963 103.251 36.1199 103.43L35.6999 103.7C35.3971 103.892 35.0426 103.988 34.6842 103.973C34.3257 103.958 33.9802 103.834 33.6941 103.618C33.408 103.401 33.1948 103.103 33.0833 102.762C32.9717 102.421 32.9671 102.054 33.0699 101.71L33.7099 99.6299C34.1194 98.341 34.1269 96.958 33.7312 95.6647C33.3356 94.3715 32.5556 93.2293 31.495 92.3902C30.4344 91.5511 29.1435 91.0547 27.7939 90.9671C26.4443 90.8795 25.1001 91.2049 23.9399 91.8999L23.2399 92.2999C22.9549 92.4674 22.7057 92.6893 22.5065 92.953C22.3073 93.2168 22.162 93.5172 22.0789 93.8371C21.9111 94.4831 22.0068 95.1694 22.3449 95.7449C22.6831 96.3204 23.236 96.7381 23.882 96.9059C24.5281 97.0738 25.2144 96.9781 25.7899 96.6399L26.4699 96.2299Z" stroke="black" stroke-width="2" stroke-linecap="round" stroke-linejoin="round"/>
</g></svg>
