<svg viewBox="0 0 24 24" fill="none" xmlns="http://www.w3.org/2000/svg"><g transform="translate(-148 -120)">
<path id="Vector_145" d="M158.747 125.093C159.399 123.915 160.428 122.99 161.668 122.467C162.909 121.944 164.29 121.854 165.588 122.211C166.026 122.331 166.128 122.873 165.807 123.195L162.7 126.3C162.517 126.487 162.414 126.738 162.414 127C162.414 127.262 162.517 127.513 162.7 127.7L164.3 129.3C164.487 129.483 164.738 129.586 165 129.586C165.262 129.586 165.513 129.483 165.7 129.3L168.806 126.195C169.126 125.873 169.669 125.975 169.789 126.413C170.146 127.711 170.056 129.092 169.533 130.333C169.011 131.574 168.086 132.603 166.907 133.255" stroke="black" stroke-width="2" stroke-linecap="round" stroke-linejoin="round"/>
<path id="Vector_146" d="M161.5 133.5L153.62 141.38C153.223 141.778 152.683 142.001 152.121 142.001C151.558 142.001 151.019 141.777 150.621 141.379C150.223 140.982 150 140.442 150 139.88C150 139.317 150.224 138.778 150.621 138.38L158.501 130.5" stroke="black" stroke-width="2" stroke-linecap="round" stroke-linejoin="round"/>
<path id="Vector_147" d="M150 122L170 142" stroke="black" stroke-width="2" stroke-linecap="round" stroke-linejoin="round"/>
</g></svg>
