<svg viewBox="0 0 24 24" fill="none" xmlns="http://www.w3.org/2000/svg"><g transform="translate(-116 -120)">
<path id="Vector_144" d="M130.7 126.3C130.517 126.487 130.415 126.738 130.415 127C130.415 127.262 130.517 127.513 130.7 127.7L132.3 129.3C132.487 129.483 132.739 129.586 133 129.586C133.262 129.586 133.514 129.483 133.7 129.3L136.806 126.195C137.126 125.873 137.669 125.975 137.789 126.413C138.092 127.512 138.075 128.674 137.74 129.764C137.406 130.853 136.768 131.825 135.902 132.565C135.035 133.306 133.976 133.784 132.848 133.944C131.719 134.104 130.569 133.94 129.53 133.47L121.62 141.38C121.223 141.778 120.683 142.001 120.121 142.001C119.558 142.001 119.019 141.777 118.621 141.38C118.223 140.982 118 140.442 118 139.88C118 139.317 118.224 138.778 118.621 138.38L126.531 130.47C126.062 129.432 125.897 128.281 126.057 127.153C126.218 126.024 126.696 124.965 127.436 124.099C128.177 123.232 129.148 122.595 130.238 122.26C131.327 121.926 132.49 121.909 133.588 122.211C134.026 122.331 134.128 122.873 133.807 123.195L130.7 126.3Z" stroke="black" stroke-width="2" stroke-linecap="round" stroke-linejoin="round"/>
</g></svg>
