<svg viewBox="0 0 24 24" fill="none" xmlns="http://www.w3.org/2000/svg"><g transform="translate(-148 -312)">
<path id="Vector_444" d="M158.513 316.856L161.12 314.17C161.194 314.084 161.295 314.026 161.407 314.006C161.518 313.985 161.633 314.003 161.733 314.057C161.833 314.11 161.912 314.196 161.957 314.3C162.002 314.404 162.01 314.521 161.98 314.63L160.603 318.947" stroke="black" stroke-width="2" stroke-linecap="round" stroke-linejoin="round"/>
<path id="Vector_445" d="M163.656 322H168C168.189 321.999 168.375 322.052 168.535 322.153C168.696 322.254 168.824 322.398 168.906 322.568C168.987 322.739 169.019 322.929 168.997 323.117C168.975 323.305 168.899 323.483 168.78 323.63L167.06 325.403" stroke="black" stroke-width="2" stroke-linecap="round" stroke-linejoin="round"/>
<path id="Vector_446" d="M164.273 328.273L158.88 333.83C158.806 333.916 158.705 333.974 158.593 333.994C158.482 334.015 158.367 333.997 158.267 333.944C158.167 333.89 158.088 333.804 158.043 333.7C157.998 333.596 157.99 333.479 158.02 333.37L159.94 327.35C159.997 327.199 160.016 327.036 159.996 326.875C159.976 326.715 159.917 326.561 159.824 326.429C159.732 326.296 159.609 326.188 159.465 326.113C159.322 326.038 159.162 326 159 326H152C151.811 326.001 151.626 325.948 151.465 325.847C151.305 325.746 151.177 325.602 151.095 325.432C151.013 325.261 150.982 325.071 151.004 324.883C151.026 324.695 151.101 324.517 151.22 324.37L155.727 319.727" stroke="black" stroke-width="2" stroke-linecap="round" stroke-linejoin="round"/>
<path id="Vector_447" d="M150 314L170 334" stroke="black" stroke-width="2" stroke-linecap="round" stroke-linejoin="round"/>
</g></svg>
