<svg viewBox="0 0 24 24" fill="none" xmlns="http://www.w3.org/2000/svg"><g transform="translate(-116 -312)">
<path id="Vector_443" d="M120 326C119.811 326.001 119.626 325.948 119.465 325.847C119.305 325.746 119.177 325.602 119.095 325.432C119.013 325.261 118.982 325.071 119.004 324.883C119.026 324.695 119.101 324.517 119.22 324.37L129.12 314.17C129.195 314.084 129.296 314.026 129.407 314.006C129.519 313.985 129.634 314.003 129.734 314.057C129.834 314.11 129.913 314.196 129.958 314.3C130.003 314.404 130.011 314.521 129.98 314.63L128.06 320.65C128.004 320.802 127.985 320.965 128.005 321.125C128.025 321.286 128.084 321.439 128.177 321.571C128.269 321.704 128.392 321.813 128.536 321.887C128.679 321.962 128.839 322.001 129 322H136C136.19 321.999 136.375 322.052 136.536 322.153C136.696 322.254 136.824 322.398 136.906 322.568C136.988 322.739 137.019 322.929 136.997 323.117C136.975 323.305 136.9 323.483 136.78 323.63L126.88 333.83C126.806 333.916 126.705 333.974 126.593 333.994C126.482 334.015 126.367 333.997 126.267 333.944C126.167 333.89 126.088 333.804 126.043 333.7C125.998 333.596 125.99 333.479 126.02 333.37L127.94 327.35C127.997 327.199 128.016 327.036 127.996 326.875C127.976 326.715 127.917 326.561 127.824 326.429C127.732 326.296 127.609 326.188 127.465 326.113C127.322 326.038 127.162 326 127 326H120Z" stroke="black" stroke-width="2" stroke-linecap="round" stroke-linejoin="round"/>
</g></svg>
