<svg viewBox="0 0 24 24" fill="none" xmlns="http://www.w3.org/2000/svg"><g transform="translate(-180 -184)">
<path id="Vector_234" d="M190 200C190 196 187 195.5 187 192C187 190.674 187.527 189.402 188.464 188.464C189.402 187.527 190.674 187 192 187C193.326 187 194.598 187.527 195.536 188.464C196.473 189.402 197 190.674 197 192C197 195.466 194 198.196 194 202C194 202.796 194.316 203.559 194.879 204.121C195.441 204.684 196.204 205 197 205C197.796 205 198.559 204.684 199.121 204.121C199.684 203.559 200 202.796 200 202" stroke="black" stroke-width="2" stroke-linecap="round" stroke-linejoin="round"/>
<path id="Vector_235" d="M187 203C188.657 203 190 201.657 190 200C190 198.343 188.657 197 187 197C185.343 197 184 198.343 184 200C184 201.657 185.343 203 187 203Z" stroke="black" stroke-width="2" stroke-linecap="round" stroke-linejoin="round"/>
</g></svg>
