<svg viewBox="0 0 24 24" fill="none" xmlns="http://www.w3.org/2000/svg"><g transform="translate(-212 -184)">
<path id="Vector_236" d="M215 200H221.857C222.019 199.988 222.047 199.677 221.895 199.62C220.579 199.127 219.478 198.187 218.783 196.964C218.089 195.742 217.846 194.315 218.097 192.932C218.348 191.548 219.076 190.297 220.155 189.396C221.234 188.495 222.595 188.002 224.001 188.002C225.407 188.002 226.768 188.495 227.847 189.396C228.926 190.297 229.654 191.548 229.905 192.932C230.156 194.315 229.913 195.742 229.219 196.964C228.524 198.187 227.423 199.127 226.107 199.62C225.954 199.677 225.982 199.988 226.145 200H233" stroke="black" stroke-width="2" stroke-linecap="round" stroke-linejoin="round"/>
<path id="Vector_237" d="M215 204H233" stroke="black" stroke-width="2" stroke-linecap="round" stroke-linejoin="round"/>
</g></svg>
