<svg viewBox="0 0 24 24" fill="none" xmlns="http://www.w3.org/2000/svg"><g transform="translate(-116 -184)">
<path id="Vector_227" d="M127 205C127.796 205 128.559 204.684 129.121 204.121C129.684 203.559 130 202.796 130 202V190.5C130 189.572 129.631 188.682 128.975 188.025C128.318 187.369 127.428 187 126.5 187C125.572 187 124.682 187.369 124.025 188.025C123.369 188.682 123 189.572 123 190.5" stroke="black" stroke-width="2" stroke-linecap="round" stroke-linejoin="round"/>
<path id="Vector_228" d="M123 203V190C123 189.204 122.684 188.441 122.121 187.879C121.559 187.316 120.796 187 120 187" stroke="black" stroke-width="2" stroke-linecap="round" stroke-linejoin="round"/>
<path id="Vector_229" d="M133 204C134.657 204 136 202.657 136 201C136 199.343 134.657 198 133 198C131.343 198 130 199.343 130 201C130 202.657 131.343 204 133 204Z" stroke="black" stroke-width="2" stroke-linecap="round" stroke-linejoin="round"/>
</g></svg>
