<svg viewBox="0 0 24 24" fill="none" xmlns="http://www.w3.org/2000/svg"><g transform="translate(-20 -184)">
<path id="Vector_219" d="M22 194L24.456 190.316C24.5204 190.231 24.6035 190.162 24.6988 190.114C24.7941 190.066 24.8991 190.04 25.0058 190.039C25.1125 190.037 25.2181 190.061 25.3145 190.106C25.4109 190.152 25.4956 190.219 25.562 190.303L27.952 193.716C28.0176 193.798 28.101 193.865 28.1959 193.911C28.2909 193.956 28.3949 193.98 28.5002 193.98C28.6056 193.98 28.7096 193.956 28.8044 193.91C28.8993 193.864 28.9825 193.798 29.048 193.715L31.45 190.283C31.5155 190.2 31.599 190.133 31.694 190.087C31.7891 190.041 31.8934 190.017 31.999 190.017C32.1046 190.017 32.2089 190.041 32.304 190.087C32.399 190.133 32.4825 190.2 32.548 190.283L34.95 193.715C35.0155 193.798 35.099 193.865 35.194 193.911C35.2891 193.957 35.3934 193.981 35.499 193.981C35.6046 193.981 35.7089 193.957 35.804 193.911C35.899 193.865 35.9825 193.798 36.048 193.715L38.437 190.302C38.5034 190.218 38.5881 190.151 38.6845 190.105C38.7809 190.06 38.8865 190.036 38.9932 190.038C39.0999 190.039 39.2049 190.065 39.3002 190.113C39.3955 190.161 39.4786 190.23 39.543 190.315L42 194" stroke="black" stroke-width="2" stroke-linecap="round" stroke-linejoin="round"/>
<path id="Vector_220" d="M22 202.002L24.456 198.318C24.5204 198.233 24.6035 198.164 24.6988 198.116C24.7941 198.068 24.8991 198.042 25.0058 198.041C25.1125 198.039 25.2181 198.063 25.3145 198.108C25.4109 198.154 25.4956 198.221 25.562 198.305L27.952 201.718C28.0175 201.801 28.1009 201.867 28.1959 201.913C28.2909 201.959 28.395 201.983 28.5005 201.983C28.606 201.983 28.7101 201.959 28.8051 201.913C28.9001 201.867 28.9835 201.801 29.049 201.718L31.451 198.286C31.5165 198.203 31.6 198.136 31.695 198.09C31.7901 198.044 31.8944 198.02 32 198.02C32.1056 198.02 32.2099 198.044 32.305 198.09C32.4 198.136 32.4835 198.203 32.549 198.286L34.951 201.718C35.0165 201.801 35.1 201.868 35.195 201.914C35.2901 201.96 35.3944 201.984 35.5 201.984C35.6056 201.984 35.7099 201.96 35.805 201.914C35.9 201.868 35.9835 201.801 36.049 201.718L38.438 198.305C38.5044 198.221 38.5891 198.154 38.6855 198.108C38.7819 198.063 38.8875 198.039 38.9942 198.041C39.1009 198.042 39.2059 198.068 39.3012 198.116C39.3965 198.164 39.4796 198.233 39.544 198.318L42 202.002" stroke="black" stroke-width="2" stroke-linecap="round" stroke-linejoin="round"/>
</g></svg>
