<svg viewBox="0 0 24 24" fill="none" xmlns="http://www.w3.org/2000/svg"><g transform="translate(-20 -216)">
<path id="Vector_252" d="M31 221.5C31 220.837 31.2634 220.201 31.7322 219.732C32.2011 219.263 32.837 219 33.5 219C34.163 219 34.7989 219.263 35.2678 219.732C35.7366 220.201 36 220.837 36 221.5V232C36 233.326 36.5268 234.598 37.4645 235.536C38.4021 236.473 39.6739 237 41 237" stroke="black" stroke-width="2" stroke-linecap="round" stroke-linejoin="round"/>
<path id="Vector_253" d="M36 227.5C36 226.837 36.2634 226.201 36.7322 225.732C37.2011 225.263 37.837 225 38.5 225C39.163 225 39.7989 225.263 40.2678 225.732C40.7366 226.201 41 226.837 41 227.5V232C41 233.326 40.4732 234.598 39.5355 235.536C38.5979 236.473 37.3261 237 36 237" stroke="black" stroke-width="2" stroke-linecap="round" stroke-linejoin="round"/>
<path id="Vector_254" d="M26 235V222C26 221.204 25.6839 220.441 25.1213 219.879C24.5587 219.316 23.7956 219 23 219" stroke="black" stroke-width="2" stroke-linecap="round" stroke-linejoin="round"/>
<path id="Vector_255" d="M26 221.5C26 220.837 26.2634 220.201 26.7322 219.732C27.2011 219.263 27.837 219 28.5 219C29.163 219 29.7989 219.263 30.2678 219.732C30.7366 220.201 31 220.837 31 221.5V235" stroke="black" stroke-width="2" stroke-linecap="round" stroke-linejoin="round"/>
</g></svg>
