<svg viewBox="0 0 24 24" fill="none" xmlns="http://www.w3.org/2000/svg"><g transform="translate(-340 -184)">
<path id="Vector_246" d="M350 203V189.5C350 188.837 350.263 188.201 350.732 187.732C351.201 187.263 351.837 187 352.5 187C353.163 187 353.799 187.263 354.268 187.732C354.737 188.201 355 188.837 355 189.5V201C355 201.53 355.211 202.039 355.586 202.414C355.961 202.789 356.47 203 357 203H362L359 200" stroke="black" stroke-width="2" stroke-linecap="round" stroke-linejoin="round"/>
<path id="Vector_247" d="M362 203L359 206" stroke="black" stroke-width="2" stroke-linecap="round" stroke-linejoin="round"/>
<path id="Vector_248" d="M345 203V189.5C345 188.837 345.263 188.201 345.732 187.732C346.201 187.263 346.837 187 347.5 187C348.163 187 348.799 187.263 349.268 187.732C349.737 188.201 350 188.837 350 189.5" stroke="black" stroke-width="2" stroke-linecap="round" stroke-linejoin="round"/>
<path id="Vector_249" d="M345 189.5C345 188.837 344.737 188.201 344.268 187.732C343.799 187.263 343.163 187 342.5 187" stroke="black" stroke-width="2" stroke-linecap="round" stroke-linejoin="round"/>
</g></svg>
