<svg viewBox="0 0 24 24" fill="none" xmlns="http://www.w3.org/2000/svg"><g transform="translate(-84 -184)">
<path id="Vector_223" d="M105 198.5C105.001 199.798 104.464 201.066 103.459 202.142C102.453 203.218 101.024 204.051 99.3568 204.535C97.6894 205.019 95.8595 205.132 94.1028 204.858C92.3461 204.585 90.743 203.937 89.5 203" stroke="black" stroke-width="2" stroke-linecap="round" stroke-linejoin="round"/>
<path id="Vector_224" d="M87 193.5C86.9988 192.202 87.5357 190.934 88.5415 189.858C89.5472 188.782 90.9758 187.949 92.6432 187.465C94.3106 186.981 96.1405 186.868 97.8972 187.142C99.6539 187.415 101.257 188.063 102.5 189" stroke="black" stroke-width="2" stroke-linecap="round" stroke-linejoin="round"/>
<path id="Vector_225" d="M101.5 202C103.433 202 105 200.433 105 198.5C105 196.567 103.433 195 101.5 195C99.567 195 98 196.567 98 198.5C98 200.433 99.567 202 101.5 202Z" stroke="black" stroke-width="2" stroke-linecap="round" stroke-linejoin="round"/>
<path id="Vector_226" d="M90.5 197C92.433 197 94 195.433 94 193.5C94 191.567 92.433 190 90.5 190C88.567 190 87 191.567 87 193.5C87 195.433 88.567 197 90.5 197Z" stroke="black" stroke-width="2" stroke-linecap="round" stroke-linejoin="round"/>
</g></svg>
