<svg viewBox="0 0 24 24" fill="none" xmlns="http://www.w3.org/2000/svg"><g transform="translate(-52 -184)">
<path id="Vector_221" d="M64 191.5C64.0054 190.633 64.2614 189.785 64.7372 189.06C65.213 188.334 65.8883 187.762 66.6819 187.411C67.4754 187.061 68.3534 186.947 69.21 187.084C70.0666 187.221 70.8654 187.603 71.5103 188.183C72.1551 188.763 72.6184 189.518 72.8444 190.355C73.0705 191.193 73.0497 192.078 72.7844 192.904C72.5192 193.73 72.0208 194.461 71.3494 195.011C70.678 195.56 69.8621 195.904 69 196" stroke="black" stroke-width="2" stroke-linecap="round" stroke-linejoin="round"/>
<path id="Vector_222" d="M58.9999 196C58.1378 195.904 57.3219 195.56 56.6505 195.011C55.9791 194.461 55.4807 193.73 55.2155 192.904C54.9503 192.078 54.9294 191.193 55.1555 190.355C55.3815 189.518 55.8448 188.763 56.4897 188.183C57.1345 187.603 57.9333 187.221 58.7899 187.084C59.6465 186.947 60.5245 187.061 61.318 187.411C62.1116 187.762 62.7869 188.334 63.2627 189.06C63.7385 189.785 63.9945 190.633 63.9999 191.5V205" stroke="black" stroke-width="2" stroke-linecap="round" stroke-linejoin="round"/>
</g></svg>
