<svg viewBox="0 0 24 24" fill="none" xmlns="http://www.w3.org/2000/svg"><g transform="translate(-244 -184)">
<path id="Vector_238" d="M247 194C247.568 193.37 248.262 192.866 249.038 192.522C249.813 192.177 250.652 191.999 251.5 191.999C252.348 191.999 253.187 192.177 253.962 192.522C254.738 192.866 255.432 193.37 256 194C256.568 194.63 257.262 195.134 258.038 195.478C258.813 195.823 259.652 196.001 260.5 196.001C261.348 196.001 262.187 195.823 262.962 195.478C263.738 195.134 264.432 194.63 265 194" stroke="black" stroke-width="2" stroke-linecap="round" stroke-linejoin="round"/>
<path id="Vector_239" d="M250 187V199C250 200.591 250.632 202.117 251.757 203.243C252.883 204.368 254.409 205 256 205C257.591 205 259.117 204.368 260.243 203.243C261.368 202.117 262 200.591 262 199V187" stroke="black" stroke-width="2" stroke-linecap="round" stroke-linejoin="round"/>
</g></svg>
