<svg viewBox="0 0 24 24" fill="none" xmlns="http://www.w3.org/2000/svg"><g transform="translate(-52 -56)">
<path id="Vector_2" d="M67.5 70H66.71L66.43 69.73C67.41 68.59 68 67.11 68 65.5C68 61.91 65.09 59 61.5 59C57.91 59 55 61.91 55 65.5C55 69.09 57.91 72 61.5 72C63.11 72 64.59 71.41 65.73 70.43L66 70.71V71.5L71 76.49L72.49 75L67.5 70ZM61.5 70C59.01 70 57 67.99 57 65.5C57 63.01 59.01 61 61.5 61C63.99 61 66 63.01 66 65.5C66 67.99 63.99 70 61.5 70ZM62 63H61V65H59V66H61V68H62V66H64V65H62V63Z" fill="black" fill-opacity="0.54"/>
</g></svg>
