<svg viewBox="0 0 24 24" fill="none" xmlns="http://www.w3.org/2000/svg"><g transform="translate(-84 -56)">
<path id="Vector_3" d="M99.5 70H98.71L98.43 69.73C99.41 68.59 100 67.11 100 65.5C100 61.91 97.09 59 93.5 59C89.91 59 87 61.91 87 65.5C87 69.09 89.91 72 93.5 72C95.11 72 96.59 71.41 97.73 70.43L98 70.71V71.5L103 76.49L104.49 75L99.5 70ZM93.5 70C91.01 70 89 67.99 89 65.5C89 63.01 91.01 61 93.5 61C95.99 61 98 63.01 98 65.5C98 67.99 95.99 70 93.5 70ZM91 65H96V66H91V65Z" fill="black" fill-opacity="0.54"/>
</g></svg>
